<svg width="17" height="17" viewBox="0 0 17 17" fill="none" xmlns="http://www.w3.org/2000/svg">
<path id="Icon" d="M9.29244 15.252L9.29077 9.1342L15.3861 9.15839C15.717 9.13414 15.9752 8.85932 15.9787 8.52766C15.9822 8.19599 15.7297 7.91929 15.3993 7.89259L9.31762 7.83693L9.33816 1.78637C9.3383 1.43727 9.05652 1.15549 8.70742 1.15563C8.53817 1.15551 8.37542 1.22299 8.25533 1.34308C8.13524 1.46317 8.06776 1.62592 8.06788 1.79517L8.04737 7.83676L1.95658 7.80806C1.78733 7.80794 1.62458 7.87542 1.50449 7.99551C1.3844 8.1156 1.31692 8.27834 1.31704 8.4476C1.31716 8.61632 1.38444 8.7776 1.50404 8.89581C1.62005 9.01324 1.77768 9.08036 1.94328 9.08284L8.04755 9.107L8.02664 15.2653C8.02676 15.434 8.09404 15.5953 8.21364 15.7135C8.33149 15.8304 8.49085 15.8959 8.65738 15.896C8.82664 15.895 8.98892 15.8263 9.10817 15.7054C9.22742 15.5845 9.29376 15.4213 9.29244 15.252Z" fill="#1FAB89" stroke="#1FAB89"/>
</svg>
