<svg width="16" height="16" viewBox="0 0 16 16" fill="none" xmlns="http://www.w3.org/2000/svg">
<path id="Icon" d="M8.63558 14.7521L8.63391 8.63432L14.7292 8.65851C15.0601 8.63426 15.3184 8.35944 15.3218 8.02778C15.3253 7.69611 15.0729 7.41941 14.7425 7.39271L8.66076 7.33705L8.6813 1.28649C8.68144 0.937393 8.39966 0.655608 8.05056 0.655755C7.88131 0.655635 7.71856 0.723116 7.59847 0.843204C7.47838 0.963291 7.4109 1.12604 7.41102 1.29529L7.39051 7.33688L1.29972 7.30818C1.13047 7.30806 0.96772 7.37554 0.847631 7.49563C0.727544 7.61572 0.660063 7.77847 0.660183 7.94772C0.660297 8.11644 0.727584 8.27772 0.847178 8.39593C0.963193 8.51336 1.12082 8.58048 1.28642 8.58296L7.39069 8.60712L7.36978 14.7654C7.3699 14.9341 7.43718 15.0954 7.55678 15.2136C7.67463 15.3305 7.83399 15.396 8.00052 15.3961C8.16978 15.3951 8.33206 15.3265 8.45131 15.2055C8.57056 15.0846 8.6369 14.9214 8.63558 14.7521Z" fill="white" stroke="white"/>
</svg>
