<svg width="26" height="27" viewBox="0 0 26 27" fill="none" xmlns="http://www.w3.org/2000/svg">
<path id="Vector" d="M12.9854 10.9324C12.9854 10.2109 12.4092 9.62595 11.6983 9.62595C10.9873 9.62595 10.4112 10.2109 10.4112 10.9324H12.9854ZM11.6983 15.059H10.4112C10.4112 15.7805 10.9873 16.3654 11.6983 16.3654V15.059ZM15.6036 16.3654C16.3144 16.3654 16.8907 15.7805 16.8907 15.059C16.8907 14.3375 16.3144 13.7526 15.6036 13.7526V16.3654ZM21.9825 26.439C22.388 27.0314 23.1901 27.1781 23.774 26.7663C24.3576 26.3547 24.5021 25.5405 24.0964 24.9479L21.9825 26.439ZM20.5191 19.7221C20.1134 19.1297 19.3113 18.983 18.7277 19.3948C18.1438 19.8064 17.9995 20.6206 18.405 21.2132L20.5191 19.7221ZM21.3142 0.00533324C20.6061 -0.059292 19.9806 0.470879 19.9169 1.18951C19.8533 1.90814 20.3757 2.54309 21.0836 2.60773L21.3142 0.00533324ZM23.4494 4.8331C23.5854 5.5413 24.2614 6.00347 24.959 5.86538C25.6568 5.7273 26.112 5.04126 25.976 4.33307L23.4494 4.8331ZM6.53629 20.4677L7.47039 19.5688L7.46813 19.5664L6.53629 20.4677ZM3.89091 13.6829L5.17807 13.6864L5.17798 13.6735L3.89091 13.6829ZM13 4.05703L13.0102 2.75046L12.9899 2.75062L13 4.05703ZM22.1091 13.6829L20.8219 13.6735L20.822 13.6925L22.1091 13.6829ZM13 23.3105V24.6169H13.0102L13 23.3105ZM7.59345 21.2129C7.99894 20.6203 7.85438 19.8063 7.27053 19.3946C6.68668 18.983 5.88464 19.1299 5.47915 19.7225L7.59345 21.2129ZM1.90345 24.9482C1.49794 25.5408 1.64253 26.3548 2.22637 26.7665C2.81022 27.1781 3.61224 27.0312 4.01774 26.4386L1.90345 24.9482ZM4.91644 2.60773C5.62444 2.54309 6.14676 1.90814 6.0831 1.18951C6.01941 0.470879 5.39386 -0.059292 4.68586 0.00533324L4.91644 2.60773ZM0.024031 4.33307C-0.112008 5.04126 0.343319 5.7273 1.04103 5.86538C1.73875 6.00347 2.41463 5.5413 2.55067 4.8331L0.024031 4.33307ZM10.4112 10.9324V15.059H12.9854V10.9324H10.4112ZM11.6983 16.3654H15.6036V13.7526H11.6983V16.3654ZM24.0964 24.9479L20.5191 19.7221L18.405 21.2132L21.9825 26.439L24.0964 24.9479ZM21.0836 2.60773C22.2341 2.71273 23.2126 3.60097 23.4494 4.8331L25.976 4.33307C25.5277 1.99872 23.6441 0.218022 21.3142 0.00533324L21.0836 2.60773ZM7.46813 19.5664C5.99806 18.0004 5.17227 15.8894 5.17807 13.6864L2.6038 13.6794C2.59627 16.5468 3.6704 19.3086 5.60448 21.3689L7.46813 19.5664ZM5.17798 13.6735C5.14574 9.08693 8.68269 5.3978 13.0102 5.36343L12.9899 2.75062C7.1806 2.79676 2.56188 7.72595 2.60384 13.6923L5.17798 13.6735ZM12.9899 5.36343C17.3173 5.3978 20.8541 9.08693 20.8219 13.6735L23.3962 13.6923C23.4381 7.72595 18.8195 2.79661 13.0102 2.75046L12.9899 5.36343ZM20.822 13.6925C20.8552 18.2796 17.318 21.9697 12.9899 22.004L13.0102 24.6169C18.8202 24.5708 23.4391 19.6404 23.3962 13.6733L20.822 13.6925ZM13 22.004C10.9237 22.004 8.92839 21.1299 7.47039 19.5688L5.60221 21.3665C7.53902 23.4403 10.2065 24.6169 13 24.6169V22.004ZM5.47915 19.7225L1.90345 24.9482L4.01774 26.4386L7.59345 21.2129L5.47915 19.7225ZM4.68586 0.00533324C2.35594 0.218022 0.472442 1.99872 0.024031 4.33307L2.55067 4.8331C2.78735 3.60097 3.76604 2.71273 4.91644 2.60773L4.68586 0.00533324Z" fill="black" fill-opacity="0.76"/>
</svg>
