<svg width="67" height="62" viewBox="0 0 67 62" fill="none" xmlns="http://www.w3.org/2000/svg">
<g id="Group 48095866">
<path id="Vector" d="M48.1171 34.5089C48.2453 34.2678 48.464 34.0874 48.7251 34.0075C48.9862 33.9276 49.2684 33.9547 49.5095 34.0829L53.3081 36.1016C53.5493 36.2298 53.7296 36.4485 53.8095 36.7096C53.8894 36.9708 53.8623 37.2529 53.7341 37.4941C53.606 37.7352 53.3873 37.9156 53.1262 37.9955C52.865 38.0754 52.5828 38.0483 52.3417 37.9201L48.5431 35.9012C48.302 35.773 48.1217 35.5544 48.0418 35.2933C47.9619 35.0322 47.989 34.75 48.1171 34.5089ZM31.3781 12.4599C31.2429 12.4604 31.1089 12.4342 30.9838 12.3829C30.8587 12.3316 30.7449 12.2562 30.6489 12.1609C30.553 12.0656 30.4767 11.9523 30.4245 11.8276C30.3723 11.7028 30.3452 11.569 30.3448 11.4338L30.3295 7.13223C30.3327 6.86191 30.4421 6.6037 30.634 6.41334C30.826 6.22297 31.0851 6.11573 31.3554 6.11475C31.6258 6.11378 31.8856 6.21915 32.0789 6.40812C32.2723 6.59709 32.3835 6.8545 32.3887 7.12479L32.4041 11.4265C32.405 11.6996 32.2975 11.9619 32.1051 12.1557C31.9127 12.3495 31.6512 12.4589 31.3781 12.4599ZM43.9011 17.4578C43.7963 17.3724 43.7093 17.2671 43.6452 17.1481C43.5811 17.0291 43.541 16.8985 43.5273 16.764C43.5136 16.6295 43.5266 16.4936 43.5654 16.3641C43.6042 16.2345 43.6682 16.1139 43.7537 16.0091L46.4722 12.6752C46.6458 12.467 46.8946 12.3358 47.1644 12.3099C47.4343 12.284 47.7034 12.3656 47.9135 12.5369C48.1236 12.7082 48.2577 12.9554 48.2866 13.2249C48.3156 13.4945 48.2371 13.7645 48.0682 13.9766L45.3498 17.3104C45.1772 17.522 44.9277 17.6565 44.656 17.6841C44.3843 17.7118 44.1128 17.6304 43.9011 17.4578ZM49.3577 31.8948C49.3624 31.7596 49.3937 31.6267 49.4498 31.5037C49.5059 31.3807 49.5857 31.2699 49.6846 31.1777C49.7835 31.0855 49.8996 31.0136 50.0263 30.9663C50.153 30.919 50.2877 30.8971 50.4229 30.9018L54.7219 31.0523C54.9948 31.0618 55.2528 31.1794 55.439 31.3792C55.6252 31.5789 55.7245 31.8444 55.7149 32.1174C55.7054 32.3903 55.5878 32.6483 55.3881 32.8345C55.1883 33.0207 54.9228 33.12 54.6498 33.1104L50.3507 32.9599C50.2156 32.9551 50.0827 32.9238 49.9597 32.8677C49.8367 32.8117 49.7259 32.7319 49.6337 32.633C49.5415 32.5341 49.4696 32.418 49.4223 32.2913C49.375 32.1647 49.3531 32.0299 49.3578 31.8948H49.3577ZM41.6763 45.33C41.8011 45.278 41.935 45.2511 42.0702 45.2509C42.2054 45.2506 42.3394 45.277 42.4644 45.3284C42.5894 45.3799 42.7031 45.4556 42.7989 45.551C42.8947 45.6464 42.9707 45.7598 43.0227 45.8846L44.6768 49.8555C44.7792 50.1071 44.778 50.389 44.6735 50.6397C44.569 50.8904 44.3697 51.0897 44.1189 51.1942C43.8682 51.2986 43.5863 51.2998 43.3348 51.1973C43.0832 51.0949 42.8822 50.8973 42.7757 50.6474L41.1217 46.6763C41.0697 46.5515 41.0428 46.4177 41.0425 46.2824C41.0422 46.1472 41.0686 46.0133 41.1201 45.8883C41.1716 45.7632 41.2472 45.6496 41.3426 45.5538C41.438 45.458 41.5514 45.3819 41.6762 45.3299L41.6763 45.33ZM26.5148 49.384C26.7878 49.3745 27.0532 49.4739 27.2529 49.6602C27.4526 49.8464 27.5701 50.1044 27.5795 50.3773L27.7287 54.6764C27.7343 54.947 27.6332 55.2089 27.4472 55.4055C27.2612 55.6021 27.0053 55.7176 26.7349 55.7269C26.4644 55.7363 26.2011 55.6388 26.002 55.4556C25.8028 55.2724 25.6838 55.0181 25.6707 54.7478L25.5215 50.4485C25.5121 50.1756 25.6114 49.9102 25.7977 49.7105C25.984 49.5108 26.2419 49.3935 26.5148 49.384ZM13.2132 41.9453C13.3651 42.1722 13.4207 42.4502 13.3678 42.7181C13.3148 42.9859 13.1576 43.2218 12.9307 43.3738L9.35692 45.7679C9.24458 45.8432 9.11851 45.8956 8.98592 45.9221C8.85333 45.9487 8.7168 45.9488 8.58415 45.9226C8.45149 45.8964 8.32529 45.8443 8.21277 45.7693C8.10024 45.6943 8.00359 45.5979 7.92832 45.4856C7.85306 45.3732 7.80066 45.2472 7.77412 45.1146C7.74758 44.982 7.74741 44.8455 7.77363 44.7128C7.79985 44.5801 7.85194 44.4539 7.92693 44.3414C8.00192 44.2289 8.09834 44.1322 8.21068 44.057L11.7846 41.6628C11.8969 41.5876 12.023 41.5352 12.1556 41.5087C12.2882 41.4821 12.4247 41.482 12.5574 41.5082C12.69 41.5344 12.8162 41.5865 12.9288 41.6615C13.0413 41.7365 13.1379 41.833 13.2132 41.9453ZM9.93585 28.9791C9.90926 29.2509 9.77582 29.5009 9.56487 29.6743C9.35393 29.8477 9.08277 29.9302 8.81101 29.9037L4.52965 29.4855C4.25882 29.4577 4.01002 29.3238 3.83766 29.1131C3.66529 28.9024 3.58339 28.632 3.60986 28.361C3.63634 28.0901 3.76904 27.8406 3.97894 27.6672C4.18884 27.4939 4.45885 27.4107 4.72993 27.4358L9.01129 27.8541C9.28307 27.8807 9.53315 28.0142 9.70654 28.2252C9.87992 28.4361 9.96241 28.7073 9.93585 28.9791ZM15.633 16.8793C15.44 17.0724 15.1781 17.181 14.9051 17.1811C14.632 17.1812 14.3701 17.0728 14.1769 16.8798L11.134 13.8393C10.9438 13.6457 10.8377 13.3847 10.8388 13.1133C10.84 12.8418 10.9482 12.5818 11.1401 12.3898C11.332 12.1977 11.5919 12.0892 11.8634 12.0879C12.1348 12.0865 12.3958 12.1924 12.5896 12.3825L15.6325 15.4232C15.7281 15.5187 15.804 15.6322 15.8558 15.7571C15.9076 15.882 15.9343 16.0159 15.9344 16.1511C15.9344 16.2863 15.9078 16.4202 15.8561 16.5452C15.8044 16.6701 15.7286 16.7836 15.633 16.8793Z" fill="#37998B"/>
<path id="Vector_2" d="M56.0646 41.9166L53.0519 47.154C52.528 48.066 51.3635 48.3791 50.4515 47.8553L50.0222 47.6083C49.1102 47.0843 48.797 45.9186 49.321 45.0079L49.9569 43.9017L46.4093 42.7488C43.77 46.4033 40.1439 49.0178 36.1141 50.4381L36.2241 52.4119L36.6561 52.295C36.7748 52.263 36.8986 52.2547 37.0206 52.2705C37.1425 52.2864 37.2601 52.3261 37.3666 52.3874C37.4732 52.4487 37.5666 52.5305 37.6415 52.6279C37.7165 52.7254 37.7715 52.8367 37.8034 52.9554C37.9384 53.4547 37.6424 53.9692 37.1432 54.1028L34.8142 54.7317C34.5744 54.7961 34.319 54.7626 34.1039 54.6388C33.8888 54.515 33.7316 54.3108 33.6669 54.0712C33.532 53.572 33.828 53.0574 34.3272 52.9239L34.7579 52.807L33.8855 51.0927C29.57 52.1104 24.9354 51.8098 20.6361 50.013L18.2389 52.6917L19.5266 53.4327C20.4387 53.9565 20.7531 55.121 20.2278 56.0331L19.839 56.7086C19.3151 57.6206 18.1506 57.9351 17.2386 57.4112L11.4371 54.074C10.5251 53.5487 10.2107 52.3843 10.7358 51.4721L11.1247 50.7966C11.6487 49.8846 12.813 49.5701 13.7252 50.0953L15.013 50.8362L16.1142 47.4481C15.3037 46.8511 14.5361 46.1978 13.8172 45.4931C11.5329 43.2553 9.81688 40.5719 8.72883 37.6639L4.14567 37.9192L4.35157 38.6804C4.38914 38.8217 4.40741 38.9644 4.40793 39.1044C4.41054 39.8334 3.92556 40.5038 3.18771 40.7028C2.30711 40.9406 1.40186 40.4194 1.164 39.5389L0.0579425 35.4338C0.020014 35.2952 0.000535339 35.1522 1.04483e-05 35.0085C-0.0025991 34.278 0.483821 33.6091 1.22167 33.4101C2.10083 33.1736 3.00752 33.6948 3.24407 34.574L3.44853 35.3352L7.58571 33.228C6.96803 29.0361 7.57566 24.6365 9.5601 20.5974L6.83168 18.1565L6.46869 18.7893C6.04725 19.5226 5.11173 19.7744 4.37844 19.3529C3.6466 18.9312 3.39464 17.9959 3.81635 17.2639L5.78108 13.8467C6.20265 13.1147 7.13804 12.8629 7.87002 13.283C8.60331 13.7047 8.85513 14.6401 8.43342 15.372L8.06913 16.0062L11.6552 17.1714C14.1473 13.8291 17.4775 11.383 21.1793 9.95991L20.9283 5.47149L19.6927 5.80538C18.6776 6.07808 17.6321 5.47775 17.358 4.46146L17.2272 3.97726C16.9532 2.96227 17.5548 1.91676 18.5711 1.64263L24.4168 0.0661958C25.4332 -0.207807 26.4786 0.393825 26.7527 1.40881L26.8822 1.89288C27.1562 2.9093 26.5545 3.95482 25.5395 4.22751L24.3041 4.56154L26.3957 8.66714C30.0667 8.22978 33.8741 8.72964 37.4437 10.2668L40.5586 6.785L39.7703 6.33212C38.8583 5.80812 38.5452 4.64374 39.0692 3.7317C39.593 2.81953 40.7575 2.50508 41.6696 3.03038L45.9247 5.47684C46.8367 6.00201 47.1499 7.16652 46.6259 8.07856C46.1006 8.9906 44.9362 9.30374 44.0255 8.77987L43.2371 8.32686L41.7922 12.7692C43.7577 14.2227 45.4599 16.002 46.8249 18.0299C47.6674 19.2795 48.3762 20.6142 48.9396 22.012L52.5003 21.8139L52.3207 21.1446C52.2877 21.0219 52.2706 20.8955 52.2698 20.7685C52.2693 20.4489 52.3743 20.138 52.5686 19.8841C52.7628 19.6302 53.0354 19.4475 53.3441 19.3643C54.119 19.1556 54.9155 19.6141 55.1242 20.3877L56.0995 24.0018C56.3082 24.7752 55.8497 25.5732 55.0748 25.7819C54.2998 25.9906 53.5034 25.5321 53.2946 24.7572L53.1138 24.0879L50.0454 25.6517C50.9211 29.8055 50.5813 34.2276 48.8704 38.3467L51.6979 40.8766L52.3338 39.7705C52.8578 38.8585 54.0221 38.5453 54.9342 39.0692L55.3634 39.3162C56.2755 39.8415 56.5899 41.0059 56.0648 41.9166H56.0646Z" fill="#48B8AC"/>
<path id="Vector_3" d="M20.8247 30.1621C24.1987 30.15 26.9242 27.405 26.9121 24.0309C26.9 20.6568 24.155 17.9314 20.7809 17.9435C17.4069 17.9555 14.6814 20.7006 14.6935 24.0746C14.7056 27.4487 17.4506 30.1742 20.8247 30.1621Z" fill="#37998B"/>
<path id="Vector_4" d="M15.8589 38.4744C15.867 38.2437 15.9664 38.0256 16.1353 37.8681C16.3042 37.7107 16.5287 37.6267 16.7594 37.6348L20.3945 37.7622C20.6235 37.7728 20.839 37.8732 20.9944 38.0417C21.1497 38.2103 21.2324 38.4332 21.2244 38.6623C21.2164 38.8914 21.1184 39.108 20.9516 39.2653C20.7849 39.4226 20.5629 39.5077 20.3337 39.5023L16.6985 39.375C16.4677 39.3669 16.2496 39.2675 16.0922 39.0986C15.9347 38.9297 15.8508 38.7052 15.8589 38.4744Z" fill="#37998B"/>
<path id="Vector_5" d="M56.0647 41.9164L53.0519 47.1538C52.5281 48.0658 51.3636 48.379 50.4515 47.8551L50.0222 47.6081C49.1102 47.0841 48.7971 45.9184 49.3211 45.0077L49.9569 43.9015L46.4093 42.7486C43.77 46.4032 40.1439 49.0177 36.1141 50.4379L36.2241 52.4118L36.6561 52.2949C36.7748 52.2628 36.8987 52.2545 37.0206 52.2704C37.1425 52.2862 37.2601 52.3259 37.3666 52.3873C37.4732 52.4486 37.5666 52.5303 37.6416 52.6278C37.7165 52.7252 37.7715 52.8365 37.8034 52.9552C37.9385 53.4546 37.6424 53.969 37.1432 54.1026L34.8142 54.7315C34.5745 54.7959 34.319 54.7625 34.1039 54.6387C33.8888 54.5148 33.7316 54.3107 33.6669 54.0711C33.532 53.5719 33.828 53.0573 34.3272 52.9238L34.7579 52.8069L33.8856 51.0925C29.57 52.1103 24.9355 51.8096 20.6361 50.0128L18.239 52.6915L19.5266 53.4325C20.4387 53.9564 20.7531 55.1209 20.2278 56.0329L19.839 56.7084C19.3151 57.6204 18.1506 57.9349 17.2386 57.411L11.4372 54.0738C10.5251 53.5485 10.2107 52.3841 10.7359 51.472L11.1247 50.7965C11.6487 49.8844 12.8131 49.57 13.7252 50.0952L15.013 50.836L16.1143 47.4479C15.3037 46.8509 14.5361 46.1977 13.8172 45.493C30.2241 45.3546 43.834 33.5746 46.8248 18.0298C47.6673 19.2794 48.3761 20.614 48.9395 22.0118L52.5001 21.8138L52.3206 21.1444C52.2876 21.0218 52.2705 20.8954 52.2697 20.7684C52.2692 20.4487 52.3742 20.1378 52.5685 19.8839C52.7627 19.63 53.0353 19.4473 53.3439 19.3642C54.1188 19.1554 54.9154 19.6139 55.124 20.3875L56.0994 24.0016C56.3081 24.7751 55.8496 25.5731 55.0747 25.7817C54.2997 25.9905 53.5033 25.532 53.2945 24.7571L53.1136 24.0877L50.0453 25.6515C50.921 29.8054 50.5812 34.2274 48.8703 38.3466L51.6978 40.8764L52.3336 39.7703C52.8575 38.8583 54.022 38.5452 54.9341 39.069L55.3633 39.316C56.2754 39.8413 56.5898 41.0057 56.0647 41.9164Z" fill="#3FA89B"/>
<path id="Vector_6" d="M39.3643 21.0003C39.3724 20.7696 39.4718 20.5515 39.6407 20.394C39.8096 20.2366 40.0341 20.1526 40.2648 20.1607L43.9 20.2881C44.1289 20.2986 44.3445 20.3991 44.4999 20.5676C44.6553 20.7362 44.738 20.9592 44.7299 21.1883C44.7219 21.4174 44.6239 21.6341 44.4571 21.7913C44.2903 21.9486 44.0682 22.0337 43.839 22.0282L40.2039 21.9009C39.9732 21.8928 39.7551 21.7934 39.5976 21.6245C39.4402 21.4556 39.3562 21.2311 39.3643 21.0003ZM27.9713 17.5249C27.9882 17.0444 28.3627 16.6674 28.8079 16.6831L32.176 16.801C32.6212 16.8167 32.9685 17.2188 32.9517 17.6994C32.9349 18.1799 32.5603 18.5569 32.1151 18.5412L28.7469 18.4233C28.3018 18.4076 27.9544 18.0055 27.9713 17.5249Z" fill="#37998B"/>
<path id="Vector_7" d="M38.9776 34.741C38.9952 34.2843 39.3028 33.9255 39.6649 33.9394L42.4032 34.045C42.7652 34.0591 43.0444 34.4406 43.0268 34.8973C43.0092 35.354 42.7014 35.7128 42.3394 35.6988L39.601 35.5932C39.239 35.5792 38.96 35.1975 38.9776 34.741Z" fill="#63C3B8"/>
<path id="Vector_8" d="M34.8669 44.8647C37.1968 44.8647 39.0856 42.9759 39.0856 40.646C39.0856 38.316 37.1968 36.4272 34.8669 36.4272C32.5369 36.4272 30.6481 38.316 30.6481 40.646C30.6481 42.9759 32.5369 44.8647 34.8669 44.8647Z" fill="#63C3B8"/>
<path id="Vector_9" d="M45.8146 29.8453L30.314 56.916C29.1902 58.8788 30.6126 61.3223 32.8743 61.314L64.0682 61.2025C66.3299 61.1944 67.7346 58.741 66.5968 56.7863L50.9032 29.8271C49.7655 27.8725 46.9383 27.8826 45.8144 29.8453H45.8146Z" fill="#3E4DA2"/>
<path id="Vector_10" d="M46.9035 33.5098L34.0254 56.001C33.3767 57.1336 34.1976 58.5438 35.5029 58.5391L61.4198 58.4465C62.7251 58.4417 63.5359 57.0257 62.8792 55.8977L49.8404 33.4993C49.1837 32.3712 47.5521 32.3771 46.9035 33.5098Z" fill="#FFC928"/>
<path id="Vector_11" d="M42.6138 45.2936C43.0021 45.2922 43.3157 44.9764 43.3143 44.5881C43.3129 44.1998 42.997 43.8862 42.6088 43.8876C42.2205 43.889 41.9069 44.2049 41.9083 44.5931C41.9097 44.9814 42.2255 45.295 42.6138 45.2936Z" fill="white"/>
<path id="Vector_12" d="M39.1999 51.2111L39.137 51.1792C38.9771 51.0983 38.8559 50.9571 38.8 50.7868C38.7442 50.6164 38.7583 50.4309 38.8392 50.271L40.9679 46.0654C41.0488 45.9055 41.19 45.7843 41.3603 45.7285C41.5306 45.6726 41.7162 45.6867 41.8761 45.7677L41.9391 45.7995C42.099 45.8805 42.2202 46.0216 42.276 46.1919C42.3319 46.3622 42.3178 46.5477 42.2369 46.7076L40.1083 50.9133C40.0682 50.9925 40.0129 51.0631 39.9455 51.1209C39.8782 51.1787 39.8001 51.2227 39.7158 51.2504C39.6314 51.278 39.5424 51.2888 39.4539 51.282C39.3654 51.2753 39.2791 51.2512 39.1999 51.2111Z" fill="white"/>
<g id="Group">
<path id="Vector_13" d="M48.4379 51.9257C47.7159 51.9283 47.094 51.5476 47.0251 51.0398L46.107 44.2729C45.9654 43.2298 46.8066 42.2915 47.9685 42.2873L48.8384 42.2842C50.0001 42.28 50.8481 43.2123 50.714 44.2565L49.8444 51.0296C49.7791 51.538 49.1599 51.9231 48.4378 51.9257H48.4379Z" fill="#3E4DA2"/>
<path id="Vector_14" d="M48.4558 56.8885C49.4441 56.885 50.2424 56.0809 50.2389 55.0926C50.2354 54.1043 49.4313 53.306 48.443 53.3095C47.4547 53.3131 46.6564 54.1171 46.6599 55.1054C46.6635 56.0937 47.4675 56.892 48.4558 56.8885Z" fill="#3E4DA2"/>
</g>
</g>
</svg>
