<svg width="12" height="13" viewBox="0 0 12 13" fill="none" xmlns="http://www.w3.org/2000/svg">
<g id="Group 48095905">
<path id="Vector" d="M0.0500504 7.77696C0.11681 7.84372 0.116809 7.91047 0.183568 7.97723L1.51875 9.31242C1.78579 9.57945 2.18634 9.57945 2.45338 9.31242C2.72042 9.04538 2.72042 8.64483 2.45338 8.37779L2.2531 8.17751L3.98884 8.17751C4.3894 8.17751 4.65643 7.91048 4.65643 7.50992C4.65643 7.10936 4.3894 6.84233 3.98884 6.84233L2.2531 6.84233L2.45338 6.64205C2.72042 6.37501 2.72042 5.97446 2.45338 5.70742C2.31986 5.5739 2.11958 5.50714 1.98607 5.50714C1.85255 5.50714 1.65227 5.5739 1.51875 5.70742L0.183568 7.04261C0.116809 7.10936 0.0500505 7.17612 0.0500505 7.24288C-0.0167087 7.44316 -0.0167087 7.57668 0.0500504 7.77696Z" fill="#1FAB89"/>
<path id="Vector_2" d="M3.32125 5.50708C3.7218 5.50708 3.98884 5.24004 3.98884 4.83948L3.98884 4.17189C3.98884 3.77134 4.25588 3.5043 4.65643 3.5043L5.32402 3.5043L5.32402 9.24559C5.32402 10.1135 5.85809 10.8478 6.59245 11.1148L7.66059 11.5154L4.65643 11.5154C4.25587 11.5154 3.98884 11.2484 3.98884 10.8478L3.98884 10.1802C3.98884 9.77966 3.7218 9.51263 3.32125 9.51263C2.92069 9.51263 2.65365 9.77966 2.65365 10.1802L2.65365 10.8478C2.65365 11.9827 3.52152 12.8506 4.65643 12.8506L11.3323 12.8506C11.3991 12.8506 11.4659 12.8506 11.5326 12.7838C11.5994 12.7838 11.6661 12.7171 11.6661 12.7171L11.7329 12.6503C11.7997 12.6503 11.8664 12.5835 11.8664 12.5168L11.8664 12.45C11.9332 12.45 11.9999 12.3833 11.9999 12.3165L11.9999 2.83671C11.9999 2.56967 11.7997 2.30264 11.5994 2.23588L7.19328 0.566899C7.05976 0.50014 6.85948 0.500139 6.72597 0.500139C6.45893 0.500139 6.19189 0.566898 5.99161 0.767175C5.65782 1.03421 5.39078 1.43477 5.39078 1.83532L5.39078 2.16912L4.72319 2.16912C3.58828 2.16912 2.72042 3.03699 2.72041 4.17189L2.72041 4.83948C2.65366 5.17328 2.92069 5.50708 3.32125 5.50708ZM10.6648 3.30403L10.6648 11.2484L7.12652 9.91318C6.85948 9.77966 6.65921 9.51263 6.65921 9.24559L6.65921 1.83532L10.6648 3.30403Z" fill="#1FAB89"/>
</g>
</svg>
