<svg width="18" height="18" viewBox="0 0 18 18" fill="none" xmlns="http://www.w3.org/2000/svg">
<path id="Vector" d="M5.77817 11.4355C5.96571 11.623 6.22006 11.7284 6.48528 11.7284C6.7505 11.7284 7.00485 11.623 7.19239 11.4355L11.435 7.19283C11.6226 7.00529 11.7279 6.75094 11.7279 6.48572C11.7279 6.22051 11.6226 5.96615 11.435 5.77862C11.2475 5.59108 10.9931 5.48572 10.7279 5.48572C10.4627 5.48572 10.2084 5.59108 10.0208 5.77862L5.77817 10.0213C5.59064 10.2088 5.48528 10.4631 5.48528 10.7284C5.48528 10.9936 5.59064 11.2479 5.77817 11.4355ZM9.31371 12.1426L7.19239 14.2639C6.62978 14.8265 5.86672 15.1426 5.07107 15.1426C4.27542 15.1426 3.51236 14.8265 2.94975 14.2639C2.38714 13.7013 2.07107 12.9382 2.07107 12.1426C2.07107 11.3469 2.38714 10.5839 2.94975 10.0213L5.07107 7.89994C5.2586 7.7124 5.36396 7.45805 5.36396 7.19283C5.36396 6.92761 5.2586 6.67326 5.07107 6.48572C4.88353 6.29819 4.62918 6.19283 4.36396 6.19283C4.09874 6.19283 3.84439 6.29819 3.65685 6.48572L1.53553 8.60704C0.597852 9.54473 0.0710678 10.8165 0.0710678 12.1426C0.0710678 13.4687 0.597852 14.7404 1.53553 15.6781C2.47322 16.6158 3.74499 17.1426 5.07107 17.1426C6.39715 17.1426 7.66892 16.6158 8.6066 15.6781L10.7279 13.5568C10.9155 13.3693 11.0208 13.1149 11.0208 12.8497C11.0208 12.5845 10.9155 12.3301 10.7279 12.1426C10.5404 11.955 10.286 11.8497 10.0208 11.8497C9.7556 11.8497 9.50124 11.955 9.31371 12.1426ZM8.6066 1.53598L6.48528 3.6573C6.29774 3.84483 6.19239 4.09919 6.19239 4.3644C6.19239 4.62962 6.29774 4.88397 6.48528 5.07151C6.67282 5.25905 6.92717 5.3644 7.19239 5.3644C7.4576 5.3644 7.71196 5.25905 7.89949 5.07151L10.0208 2.95019C10.5834 2.38758 11.3465 2.07151 12.1421 2.07151C12.9378 2.07151 13.7008 2.38758 14.2635 2.95019C14.8261 3.5128 15.1421 4.27586 15.1421 5.07151C15.1421 5.86716 14.8261 6.63022 14.2635 7.19283L12.1421 9.31415C11.9546 9.50169 11.8492 9.75604 11.8492 10.0213C11.8492 10.2865 11.9546 10.5408 12.1421 10.7284C12.3297 10.9159 12.584 11.0213 12.8492 11.0213C13.1145 11.0213 13.3688 10.9159 13.5563 10.7284L15.6777 8.60704C16.6154 7.66936 17.1421 6.39759 17.1421 5.07151C17.1421 3.74543 16.6154 2.47366 15.6777 1.53598C14.74 0.598295 13.4682 0.071511 12.1421 0.0715105C10.8161 0.07151 9.54428 0.598295 8.6066 1.53598Z" fill="#1FAB89"/>
</svg>
