<svg width="20" height="16" viewBox="0 0 20 16" fill="none" xmlns="http://www.w3.org/2000/svg">
<g id="Group">
<path id="Vector" d="M19 7.00783L3.41403 7.00783L8.70702 1.71484C8.80158 1.62236 8.87685 1.51204 8.92848 1.39027C8.98011 1.2685 9.00706 1.13769 9.00779 1.00543C9.00852 0.873171 8.983 0.74208 8.93272 0.619748C8.88244 0.497416 8.80839 0.386275 8.71485 0.292758C8.62132 0.199243 8.51017 0.12521 8.38783 0.0749475C8.26548 0.024685 8.13439 -0.000809556 8.00213 -5.80785e-05C7.86987 0.0006934 7.73907 0.0276766 7.61731 0.0793267C7.49554 0.130976 7.38524 0.206266 7.29277 0.300839L0.292787 7.30083C0.105316 7.48835 1.08384e-06 7.74266 1.04907e-06 8.00783C1.0143e-06 8.27299 0.105316 8.5273 0.292787 8.71482L7.29277 15.7148C7.38553 15.8079 7.49577 15.8816 7.61715 15.9319C7.73852 15.9822 7.86864 16.008 8.00002 16.0078C8.19777 16.0078 8.39107 15.9491 8.55548 15.8392C8.71989 15.7293 8.84803 15.5732 8.9237 15.3905C8.99937 15.2078 9.01917 15.0067 8.9806 14.8128C8.94203 14.6188 8.84683 14.4407 8.70702 14.3008L3.41403 9.00782L19 9.00783C19.2652 9.00783 19.5196 8.90247 19.7071 8.71493C19.8946 8.5274 20 8.27304 20 8.00783C20 7.74261 19.8946 7.48826 19.7071 7.30072C19.5196 7.11319 19.2652 7.00783 19 7.00783Z" fill="#1FAB89"/>
</g>
</svg>
