<svg width="63" height="63" viewBox="0 0 63 63" fill="none" xmlns="http://www.w3.org/2000/svg">
<g id="Group 48095916">
<g id="Group 48095915">
<circle id="Ellipse 86" cx="31.5" cy="31.5" r="31.5" fill="#1FAB89"/>
<path id="Vector" d="M28 42C28 43.1046 28.8954 44 30 44H34C35.1046 44 36 43.1046 36 42C36 40.8954 35.1046 40 34 40H30C28.8954 40 28 40.8954 28 42ZM16 20C14.8954 20 14 20.8954 14 22C14 23.1046 14.8954 24 16 24H48C49.1046 24 50 23.1046 50 22C50 20.8954 49.1046 20 48 20H16ZM20 32C20 33.1046 20.8954 34 22 34H42C43.1046 34 44 33.1046 44 32C44 30.8954 43.1046 30 42 30H22C20.8954 30 20 30.8954 20 32Z" fill="white"/>
</g>
</g>
</svg>
