<svg width="18" height="23" viewBox="0 0 18 23" fill="none" xmlns="http://www.w3.org/2000/svg">
<path id="Vector" d="M16.9425 15.1274C16.6608 14.8474 16.5016 14.4671 16.5 14.0699V9.74994C16.4987 8.06966 15.9332 6.43847 14.8942 5.11794C13.8552 3.79741 12.4028 2.86403 10.77 2.46749C10.837 2.27703 10.8725 2.07689 10.875 1.87499C10.875 1.37771 10.6774 0.9008 10.3258 0.549172C9.97419 0.197543 9.49728 0 9 0C8.50272 0 8.02581 0.197543 7.67418 0.549172C7.32255 0.9008 7.12501 1.37771 7.12501 1.87499C7.12749 2.07689 7.16295 2.27703 7.23001 2.46749C5.59719 2.86403 4.14482 3.79741 3.10581 5.11794C2.06679 6.43847 1.50131 8.06966 1.50004 9.74994V14.0699C1.49837 14.4671 1.33924 14.8474 1.05755 15.1274C0.720043 15.4635 0.452743 15.8634 0.271196 16.3037C0.0896493 16.744 -0.00251929 17.2161 5.23676e-05 17.6924V17.9999C5.23676e-05 18.3977 0.158087 18.7792 0.43939 19.0605C0.720692 19.3419 1.10222 19.4999 1.50004 19.4999H6.88501C6.7977 19.7404 6.75204 19.994 6.75001 20.2499C6.75001 20.8466 6.98706 21.4189 7.40902 21.8409C7.83097 22.2628 8.40327 22.4999 9 22.4999C9.59673 22.4999 10.169 22.2628 10.591 21.8409C11.0129 21.4189 11.25 20.8466 11.25 20.2499C11.248 19.994 11.2023 19.7404 11.115 19.4999H16.5C16.8978 19.4999 17.2793 19.3419 17.5606 19.0605C17.8419 18.7792 17.9999 18.3977 17.9999 17.9999V17.6924C18.0025 17.2161 17.9104 16.744 17.7288 16.3037C17.5473 15.8634 17.28 15.4635 16.9425 15.1274ZM8.625 1.87499C8.625 1.80082 8.647 1.72832 8.6882 1.66665C8.72941 1.60498 8.78797 1.55692 8.85649 1.52854C8.92502 1.50015 9.00042 1.49273 9.07316 1.5072C9.1459 1.52167 9.21272 1.55738 9.26516 1.60983C9.31761 1.66227 9.35332 1.72909 9.36779 1.80183C9.38226 1.87457 9.37484 1.94997 9.34645 2.01849C9.31807 2.08702 9.27001 2.14558 9.20834 2.18679C9.14667 2.22799 9.07417 2.24999 9 2.24999C8.90054 2.24999 8.80516 2.21048 8.73484 2.14015C8.66451 2.06983 8.625 1.97444 8.625 1.87499Z" fill="#3F3F3F"/>
</svg>
