<svg width="21" height="20" viewBox="0 0 21 20" fill="none" xmlns="http://www.w3.org/2000/svg">
<g id="Group 48095877">
<path id="Vector" d="M6.39772 9.6667C5.23254 9.70267 4.27953 10.163 3.5387 11.0477H2.09302C1.50323 11.0477 1.00695 10.902 0.604173 10.6107C0.201391 10.3194 0 9.89327 0 9.33226C0 6.79331 0.445933 5.52383 1.3378 5.52383C1.38095 5.52383 1.53739 5.59935 1.80711 5.75039C2.07683 5.90144 2.42746 6.05428 2.85901 6.20892C3.29056 6.36355 3.71851 6.44087 4.14287 6.44087C4.62476 6.44087 5.10306 6.35816 5.57777 6.19274C5.54181 6.45886 5.52383 6.69621 5.52383 6.90479C5.52383 7.90454 5.81513 8.82518 6.39772 9.6667ZM17.9524 16.5391C17.9524 17.4022 17.6899 18.0837 17.1649 18.5836C16.6398 19.0835 15.9421 19.3334 15.0719 19.3334H5.6425C4.77221 19.3334 4.07454 19.0835 3.54949 18.5836C3.02444 18.0837 2.76191 17.4022 2.76191 16.5391C2.76191 16.1579 2.7745 15.7857 2.79967 15.4225C2.82485 15.0593 2.8752 14.6673 2.95072 14.2465C3.02624 13.8258 3.12154 13.4356 3.23662 13.0759C3.3517 12.7163 3.50633 12.3657 3.70053 12.024C3.89473 11.6824 4.11769 11.3911 4.36943 11.1501C4.62117 10.9092 4.92865 10.7168 5.29187 10.573C5.65509 10.4291 6.05607 10.3572 6.49482 10.3572C6.56674 10.3572 6.72138 10.4345 6.95873 10.5891C7.19608 10.7438 7.4586 10.9164 7.7463 11.107C8.03401 11.2976 8.41881 11.4702 8.9007 11.6249C9.38259 11.7795 9.86809 11.8568 10.3572 11.8568C10.8463 11.8568 11.3318 11.7795 11.8137 11.6249C12.2955 11.4702 12.6803 11.2976 12.9681 11.107C13.2557 10.9164 13.5183 10.7438 13.7556 10.5891C13.993 10.4345 14.1476 10.3572 14.2195 10.3572C14.6583 10.3572 15.0593 10.4291 15.4225 10.573C15.7857 10.7168 16.0932 10.9092 16.3449 11.1501C16.5967 11.3911 16.8196 11.6824 17.0138 12.024C17.208 12.3657 17.3627 12.7163 17.4777 13.0759C17.5928 13.4356 17.6881 13.8258 17.7636 14.2465C17.8392 14.6673 17.8895 15.0593 17.9147 15.4225C17.9399 15.7857 17.9524 16.1579 17.9524 16.5391ZM6.90478 2.76192C6.90478 3.52432 6.63506 4.17524 6.09563 4.71468C5.55619 5.25411 4.90527 5.52383 4.14287 5.52383C3.38047 5.52383 2.72955 5.25411 2.19012 4.71468C1.65068 4.17524 1.38096 3.52432 1.38096 2.76192C1.38096 1.99951 1.65068 1.34859 2.19012 0.809154C2.72955 0.269718 3.38047 0 4.14287 0C4.90527 0 5.55619 0.269718 6.09563 0.809154C6.63506 1.34859 6.90478 1.99951 6.90478 2.76192ZM14.5 6.90479C14.5 8.0484 14.0955 9.02478 13.2863 9.83393C12.4772 10.6431 11.5008 11.0477 10.3572 11.0477C9.21357 11.0477 8.23719 10.6431 7.42804 9.83393C6.61888 9.02478 6.21431 8.0484 6.21431 6.90479C6.21431 5.76119 6.61888 4.78481 7.42804 3.97565C8.23719 3.1665 9.21357 2.76192 10.3572 2.76192C11.5008 2.76192 12.4772 3.1665 13.2863 3.97565C14.0955 4.78481 14.5 5.76119 14.5 6.90479ZM20.7144 9.33226C20.7144 9.89327 20.513 10.3194 20.1102 10.6107C19.7074 10.902 19.2111 11.0477 18.6213 11.0477H17.1757C16.4348 10.163 15.4818 9.70267 14.3166 9.6667C14.8992 8.82518 15.1905 7.90454 15.1905 6.90479C15.1905 6.69621 15.1725 6.45886 15.1366 6.19274C15.6113 6.35816 16.0896 6.44087 16.5715 6.44087C16.9958 6.44087 17.4238 6.36355 17.8553 6.20892C18.2869 6.05428 18.6375 5.90144 18.9072 5.75039C19.177 5.59935 19.3334 5.52383 19.3766 5.52383C20.2684 5.52383 20.7144 6.79331 20.7144 9.33226ZM19.3334 2.76192C19.3334 3.52432 19.0637 4.17524 18.5242 4.71468C17.9848 5.25411 17.3339 5.52383 16.5715 5.52383C15.8091 5.52383 15.1582 5.25411 14.6187 4.71468C14.0793 4.17524 13.8096 3.52432 13.8096 2.76192C13.8096 1.99951 14.0793 1.34859 14.6187 0.809154C15.1582 0.269718 15.8091 0 16.5715 0C17.3339 0 17.9848 0.269718 18.5242 0.809154C19.0637 1.34859 19.3334 1.99951 19.3334 2.76192Z" fill="black"/>
</g>
</svg>
