<svg width="48" height="52" viewBox="0 0 48 52" fill="none" xmlns="http://www.w3.org/2000/svg">
<g id="Group 48095858">
<path id="Vector" d="M35.6033 14.3764L45.5351 31.2788C45.703 31.5599 45.8403 31.8581 45.9448 32.1683C46.3086 33.2308 46.2941 34.3865 45.9038 35.4396C45.5135 36.4927 44.7713 37.3786 43.8029 37.9474L25.3211 48.8073C24.207 49.4619 22.8786 49.6471 21.628 49.3223C20.3774 48.9974 19.3071 48.1891 18.6525 47.075L8.72063 30.1726C8.2016 29.2915 7.97374 28.2692 8.06949 27.2512C8.16524 26.2331 8.57971 25.2712 9.2539 24.5024L10.5391 23.0352C10.6728 22.8808 10.7546 22.6883 10.773 22.4848C10.7914 22.2814 10.7453 22.0773 10.6414 21.9015L10.3649 21.431C10.234 21.2082 10.197 20.9425 10.2619 20.6924C10.3269 20.4423 10.4886 20.2282 10.7114 20.0973L25.8329 11.212C26.0557 11.081 26.3214 11.044 26.5715 11.109C26.8216 11.1739 27.0357 11.3356 27.1666 11.5584L27.443 12.0289C27.5461 12.2052 27.7019 12.3448 27.8886 12.4278C28.0752 12.5107 28.2833 12.5329 28.4832 12.4913L30.3904 12.0826C31.2464 11.8986 32.1363 11.9496 32.9657 12.2302C33.7951 12.5109 34.5332 13.0106 35.1017 13.6766C35.2886 13.895 35.4565 14.1292 35.6033 14.3764Z" fill="#13E4EA"/>
<path id="Vector_2" d="M35.6033 14.3765L45.5351 31.279C45.703 31.56 45.8403 31.8582 45.9448 32.1684L27.5469 42.9789C27.101 43.2392 26.5701 43.3124 26.0703 43.1826C25.5706 43.0528 25.1424 42.7304 24.8795 42.286L15.9942 27.1645C15.7339 26.7186 15.6607 26.1877 15.7905 25.6879C15.9203 25.1881 16.2426 24.76 16.6871 24.4971L35.1017 13.6767C35.2886 13.8952 35.4565 14.1293 35.6033 14.3765Z" fill="#F2F2F2"/>
<path id="Vector_3" d="M22.2303 3.15771L5.42863 13.0303C4.03674 13.8482 3.5714 15.6396 4.38928 17.0315L6.85744 21.2319C7.67531 22.6238 9.46668 23.0891 10.8586 22.2712L27.6602 12.3986C29.0521 11.5807 29.5175 9.78938 28.6996 8.39748L26.2314 4.19707C25.4136 2.80517 23.6222 2.33984 22.2303 3.15771Z" fill="#AFF9F7"/>
<path id="Vector_4" d="M32.3973 24.3073L31.5572 24.801L31.0635 23.9609C30.6708 23.2925 30.0286 22.8075 29.2782 22.6125C28.5279 22.4176 27.7308 22.5288 27.0624 22.9215C26.394 23.3143 25.909 23.9565 25.7141 24.7068C25.5191 25.4572 25.6303 26.2543 26.023 26.9227L26.5167 27.7628L25.6766 28.2564C25.0082 28.6491 24.5232 29.2913 24.3283 30.0417C24.1333 30.7921 24.2445 31.5891 24.6372 32.2575C25.03 32.9259 25.6722 33.411 26.4226 33.6059C27.1729 33.8008 27.97 33.6896 28.6384 33.2969L29.4785 32.8033L29.9721 33.6433C30.3649 34.3117 31.007 34.7968 31.7574 34.9917C32.5078 35.1866 33.3048 35.0754 33.9732 34.6827C34.6416 34.2899 35.1267 33.6477 35.3216 32.8974C35.5165 32.147 35.4053 31.35 35.0126 30.6815L34.519 29.8415L35.359 29.3478C36.0275 28.9551 36.5125 28.3129 36.7074 27.5625C36.9023 26.8122 36.7912 26.0151 36.3984 25.3467C36.0056 24.6783 35.3634 24.1933 34.6131 23.9984C33.8627 23.8034 33.0657 23.9146 32.3973 24.3073Z" fill="#13E4EA"/>
<path id="Vector_5" d="M27.6602 12.3986L10.8586 22.2712C10.1902 22.664 9.39311 22.7751 8.64275 22.5802C7.89239 22.3853 7.25019 21.9003 6.85744 21.2319L4.38928 17.0315C3.99652 16.3631 3.88538 15.566 4.08029 14.8157C4.27521 14.0653 4.76022 13.4231 5.42863 13.0303L22.2303 3.15771C22.8987 2.76496 23.6958 2.65381 24.4461 2.84873C25.1965 3.04364 25.8387 3.52866 26.2314 4.19707L28.6996 8.39748C29.0923 9.06589 29.2035 9.86295 29.0086 10.6133C28.8136 11.3637 28.3286 12.0059 27.6602 12.3986ZM6.4159 14.7105C6.19309 14.8414 6.03142 15.0555 5.96645 15.3056C5.90148 15.5557 5.93853 15.8214 6.06944 16.0442L8.5376 20.2446C8.66852 20.4674 8.88259 20.6291 9.13271 20.6941C9.38282 20.759 9.64851 20.722 9.87131 20.5911L26.673 10.7185C26.8958 10.5875 27.0574 10.3735 27.1224 10.1234C27.1874 9.87323 27.1503 9.60755 27.0194 9.38474L24.5513 5.18433C24.4203 4.96153 24.2063 4.79986 23.9562 4.73488C23.706 4.66991 23.4404 4.70696 23.2175 4.83788L6.4159 14.7105Z" fill="#007DA1"/>
<path id="Vector_6" d="M43.803 37.9481L25.3212 48.808C24.2068 49.461 22.8789 49.6454 21.6287 49.3206C20.3786 48.9959 19.3083 48.1886 18.6526 47.0757L8.72222 30.1758C8.20329 29.2946 7.97521 28.2724 8.07037 27.2542C8.16554 26.2361 8.5791 25.2738 9.25233 24.504L10.536 23.0344C10.67 22.8803 10.7523 22.6881 10.7711 22.4848C10.7899 22.2815 10.7444 22.0774 10.641 21.9013L10.3651 21.4317C10.2341 21.2089 10.1971 20.9432 10.2621 20.6931C10.327 20.443 10.4887 20.2289 10.7115 20.098L25.833 11.2126C26.0558 11.0817 26.3215 11.0447 26.5716 11.1096C26.8217 11.1746 27.0358 11.3363 27.1667 11.5591L27.4426 12.0287C27.5462 12.2051 27.7028 12.3444 27.89 12.4269C28.0772 12.5094 28.2856 12.5309 28.4857 12.4883L30.3934 12.0805C31.3934 11.8685 32.4348 11.9764 33.3701 12.3891C34.3054 12.8017 35.0872 13.498 35.6049 14.3796L45.5352 31.2795C46.1883 32.3939 46.3726 33.7218 46.0479 34.972C45.7231 36.2221 44.9158 37.2924 43.803 37.9481ZM12.512 21.3003C12.713 21.8008 12.7716 22.3472 12.6813 22.8789C12.5911 23.4106 12.3555 23.907 12.0006 24.3132L10.7169 25.7828C10.3135 26.2456 10.066 26.8236 10.0096 27.4349C9.95311 28.0462 10.0905 28.6597 10.4024 29.1885L20.3328 46.0885C20.7255 46.7569 21.3677 47.2419 22.1181 47.4368C22.8684 47.6317 23.6655 47.5206 24.3339 47.1278L42.8157 36.2679C43.4841 35.8752 43.9691 35.233 44.1641 34.4826C44.359 33.7323 44.2478 32.9352 43.8551 32.2668L33.9247 15.3669C33.614 14.8377 33.1447 14.4197 32.5832 14.1722C32.0217 13.9246 31.3966 13.86 30.7963 13.9876L28.8887 14.3954C28.3606 14.5073 27.8118 14.4708 27.3032 14.2899C26.7945 14.1091 26.3459 13.7909 26.0071 13.3706L12.512 21.3003ZM12.9374 14.2695C12.7146 14.4004 12.4489 14.4375 12.1988 14.3725C11.9487 14.3075 11.7346 14.1459 11.6037 13.9231L10.1228 11.4028C9.99187 11.18 9.95482 10.9143 10.0198 10.6642C10.0848 10.4141 10.2464 10.2 10.4692 10.0691C10.692 9.93818 10.9577 9.90113 11.2078 9.9661C11.458 10.0311 11.672 10.1927 11.803 10.4156L13.2838 12.9358C13.4148 13.1586 13.4518 13.4243 13.3868 13.6744C13.3219 13.9245 13.1602 14.1386 12.9374 14.2695ZM10.0707 17.0841C9.84789 17.215 9.5822 17.2521 9.33208 17.1871C9.08197 17.1221 8.8679 16.9605 8.73698 16.7377L6.76246 13.3773C6.63154 13.1545 6.59449 12.8888 6.65946 12.6387C6.72443 12.3886 6.8861 12.1745 7.10891 12.0436C7.33171 11.9127 7.5974 11.8757 7.84752 11.9406C8.09764 12.0056 8.3117 12.1673 8.44262 12.3901L10.4171 15.7504C10.5481 15.9732 10.5851 16.2389 10.5201 16.489C10.4552 16.7391 10.2935 16.9532 10.0707 17.0841ZM19.6581 10.3205C19.4352 10.4514 19.1696 10.4884 18.9194 10.4235C18.6693 10.3585 18.4553 10.1968 18.3243 9.97401L16.8434 7.45377C16.7125 7.23096 16.6755 6.96528 16.7404 6.71516C16.8054 6.46504 16.9671 6.25097 17.1899 6.12005C17.4127 5.98913 17.6784 5.95208 17.9285 6.01706C18.1786 6.08203 18.3927 6.2437 18.5236 6.4665L20.0045 8.98675C20.1354 9.20955 20.1725 9.47524 20.1075 9.72536C20.0425 9.97548 19.8809 10.1895 19.6581 10.3205ZM16.7914 13.1351C16.5686 13.266 16.3029 13.303 16.0527 13.2381C15.8026 13.1731 15.5886 13.0114 15.4576 12.7886L13.4831 9.42829C13.3522 9.20549 13.3151 8.9398 13.3801 8.68968C13.4451 8.43956 13.6068 8.2255 13.8296 8.09458C14.0524 7.96366 14.3181 7.92661 14.5682 7.99158C14.8183 8.05655 15.0324 8.21822 15.1633 8.44103L17.1378 11.8014C17.2687 12.0242 17.3058 12.2898 17.2408 12.54C17.1758 12.7901 17.0142 13.0042 16.7914 13.1351ZM23.512 9.18602C23.2892 9.31694 23.0235 9.35399 22.7734 9.28902C22.5233 9.22405 22.3092 9.06237 22.1783 8.83957L20.2038 5.47924C20.0729 5.25644 20.0358 4.99075 20.1008 4.74063C20.1658 4.49051 20.3274 4.27645 20.5502 4.14553C20.773 4.01461 21.0387 3.97756 21.2888 4.04253C21.539 4.1075 21.753 4.26917 21.8839 4.49198L23.8585 7.85231C23.9894 8.07511 24.0264 8.3408 23.9615 8.59092C23.8965 8.84104 23.7348 9.0551 23.512 9.18602Z" fill="#007DA1"/>
<path id="Vector_7" d="M45.1887 32.6127L27.5469 42.9789C27.1013 43.2408 26.57 43.3149 26.0697 43.1849C25.5695 43.055 25.1414 42.7316 24.8795 42.286L15.9942 27.1645C15.7323 26.7189 15.6582 26.1876 15.7882 25.6873C15.9181 25.1871 16.2415 24.759 16.6871 24.4971L30.9685 16.1054C31.1913 15.9745 31.457 15.9374 31.7071 16.0024C31.9572 16.0674 32.1713 16.229 32.3022 16.4518C32.4331 16.6746 32.4701 16.9403 32.4052 17.1904C32.3402 17.4406 32.1785 17.6546 31.9557 17.7855L17.6743 26.1773L26.5597 41.2988L43.3613 31.4261L33.9823 15.4646C33.8514 15.2418 33.8144 14.9761 33.8793 14.726C33.9443 14.4758 34.106 14.2618 34.3288 14.1309C34.5516 13.9999 34.8173 13.9629 35.0674 14.0279C35.3175 14.0928 35.5316 14.2545 35.6625 14.4773L45.5351 31.279C45.6661 31.5018 45.7031 31.7675 45.6381 32.0176C45.5732 32.2677 45.4115 32.4818 45.1887 32.6127Z" fill="#007DA1"/>
<path id="Vector_8" d="M33.9732 34.6827C33.3048 35.0754 32.5078 35.1866 31.7574 34.9917C31.007 34.7968 30.3649 34.3117 29.9721 33.6433L29.4785 32.8033L28.6384 33.2969C27.97 33.6896 27.1729 33.8008 26.4226 33.6059C25.6722 33.411 25.03 32.9259 24.6372 32.2575C24.2445 31.5891 24.1333 30.7921 24.3283 30.0417C24.5232 29.2913 25.0082 28.6491 25.6766 28.2564L26.5167 27.7628L26.023 26.9227C25.6303 26.2543 25.5191 25.4572 25.7141 24.7068C25.909 23.9565 26.394 23.3143 27.0624 22.9215C27.7308 22.5288 28.5279 22.4176 29.2782 22.6125C30.0286 22.8075 30.6708 23.2925 31.0635 23.9609L31.5572 24.801L32.3973 24.3073C33.0657 23.9146 33.8627 23.8034 34.6131 23.9984C35.3634 24.1933 36.0056 24.6783 36.3984 25.3467C36.7912 26.0151 36.9023 26.8122 36.7074 27.5625C36.5125 28.3129 36.0275 28.9551 35.359 29.3478L34.519 29.8415L35.0126 30.6815C35.4053 31.35 35.5165 32.147 35.3216 32.8974C35.1267 33.6477 34.6416 34.2899 33.9732 34.6827ZM26.6639 29.9366C26.4411 30.0675 26.2794 30.2815 26.2144 30.5317C26.1494 30.7818 26.1865 31.0475 26.3174 31.2703C26.4483 31.4931 26.6624 31.6547 26.9125 31.7197C27.1626 31.7847 27.4283 31.7476 27.6511 31.6167L29.3313 30.6295C29.5541 30.4985 29.8198 30.4615 30.0699 30.5265C30.32 30.5914 30.5341 30.7531 30.665 30.9759L31.6523 32.6561C31.7832 32.8789 31.9972 33.0406 32.2474 33.1055C32.4975 33.1705 32.7632 33.1334 32.986 33.0025C33.2088 32.8716 33.3705 32.6575 33.4354 32.4074C33.5004 32.1573 33.4633 31.8916 33.3324 31.6688L32.3452 29.9886C32.2142 29.7658 32.1772 29.5002 32.2422 29.25C32.3071 28.9999 32.4688 28.7859 32.6916 28.6549L34.3718 27.6677C34.5946 27.5368 34.7563 27.3227 34.8212 27.0726C34.8862 26.8224 34.8492 26.5568 34.7182 26.334C34.5873 26.1112 34.3732 25.9495 34.1231 25.8845C33.873 25.8195 33.6073 25.8566 33.3845 25.9875L31.7044 26.9748C31.4816 27.1057 31.2159 27.1427 30.9657 27.0778C30.7156 27.0128 30.5016 26.8511 30.3706 26.6283L29.3834 24.9482C29.2525 24.7253 29.0384 24.5637 28.7883 24.4987C28.5382 24.4337 28.2725 24.4708 28.0497 24.6017C27.8269 24.7326 27.6652 24.9467 27.6002 25.1968C27.5352 25.4469 27.5723 25.7126 27.7032 25.9354L28.6905 27.6156C28.8214 27.8384 28.8584 28.1041 28.7935 28.3542C28.7285 28.6043 28.5668 28.8184 28.344 28.9493L26.6639 29.9366Z" fill="#007DA1"/>
</g>
</svg>
