<svg width="77" height="73" viewBox="0 0 77 73" fill="none" xmlns="http://www.w3.org/2000/svg">
<g id="&#60;Group&#62;">
<g id="&#60;Group&#62;_2">
<g id="&#60;Group&#62;_3">
<path id="&#60;Path&#62;" d="M64.4354 62.1611H12.2861V71.6235H64.4354V62.1611Z" fill="#00EFD1"/>
</g>
<g id="&#60;Group&#62;_4">
<path id="&#60;Path&#62;_2" d="M57.8047 31.2734V62.1592H18.916V27.5482C18.9161 26.5603 19.3086 25.6128 20.0072 24.9142C20.7058 24.2156 21.6532 23.8231 22.6412 23.823L54.0795 23.8213C55.0675 23.8213 56.015 24.2138 56.7136 24.9124C57.4122 25.611 57.8047 26.5585 57.8047 27.5465V31.2734Z" fill="#00ACEA"/>
</g>
</g>
<g id="&#60;Group&#62;_5">
<path id="&#60;Compound Path&#62;" d="M65.8132 71.6227V62.1603C65.8133 61.9816 65.7774 61.8047 65.7076 61.6401C65.6378 61.4756 65.5355 61.3268 65.4069 61.2028C65.2783 61.0787 65.1259 60.9818 64.959 60.9179C64.7921 60.8541 64.614 60.8246 64.4354 60.8311H59.2107V27.5459C59.2074 26.1889 58.6663 24.8886 57.7061 23.9298C56.7458 22.971 55.4447 22.4319 54.0877 22.4307L22.6377 22.4324C21.2803 22.4335 19.9787 22.9723 19.0177 23.9311C18.0568 24.8898 17.5149 26.1902 17.5107 27.5476V60.8311H12.2861C12.1075 60.8246 11.9294 60.8541 11.7624 60.9179C11.5955 60.9818 11.4432 61.0787 11.3145 61.2028C11.1859 61.3268 11.0836 61.4756 11.0138 61.6401C10.944 61.8047 10.9081 61.9816 10.9082 62.1603V71.6227C10.9072 71.8036 10.9423 71.9829 11.0113 72.1501C11.0802 72.3173 11.1818 72.4692 11.31 72.5967C11.4383 72.7243 11.5906 72.8251 11.7582 72.8933C11.9257 72.9614 12.1052 72.9955 12.2861 72.9936H64.4354C64.6162 72.9955 64.7957 72.9614 64.9632 72.8933C65.1308 72.8251 65.2831 72.7243 65.4114 72.5967C65.5396 72.4692 65.6412 72.3173 65.7102 72.1501C65.7791 71.9829 65.8142 71.8036 65.8132 71.6227ZM20.2907 27.5476C20.2932 26.9277 20.5411 26.334 20.9802 25.8963C21.4193 25.4587 22.0138 25.2128 22.6337 25.2124L54.0837 25.2107C54.704 25.2109 55.2991 25.4567 55.7388 25.8942C56.1786 26.3317 56.4273 26.9255 56.4307 27.5459V60.8311H20.2907V27.5476ZM63.0332 70.2136H13.6882V63.6111H63.0332V70.2136Z" fill="#083863"/>
<path id="&#60;Path&#62;_3" d="M39.7505 13.2189V1.39C39.7505 1.02135 39.6041 0.667797 39.3434 0.407122C39.0827 0.146446 38.7291 0 38.3605 0C37.9918 0 37.6383 0.146446 37.3776 0.407122C37.1169 0.667797 36.9705 1.02135 36.9705 1.39V13.2189C36.9705 13.5875 37.1169 13.9411 37.3776 14.2018C37.6383 14.4624 37.9918 14.6089 38.3605 14.6089C38.7291 14.6089 39.0827 14.4624 39.3434 14.2018C39.6041 13.9411 39.7505 13.5875 39.7505 13.2189ZM62.4388 35.8116C62.4388 36.1802 62.5852 36.5338 62.8459 36.7945C63.1066 37.0551 63.4601 37.2016 63.8288 37.2016H75.331C75.6996 37.2016 76.0532 37.0551 76.3139 36.7945C76.5746 36.5338 76.721 36.1802 76.721 35.8116C76.721 35.4429 76.5746 35.0894 76.3139 34.8287C76.0532 34.568 75.6996 34.4216 75.331 34.4216H63.8288C63.4601 34.4216 63.1066 34.568 62.8459 34.8287C62.5852 35.0894 62.4388 35.4429 62.4388 35.8116ZM0 35.8116C0 36.1802 0.146446 36.5338 0.407121 36.7945C0.667796 37.0551 1.02135 37.2016 1.39 37.2016H12.8922C13.2609 37.2016 13.6144 37.0551 13.8751 36.7945C14.1358 36.5338 14.2822 36.1802 14.2822 35.8116C14.2822 35.4429 14.1358 35.0894 13.8751 34.8287C13.6144 34.568 13.2609 34.4216 12.8922 34.4216H1.39C1.02135 34.4216 0.667796 34.568 0.407121 34.8287C0.146446 35.0894 0 35.4429 0 35.8116ZM18.263 20.2384C18.5363 20.2383 18.8034 20.1577 19.0311 20.0067C19.2588 19.8557 19.4369 19.6409 19.5432 19.3892C19.6495 19.1375 19.6793 18.86 19.6288 18.5915C19.5783 18.323 19.4498 18.0753 19.2593 17.8794L11.1261 9.51506C10.8687 9.25255 10.5178 9.1027 10.1501 9.09832C9.78252 9.09393 9.42814 9.23537 9.16456 9.49167C8.90097 9.74797 8.74967 10.0982 8.74375 10.4658C8.73783 10.8334 8.87779 11.1884 9.13299 11.4531L17.2664 19.8174C17.3958 19.9508 17.5507 20.0568 17.7219 20.1292C17.8931 20.2015 18.0772 20.2386 18.263 20.2384ZM65.5949 9.51506L57.4617 17.8794C57.3322 18.0098 57.2299 18.1646 57.1607 18.3347C57.0914 18.5049 57.0566 18.6872 57.0582 18.8709C57.0598 19.0547 57.0978 19.2363 57.1701 19.4052C57.2423 19.5742 57.3473 19.7271 57.4791 19.8552C57.6108 19.9833 57.7666 20.084 57.9375 20.1515C58.1084 20.219 58.291 20.252 58.4747 20.2484C58.6584 20.2449 58.8396 20.205 59.0078 20.131C59.176 20.057 59.3279 19.9504 59.4546 19.8174L67.588 11.4531C67.8432 11.1884 67.9832 10.8334 67.9772 10.4658C67.9713 10.0982 67.82 9.74797 67.5564 9.49167C67.2929 9.23537 66.9385 9.09393 66.5708 9.09832C66.2032 9.1027 65.8523 9.25255 65.5949 9.51506Z" fill="#083863"/>
</g>
</g>
</svg>
