<svg width="92" height="42" viewBox="0 0 92 42" fill="none" xmlns="http://www.w3.org/2000/svg">
<g id="&#240;&#159;&#166;&#134; icon &#34;bone meal&#34;">
<g id="Group">
<path id="Vector" fill-rule="evenodd" clip-rule="evenodd" d="M13.9561 10.0812C15.2215 4.51351 20.8833 0 26.5723 0H65.0037C70.706 0 76.3555 4.51826 77.6198 10.0812L82.7138 32.4947H8.86215L13.9561 10.0812Z" fill="#80D25B"/>
<path id="Vector_2" fill-rule="evenodd" clip-rule="evenodd" d="M62.7726 10.3389C68.1879 10.3389 67.9418 12.3227 67.9418 14.77C67.9418 16.1263 67.2309 17.1135 66.111 17.724C67.2309 18.3346 67.9418 19.3218 67.9418 20.6781C67.9418 23.1253 65.6275 25.1092 62.7726 25.1092C59.9177 25.1092 53.4398 20.6781 46.5265 20.6781C39.6133 20.6781 35.6958 25.1092 30.2804 25.1092C24.8651 25.1092 25.1112 23.1253 25.1112 20.6781C25.1112 19.3218 25.8222 18.3346 26.942 17.724C25.8222 17.1135 25.1112 16.1263 25.1112 14.77C25.1112 12.3227 27.4256 10.3389 30.2804 10.3389C33.1353 10.3389 39.6603 14.77 46.5265 14.77C53.3927 14.77 57.3572 10.3389 62.7726 10.3389Z" fill="#ECECEC"/>
<path id="Vector_3" d="M87.145 32.4941H4.4311C1.98387 32.4941 0 34.478 0 36.9252C0 39.3725 1.98387 41.3563 4.4311 41.3563H87.145C89.5922 41.3563 91.5761 39.3725 91.5761 36.9252C91.5761 34.478 89.5922 32.4941 87.145 32.4941Z" fill="#979797"/>
</g>
</g>
</svg>
