<svg width="20" height="16" viewBox="0 0 20 16" fill="none" xmlns="http://www.w3.org/2000/svg">
<g id="Group">
<path id="Vector" d="M19 7.00789L3.41403 7.00789L8.70702 1.7149C8.80158 1.62242 8.87685 1.5121 8.92848 1.39033C8.98011 1.26856 9.00706 1.13775 9.00779 1.00549C9.00852 0.873232 8.983 0.742141 8.93272 0.619809C8.88244 0.497477 8.80839 0.386336 8.71485 0.292819C8.62132 0.199304 8.51017 0.125271 8.38783 0.0750085C8.26548 0.0247461 8.13439 -0.000748521 8.00213 2.9567e-06C7.86987 0.000754435 7.73907 0.0277377 7.61731 0.0793877C7.49554 0.131037 7.38524 0.206327 7.29277 0.3009L0.292787 7.30089C0.105316 7.48842 1.08384e-06 7.74272 1.04907e-06 8.00789C1.0143e-06 8.27305 0.105316 8.52736 0.292787 8.71489L7.29277 15.7149C7.38553 15.8079 7.49577 15.8817 7.61715 15.932C7.73852 15.9823 7.86864 16.0081 8.00002 16.0079C8.19777 16.0078 8.39107 15.9492 8.55548 15.8393C8.71989 15.7294 8.84803 15.5732 8.9237 15.3905C8.99937 15.2078 9.01917 15.0068 8.9806 14.8128C8.94203 14.6189 8.84683 14.4407 8.70702 14.3009L3.41403 9.00789L19 9.00789C19.2652 9.00789 19.5196 8.90253 19.7071 8.71499C19.8946 8.52746 20 8.27311 20 8.00789C20 7.74267 19.8946 7.48832 19.7071 7.30078C19.5196 7.11325 19.2652 7.00789 19 7.00789Z" fill="black"/>
</g>
</svg>
