<svg width="18" height="16" viewBox="0 0 18 16" fill="none" xmlns="http://www.w3.org/2000/svg">
<path d="M0.900005 8.89643L14.9274 8.89643L10.1637 13.6601C10.0786 13.7434 10.0108 13.8426 9.96437 13.9522C9.91791 14.0618 9.89364 14.1796 9.89299 14.2986C9.89233 14.4176 9.9153 14.5356 9.96055 14.6457C10.0058 14.7558 10.0725 14.8558 10.1566 14.94C10.2408 15.0242 10.3409 15.0908 10.451 15.136C10.5611 15.1813 10.6791 15.2042 10.7981 15.2035C10.9171 15.2029 11.0348 15.1786 11.1444 15.1321C11.254 15.0856 11.3533 15.0178 11.4365 14.9327L17.7365 8.63273C17.9052 8.46396 18 8.23508 18 7.99643C18 7.75779 17.9052 7.52891 17.7365 7.36013L11.4365 1.06015C11.353 0.976413 11.2538 0.910008 11.1446 0.864753C11.0353 0.819497 10.9182 0.796284 10.8 0.796448C10.622 0.796486 10.448 0.849291 10.3001 0.948186C10.1521 1.04708 10.0368 1.18763 9.96868 1.35206C9.90057 1.51649 9.88275 1.69742 9.91746 1.87197C9.95217 2.04653 10.0379 2.20688 10.1637 2.33274L14.9274 7.09643L0.900005 7.09643C0.66131 7.09643 0.432392 7.19126 0.263609 7.36004C0.0948274 7.52882 7.32511e-06 7.75774 7.31467e-06 7.99643C7.30424e-06 8.23513 0.0948273 8.46404 0.263609 8.63283C0.432392 8.80161 0.66131 8.89643 0.900005 8.89643Z" fill="black"/>
</svg>
