<svg width="11" height="13" viewBox="0 0 11 13" fill="none" xmlns="http://www.w3.org/2000/svg">
<g id="Group 48095884">
<path id="Vector" d="M10.1167 1.68359H0.883304C0.493039 1.68359 0.176666 1.99997 0.176666 2.39023V11.6236C0.176666 12.0139 0.493039 12.3303 0.883304 12.3303H10.1167C10.507 12.3303 10.8233 12.0139 10.8233 11.6236V2.39023C10.8233 1.99997 10.507 1.68359 10.1167 1.68359Z" fill="#F2F2F2"/>
<path id="Vector_2" d="M10.1167 1.68359H9.41006C9.59748 1.68359 9.77721 1.75804 9.90973 1.89056C10.0423 2.02308 10.1167 2.20282 10.1167 2.39023V11.6236C10.1167 11.811 10.0423 11.9908 9.90973 12.1233C9.77721 12.2558 9.59748 12.3303 9.41006 12.3303H10.1167C10.3041 12.3303 10.4839 12.2558 10.6164 12.1233C10.7489 11.9908 10.8233 11.811 10.8233 11.6236V2.39023C10.8233 2.20282 10.7489 2.02308 10.6164 1.89056C10.4839 1.75804 10.3041 1.68359 10.1167 1.68359Z" fill="#DEDEDE"/>
<path id="Vector_3" d="M10.1167 1.68359H0.883304C0.695892 1.68359 0.516156 1.75804 0.383636 1.89056C0.251115 2.02308 0.176666 2.20282 0.176666 2.39023V3.94404H10.8233V2.39023C10.8233 2.20282 10.7489 2.02308 10.6164 1.89056C10.4839 1.75804 10.3041 1.68359 10.1167 1.68359Z" fill="#1FAB89"/>
<path id="Vector_4" d="M10.1167 1.68359H9.41006C9.59748 1.68359 9.77721 1.75804 9.90973 1.89056C10.0423 2.02308 10.1167 2.20282 10.1167 2.39023V3.94404H10.8233V2.39023C10.8233 2.20282 10.7489 2.02308 10.6164 1.89056C10.4839 1.75804 10.3041 1.68359 10.1167 1.68359Z" fill="#018383"/>
<path id="Vector_5" d="M2.95611 1.08285C2.95611 0.829177 2.75046 0.623535 2.49679 0.623535C2.24312 0.623535 2.03748 0.829177 2.03748 1.08285V2.32606C2.03748 2.57973 2.24312 2.78538 2.49679 2.78538C2.75046 2.78538 2.95611 2.57973 2.95611 2.32606V1.08285Z" fill="#676E87"/>
<path id="Vector_6" d="M2.49679 0.623535C2.43614 0.623496 2.37609 0.635506 2.32013 0.658867C2.40383 0.693749 2.47534 0.752624 2.52563 0.828073C2.57593 0.903523 2.60278 0.992171 2.60278 1.08285V2.32606C2.60278 2.41674 2.57593 2.50539 2.52563 2.58084C2.47534 2.65629 2.40383 2.71516 2.32013 2.75005C2.37609 2.77341 2.43614 2.78542 2.49679 2.78538C2.61861 2.78538 2.73544 2.73699 2.82157 2.65085C2.90771 2.56471 2.9561 2.44788 2.9561 2.32606V1.08285C2.9561 0.961032 2.90771 0.844204 2.82157 0.758065C2.73544 0.671927 2.61861 0.623535 2.49679 0.623535Z" fill="#595F74"/>
<path id="Vector_7" d="M8.96251 1.08285C8.96251 0.829177 8.75687 0.623535 8.5032 0.623535C8.24953 0.623535 8.04388 0.829177 8.04388 1.08285V2.32606C8.04388 2.57973 8.24953 2.78538 8.5032 2.78538C8.75687 2.78538 8.96251 2.57973 8.96251 2.32606V1.08285Z" fill="#676E87"/>
<path id="Vector_8" d="M8.5032 0.623535C8.44255 0.623495 8.3825 0.635505 8.32654 0.658867C8.41024 0.693749 8.48174 0.752624 8.53204 0.828073C8.58234 0.903523 8.60919 0.992171 8.60919 1.08285V2.32606C8.60919 2.41674 8.58234 2.50539 8.53204 2.58084C8.48174 2.65629 8.41024 2.71516 8.32654 2.75005C8.3825 2.77341 8.44255 2.78542 8.5032 2.78538C8.62502 2.78538 8.74184 2.73699 8.82798 2.65085C8.91412 2.56471 8.96251 2.44788 8.96251 2.32606V1.08285C8.96251 0.961032 8.91412 0.844204 8.82798 0.758065C8.74184 0.671927 8.62502 0.623535 8.5032 0.623535Z" fill="#595F74"/>
<path id="Vector_9" d="M7.26969 8.1208C7.65995 8.1208 7.97633 7.80442 7.97633 7.41416C7.97633 7.02389 7.65995 6.70752 7.26969 6.70752C6.87942 6.70752 6.56305 7.02389 6.56305 7.41416C6.56305 7.80442 6.87942 8.1208 7.26969 8.1208Z" fill="#3B3F4D"/>
<path id="Vector_10" d="M10.1167 1.50673H9.13919V1.08275C9.13919 0.914081 9.07218 0.752318 8.95291 0.63305C8.83365 0.513782 8.67188 0.446777 8.50321 0.446777C8.33454 0.446777 8.17278 0.513782 8.05351 0.63305C7.93424 0.752318 7.86724 0.914081 7.86724 1.08275V1.50673H3.13276V1.08275C3.13276 0.914081 3.06576 0.752318 2.94649 0.63305C2.82722 0.513782 2.66546 0.446777 2.49679 0.446777C2.32812 0.446777 2.16635 0.513782 2.04709 0.63305C1.92782 0.752318 1.86081 0.914081 1.86081 1.08275V1.50673H0.883298C0.649113 1.507 0.424595 1.60014 0.259001 1.76574C0.0934074 1.93133 0.000261847 2.15585 0 2.39003V11.6234C0.000261847 11.8576 0.0934074 12.0821 0.259001 12.2477C0.424595 12.4133 0.649113 12.5065 0.883298 12.5067H10.1167C10.3509 12.5065 10.5754 12.4133 10.741 12.2477C10.9066 12.0821 10.9997 11.8576 11 11.6234V2.39003C10.9997 2.15585 10.9066 1.93133 10.741 1.76574C10.5754 1.60014 10.3509 1.507 10.1167 1.50673ZM8.22056 1.08275C8.22056 1.00779 8.25034 0.935892 8.30334 0.882884C8.35635 0.829876 8.42825 0.800096 8.50321 0.800096C8.57818 0.800096 8.65007 0.829876 8.70308 0.882884C8.75609 0.935892 8.78587 1.00779 8.78587 1.08275V2.32596C8.78587 2.40093 8.75609 2.47282 8.70308 2.52583C8.65007 2.57884 8.57818 2.60862 8.50321 2.60862C8.42825 2.60862 8.35635 2.57884 8.30334 2.52583C8.25034 2.47282 8.22056 2.40093 8.22056 2.32596V1.08275ZM2.21413 1.08275C2.21413 1.00779 2.24391 0.935892 2.29692 0.882884C2.34993 0.829876 2.42182 0.800096 2.49679 0.800096C2.57175 0.800096 2.64365 0.829876 2.69666 0.882884C2.74966 0.935892 2.77944 1.00779 2.77944 1.08275V2.32596C2.77944 2.40093 2.74966 2.47282 2.69666 2.52583C2.64365 2.57884 2.57175 2.60862 2.49679 2.60862C2.42182 2.60862 2.34993 2.57884 2.29692 2.52583C2.24391 2.47282 2.21413 2.40093 2.21413 2.32596V1.08275ZM10.6467 11.6234C10.6465 11.7639 10.5906 11.8987 10.4913 11.998C10.3919 12.0974 10.2572 12.1533 10.1167 12.1534H0.883298C0.742788 12.1533 0.60808 12.0974 0.508725 11.998C0.40937 11.8987 0.353481 11.7639 0.353319 11.6234V4.12052H10.6467V11.6234ZM10.6467 3.7672H0.353319V2.39003C0.353481 2.24952 0.40937 2.11481 0.508725 2.01546C0.60808 1.9161 0.742788 1.86022 0.883298 1.86005H1.86081V2.32596C1.86081 2.49463 1.92782 2.6564 2.04709 2.77567C2.16635 2.89493 2.32812 2.96194 2.49679 2.96194C2.66546 2.96194 2.82722 2.89493 2.94649 2.77567C3.06576 2.6564 3.13276 2.49463 3.13276 2.32596V1.86005H7.86724V2.32596C7.86724 2.49463 7.93424 2.6564 8.05351 2.77567C8.17278 2.89493 8.33454 2.96194 8.50321 2.96194C8.67188 2.96194 8.83365 2.89493 8.95291 2.77567C9.07218 2.6564 9.13919 2.49463 9.13919 2.32596V1.86005H10.1167C10.2572 1.86022 10.3919 1.9161 10.4913 2.01546C10.5906 2.11481 10.6465 2.24952 10.6467 2.39003V3.7672ZM9.76338 11.4466C9.79832 11.4466 9.83248 11.4363 9.86153 11.4169C9.89058 11.3975 9.91323 11.3699 9.9266 11.3376C9.93997 11.3053 9.94347 11.2698 9.93665 11.2355C9.92983 11.2012 9.91301 11.1698 9.8883 11.1451C9.8636 11.1204 9.83212 11.1035 9.79785 11.0967C9.76358 11.0899 9.72806 11.0934 9.69578 11.1068C9.6635 11.1201 9.63591 11.1428 9.6165 11.1718C9.59708 11.2009 9.58672 11.235 9.58672 11.27C9.58672 11.3168 9.60534 11.3618 9.63847 11.3949C9.6716 11.428 9.71653 11.4466 9.76338 11.4466ZM7.44636 7.41423C7.44636 7.37929 7.436 7.34513 7.41659 7.31608C7.39718 7.28703 7.36959 7.26439 7.33731 7.25102C7.30503 7.23765 7.26951 7.23415 7.23524 7.24096C7.20097 7.24778 7.16949 7.26461 7.14479 7.28931C7.12008 7.31402 7.10326 7.3455 7.09644 7.37976C7.08962 7.41403 7.09312 7.44955 7.10649 7.48183C7.11986 7.51411 7.14251 7.5417 7.17156 7.56112C7.20061 7.58053 7.23476 7.59089 7.2697 7.59089C7.31656 7.59089 7.36149 7.57228 7.39462 7.53915C7.42775 7.50602 7.44636 7.46108 7.44636 7.41423ZM4.27516 8.74726V9.52357C4.27516 9.9441 4.44221 10.3474 4.73957 10.6448C5.03693 10.9421 5.44024 11.1092 5.86076 11.1092C6.28129 11.1092 6.68459 10.9421 6.98195 10.6448C7.27931 10.3474 7.44636 9.9441 7.44636 9.52357V8.27974C7.66084 8.23596 7.85141 8.11411 7.98115 7.9378C8.11088 7.7615 8.17053 7.5433 8.14853 7.32551C8.12653 7.10773 8.02445 6.90587 7.86207 6.75907C7.6997 6.61227 7.4886 6.53099 7.2697 6.53099C7.05081 6.53099 6.83971 6.61227 6.67734 6.75907C6.51496 6.90587 6.41288 7.10773 6.39088 7.32551C6.36888 7.5433 6.42853 7.7615 6.55826 7.9378C6.688 8.11411 6.87857 8.23596 7.09304 8.27974V9.52357C7.09304 9.85039 6.96322 10.1638 6.73212 10.3949C6.50102 10.626 6.18758 10.7558 5.86076 10.7558C5.53394 10.7558 5.2205 10.626 4.98941 10.3949C4.75831 10.1638 4.62848 9.85039 4.62848 9.52357V8.74726C5.03264 8.7032 5.40633 8.51158 5.67797 8.20911C5.94962 7.90663 6.10012 7.51457 6.10064 7.10802V5.77718C6.10055 5.69288 6.06702 5.61205 6.0074 5.55244C5.94779 5.49282 5.86696 5.45929 5.78266 5.4592H5.46728C5.42839 5.39184 5.36837 5.3392 5.29651 5.30943C5.22465 5.27967 5.14498 5.27445 5.06985 5.29458C4.99473 5.31471 4.92834 5.35906 4.88099 5.42077C4.83364 5.48247 4.80798 5.55808 4.80798 5.63586C4.80798 5.71363 4.83364 5.78924 4.88099 5.85094C4.92834 5.91265 4.99473 5.95701 5.06985 5.97714C5.14498 5.99727 5.22465 5.99204 5.29651 5.96228C5.36837 5.93252 5.42839 5.87987 5.46728 5.81252H5.74732V7.10802C5.74732 7.45161 5.61083 7.78113 5.36788 8.02408C5.12493 8.26703 4.79541 8.40352 4.45182 8.40352C4.10823 8.40352 3.77872 8.26703 3.53576 8.02408C3.29281 7.78113 3.15632 7.45161 3.15632 7.10802V5.81252H3.44269C3.48158 5.87987 3.54161 5.93252 3.61347 5.96228C3.68532 5.99204 3.765 5.99727 3.84012 5.97714C3.91525 5.95701 3.98164 5.91265 4.02898 5.85094C4.07633 5.78924 4.102 5.71363 4.102 5.63586C4.102 5.55808 4.07633 5.48247 4.02898 5.42077C3.98164 5.35906 3.91525 5.31471 3.84012 5.29458C3.765 5.27445 3.68532 5.27967 3.61347 5.30943C3.54161 5.3392 3.48158 5.39184 3.44269 5.4592H3.12099C3.03668 5.45929 2.95585 5.49282 2.89624 5.55244C2.83662 5.61205 2.80309 5.69288 2.803 5.77718V7.10802C2.80352 7.51457 2.95402 7.90663 3.22567 8.20911C3.49731 8.51158 3.87101 8.7032 4.27516 8.74726ZM6.73973 7.41423C6.73973 7.30941 6.77081 7.20694 6.82904 7.11979C6.88728 7.03263 6.97005 6.96471 7.06689 6.92459C7.16373 6.88448 7.27029 6.87398 7.3731 6.89443C7.4759 6.91488 7.57034 6.96536 7.64446 7.03948C7.71858 7.1136 7.76905 7.20803 7.7895 7.31084C7.80995 7.41364 7.79945 7.5202 7.75934 7.61704C7.71923 7.71388 7.6513 7.79666 7.56415 7.85489C7.47699 7.91313 7.37452 7.94421 7.2697 7.94421C7.1292 7.94405 6.99449 7.88816 6.89513 7.7888C6.79578 7.68945 6.73989 7.55474 6.73973 7.41423ZM8.35011 11.4466C8.38505 11.4466 8.4192 11.4363 8.44825 11.4169C8.47731 11.3975 8.49995 11.3699 8.51332 11.3376C8.52669 11.3053 8.53019 11.2698 8.52337 11.2355C8.51656 11.2012 8.49973 11.1698 8.47503 11.1451C8.45032 11.1204 8.41884 11.1035 8.38457 11.0967C8.3503 11.0899 8.31478 11.0934 8.2825 11.1068C8.25022 11.1201 8.22263 11.1428 8.20322 11.1718C8.18381 11.2009 8.17345 11.235 8.17345 11.27C8.17345 11.3168 8.19206 11.3618 8.22519 11.3949C8.25832 11.428 8.30325 11.4466 8.35011 11.4466ZM9.05675 11.4466C9.09169 11.4466 9.12584 11.4363 9.15489 11.4169C9.18394 11.3975 9.20659 11.3699 9.21996 11.3376C9.23333 11.3053 9.23683 11.2698 9.23001 11.2355C9.22319 11.2012 9.20637 11.1698 9.18166 11.1451C9.15696 11.1204 9.12548 11.1035 9.09121 11.0967C9.05694 11.0899 9.02142 11.0934 8.98914 11.1068C8.95686 11.1201 8.92927 11.1428 8.90986 11.1718C8.89045 11.2009 8.88009 11.235 8.88009 11.27C8.88009 11.3168 8.8987 11.3618 8.93183 11.3949C8.96496 11.428 9.00989 11.4466 9.05675 11.4466Z" fill="#313440"/>
</g>
</svg>
