<svg width="20" height="18" viewBox="0 0 20 18" fill="none" xmlns="http://www.w3.org/2000/svg">
<g id="Camera">
<path id="Camera_2" fill-rule="evenodd" clip-rule="evenodd" d="M15.44 3.2364C15.48 3.30633 15.55 3.35627 15.64 3.35627C18.04 3.35627 20 5.3141 20 7.71143V13.6448C20 16.0422 18.04 18 15.64 18H4.36C1.95 18 0 16.0422 0 13.6448V7.71143C0 5.3141 1.95 3.35627 4.36 3.35627C4.44 3.35627 4.52 3.31632 4.55 3.2364L4.61 3.11654C4.64448 3.04397 4.67987 2.96943 4.71579 2.89376C4.97161 2.35492 5.25463 1.75879 5.43 1.40844C5.89 0.509434 6.67 0.0099889 7.64 0H12.35C13.32 0.0099889 14.11 0.509434 14.57 1.40844C14.7275 1.72308 14.9674 2.2299 15.1987 2.71839C15.2464 2.81921 15.2938 2.91924 15.34 3.01665L15.44 3.2364ZM14.7101 7.07217C14.7101 7.57161 15.1101 7.97117 15.6101 7.97117C16.1101 7.97117 16.5201 7.57161 16.5201 7.07217C16.5201 6.57272 16.1101 6.16318 15.6101 6.16318C15.1101 6.16318 14.7101 6.57272 14.7101 7.07217ZM8.26962 8.62057C8.73962 8.15109 9.34962 7.90137 9.99962 7.90137C10.6496 7.90137 11.2596 8.15109 11.7196 8.61058C12.1796 9.07007 12.4296 9.67939 12.4296 10.3287C12.4196 11.6672 11.3396 12.756 9.99962 12.756C9.34962 12.756 8.73962 12.5063 8.27962 12.0468C7.81962 11.5873 7.56962 10.9779 7.56962 10.3287V10.3187C7.55962 9.68938 7.80962 9.08006 8.26962 8.62057ZM12.7701 13.1054C12.0601 13.8147 11.0801 14.2542 10.0001 14.2542C8.95012 14.2542 7.97013 13.8446 7.22013 13.1054C6.48012 12.3563 6.07013 11.3774 6.07013 10.3285C6.06012 9.28969 6.47013 8.31077 7.21012 7.56161C7.96012 6.81244 8.95012 6.40289 10.0001 6.40289C11.0501 6.40289 12.0401 6.81244 12.7801 7.55162C13.5201 8.30078 13.9301 9.28969 13.9301 10.3285C13.9201 11.4173 13.4801 12.3962 12.7701 13.1054Z" fill="#1FAB89"/>
</g>
</svg>
