<svg width="58" height="60" viewBox="0 0 58 60" fill="none" xmlns="http://www.w3.org/2000/svg">
<g id="Group">
<path id="Vector" fill-rule="evenodd" clip-rule="evenodd" d="M29.2434 40.2452C25.748 46.1011 18.1862 48.0253 12.3528 44.5433C6.51935 41.0612 4.62423 33.4921 8.11963 27.6362C11.6151 21.7803 19.1768 19.8561 25.0102 23.3381C30.8436 26.8201 32.7388 34.3894 29.2434 40.2452Z" fill="#FEFEFE"/>
<g id="Group_2">
<g id="Mask group">
<mask id="mask0_226_12938" style="mask-type:luminance" maskUnits="userSpaceOnUse" x="0" y="15" width="38" height="38">
<g id="Group_3">
<path id="Vector_2" d="M23.2768 52.2931L0.347019 38.6062L14.0865 15.5884L37.0163 29.2753L23.2768 52.2931Z" fill="white"/>
</g>
</mask>
<g mask="url(#mask0_226_12938)">
<path id="Vector_3" fill-rule="evenodd" clip-rule="evenodd" d="M24.4696 24.2444C19.1429 21.0649 12.2135 22.8282 9.02174 28.1754C5.83068 33.5214 7.56695 40.4582 12.8936 43.6377C18.2198 46.8169 25.1495 45.053 28.3406 39.707C31.5324 34.3598 29.7958 27.4236 24.4696 24.2444ZM11.8118 45.4501C5.48976 41.6764 3.42834 33.4435 7.21622 27.0976C11.0044 20.7513 19.2294 18.6584 25.5514 22.4321C31.8729 26.2054 33.9344 34.4383 30.1462 40.7847C26.3583 47.1305 18.1333 49.2234 11.8118 45.4501Z" fill="#2E2E30"/>
</g>
</g>
</g>
<path id="Vector_4" opacity="0.15" fill-rule="evenodd" clip-rule="evenodd" d="M28.4204 26.3734C29.523 29.6692 29.2411 33.4111 27.3158 36.6366C23.8208 42.4918 16.2586 44.4166 10.4252 40.9346C9.06509 40.1228 7.92912 39.0817 7.01563 37.899C7.91446 40.5871 9.73207 42.979 12.3524 44.5431C18.1859 48.0251 25.7481 46.1004 29.2431 40.2451C31.9235 35.7546 31.4245 30.2634 28.4204 26.3734Z" fill="#040605"/>
<path id="Vector_5" fill-rule="evenodd" clip-rule="evenodd" d="M8.11968 27.6362C7.81207 28.1515 7.54835 28.6808 7.32329 29.2192L28.2282 41.6975C28.5952 41.2438 28.9359 40.7606 29.2436 40.2452C29.5512 39.7299 29.8148 39.2007 30.0399 38.6623L9.13501 26.184C8.76253 26.6434 8.42323 27.1287 8.11968 27.6362Z" fill="#C4C3C3"/>
<path id="Vector_6" fill-rule="evenodd" clip-rule="evenodd" d="M8.67719 28.7979L27.9559 40.3055C28.0926 40.1077 28.2205 39.9071 28.3406 39.7059C28.461 39.5042 28.5769 39.2963 28.6854 39.0833L9.40661 27.5757C9.27207 27.7712 9.14386 27.9709 9.0222 28.1746C8.90209 28.3758 8.78684 28.5839 8.67703 28.7978M27.6875 42.6035L6.78169 30.1247C6.33282 29.8567 6.14984 29.2976 6.35253 28.8131C6.60419 28.2135 6.89487 27.6365 7.21691 27.097C7.53894 26.5575 7.9093 26.0273 8.31672 25.5223C8.64805 25.1138 9.22603 25.0097 9.67498 25.2777L30.5809 37.7566C31.0299 38.0246 31.2132 38.5831 31.0102 39.0682C30.7591 39.6665 30.4681 40.2442 30.1461 40.7836C29.8241 41.3231 29.4541 41.8528 29.0459 42.3589C28.7162 42.7677 28.1366 42.8715 27.6877 42.6036" fill="#2E2E30"/>
<path id="Vector_7" fill-rule="evenodd" clip-rule="evenodd" d="M27.0738 53.3303C22.9219 50.8519 21.5603 45.4137 24.0481 41.2458L36.8502 19.7985C39.338 15.6307 44.771 14.2481 48.9229 16.7264C53.0749 19.2047 54.4364 24.643 51.9486 28.8108L39.1465 50.2582C36.6587 54.4261 31.2258 55.8086 27.0738 53.3303Z" fill="#FEFEFE"/>
<path id="Vector_8" fill-rule="evenodd" clip-rule="evenodd" d="M48.3821 17.6332C44.7171 15.4455 39.9486 16.6583 37.7525 20.3375L24.9504 41.7849C22.7543 45.464 23.9499 50.2369 27.6149 52.4245C31.28 54.6123 36.0479 53.3991 38.244 49.7199L51.0461 28.2725C53.2422 24.5934 52.0472 19.8209 48.3821 17.6332ZM26.5331 54.237C21.8726 51.4551 20.3524 45.3855 23.145 40.7072L35.9471 19.2598C38.7396 14.5815 44.8035 13.0389 49.464 15.8207C54.1245 18.6027 55.6441 24.6719 52.8515 29.3502L40.0494 50.7976C37.2569 55.4759 31.1936 57.0189 26.5331 54.237Z" fill="#2E2E30"/>
<path id="Vector_9" fill-rule="evenodd" clip-rule="evenodd" d="M48.9229 16.7264C44.771 14.2481 39.3381 15.6305 36.8502 19.7985L30.449 30.5224L45.5474 39.5347L51.9486 28.8108C54.4365 24.6428 53.0749 19.2047 48.9229 16.7264Z" fill="#E42E44"/>
<path id="Vector_10" fill-rule="evenodd" clip-rule="evenodd" d="M31.8927 30.1547L45.1862 38.0897L51.0461 28.2725C53.2422 24.5933 52.0473 19.8209 48.3822 17.6332C44.7172 15.4455 39.9487 16.6583 37.7526 20.3375L31.8927 30.1547ZM45.0071 40.4409L29.9081 31.4282C29.4098 31.1308 29.2477 30.4834 29.5463 29.9832L35.9471 19.2599C38.7398 14.5814 44.8036 13.0389 49.4641 15.8207C54.1246 18.6027 55.6442 24.6718 52.8516 29.3502L46.4508 40.0735C46.1522 40.5739 45.5054 40.7383 45.0071 40.4409Z" fill="#2E2E30"/>
<path id="Vector_11" opacity="0.15" fill-rule="evenodd" clip-rule="evenodd" d="M48.9229 16.7263C48.4078 16.4188 47.8735 16.172 47.3271 15.981C50.3439 18.738 51.119 23.3631 48.9395 27.0145L36.1374 48.4619C33.9579 52.1133 29.519 53.626 25.6605 52.2792C26.095 52.6762 26.5685 53.0283 27.0738 53.3301C31.2258 55.8084 36.6587 54.4259 39.1466 50.258L51.9486 28.8106C54.4364 24.6428 53.0749 19.2046 48.9229 16.7262" fill="#040605"/>
</g>
</svg>
