<svg width="14" height="14" viewBox="0 0 14 14" fill="none" xmlns="http://www.w3.org/2000/svg">
<g id="Group 48095885">
<path id="Vector" d="M2.85416 13.9763C2.81743 13.9763 2.78143 13.9661 2.75014 13.9468C2.71885 13.9276 2.6935 13.9001 2.67689 13.8673C2.66028 13.8346 2.65307 13.7978 2.65605 13.7612C2.65903 13.7246 2.67209 13.6895 2.69378 13.6599L3.7639 12.1976C3.77933 12.1765 3.79876 12.1587 3.82108 12.1451C3.8434 12.1315 3.86818 12.1225 3.894 12.1185C3.91981 12.1145 3.94616 12.1156 3.97154 12.1218C3.99692 12.128 4.02084 12.1391 4.04192 12.1545C4.063 12.17 4.08084 12.1894 4.09441 12.2117C4.10798 12.234 4.11702 12.2588 4.12102 12.2846C4.12502 12.3104 4.12389 12.3368 4.11771 12.3622C4.11152 12.3875 4.10039 12.4115 4.08497 12.4325L3.01484 13.8949C2.99637 13.9201 2.97218 13.9407 2.94426 13.9548C2.91634 13.969 2.88547 13.9764 2.85416 13.9763ZM8.31208 13.9763C8.28078 13.9764 8.24991 13.969 8.22199 13.9548C8.19407 13.9407 8.1699 13.9201 8.15143 13.8949L7.0813 12.4325C7.06587 12.4115 7.05475 12.3876 7.04856 12.3622C7.04237 12.3368 7.04124 12.3104 7.04523 12.2846C7.0533 12.2325 7.08175 12.1857 7.12432 12.1545C7.1669 12.1234 7.2201 12.1104 7.27224 12.1185C7.32438 12.1265 7.37118 12.155 7.40234 12.1975L8.47246 13.6599C8.49416 13.6895 8.50722 13.7246 8.51021 13.7612C8.51319 13.7978 8.50599 13.8345 8.48938 13.8673C8.47278 13.9001 8.44743 13.9276 8.41614 13.9468C8.38485 13.9661 8.34881 13.9763 8.31208 13.9763ZM6.29924 0.79433H4.867C4.81424 0.79433 4.76364 0.773372 4.72634 0.736067C4.68903 0.698762 4.66808 0.648165 4.66808 0.595407C4.66808 0.54265 4.68903 0.492053 4.72634 0.454748C4.76364 0.417442 4.81424 0.396484 4.867 0.396484H6.29924C6.352 0.396484 6.4026 0.417442 6.4399 0.454748C6.47721 0.492053 6.49817 0.54265 6.49817 0.595407C6.49817 0.648165 6.47721 0.698762 6.4399 0.736067C6.4026 0.773372 6.352 0.79433 6.29924 0.79433Z" fill="#676E87"/>
<path id="Vector_2" d="M5.58311 2.33267C5.53035 2.33267 5.47975 2.31171 5.44245 2.2744C5.40514 2.2371 5.38419 2.1865 5.38419 2.13374V0.595407C5.38419 0.54265 5.40514 0.492053 5.44245 0.454748C5.47975 0.417442 5.53035 0.396484 5.58311 0.396484C5.63587 0.396484 5.68646 0.417442 5.72377 0.454748C5.76107 0.492053 5.78203 0.54265 5.78203 0.595407V2.13374C5.78203 2.1865 5.76107 2.2371 5.72377 2.2744C5.68646 2.31171 5.63587 2.33267 5.58311 2.33267ZM10.5994 2.64665C10.5587 2.64667 10.519 2.63422 10.4856 2.61096C10.4522 2.5877 10.4268 2.55476 10.4127 2.51658C10.3986 2.4784 10.3965 2.43681 10.4068 2.39744C10.4171 2.35807 10.4392 2.3228 10.4702 2.29638L10.8382 1.9824C10.8581 1.96545 10.8811 1.95257 10.9059 1.94451C10.9308 1.93646 10.957 1.93337 10.983 1.93543C11.009 1.9375 11.0344 1.94467 11.0577 1.95654C11.081 1.96842 11.1017 1.98476 11.1186 2.00463C11.1356 2.0245 11.1485 2.04752 11.1565 2.07237C11.1646 2.09722 11.1677 2.12342 11.1656 2.14946C11.1635 2.1755 11.1564 2.20088 11.1445 2.22416C11.1326 2.24743 11.1163 2.26813 11.0964 2.28509L10.7284 2.59904C10.6925 2.62981 10.6467 2.64669 10.5994 2.64665H10.5994Z" fill="#676E87"/>
<path id="Vector_3" d="M9.16374 5.34298C10.1598 5.34298 10.9673 4.53549 10.9673 3.53941C10.9673 2.54332 10.1598 1.73584 9.16374 1.73584C8.16765 1.73584 7.36017 2.54332 7.36017 3.53941C7.36017 4.53549 8.16765 5.34298 9.16374 5.34298Z" fill="#1FAB89"/>
<path id="Vector_4" d="M9.16372 1.73584C9.02986 1.73592 8.89643 1.75086 8.76587 1.7804C9.16499 1.87061 9.52157 2.09388 9.77704 2.41353C10.0325 2.73318 10.1717 3.13021 10.1717 3.53941C10.1717 3.9486 10.0325 4.34563 9.77704 4.66528C9.52157 4.98494 9.16499 5.2082 8.76587 5.29842C9.01335 5.35441 9.26987 5.35754 9.51865 5.30762C9.76743 5.2577 10.0029 5.15585 10.2096 5.00872C10.4163 4.86158 10.5897 4.67249 10.7183 4.45378C10.847 4.23508 10.928 3.99169 10.9562 3.73952C10.9844 3.48734 10.959 3.23207 10.8818 2.99037C10.8045 2.74867 10.6771 2.526 10.508 2.33689C10.3388 2.14778 10.1316 1.99649 9.89998 1.89292C9.66834 1.78935 9.41745 1.73582 9.16372 1.73584Z" fill="#1FAB89"/>
<path id="Vector_5" d="M0.566835 2.64641C0.519528 2.64645 0.473768 2.62956 0.437827 2.5988L0.0698195 2.28484C0.0296815 2.2506 0.00479051 2.20182 0.000622266 2.14922C-0.00354598 2.09662 0.01335 2.04453 0.0475932 2.00439C0.0818364 1.96425 0.130622 1.93936 0.183217 1.93519C0.235813 1.93102 0.28791 1.94792 0.328048 1.98216L0.696056 2.29614C0.727017 2.32255 0.749133 2.35783 0.75942 2.3972C0.769707 2.43657 0.76767 2.47816 0.753585 2.51634C0.739499 2.55452 0.714043 2.58746 0.680649 2.61072C0.647255 2.63397 0.607531 2.64643 0.566835 2.64641Z" fill="#676E87"/>
<path id="Vector_6" d="M2.00251 5.34298C2.9986 5.34298 3.80608 4.53549 3.80608 3.53941C3.80608 2.54332 2.9986 1.73584 2.00251 1.73584C1.00643 1.73584 0.198944 2.54332 0.198944 3.53941C0.198944 4.53549 1.00643 5.34298 2.00251 5.34298Z" fill="#1FAB89"/>
<path id="Vector_7" d="M2.00249 1.73584C1.86863 1.73592 1.7352 1.75086 1.60464 1.7804C2.00377 1.87061 2.36035 2.09388 2.61582 2.41353C2.87128 2.73318 3.01044 3.13021 3.01044 3.53941C3.01044 3.9486 2.87128 4.34563 2.61582 4.66528C2.36035 4.98494 2.00377 5.2082 1.60464 5.29842C1.85213 5.35441 2.10864 5.35754 2.35742 5.30762C2.6062 5.2577 2.84165 5.15585 3.04837 5.00872C3.2551 4.86158 3.42845 4.67249 3.5571 4.45378C3.68576 4.23508 3.76681 3.99169 3.79497 3.73952C3.82313 3.48734 3.79776 3.23207 3.72053 2.99037C3.64329 2.74867 3.51592 2.526 3.34675 2.33689C3.17757 2.14778 2.97039 1.99649 2.73875 1.89292C2.50712 1.78935 2.25623 1.73582 2.00249 1.73584Z" fill="#1FAB89"/>
<path id="Vector_8" d="M5.58311 12.5839C8.46882 12.5839 10.8081 10.2445 10.8081 7.35883C10.8081 4.47312 8.46882 2.13379 5.58311 2.13379C2.69739 2.13379 0.358063 4.47312 0.358063 7.35883C0.358063 10.2445 2.69739 12.5839 5.58311 12.5839Z" fill="#1FAB89"/>
<path id="Vector_9" d="M10.8082 7.35883C10.8082 7.4888 10.8035 7.61752 10.7941 7.74501C10.6976 9.06073 10.1066 10.2911 9.13986 11.1888C8.17313 12.0865 6.90238 12.585 5.58312 12.5839C5.44918 12.5839 5.31656 12.5789 5.18527 12.569C6.42065 12.475 7.58238 11.9449 8.46306 11.0734C9.34374 10.202 9.88602 9.0459 9.99311 7.81158C10.0058 7.66226 10.0123 7.51134 10.0125 7.35883C10.0125 4.60706 7.88505 2.35207 5.18527 2.14864C5.31656 2.13883 5.44918 2.13388 5.58312 2.13379C8.46883 2.13379 10.8082 4.47312 10.8082 7.35883Z" fill="#1FAB89"/>
<path id="Vector_10" d="M5.58313 11.7884C8.02939 11.7884 10.0125 9.8053 10.0125 7.35904C10.0125 4.91278 8.02939 2.92969 5.58313 2.92969C3.13687 2.92969 1.15378 4.91278 1.15378 7.35904C1.15378 9.8053 3.13687 11.7884 5.58313 11.7884Z" fill="white"/>
<path id="Vector_11" d="M10.0125 7.35904C10.0126 7.51052 10.0049 7.6619 9.98941 7.81258C9.8247 9.42572 8.7903 10.7856 7.36415 11.4144C6.80297 11.6616 6.19636 11.789 5.58313 11.7884C3.14089 11.7884 1.15378 9.80128 1.15378 7.35904C1.15378 4.9168 3.14089 2.92969 5.58313 2.92969C8.02537 2.92969 10.0125 4.9168 10.0125 7.35904Z" fill="white"/>
<path id="Vector_12" d="M5.58312 2.92969C5.44902 2.92969 5.31638 2.93603 5.18527 2.94775C7.44191 3.14959 9.21678 5.05079 9.21678 7.35904C9.21678 9.66729 7.44191 11.5685 5.18527 11.7703C5.31638 11.7821 5.44902 11.7884 5.58312 11.7884C8.02547 11.7884 10.0125 9.80139 10.0125 7.35904C10.0125 4.91669 8.02547 2.92969 5.58312 2.92969Z" fill="#F2F2F2"/>
<path id="Vector_13" d="M7.09157 7.50492H5.58313C5.55374 7.50492 5.52472 7.49841 5.49815 7.48585C5.47158 7.4733 5.44812 7.45502 5.42945 7.43232L3.83807 5.49614C3.82148 5.47596 3.80903 5.45271 3.80143 5.42772C3.79382 5.40272 3.79122 5.37648 3.79376 5.35048C3.7963 5.32448 3.80394 5.29924 3.81623 5.27619C3.82853 5.25314 3.84525 5.23274 3.86543 5.21615C3.90618 5.18265 3.95858 5.16671 4.01109 5.17184C4.03709 5.17438 4.06233 5.18202 4.08538 5.19432C4.10843 5.20661 4.12883 5.22333 4.14542 5.24351L5.67712 7.10707H7.09157C7.14433 7.10707 7.19493 7.12803 7.23223 7.16534C7.26954 7.20264 7.29049 7.25324 7.29049 7.306C7.29049 7.35875 7.26954 7.40935 7.23223 7.44666C7.19493 7.48396 7.14433 7.50492 7.09157 7.50492Z" fill="#676E87"/>
<path id="Vector_14" d="M10.7941 7.74506C10.7219 8.71704 10.3795 9.6495 9.80551 10.4372C9.23149 11.2249 8.44872 11.8364 7.54555 12.2028C7.50472 12.0906 7.47001 11.9763 7.44158 11.8604C7.40569 11.7136 7.37981 11.5646 7.36414 11.4143C8.79028 10.7854 9.82468 9.42556 9.98939 7.81243L9.9931 7.81164C10.2158 7.76571 10.4426 7.7426 10.67 7.74268C10.7116 7.74268 10.753 7.74347 10.7941 7.74506Z" fill="#1FAB89"/>
<path id="Vector_15" d="M9.9894 7.8125C9.82469 9.42563 8.79029 10.7855 7.36415 11.4143C7.27853 10.5955 7.49955 9.77409 7.98445 9.10881C8.46936 8.44352 9.18371 7.98165 9.9894 7.8125Z" fill="#F2F2F2"/>
<path id="Vector_16" d="M10.67 13.7773C12.1672 13.7773 13.3809 12.5636 13.3809 11.0664C13.3809 9.56919 12.1672 8.35547 10.67 8.35547C9.17277 8.35547 7.95905 9.56919 7.95905 11.0664C7.95905 12.5636 9.17277 13.7773 10.67 13.7773Z" fill="#FFE966"/>
<path id="Vector_17" d="M10.67 8.35547C10.5368 8.35548 10.4039 8.36522 10.2721 8.38462C10.9151 8.48011 11.5024 8.80344 11.9269 9.2957C12.3515 9.78795 12.585 10.4164 12.585 11.0664C12.585 11.7164 12.3515 12.3448 11.9269 12.8371C11.5024 13.3293 10.9151 13.6527 10.2721 13.7482C10.6409 13.8029 11.017 13.7809 11.3769 13.6837C11.7368 13.5864 12.0728 13.416 12.3639 13.1831C12.6549 12.9501 12.8948 12.6596 13.0685 12.3298C13.2423 11.9999 13.3461 11.6378 13.3735 11.266C13.4009 10.8942 13.3514 10.5207 13.228 10.1689C13.1045 9.81713 12.9099 9.49459 12.6561 9.22144C12.4024 8.94829 12.0951 8.73041 11.7533 8.58142C11.4116 8.43242 11.0428 8.35551 10.67 8.3555V8.35547Z" fill="#FFE236"/>
<path id="Vector_18" d="M10.1673 10.5638L10.851 9.88012C10.917 9.8141 10.9954 9.76173 11.0816 9.726C11.1679 9.69027 11.2603 9.67188 11.3537 9.67188C11.4471 9.67188 11.5395 9.69027 11.6258 9.726C11.712 9.76173 11.7904 9.8141 11.8564 9.88012C11.9225 9.94614 11.9748 10.0245 12.0106 10.1108C12.0463 10.197 12.0647 10.2895 12.0647 10.3829C12.0647 10.4762 12.0463 10.5687 12.0106 10.6549C11.9748 10.7412 11.9225 10.8196 11.8564 10.8856L11.1727 11.5693L10.1673 10.5638Z" fill="#FF6666"/>
<path id="Vector_19" d="M11.1727 11.5694L11.8564 10.8857C11.9224 10.8196 11.9748 10.7413 12.0105 10.655C12.0463 10.5687 12.0647 10.4763 12.0647 10.3829C12.0647 10.2896 12.0463 10.1971 12.0105 10.1109C11.9748 10.0246 11.9224 9.94622 11.8564 9.8802C11.7663 9.79006 11.6537 9.7258 11.5302 9.69414C11.4068 9.66249 11.2771 9.66462 11.1548 9.70029C11.2696 9.73362 11.3741 9.79552 11.4586 9.8802C11.5246 9.94622 11.577 10.0246 11.6127 10.1109C11.6484 10.1971 11.6668 10.2896 11.6668 10.3829C11.6668 10.4763 11.6484 10.5687 11.6127 10.655C11.577 10.7413 11.5246 10.8196 11.4586 10.8857L10.9738 11.3704L11.1727 11.5694Z" fill="#FF4E4E"/>
<path id="Vector_20" d="M9.48353 11.2472C9.41751 11.3132 9.36515 11.3916 9.32942 11.4779C9.29369 11.5641 9.2753 11.6566 9.2753 11.7499C9.2753 11.8433 9.29369 11.9357 9.32942 12.022C9.36515 12.1083 9.41751 12.1866 9.48353 12.2527C9.54955 12.3187 9.62793 12.371 9.71418 12.4068C9.80044 12.4425 9.8929 12.4609 9.98626 12.4609C10.0796 12.4609 10.1721 12.4425 10.2583 12.4068C10.3446 12.371 10.423 12.3187 10.489 12.2527L11.1727 11.569L10.1672 10.5635L9.48353 11.2472Z" fill="#FBFBFB"/>
<path id="Vector_21" d="M10.9738 11.3701L10.0911 12.2527C10.0067 12.3374 9.90219 12.3993 9.78735 12.4326C9.8037 12.4373 9.8202 12.4415 9.83685 12.445C9.85016 12.4478 9.8635 12.4503 9.8769 12.4524L9.87955 12.4529C9.89429 12.4551 9.90909 12.4569 9.92392 12.4581L9.92872 12.4585C9.94158 12.4595 9.95445 12.4602 9.96734 12.4605C9.9701 12.4606 9.97283 12.4607 9.97556 12.4607C10.0045 12.4612 10.0334 12.4599 10.0622 12.4568C10.0649 12.4565 10.0676 12.4561 10.0704 12.4558C10.0823 12.4544 10.0941 12.4527 10.1059 12.4507C10.1088 12.4502 10.1117 12.4497 10.1146 12.4492C10.1289 12.4466 10.1431 12.4437 10.1572 12.4402L10.1577 12.44C10.1713 12.4366 10.1847 12.4329 10.198 12.4287C10.2014 12.4276 10.2048 12.4265 10.2082 12.4254C10.2193 12.4218 10.2303 12.4179 10.2412 12.4137C10.2439 12.4126 10.2467 12.4117 10.2494 12.4106C10.2626 12.4053 10.2758 12.3996 10.2888 12.3935C10.2912 12.3924 10.2935 12.3911 10.2959 12.39C10.3065 12.3849 10.317 12.3795 10.3275 12.3737C10.331 12.3718 10.3346 12.3698 10.3381 12.3678C10.3488 12.3617 10.3593 12.3553 10.3698 12.3487C10.3717 12.3474 10.3736 12.3463 10.3755 12.3451C10.3876 12.3371 10.3995 12.3287 10.4111 12.32C10.4141 12.3178 10.4171 12.3154 10.4201 12.3131C10.4291 12.3062 10.4379 12.299 10.4466 12.2916C10.4612 12.2792 10.4754 12.2662 10.489 12.2527L11.1727 11.569L10.9738 11.3701Z" fill="#EEEEEE"/>
<path id="Vector_22" d="M5.5831 4.50772C5.53034 4.50772 5.47975 4.48676 5.44244 4.44946C5.40514 4.41215 5.38418 4.36156 5.38418 4.3088V3.72529C5.38418 3.67253 5.40514 3.62194 5.44244 3.58463C5.47975 3.54733 5.53034 3.52637 5.5831 3.52637C5.63586 3.52637 5.68646 3.54733 5.72376 3.58463C5.76107 3.62194 5.78202 3.67253 5.78202 3.72529V4.3088C5.78202 4.36156 5.76107 4.41215 5.72376 4.44946C5.68646 4.48676 5.63586 4.50772 5.5831 4.50772ZM5.5831 11.1915C5.53034 11.1915 5.47975 11.1706 5.44244 11.1333C5.40514 11.096 5.38418 11.0454 5.38418 10.9926V10.4091C5.38418 10.3563 5.40514 10.3057 5.44244 10.2684C5.47975 10.2311 5.53034 10.2102 5.5831 10.2102C5.63586 10.2102 5.68646 10.2311 5.72376 10.2684C5.76107 10.3057 5.78202 10.3563 5.78202 10.4091V10.9926C5.78202 11.0454 5.76107 11.096 5.72376 11.1333C5.68646 11.1706 5.63586 11.1915 5.5831 11.1915ZM2.53295 7.55787H1.94944C1.89668 7.55787 1.84609 7.53692 1.80878 7.49961C1.77148 7.4623 1.75052 7.41171 1.75052 7.35895C1.75052 7.30619 1.77148 7.25559 1.80878 7.21829C1.84609 7.18098 1.89668 7.16003 1.94944 7.16003H2.53295C2.58571 7.16003 2.6363 7.18098 2.67361 7.21829C2.71091 7.25559 2.73187 7.30619 2.73187 7.35895C2.73187 7.41171 2.71091 7.4623 2.67361 7.49961C2.6363 7.53692 2.58571 7.55787 2.53295 7.55787Z" fill="#676E87"/>
<path id="Vector_23" d="M5.58312 7.70341C5.80284 7.70341 5.98096 7.52529 5.98096 7.30556C5.98096 7.08584 5.80284 6.90771 5.58312 6.90771C5.36339 6.90771 5.18527 7.08584 5.18527 7.30556C5.18527 7.52529 5.36339 7.70341 5.58312 7.70341Z" fill="#1FAB89"/>
</g>
</svg>
