<svg width="31" height="36" viewBox="0 0 31 36" fill="none" xmlns="http://www.w3.org/2000/svg">
<g id="Group 48095926">
<g id="Medical History">
<path id="Vector" d="M30.4277 0H4.30851V31.8906H30.4277V0Z" fill="#F48265"/>
<path id="Vector_2" d="M28.0609 29.52V2.37061L6.68298 2.37061V29.52H28.0609Z" fill="#F4CDA6"/>
<path id="Vector_3" d="M4.30851 0V31.8906H30.4315V0H4.30851ZM28.0532 29.52H6.67915V2.37064H28.057L28.0532 29.52Z" fill="#F48265"/>
<path id="Vector_4" d="M4.30851 0V1.26H30.4315V0H4.30851ZM6.67915 30.78H28.057V29.52H6.67915V30.78ZM4.30851 31.8906V33.1506H30.4315V31.8906H4.30851Z" fill="#F4B988"/>
<path id="Vector_5" d="M28.057 15.2734V29.5202H6.67915V15.2734H4.30851V31.8909H30.4315V15.2734H28.057Z" fill="#D15065"/>
<path id="Vector_6" d="M26.1191 4.10938H0V36H26.1191V4.10938Z" fill="#F46E79"/>
<path id="Vector_7" d="M26.1191 4.10938H0V6.40342H26.1191V4.10938Z" fill="#F4E1A6"/>
<path id="Vector_8" d="M26.123 22.6606H3.77616V35.9998H26.123V22.6606Z" fill="#DB506F"/>
<path id="Vector_9" d="M8.87362 6.40381H26.1077V33.7983H8.87362C8.41045 33.7983 7.96625 33.6143 7.63874 33.2868C7.31123 32.9593 7.12724 32.5151 7.12724 32.0519V8.15019C7.12724 7.68702 7.31123 7.24282 7.63874 6.91531C7.96625 6.5878 8.41045 6.40381 8.87362 6.40381Z" fill="#F4AA88"/>
<path id="Vector_10" d="M22.8409 15.5527C22.9099 15.6438 23.0056 15.711 23.1148 15.745C23.2239 15.779 23.3409 15.7779 23.4495 15.742C23.558 15.7061 23.6525 15.6372 23.7199 15.5449C23.7873 15.4525 23.8241 15.3414 23.8251 15.2271V9.245C23.8241 9.10108 23.7665 8.96334 23.6647 8.86156C23.563 8.75979 23.4252 8.70217 23.2813 8.70117H19.2332C19.1367 8.7013 19.0419 8.72713 18.9587 8.77599C18.8754 8.82486 18.8067 8.895 18.7595 8.97922C18.7123 9.06344 18.6884 9.15869 18.6902 9.25521C18.692 9.35172 18.7195 9.44602 18.7698 9.52841C20.0681 11.631 22.1094 14.5531 22.8409 15.5527ZM9.42512 29.7152V30.9561C9.42512 31.0275 9.43918 31.0982 9.46651 31.1642C9.49384 31.2302 9.5339 31.2901 9.5844 31.3406C9.6349 31.3911 9.69485 31.4312 9.76083 31.4585C9.82681 31.4858 9.89753 31.4999 9.96895 31.4999H11.9872C12.1054 31.5008 12.2207 31.4632 12.3156 31.3927C12.4105 31.3223 12.4798 31.2228 12.5132 31.1094C12.5465 30.996 12.542 30.8749 12.5003 30.7643C12.4586 30.6537 12.382 30.5597 12.2821 30.4965C11.723 30.1403 11.1562 29.7918 10.2485 29.248C10.1659 29.1985 10.0717 29.1718 9.97542 29.1707C9.87914 29.1695 9.78429 29.1939 9.70055 29.2415C9.61682 29.289 9.54719 29.3579 9.4988 29.4411C9.45041 29.5243 9.42498 29.6189 9.42512 29.7152Z" fill="white"/>
<path id="Vector_11" d="M3.77234 4.10938H0V36H3.77234V4.10938Z" fill="#5C86C7"/>
<path id="Vector_12" d="M2.24043 4.10938H0V36H2.24043V4.10938Z" fill="#484FA9"/>
<path id="Vector_13" d="M3.77617 30.2017H0V31.6225H3.77617V30.2017Z" fill="#483686"/>
<path id="Vector_14" d="M3.77617 4.10938H0V5.45746H3.77617V4.10938Z" fill="#84AEE5"/>
<path id="Vector_15" d="M3.77234 9.90771H0V30.2056H3.77234V9.90771Z" fill="#909CD5"/>
<path id="Vector_16" d="M1.52426 9.90771H0V30.2056H1.52426V9.90771Z" fill="#6D6FD5"/>
<path id="Vector_17" d="M3.77234 9.90771H0V11.1715H3.77234V9.90771Z" fill="#B8BFEE"/>
<path id="Vector_18" d="M2.09872 17.6323H1.67745C1.51247 17.6323 1.37872 17.7661 1.37872 17.931V23.2353C1.37872 23.4003 1.51247 23.534 1.67745 23.534H2.09872C2.2637 23.534 2.39745 23.4003 2.39745 23.2353V17.931C2.39745 17.7661 2.2637 17.6323 2.09872 17.6323Z" fill="#D6D8EE"/>
<path id="Vector_19" d="M28.4821 29.1748L26.123 28.1943V35.0497H28.237C28.4188 35.0497 28.5932 34.9774 28.7218 34.8489C28.8503 34.7203 28.9226 34.5459 28.9226 34.3641V29.8105C28.9222 29.6724 28.8799 29.5377 28.8012 29.4241C28.7226 29.3106 28.6113 29.2236 28.4821 29.1748Z" fill="#F4C86F"/>
<path id="Vector_20" d="M14.3464 6.40381H6.28468V15.4919H14.3464V6.40381Z" fill="#5CAEE0"/>
<path id="Vector_21" d="M22.7451 29.7148H21.2209V28.1943H19.6813V29.7148H18.157V31.2582H19.6813V32.7786H21.2209V31.2582H22.7451V29.7148Z" fill="#F73962"/>
<path id="Vector_22" d="M14.3464 18.766H6.30383C6.20226 18.766 6.10485 18.7256 6.03302 18.6538C5.9612 18.582 5.92085 18.4846 5.92085 18.383C5.92085 18.2814 5.9612 18.184 6.03302 18.1122C6.10485 18.0403 6.20226 18 6.30383 18H14.3464C14.448 18 14.5454 18.0403 14.6172 18.1122C14.689 18.184 14.7294 18.2814 14.7294 18.383C14.7294 18.4846 14.689 18.582 14.6172 18.6538C14.5454 18.7256 14.448 18.766 14.3464 18.766ZM10.5051 21.3357H6.29234C6.19077 21.3357 6.09336 21.2954 6.02153 21.2236C5.94971 21.1518 5.90936 21.0543 5.90936 20.9528C5.90936 20.8512 5.94971 20.7538 6.02153 20.682C6.09336 20.6101 6.19077 20.5698 6.29234 20.5698H10.5051C10.6067 20.5698 10.7041 20.6101 10.7759 20.682C10.8477 20.7538 10.8881 20.8512 10.8881 20.9528C10.8881 21.0543 10.8477 21.1518 10.7759 21.2236C10.7041 21.2954 10.6067 21.3357 10.5051 21.3357ZM13.0634 23.917H6.28468C6.18311 23.917 6.0857 23.8767 6.01387 23.8048C5.94205 23.733 5.9017 23.6356 5.9017 23.534C5.9017 23.4325 5.94205 23.3351 6.01387 23.2632C6.0857 23.1914 6.18311 23.1511 6.28468 23.1511H13.0634C13.165 23.1511 13.2624 23.1914 13.3342 23.2632C13.406 23.3351 13.4464 23.4325 13.4464 23.534C13.4464 23.6356 13.406 23.733 13.3342 23.8048C13.2624 23.8767 13.165 23.917 13.0634 23.917ZM10.5051 26.4945H6.29234C6.19077 26.4945 6.09336 26.4541 6.02153 26.3823C5.94971 26.3105 5.90936 26.2131 5.90936 26.1115C5.90936 26.0099 5.94971 25.9125 6.02153 25.8407C6.09336 25.7689 6.19077 25.7285 6.29234 25.7285H10.5051C10.6067 25.7285 10.7041 25.7689 10.7759 25.8407C10.8477 25.9125 10.8881 26.0099 10.8881 26.1115C10.8881 26.2131 10.8477 26.3105 10.7759 26.3823C10.7041 26.4541 10.6067 26.4945 10.5051 26.4945ZM14.3464 21.3357H13.0634C12.9618 21.3357 12.8644 21.2954 12.7926 21.2236C12.7208 21.1518 12.6804 21.0543 12.6804 20.9528C12.6804 20.8512 12.7208 20.7538 12.7926 20.682C12.8644 20.6101 12.9618 20.5698 13.0634 20.5698H14.3464C14.448 20.5698 14.5454 20.6101 14.6172 20.682C14.689 20.7538 14.7294 20.8512 14.7294 20.9528C14.7294 21.0543 14.689 21.1518 14.6172 21.2236C14.5454 21.2954 14.448 21.3357 14.3464 21.3357Z" fill="#3E3668"/>
<path id="Vector_23" d="M10.3174 11.7534C11.3369 11.7534 12.1634 10.927 12.1634 9.90748C12.1634 8.88799 11.3369 8.06152 10.3174 8.06152C9.29794 8.06152 8.47148 8.88799 8.47148 9.90748C8.47148 10.927 9.29794 11.7534 10.3174 11.7534Z" fill="#434572"/>
<path id="Vector_24" d="M9.30638 11.75H11.3285C12.1299 11.75 12.8985 12.0684 13.4652 12.635C14.0319 13.2017 14.3502 13.9703 14.3502 14.7717V15.4917H6.30766V14.7717C6.30766 13.9703 6.62601 13.2017 7.19269 12.635C7.75937 12.0684 8.52795 11.75 9.32936 11.75H9.30638Z" fill="#434572"/>
<path id="Vector_25" d="M23.7523 6.40381H19.5281V7.90509H23.7523V6.40381Z" fill="#5C86C7"/>
</g>
</g>
</svg>
