<svg width="21" height="20" viewBox="0 0 21 20" fill="none" xmlns="http://www.w3.org/2000/svg">
<path d="M6.39775 9.6667C5.23257 9.70267 4.27956 10.163 3.53873 11.0477H2.09305C1.50326 11.0477 1.00698 10.902 0.604203 10.6107C0.201421 10.3194 3.05176e-05 9.89327 3.05176e-05 9.33226C3.05176e-05 6.79331 0.445963 5.52383 1.33783 5.52383C1.38098 5.52383 1.53742 5.59935 1.80714 5.75039C2.07686 5.90144 2.42749 6.05428 2.85904 6.20892C3.29059 6.36355 3.71854 6.44087 4.1429 6.44087C4.62479 6.44087 5.10309 6.35816 5.5778 6.19274C5.54184 6.45886 5.52386 6.69621 5.52386 6.90479C5.52386 7.90454 5.81516 8.82518 6.39775 9.6667ZM17.9525 16.5391C17.9525 17.4022 17.6899 18.0837 17.1649 18.5836C16.6398 19.0835 15.9422 19.3334 15.0719 19.3334H5.64253C4.77224 19.3334 4.07457 19.0835 3.54953 18.5836C3.02447 18.0837 2.76194 17.4022 2.76194 16.5391C2.76194 16.1579 2.77453 15.7857 2.79971 15.4225C2.82488 15.0593 2.87523 14.6673 2.95075 14.2465C3.02627 13.8258 3.12157 13.4356 3.23665 13.0759C3.35173 12.7163 3.50636 12.3657 3.70056 12.024C3.89476 11.6824 4.11772 11.3911 4.36946 11.1501C4.6212 10.9092 4.92868 10.7168 5.2919 10.573C5.65512 10.4291 6.0561 10.3572 6.49485 10.3572C6.56677 10.3572 6.72141 10.4345 6.95876 10.5891C7.19611 10.7438 7.45864 10.9164 7.74633 11.107C8.03404 11.2976 8.41884 11.4702 8.90073 11.6249C9.38262 11.7795 9.86812 11.8568 10.3572 11.8568C10.8463 11.8568 11.3318 11.7795 11.8137 11.6249C12.2956 11.4702 12.6804 11.2976 12.9681 11.107C13.2558 10.9164 13.5183 10.7438 13.7557 10.5891C13.993 10.4345 14.1476 10.3572 14.2196 10.3572C14.6583 10.3572 15.0593 10.4291 15.4225 10.573C15.7857 10.7168 16.0932 10.9092 16.345 11.1501C16.5967 11.3911 16.8197 11.6824 17.0139 12.024C17.2081 12.3657 17.3627 12.7163 17.4778 13.0759C17.5928 13.4356 17.6881 13.8258 17.7637 14.2465C17.8392 14.6673 17.8895 15.0593 17.9147 15.4225C17.9399 15.7857 17.9525 16.1579 17.9525 16.5391ZM6.90481 2.76192C6.90481 3.52432 6.63509 4.17524 6.09566 4.71468C5.55622 5.25411 4.9053 5.52383 4.1429 5.52383C3.3805 5.52383 2.72958 5.25411 2.19015 4.71468C1.65071 4.17524 1.38099 3.52432 1.38099 2.76192C1.38099 1.99951 1.65071 1.34859 2.19015 0.809154C2.72958 0.269718 3.3805 0 4.1429 0C4.9053 0 5.55622 0.269718 6.09566 0.809154C6.63509 1.34859 6.90481 1.99951 6.90481 2.76192ZM14.5001 6.90479C14.5001 8.0484 14.0955 9.02478 13.2863 9.83393C12.4772 10.6431 11.5008 11.0477 10.3572 11.0477C9.2136 11.0477 8.23722 10.6431 7.42807 9.83393C6.61891 9.02478 6.21434 8.0484 6.21434 6.90479C6.21434 5.76119 6.61891 4.78481 7.42807 3.97565C8.23722 3.1665 9.2136 2.76192 10.3572 2.76192C11.5008 2.76192 12.4772 3.1665 13.2863 3.97565C14.0955 4.78481 14.5001 5.76119 14.5001 6.90479ZM20.7144 9.33226C20.7144 9.89327 20.513 10.3194 20.1102 10.6107C19.7074 10.902 19.2112 11.0477 18.6214 11.0477H17.1757C16.4349 10.163 15.4818 9.70267 14.3167 9.6667C14.8993 8.82518 15.1906 7.90454 15.1906 6.90479C15.1906 6.69621 15.1726 6.45886 15.1366 6.19274C15.6113 6.35816 16.0896 6.44087 16.5715 6.44087C16.9959 6.44087 17.4238 6.36355 17.8554 6.20892C18.2869 6.05428 18.6376 5.90144 18.9073 5.75039C19.177 5.59935 19.3334 5.52383 19.3766 5.52383C20.2685 5.52383 20.7144 6.79331 20.7144 9.33226ZM19.3334 2.76192C19.3334 3.52432 19.0637 4.17524 18.5243 4.71468C17.9848 5.25411 17.3339 5.52383 16.5715 5.52383C15.8091 5.52383 15.1582 5.25411 14.6188 4.71468C14.0793 4.17524 13.8096 3.52432 13.8096 2.76192C13.8096 1.99951 14.0793 1.34859 14.6188 0.809154C15.1582 0.269718 15.8091 0 16.5715 0C17.3339 0 17.9848 0.269718 18.5243 0.809154C19.0637 1.34859 19.3334 1.99951 19.3334 2.76192Z" fill="white"/>
</svg>
