<svg width="66" height="61" viewBox="0 0 66 61" fill="none" xmlns="http://www.w3.org/2000/svg">
<g id="Group 48095878">
<path id="Vector" d="M46.8 15.9411C45.3 14.4411 43.8 12.9411 41.9 12.0411C39.6 11.0411 37 11.2411 34.7 11.9411C32.3 12.6411 30.2 13.9411 28 15.1411C21.9 18.6411 15.8 22.2411 9.60003 25.7411C8.30003 26.5411 6.90003 27.3411 6.00003 28.5411C4.20003 30.8411 4.30003 34.1411 5.50003 36.7411C6.70003 39.3411 8.90003 41.3411 11.2 43.0411C13.5 44.7411 15.9 46.3411 18 48.3411C19.9 50.2411 21.4 52.5411 23.3 54.4411C29 60.1411 38.5 61.7411 45.7 58.1411C51 55.5411 54.7 50.6411 58.3 45.9411C60.9 42.5411 63.6 38.7411 63.6 34.4411C63.6 30.2411 60.9 26.6411 57.1 25.0411C53 23.5411 49.9 19.1411 46.8 15.9411Z" fill="url(#paint0_linear_226_13187)"/>
<path id="Vector_2" d="M38.2 26.841V32.941C38.2 34.941 36.5 36.541 34.5 36.541H21.3L14.9 41.141L14.7 36.541C12.7 36.541 11 34.841 11 32.841V21.241C11 19.141 12.6 17.541 14.7 17.541H29.2" stroke="black" stroke-width="1.418" stroke-miterlimit="10" stroke-linecap="round" stroke-linejoin="round"/>
<path id="Vector_3" d="M38.2 33.0408H45.4C47.1 33.0408 48.4 34.4408 48.4 36.1408V45.7408C48.4 47.4408 47 48.8408 45.4 48.8408L45.2 52.5408L39.9 48.7408H29C27.3 48.7408 26 47.3408 26 45.6408V36.5408M52.6 26.8408L52.4 31.4408L46 26.8408H32.8C30.8 26.8408 29.1 25.1408 29.1 23.1408V11.5408C29.1 9.44082 30.7 7.84082 32.8 7.84082H52.7C54.7 7.84082 56.4 9.54082 56.4 11.5408V23.1408C56.4 25.2408 54.7 26.8408 52.6 26.8408Z" stroke="black" stroke-width="1.418" stroke-miterlimit="10" stroke-linecap="round" stroke-linejoin="round"/>
<path id="Vector_4" d="M38.2 33.041H45.4C47.1 33.041 48.4 34.441 48.4 36.141V45.741C48.4 47.441 47 48.841 45.4 48.841L45.2 52.541L39.9 48.741H29C27.3 48.741 26 47.341 26 45.641V36.541L38.2 33.041Z" fill="#FF9D23" stroke="white" stroke-width="1.21" stroke-miterlimit="10" stroke-linecap="round" stroke-linejoin="round"/>
<path id="Vector_5" d="M32.7 39.6411H41.7M32.7 43.5411H41.7" stroke="white" stroke-width="1.21" stroke-miterlimit="10" stroke-linecap="round" stroke-linejoin="round"/>
<path id="Vector_6" d="M38.2 26.841V32.941C38.2 34.941 36.5 36.541 34.5 36.541H21.3L14.9 41.141L14.7 36.541C12.7 36.541 11 34.841 11 32.841V21.241C11 19.141 12.6 17.541 14.7 17.541H29.2L38.2 26.841Z" fill="#9495FA" stroke="white" stroke-width="1.21" stroke-miterlimit="10" stroke-linecap="round" stroke-linejoin="round"/>
<path id="Vector_7" d="M52.6 26.8408L52.4 31.4408L46 26.8408H32.8C30.8 26.8408 29.1 25.1408 29.1 23.1408V11.5408C29.1 9.44082 30.7 7.84082 32.8 7.84082H52.7C54.7 7.84082 56.4 9.54082 56.4 11.5408V23.1408C56.4 25.2408 54.7 26.8408 52.6 26.8408Z" fill="#F86C66" stroke="white" stroke-width="1.21" stroke-miterlimit="10" stroke-linecap="round" stroke-linejoin="round"/>
<g id="Group">
<path id="Vector_8" d="M37 15.2412H48.5M37 19.5412H48.5" stroke="white" stroke-width="1.21" stroke-miterlimit="10" stroke-linecap="round" stroke-linejoin="round"/>
</g>
<path id="Vector_9" d="M59 3.04092L56.9 0.940918L55.1 2.74092" stroke="#FF9D23" stroke-width="1.501" stroke-miterlimit="10" stroke-linecap="round" stroke-linejoin="round"/>
<path id="Vector_10" d="M4.6 26.7408L2.7 24.8408L1 26.5408" stroke="white" stroke-width="1.372" stroke-miterlimit="10" stroke-linecap="round" stroke-linejoin="round"/>
<path id="Vector_11" d="M62.2 11.2412L65 13.9412" stroke="#9495FA" stroke-width="1.501" stroke-miterlimit="10" stroke-linecap="round" stroke-linejoin="round"/>
<path id="Vector_12" d="M5.59998 11.1411L8.59998 14.0411M60.7 50.3411L63.7 53.3411" stroke="#FF4B4D" stroke-width="1.372" stroke-miterlimit="10" stroke-linecap="round" stroke-linejoin="round"/>
<path id="Vector_13" d="M7.09998 48.8408L10.1 51.8408" stroke="#FF9D23" stroke-width="1.372" stroke-miterlimit="10" stroke-linecap="round" stroke-linejoin="round"/>
</g>
<defs>
<linearGradient id="paint0_linear_226_13187" x1="34.078" y1="11.4131" x2="34.078" y2="60.1481" gradientUnits="userSpaceOnUse">
<stop stop-color="white" stop-opacity="0.25"/>
<stop offset="1" stop-color="#FED3BE"/>
</linearGradient>
</defs>
</svg>
