<svg width="63" height="59" viewBox="0 0 63 59" fill="none" xmlns="http://www.w3.org/2000/svg">
<g id="Group 48095907">
<path id="Vector" d="M61.7806 1.1416H1.01282V57.8582H61.7806V1.1416Z" fill="#62C1EA"/>
<path id="Vector_2" d="M60.7678 54.8198H61.7806V1.1416H4.13428C4.91192 15.6367 11.2177 29.2818 21.7532 39.2676C32.2887 49.2533 46.2519 54.8194 60.7678 54.8198Z" fill="#86DDFA"/>
<path id="Vector_3" d="M61.7806 1.1416H1.01282V15.3207H61.7806V1.1416Z" fill="#FF4B50"/>
<path id="Vector_4" d="M4.13428 1.1416C4.38958 5.95938 5.26127 10.7246 6.72805 15.3207H61.7806V1.1416H4.13428Z" fill="#FF797B"/>
<path id="Vector_5" d="M11.1408 15.3213H1.01282V57.8587H11.1408V15.3213Z" fill="#FFD986"/>
<path id="Vector_6" d="M11.1407 25.5505V15.3213H6.72791C7.85727 18.8684 9.33542 22.2949 11.1407 25.5505Z" fill="#FFE9CA"/>
<path id="Vector_7" d="M20.256 4.18066H17.2176C16.949 4.18066 16.6914 4.28737 16.5015 4.47731C16.3115 4.66724 16.2048 4.92485 16.2048 5.19346V12.283H18.2304V10.2574H20.256C21.0619 10.2574 21.8347 9.93733 22.4045 9.36752C22.9743 8.79771 23.2944 8.02488 23.2944 7.21905C23.2944 6.41322 22.9743 5.6404 22.4045 5.07059C21.8347 4.50078 21.0619 4.18066 20.256 4.18066ZM20.256 8.23185H18.2304V6.20626H20.256C20.5246 6.20626 20.7822 6.31296 20.9722 6.5029C21.1621 6.69283 21.2688 6.95044 21.2688 7.21905C21.2688 7.48766 21.1621 7.74527 20.9722 7.93521C20.7822 8.12514 20.5246 8.23185 20.256 8.23185ZM26.3328 4.18066H24.3072V11.2702C24.3072 11.5388 24.4139 11.7965 24.6038 11.9864C24.7938 12.1763 25.0514 12.283 25.32 12.283H29.3712V10.2574H26.3328V4.18066ZM36.4608 4.18066H31.3968C31.1282 4.18066 30.8706 4.28737 30.6806 4.47731C30.4907 4.66724 30.384 4.92485 30.384 5.19346V12.283H32.4096V9.24465H35.448V12.283H37.4736V5.19346C37.4736 4.92485 37.3669 4.66724 37.1769 4.47731C36.987 4.28737 36.7294 4.18066 36.4608 4.18066ZM32.4096 7.21905V6.20626H35.448V7.21905H32.4096ZM44.5631 4.18066V10.2574H44.2806L42.4849 4.87342C42.4177 4.67183 42.2889 4.49646 42.1166 4.37213C41.9443 4.24781 41.7372 4.18083 41.5247 4.18066H39.4991C39.2305 4.18066 38.9729 4.28737 38.783 4.47731C38.5931 4.66724 38.4864 4.92485 38.4864 5.19346V12.283H40.5119V6.20626H40.7945L42.5902 11.5903C42.6573 11.7919 42.7862 11.9672 42.9585 12.0916C43.1308 12.2159 43.3379 12.2829 43.5503 12.283H45.5759C45.8445 12.283 46.1021 12.1763 46.2921 11.9864C46.482 11.7965 46.5887 11.5388 46.5887 11.2702V4.18066H44.5631Z" fill="white"/>
<path id="Vector_8" d="M10.128 15.3193V20.3843H1.01282V22.4099H10.128V26.4611H1.01282V28.4867H10.128V32.5379H1.01282V34.5635H10.128V38.6147H1.01282V40.6403H10.128V44.6914H1.01282V46.717H10.128V50.7682H1.01282V52.7938H10.128V57.8578H12.1536V15.3193H10.128Z" fill="#FF4B50"/>
<path id="Vector_9" d="M51.6527 41.6533C51.6527 48.3651 44.8507 53.8069 36.4607 53.8069C28.0707 53.8069 21.2688 48.3651 21.2688 41.6533H51.6527Z" fill="#FFD986"/>
<path id="Vector_10" d="M49.2877 25.8628L55.7037 24.4368L54.6909 21.3984L51.45 22.2087L49.2877 23.6306L47.0646 27.5937" fill="#80AC00"/>
<path id="Vector_11" d="M26.6821 26.6461L25.1498 24.4868C23.9382 22.6728 23.2924 20.5399 23.2943 18.3584H25.3199C25.3196 20.1401 25.8484 21.8818 26.8391 23.3626L27.1794 23.869L28.3279 25.4551L26.6821 26.6461Z" fill="#A37763"/>
<path id="Vector_12" d="M27.3455 35.5771H25.3199V37.6027H27.3455V35.5771Z" fill="#FFE1AA"/>
<path id="Vector_13" d="M41.5246 22.4111H39.499V24.4367H41.5246V22.4111Z" fill="#FFE1AA"/>
<path id="Vector_14" d="M49.6272 36.5898H47.6016V38.6154H49.6272V36.5898Z" fill="#FFE1AA"/>
<path id="Vector_15" d="M10.128 20.3853H8.60876C8.90045 21.0669 9.19821 21.7434 9.51522 22.4109H10.128V23.6353C10.7599 24.8871 11.4351 26.112 12.1536 27.3098V15.3213H10.128V20.3853Z" fill="#FF797B"/>
<path id="Vector_16" d="M43.8824 52.2522C48.5129 50.1709 51.6526 46.2109 51.6526 41.6533H24.4559C30.1708 46.4304 36.7725 50.0322 43.8824 52.2522Z" fill="#FFE9CA"/>
<path id="Vector_17" d="M21.2688 41.6533C21.2756 43.0507 21.5765 44.4311 22.152 45.7045H50.7695C51.345 44.4311 51.6459 43.0507 51.6527 41.6533H21.2688Z" fill="#8BC000"/>
<path id="Vector_18" d="M29.922 45.7045H50.7694C51.3448 44.4311 51.6457 43.0507 51.6526 41.6533H24.4559C26.1956 43.1114 28.0209 44.4643 29.922 45.7045Z" fill="#A0CD00"/>
<path id="Vector_19" d="M26.3327 24.4368L27.4083 22.8234C27.7005 22.3851 28.0965 22.0257 28.561 21.7771C29.0254 21.5285 29.5441 21.3985 30.0709 21.3984C30.92 21.3985 31.7342 21.7359 32.3345 22.3363C33.0006 23.0023 33.5289 23.7931 33.8893 24.6634C34.2498 25.5337 34.4352 26.4664 34.4351 27.4084V27.8408C34.4351 29.0869 33.9401 30.282 33.059 31.1631C32.1778 32.0442 30.9828 32.5392 29.7367 32.5392C28.1844 32.5393 26.674 32.0357 25.4323 31.1041L24.4681 30.3809C24.1038 30.1074 23.8081 29.753 23.6044 29.3455C23.4007 28.9381 23.2945 28.4888 23.2943 28.0333C23.2945 27.5502 23.4138 27.0746 23.6417 26.6487C23.8696 26.2228 24.199 25.8596 24.6008 25.5914L26.3327 24.4368Z" fill="#FF4B50"/>
<path id="Vector_20" d="M34.4351 27.8394V27.407C34.4352 25.5043 33.6796 23.6796 32.3346 22.3339C32.1099 22.1173 31.8551 21.9344 31.578 21.791C31.1227 22.0377 30.7344 22.3915 30.4467 22.822L29.3711 24.4354L27.6392 25.59C27.2492 25.8507 26.9273 26.2011 26.7004 26.6118C26.4736 27.0225 26.3485 27.4815 26.3355 27.9505C26.3225 28.4195 26.422 28.8847 26.6258 29.3073C26.8295 29.73 27.1315 30.0976 27.5066 30.3795L28.4707 31.1027C29.2537 31.6821 30.1466 32.0956 31.0949 32.318C32.0588 32.0293 32.9042 31.4379 33.5058 30.6312C34.1074 29.8246 34.4332 28.8457 34.4351 27.8394Z" fill="#FF797B"/>
<path id="Vector_21" d="M23.2943 24.4369H25.3199C25.3199 23.3625 24.8931 22.3321 24.1334 21.5723C23.3736 20.8126 22.3432 20.3857 21.2688 20.3857H19.2432C19.2432 21.4602 19.67 22.4906 20.4297 23.2504C21.1895 24.0101 22.2199 24.4369 23.2943 24.4369Z" fill="#8BC000"/>
<path id="Vector_22" d="M37.9525 37.6019C38.2976 37.6017 38.632 37.4826 38.8995 37.2646L48.6223 29.3101C48.9374 29.0525 49.1913 28.728 49.3656 28.3601C49.5399 27.9923 49.6302 27.5903 49.63 27.1833C49.6299 26.8222 49.5587 26.4647 49.4203 26.1312C49.282 25.7977 49.0793 25.4947 48.8239 25.2396C48.5684 24.9844 48.2652 24.7821 47.9316 24.6441C47.5979 24.5061 47.2403 24.4353 46.8793 24.4355C46.4719 24.4363 46.0697 24.5275 45.7019 24.7027C45.3341 24.8778 45.0098 25.1325 44.7524 25.4483L36.7989 35.1712C36.5809 35.4379 36.4618 35.7717 36.4617 36.1161C36.4633 36.5106 36.621 36.8883 36.9004 37.1667C37.1798 37.4452 37.5581 37.6016 37.9525 37.6019Z" fill="#ED8213"/>
<path id="Vector_23" d="M47.8759 24.6235L49.627 19.3711L52.6654 20.3839L49.157 25.6474" fill="#8BC000"/>
<path id="Vector_24" d="M46.8792 24.4355C46.4718 24.4363 46.0697 24.5275 45.7019 24.7027C45.334 24.8778 45.0097 25.1325 44.7524 25.4483L36.8586 35.0962C36.9978 35.2476 37.1669 35.3685 37.3551 35.4511C37.5434 35.5338 37.7468 35.5764 37.9525 35.5763C38.2975 35.5762 38.632 35.457 38.8994 35.239L48.6223 27.2845C48.9819 26.9838 49.2581 26.5956 49.4244 26.1573C49.2201 25.6493 48.8686 25.214 48.4151 24.9072C47.9616 24.6004 47.4268 24.4362 46.8792 24.4355Z" fill="#F89B1C"/>
<path id="Vector_25" d="M61.7806 0.128906H1.0128C0.744186 0.128906 0.486577 0.235611 0.296641 0.425547C0.106705 0.615483 0 0.873092 0 1.1417V57.8583C0 58.1269 0.106705 58.3845 0.296641 58.5745C0.486577 58.7644 0.744186 58.8711 1.0128 58.8711H61.7806C62.0492 58.8711 62.3068 58.7644 62.4967 58.5745C62.6867 58.3845 62.7934 58.1269 62.7934 57.8583V1.1417C62.7934 0.873092 62.6867 0.615483 62.4967 0.425547C62.3068 0.235611 62.0492 0.128906 61.7806 0.128906ZM60.7678 2.1545V14.3081H2.02559V2.1545H60.7678ZM10.128 26.4616H2.02559V22.4104H10.128V26.4616ZM10.128 28.4872V32.5384H2.02559V28.4872H10.128ZM10.128 34.564V38.6152H2.02559V34.564H10.128ZM10.128 40.6408V44.6919H2.02559V40.6408H10.128ZM10.128 46.7175V50.7687H2.02559V46.7175H10.128ZM10.128 20.3848H2.02559V16.3336H10.128V20.3848ZM2.02559 52.7943H10.128V56.8455H2.02559V52.7943ZM12.1536 56.8455V16.3336H60.7678V56.8455H12.1536Z" fill="black"/>
<path id="Vector_26" d="M18.2304 10.2574H20.256C21.0619 10.2574 21.8347 9.93733 22.4045 9.36752C22.9743 8.79771 23.2944 8.02488 23.2944 7.21905C23.2944 6.41322 22.9743 5.6404 22.4045 5.07059C21.8347 4.50078 21.0619 4.18066 20.256 4.18066H17.2176C16.949 4.18066 16.6914 4.28737 16.5015 4.47731C16.3115 4.66724 16.2048 4.92485 16.2048 5.19346V12.283H18.2304V10.2574ZM18.2304 6.20626H20.256C20.5246 6.20626 20.7822 6.31296 20.9722 6.5029C21.1621 6.69283 21.2688 6.95044 21.2688 7.21905C21.2688 7.48766 21.1621 7.74527 20.9722 7.93521C20.7822 8.12514 20.5246 8.23185 20.256 8.23185H18.2304V6.20626ZM25.32 12.283H29.3712V10.2574H26.3328V4.18066H24.3072V11.2702C24.3072 11.5388 24.4139 11.7965 24.6038 11.9864C24.7938 12.1763 25.0514 12.283 25.32 12.283ZM32.4096 9.24465H35.448V12.283H37.4736V5.19346C37.4736 4.92485 37.3669 4.66724 37.1769 4.47731C36.987 4.28737 36.7294 4.18066 36.4608 4.18066H31.3968C31.1282 4.18066 30.8706 4.28737 30.6806 4.47731C30.4907 4.66724 30.384 4.92485 30.384 5.19346V12.283H32.4096V9.24465ZM35.448 6.20626V7.21905H32.4096V6.20626H35.448ZM40.5119 6.20626H40.7945L42.5902 11.5903C42.6573 11.7919 42.7862 11.9672 42.9585 12.0916C43.1308 12.2159 43.3379 12.2829 43.5503 12.283H45.5759C45.8445 12.283 46.1021 12.1763 46.2921 11.9864C46.482 11.7965 46.5887 11.5388 46.5887 11.2702V4.18066H44.5631V10.2574H44.2806L42.4849 4.87342C42.4177 4.67183 42.2889 4.49646 42.1166 4.37213C41.9443 4.24781 41.7372 4.18083 41.5247 4.18066H39.4992C39.2305 4.18066 38.9729 4.28737 38.783 4.47731C38.5931 4.66724 38.4864 4.92485 38.4864 5.19346V12.283H40.5119V6.20626ZM51.6527 40.6413H21.2688C21.0002 40.6413 20.7426 40.748 20.5527 40.938C20.3627 41.1279 20.256 41.3855 20.256 41.6541C20.256 48.9138 27.5259 54.8205 36.4608 54.8205C45.3957 54.8205 52.6655 48.9138 52.6655 41.6541C52.6655 41.3855 52.5588 41.1279 52.3689 40.938C52.1789 40.748 51.9213 40.6413 51.6527 40.6413ZM50.5812 42.6669C50.5003 43.3585 50.3392 44.0382 50.1011 44.6925H22.8204C22.5823 44.0382 22.4212 43.3585 22.3404 42.6669H50.5812ZM36.4608 52.7949C30.9623 52.7949 26.189 50.3216 23.8383 46.7181H49.0832C46.7325 50.3216 41.9592 52.7949 36.4608 52.7949ZM55.6512 21.0782C55.5706 20.8363 55.4017 20.6338 55.1783 20.511C54.9549 20.3883 54.6934 20.3543 54.446 20.4158L53.6358 20.6183C53.6881 20.4343 53.6857 20.2389 53.6287 20.0562C53.5781 19.9089 53.4942 19.7753 53.3835 19.6657C53.2729 19.5561 53.1384 19.4734 52.9906 19.4243L49.9522 18.4115C49.6976 18.3268 49.4197 18.3466 49.1797 18.4666C48.9397 18.5867 48.7571 18.797 48.672 19.0516L47.1964 23.4562C47.089 23.4471 46.9857 23.4238 46.8764 23.4238C46.319 23.4231 45.7685 23.5465 45.2649 23.7851C44.7612 24.0237 44.317 24.3715 43.9646 24.8032L36.0111 34.5261C35.7114 34.8934 35.5221 35.3381 35.4651 35.8087C35.408 36.2793 35.4857 36.7564 35.689 37.1847C35.8923 37.6129 36.2129 37.9747 36.6136 38.228C37.0143 38.4813 37.4786 38.6158 37.9526 38.6157C38.531 38.6158 39.0915 38.4154 39.5387 38.0486L49.2615 30.0951C49.6932 29.7429 50.0409 29.2989 50.2794 28.7953C50.5178 28.2918 50.641 27.7414 50.6399 27.1843C50.6356 26.9923 50.6163 26.801 50.5822 26.6121L55.9237 25.4261C56.0621 25.3953 56.1925 25.3357 56.3064 25.2513C56.4204 25.1668 56.5153 25.0594 56.5851 24.936C56.6549 24.8125 56.698 24.6758 56.7116 24.5346C56.7252 24.3935 56.709 24.251 56.664 24.1165L55.6512 21.0782ZM50.2682 20.6548L51.0866 20.9272L49.2635 23.6618L50.2682 20.6548ZM47.9783 28.5283L38.2554 36.4828C38.1832 36.5328 38.099 36.5628 38.0114 36.5698C37.9238 36.5769 37.8359 36.5607 37.7566 36.5228C37.6772 36.485 37.6093 36.427 37.5596 36.3545C37.5099 36.282 37.4802 36.1977 37.4736 36.1101C37.4738 35.9994 37.5121 35.8921 37.5819 35.8062L45.5344 26.0834C45.6879 25.8957 45.8791 25.7422 46.0955 25.6329C46.312 25.5236 46.549 25.4609 46.7911 25.4487C47.0333 25.4366 47.2754 25.4753 47.5017 25.5624C47.728 25.6495 47.9335 25.7831 48.1051 25.9545C48.2766 26.1259 48.4103 26.3313 48.4976 26.5575C48.5849 26.7838 48.6239 27.0258 48.6119 27.268C48.6 27.5102 48.5374 27.7472 48.4283 27.9637C48.3191 28.1803 48.1659 28.3716 47.9783 28.5252V28.5283ZM51.2081 24.3991L52.0761 23.0967L54.0267 22.6085L54.3883 23.6922L51.2081 24.3991ZM22.2816 28.033C22.2831 28.6457 22.4265 29.2497 22.7007 29.7976C22.9748 30.3455 23.3722 30.8224 23.8616 31.1909L24.8247 31.9141C26.2433 32.9741 27.9659 33.5484 29.7368 33.5518C31.251 33.5501 32.7027 32.9479 33.7734 31.8772C34.8441 30.8065 35.4464 29.3548 35.448 27.8406V27.4081C35.4508 26.3326 35.2404 25.2672 34.8289 24.2736C34.4174 23.2799 33.813 22.3776 33.0507 21.619C32.6098 21.179 32.0768 20.8422 31.4901 20.6328C30.9034 20.4235 30.2776 20.3468 29.6577 20.4083C29.0378 20.4698 28.4393 20.6679 27.9052 20.9885C27.371 21.3091 26.9146 21.744 26.5688 22.2621L26.3784 22.5487C25.6898 21.2594 25.3264 19.8215 25.32 18.3598H23.2944C23.294 18.8612 23.3279 19.362 23.3957 19.8588C22.731 19.5425 22.0049 19.3766 21.2688 19.3726H19.2432C18.9746 19.3726 18.717 19.4793 18.5271 19.6692C18.3371 19.8592 18.2304 20.1168 18.2304 20.3854C18.2304 21.7211 18.7581 23.0028 19.6986 23.9512C20.6391 24.8997 21.9162 25.4382 23.2519 25.4494C22.6274 26.1654 22.2829 27.083 22.2816 28.033ZM28.251 23.3853C28.4306 23.116 28.6677 22.8899 28.9452 22.7233C29.2227 22.5567 29.5337 22.4537 29.8558 22.4217C30.1778 22.3897 30.503 22.4296 30.8078 22.5384C31.1127 22.6473 31.3896 22.8224 31.6186 23.0511C32.1922 23.6221 32.647 24.3012 32.9566 25.0491C33.2662 25.7969 33.4245 26.5987 33.4224 27.4081V27.8406C33.4213 28.8177 33.0327 29.7546 32.3417 30.4455C31.6508 31.1364 30.714 31.5251 29.7368 31.5262C28.4041 31.5236 27.1077 31.0913 26.0401 30.2936L25.0769 29.5705C24.8308 29.3859 24.6326 29.145 24.4988 28.8679C24.365 28.5909 24.2996 28.2859 24.3081 27.9784C24.3165 27.6708 24.3985 27.3698 24.5473 27.1006C24.696 26.8313 24.9072 26.6016 25.163 26.4308L26.8949 25.2762C27.006 25.2021 27.1013 25.1067 27.1754 24.9957L28.251 23.3853ZM20.4292 21.3982H21.2688C21.897 21.399 22.5096 21.5941 23.0226 21.9567C23.5356 22.3193 23.9238 22.8318 24.134 23.4238H23.2944C22.6662 23.423 22.0536 23.2279 21.5406 22.8653C21.0277 22.5026 20.6394 21.9902 20.4292 21.3982Z" fill="black"/>
<path id="Vector_27" d="M27.3455 35.5771H25.3199V37.6027H27.3455V35.5771Z" fill="black"/>
<path id="Vector_28" d="M41.5246 22.4111H39.499V24.4367H41.5246V22.4111Z" fill="black"/>
<path id="Vector_29" d="M49.6272 36.5898H47.6016V38.6154H49.6272V36.5898Z" fill="black"/>
</g>
</svg>
