<svg width="49" height="61" viewBox="0 0 49 61" fill="none" xmlns="http://www.w3.org/2000/svg">
<path id="Vector" d="M46.8307 16.4375C47.1285 16.75 47.4262 17.1518 47.724 17.6429H32.6667V1.83929C33.1345 2.15179 33.5174 2.46429 33.8151 2.77679L46.8307 16.4375ZM31.6458 21.9286H49V57.2857C49 58.1786 48.7023 58.9375 48.1068 59.5625C47.5113 60.1875 46.7882 60.5 45.9375 60.5H3.0625C2.21181 60.5 1.48872 60.1875 0.893229 59.5625C0.297743 58.9375 0 58.1786 0 57.2857V3.71429C0 2.82143 0.297743 2.0625 0.893229 1.4375C1.48872 0.8125 2.21181 0.5 3.0625 0.5H28.5833V18.7143C28.5833 19.6071 28.8811 20.3661 29.4766 20.9911C30.0721 21.6161 30.7951 21.9286 31.6458 21.9286ZM36.75 46.5714V44.4286C36.75 44.1161 36.6543 43.8594 36.4629 43.6585C36.2715 43.4576 36.0269 43.3571 35.7292 43.3571H13.2708C12.9731 43.3571 12.7285 43.4576 12.5371 43.6585C12.3457 43.8594 12.25 44.1161 12.25 44.4286V46.5714C12.25 46.8839 12.3457 47.1406 12.5371 47.3415C12.7285 47.5424 12.9731 47.6429 13.2708 47.6429H35.7292C36.0269 47.6429 36.2715 47.5424 36.4629 47.3415C36.6543 47.1406 36.75 46.8839 36.75 46.5714ZM36.75 38V35.8571C36.75 35.5446 36.6543 35.2879 36.4629 35.0871C36.2715 34.8862 36.0269 34.7857 35.7292 34.7857H13.2708C12.9731 34.7857 12.7285 34.8862 12.5371 35.0871C12.3457 35.2879 12.25 35.5446 12.25 35.8571V38C12.25 38.3125 12.3457 38.5692 12.5371 38.7701C12.7285 38.971 12.9731 39.0714 13.2708 39.0714H35.7292C36.0269 39.0714 36.2715 38.971 36.4629 38.7701C36.6543 38.5692 36.75 38.3125 36.75 38ZM36.75 29.4286V27.2857C36.75 26.9732 36.6543 26.7165 36.4629 26.5156C36.2715 26.3147 36.0269 26.2143 35.7292 26.2143H13.2708C12.9731 26.2143 12.7285 26.3147 12.5371 26.5156C12.3457 26.7165 12.25 26.9732 12.25 27.2857V29.4286C12.25 29.7411 12.3457 29.9978 12.5371 30.1987C12.7285 30.3996 12.9731 30.5 13.2708 30.5H35.7292C36.0269 30.5 36.2715 30.3996 36.4629 30.1987C36.6543 29.9978 36.75 29.7411 36.75 29.4286Z" fill="#1FAB89"/>
</svg>
