<svg width="7" height="9" viewBox="0 0 7 9" fill="none" xmlns="http://www.w3.org/2000/svg">
<g id="Group 48095906">
<path id="Vector" d="M2 0.666341V1.66634H5V0.666341C5 0.577936 4.96488 0.493151 4.90237 0.430639C4.83986 0.368127 4.75507 0.333008 4.66667 0.333008H2.33333C2.24493 0.333008 2.16014 0.368127 2.09763 0.430639C2.03512 0.493151 2 0.577936 2 0.666341Z" fill="#CC0000"/>
<path id="Vector_2" d="M0 1.33333V1.66667H7V1.33333C7 1.24493 6.96488 1.16014 6.90237 1.09763C6.83986 1.03512 6.75507 1 6.66667 1H0.333333C0.244928 1 0.160143 1.03512 0.0976311 1.09763C0.035119 1.16014 0 1.24493 0 1.33333ZM0.666667 2.33333L1.27067 8.06967C1.28788 8.23351 1.36516 8.38518 1.48758 8.49542C1.61001 8.60566 1.76892 8.66666 1.93367 8.66667H5.06667C5.23141 8.66666 5.39032 8.60566 5.51275 8.49542C5.63518 8.38518 5.71245 8.23351 5.72967 8.06967L6.33333 2.33333H0.666667ZM2.19233 7.999C2.14868 8.00241 2.10479 7.99719 2.06316 7.98361C2.02153 7.97004 1.98299 7.9484 1.94973 7.91991C1.91648 7.89143 1.88917 7.85667 1.86937 7.81761C1.84957 7.77856 1.83766 7.73599 1.83433 7.69233L1.501 3.359C1.4942 3.27086 1.52268 3.18363 1.58019 3.11649C1.6377 3.04935 1.71953 3.00781 1.80767 3.001C1.85141 2.99713 1.89548 3.00204 1.9373 3.01544C1.97912 3.02883 2.01784 3.05045 2.05118 3.07902C2.08453 3.10758 2.11184 3.14252 2.1315 3.18179C2.15116 3.22105 2.16277 3.26385 2.16567 3.30767L2.499 7.641C2.5058 7.72914 2.47732 7.81637 2.41981 7.88351C2.3623 7.95065 2.28047 7.99219 2.19233 7.999ZM3.83333 7.66667C3.83333 7.75507 3.79821 7.83986 3.7357 7.90237C3.67319 7.96488 3.58841 8 3.5 8C3.41159 8 3.32681 7.96488 3.2643 7.90237C3.20179 7.83986 3.16667 7.75507 3.16667 7.66667V3.33333C3.16667 3.24493 3.20179 3.16014 3.2643 3.09763C3.32681 3.03512 3.41159 3 3.5 3C3.58841 3 3.67319 3.03512 3.7357 3.09763C3.79821 3.16014 3.83333 3.24493 3.83333 3.33333V7.66667ZM5.16567 7.69233C5.1623 7.73598 5.15036 7.77853 5.13055 7.81756C5.11073 7.85659 5.08342 7.89133 5.05018 7.91981C5.01694 7.94829 4.97841 7.96994 4.9368 7.98352C4.89519 7.99711 4.85131 8.00237 4.80767 7.999C4.76402 7.99563 4.72147 7.9837 4.68244 7.96388C4.64341 7.94406 4.60867 7.91676 4.58019 7.88351C4.55171 7.85027 4.53006 7.81174 4.51648 7.77013C4.50289 7.72852 4.49763 7.68464 4.501 7.641L4.83433 3.30767C4.83705 3.26379 4.84855 3.2209 4.86815 3.18155C4.88775 3.14219 4.91505 3.10718 4.94844 3.07858C4.98183 3.04998 5.02062 3.02837 5.06252 3.01505C5.10441 3.00172 5.14856 2.99694 5.19233 3.001C5.28047 3.00781 5.3623 3.04935 5.41981 3.11649C5.47732 3.18363 5.5058 3.27086 5.499 3.359L5.16567 7.69233Z" fill="#CC0000"/>
</g>
</svg>
