<svg width="21" height="25" viewBox="0 0 21 25" fill="none" xmlns="http://www.w3.org/2000/svg">
<g id="Group 48095906">
<path id="Vector" d="M6 1V4H15V1C15 0.734784 14.8946 0.48043 14.7071 0.292893C14.5196 0.105357 14.2652 0 14 0H7C6.73478 0 6.48043 0.105357 6.29289 0.292893C6.10536 0.48043 6 0.734784 6 1Z" fill="#CC0000"/>
<path id="Vector_2" d="M0 3V4H21V3C21 2.73478 20.8946 2.48043 20.7071 2.29289C20.5196 2.10536 20.2652 2 20 2H1C0.734784 2 0.48043 2.10536 0.292893 2.29289C0.105357 2.48043 0 2.73478 0 3ZM2 6L3.812 23.209C3.86365 23.7005 4.09547 24.1555 4.46275 24.4863C4.83003 24.817 5.30676 25 5.801 25H15.2C15.6942 25 16.171 24.817 16.5383 24.4863C16.9055 24.1555 17.1374 23.7005 17.189 23.209L19 6H2ZM6.577 22.997C6.44605 23.0072 6.31436 22.9916 6.18947 22.9508C6.06459 22.9101 5.94896 22.8452 5.8492 22.7597C5.74944 22.6743 5.66752 22.57 5.60811 22.4528C5.54871 22.3357 5.51299 22.208 5.503 22.077L4.503 9.077C4.48259 8.81258 4.56805 8.55088 4.74058 8.34947C4.91311 8.14806 5.15858 8.02343 5.423 8.003C5.55422 7.99139 5.68644 8.00612 5.81189 8.04631C5.93735 8.0865 6.0535 8.15135 6.15355 8.23705C6.2536 8.32275 6.33551 8.42758 6.39449 8.54537C6.45347 8.66316 6.48832 8.79155 6.497 8.923L7.497 21.923C7.51741 22.1874 7.43195 22.4491 7.25942 22.6505C7.08689 22.8519 6.84142 22.9766 6.577 22.997ZM11.5 22C11.5 22.2652 11.3946 22.5196 11.2071 22.7071C11.0196 22.8946 10.7652 23 10.5 23C10.2348 23 9.98043 22.8946 9.79289 22.7071C9.60536 22.5196 9.5 22.2652 9.5 22V9C9.5 8.73478 9.60536 8.48043 9.79289 8.29289C9.98043 8.10536 10.2348 8 10.5 8C10.7652 8 11.0196 8.10536 11.2071 8.29289C11.3946 8.48043 11.5 8.73478 11.5 9V22ZM15.497 22.077C15.4869 22.2079 15.4511 22.3356 15.3916 22.4527C15.3322 22.5698 15.2503 22.674 15.1505 22.7594C15.0508 22.8449 14.9352 22.9098 14.8104 22.9506C14.6856 22.9913 14.5539 23.0071 14.423 22.997C14.2921 22.9869 14.1644 22.9511 14.0473 22.8916C13.9302 22.8322 13.826 22.7503 13.7406 22.6505C13.6551 22.5508 13.5902 22.4352 13.5494 22.3104C13.5087 22.1856 13.4929 22.0539 13.503 21.923L14.503 8.923C14.5111 8.79136 14.5456 8.6627 14.6044 8.54464C14.6632 8.42658 14.7452 8.32154 14.8453 8.23573C14.9455 8.14993 15.0619 8.08512 15.1875 8.04514C15.3132 8.00516 15.4457 7.99083 15.577 8.003C15.8414 8.02343 16.0869 8.14806 16.2594 8.34947C16.432 8.55088 16.5174 8.81258 16.497 9.077L15.497 22.077Z" fill="#CC0000"/>
</g>
</svg>
