<svg width="69" height="68" viewBox="0 0 69 68" fill="none" xmlns="http://www.w3.org/2000/svg">
<g id="Group 48095924">
<rect id="Rectangle 3030" x="0.5" width="68" height="68" rx="5" fill="#1FAB89" fill-opacity="0.08"/>
<g id="Group 48095923">
<path id="Vector" d="M60.7113 35.5335C60.7091 34.3204 60.3667 33.1317 59.7222 32.1002C59.0778 31.0687 58.1567 30.2349 57.0618 29.692C55.967 29.1491 54.7413 28.9184 53.5218 29.0256C52.3023 29.1329 51.1368 29.5738 50.1555 30.2993C49.1742 31.0248 48.4157 32.0062 47.9646 33.134C47.5136 34.2618 47.3877 35.4917 47.6011 36.6863C47.8145 37.8809 48.3588 38.9932 49.1731 39.8991C49.9875 40.805 51.0399 41.4688 52.2129 41.8164C52.204 41.9099 52.204 42.0041 52.2129 42.0977V47.7241C52.2129 48.2215 52.4123 48.6986 52.7673 49.0503C53.1223 49.402 53.6037 49.5996 54.1057 49.5996C54.6077 49.5996 55.0891 49.402 55.444 49.0503C55.799 48.6986 55.9984 48.2215 55.9984 47.7241V42.0977C56.007 42.0041 56.007 41.9099 55.9984 41.8164C57.3592 41.4069 58.5514 40.5755 59.3998 39.4445C60.2482 38.3136 60.7079 36.9427 60.7113 35.5335ZM54.1057 38.3467C53.3527 38.3467 52.6305 38.0503 52.0981 37.5228C51.5657 36.9952 51.2665 36.2796 51.2665 35.5335C51.2665 34.7874 51.5657 34.0719 52.0981 33.5443C52.6305 33.0167 53.3527 32.7203 54.1057 32.7203C54.8586 32.7203 55.5808 33.0167 56.1132 33.5443C56.6457 34.0719 56.9448 34.7874 56.9448 35.5335C56.9448 36.2796 56.6457 36.9952 56.1132 37.5228C55.5808 38.0503 54.8586 38.3467 54.1057 38.3467Z" fill="#00BEBE"/>
<path id="Vector_2" d="M13.1467 25.1169V30.7434C13.1467 31.2408 13.3461 31.7178 13.7011 32.0695C14.056 32.4212 14.5375 32.6188 15.0394 32.6188C15.5414 32.6188 16.0229 32.4212 16.3778 32.0695C16.7328 31.7178 16.9322 31.2408 16.9322 30.7434V25.1169C16.9408 25.0234 16.9408 24.9292 16.9322 24.8356C18.4623 24.3994 19.7819 23.4303 20.6481 22.1066C21.5144 20.7829 21.869 19.1937 21.6467 17.6315C21.4244 16.0694 20.6401 14.6393 19.4383 13.6046C18.2364 12.5698 16.6978 12 15.1057 12C13.5135 12 11.975 12.5698 10.7731 13.6046C9.57125 14.6393 8.78701 16.0694 8.56472 17.6315C8.34242 19.1937 8.69703 20.7829 9.56327 22.1066C10.4295 23.4303 11.7491 24.3994 13.2792 24.8356C13.2253 24.9246 13.1809 25.0189 13.1467 25.1169ZM12.2003 18.5528C12.2003 17.8067 12.4995 17.0911 13.0319 16.5635C13.5643 16.036 14.2865 15.7396 15.0394 15.7396C15.7924 15.7396 16.5146 16.036 17.047 16.5635C17.5794 17.0911 17.8786 17.8067 17.8786 18.5528C17.8786 19.3014 17.5784 20.0193 17.0442 20.5487C16.51 21.078 15.7855 21.3754 15.03 21.3754C14.2745 21.3754 13.5499 21.078 13.0157 20.5487C12.4815 20.0193 12.1814 19.3014 12.1814 18.5528H12.2003Z" fill="#0085BE"/>
<path id="Vector_3" d="M52.2476 52.8793H40.8912C39.8872 52.8793 38.9243 52.4841 38.2144 51.7806C37.5045 51.0772 37.1057 50.1231 37.1057 49.1283V43.5019C37.1057 41.5123 36.308 39.6041 34.8882 38.1973C33.4683 36.7904 31.5426 36 29.5347 36H14.3927C13.8908 36 13.4093 36.1976 13.0544 36.5493C12.6994 36.901 12.5 37.3781 12.5 37.8755C12.5 38.3729 12.6994 38.8499 13.0544 39.2016C13.4093 39.5534 13.8908 39.7509 14.3927 39.7509H29.5347C30.5387 39.7509 31.5015 40.1461 32.2114 40.8496C32.9214 41.553 33.3202 42.5071 33.3202 43.5019V49.1283C33.3202 51.1179 34.1178 53.0261 35.5377 54.433C36.9575 55.8398 38.8832 56.6302 40.8912 56.6302H52.2476C52.7496 56.6302 53.231 56.4326 53.586 56.0809C53.941 55.7292 54.1404 55.2521 54.1404 54.7547C54.1404 54.2573 53.941 53.7803 53.586 53.4286C53.231 53.0769 52.7496 52.8793 52.2476 52.8793Z" fill="#00BE85"/>
</g>
</g>
</svg>
