<svg width="185" height="196" viewBox="0 0 185 196" fill="none" xmlns="http://www.w3.org/2000/svg">
<g id="Group 2">
<g id="Ellipse 1" filter="url(#filter0_dd_5_26)">
<circle cx="94.5" cy="95.5" r="70.5" fill="white"/>
<circle cx="94.5" cy="95.5" r="70.5" stroke="#F5DEA3" stroke-width="5"/>
</g>
<g id="Group 1">
<path id="Vector" d="M99.1713 58.3247C99.9466 56.0653 106.428 55.7791 111.327 57.1592C111.819 57.2973 123.125 60.6864 125.981 71.4824C128.954 82.7129 120.772 94.3592 117.154 93.8038C113.152 93.1835 116.984 77.9573 106.164 66.3263C102.519 62.3988 98.4999 60.2757 99.1713 58.3247ZM83.0965 58.3247C82.3212 56.0653 75.8395 55.7791 70.9407 57.1592C70.4483 57.2973 59.1428 60.6864 56.287 71.4824C53.3136 82.7129 61.4959 94.3592 65.1133 93.8038C69.1158 93.1835 65.2837 77.9573 76.1036 66.3263C79.7483 62.3988 83.7678 60.2757 83.0965 58.3247ZM108.764 119.582C110.165 119.088 111.041 122.37 114.413 123.564C119.865 125.497 126.148 119.95 126.673 119.475C128.594 117.72 130.085 115.546 131.03 113.121C131.119 112.892 131.282 112.699 131.493 112.573C131.704 112.447 131.951 112.395 132.195 112.424C132.439 112.454 132.666 112.564 132.841 112.737C133.015 112.91 133.127 113.136 133.159 113.38C133.613 116.779 133.478 121.567 130.503 125.732C125.383 132.914 114.096 135.042 110.342 131.38C109.255 130.321 108.771 128.748 108.388 127.495C107.437 124.404 107.331 120.087 108.764 119.582Z" fill="#F5DEA3"/>
<path id="Vector_2" d="M115.159 118.32C115.158 123.659 113.037 128.779 109.262 132.554C105.486 136.329 100.366 138.451 95.0273 138.452H87.2404C83.5813 138.452 79.9915 137.454 76.8567 135.567C73.7219 133.68 71.1607 130.974 69.4486 127.74C67.7364 124.506 66.9379 120.867 67.1389 117.214C67.34 113.56 68.533 110.03 70.5897 107.004L76.0644 98.9479L84.9998 85.8004H97.268L108.33 102.073L111.678 106.999C113.947 110.338 115.16 114.282 115.159 118.32Z" fill="#F5DEA3"/>
<path id="Vector_3" d="M91.1339 114.977C87.6122 114.977 84.2347 116.376 81.7445 118.866C79.2542 121.356 77.8552 124.734 77.8552 128.255V136.133C80.7474 137.66 83.9696 138.456 87.2404 138.452H95.0273C98.2982 138.456 101.52 137.66 104.413 136.133V128.255C104.413 124.734 103.014 121.356 100.523 118.866C98.0331 116.376 94.6556 114.977 91.1339 114.977Z" fill="#FEF1DA"/>
<path id="Vector_4" d="M108.33 102.073C104.351 105.556 99.2514 107.645 93.6898 107.645C86.6151 107.645 80.2867 104.264 76.0644 98.9547L84.9998 85.8004H97.268L108.33 102.073Z" fill="#F5DEA3"/>
<path id="Vector_5" d="M91.1339 102.533C103.847 102.533 114.154 91.6162 114.154 78.1498C114.154 64.6834 103.847 53.7667 91.1339 53.7667C78.4203 53.7667 68.1139 64.6834 68.1139 78.1498C68.1139 91.6162 78.4203 102.533 91.1339 102.533Z" fill="#F5DEA3"/>
<path id="Vector_6" d="M97.2799 89.6343L92.2551 94.6591C92.0634 94.8506 91.8035 94.9581 91.5326 94.9581C91.2617 94.9581 91.0018 94.8506 90.8101 94.6591L85.7853 89.6343C85.6425 89.4913 85.5453 89.3092 85.5059 89.111C85.4665 88.9128 85.4867 88.7074 85.5641 88.5207C85.6414 88.334 85.7723 88.1744 85.9402 88.062C86.1082 87.9497 86.3057 87.8896 86.5077 87.8894H96.5609C96.7627 87.8903 96.9597 87.9508 97.1271 88.0634C97.2946 88.176 97.4249 88.3357 97.5018 88.5222C97.5787 88.7088 97.5986 88.9139 97.5592 89.1118C97.5197 89.3097 97.4225 89.4915 97.2799 89.6343Z" fill="#444444"/>
<path id="Vector_7" d="M99.2377 74.6687C99.5767 74.6687 99.9017 74.5341 100.141 74.2944C100.381 74.0548 100.516 73.7297 100.516 73.3908V70.1431C100.516 69.8042 100.381 69.4791 100.141 69.2395C99.9017 68.9998 99.5767 68.8652 99.2377 68.8652C98.8988 68.8652 98.5737 68.9998 98.3341 69.2395C98.0944 69.4791 97.9598 69.8042 97.9598 70.1431V73.3908C97.9598 73.7297 98.0944 74.0548 98.3341 74.2944C98.5737 74.5341 98.8988 74.6687 99.2377 74.6687ZM134.425 113.211C134.356 112.688 134.114 112.202 133.739 111.831C133.363 111.459 132.875 111.223 132.35 111.159C131.826 111.095 131.295 111.206 130.841 111.476C130.387 111.746 130.036 112.159 129.842 112.651C128.971 114.894 127.593 116.906 125.815 118.528C125.585 118.736 120.533 123.247 115.999 122.637C116.576 119.831 116.584 116.938 116.023 114.128C115.463 111.318 114.344 108.65 112.734 106.28L106.882 97.6682C109.791 95.0347 112.061 91.7709 113.517 88.1263C114.065 91.9533 114.57 94.6779 116.96 95.0493C117.115 95.0725 117.271 95.0839 117.427 95.0834C119.18 95.0834 120.886 93.618 122.05 92.3247C124.095 90.0568 125.85 86.7887 126.869 83.3587C128.109 79.1858 128.232 74.9618 127.209 71.1433C124.142 59.5566 112.174 56.0602 111.666 55.9171C108.538 55.0361 104.867 54.7942 102.145 55.2713C98.7613 53.4374 94.9737 52.4769 91.1254 52.4769C87.277 52.4769 83.4894 53.4374 80.1061 55.2713C77.3798 54.7942 73.713 55.0361 70.5846 55.9171C70.0734 56.0602 58.1102 59.5515 55.0414 71.1433C54.0378 74.9805 54.1588 79.1977 55.3992 83.3706C56.4216 86.8006 58.1749 90.0688 60.2179 92.3367C61.3817 93.6299 63.0873 95.097 64.8407 95.0953C64.9969 95.0959 65.153 95.0845 65.3075 95.0612C67.693 94.6898 68.2042 91.9652 68.7512 88.1382C70.2069 91.7829 72.4764 95.0466 75.3862 97.6802L69.5333 106.292C67.8458 108.774 66.6994 111.584 66.1685 114.539C65.6376 117.493 65.7339 120.526 66.4514 123.441C67.1689 126.356 68.4914 129.087 70.333 131.458C72.1747 133.828 74.4943 135.785 77.1413 137.201C77.2152 137.249 77.2933 137.29 77.3747 137.324C80.4209 138.91 83.8059 139.736 87.2404 139.73H95.0273C98.4624 139.733 101.847 138.906 104.893 137.317C104.975 137.284 105.053 137.243 105.126 137.194C107.119 136.121 108.93 134.741 110.494 133.105C111.872 133.965 113.706 134.417 115.844 134.417C116.32 134.417 116.81 134.395 117.315 134.35C122.893 133.853 128.479 130.76 131.542 126.471C134.783 121.939 134.899 116.759 134.425 113.211ZM110.981 58.3895C111.092 58.4201 122.048 61.6133 124.747 71.8095C126.805 79.5828 123.125 87.3152 120.147 90.6276C118.783 92.1339 117.73 92.594 117.349 92.5343C116.703 92.4355 116.253 89.2611 115.955 87.1619C115.742 85.6573 115.5 83.9585 115.135 82.1319C115.331 80.8135 115.429 79.4826 115.428 78.1498C115.428 69.7563 111.593 62.2914 105.675 57.6056C107.469 57.6514 109.251 57.9146 110.981 58.3895ZM67.1307 82.1489C67.1188 82.1932 67.1069 82.2358 67.0984 82.2818C66.7576 84.0539 66.5156 85.705 66.3095 87.1619C66.0113 89.2611 65.5614 92.4355 64.9156 92.5343C64.5374 92.5957 63.4741 92.1356 62.1178 90.6276C59.1428 87.322 55.4623 79.5828 57.5172 71.8095C60.2162 61.6133 71.1724 58.4201 71.2832 58.3895C73.0134 57.9128 74.7951 57.6479 76.5892 57.6005C70.6715 62.2863 66.836 69.7512 66.836 78.1447C66.8352 79.4849 66.9337 80.8233 67.1307 82.1489ZM69.3918 78.1498C69.3918 65.4096 79.1451 55.0447 91.1339 55.0447C103.123 55.0447 112.876 65.4096 112.876 78.1498C112.876 90.89 103.123 101.253 91.1339 101.253C79.1451 101.253 69.3918 90.89 69.3918 78.1498ZM103.129 135.339C100.6 136.549 97.8313 137.176 95.0273 137.174H87.2404C84.4347 137.176 81.6642 136.549 79.1332 135.339V128.255C79.1332 125.073 80.3975 122.02 82.6481 119.77C84.8987 117.519 87.9511 116.255 91.1339 116.255C94.3167 116.255 97.3691 117.519 99.6197 119.77C101.87 122.02 103.135 125.073 103.135 128.255L103.129 135.339ZM105.685 133.86V128.255C105.685 124.395 104.152 120.692 101.422 117.962C98.6919 115.232 94.9894 113.699 91.1288 113.699C87.2681 113.699 83.5656 115.232 80.8357 117.962C78.1058 120.692 76.5722 124.395 76.5722 128.255V133.86C72.4601 131.041 69.6324 126.708 68.7082 121.809C67.7839 116.91 68.8385 111.844 71.641 107.721L77.373 99.2887C81.3582 102.225 86.1785 103.809 91.1288 103.809C96.079 103.809 100.899 102.225 104.885 99.2887L110.617 107.721C113.419 111.844 114.474 116.91 113.549 121.809C112.625 126.708 109.797 131.041 105.685 133.86ZM129.472 124.989C126.252 129.494 120.792 131.477 117.097 131.805C115.096 131.975 113.379 131.735 112.182 131.123C113.544 129.302 114.607 127.275 115.33 125.118C117.637 125.526 120.21 125.001 122.997 123.544C124.625 122.687 126.145 121.639 127.525 120.422C129.43 118.686 130.941 116.561 131.955 114.191C132.28 117.238 132.028 121.392 129.472 124.989ZM84.8822 90.5339L89.9053 95.5588C90.3369 95.9897 90.9219 96.2317 91.5317 96.2317C92.1416 96.2317 92.7265 95.9897 93.1581 95.5588L98.183 90.5339C98.5028 90.2122 98.7202 89.803 98.808 89.358C98.8957 88.9129 98.8497 88.4518 98.6759 88.0328C98.5021 87.6138 98.2083 87.2556 97.8313 87.0033C97.4543 86.751 97.0111 86.6158 96.5575 86.6149H86.5043C86.0507 86.6158 85.6075 86.751 85.2305 87.0033C84.8535 87.2556 84.5596 87.6138 84.3858 88.0328C84.212 88.4518 84.1661 88.9129 84.2538 89.358C84.3415 89.803 84.559 90.2122 84.8788 90.5339H84.8822ZM95.9389 89.1708L91.5326 93.5703L87.1246 89.164L95.9389 89.1708ZM83.03 74.6755C83.369 74.6755 83.694 74.5409 83.9337 74.3012C84.1733 74.0616 84.308 73.7365 84.308 73.3976V70.1431C84.308 69.8042 84.1733 69.4791 83.9337 69.2395C83.694 68.9998 83.369 68.8652 83.03 68.8652C82.6911 68.8652 82.3661 68.9998 82.1264 69.2395C81.8867 69.4791 81.7521 69.8042 81.7521 70.1431V73.3908C81.7521 73.7297 81.8867 74.0548 82.1264 74.2944C82.3661 74.5341 82.6911 74.6687 83.03 74.6687V74.6755Z" fill="black"/>
</g>
</g>
<defs>
<filter id="filter0_dd_5_26" x="0.5" y="0.5" width="184" height="195" filterUnits="userSpaceOnUse" color-interpolation-filters="sRGB">
<feFlood flood-opacity="0" result="BackgroundImageFix"/>
<feColorMatrix in="SourceAlpha" type="matrix" values="0 0 0 0 0 0 0 0 0 0 0 0 0 0 0 0 0 0 127 0" result="hardAlpha"/>
<feOffset dx="2" dy="12"/>
<feGaussianBlur stdDeviation="7.5"/>
<feComposite in2="hardAlpha" operator="out"/>
<feColorMatrix type="matrix" values="0 0 0 0 0 0 0 0 0 0 0 0 0 0 0 0 0 0 0.1 0"/>
<feBlend mode="normal" in2="BackgroundImageFix" result="effect1_dropShadow_5_26"/>
<feColorMatrix in="SourceAlpha" type="matrix" values="0 0 0 0 0 0 0 0 0 0 0 0 0 0 0 0 0 0 127 0" result="hardAlpha"/>
<feOffset dx="-9" dy="-10"/>
<feGaussianBlur stdDeviation="6"/>
<feComposite in2="hardAlpha" operator="out"/>
<feColorMatrix type="matrix" values="0 0 0 0 0 0 0 0 0 0 0 0 0 0 0 0 0 0 0.1 0"/>
<feBlend mode="normal" in2="effect1_dropShadow_5_26" result="effect2_dropShadow_5_26"/>
<feBlend mode="normal" in="SourceGraphic" in2="effect2_dropShadow_5_26" result="shape"/>
</filter>
</defs>
</svg>
