<svg width="52" height="52" viewBox="0 0 52 52" fill="none" xmlns="http://www.w3.org/2000/svg">
<g id="Group 48095880">
<path id="Vector" d="M25.918 1.08594C12.0653 1.08594 0.83606 5.20356 0.83606 10.2827C0.83606 12.3285 2.66035 14.218 5.74209 15.7455C7.86988 13.2983 12.0318 11.3328 17.2556 10.2827C19.9109 9.74841 22.8355 9.44659 25.918 9.44659C29.0006 9.44659 31.9252 9.74841 34.5805 10.2827C39.8042 11.3336 43.9662 13.2983 46.094 15.7455C49.1757 14.218 51 12.3285 51 10.2827C51 5.20356 39.7708 1.08594 25.918 1.08594Z" fill="#E83B3B"/>
<path id="Vector_2" d="M5.74209 15.7456C2.66035 14.2181 0.83606 12.3286 0.83606 10.2827L0.866158 21.1516C1.25911 24.087 5.77888 26.6403 12.4331 28.1294C11.4716 27.2156 10.8688 25.9272 10.8688 24.4958C10.8688 21.7251 13.1145 19.4794 15.8852 19.4794H19.2295V19.1358C14.5726 18.6885 9.96004 17.7237 5.74209 15.7456Z" fill="#E83B3B"/>
<path id="Vector_3" d="M15.8852 29.5122H19.2295V19.4794H15.8852C13.1145 19.4794 10.8688 21.7251 10.8688 24.4958C10.8688 27.2666 13.1145 29.5122 15.8852 29.5122ZM46.094 15.7456C41.8752 17.7237 37.2634 18.6977 32.6065 19.1458C30.3851 19.359 28.1428 19.4535 25.918 19.4794H22.5738V22.8237H25.918C26.8419 22.8237 27.5901 23.572 27.5901 24.4958C27.5901 25.4197 26.8419 26.168 25.918 26.168H22.5738V29.5122H25.918C28.167 29.5114 30.4094 29.406 32.6065 29.1937C42.8417 28.2046 50.4532 25.0033 50.9699 21.1516L51 10.2827C51 12.3286 49.1757 14.2181 46.094 15.7456Z" fill="#E83B3B"/>
<path id="Vector_4" d="M25.918 19.4795C28.1328 19.4553 30.3742 19.36 32.6065 19.1459V18.6986C32.6065 17.2832 31.4586 16.1353 30.0432 16.1353H21.0471C20.0438 16.1353 19.2295 16.9487 19.2295 17.9529V31.0381C19.2295 32.0422 20.0438 32.8557 21.0471 32.8557H30.0432C31.4586 32.8557 32.6065 31.7078 32.6065 30.2924V29.1929C30.4762 29.3986 28.2356 29.5115 25.918 29.5115H22.5738V26.1672H25.918C26.8419 26.1672 27.5901 25.4189 27.5901 24.4951C27.5901 23.5712 26.8419 22.8229 25.918 22.8229H22.5738V19.4787L25.918 19.4795Z" fill="#FBFF86"/>
<path id="Vector_5" d="M25.918 50.4139C30.0737 50.4139 33.4426 47.0451 33.4426 42.8893C33.4426 38.7336 30.0737 35.3647 25.918 35.3647C21.7623 35.3647 18.3934 38.7336 18.3934 42.8893C18.3934 47.0451 21.7623 50.4139 25.918 50.4139Z" fill="#FBFF86"/>
<path id="Vector_6" d="M42.2213 23.4926C42.9139 23.4926 43.4754 22.9311 43.4754 22.2385C43.4754 21.5459 42.9139 20.9844 42.2213 20.9844C41.5287 20.9844 40.9672 21.5459 40.9672 22.2385C40.9672 22.9311 41.5287 23.4926 42.2213 23.4926Z" fill="#E83B3B"/>
<path id="Vector_7" d="M37.2049 24.5795C37.8975 24.5795 38.459 24.018 38.459 23.3254C38.459 22.6328 37.8975 22.0713 37.2049 22.0713C36.5123 22.0713 35.9508 22.6328 35.9508 23.3254C35.9508 24.018 36.5123 24.5795 37.2049 24.5795Z" fill="#E83B3B"/>
<path id="Vector_8" d="M32.1885 25.4154C32.8812 25.4154 33.4426 24.8539 33.4426 24.1613C33.4426 23.4687 32.8812 22.9072 32.1885 22.9072C31.4959 22.9072 30.9344 23.4687 30.9344 24.1613C30.9344 24.8539 31.4959 25.4154 32.1885 25.4154Z" fill="#E83B3B"/>
<path id="Vector_9" d="M29.2624 44.9795C29.2624 43.6125 28.071 41.6353 25.9181 41.6353C23.7652 41.6353 22.5738 43.6125 22.5738 44.9795C22.568 45.273 22.5563 45.849 22.8832 46.441C23.399 47.3715 24.5051 47.9057 25.9181 47.9057C27.331 47.9057 28.4372 47.3715 28.953 46.441C29.2799 45.849 29.2682 45.273 29.2624 44.9795Z" fill="#FBB954"/>
<path id="Vector_10" d="M21.7377 42.8895C22.4303 42.8895 22.9918 42.3281 22.9918 41.6354C22.9918 40.9428 22.4303 40.3813 21.7377 40.3813C21.0451 40.3813 20.4836 40.9428 20.4836 41.6354C20.4836 42.3281 21.0451 42.8895 21.7377 42.8895Z" fill="#FBB954"/>
<path id="Vector_11" d="M24.2459 40.7992C24.9385 40.7992 25.5 40.2377 25.5 39.5451C25.5 38.8525 24.9385 38.291 24.2459 38.291C23.5533 38.291 22.9918 38.8525 22.9918 39.5451C22.9918 40.2377 23.5533 40.7992 24.2459 40.7992Z" fill="#FBB954"/>
<path id="Vector_12" d="M30.0983 42.8895C30.791 42.8895 31.3524 42.3281 31.3524 41.6354C31.3524 40.9428 30.791 40.3813 30.0983 40.3813C29.4057 40.3813 28.8442 40.9428 28.8442 41.6354C28.8442 42.3281 29.4057 42.8895 30.0983 42.8895Z" fill="#FBB954"/>
<path id="Vector_13" d="M27.5902 40.7992C28.2828 40.7992 28.8443 40.2377 28.8443 39.5451C28.8443 38.8525 28.2828 38.291 27.5902 38.291C26.8975 38.291 26.3361 38.8525 26.3361 39.5451C26.3361 40.2377 26.8975 40.7992 27.5902 40.7992Z" fill="#FBB954"/>
<path id="Vector_14" d="M25.918 35.3646C26.2006 35.3646 26.479 35.383 26.7541 35.414V32.8564H25.082V35.414C25.357 35.383 25.6354 35.3646 25.918 35.3646Z" fill="#FBFF86"/>
<g id="Group">
<path id="Vector_15" d="M42.2212 23.4926C42.9138 23.4926 43.4753 22.9311 43.4753 22.2385C43.4753 21.5459 42.9138 20.9844 42.2212 20.9844C41.5286 20.9844 40.9671 21.5459 40.9671 22.2385C40.9671 22.9311 41.5286 23.4926 42.2212 23.4926Z" fill="#D72C2F"/>
<path id="Vector_16" d="M37.2048 24.5795C37.8974 24.5795 38.4589 24.018 38.4589 23.3254C38.4589 22.6328 37.8974 22.0713 37.2048 22.0713C36.5122 22.0713 35.9507 22.6328 35.9507 23.3254C35.9507 24.018 36.5122 24.5795 37.2048 24.5795Z" fill="#D72C2F"/>
<path id="Vector_17" d="M32.1884 25.4154C32.881 25.4154 33.4425 24.8539 33.4425 24.1613C33.4425 23.4687 32.881 22.9072 32.1884 22.9072C31.4958 22.9072 30.9343 23.4687 30.9343 24.1613C30.9343 24.8539 31.4958 25.4154 32.1884 25.4154Z" fill="#D72C2F"/>
<path id="Vector_18" d="M25.918 1.08594C12.0653 1.08594 0.83606 5.20356 0.83606 10.2827C0.83606 12.3285 2.66035 14.218 5.74209 15.7455C7.86988 13.2983 12.0318 11.3328 17.2556 10.2827C19.9109 9.74841 22.8355 9.44659 25.918 9.44659C29.0006 9.44659 31.9252 9.74841 34.5805 10.2827C39.8042 11.3336 43.9662 13.2983 46.094 15.7455C49.1757 14.218 51 12.3285 51 10.2827C51 5.20356 39.7708 1.08594 25.918 1.08594ZM11.725 17.8574C10.1038 18.7378 8.86396 20.2093 8.36065 21.9876C7.85985 23.7575 8.14662 25.637 9.04121 27.218C10.0946 27.5533 11.2275 27.8593 12.4331 28.1293C11.4716 27.2155 10.8688 25.9271 10.8688 24.4958C10.8688 21.7251 13.1145 19.4794 15.8852 19.4794H19.2295V19.1358C16.6954 18.8925 14.1763 18.487 11.725 17.8574Z" fill="#D72C2F"/>
<path id="Vector_19" d="M30.043 32.8566C31.4585 32.8566 32.6064 31.7086 32.6064 30.2932V29.1938C31.5195 29.2991 30.4025 29.3777 29.2621 29.432V32.8566H30.043ZM32.6064 19.1459V18.6986C32.6064 17.2832 31.4585 16.1353 30.043 16.1353H29.2621V19.3834C30.3766 19.3299 31.4928 19.2529 32.6064 19.1459Z" fill="#FAEA6B"/>
</g>
<g id="Group_2">
<path id="Vector_20" d="M25.918 0.25C11.3847 0.25 0 4.6569 0 10.2828V21.1516C0 24.2877 5.00553 27.2867 12.0368 28.8936C13.0669 29.7966 14.4113 30.3484 15.8852 30.3484H18.3934V31.0381C18.3934 32.5021 19.584 33.6926 21.048 33.6926H25.082V34.5713C20.8632 34.9927 17.5574 38.5619 17.5574 42.8893C17.5574 47.4994 21.308 51.25 25.918 51.25C30.5281 51.25 34.2787 47.4994 34.2787 42.8893C34.2787 38.5619 30.9729 34.9919 26.7541 34.5713V33.6926H30.044C31.9176 33.6926 33.4426 32.1676 33.4426 30.294V29.942C43.8567 28.8159 51.8361 25.3378 51.8361 21.1525V10.2836C51.8361 4.6569 40.4514 0.25 25.918 0.25ZM32.6066 42.8893C32.6066 46.5772 29.6059 49.5779 25.918 49.5779C22.2301 49.5779 19.2295 46.5772 19.2295 42.8893C19.2295 39.2015 22.2301 36.2008 25.918 36.2008C29.6059 36.2008 32.6066 39.2015 32.6066 42.8893ZM25.918 1.92213C40.4213 1.92213 50.1639 6.24543 50.1639 10.2828C50.036 12.4156 47.9659 13.7491 46.2662 14.7056C43.1385 11.7359 38.8979 10.3438 34.746 9.46344C29.1193 8.33225 22.7176 8.33225 17.0909 9.46344C12.939 10.3438 8.69759 11.7367 5.5707 14.7056C3.99138 13.8285 2.2649 12.6932 1.7432 10.873C1.69721 10.6757 1.67213 10.4784 1.67213 10.2828C1.67213 6.24543 11.4148 1.92213 25.918 1.92213ZM43.977 15.7406C42.5465 16.31 41.0709 16.7615 39.5752 17.1419C37.6054 17.6335 35.4634 17.9938 33.4075 18.2145C33.2762 17.4638 32.9268 16.7556 32.3674 16.2314C31.7412 15.647 30.9043 15.3025 30.0432 15.2992H21.0471C19.584 15.2992 18.3934 16.4897 18.3934 17.9529V18.2012C15.5617 17.8851 12.9891 17.391 10.6473 16.6996C9.47346 16.3468 8.32053 15.9488 7.19769 15.4706L7.19852 15.4697C10.0662 13.0451 13.785 11.8755 17.4211 11.1021C22.8313 10.0144 29.0065 10.0144 34.4166 11.1021C37.735 11.7986 41.0734 12.8453 43.8391 14.8318C44.1234 15.04 44.3934 15.2515 44.6401 15.4697C44.4227 15.5692 44.1994 15.6528 43.977 15.7406ZM1.67213 20.9309V13.9389C2.75567 15.004 4.01311 15.8209 5.38677 16.5023C7.98025 17.7037 10.71 18.554 13.52 19.1434C12.286 19.7052 11.2417 20.6776 10.6465 21.9016C9.88731 23.3898 9.8338 25.2576 10.4943 26.7809C5.2948 25.3261 1.67213 23.0085 1.67213 20.9309ZM15.8852 28.6762C14.7574 28.6762 13.7366 28.2222 12.9833 27.494C12.1798 26.7014 11.7241 25.633 11.7049 24.4959C11.7049 22.1909 13.5802 20.3156 15.8852 20.3156H18.3934V28.6762H15.8852ZM31.7705 30.294C31.7705 31.2463 30.9955 32.0205 30.044 32.0205H21.048C20.5062 32.0205 20.0656 31.5799 20.0656 31.0381V17.9529C20.0656 17.4119 20.5062 16.9713 21.048 16.9713H30.044C30.8525 16.9663 31.5949 17.585 31.7387 18.3792C30.8717 18.4562 30.0081 18.5072 29.1319 18.5515C28.0584 18.6016 26.974 18.6326 25.9147 18.6434H22.5738C22.1114 18.6434 21.7377 19.0172 21.7377 19.4795V22.8238C21.7377 23.2861 22.1114 23.6598 22.5738 23.6598H25.918C26.3795 23.6598 26.7541 24.0344 26.7541 24.4959C26.7541 24.9574 26.3795 25.332 25.918 25.332H22.5738C22.1114 25.332 21.7377 25.7057 21.7377 26.168V29.5123C21.7377 29.9746 22.1114 30.3484 22.5738 30.3484H25.918C27.8301 30.3509 29.845 30.2472 31.7705 30.1084V30.294ZM50.1639 13.9389V20.9284C50.1639 23.9834 42.2907 27.418 32.5263 28.3619C30.36 28.5709 28.0901 28.6762 25.918 28.6762H23.4098V27.0041H25.918C27.3009 27.0041 28.4262 25.8788 28.4262 24.4959C28.4262 23.1131 27.3009 21.9877 25.918 21.9877H23.4098V20.3156H25.918C28.2498 20.2871 30.4169 20.1927 32.6868 19.9778C38.0636 19.462 42.5641 18.3241 46.4493 16.5031C47.8221 15.8217 49.0804 15.0049 50.1639 13.9389Z" fill="#211F1B"/>
<path id="Vector_21" d="M25.918 41.6353C23.7651 41.6353 22.5737 43.6125 22.5737 44.9795C22.5712 45.2772 22.5428 45.8106 22.8831 46.4418C23.3989 47.3715 24.505 47.9057 25.918 47.9057C27.3309 47.9057 28.4371 47.3715 28.9529 46.441C29.2798 45.849 29.2681 45.273 29.2623 44.9795C29.2623 43.6125 28.0709 41.6353 25.918 41.6353ZM27.4898 45.63C27.1796 46.1901 26.2089 46.2336 25.918 46.2336C25.627 46.2336 24.6564 46.1901 24.3462 45.6308C24.2199 45.395 24.2459 44.9795 24.2459 44.9795C24.2459 44.5038 24.7433 43.3074 25.918 43.3074C27.0927 43.3074 27.5901 44.5038 27.591 45.0623C27.5951 45.2186 27.5993 45.4335 27.4898 45.63Z" fill="#211F1B"/>
<path id="Vector_22" d="M42.2213 23.4926C42.9139 23.4926 43.4754 22.9311 43.4754 22.2385C43.4754 21.5459 42.9139 20.9844 42.2213 20.9844C41.5287 20.9844 40.9672 21.5459 40.9672 22.2385C40.9672 22.9311 41.5287 23.4926 42.2213 23.4926Z" fill="#211F1B"/>
<path id="Vector_23" d="M37.2049 24.5795C37.8975 24.5795 38.459 24.018 38.459 23.3254C38.459 22.6328 37.8975 22.0713 37.2049 22.0713C36.5123 22.0713 35.9508 22.6328 35.9508 23.3254C35.9508 24.018 36.5123 24.5795 37.2049 24.5795Z" fill="#211F1B"/>
<path id="Vector_24" d="M32.1885 25.4154C32.8812 25.4154 33.4426 24.8539 33.4426 24.1613C33.4426 23.4687 32.8812 22.9072 32.1885 22.9072C31.4959 22.9072 30.9344 23.4687 30.9344 24.1613C30.9344 24.8539 31.4959 25.4154 32.1885 25.4154Z" fill="#211F1B"/>
<path id="Vector_25" d="M21.7377 42.8895C22.4303 42.8895 22.9918 42.3281 22.9918 41.6354C22.9918 40.9428 22.4303 40.3813 21.7377 40.3813C21.0451 40.3813 20.4836 40.9428 20.4836 41.6354C20.4836 42.3281 21.0451 42.8895 21.7377 42.8895Z" fill="#211F1B"/>
<path id="Vector_26" d="M24.2459 40.7992C24.9385 40.7992 25.5 40.2377 25.5 39.5451C25.5 38.8525 24.9385 38.291 24.2459 38.291C23.5533 38.291 22.9918 38.8525 22.9918 39.5451C22.9918 40.2377 23.5533 40.7992 24.2459 40.7992Z" fill="#211F1B"/>
<path id="Vector_27" d="M30.0983 42.8895C30.791 42.8895 31.3524 42.3281 31.3524 41.6354C31.3524 40.9428 30.791 40.3813 30.0983 40.3813C29.4057 40.3813 28.8442 40.9428 28.8442 41.6354C28.8442 42.3281 29.4057 42.8895 30.0983 42.8895Z" fill="#211F1B"/>
<path id="Vector_28" d="M27.5902 40.7992C28.2828 40.7992 28.8443 40.2377 28.8443 39.5451C28.8443 38.8525 28.2828 38.291 27.5902 38.291C26.8975 38.291 26.3361 38.8525 26.3361 39.5451C26.3361 40.2377 26.8975 40.7992 27.5902 40.7992Z" fill="#211F1B"/>
</g>
</g>
</svg>
