<svg width="67" height="50" viewBox="0 0 67 50" fill="none" xmlns="http://www.w3.org/2000/svg">
<g id="Group 48095881">
<g id="Layer 2">
<path id="Vector" d="M52.7394 12.2976C52.7404 10.7554 52.1618 9.27297 51.1256 8.16264C50.0894 7.05231 48.6765 6.40076 47.1844 6.34524C46.828 5.33866 46.2352 4.4392 45.4594 3.72753C44.6835 3.01587 43.7488 2.51423 42.739 2.26763C41.7292 2.02102 40.676 2.03715 39.6737 2.31457C38.6715 2.59199 37.7516 3.12203 36.9965 3.85714C35.4708 3.15775 33.7611 3.01093 32.1445 3.44048C31.5476 2.39397 30.6968 1.52626 29.6762 0.922942C28.6556 0.31962 27.5004 0.00151558 26.3245 0C24.7491 0.0169903 23.2266 0.589171 22.0089 1.62183C20.7912 2.65449 19.9515 4.08571 19.6286 5.67857C18.5435 6.06748 17.5812 6.75359 16.8443 7.66361C16.1075 8.57362 15.6238 9.67334 15.4451 10.8452C14.3187 11.1245 13.2797 11.6953 12.426 12.504C11.5723 13.3126 10.932 14.3325 10.5653 15.4675C10.1987 16.6025 10.1178 17.8152 10.3304 18.9914C10.5429 20.1676 11.0418 21.2685 11.7802 22.1905C11.8885 22.3249 12.0242 22.4329 12.1776 22.507C12.331 22.5811 12.4983 22.6193 12.6676 22.619L55.4362 21.7619C55.6753 21.7568 55.9069 21.6749 56.0989 21.5278C56.291 21.3806 56.4339 21.1753 56.508 20.9405C57.0339 19.2709 56.9365 17.4586 56.235 15.8594C55.5334 14.2602 54.2784 12.9898 52.7163 12.2976H52.7394Z" fill="url(#paint0_linear_226_13124)"/>
<path id="Vector_2" d="M61.1987 25.0835C60.9495 23.7237 60.2494 22.4961 59.2187 21.6118C58.1881 20.7275 56.8913 20.2418 55.5515 20.2383H11.5267C10.1869 20.2418 8.89016 20.7275 7.85952 21.6118C6.82887 22.4961 6.12874 23.7237 5.87954 25.0835L2.42209 43.8216C2.38944 43.9957 2.39487 44.1752 2.43797 44.3469C2.48107 44.5185 2.56077 44.6781 2.67123 44.8139C2.78169 44.9497 2.92012 45.0582 3.07642 45.1317C3.23271 45.2051 3.40291 45.2415 3.57457 45.2383H63.5037C63.6753 45.2415 63.8455 45.2051 64.0018 45.1317C64.1581 45.0582 64.2965 44.9497 64.407 44.8139C64.5175 44.6781 64.5972 44.5185 64.6403 44.3469C64.6834 44.1752 64.6888 43.9957 64.6561 43.8216L61.1987 25.0835Z" fill="url(#paint1_linear_226_13124)"/>
<path id="Vector_3" d="M65.8086 42.8569H1.26955C0.633049 42.8569 0.117065 43.3899 0.117065 44.0474V48.8093C0.117065 49.4668 0.633049 49.9998 1.26955 49.9998H65.8086C66.4451 49.9998 66.961 49.4668 66.961 48.8093V44.0474C66.961 43.3899 66.4451 42.8569 65.8086 42.8569Z" fill="#1FAB89"/>
<path id="Vector_4" d="M33.539 31.2144C32.0471 31.2371 30.6199 31.8473 29.5489 32.9204C28.4779 33.9935 27.844 35.4485 27.7766 36.9882C27.7766 39.1072 29.2518 40.4763 31.6029 40.4763C32.2712 40.3813 32.923 40.1889 33.539 39.9048C34.1568 40.1838 34.808 40.376 35.4752 40.4763C37.7802 40.4763 39.3475 39.1072 39.3475 36.9882C39.2797 35.4404 38.6393 33.9785 37.5585 32.9042C36.4777 31.8298 35.0389 31.225 33.539 31.2144Z" fill="#1FAB89"/>
</g>
<g id="Layer 3">
<path id="Vector_5" d="M33.539 31.2139C32.0471 31.2366 30.6199 31.8468 29.5489 32.9199C28.4779 33.993 27.844 35.448 27.7766 36.9877C27.7766 39.1067 29.2518 40.4758 31.6029 40.4758C32.2712 40.3808 32.923 40.1884 33.539 39.9043C34.1568 40.1833 34.808 40.3755 35.4752 40.4758C37.7802 40.4758 39.3475 39.1067 39.3475 36.9877C39.2797 35.4399 38.6393 33.978 37.5585 32.9037C36.4777 31.8293 35.0389 31.2245 33.539 31.2139ZM35.4867 38.0948C34.8633 37.8206 34.2089 37.6286 33.539 37.5234C32.8713 37.621 32.2197 37.8132 31.6029 38.0948C30.0816 38.0948 30.0816 37.2972 30.0816 36.9877C30.0816 36.0278 30.4507 35.1073 31.1077 34.4286C31.7648 33.7499 32.6559 33.3686 33.5851 33.3686C34.5143 33.3686 35.4055 33.7499 36.0625 34.4286C36.7195 35.1073 37.0887 36.0278 37.0887 36.9877C36.9965 37.2972 36.9965 38.0948 35.4867 38.0948Z" fill="url(#paint2_linear_226_13124)"/>
<path id="Vector_6" d="M30.554 30.7853C33.9423 31.3329 32.179 25.8091 31.3377 25.6663C30.4964 25.5234 27.1657 30.2377 30.554 30.7853Z" fill="url(#paint3_linear_226_13124)"/>
<path id="Vector_7" d="M26.2553 29.4641C25.5408 29.5593 23.9503 34.226 26.797 33.8093C29.6436 33.3926 26.9814 29.3688 26.2553 29.4641Z" fill="url(#paint4_linear_226_13124)"/>
<path id="Vector_8" d="M36.524 30.7858C39.9123 30.2382 36.5932 25.5358 35.7403 25.6667C34.8875 25.7977 33.1357 31.3334 36.524 30.7858Z" fill="url(#paint5_linear_226_13124)"/>
<path id="Vector_9" d="M40.8227 29.4641C40.0967 29.3688 37.3653 33.4283 40.2811 33.8093C43.1968 34.1902 41.5373 29.5593 40.8227 29.4641Z" fill="url(#paint6_linear_226_13124)"/>
<path id="Vector_10" d="M18.5568 17.857C19.1933 17.857 19.7093 17.324 19.7093 16.6666C19.7093 16.0091 19.1933 15.4761 18.5568 15.4761C17.9203 15.4761 17.4043 16.0091 17.4043 16.6666C17.4043 17.324 17.9203 17.857 18.5568 17.857Z" fill="url(#paint7_linear_226_13124)"/>
<path id="Vector_11" d="M23.1667 11.9049C23.8032 11.9049 24.3192 11.3719 24.3192 10.7144C24.3192 10.0569 23.8032 9.52393 23.1667 9.52393C22.5302 9.52393 22.0142 10.0569 22.0142 10.7144C22.0142 11.3719 22.5302 11.9049 23.1667 11.9049Z" fill="url(#paint8_linear_226_13124)"/>
<path id="Vector_12" d="M39.3015 16.6666C39.938 16.6666 40.454 16.1336 40.454 15.4761C40.454 14.8186 39.938 14.2856 39.3015 14.2856C38.665 14.2856 38.149 14.8186 38.149 15.4761C38.149 16.1336 38.665 16.6666 39.3015 16.6666Z" fill="url(#paint9_linear_226_13124)"/>
<path id="Vector_13" d="M32.3866 10.714C33.0231 10.714 33.539 10.181 33.539 9.52348C33.539 8.866 33.0231 8.33301 32.3866 8.33301C31.7501 8.33301 31.2341 8.866 31.2341 9.52348C31.2341 10.181 31.7501 10.714 32.3866 10.714Z" fill="url(#paint10_linear_226_13124)"/>
<path id="Vector_14" d="M48.5213 17.857C49.1578 17.857 49.6738 17.324 49.6738 16.6666C49.6738 16.0091 49.1578 15.4761 48.5213 15.4761C47.8848 15.4761 47.3688 16.0091 47.3688 16.6666C47.3688 17.324 47.8848 17.857 48.5213 17.857Z" fill="url(#paint11_linear_226_13124)"/>
<path id="Vector_15" d="M30.0816 16.6666C30.7181 16.6666 31.234 16.1336 31.234 15.4761C31.234 14.8186 30.7181 14.2856 30.0816 14.2856C29.4451 14.2856 28.9291 14.8186 28.9291 15.4761C28.9291 16.1336 29.4451 16.6666 30.0816 16.6666Z" fill="url(#paint12_linear_226_13124)"/>
<path id="Vector_16" d="M41.6064 10.714C42.2429 10.714 42.7589 10.181 42.7589 9.52348C42.7589 8.866 42.2429 8.33301 41.6064 8.33301C40.9699 8.33301 40.4539 8.866 40.4539 9.52348C40.4539 10.181 40.9699 10.714 41.6064 10.714Z" fill="url(#paint13_linear_226_13124)"/>
<path id="Vector_17" d="M65.8086 42.8569H64.4602L61.1986 25.0831C60.9902 23.911 60.4459 22.8306 59.6364 21.9816C58.8268 21.1326 57.7892 20.5542 56.6579 20.3212C57.0284 18.7148 56.8371 17.0248 56.118 15.55C55.3988 14.0751 54.198 12.9104 52.7279 12.2617C52.7289 10.7194 52.1503 9.237 51.1141 8.12668C50.0779 7.01635 48.665 6.3648 47.1729 6.30928C46.8119 5.30767 46.2165 4.41392 45.4399 3.70774C44.6632 3.00157 43.7294 2.50492 42.7218 2.2621C41.7142 2.01928 40.6641 2.03783 39.6651 2.3161C38.6661 2.59437 37.7493 3.1237 36.9965 3.8569C35.4708 3.1575 33.7611 3.01069 32.1446 3.44023C31.434 2.22253 30.3841 1.25482 29.1323 0.663783C27.8804 0.0727489 26.485 -0.114062 25.1287 0.12781C23.7723 0.369682 22.5183 1.02896 21.5308 2.01934C20.5432 3.00972 19.8682 4.28503 19.594 5.67833C18.509 6.06723 17.5466 6.75335 16.8098 7.66336C16.0729 8.57337 15.5893 9.67309 15.4105 10.845C14.4492 11.0744 13.548 11.5179 12.7698 12.1445C11.9917 12.7711 11.3554 13.5657 10.9054 14.4727C10.4554 15.3796 10.2026 16.3772 10.1646 17.3956C10.1265 18.414 10.3043 19.4287 10.6853 20.3688C9.49732 20.542 8.39128 21.0939 7.52149 21.9476C6.65171 22.8012 6.06156 23.914 5.83338 25.1307L2.61795 42.8569H1.26955C0.96389 42.8569 0.670752 42.9823 0.45462 43.2056C0.238487 43.4288 0.117065 43.7316 0.117065 44.0474V48.8093C0.117065 49.125 0.238487 49.4278 0.45462 49.6511C0.670752 49.8743 0.96389 49.9998 1.26955 49.9998H65.8086C66.1142 49.9998 66.4074 49.8743 66.6235 49.6511C66.8396 49.4278 66.961 49.125 66.961 48.8093V44.0474C66.961 43.7316 66.8396 43.4288 66.6235 43.2056C66.4074 42.9823 66.1142 42.8569 65.8086 42.8569ZM16.6321 13.095C16.9195 13.0682 17.1866 12.931 17.3808 12.7106C17.575 12.4902 17.6821 12.2025 17.6809 11.9045V11.8331C17.68 10.8836 17.9958 9.9627 18.5751 9.2255C19.1545 8.48829 19.962 7.97975 20.8617 7.78547C21.109 7.734 21.3331 7.60016 21.4997 7.40447C21.6662 7.20878 21.766 6.96205 21.7837 6.70214C21.8642 5.65179 22.2864 4.66049 22.9817 3.88954C23.6769 3.11858 24.6043 2.61335 25.6129 2.45604C26.6214 2.29873 27.6519 2.49861 28.5365 3.02315C29.4211 3.54769 30.1078 4.36602 30.485 5.34499C30.5417 5.49377 30.6269 5.6292 30.7355 5.74322C30.844 5.85724 30.9737 5.94749 31.1168 6.0086C31.2598 6.06971 31.4133 6.10042 31.5681 6.0989C31.7229 6.09738 31.8759 6.06366 32.0178 5.99975C32.7579 5.67682 33.5616 5.53973 34.3629 5.59975C35.1643 5.65976 35.9404 5.91516 36.6277 6.34499C36.8691 6.5019 37.1583 6.56077 37.4393 6.51019C37.7203 6.45961 37.9732 6.30319 38.149 6.07118C38.6225 5.45178 39.2587 4.98641 39.9815 4.73076C40.7044 4.47511 41.4832 4.44 42.2249 4.62964C42.9666 4.81929 43.6396 5.22564 44.1635 5.80009C44.6874 6.37455 45.04 7.09276 45.1791 7.8688C45.2353 8.16575 45.3988 8.42946 45.6364 8.60637C45.874 8.78327 46.1679 8.86007 46.4584 8.82118C46.9947 8.74313 47.5413 8.79632 48.054 8.97647C48.5668 9.15661 49.0314 9.45868 49.4105 9.85832C49.7895 10.258 50.0723 10.744 50.2362 11.2772C50.4 11.8105 50.4403 12.376 50.3538 12.9283C50.3047 13.2256 50.3666 13.531 50.527 13.7829C50.6875 14.0348 50.9345 14.2144 51.2181 14.2855C51.8104 14.4498 52.364 14.737 52.8453 15.1295C53.3266 15.5221 53.7255 16.0117 54.0177 16.5686C54.3099 17.1255 54.4893 17.738 54.5449 18.3688C54.6006 18.9996 54.5313 19.6356 54.3414 20.2379H54.4336H13.2669C12.8473 19.567 12.6024 18.7956 12.5558 17.9984C12.5092 17.2011 12.6624 16.4049 13.0008 15.6868C13.3391 14.9686 13.8511 14.3528 14.4873 13.8987C15.1234 13.4447 15.8622 13.1679 16.6321 13.095ZM8.18444 25.5236C8.33654 24.696 8.76696 23.9505 9.39963 23.419C10.0323 22.8874 10.8265 22.604 11.6419 22.6188H55.5515C56.357 22.618 57.1375 22.9079 57.7582 23.4382C58.379 23.9685 58.8009 24.7061 58.9513 25.5236L62.1091 42.8569H4.96902L8.18444 25.5236ZM64.6561 47.6188H2.42203V45.2378H64.6561V47.6188Z" fill="url(#paint14_linear_226_13124)"/>
</g>
</g>
<defs>
<linearGradient id="paint0_linear_226_13124" x1="33.539" y1="0" x2="33.539" y2="22.619" gradientUnits="userSpaceOnUse">
<stop stop-color="#FFC033"/>
<stop offset="1" stop-color="#EF8E2E"/>
</linearGradient>
<linearGradient id="paint1_linear_226_13124" x1="33.5391" y1="20.2383" x2="33.5391" y2="45.2383" gradientUnits="userSpaceOnUse">
<stop stop-color="#D6D6D6"/>
<stop offset="1" stop-color="#A1A1A1"/>
</linearGradient>
<linearGradient id="paint2_linear_226_13124" x1="33.539" y1="31.2139" x2="33.539" y2="40.4758" gradientUnits="userSpaceOnUse">
<stop stop-color="#000206"/>
<stop offset="1" stop-color="#001521"/>
</linearGradient>
<linearGradient id="paint3_linear_226_13124" x1="30.8076" y1="25.6663" x2="30.8076" y2="30.821" gradientUnits="userSpaceOnUse">
<stop stop-color="#000406"/>
<stop offset="1" stop-color="#001521"/>
</linearGradient>
<linearGradient id="paint4_linear_226_13124" x1="26.6241" y1="29.4641" x2="26.6241" y2="33.8331" gradientUnits="userSpaceOnUse">
<stop stop-color="#000406"/>
<stop offset="1" stop-color="#001521"/>
</linearGradient>
<linearGradient id="paint5_linear_226_13124" x1="36.2705" y1="25.6667" x2="36.2705" y2="30.8215" gradientUnits="userSpaceOnUse">
<stop stop-color="#000406"/>
<stop offset="1" stop-color="#001521"/>
</linearGradient>
<linearGradient id="paint6_linear_226_13124" x1="40.4539" y1="29.4641" x2="40.4539" y2="33.8331" gradientUnits="userSpaceOnUse">
<stop stop-color="#000406"/>
<stop offset="1" stop-color="#001521"/>
</linearGradient>
<linearGradient id="paint7_linear_226_13124" x1="18.5568" y1="15.4761" x2="18.5568" y2="17.857" gradientUnits="userSpaceOnUse">
<stop stop-color="#000406"/>
<stop offset="1" stop-color="#001521"/>
</linearGradient>
<linearGradient id="paint8_linear_226_13124" x1="23.1667" y1="9.52393" x2="23.1667" y2="11.9049" gradientUnits="userSpaceOnUse">
<stop stop-color="#000406"/>
<stop offset="1" stop-color="#001521"/>
</linearGradient>
<linearGradient id="paint9_linear_226_13124" x1="39.3015" y1="14.2856" x2="39.3015" y2="16.6666" gradientUnits="userSpaceOnUse">
<stop stop-color="#000406"/>
<stop offset="1" stop-color="#001521"/>
</linearGradient>
<linearGradient id="paint10_linear_226_13124" x1="32.3866" y1="8.33301" x2="32.3866" y2="10.714" gradientUnits="userSpaceOnUse">
<stop stop-color="#000406"/>
<stop offset="1" stop-color="#001521"/>
</linearGradient>
<linearGradient id="paint11_linear_226_13124" x1="48.5213" y1="15.4761" x2="48.5213" y2="17.857" gradientUnits="userSpaceOnUse">
<stop stop-color="#000406"/>
<stop offset="1" stop-color="#001521"/>
</linearGradient>
<linearGradient id="paint12_linear_226_13124" x1="30.0816" y1="14.2856" x2="30.0816" y2="16.6666" gradientUnits="userSpaceOnUse">
<stop stop-color="#000406"/>
<stop offset="1" stop-color="#001521"/>
</linearGradient>
<linearGradient id="paint13_linear_226_13124" x1="41.6064" y1="8.33301" x2="41.6064" y2="10.714" gradientUnits="userSpaceOnUse">
<stop stop-color="#000406"/>
<stop offset="1" stop-color="#001521"/>
</linearGradient>
<linearGradient id="paint14_linear_226_13124" x1="-3.34038" y1="0.0116591" x2="-2.11071" y2="49.9979" gradientUnits="userSpaceOnUse">
<stop stop-color="#000406"/>
<stop offset="1" stop-color="#001521"/>
</linearGradient>
</defs>
</svg>
