<svg width="45" height="49" viewBox="0 0 45 49" fill="none" xmlns="http://www.w3.org/2000/svg">
<g id="Group 1">
<path id="Vector" d="M25.119 3.27868C25.5537 2.01191 29.1878 1.85142 31.9344 2.62524C32.2105 2.70262 38.5491 4.60277 40.1502 10.6558C41.8173 16.9524 37.2298 23.4821 35.2016 23.1706C32.9575 22.8229 35.1061 14.286 29.0397 7.76492C26.9963 5.56288 24.7426 4.37254 25.119 3.27868ZM16.1064 3.27868C15.6718 2.01191 12.0377 1.85142 9.29109 2.62524C9.015 2.70262 2.67636 4.60277 1.07523 10.6558C-0.59183 16.9524 3.99568 23.4821 6.02385 23.1706C8.26793 22.8229 6.11938 14.286 12.1857 7.76492C14.2292 5.56288 16.4828 4.37254 16.1064 3.27868ZM30.4976 37.6238C31.2828 37.3468 31.7739 39.1868 33.6645 39.8565C36.7216 40.9398 40.2439 37.8302 40.5381 37.5637C41.6155 36.5798 42.4514 35.3608 42.9809 34.0012C43.031 33.8728 43.1224 33.7648 43.2407 33.694C43.359 33.6233 43.4975 33.594 43.6343 33.6106C43.7711 33.6272 43.8985 33.6889 43.9964 33.7859C44.0943 33.8829 44.1572 34.0098 44.1751 34.1464C44.4292 36.0523 44.3537 38.7368 42.6857 41.0716C39.8149 45.0984 33.4868 46.2916 31.3822 44.2386C30.7727 43.6443 30.5014 42.7626 30.2864 42.0604C29.7534 40.3274 29.6941 37.9066 30.4976 37.6238Z" fill="#F5DEA3"/>
<path id="Vector_2" d="M34.0829 36.9159C34.0824 39.9093 32.8931 42.7799 30.7764 44.8966C28.6597 47.0133 25.7891 48.2026 22.7957 48.2031H18.4298C16.3783 48.2031 14.3656 47.644 12.608 46.5859C10.8504 45.5277 9.41447 44.0106 8.4545 42.1975C7.49453 40.3845 7.04685 38.3441 7.15957 36.2957C7.2723 34.2472 7.94117 32.2683 9.09429 30.5715L12.1638 26.0547L17.1735 18.6833H24.0519L30.254 27.8068L32.1312 30.5686C33.4033 32.4409 34.0833 34.6523 34.0829 36.9159Z" fill="#F5DEA3"/>
<path id="Vector_3" d="M20.6128 35.0415C18.6382 35.0415 16.7446 35.8259 15.3484 37.2221C13.9522 38.6183 13.1678 40.5119 13.1678 42.4864V46.9029C14.7894 47.7594 16.596 48.2058 18.4298 48.2031H22.7957C24.6295 48.2058 26.4361 47.7594 28.0577 46.9029V42.4864C28.0577 40.5119 27.2733 38.6183 25.8771 37.2221C24.4809 35.8259 22.5873 35.0415 20.6128 35.0415Z" fill="#FEF1DA"/>
<path id="Vector_4" d="M30.2539 27.8068C28.0232 29.7595 25.1639 30.9307 22.0457 30.9307C18.0792 30.9307 14.5311 29.0353 12.1638 26.0585L17.1735 18.6833H24.0519L30.2539 27.8068Z" fill="#F5DEA3"/>
<path id="Vector_5" d="M20.6127 28.0648C27.7408 28.0648 33.5193 21.9441 33.5193 14.394C33.5193 6.84377 27.7408 0.723145 20.6127 0.723145C13.4846 0.723145 7.70618 6.84377 7.70618 14.394C7.70618 21.9441 13.4846 28.0648 20.6127 28.0648Z" fill="#F5DEA3"/>
<path id="Vector_6" d="M24.0586 20.8329L21.2413 23.6502C21.1338 23.7575 20.9882 23.8178 20.8363 23.8178C20.6844 23.8178 20.5387 23.7575 20.4312 23.6502L17.6139 20.8329C17.5339 20.7527 17.4794 20.6506 17.4573 20.5395C17.4352 20.4284 17.4466 20.3132 17.4899 20.2085C17.5332 20.1039 17.6066 20.0144 17.7008 19.9514C17.795 19.8884 17.9057 19.8547 18.019 19.8546H23.6554C23.7686 19.8551 23.879 19.889 23.9729 19.9522C24.0668 20.0153 24.1399 20.1048 24.183 20.2094C24.2261 20.314 24.2373 20.429 24.2152 20.54C24.193 20.6509 24.1385 20.7528 24.0586 20.8329Z" fill="#444444"/>
<path id="Vector_7" d="M25.1563 12.4422C25.3463 12.4422 25.5286 12.3667 25.6629 12.2323C25.7973 12.098 25.8728 11.9157 25.8728 11.7257V9.90484C25.8728 9.71481 25.7973 9.53257 25.6629 9.3982C25.5286 9.26383 25.3463 9.18834 25.1563 9.18834C24.9663 9.18834 24.784 9.26383 24.6496 9.3982C24.5153 9.53257 24.4398 9.71481 24.4398 9.90484V11.7257C24.4398 11.9157 24.5153 12.098 24.6496 12.2323C24.784 12.3667 24.9663 12.4422 25.1563 12.4422ZM44.8849 34.0518C44.8457 33.7582 44.7103 33.486 44.4997 33.2777C44.2892 33.0694 44.0155 32.9369 43.7215 32.9009C43.4275 32.8649 43.1299 32.9276 42.8754 33.079C42.6208 33.2304 42.4237 33.462 42.315 33.7375C41.827 34.9954 41.0544 36.1232 40.0576 37.0325C39.9286 37.149 37.096 39.6787 34.5539 39.3367C34.8772 37.7633 34.8818 36.141 34.5674 34.5658C34.2531 32.9905 33.626 31.4943 32.7235 30.1655L29.4419 25.3373C31.0734 23.8607 32.3458 22.0309 33.162 19.9874C33.4696 22.1331 33.7524 23.6607 35.0927 23.8689C35.1793 23.882 35.2668 23.8883 35.3545 23.888C36.3375 23.888 37.2938 23.0665 37.9463 22.3414C39.0927 21.0698 40.0767 19.2375 40.648 17.3144C41.3434 14.9748 41.4122 12.6065 40.839 10.4656C39.1194 3.96936 32.4092 2.00902 32.1245 1.92877C30.3705 1.43486 28.3127 1.2992 26.7861 1.5667C24.8892 0.538505 22.7656 0 20.608 0C18.4503 0 16.3267 0.538505 14.4298 1.5667C12.9013 1.2992 10.8454 1.43486 9.09142 1.92877C8.80482 2.00902 2.09743 3.96649 0.376874 10.4656C-0.185817 12.617 -0.117988 14.9815 0.577494 17.3211C1.15069 19.2442 2.13373 21.0765 3.27917 22.348C3.93167 23.0731 4.88795 23.8957 5.87099 23.8947C5.9586 23.895 6.04611 23.8886 6.13275 23.8756C7.47022 23.6674 7.75682 22.1398 8.06348 19.9941C8.87969 22.0375 10.1521 23.8674 11.7835 25.344L8.50198 30.1722C7.55589 31.5642 6.91314 33.1395 6.61546 34.796C6.31778 36.4525 6.37182 38.1531 6.77408 39.7874C7.17633 41.4216 7.91781 42.953 8.95036 44.2821C9.98292 45.6111 11.2835 46.7082 12.7675 47.5019C12.809 47.5288 12.8528 47.5518 12.8984 47.5707C14.6063 48.4602 16.5042 48.923 18.4298 48.9197H22.7957C24.7216 48.9218 26.6195 48.4577 28.327 47.5669C28.3728 47.5484 28.4167 47.5253 28.4579 47.4981C29.5751 46.8966 30.5907 46.1228 31.4672 45.2053C32.2401 45.6878 33.268 45.9409 34.467 45.9409C34.7338 45.9409 35.0086 45.9285 35.2914 45.9037C38.4192 45.6247 41.5508 43.8908 43.2684 41.4862C45.0855 38.945 45.1504 36.0408 44.8849 34.0518ZM31.7404 3.31496C31.8025 3.33215 37.9453 5.12245 39.4586 10.8392C40.6126 15.1974 38.5491 19.5327 36.8792 21.3898C36.1149 22.2344 35.5245 22.4923 35.3105 22.4589C34.9484 22.4035 34.6962 20.6237 34.5291 19.4467C34.4096 18.6031 34.274 17.6507 34.0695 16.6266C34.179 15.8874 34.234 15.1412 34.2339 14.3939C34.2339 9.68798 32.0834 5.50267 28.7655 2.8755C29.7713 2.90114 30.7702 3.0487 31.7404 3.31496ZM7.15496 16.6361C7.14827 16.661 7.14158 16.6848 7.13681 16.7106C6.94574 17.7042 6.81008 18.6299 6.69449 19.4467C6.5273 20.6237 6.2751 22.4035 5.91303 22.4589C5.70094 22.4933 5.10482 22.2353 4.34437 21.3898C2.67636 19.5365 0.612841 15.1974 1.76497 10.8392C3.27822 5.12245 9.42101 3.33215 9.4831 3.31496C10.4532 3.04773 11.4521 2.8992 12.458 2.87264C9.14014 5.4998 6.98969 9.68511 6.98969 14.3911C6.98924 15.1425 7.04448 15.8929 7.15496 16.6361ZM8.42268 14.3939C8.42268 7.25093 13.891 1.43964 20.6127 1.43964C27.3344 1.43964 32.8028 7.25093 32.8028 14.3939C32.8028 21.537 27.3344 27.3473 20.6127 27.3473C13.891 27.3473 8.42268 21.537 8.42268 14.3939ZM27.3383 46.4578C25.9201 47.1362 24.3678 47.4878 22.7957 47.4867H18.4298C16.8567 47.4882 15.3034 47.1366 13.8843 46.4578V42.4865C13.8843 40.702 14.5932 38.9906 15.855 37.7287C17.1168 36.4669 18.8282 35.758 20.6127 35.758C22.3972 35.758 24.1086 36.4669 25.3704 37.7287C26.6323 38.9906 27.3411 40.702 27.3411 42.4865L27.3383 46.4578ZM28.7713 45.6285V42.4865C28.7713 40.3219 27.9114 38.246 26.3808 36.7155C24.8503 35.1849 22.7744 34.325 20.6099 34.325C18.4453 34.325 16.3694 35.1849 14.8389 36.7155C13.3083 38.246 12.4485 40.3219 12.4485 42.4865V45.6285C10.1429 44.0483 8.55754 41.6188 8.03937 38.8722C7.52119 36.1255 8.11246 33.2854 9.68372 30.9737L12.8975 26.2458C15.1318 27.8922 17.8344 28.7804 20.6099 28.7804C23.3853 28.7804 26.0879 27.8922 28.3223 26.2458L31.536 30.9737C33.1073 33.2854 33.6985 36.1255 33.1804 38.8722C32.6622 41.6188 31.0768 44.0483 28.7713 45.6285ZM42.1077 40.6551C40.3021 43.181 37.2412 44.293 35.1691 44.4764C34.0476 44.5719 33.0846 44.4372 32.414 44.0943C33.1776 43.0732 33.7733 41.9367 34.1784 40.7277C35.472 40.956 36.9145 40.6618 38.4774 39.845C39.3901 39.3645 40.2422 38.7769 41.0158 38.0948C42.0843 37.1215 42.9314 35.9301 43.4996 34.6011C43.6821 36.3093 43.5407 38.6384 42.1077 40.6551ZM17.1076 21.3373L19.9239 24.1546C20.1659 24.3962 20.4939 24.5318 20.8358 24.5318C21.1777 24.5318 21.5057 24.3962 21.7477 24.1546L24.5649 21.3373C24.7442 21.1569 24.8661 20.9275 24.9153 20.678C24.9645 20.4285 24.9388 20.1699 24.8413 19.935C24.7439 19.7001 24.5791 19.4993 24.3677 19.3578C24.1564 19.2163 23.9079 19.1406 23.6535 19.14H18.0171C17.7628 19.1406 17.5143 19.2163 17.3029 19.3578C17.0915 19.4993 16.9268 19.7001 16.8293 19.935C16.7319 20.1699 16.7061 20.4285 16.7553 20.678C16.8045 20.9275 16.9264 21.1569 17.1057 21.3373H17.1076ZM23.3068 20.573L20.8363 23.0397L18.3648 20.5692L23.3068 20.573ZM16.0692 12.446C16.2592 12.446 16.4414 12.3705 16.5758 12.2362C16.7102 12.1018 16.7857 11.9196 16.7857 11.7295V9.90484C16.7857 9.71481 16.7102 9.53257 16.5758 9.3982C16.4414 9.26383 16.2592 9.18834 16.0692 9.18834C15.8791 9.18834 15.6969 9.26383 15.5625 9.3982C15.4282 9.53257 15.3527 9.71481 15.3527 9.90484V11.7257C15.3527 11.9157 15.4282 12.098 15.5625 12.2323C15.6969 12.3667 15.8791 12.4422 16.0692 12.4422V12.446Z" fill="black"/>
</g>
</svg>
