<svg width="35" height="25" viewBox="0 0 35 25" fill="none" xmlns="http://www.w3.org/2000/svg">
<g id="Flags">
<g clip-path="url(#clip0_67_4304)">
<rect width="35" height="25" rx="3" fill="#1A47B8"/>
<path id="Vector" fill-rule="evenodd" clip-rule="evenodd" d="M3.72329 0H0V4.16667L31.2565 25H35V20.8333L3.72329 0Z" fill="white"/>
<path id="Vector_2" d="M1.24183 0L35 22.5591V25H33.7873L0 2.4176V0H1.24183Z" fill="#F93939"/>
<path id="Vector_3" fill-rule="evenodd" clip-rule="evenodd" d="M31.6668 0H35.0001V4.16667C35.0001 4.16667 13.3498 18.0468 3.33346 25H0.00012207V20.8333L31.6668 0Z" fill="white"/>
<path id="Vector_4" d="M35 0H33.8696L0 22.5785V25H1.24183L35 2.43586V0Z" fill="#F93939"/>
<path id="Vector_5" fill-rule="evenodd" clip-rule="evenodd" d="M12.7285 0H22.3006V7.71136H35V17.2836H22.3006V25H12.7285V17.2836H0V7.71136H12.7285V0Z" fill="white"/>
<path id="Vector_6" fill-rule="evenodd" clip-rule="evenodd" d="M14.7368 0H20.2632V9.61539H35V15.3846H20.2632V25H14.7368V15.3846H0V9.61539H14.7368V0Z" fill="#F93939"/>
</g>
</g>
<defs>
<clipPath id="clip0_67_4304">
<rect width="35" height="25" rx="3" fill="white"/>
</clipPath>
</defs>
</svg>
