<svg width="20" height="20" viewBox="0 0 20 20" fill="none" xmlns="http://www.w3.org/2000/svg">
<path id="Vector" d="M19.1744 3.21856C19.6685 3.71299 19.9614 4.37317 19.9965 5.07119C20.0315 5.76922 19.8061 6.4554 19.364 6.99677C18.9218 7.53815 18.2944 7.89618 17.6034 8.0015C16.9123 8.10683 16.2067 7.95193 15.6233 7.56684L7.56373 15.6244C7.94892 16.2076 8.10385 16.913 7.9985 17.604C7.89316 18.2949 7.53503 18.9221 6.99352 19.3641C6.45201 19.8061 5.76566 20.0315 5.06746 19.9965C4.36926 19.9614 3.70891 19.6686 3.21437 19.1746C2.78266 18.7405 2.5057 18.1765 2.42612 17.5695C1.82076 17.4889 1.25855 17.2121 0.825615 16.7814C0.331514 16.287 0.0385716 15.6268 0.00354654 14.9288C-0.0314786 14.2308 0.193907 13.5446 0.636034 13.0032C1.07816 12.4619 1.70555 12.1038 2.39665 11.9985C3.08774 11.8932 3.79334 12.0481 4.37673 12.4332L12.4363 4.37564C12.0511 3.79239 11.8961 3.08697 12.0015 2.39605C12.1068 1.70513 12.465 1.07789 13.0065 0.635875C13.548 0.193859 14.2343 -0.0314707 14.9325 0.00354565C15.6307 0.038562 16.2911 0.331431 16.7856 0.825408C17.2173 1.25955 17.4943 1.82354 17.5739 2.43051C18.1792 2.51112 18.7415 2.78794 19.1744 3.21856ZM15.6233 12.4332L14.6039 11.4141L11.4119 14.6053L12.4313 15.6244C12.0461 16.2076 11.8911 16.913 11.9965 17.604C12.1018 18.2949 12.46 18.9221 13.0015 19.3641C13.543 19.8061 14.2293 20.0315 14.9275 19.9965C15.6257 19.9614 16.2861 19.6686 16.7806 19.1746C17.2123 18.7405 17.4893 18.1765 17.5689 17.5695C18.176 17.4899 18.7401 17.213 19.1744 16.7814C19.6685 16.287 19.9614 15.6268 19.9965 14.9288C20.0315 14.2308 19.8061 13.5446 19.364 13.0032C18.9218 12.4619 18.2944 12.1038 17.6034 11.9985C16.9123 11.8932 16.2067 12.0481 15.6233 12.4332ZM4.37173 7.56684L5.39605 8.58591L8.58305 5.3997L7.56373 4.37564C7.94892 3.79239 8.10385 3.08697 7.9985 2.39605C7.89316 1.70513 7.53503 1.07789 6.99352 0.635875C6.45201 0.193859 5.76566 -0.0314707 5.06746 0.00354565C4.36926 0.038562 3.70891 0.331431 3.21437 0.825408C2.78266 1.25955 2.5057 1.82354 2.42612 2.43051C1.82076 2.51112 1.25855 2.78794 0.825615 3.21856C0.331514 3.71299 0.0385716 4.37317 0.00354654 5.07119C-0.0314786 5.76922 0.193907 6.4554 0.636034 6.99677C1.07816 7.53815 1.70555 7.89618 2.39665 8.0015C3.08774 8.10683 3.79334 7.95193 4.37673 7.56684H4.37173Z" fill="black" fill-opacity="0.76"/>
</svg>
