<svg width="70" height="65" viewBox="0 0 70 65" fill="none" xmlns="http://www.w3.org/2000/svg">
<g id="OBJECTS">
<g id="Group">
<path id="Vector" d="M60.6323 48.3314C60.6651 48.3607 60.7082 48.3754 60.7522 48.3754H63.1826C66.4963 48.3754 69.1826 51.0617 69.1826 54.3754V58.2094C69.1826 61.5231 66.4963 64.2094 63.1826 64.2094H6C2.68629 64.2094 0 61.5231 0 58.2094V50.1508C0 49.1703 0.79488 48.3754 1.77542 48.3754H1.99332C2.35379 48.3754 2.69773 48.2241 2.93518 47.9528C3.11482 47.7477 3.34116 47.4847 3.57384 47.2031C3.84127 46.8793 4.34824 46.9072 4.52598 47.2877C4.5803 47.4039 4.63377 47.5269 4.68193 47.6518C4.79094 47.9345 5.17238 48.0735 5.40647 47.8812L5.41721 47.8724C5.5765 47.7415 5.81202 47.7662 5.9408 47.9271C6.11083 48.1396 6.44253 48.1014 6.55497 47.8536C6.67207 47.5955 6.8174 47.2663 6.96063 46.919C7.16258 46.4291 7.85932 46.3788 8.03824 46.8775C8.11992 47.1051 8.19489 47.3462 8.25095 47.5868C8.31031 47.8415 8.65952 47.9614 8.83725 47.7695C8.96928 47.6269 9.20119 47.651 9.30118 47.8176L9.33106 47.8674C9.44325 48.0543 9.70123 48.0861 9.8554 47.9319L10.1058 47.6815C10.2233 47.564 10.419 47.5834 10.5112 47.7217C10.6427 47.9189 10.9661 47.8597 11.0375 47.6336C11.085 47.4831 11.1439 47.3148 11.2159 47.1394C11.391 46.7127 11.8845 46.9013 11.9053 47.3621C11.9128 47.5262 11.9281 47.6866 11.9545 47.8326C12.0031 48.1012 12.3064 48.1341 12.4882 47.9304C12.684 47.7112 13.0384 47.7483 13.2085 47.988C13.2612 48.0623 13.3168 48.1363 13.3724 48.2033C13.4699 48.3207 13.619 48.3754 13.7715 48.3754H39.6216C39.724 48.3754 39.795 48.2734 39.7597 48.1774C39.7061 48.0321 39.8931 47.9038 40.014 48.0006C40.0601 48.0375 40.1076 48.0746 40.1554 48.1108C40.2935 48.2151 40.4613 48.0799 40.4143 47.9133C40.3922 47.8345 40.3691 47.7477 40.3464 47.6545C40.2742 47.3587 40.6347 47.2282 40.8137 47.4746C40.9453 47.6555 41.0873 47.8406 41.2299 48.0087C41.3675 48.1709 41.605 48.2467 41.6263 48.0351C41.6492 47.8074 41.9456 47.6249 42.0448 47.8311C42.1065 47.9595 42.176 48.0893 42.2486 48.1989C42.3493 48.3509 42.5493 48.3224 42.6468 48.1684C42.6955 48.0914 42.7486 48.0046 42.7985 47.9169C42.8574 47.8134 42.9482 47.7208 43.017 47.8179C43.1096 47.9487 43.5294 48.0426 43.6004 47.899C43.6609 47.7768 43.7252 47.639 43.7861 47.4939C43.8982 47.2271 44.3763 47.1823 44.4656 47.4576C44.4946 47.5469 44.522 47.6382 44.5463 47.7297C44.6101 47.9697 44.9271 48.1111 45.0891 47.9228C45.2089 47.7835 45.4619 47.7281 45.5978 47.8519L45.8108 48.0459C45.9886 48.2078 46.2568 48.2188 46.4471 48.0719C46.528 48.0094 46.6131 47.9437 46.6889 47.8851C46.8114 47.7904 46.9791 47.7795 47.1083 47.8649C47.1556 47.8963 47.2082 47.932 47.2633 47.971C47.4583 48.1092 47.7735 47.9985 47.8354 47.7677C47.8541 47.6978 47.8754 47.6247 47.8996 47.5501C47.9717 47.3279 48.2637 47.3115 48.3299 47.5355C48.3722 47.6786 48.5957 47.7685 48.6959 47.6579C48.7379 47.6114 48.7855 47.5618 48.8368 47.5133C49.0377 47.3235 49.2514 47.5203 49.235 47.7962C49.2289 47.8977 49.2308 48 49.2467 48.0912C49.2801 48.2829 49.4983 48.316 49.6501 48.1942C49.8048 48.0701 50.0094 47.8632 50.2115 47.5312C50.403 47.2168 50.8743 47.1872 50.9904 47.5366C50.9997 47.5646 51.0087 47.5929 51.0175 47.6214C51.1042 47.9034 51.3698 48.1397 51.5969 47.9514C51.7964 47.7861 52.2178 47.6551 52.4078 47.8312C52.4636 47.8829 52.5209 47.9367 52.5767 47.99C52.7387 48.1449 52.9886 48.179 53.1662 48.0422C53.2717 47.961 53.3825 47.8666 53.4625 47.7756C53.5119 47.7192 53.5271 47.6448 53.5855 47.6918C53.6917 47.7771 54.2431 47.7522 54.3064 47.6315C54.3862 47.4796 54.4921 47.3178 54.6316 47.1674C54.773 47.015 54.9898 47.1764 54.9671 47.3831C54.9412 47.6186 54.9533 47.8768 55.076 48.0567C55.1461 48.1597 55.2867 48.1674 55.3937 48.1035C55.47 48.0579 55.561 47.9954 55.6454 47.9162C55.8216 47.7511 56.1072 47.5224 56.2081 47.7418C56.2821 47.9027 56.5011 48.1768 56.6433 48.0712C56.6736 48.0487 56.7038 48.0238 56.7327 47.9967C56.866 47.8713 57.0496 47.7671 57.2126 47.8502C57.2919 47.8906 57.3805 47.9427 57.4702 48.009C57.6316 48.1282 57.8508 48.1676 57.9918 48.0247C58.0634 47.952 58.14 47.8607 58.2084 47.7503C58.3434 47.5327 58.7026 47.4368 58.842 47.6516C58.8972 47.7367 58.9513 47.8257 58.9995 47.9145C59.0718 48.0477 59.1825 48.2735 59.2604 48.1436C59.3597 47.978 60.369 48.0267 60.4886 48.1782C60.5307 48.2316 60.5784 48.283 60.6323 48.3314Z" fill="#97C1FF"/>
<g id="Group_2">
<path id="Vector_2" d="M62.7151 22.2055C63.213 22.569 62.5627 23.2769 61.9462 23.2769H52.5258C51.6421 23.2769 50.7668 23.1888 51.1215 22.3795C51.5721 21.3514 54.0356 20.4956 55.0395 19.9935C55.588 19.7191 56.3663 19.556 57.4702 19.6534C58.017 19.7016 58.4583 19.7891 58.8133 19.9029C59.9111 20.2548 61.7841 21.5257 62.7151 22.2055Z" fill="white"/>
<path id="Vector_3" d="M7.9071 14.8878C7.6426 15.081 7.98805 15.457 8.31555 15.457H13.3199C13.7893 15.457 14.2543 15.4102 14.0659 14.9803C13.8265 14.4341 12.5178 13.9795 11.9845 13.7128C11.6931 13.5671 11.2797 13.4804 10.6933 13.5322C10.4029 13.5578 10.1685 13.6042 9.97992 13.6647C9.39673 13.8516 8.4017 14.5267 7.9071 14.8878Z" fill="white"/>
<path id="Vector_4" d="M10.6088 3.17088C10.0542 3.36744 10.5747 4.11355 11.1631 4.11355H23.3075C24.2482 4.11355 25.1898 3.55408 24.3886 3.06118C23.7248 2.65281 22.1918 2.42814 21.553 1.98176C21.355 1.84345 21.1214 1.72688 20.8489 1.65893C19.2631 1.26352 16.3573 0.611049 14.7358 0.815948C14.6854 0.822328 14.6339 0.829954 14.5815 0.838875C13.8168 0.969039 13.3057 1.23955 12.9647 1.55353C12.3096 2.1568 11.4482 2.87337 10.6088 3.17088Z" fill="white"/>
<path id="Vector_5" d="M59.0016 9.09281C59.8566 9.39588 59.054 10.5462 58.1469 10.5462H39.4232C37.9729 10.5462 36.5212 9.68359 37.7564 8.92365C38.7798 8.29407 41.1434 7.94767 42.1283 7.25943C42.4335 7.04618 42.7938 6.86644 43.2139 6.76168C45.6588 6.152 50.139 5.14605 52.6388 5.46207C52.7166 5.4719 52.7959 5.48365 52.8766 5.4974C54.0556 5.69807 54.8435 6.1151 55.3692 6.59913C56.3792 7.52922 57.7074 8.63408 59.0016 9.09281Z" fill="white"/>
</g>
</g>
<g id="Group_3">
<g id="Group_4">
<g id="Group_5">
<path id="Vector_6" d="M32.8942 39.6866C32.9814 39.7442 33.0714 39.7962 33.1644 39.8437C33.5511 40.0409 34.6711 40.5954 35.5512 40.8661C35.9708 40.9952 36.4009 40.8188 36.658 40.463C36.6694 40.4472 36.681 40.4311 36.6927 40.4147C37.0785 39.8759 37.8067 39.8009 38.4552 39.6645C38.8905 39.573 37.5089 37.5598 32.5362 35.754C32.4102 35.7082 32.2803 35.6658 32.1491 35.6385C31.8539 35.5771 31.3316 35.5075 31.3595 35.7914C31.411 36.316 31.703 36.8514 31.5334 37.3505C31.518 37.3956 31.5025 37.4414 31.4868 37.4876C31.3162 37.9887 31.4288 38.5436 31.8311 38.8876C32.1027 39.1198 32.4596 39.3996 32.8942 39.6866Z" fill="#FFC225"/>
<path id="Vector_7" d="M36.6257 38.7555C36.8004 38.8223 36.9089 38.8756 37.0431 38.7454C37.277 38.5184 37.1521 38.0757 37.2039 37.7539C37.2554 37.4348 36.9074 36.9492 36.8006 36.6441C36.7712 36.5604 36.7269 36.4784 36.6612 36.4068C36.4051 36.128 36.0271 35.8891 35.7066 35.6876C35.603 35.6224 35.4739 35.5711 35.3141 35.551C34.9989 35.5116 34.6725 35.4492 34.3665 35.364C34.2645 35.3356 34.1505 35.3178 34.0304 35.3232C33.6552 35.3401 33.2746 35.3428 32.9112 35.4376C32.7923 35.4686 32.5794 35.5905 32.4802 35.6631C32.4181 35.7085 32.3526 35.7782 32.3101 35.884C32.1571 36.2654 32.5052 36.6353 32.8546 36.8516C33.6048 37.3158 35.0553 38.1555 36.6257 38.7555Z" fill="#C65858"/>
<path id="Vector_8" d="M37.4099 39.0252C37.4099 39.0252 34.6401 38.2188 32.167 36.3979" stroke="#382544" stroke-width="0.75" stroke-miterlimit="10" stroke-linecap="round" stroke-linejoin="round"/>
<path id="Vector_9" d="M36.0802 37.6582C36.0802 37.6582 36.0087 36.9227 35.5381 37.0909" stroke="#382544" stroke-width="0.75" stroke-miterlimit="10" stroke-linecap="round" stroke-linejoin="round"/>
<path id="Vector_10" d="M34.5764 35.9297C34.5764 35.9297 34.6316 36.6457 34.0312 36.4513" stroke="#382544" stroke-width="0.75" stroke-miterlimit="10" stroke-linecap="round" stroke-linejoin="round"/>
<path id="Vector_11" d="M34.7396 37.0659C34.7396 37.0659 34.9125 37.5253 34.3047 37.285" stroke="#382544" stroke-width="0.75" stroke-miterlimit="10" stroke-linecap="round" stroke-linejoin="round"/>
<path id="Vector_12" d="M33.3802 36.0828C33.3802 36.0828 32.8381 35.7351 32.7256 36.0828" stroke="#382544" stroke-width="0.75" stroke-miterlimit="10" stroke-linecap="round" stroke-linejoin="round"/>
<path id="Vector_13" d="M36.8308 37.2159C36.8308 37.2159 37.0525 36.2766 36.0908 36.1748" stroke="#382544" stroke-width="0.75" stroke-miterlimit="10" stroke-linecap="round" stroke-linejoin="round"/>
<path id="Vector_14" d="M37.0438 38.1577C37.0438 38.1577 37.5337 38.4025 36.9043 38.8587" stroke="#382544" stroke-width="0.75" stroke-miterlimit="10" stroke-linecap="round" stroke-linejoin="round"/>
<path id="Vector_15" d="M34.8152 35.5833C34.8152 35.5833 34.1141 34.941 33.4248 35.5833" stroke="#382544" stroke-width="0.75" stroke-miterlimit="10" stroke-linecap="round" stroke-linejoin="round"/>
<path id="Vector_16" d="M38.4552 39.6641C38.4552 39.6641 37.7559 39.8242 35.3174 38.8584" stroke="#382544" stroke-width="0.75" stroke-miterlimit="10" stroke-linecap="round" stroke-linejoin="round"/>
<path id="Vector_17" d="M31.3594 35.792C31.3594 35.792 31.7224 36.7635 33.0113 37.574" stroke="#382544" stroke-width="0.75" stroke-miterlimit="10" stroke-linecap="round" stroke-linejoin="round"/>
<path id="Vector_18" d="M36.766 40.3115L36.2314 41.0143" stroke="#382544" stroke-width="0.75" stroke-miterlimit="10" stroke-linecap="round" stroke-linejoin="round"/>
<path id="Vector_19" d="M38.1243 38.9059C38.1243 38.9059 37.8295 38.59 37.4102 38.2622" stroke="#382544" stroke-width="0.75" stroke-miterlimit="10" stroke-linecap="round" stroke-linejoin="round"/>
</g>
<g id="Group_6">
<path id="Vector_20" d="M10.9481 53.2897C11.1548 52.2949 10.4281 51.3493 9.41366 51.293C8.64195 51.2501 7.9426 51.745 7.72644 52.4871L7.67663 52.6581C7.38249 53.6678 8.08464 54.6945 9.13231 54.7866C9.97504 54.8607 10.7398 54.2923 10.9119 53.464L10.9481 53.2897Z" fill="#FFC225"/>
<g id="Group_7">
<path id="Vector_21" d="M10.3147 51.7965C9.34633 52.54 9.25889 54.1747 8.25374 54.8677C7.45472 55.4187 6.08943 55.0292 5.23336 55.4865C4.83701 55.6983 4.40863 55.8749 4.01478 55.9287C2.8452 56.0884 2.89442 54.5723 3.83549 53.8597L7.87213 50.8029C8.69063 50.1831 9.85662 50.3442 10.4764 51.1627C10.6101 51.3391 10.5781 51.5901 10.4046 51.7275L10.3147 51.7965Z" fill="white"/>
<path id="Vector_22" d="M1.93832 54.109L8.41396 49.2052C8.61777 49.0509 8.90792 49.091 9.0622 49.2947C9.22352 49.5078 9.18159 49.8112 8.96854 49.9726L2.52641 54.8511C2.31341 55.0124 2.00999 54.9705 1.84866 54.7575C1.69453 54.5535 1.73451 54.2634 1.93832 54.109Z" fill="white"/>
<path id="Vector_23" d="M4.93164 55.6461C4.93164 55.6461 6.51841 54.9327 5.02324 52.9595" stroke="#382544" stroke-width="0.75" stroke-miterlimit="10" stroke-linecap="round" stroke-linejoin="round"/>
<path id="Vector_24" d="M8.32892 51.7788C8.10131 51.4781 8.16039 51.0499 8.46106 50.8221C8.76173 50.5944 9.18997 50.6536 9.41772 50.9543C9.64547 51.255 9.58625 51.6832 9.28558 51.9109C8.98491 52.1385 8.55667 52.0793 8.32892 51.7788Z" stroke="#382544" stroke-width="0.75" stroke-miterlimit="10" stroke-linecap="round" stroke-linejoin="round"/>
<path id="Vector_25" d="M2.98258 54.5056L2.41113 53.751" stroke="#382544" stroke-width="0.75" stroke-miterlimit="10" stroke-linecap="round" stroke-linejoin="round"/>
<path id="Vector_26" d="M4.82633 53.11L4.25488 52.3555" stroke="#382544" stroke-width="0.75" stroke-miterlimit="10" stroke-linecap="round" stroke-linejoin="round"/>
<path id="Vector_27" d="M6.66897 51.7136L6.09766 50.959" stroke="#382544" stroke-width="0.75" stroke-miterlimit="10" stroke-linecap="round" stroke-linejoin="round"/>
<path id="Vector_28" d="M8.51285 50.3181L7.94141 49.5635" stroke="#382544" stroke-width="0.75" stroke-miterlimit="10" stroke-linecap="round" stroke-linejoin="round"/>
<path id="Vector_29" d="M2.14062 55.1433L9.35416 49.6807" stroke="#382544" stroke-width="0.75" stroke-miterlimit="10" stroke-linecap="round" stroke-linejoin="round"/>
<path id="Vector_30" d="M6.69531 54.4963L6.82551 53.7759" stroke="#382544" stroke-width="0.75" stroke-miterlimit="10" stroke-linecap="round" stroke-linejoin="round"/>
<path id="Vector_31" d="M6.20312 54.8674L6.33333 54.147" stroke="#382544" stroke-width="0.75" stroke-miterlimit="10" stroke-linecap="round" stroke-linejoin="round"/>
<path id="Vector_32" d="M8.71582 53.024L10.045 52.0034" stroke="#382544" stroke-width="0.75" stroke-miterlimit="10" stroke-linecap="round" stroke-linejoin="round"/>
</g>
</g>
<g id="Group_8">
<path id="Vector_33" d="M24.9728 37.5442C25.6837 37.8703 26.2257 38.4813 26.8057 39.006C28.9421 40.9387 34.2763 46.2822 35.6165 52.5327C35.9283 53.9872 34.8223 55.36 33.3346 55.36H16.3496C15.1261 55.36 14.0409 55.0007 14.0011 53.7777C13.9769 53.0317 14.7183 52.1448 15.4324 51.9278C15.5493 51.8923 15.674 51.8547 15.8058 51.8154C19.3781 50.7506 21.8047 44.5569 20.385 41.1102C20.1392 40.5136 19.9587 39.9446 19.8695 39.4261C19.337 36.3303 23.1121 36.6909 24.9728 37.5442Z" fill="#382544"/>
<path id="Vector_34" d="M19.3145 37.5443C20.0254 37.8703 20.5674 38.4813 21.1474 39.006C23.2837 40.9387 28.618 46.2823 29.9582 52.5327C30.27 53.9872 29.1639 55.3601 27.6764 55.3601H9.56935C9.16408 55.3601 8.90658 54.9264 9.10167 54.5713C9.40452 54.0195 9.79773 53.0832 10.166 52.281C10.4677 51.6237 10.2082 51.4578 10.882 51.195C13.673 50.1066 16.586 44.9563 15.2433 42.2784C14.7424 41.2795 14.3612 40.2975 14.2114 39.4261C13.6785 36.3302 17.4537 36.6909 19.3145 37.5443Z" fill="#382544"/>
<path id="Vector_35" d="M28.161 55.3087C28.161 55.3087 30.7466 54.8197 29.7924 51.8392C28.8383 48.8588 27.1307 44.9251 22.7051 40.5029" stroke="white" stroke-width="0.75" stroke-miterlimit="10" stroke-linecap="round" stroke-linejoin="round"/>
<path id="Vector_36" d="M11.0938 55.3087C11.0938 55.3087 11.9461 52.8241 12.2909 50.6836" stroke="white" stroke-width="0.75" stroke-miterlimit="10" stroke-linecap="round" stroke-linejoin="round"/>
<path id="Vector_37" d="M15.4593 37.1011C15.4593 37.1011 16.2576 38.7931 17.4722 41.0788C19.5464 44.9821 16.4279 50.8453 12.0938 51.7132V51.7132" stroke="white" stroke-width="0.75" stroke-miterlimit="10" stroke-linecap="round" stroke-linejoin="round"/>
</g>
<g id="Group_9">
<path id="Vector_38" d="M29.4158 37.3248C29.5271 36.9894 29.8634 36.7894 30.2044 36.6964C30.7051 36.5597 31.5936 36.4509 32.8983 36.7664C33.9132 37.0117 33.4634 37.8751 32.5779 37.7243C32.5579 37.7208 32.5329 37.7209 32.5078 37.7234C32.4045 37.7339 32.4599 37.8071 32.5564 37.8454C32.93 37.9938 33.9818 38.3923 35.1054 38.6438C35.4489 38.7208 35.7848 38.8583 35.7345 39.3095C35.7298 39.3521 35.6281 39.8994 35.6306 39.9421C35.6333 39.9877 35.6271 40.0353 35.6107 40.0852C35.578 40.1848 35.5205 40.249 35.4446 40.2851C35.1734 40.4141 35.3686 40.1843 35.1781 40.4164C35.1742 40.4211 35.1762 40.419 35.1726 40.4239C34.9313 40.747 34.298 40.6083 33.9878 40.4817C33.9272 40.457 33.9061 40.3853 33.9374 40.3278C33.983 40.2443 34.1621 40.1815 34.249 40.2202C34.4554 40.3122 34.7179 40.4822 34.5263 40.7962C34.2003 41.3305 33.0223 40.8458 32.0544 40.3786C31.934 40.3205 31.8174 40.2583 31.7041 40.1875C31.0909 39.8044 29.0491 38.4299 29.4158 37.3248Z" fill="#FFC6BF"/>
<path id="Vector_39" d="M32.6523 38.4683C32.6523 38.4683 34.1123 39.2018 35.4011 39.5083C35.4214 39.5131 35.4415 39.5179 35.4623 39.5196C35.542 39.526 35.7477 39.5133 35.7391 39.2085C35.7283 38.8311 35.3099 38.6916 35.1056 38.6436" stroke="#382544" stroke-width="0.75" stroke-miterlimit="10" stroke-linecap="round" stroke-linejoin="round"/>
<path id="Vector_40" d="M32.5391 39.1011C32.5391 39.1011 33.8974 40.0534 35.2207 40.3206" stroke="#382544" stroke-width="0.75" stroke-miterlimit="10" stroke-linecap="round" stroke-linejoin="round"/>
<path id="Vector_41" d="M31.9854 39.4819C31.9854 39.4819 33.5024 40.5111 34.5078 40.6142" stroke="#382544" stroke-width="0.75" stroke-miterlimit="10" stroke-linecap="round" stroke-linejoin="round"/>
<path id="Vector_42" d="M33.4632 37.3594C33.4632 37.3594 33.4252 37.7606 32.7285 37.7402" stroke="#382544" stroke-width="0.75" stroke-miterlimit="10" stroke-linecap="round" stroke-linejoin="round"/>
<path id="Vector_43" d="M35.429 39.6118C35.429 39.6118 35.7377 39.8136 35.6108 40.0853V40.0853C35.5051 40.3119 35.1281 40.5707 34.8805 40.6057C34.8184 40.6145 34.745 40.6178 34.6582 40.6134" stroke="#382544" stroke-width="0.75" stroke-miterlimit="10" stroke-linecap="round" stroke-linejoin="round"/>
<path id="Vector_44" d="M30.2275 39.0605C30.2275 39.0605 30.9296 39.8434 32.3148 40.502" stroke="#382544" stroke-width="0.75" stroke-miterlimit="10" stroke-linecap="round" stroke-linejoin="round"/>
</g>
<g id="Group_10">
<g id="Group_11">
<path id="Vector_45" d="M35.6755 32.4714C35.8641 32.5284 36.0665 32.5127 36.2463 32.4321C36.8763 32.1494 38.3874 31.5178 38.7432 31.7904C39.1827 32.1272 38.7657 32.6889 39.3127 32.7752C39.4352 32.7945 39.5703 32.815 39.7193 32.8367C39.7244 32.8374 39.7289 32.8381 39.7339 32.8388C39.844 32.8538 41.2484 33.0558 41.187 33.5279C41.0914 34.263 40.2598 33.8807 40.1776 33.841C40.1729 33.8387 40.1686 33.837 40.1636 33.8354C40.0515 33.8 40.0904 33.6336 40.2072 33.6464C40.211 33.6468 40.2144 33.6473 40.2181 33.6482C40.312 33.6707 41.6481 34.0007 41.4867 34.5839C41.4543 34.701 41.3498 34.7684 41.2018 34.8008C40.8509 34.8776 41.0108 34.8452 40.9148 35.1913C40.7453 35.8026 39.6141 35.5133 39.6141 35.5133C39.6141 35.5133 40.2224 35.2263 40.0441 35.8387C39.9654 36.1092 39.6535 36.1315 39.4133 36.105C39.2138 36.083 39.0198 36.0257 38.8233 35.9853L37.0639 35.6235C37.0604 35.6228 37.0581 35.6223 37.0546 35.6216C36.9444 35.5985 34.6125 35.0941 34.4706 33.8265C34.4435 33.584 34.4496 33.3791 34.4775 33.2063C34.5677 32.6506 35.1368 32.3089 35.6755 32.4714Z" fill="#FFC6BF"/>
<path id="Vector_46" d="M40.9648 33.9151C40.9648 33.9151 39.2405 33.5553 38.1777 33.415" stroke="#382544" stroke-width="0.75" stroke-miterlimit="10" stroke-linecap="round" stroke-linejoin="round"/>
<path id="Vector_47" d="M40.7513 34.8169L38.0078 34.2251" stroke="#382544" stroke-width="0.75" stroke-miterlimit="10" stroke-linecap="round" stroke-linejoin="round"/>
<path id="Vector_48" d="M40.0699 35.5782L37.7539 35.0361" stroke="#382544" stroke-width="0.75" stroke-miterlimit="10" stroke-linecap="round" stroke-linejoin="round"/>
<path id="Vector_49" d="M36.5088 32.3172C36.5088 32.3172 37.9796 31.6408 38.6474 31.7454" stroke="#382544" stroke-width="0.75" stroke-miterlimit="10" stroke-linecap="round" stroke-linejoin="round"/>
</g>
<path id="Vector_50" d="M23.7605 19.373C23.776 19.3964 23.7889 19.4202 23.8028 19.4446C23.997 19.7852 25.5888 22.5993 27.4931 26.6327C28.0568 27.8266 28.9768 28.8198 30.1505 29.4244C31.1467 29.9375 32.4874 30.6168 33.996 31.351C35.3473 32.0087 36.1828 33.4301 35.4963 34.7669C35.3923 34.9695 35.1724 35.0846 34.9466 35.0543C33.4614 34.8545 28.4956 34.6276 25.0354 32.0511C24.9784 32.0086 24.9272 31.9612 24.8799 31.9082C24.553 31.5417 23.198 29.9686 22.1686 27.9736C20.9899 25.6894 20.5404 22.6177 20.5644 22.0104C20.6254 20.4564 23.1768 18.4973 23.7605 19.373Z" fill="#006DFF"/>
<path id="Vector_51" d="M28.3476 28.4806C28.3476 28.4806 26.6063 24.6557 25.3584 22.3242" stroke="#382544" stroke-width="0.75" stroke-miterlimit="10" stroke-linecap="round" stroke-linejoin="round"/>
<path id="Vector_52" d="M35.3984 32.0254C35.3984 32.0254 34.546 33.5005 34.4531 34.9966" stroke="#382544" stroke-width="0.75" stroke-miterlimit="10" stroke-linecap="round" stroke-linejoin="round"/>
<path id="Vector_53" d="M32.441 34.7526C32.441 34.7526 30.2229 34.4712 28.7646 33.9146" stroke="#382544" stroke-width="0.75" stroke-miterlimit="10" stroke-linecap="round" stroke-linejoin="round"/>
</g>
<g id="Group_12">
<path id="Vector_54" d="M26.8838 20.056C26.9001 20.0662 26.9157 20.076 26.9312 20.0875C27.1626 20.2591 28.9976 21.8164 27.3028 26.9632C26.6452 28.9602 26.0743 30.6201 25.7315 32.1625C24.9998 35.4547 23.2276 38.9768 19.8847 39.4228C19.6239 39.4576 19.357 39.4912 19.0843 39.5233C16.1055 39.8734 13.547 37.636 13.4925 34.6371C13.4289 31.1384 13.7147 26.5354 15.2448 22.9651C18.088 16.3313 23.9811 18.2462 26.8838 20.056Z" fill="#006DFF"/>
<path id="Vector_55" d="M27.7863 21.4751C27.7863 21.4751 28.4019 23.5549 27.487 26.3714C26.5721 29.188 25.6768 32.418 25.6768 32.418" stroke="#382544" stroke-width="0.75" stroke-miterlimit="10" stroke-linecap="round" stroke-linejoin="round"/>
<path id="Vector_56" d="M16.1731 21.2402C16.1731 21.2402 13.6487 25.3764 13.5322 31.6725" stroke="#382544" stroke-width="0.75" stroke-miterlimit="10" stroke-linecap="round" stroke-linejoin="round"/>
</g>
<g id="Group_13">
<path id="Vector_57" d="M21.3799 21.3076C20.2908 19.0342 16.7372 17.7232 16.8854 22.3427C17.0394 27.1414 18.5062 31.9982 19.0859 33.7468C19.2341 34.1935 19.4942 34.596 19.8494 34.905C22.7262 37.4068 26.2616 38.5017 28.3111 38.9549C29.3142 39.1767 30.5058 38.0487 30.6122 37.0268C30.6835 36.3414 30.3337 36.2837 29.7961 35.8526C28.4487 34.7719 27.2198 33.8488 26.2201 33.1236C24.6241 31.9658 23.6142 30.1471 23.3273 28.1964C23.034 26.2029 22.4675 23.5779 21.3799 21.3076Z" fill="#006DFF"/>
<path id="Vector_58" d="M17.7568 28.876C18.2321 31.0516 18.7817 32.8286 19.0862 33.7472C19.2344 34.194 19.4946 34.5965 19.8497 34.9055C20.6254 35.58 22.1765 36.7762 24.4954 37.7427" stroke="#382544" stroke-width="0.75" stroke-miterlimit="10" stroke-linecap="round" stroke-linejoin="round"/>
<path id="Vector_59" d="M17.7056 19.5444C17.1815 19.9624 16.837 20.8379 16.8854 22.3426C16.9468 24.2559 17.2169 26.1785 17.5563 27.9096" stroke="#382544" stroke-width="0.75" stroke-miterlimit="10" stroke-linecap="round" stroke-linejoin="round"/>
<path id="Vector_60" d="M25.7736 32.8018V32.8018C24.451 31.855 23.614 30.3552 23.4032 28.7423C23.1363 26.7008 22.5701 23.7918 21.38 21.3076C20.9967 20.5074 20.308 19.8265 19.583 19.4814" stroke="#382544" stroke-width="0.75" stroke-miterlimit="10" stroke-linecap="round" stroke-linejoin="round"/>
<path id="Vector_61" d="M30.0105 36.0249C30.0105 36.0249 29.2292 37.5632 29.0391 39.1021" stroke="#382544" stroke-width="0.75" stroke-miterlimit="10" stroke-linecap="round" stroke-linejoin="round"/>
</g>
<g id="Group_14">
<g id="Group_15">
<path id="Vector_62" d="M30.5747 17.3042C30.052 18.5936 28.6015 19.2513 27.4126 18.5986C27.0681 18.3572 26.5902 18.5651 26.5319 18.9817L26.3485 20.2914C26.3149 20.5319 26.218 20.764 26.0123 20.8931C25.7069 21.0847 25.1366 21.3103 24.2103 21.2193C23.075 21.1078 22.3528 20.4502 21.9308 19.8751C21.5384 19.3405 21.5901 18.6375 21.8673 18.0351L22.5167 16.6242C22.9559 15.6702 22.4808 13.8912 22.8514 12.9085C22.9873 12.5482 23.1317 12.3346 23.2728 12.2181C23.6138 11.9365 24.3661 11.924 24.5387 11.5168C24.8801 10.5841 25.9035 9.69956 27.48 10.0972C28.7235 10.3968 30.6265 10.8882 31.1314 12.0633C31.5542 13.0471 31.6441 14.6666 30.5747 17.3042Z" fill="#FFC6BF"/>
<path id="Vector_63" d="M26.6164 13.2181C26.7673 13.077 26.934 12.9887 27.1256 12.9179C27.3151 12.8479 27.5223 12.8126 27.7324 12.7997C27.9419 12.7965 28.1555 12.8116 28.3581 12.8599C28.4614 12.8801 28.5565 12.9168 28.6561 12.9453C28.7507 12.9826 28.8434 13.0222 28.9346 13.0648C29.0856 13.1354 29.147 13.2973 29.0719 13.4264C29.001 13.5481 28.8342 13.5973 28.6887 13.5432L28.6655 13.5344C28.5123 13.477 28.3636 13.4153 28.21 13.3746C28.0575 13.3277 27.9026 13.3017 27.7456 13.2858C27.5885 13.2692 27.4306 13.2778 27.2723 13.2983C27.1171 13.3185 26.9507 13.3655 26.8176 13.4185L26.7938 13.428C26.7199 13.4575 26.6303 13.4282 26.5936 13.3625C26.5657 13.3124 26.5769 13.2554 26.6164 13.2181Z" fill="#382544"/>
<path id="Vector_64" d="M23.8725 13.1289C23.8725 13.1289 23.9995 13.4171 23.7517 13.4366C23.2234 13.4781 23.7667 13.8389 23.5595 13.9498" stroke="#382544" stroke-width="0.75" stroke-miterlimit="10" stroke-linecap="round" stroke-linejoin="round"/>
<path id="Vector_65" d="M23.7899 12.6597C23.7899 12.6597 23.4324 12.1484 23.1475 13.2706" stroke="#382544" stroke-width="0.75" stroke-miterlimit="10" stroke-linecap="round" stroke-linejoin="round"/>
<g id="Group_16">
<g id="Clip path group">
<mask id="mask0_327_6646" style="mask-type:luminance" maskUnits="userSpaceOnUse" x="30" y="13" width="2" height="2">
<g id="SVGID_00000183250916816759004630000000292923930602569641_">
<path id="Vector_66" d="M31.3725 13.3656C31.4039 13.3863 31.4214 13.4216 31.4229 13.4592C31.4259 13.5396 31.4291 13.6993 31.4195 13.9142C31.4025 14.2931 31.0426 14.5474 30.67 14.4765L30.0864 14.3655C30.0349 14.3557 30.0018 14.3052 30.0134 14.254C30.0378 14.1462 30.886 13.2542 30.9964 13.258C31.1305 13.2626 31.2618 13.2928 31.3725 13.3656Z" fill="white"/>
</g>
</mask>
<g mask="url(#mask0_327_6646)">
<path id="Vector_67" d="M31.9544 14.6177C31.9264 14.4403 31.8671 14.3032 31.7857 14.1723C31.7053 14.0431 31.5999 13.9375 31.4834 13.8506C31.363 13.7723 31.2327 13.7085 31.0946 13.6777C31.0261 13.658 30.9553 13.6557 30.8854 13.6448C30.8147 13.6431 30.744 13.6443 30.673 13.6486C30.5555 13.6558 30.4513 13.7747 30.4404 13.9143C30.43 14.046 30.5061 14.149 30.6134 14.1542L30.6305 14.155C30.7437 14.1602 30.8562 14.16 30.9626 14.1799C31.0709 14.1941 31.1719 14.2273 31.2699 14.2699C31.3681 14.3121 31.4563 14.3764 31.5394 14.4513C31.6211 14.5248 31.6977 14.6259 31.7525 14.7201L31.7623 14.737C31.7928 14.7894 31.8574 14.7961 31.9064 14.7519C31.9442 14.7182 31.9616 14.6645 31.9544 14.6177Z" fill="#382544"/>
</g>
</g>
</g>
<path id="Vector_68" d="M25.419 18.3724C24.9899 17.7306 25.7048 17.2709 26.2967 17.7665L26.3857 17.8411C26.5559 17.9836 26.6406 18.2037 26.6098 18.4235C26.5407 18.9177 25.9825 19.119 25.6751 18.726C25.5903 18.6176 25.504 18.4995 25.419 18.3724Z" fill="#382544"/>
<g id="Group_17">
<path id="Vector_69" d="M29.6436 16.3577C29.8493 16.2857 29.9455 16.4196 30.0848 16.2419C30.1529 16.155 30.1516 16.0584 30.1325 15.9823C30.1081 15.8854 30.0416 15.8055 30.0026 15.7135C29.9296 15.5411 29.834 15.1915 29.8958 14.6167" stroke="#382544" stroke-width="0.75" stroke-miterlimit="10" stroke-linecap="round" stroke-linejoin="round"/>
<path id="Vector_70" d="M29.2425 16.0681C29.2425 16.0681 29.2058 15.9999 29.143 15.9926C29.0802 15.9853 29.0264 16.0788 29.0264 16.0788" stroke="#382544" stroke-width="0.75" stroke-miterlimit="10" stroke-linecap="round" stroke-linejoin="round"/>
<path id="Vector_71" d="M28.9725 15.5771C28.9725 15.5771 28.6358 15.68 28.7715 16.0819" stroke="#382544" stroke-width="0.75" stroke-miterlimit="10" stroke-linecap="round" stroke-linejoin="round"/>
</g>
<path id="Vector_72" d="M29.0447 17.2591C29.0447 17.2591 27.9659 17.3415 27.8379 16.1436" stroke="#382544" stroke-width="0.75" stroke-miterlimit="10" stroke-linecap="round" stroke-linejoin="round"/>
<g id="Group_18">
<g id="Clip path group_2">
<mask id="mask1_327_6646" style="mask-type:luminance" maskUnits="userSpaceOnUse" x="29" y="14" width="3" height="3">
<g id="SVGID_00000055692416124281994090000018031739475082963390_">
<path id="Vector_73" d="M30.5972 14.6334C30.9017 14.5821 31.3254 14.8811 31.2688 15.1846C31.245 15.3122 31.2146 15.4551 31.1765 15.604C31.0745 16.0018 30.6574 16.2325 30.2984 16.0333C30.1821 15.9687 30.0693 15.8884 29.9787 15.7892C29.669 15.4504 30.1444 14.7096 30.5972 14.6334Z" fill="white"/>
</g>
</mask>
<g mask="url(#mask1_327_6646)">
<g id="Group_19">
<path id="Vector_74" d="M30.6049 16.075C29.9059 15.7884 29.9654 14.8847 30.7206 14.8647C31.4621 14.8452 31.5378 16.2601 30.8073 16.1317C30.7866 16.1281 30.7658 16.1239 30.7447 16.1191C30.6953 16.1079 30.6487 16.0929 30.6049 16.075Z" fill="white"/>
<g id="Group_20">
<g id="Group_21">
<g id="Clip path group_3">
<mask id="mask2_327_6646" style="mask-type:luminance" maskUnits="userSpaceOnUse" x="30" y="14" width="2" height="3">
<g id="SVGID_00000183971582624277685180000005067482878068082618_">
<path id="Vector_75" d="M30.6049 16.075C29.9059 15.7884 29.9654 14.8847 30.7206 14.8647C31.4621 14.8452 31.5378 16.2601 30.8073 16.1317C30.7866 16.1281 30.7658 16.1239 30.7447 16.1191C30.6953 16.1079 30.6487 16.0929 30.6049 16.075Z" fill="white"/>
</g>
</mask>
<g mask="url(#mask2_327_6646)">
<path id="Vector_76" d="M31.566 15.9199C31.4673 16.2817 31.094 16.4952 30.7322 16.3965C30.3702 16.2979 30.1569 15.9246 30.2555 15.5628C30.3542 15.2009 30.7275 14.9874 31.0893 15.0861C31.4513 15.1846 31.6646 15.5579 31.566 15.9199Z" fill="#382544"/>
</g>
</g>
</g>
</g>
<path id="Vector_77" d="M31.9436 15.7651C31.9436 15.7651 31.4992 14.3161 29.9297 15.0659" stroke="#382544" stroke-width="0.75" stroke-miterlimit="10" stroke-linecap="round" stroke-linejoin="round"/>
</g>
</g>
</g>
</g>
<g id="Group_22">
<path id="Vector_78" d="M27.5756 15.1321C26.8767 14.8454 26.9362 13.9418 27.6913 13.9219C28.4328 13.9023 28.5086 15.3172 27.778 15.1889C27.7573 15.1852 27.7365 15.181 27.7155 15.1763C27.666 15.165 27.6195 15.1501 27.5756 15.1321Z" fill="white"/>
<g id="Group_23">
<g id="Group_24">
<g id="Clip path group_4">
<mask id="mask3_327_6646" style="mask-type:luminance" maskUnits="userSpaceOnUse" x="27" y="13" width="2" height="3">
<g id="SVGID_00000153690022253352745110000001130833264958087312_">
<path id="Vector_79" d="M27.5756 15.134C26.8767 14.8474 26.9362 13.9438 27.6913 13.9238C28.4328 13.9043 28.5086 15.3191 27.778 15.1908C27.7573 15.1872 27.7365 15.183 27.7155 15.1782C27.666 15.1669 27.6195 15.152 27.5756 15.134Z" fill="white"/>
</g>
</mask>
<g mask="url(#mask3_327_6646)">
<path id="Vector_80" d="M28.6822 15.0024C28.5835 15.3642 28.2102 15.5777 27.8484 15.4791C27.4866 15.3804 27.2731 15.0071 27.3717 14.6453C27.4704 14.2834 27.8437 14.07 28.2057 14.1686C28.5675 14.2671 28.7808 14.6406 28.6822 15.0024Z" fill="#382544"/>
</g>
</g>
</g>
</g>
<path id="Vector_81" d="M28.9143 14.8222C28.9143 14.8222 28.4699 13.3733 26.9004 14.1231" stroke="#382544" stroke-width="0.75" stroke-miterlimit="10" stroke-linecap="round" stroke-linejoin="round"/>
</g>
<path id="Vector_82" d="M24.0834 11.7247C24.0339 12.2159 24.1771 12.7092 24.1787 13.2029C24.1793 13.3666 24.1725 13.5306 24.152 13.6638C24.0849 14.0997 24.9123 14.2451 25.1099 13.6137C25.3075 12.9824 26.0147 12.2511 26.4994 12.2529C26.8135 12.2541 27.905 12.5229 28.8132 12.4807C29.4048 12.4532 30.1583 12.4426 30.5765 12.8619C30.8741 13.1602 31.5367 13.0885 31.5543 12.6675C31.5788 12.0844 31.4231 11.2684 30.5529 10.6625C29.0417 9.61028 25.7503 8.73401 24.7598 10.0941C24.2888 10.741 24.1253 11.308 24.0834 11.7247Z" fill="#382544"/>
</g>
<g id="Group_25">
<g id="Group_26">
<path id="Vector_83" d="M28.9584 12.0164C30.4739 11.9514 31.6455 10.2397 30.6817 9.06844C30.0051 8.24628 26.7744 8.05271 25.7607 8.30979C23.6829 8.83675 25.2756 11.7484 27.4081 11.9663C27.9027 12.0168 28.4252 12.0393 28.9584 12.0164Z" fill="#FF7529"/>
<path id="Vector_84" d="M23.4483 11.5365C23.3137 11.8966 23.5394 12.1901 23.8056 12.3498C24.2002 12.5865 25.0159 12.9427 26.217 12.7699C28.6195 12.4241 31.6942 13.6106 32.039 13.343C32.3837 13.0754 32.2443 12.2377 31.9758 11.8237C31.7073 11.4097 31.3042 11.2267 30.1755 11.3428C29.0469 11.4589 25.0152 11.1567 24.4524 10.9349C23.917 10.7237 23.6906 10.8884 23.4483 11.5365Z" fill="#FF7529"/>
<path id="Vector_85" d="M25.6586 11.1355C25.0689 11.07 24.6152 10.999 24.4522 10.9348C23.9167 10.7238 23.6904 10.8884 23.4482 11.5365" stroke="#382544" stroke-width="0.75" stroke-miterlimit="10" stroke-linecap="round" stroke-linejoin="round"/>
<path id="Vector_86" d="M30.1756 11.3439C29.4543 11.4181 27.5476 11.3215 26.1182 11.1841" stroke="#382544" stroke-width="0.75" stroke-miterlimit="10" stroke-linecap="round" stroke-linejoin="round"/>
<path id="Vector_87" d="M31.9762 11.8238C31.7475 11.4711 31.4211 11.2861 30.6318 11.3108" stroke="#382544" stroke-width="0.75" stroke-miterlimit="10" stroke-linecap="round" stroke-linejoin="round"/>
<path id="Vector_88" d="M31.0527 11.3154C31.0527 11.3154 32.0733 11.9533 31.2837 13.2967" stroke="#382544" stroke-width="0.75" stroke-miterlimit="10" stroke-linecap="round" stroke-linejoin="round"/>
<path id="Vector_89" d="M29.4727 11.3691C29.4727 11.3691 30.2972 11.5604 29.7578 12.9657" stroke="#382544" stroke-width="0.75" stroke-miterlimit="10" stroke-linecap="round" stroke-linejoin="round"/>
<path id="Vector_90" d="M27.9863 11.3218C27.9863 11.3218 28.1551 11.4744 27.9023 12.7353" stroke="#382544" stroke-width="0.75" stroke-miterlimit="10" stroke-linecap="round" stroke-linejoin="round"/>
<path id="Vector_91" d="M26.4063 11.2104C26.4063 11.2104 25.7888 11.723 26.1026 12.7521" stroke="#382544" stroke-width="0.75" stroke-miterlimit="10" stroke-linecap="round" stroke-linejoin="round"/>
<path id="Vector_92" d="M25.0228 11.0562C25.0228 11.0562 24.0595 11.7379 24.5762 12.6552" stroke="#382544" stroke-width="0.75" stroke-miterlimit="10" stroke-linecap="round" stroke-linejoin="round"/>
<path id="Vector_93" d="M31.1826 10.1594C31.1826 10.1594 31.1136 8.80089 29.6621 8.53564" stroke="#382544" stroke-width="0.75" stroke-miterlimit="10" stroke-linecap="round" stroke-linejoin="round"/>
<path id="Vector_94" d="M27.1961 8.20634C27.1961 8.20634 25.0951 7.79872 24.3164 9.55983" stroke="#382544" stroke-width="0.75" stroke-miterlimit="10" stroke-linecap="round" stroke-linejoin="round"/>
</g>
</g>
<g id="Group_27">
<path id="Vector_95" d="M27.0183 20.853C26.8779 20.6478 26.7973 20.4075 26.7918 20.159C26.7856 19.8729 26.7843 19.5228 26.807 19.3233C26.8503 18.9448 25.0773 19.5611 24.126 18.7719C23.1747 17.9828 22.5369 16.6963 21.6937 17.0422C20.8505 17.3881 21.1888 18.1232 20.7494 18.3935C20.3099 18.6637 20.6343 19.8756 23.1748 21.2155C25.5262 22.4558 27.6646 21.7979 27.0183 20.853Z" fill="#006DFF"/>
<path id="Vector_96" d="M20.5849 18.6509C20.5849 18.6509 20.4402 20.0001 23.7265 21.4744" stroke="#382544" stroke-width="0.75" stroke-miterlimit="10" stroke-linecap="round" stroke-linejoin="round"/>
<path id="Vector_97" d="M26.7921 19.5444C26.7921 19.5444 26.7604 19.7559 26.7756 20.0292C26.8078 20.6049 27.3658 21.2278 26.9133 21.5852C26.9072 21.59 26.901 21.5949 26.8946 21.5997" stroke="#382544" stroke-width="0.75" stroke-miterlimit="10" stroke-linecap="round" stroke-linejoin="round"/>
<path id="Vector_98" d="M23.2295 17.8627C23.2295 17.8627 22.3762 16.7744 21.6934 17.0425" stroke="#382544" stroke-width="0.75" stroke-miterlimit="10" stroke-linecap="round" stroke-linejoin="round"/>
</g>
<path id="Vector_99" d="M26.3415 21.8306C26.3415 21.8306 25.6706 22.0097 24.6045 21.7612" stroke="#382544" stroke-width="0.75" stroke-miterlimit="10" stroke-linecap="round" stroke-linejoin="round"/>
</g>
<path id="Vector_100" d="M32.6162 37.8687C32.6162 37.8687 33.978 38.3814 35.0694 38.6294" stroke="#382544" stroke-width="0.75" stroke-miterlimit="10" stroke-linecap="round" stroke-linejoin="round"/>
</g>
<g id="Group_28">
<g id="Group_29">
<path id="Vector_101" d="M57.615 52.789C57.8869 52.8485 58.133 52.9887 58.4026 53.0578C59.3888 53.3106 61.9203 53.6015 62.6175 50.2058C63.4892 45.9595 60.9303 44.9598 61.9989 44.2785C62.6264 43.8785 63.3897 44.4697 63.9243 45.2082C64.1846 45.5678 65.5134 45.8679 65.9077 46.0719C66.4061 46.3296 66.4949 47.2807 66.3281 48.2317C66.2229 48.8317 67.0007 49.9452 67.117 50.5431C67.3132 51.5519 65.8898 56.8885 57.255 54.8399C57.1947 54.8256 57.1324 54.81 57.0747 54.7873C56.8194 54.6867 56.1151 54.3182 56.4871 53.4116C56.7607 52.7445 57.2633 52.7121 57.615 52.789Z" fill="#AD4444"/>
<path id="Vector_102" d="M62.3217 46.1035C62.3217 46.1035 63.8205 49.3127 61.4619 52.4857" stroke="#382544" stroke-width="0.75" stroke-miterlimit="10" stroke-linecap="round" stroke-linejoin="round"/>
<path id="Vector_103" d="M65.7393 49.8685C65.7393 49.8685 66.7978 48.078 66.2212 46.4126" stroke="#382544" stroke-width="0.75" stroke-miterlimit="10" stroke-linecap="round" stroke-linejoin="round"/>
<path id="Vector_104" d="M66.8194 52.0586C66.8194 52.0586 65.7296 55.3935 60.5469 55.3008" stroke="#382544" stroke-width="0.75" stroke-miterlimit="10" stroke-linecap="round" stroke-linejoin="round"/>
</g>
<g id="Group_30">
<path id="Vector_105" d="M48.905 34.3554C49.3966 35.7374 49.92 37.0994 50.8633 38.0638C53.2336 40.4877 61.222 45.8753 57.8378 54.2771C57.7913 54.3927 57.7386 54.5105 57.6567 54.6044C57.4447 54.8476 56.8813 55.2988 55.6195 55.2988H49.0218C48.0501 55.2988 46.5542 54.8898 47.1027 54.0877C47.1593 54.0048 47.2348 53.9189 47.3326 53.8304C47.4257 53.7461 48.0861 51.993 48.0455 51.8742C47.901 51.4507 47.8367 50.9416 47.9192 50.3357C47.9272 50.277 47.9036 50.2168 47.857 50.1802C47.8485 50.1735 47.8394 50.1664 47.8298 50.1587C47.662 50.0249 47.2881 50.1561 47.27 50.3699C47.2091 51.0924 47.0798 52.211 46.8236 53.0547C46.4713 54.2145 45.9563 54.2391 45.6945 54.907C45.6024 55.1421 45.3835 55.3028 45.131 55.3028H41.8802C41.6268 55.3028 41.3987 55.1446 41.3154 54.9053C41.2119 54.6081 41.2069 54.1922 41.7118 53.8302C41.7742 53.7855 41.8372 53.7458 41.9004 53.7106C42.8544 53.1797 44.247 53.0543 44.3926 51.9723C44.5248 50.9906 44.1739 47.7812 43.9529 46.7617C43.7319 45.7423 41.4264 44.9249 41.4727 41.1514C41.4822 40.3796 44.862 33.2551 45.5588 32.9229C46.9431 32.2632 48.3056 32.2967 48.905 34.3554Z" fill="#AD4444"/>
<path id="Vector_106" d="M51.9342 47.4595C51.9342 47.4595 48.4914 46.9637 47.9121 50.3972" stroke="#382544" stroke-width="0.75" stroke-miterlimit="10" stroke-linecap="round" stroke-linejoin="round"/>
<path id="Vector_107" d="M47.2842 50.1933C47.2842 50.1933 47.66 46.5393 47.6045 44.4624" stroke="#382544" stroke-width="0.75" stroke-miterlimit="10" stroke-linecap="round" stroke-linejoin="round"/>
<path id="Vector_108" d="M43.4512 43.7979C43.4512 43.7979 43.9645 46.3797 44.1341 47.8734" stroke="#382544" stroke-width="0.75" stroke-miterlimit="10" stroke-linecap="round" stroke-linejoin="round"/>
<path id="Vector_109" d="M49.7148 53.6802L51.1765 54.1733" stroke="#382544" stroke-width="0.75" stroke-miterlimit="10" stroke-linecap="round" stroke-linejoin="round"/>
<path id="Vector_110" d="M47.5426 55.3C47.5426 55.3 47.0892 53.7888 47.9122 53.8198" stroke="#382544" stroke-width="0.75" stroke-miterlimit="10" stroke-linecap="round" stroke-linejoin="round"/>
<path id="Vector_111" d="M48.2467 55.3C48.2467 55.3 47.7933 53.7888 48.6163 53.8198" stroke="#382544" stroke-width="0.75" stroke-miterlimit="10" stroke-linecap="round" stroke-linejoin="round"/>
<path id="Vector_112" d="M41.9166 55.3C41.9166 55.3 41.4632 53.7888 42.2862 53.8198" stroke="#382544" stroke-width="0.75" stroke-miterlimit="10" stroke-linecap="round" stroke-linejoin="round"/>
<path id="Vector_113" d="M42.6207 55.3C42.6207 55.3 42.1673 53.7888 42.9903 53.8198" stroke="#382544" stroke-width="0.75" stroke-miterlimit="10" stroke-linecap="round" stroke-linejoin="round"/>
<path id="Vector_114" d="M58.6513 50.6782C58.6513 50.6782 59.1235 46.625 55.3826 42.4752C55.3752 42.467 55.3688 42.4599 55.3614 42.4517C55.2263 42.3014 53.7307 40.6466 52.041 39.1655" stroke="#382544" stroke-width="0.75" stroke-miterlimit="10" stroke-linecap="round" stroke-linejoin="round"/>
<path id="Vector_115" d="M41.8238 37.4136C41.8238 37.4136 41.9081 37.9283 41.6195 39.261C41.3308 40.5936 41.4475 42.4799 41.8238 43.5191" stroke="#382544" stroke-width="0.75" stroke-miterlimit="10" stroke-linecap="round" stroke-linejoin="round"/>
<path id="Vector_116" d="M58.391 52.543C58.391 52.543 57.9805 54.6413 57.2725 54.9201" stroke="#382544" stroke-width="0.75" stroke-miterlimit="10" stroke-linecap="round" stroke-linejoin="round"/>
</g>
<g id="Group_31">
<path id="Vector_117" d="M48.603 33.4781C48.5895 33.4502 48.5753 33.4239 48.5606 33.3966C48.4 33.0993 47.3807 31.2064 47.0922 30.5446C46.7785 29.8257 45.0509 27.8826 42.2477 29.0731C39.4447 30.2636 40.4495 32.086 38.0858 32.7012C35.7221 33.3165 36.4969 34.0281 36.6484 34.5514C36.8 35.0747 37.3042 36.203 39.2178 36.0828C41.1314 35.9626 42.3943 36.8117 43.1901 38.8419C43.9818 40.8613 49.8551 36.0528 48.603 33.4781Z" fill="#AD4444"/>
<g id="Group_32">
<path id="Vector_118" d="M45.7231 29.868C45.7519 29.9168 45.7737 29.9665 45.7981 30.0177C46.0579 30.563 47.636 33.9614 47.185 35.1413C46.6941 36.4257 44.4746 39.6521 43.5431 36.5267C42.6116 33.4013 42.4506 30.6006 43.0371 30.0302C43.6062 29.4769 45.2581 29.0822 45.7231 29.868Z" fill="#AD4444"/>
<path id="Vector_119" d="M43.3722 36.5492C42.4407 33.4238 42.2797 30.6231 42.8662 30.0527C43.2379 29.6913 44.0714 29.3976 44.7344 29.4562" stroke="#382544" stroke-width="0.75" stroke-miterlimit="10" stroke-linecap="round" stroke-linejoin="round"/>
<path id="Vector_120" d="M45.5912 29.9668C45.5912 29.9668 47.5048 33.8802 47.0139 35.1646C46.588 36.279 44.861 38.8549 43.8027 37.4768" stroke="#382544" stroke-width="0.75" stroke-miterlimit="10" stroke-linecap="round" stroke-linejoin="round"/>
</g>
<path id="Vector_121" d="M36.2565 33.4227C36.4508 33.1664 37.1352 33.1125 37.4085 33.282C37.4819 33.3275 37.5527 33.384 37.6106 33.4535C37.6313 33.4784 37.6424 33.5062 37.6453 33.5361C37.7303 34.4281 35.7152 34.1367 36.2565 33.4227Z" fill="#382544"/>
<g id="Group_33">
<path id="Vector_122" d="M41.2212 33.0967C42.0783 33.1032 42.4123 32.1316 41.6308 31.7795C40.8635 31.4338 40.1636 32.8812 40.9844 33.0674C41.0076 33.0727 41.0312 33.0774 41.0553 33.0816C41.1121 33.0915 41.1674 33.0963 41.2212 33.0967Z" fill="white"/>
<g id="Group_34">
<g id="Group_35">
<g id="Clip path group_5">
<mask id="mask4_327_6646" style="mask-type:luminance" maskUnits="userSpaceOnUse" x="40" y="31" width="3" height="3">
<g id="SVGID_00000035526189498884947230000013357719592855994509_">
<path id="Vector_123" d="M41.2212 33.0982C42.0783 33.1047 42.4123 32.1331 41.6308 31.781C40.8635 31.4352 40.1636 32.8827 40.9844 33.0689C41.0076 33.0741 41.0312 33.0789 41.0553 33.0831C41.1121 33.093 41.1674 33.0978 41.2212 33.0982Z" fill="white"/>
</g>
</mask>
<g mask="url(#mask4_327_6646)">
<path id="Vector_124" d="M39.9217 32.3679C39.8662 32.7898 40.1632 33.1769 40.5852 33.2324C41.007 33.2879 41.3942 32.9908 41.4497 32.569C41.5052 32.1469 41.2081 31.7599 40.7862 31.7044C40.3643 31.6488 39.9772 31.9459 39.9217 32.3679Z" fill="#382544"/>
</g>
</g>
</g>
</g>
<path id="Vector_125" d="M39.9561 32.1844C39.9561 32.1844 41.0566 30.8631 42.3701 32.336" stroke="#382544" stroke-width="0.75" stroke-miterlimit="10" stroke-linecap="round" stroke-linejoin="round"/>
</g>
<path id="Vector_126" d="M41.9425 31.1425C41.7502 31.2897 41.5185 30.9512 41.29 30.8713C41.1586 30.8254 41.0132 30.779 40.9003 30.7546C40.6287 30.6958 40.9311 30.3699 41.2519 30.474C41.5729 30.578 42.0248 31.0797 41.9425 31.1425Z" fill="#382544"/>
<path id="Vector_127" d="M36.5908 34.3955C36.5908 34.3955 37.0642 35.7772 38.0106 35.4813C38.957 35.1854 38.7399 34.3042 38.7399 34.3042" stroke="#382544" stroke-width="0.75" stroke-miterlimit="10" stroke-linecap="round" stroke-linejoin="round"/>
<path id="Vector_128" d="M40.2338 30.749C40.2338 30.749 39.3796 32.528 38.2881 32.6431" stroke="#382544" stroke-width="0.75" stroke-miterlimit="10" stroke-linecap="round" stroke-linejoin="round"/>
</g>
</g>
</g>
</g>
</svg>
