<svg width="52" height="64" viewBox="0 0 52 64" fill="none" xmlns="http://www.w3.org/2000/svg">
<g id="Group 48095864">
<path id="Vector" d="M30.2763 63.26C30.3686 61.6592 30.9052 60.1197 31.8219 58.8254C32.7386 57.5311 33.9966 56.5369 35.4457 55.9614C34.0485 58.1221 33.3017 60.6617 33.2996 63.26H30.2763Z" fill="#85BD79"/>
<path id="Vector_2" d="M33.2995 63.7665H30.2762C30.1463 63.7665 30.0217 63.7132 29.9298 63.6182C29.8379 63.5233 29.7863 63.3946 29.7863 63.2603C29.8891 61.5604 30.4598 59.9262 31.4311 58.5499C32.4024 57.1735 33.734 56.1123 35.2693 55.491C35.3651 55.4528 35.4701 55.4466 35.5694 55.4734C35.6688 55.5002 35.7575 55.5585 35.823 55.6402C35.8886 55.7219 35.9276 55.8227 35.9346 55.9286C35.9416 56.0344 35.9163 56.1398 35.8622 56.23C34.5098 58.3087 33.7866 60.7559 33.7846 63.2603C33.7846 63.3937 33.7336 63.5217 33.6428 63.6165C33.552 63.7112 33.4286 63.7652 33.2995 63.7665ZM30.8054 62.7542H32.8242C32.8855 60.8157 33.3589 58.9149 34.2109 57.1866C33.2863 57.804 32.5028 58.6217 31.9148 59.5831C31.3267 60.5445 30.9482 61.6266 30.8054 62.7542Z" fill="#333736"/>
<path id="Vector_3" d="M38.4396 55.6688C38.544 53.8485 39.1542 52.0979 40.197 50.6266C41.2398 49.1553 42.6711 48.0257 44.3195 47.373C42.7283 49.828 41.8759 52.7144 41.8695 55.6688H38.4396Z" fill="#85BD79"/>
<path id="Vector_4" d="M41.8744 56.1745H38.4445C38.3145 56.1745 38.1899 56.1212 38.098 56.0262C38.0061 55.9313 37.9545 55.8026 37.9545 55.6683C38.0717 53.751 38.7164 51.908 39.8126 50.356C40.9089 48.804 42.4112 47.6074 44.1431 46.907C44.2388 46.8667 44.3443 46.8588 44.4446 46.8842C44.5449 46.9097 44.6349 46.9672 44.7017 47.0487C44.7681 47.1315 44.8072 47.2341 44.8134 47.3415C44.8196 47.4489 44.7924 47.5555 44.736 47.6459C43.1911 50.0174 42.3638 52.8099 42.3595 55.6683C42.3595 55.8017 42.3086 55.9297 42.2177 56.0245C42.1269 56.1192 42.0035 56.1732 41.8744 56.1745ZM38.9639 55.1622H41.4138C41.4839 52.865 42.0603 50.6146 43.0994 48.5823C41.9744 49.286 41.0181 50.2434 40.3019 51.3829C39.5857 52.5223 39.1283 53.8143 38.9639 55.1622Z" fill="#333736"/>
<path id="Vector_5" d="M40.718 55.6683C40.6381 54.2581 40.1661 52.9017 39.3587 51.7615C38.5514 50.6214 37.4428 49.746 36.166 49.2402C37.3989 51.1424 38.0588 53.3791 38.0622 55.6683H40.718Z" fill="#85BD79"/>
<path id="Vector_6" d="M40.7181 56.1741H38.0623C37.9324 56.1741 37.8077 56.1208 37.7159 56.0259C37.624 55.931 37.5723 55.8022 37.5723 55.668C37.5684 53.4783 36.9339 51.3394 35.7496 49.5234C35.6938 49.4324 35.6675 49.3255 35.6745 49.2181C35.6816 49.1107 35.7216 49.0084 35.7888 48.9261C35.8555 48.8447 35.9455 48.7871 36.0458 48.7617C36.1461 48.7362 36.2517 48.7442 36.3474 48.7844C37.7172 49.3202 38.9064 50.2564 39.7696 51.4789C40.6328 52.7013 41.1326 54.1569 41.2081 55.668C41.2081 55.8022 41.1565 55.931 41.0646 56.0259C40.9727 56.1208 40.848 56.1741 40.7181 56.1741ZM38.5376 55.1618H40.1938C40.0699 54.2275 39.7578 53.3303 39.2776 52.5283C38.7974 51.7262 38.1597 51.0371 37.4057 50.5053C38.0899 51.9602 38.4752 53.5456 38.5376 55.1618Z" fill="#333736"/>
<path id="Vector_7" d="M13.7587 25.8053L13.7097 28.7814L9.59375 31.6664L7.86898 33.853L6.5362 36.5862C6.50298 36.6531 6.48361 36.7263 6.47931 36.8014C6.47501 36.8764 6.48588 36.9516 6.51123 37.022C6.53658 37.0925 6.57585 37.1567 6.62655 37.2107C6.67724 37.2646 6.73825 37.307 6.80569 37.3353C7.18065 37.5214 7.59704 37.6003 8.01155 37.5638C8.42605 37.5273 8.82351 37.3768 9.16256 37.1277C9.989 36.4093 10.5356 35.406 10.7011 34.3035L15.4933 31.1653L19.766 24.793" fill="#CD9F61"/>
<path id="Vector_8" d="M7.8543 38.0745C7.42284 38.0696 6.99656 37.9767 6.59992 37.8012C6.46941 37.7468 6.35127 37.665 6.25303 37.5609C6.15478 37.4568 6.07859 37.3328 6.02927 37.1966C5.97996 37.0605 5.95862 36.9152 5.9666 36.7701C5.97458 36.625 6.01171 36.4831 6.07563 36.3536L7.43781 33.6457C7.45291 33.6153 7.47097 33.5864 7.49171 33.5597L9.21648 31.3732C9.24619 31.3362 9.28084 31.3038 9.31938 31.277L13.2393 28.5489L13.1168 24.7933C13.1168 24.659 13.1684 24.5303 13.2603 24.4354C13.3522 24.3404 13.4769 24.2871 13.6068 24.2871C13.7368 24.2871 13.8614 24.3404 13.9533 24.4354C14.0452 24.5303 14.0968 24.659 14.0968 24.7933L14.1997 28.8424C14.2012 28.9257 14.1827 29.0081 14.146 29.0823C14.1092 29.1565 14.0553 29.2201 13.989 29.2676L9.93187 32.1121L8.28059 34.2025L6.94782 36.8648L6.97231 36.9205C7.26899 37.0717 7.59938 37.1383 7.92931 37.1133C8.25925 37.0884 8.57675 36.9729 8.84898 36.7788C9.57138 36.1406 10.0507 35.258 10.2014 34.2886C10.2107 34.2157 10.2352 34.1458 10.2733 34.0838C10.3114 34.0217 10.3621 33.969 10.4219 33.9292L15.1307 30.8468L19.3789 24.5706C19.4583 24.4761 19.5687 24.4153 19.6889 24.4C19.8091 24.3846 19.9306 24.4158 20.0298 24.4875C20.129 24.5592 20.1991 24.6664 20.2264 24.7882C20.2537 24.9101 20.2363 25.0381 20.1776 25.1476L15.8706 31.4541C15.8305 31.5071 15.7825 31.5533 15.7285 31.5908L11.1176 34.6277C10.9025 35.7743 10.3063 36.8073 9.43208 37.5481C8.97715 37.8993 8.42216 38.0845 7.8543 38.0745Z" fill="#333736"/>
<path id="Vector_9" d="M36.7197 16.6037L39.0912 18.2942L43.7756 16.5126L46.5048 16.3354L49.4448 16.7707C49.5172 16.7819 49.5866 16.8086 49.6484 16.8491C49.7103 16.8896 49.7632 16.9431 49.8038 17.006C49.8445 17.0689 49.8719 17.14 49.8843 17.2145C49.8967 17.2891 49.8939 17.3655 49.876 17.4388C49.8022 17.8609 49.6214 18.2553 49.352 18.5816C49.0826 18.9079 48.7341 19.1546 48.3423 19.2964C47.2951 19.5719 46.1868 19.4479 45.221 18.9472L39.9291 21.1489L32.4175 21.0679" fill="#CD9F61"/>
<path id="Vector_10" d="M39.9291 21.6505L32.4175 21.5695C32.2876 21.5695 32.163 21.5162 32.0711 21.4213C31.9792 21.3263 31.9276 21.1976 31.9276 21.0634C31.9276 20.9291 31.9792 20.8004 32.0711 20.7055C32.163 20.6105 32.2876 20.5572 32.4175 20.5572L39.8556 20.6433L45.025 18.482C45.0895 18.4512 45.1598 18.4352 45.2308 18.4352C45.3019 18.4352 45.3721 18.4512 45.4366 18.482C46.2855 18.9224 47.2591 19.0338 48.1806 18.7958C48.4929 18.6819 48.7697 18.483 48.9818 18.2203C49.1939 17.9575 49.3335 17.6405 49.386 17.3027L49.4301 16.751L49.3566 17.2571L46.4852 16.832L43.8785 16.999L39.2823 18.7553C39.2091 18.7835 39.1304 18.7931 39.0529 18.7834C38.9753 18.7737 38.9011 18.745 38.8364 18.6997L36.4257 17.0193C36.3191 16.9407 36.2471 16.8217 36.2255 16.6883C36.2039 16.555 36.2345 16.4182 36.3105 16.3081C36.3866 16.198 36.5018 16.1237 36.6309 16.1014C36.76 16.0791 36.8924 16.1107 36.999 16.1892L39.1598 17.7076L43.5698 16.0171C43.6142 16.0017 43.6603 15.9915 43.707 15.9867L46.4362 15.8096H46.5342L49.4742 16.2449C49.6126 16.2643 49.7455 16.3141 49.8638 16.3909C49.9821 16.4677 50.0832 16.5698 50.1602 16.6903C50.2396 16.8103 50.2941 16.946 50.3203 17.0889C50.3464 17.2317 50.3436 17.3786 50.3121 17.5203C50.2245 18.0305 50.0046 18.5065 49.6759 18.8978C49.3471 19.2891 48.9218 19.5809 48.4452 19.7423C47.3544 20.0463 46.1952 19.9478 45.1671 19.4639L40.1104 21.61C40.053 21.6353 39.9915 21.649 39.9291 21.6505Z" fill="#333736"/>
<path id="Vector_11" d="M29.6442 11.7551L29.2767 12.8433C28.194 13.1576 27.2299 13.8057 26.5132 14.7009C25.4597 15.9055 19.8934 16.0978 17.1543 17.4745C14.4153 18.8513 14.332 20.0812 13.0286 20.0508C11.7252 20.0204 9.69664 21.5693 8.47656 22.5259C7.25648 23.4825 5.04661 24.4492 3.57663 24.3986C2.36635 24.3531 0.989475 25.5071 0.577881 25.8766L0.523982 25.9272L0.455383 25.993L0.602381 26.0638H0.65138C1.34227 26.3979 3.78733 27.4507 5.4974 26.8484C7.42797 26.1802 8.79505 24.6163 10.2699 23.6748L10.4659 23.5483C11.1251 23.1173 11.8908 22.8924 12.6709 22.9004L12.2152 22.9915C12.2889 22.9882 12.3617 22.9729 12.4308 22.946C12.4308 22.946 12.6611 22.9004 12.6415 23.0067C12.6219 23.113 14.1409 24.7732 14.6505 25.5374C15.2581 26.4738 19.766 28.3769 20.354 26.4131C20.354 26.4131 23.9946 28.5743 31.3592 25.2084C31.3592 25.2084 32.6381 24.3733 33.3976 24.3733L34.9557 23.7811C35.1811 22.3133 37.2832 22.3335 38.1113 20.8556C38.5194 20.1634 38.7849 19.3917 38.8911 18.5888C38.9973 17.7858 38.942 16.9688 38.7287 16.1889C38.4102 15.1766 38.0525 13.6582 37.8957 12.9243C37.8957 12.8686 37.8663 12.818 37.8565 12.7674C37.8124 12.575 37.6017 11.4312 37.6017 11.4312L29.6442 11.7551Z" fill="#E8BF87"/>
<path id="Vector_12" d="M0.470093 25.8563C0.487017 25.8822 0.506745 25.906 0.528892 25.9272C0.567201 25.9829 0.609806 26.0354 0.65629 26.0841C1.34718 26.4181 3.79224 27.4659 5.50231 26.8737C7.51618 26.1701 8.93226 24.4948 10.4708 23.5685C11.1434 23.1298 11.9245 22.9013 12.7199 22.9106C12.6023 22.2526 10.7158 22.455 10.2944 22.6372C9.51562 22.9698 8.80423 23.4505 8.19727 24.0544C5.36022 26.9192 3.22385 26.3119 0.582791 25.8766L0.470093 25.8563ZM37.587 11.4312C37.1607 11.5172 36.3914 11.5375 36.4306 11.9373C36.5384 12.8787 37.489 15.4803 37.6556 16.3965C37.9594 18.1275 37.8908 18.826 37.1656 19.7826C36.5433 20.643 34.9557 21.2504 34.4952 22.2627C34.2428 22.8275 34.1333 23.4492 34.1767 24.0696L34.9557 23.7811C35.2007 22.3386 37.2783 22.3538 38.1015 20.8809C38.5155 20.1866 38.785 19.4109 38.893 18.6031C39.001 17.7953 38.945 16.9732 38.7287 16.1889C38.4102 15.1766 38.0525 13.6582 37.8957 12.9243C37.8957 12.8686 37.8957 12.818 37.8614 12.7674C37.8271 12.7168 37.6115 11.4261 37.587 11.4312Z" fill="#CD9F61"/>
<path id="Vector_13" d="M23.1665 27.6477C21.5545 27.6477 20.7166 27.2681 20.2903 26.9998C15.7089 29.0851 12.8375 24.4691 12.2544 23.4163C11.7017 23.4812 11.1723 23.6826 10.7109 24.0034C10.1378 24.372 9.58794 24.7777 9.06456 25.2182C8.05571 26.1244 6.90386 26.8451 5.65911 27.3491C3.47375 28.1083 0.372099 26.5089 0.2692 26.438C0.199397 26.4019 0.138965 26.349 0.0929401 26.2839C0.0469147 26.2187 0.0166285 26.1431 0.00460439 26.0634C-0.00600733 25.984 0.00178542 25.9032 0.0273415 25.8275C0.0528975 25.7518 0.0954863 25.6835 0.151602 25.6282C0.225101 25.5573 1.93517 23.8921 3.54235 23.8921H3.59625C4.87513 23.9376 7.02619 23.0114 8.18748 22.1206L8.27077 22.0548C9.59375 21.0425 11.6125 19.524 13.0384 19.524C13.5284 19.524 13.7097 19.357 14.2732 18.8509C15.0688 18.1015 15.967 17.4773 16.9387 16.9984C18.3107 16.31 20.3393 15.9051 22.1327 15.5508C23.8084 15.2218 25.7145 14.8422 26.1555 14.3411C26.4976 13.8901 26.9285 13.5191 27.4197 13.2529C28.1881 12.8846 28.8182 12.2657 29.213 11.4915C29.2545 11.4131 29.3154 11.3475 29.3894 11.3013C29.4634 11.255 29.548 11.2299 29.6344 11.2283L37.6556 11.1271C37.7696 11.1245 37.8808 11.163 37.9703 11.2359C38.0597 11.3089 38.1217 11.4118 38.1456 11.5269C38.1456 11.5573 38.7679 14.6296 39.1991 16.0316C39.432 16.8771 39.493 17.7633 39.3783 18.6344C39.2637 19.5054 38.9757 20.3425 38.5327 21.0931C38.2308 21.6534 37.7892 22.12 37.2538 22.4445C37.0729 22.5293 36.9169 22.6619 36.8016 22.829C36.6863 22.9961 36.6158 23.1917 36.5972 23.3961C36.5819 23.4828 36.545 23.564 36.49 23.6315C36.4349 23.6989 36.3638 23.7504 36.2836 23.7807L34.0346 24.6412C28.6692 27.0049 25.2735 27.6477 23.1665 27.6477ZM20.354 25.9116C20.4203 25.9125 20.4858 25.9273 20.5465 25.9552C20.6071 25.983 20.6617 26.0233 20.7068 26.0736C20.7068 26.0736 23.1959 28.336 33.6671 23.7149L35.6956 22.9405C35.7688 22.6586 35.8975 22.3953 36.0737 22.1671C36.25 21.9389 36.4699 21.7508 36.7197 21.6144C37.1299 21.376 37.4688 21.0258 37.6997 20.6021C38.0728 19.9731 38.317 19.2717 38.4173 18.5413C38.5176 17.8109 38.4718 17.067 38.2828 16.3556C37.93 15.2016 37.4694 13.0504 37.3028 12.1546L29.9529 12.2507C29.4528 13.0989 28.7192 13.7738 27.846 14.1893C27.4797 14.4016 27.1595 14.6893 26.9052 15.0345C26.278 15.7533 24.7639 16.0822 22.3434 16.553C20.6137 16.8971 18.6488 17.2869 17.3944 17.9145C16.5003 18.3563 15.6746 18.9329 14.9445 19.6253C14.3663 20.1314 13.9008 20.5768 13.0482 20.5414H13.0188C11.9065 20.5414 9.94165 22.0598 8.88327 22.8595L8.79997 22.9203C7.51129 23.9326 5.16912 24.9449 3.59625 24.8892C2.87106 24.8538 2.01357 25.3953 1.41578 25.8509C2.39577 26.2457 4.13524 26.8227 5.37982 26.3874C6.52155 25.918 7.57718 25.2504 8.50107 24.4134C9.05939 23.9453 9.64703 23.5159 10.2601 23.1278C11.9212 22.1155 12.666 22.4243 12.8571 22.5407C12.9385 22.5921 13.0046 22.6656 13.0482 22.7533C13.156 22.976 15.7432 28.2044 20.1727 25.9521C20.2301 25.9268 20.2916 25.9131 20.354 25.9116Z" fill="#333736"/>
<path id="Vector_14" d="M27.6794 16.5534L36.9892 16.5078C36.9366 15.9168 36.8548 15.3289 36.7442 14.7464L36.509 14.5946C34.995 14.4529 36.9059 13.395 36.0583 11.9829C35.9848 11.8665 37.293 10.9453 37.2538 10.8188L37.2244 10.7125C37.1578 10.4708 37.1346 10.2187 37.1558 9.96843C37.2201 9.37823 37.4127 8.81068 37.7193 8.30827C37.7788 8.205 37.8635 8.11974 37.965 8.06109C38.0665 8.00244 38.1812 7.97247 38.2975 7.97421C38.8319 8.00398 39.3573 7.82308 39.7675 7.46807C40.4342 6.78929 41.1394 6.15211 41.8794 5.5599C42.0056 5.45386 42.1065 5.31932 42.1745 5.16664C42.2425 5.01395 42.2756 4.8472 42.2714 4.6792V3.66691C42.2822 3.41346 42.2591 3.15968 42.2028 2.91276C42.1657 2.65794 42.0505 2.42212 41.8741 2.23992C41.6977 2.05772 41.4694 1.93874 41.2228 1.90046C40.0762 1.75874 38.5768 2.29526 37.4939 1.96626C37.2268 1.90544 36.987 1.75399 36.8128 1.53604C36.7473 1.43734 36.7099 1.32158 36.705 1.20198C36.7038 1.11453 36.6742 1.03004 36.6208 0.962104C36.5675 0.894168 36.4936 0.846735 36.411 0.827434C35.7104 0.645222 34.1081 0.321288 32.9517 0.619914C31.4327 1.04508 32.4274 1.71825 30.4086 2.04218C28.3899 2.36612 29.0171 8.1463 29.4679 9.60907C29.6848 10.2309 29.8487 10.871 29.9578 11.5223C29.9578 11.5223 31.3298 12.4232 31.0554 12.98C30.83 13.4355 28.9583 13.5115 28.8554 13.9518C28.3463 14.7572 27.9503 15.6331 27.6794 16.5534Z" fill="#E8BF87"/>
<path id="Vector_15" d="M41.2129 1.90544C40.0663 1.76372 38.567 2.30023 37.4841 1.97124C37.2169 1.91042 36.9771 1.75896 36.803 1.54102C36.7515 1.65693 36.7248 1.78296 36.7248 1.9105C36.7248 2.03804 36.7515 2.16408 36.803 2.27999C36.8859 2.50041 37.0312 2.68985 37.2201 2.82351C37.4089 2.95717 37.6324 3.02882 37.8614 3.02908H40.1251C40.4387 3.40363 40.2623 4.23371 41.1051 4.19828C41.1051 4.19828 40.2966 5.54969 39.5077 5.95967C38.7189 6.36965 38.0623 6.57211 37.4498 6.84542C36.6266 7.2301 35.8426 9.16357 35.7887 9.73046C35.8875 10.0977 36.0359 10.4487 36.2297 10.7731L36.4257 10.6213C36.6234 10.4539 36.847 10.3221 37.0872 10.2315H37.1656V10.0038C37.2298 9.41358 37.4224 8.84603 37.7291 8.34362C37.7885 8.24034 37.8732 8.15508 37.9748 8.09643C38.0763 8.03778 38.191 8.00782 38.3073 8.00956C38.8416 8.03933 39.367 7.85842 39.7772 7.50341C40.441 6.81422 41.1429 6.16526 41.8793 5.55981C42.0054 5.45481 42.1064 5.32119 42.1744 5.16932C42.2424 5.01746 42.2755 4.85144 42.2713 4.68418V3.67189C42.2822 3.41844 42.2591 3.16465 42.2027 2.91773C42.1651 2.66146 42.0485 2.42455 41.8702 2.24218C41.6919 2.05981 41.4614 1.94172 41.2129 1.90544Z" fill="#CD9F61"/>
<path id="Vector_16" d="M29.9529 12.003C29.831 12.0036 29.7133 11.9573 29.6227 11.8731C29.5321 11.7888 29.4751 11.6727 29.4629 11.5475C29.3468 10.9326 29.1829 10.3283 28.9729 9.74052C28.6251 8.61687 27.993 4.27414 29.115 2.41659C29.2354 2.1902 29.4036 1.9948 29.6072 1.84493C29.8108 1.69507 30.0446 1.59462 30.291 1.55108C31.2318 1.4043 31.3592 1.22208 31.5258 1.00444C31.832 0.554479 32.2961 0.245752 32.8194 0.143992C34.0493 -0.195126 35.6711 0.143992 36.5237 0.351512C36.7097 0.398084 36.8757 0.506564 36.9962 0.660229C37.1166 0.813894 37.1847 1.00421 37.1901 1.20184C37.1901 1.30307 37.3616 1.41442 37.6262 1.4954C38.2512 1.61696 38.8926 1.61696 39.5176 1.4954C40.0977 1.40168 40.6863 1.3779 41.2718 1.42454C41.6172 1.47127 41.9388 1.632 42.1887 1.88281C42.4386 2.13362 42.6033 2.46108 42.6584 2.81644C42.7282 3.11102 42.7563 3.41449 42.7417 3.71738L42.7662 4.66894C42.772 4.91399 42.7228 5.15709 42.6225 5.37923C42.5222 5.60138 42.3735 5.79655 42.188 5.94949C41.4697 6.52173 40.7872 7.14047 40.1448 7.80198C39.8962 8.04017 39.6035 8.22394 39.2844 8.34224C38.9652 8.46054 38.6262 8.51091 38.2877 8.49034C38.2555 8.49022 38.2238 8.49851 38.1955 8.51444C38.1673 8.53037 38.1433 8.55342 38.126 8.58144C37.8637 9.01821 37.6965 9.50871 37.636 10.0189C37.619 10.211 37.6356 10.4048 37.685 10.5908C37.6836 10.6161 37.6836 10.6415 37.685 10.6668C37.7158 10.7623 37.7569 10.854 37.8075 10.9401C37.8432 11.0498 37.8415 11.1688 37.8026 11.2773C37.7637 11.3858 37.69 11.4773 37.5937 11.5364C37.4975 11.5956 37.3845 11.619 37.2736 11.6025C37.1627 11.5861 37.0606 11.531 36.9843 11.4462C36.8959 11.2998 36.8235 11.1436 36.7687 10.9806L36.7246 10.8439C36.6442 10.5444 36.616 10.2325 36.6413 9.92273C36.711 9.2537 36.9271 8.60981 37.2734 8.03987C37.3762 7.86592 37.52 7.72174 37.6914 7.62083C37.8628 7.51992 38.0561 7.46557 38.2534 7.46286C38.6633 7.50279 39.0723 7.37767 39.3951 7.11362C40.0758 6.41591 40.7957 5.76016 41.551 5.14978C41.6207 5.09243 41.6764 5.01912 41.7138 4.93566C41.7512 4.85219 41.7693 4.76087 41.7666 4.66894V3.65664C41.7732 3.4457 41.7534 3.23476 41.7078 3.02902C41.5706 2.44696 41.2669 2.41153 41.1542 2.39634C40.6436 2.3617 40.1309 2.38547 39.6254 2.4672C38.8735 2.62453 38.0988 2.62453 37.3469 2.4672C36.4502 2.19894 36.2493 1.66243 36.215 1.31825C35.5633 1.15122 34.0885 0.842474 33.0693 1.12592C32.545 1.2727 32.4421 1.41442 32.3049 1.63206C32.0158 2.01673 31.6777 2.34573 30.4723 2.52288C30.366 2.54511 30.2662 2.59289 30.1811 2.66236C30.096 2.73183 30.0279 2.82103 29.9823 2.92273C29.1689 4.28427 29.5609 8.19677 29.9382 9.41658C30.161 10.0746 30.3251 10.7523 30.4282 11.4412C30.4392 11.5731 30.3997 11.7042 30.3182 11.8064C30.2366 11.9086 30.1196 11.9737 29.9921 11.9878L29.9529 12.003Z" fill="#333736"/>
<path id="Vector_17" d="M41.4334 1.95597C41.4334 1.95597 40.7964 2.39125 41.0022 3.00875C41.159 3.46934 41.7715 3.61106 42.0753 3.65155C42.1263 3.66016 42.1786 3.64957 42.2227 3.6217C42.2668 3.59383 42.2997 3.55054 42.3154 3.49971C42.4917 3.11821 42.518 2.68103 42.3889 2.2799C42.1194 1.81931 41.4334 1.95597 41.4334 1.95597Z" fill="#333333"/>
<path id="Vector_18" d="M42.1096 4.15807H42.0116C41.2423 4.05178 40.7229 3.7076 40.5416 3.18627C40.4542 2.8809 40.4673 2.55415 40.5791 2.25734C40.6908 1.96052 40.8948 1.71044 41.159 1.54636C41.2087 1.50794 41.2653 1.48038 41.3256 1.46538C41.596 1.39669 41.88 1.41245 42.1417 1.51067C42.4034 1.60888 42.631 1.78513 42.7956 2.01707C42.9085 2.27739 42.9668 2.5594 42.9668 2.84462C42.9668 3.12985 42.9085 3.41186 42.7956 3.67217C42.7452 3.81735 42.6518 3.94243 42.5286 4.02965C42.4055 4.11688 42.2589 4.16181 42.1096 4.15807ZM41.6196 2.44224C41.5314 2.52828 41.404 2.68519 41.4579 2.84209C41.5118 2.999 41.6735 3.04961 41.9479 3.11541C42.0153 2.9254 42.0238 2.71847 41.9724 2.52322C41.9185 2.45236 41.747 2.43718 41.6245 2.44224H41.6196Z" fill="#333736"/>
<path id="Vector_19" d="M33.9758 4.85074C33.9762 5.11094 33.8947 5.36422 33.7435 5.57238C33.5924 5.78054 33.3798 5.93229 33.1379 6.00475C31.9956 6.43429 30.9477 7.09507 30.0558 7.94835C29.2718 8.76324 27.7088 9.24915 27.4295 8.73288C27.1502 8.21661 27.4932 7.36122 27.356 6.58682C27.2188 5.81241 27.1257 4.46607 27.4442 3.84857C27.7627 3.23107 28.2233 3.09441 28.3262 2.52247C28.4291 1.95052 29.3796 0.923045 30.1391 1.00403C30.8986 1.08501 32.8439 1.93028 33.1575 2.52247C33.4711 3.11466 33.3486 3.6208 33.9758 4.85074Z" fill="#E8BF87"/>
<path id="Vector_20" d="M33.3486 5.91922C33.2816 5.95182 33.2129 5.98055 33.1428 6.00527C31.9984 6.43359 30.9488 7.09447 30.0558 7.94887C29.2718 8.76376 27.7137 9.24966 27.4295 8.73339C27.1453 8.21713 27.4932 7.36174 27.356 6.58734C27.2188 5.81293 27.1257 4.46658 27.4442 3.85415C27.7627 3.24171 28.2282 3.08987 28.3262 2.52298C28.4242 1.9561 29.3796 0.918502 30.1391 1.00455C30.3045 1.02442 30.4682 1.05656 30.6291 1.10071C30.4038 1.2054 30.201 1.35562 30.0327 1.54251C29.8644 1.7294 29.734 1.94919 29.6491 2.18893C29.5707 2.61409 29.2032 2.72544 28.9632 3.20122C28.7231 3.677 28.7868 4.71966 28.8946 5.29666C29.0024 5.87367 28.7329 6.54178 28.9485 6.94164C29.164 7.34149 30.3596 6.94164 30.9672 6.33932C31.5748 5.73701 32.6822 6.12674 33.3486 5.91922Z" fill="#CD9F61"/>
<path id="Vector_21" d="M27.9194 9.44692C27.8493 9.45212 27.7789 9.45212 27.7087 9.44692C27.5626 9.4367 27.4211 9.38989 27.2965 9.31052C27.1719 9.23115 27.0678 9.12161 26.9933 8.99139C26.8081 8.54823 26.7602 8.05671 26.8561 7.5843C26.8952 7.28534 26.8952 6.98232 26.8561 6.68336C26.7189 5.91402 26.5915 4.40064 26.9933 3.62118C27.1382 3.35008 27.3234 3.10414 27.5421 2.89233C27.7283 2.69493 27.8116 2.60382 27.8361 2.44692C27.9831 1.65227 29.1444 0.422334 30.1685 0.503317C30.9966 0.574177 33.1084 1.45487 33.5984 2.26977C33.6339 2.32737 33.6577 2.3918 33.6684 2.45915C33.6791 2.52651 33.6766 2.59542 33.6608 2.66172C33.6451 2.72802 33.6166 2.79036 33.5769 2.84497C33.5373 2.89958 33.4873 2.94534 33.4301 2.97951C33.3729 3.01367 33.3096 3.03552 33.244 3.04375C33.1784 3.05199 33.1119 3.04642 33.0484 3.0274C32.9849 3.00838 32.9258 2.9763 32.8747 2.93308C32.8235 2.88986 32.7814 2.8364 32.7507 2.77591C32.5547 2.42161 30.8398 1.56622 30.0999 1.51055C29.6099 1.47512 28.8651 2.30014 28.8063 2.63925C28.7214 3.01199 28.5261 3.34812 28.2477 3.60093C28.0939 3.74772 27.9633 3.9185 27.8606 4.10708C27.645 4.52718 27.6744 5.68119 27.8214 6.51633C27.8776 6.90899 27.8776 7.30805 27.8214 7.70071C27.7795 7.95194 27.7795 8.20871 27.8214 8.45993C28.5327 8.4219 29.2042 8.1094 29.703 7.5843C30.6537 6.67489 31.7742 5.97561 32.9957 5.52935C33.0591 5.49818 33.1282 5.48144 33.1984 5.48027C33.2686 5.4791 33.3382 5.49352 33.4025 5.52255C33.4669 5.55158 33.5244 5.59455 33.5712 5.64855C33.6181 5.70255 33.6532 5.76631 33.6741 5.83553C33.695 5.90474 33.7013 5.97779 33.6925 6.04973C33.6837 6.12167 33.66 6.19081 33.6231 6.25249C33.5862 6.31417 33.5369 6.36693 33.4786 6.40721C33.4202 6.44749 33.3541 6.47435 33.2848 6.48596C32.2147 6.88673 31.2322 7.5026 30.3939 8.29797C29.7251 8.96893 28.8492 9.37563 27.9194 9.44692Z" fill="#333736"/>
<path id="Vector_22" d="M37.2881 10.1147C37.2881 10.1147 33.1035 10.8487 29.6001 10.1147L29.6393 11.7496C29.6393 11.7496 31.5601 12.6455 37.6654 11.6332L37.2881 10.1147Z" fill="#A67E73"/>
<path id="Vector_23" d="M32.6283 12.6458C30.3645 12.6458 29.4972 12.2662 29.4433 12.2408C29.3596 12.202 29.2881 12.1397 29.237 12.0609C29.1859 11.9822 29.1572 11.8902 29.1542 11.7954L29.115 10.115C29.1128 10.0394 29.1271 9.96418 29.1568 9.89498C29.1865 9.82578 29.2308 9.76434 29.2865 9.71518C29.343 9.66673 29.4094 9.63203 29.4806 9.61363C29.5518 9.59523 29.6262 9.59361 29.6981 9.60889C33.0644 10.3023 37.1656 9.60889 37.2097 9.60889C37.3306 9.58851 37.4545 9.61567 37.557 9.685C37.6595 9.75433 37.7331 9.8608 37.7634 9.98343L38.1358 11.5272C38.1517 11.5951 38.1538 11.6657 38.142 11.7345C38.1302 11.8033 38.1047 11.8689 38.0672 11.927C38.0298 11.9846 37.9814 12.0336 37.9249 12.0711C37.8684 12.1085 37.8051 12.1336 37.7389 12.1447C36.0503 12.4466 34.3417 12.6141 32.6283 12.6458ZM30.1195 11.3804C30.8055 11.5525 32.8341 11.8865 37.0627 11.2387L36.9157 10.6718C34.6531 11.0062 32.3571 11.0233 30.0901 10.7224L30.1195 11.3804ZM35.2399 3.84388C35.1485 3.84366 35.059 3.81702 34.9814 3.76697C34.9039 3.71693 34.8415 3.64548 34.8012 3.5607C34.7609 3.47592 34.7444 3.3812 34.7536 3.28724C34.7627 3.19327 34.7971 3.10382 34.8528 3.02899C35.0961 2.73069 35.3687 2.45929 35.6662 2.21916C35.7684 2.13696 35.8979 2.09987 36.0264 2.116C36.1549 2.13212 36.2721 2.20014 36.3522 2.3052C36.3939 2.35787 36.4249 2.41868 36.4433 2.48401C36.4618 2.54933 36.4673 2.61782 36.4595 2.68538C36.4517 2.75295 36.4308 2.8182 36.3981 2.87724C36.3653 2.93627 36.3214 2.98789 36.2689 3.02899C36.0352 3.21929 35.8202 3.4329 35.627 3.66673C35.5794 3.72428 35.5199 3.77007 35.453 3.80072C35.386 3.83138 35.3132 3.84613 35.2399 3.84388Z" fill="#333736"/>
<path id="Vector_24" d="M37.2539 18.8864L39.6254 20.5769L44.2901 18.7953L47.0145 18.6182L49.9545 19.0534C50.0269 19.0646 50.0963 19.0913 50.1581 19.1318C50.2199 19.1723 50.2729 19.2258 50.3135 19.2887C50.3541 19.3517 50.3815 19.4227 50.394 19.4972C50.4064 19.5718 50.4036 19.6482 50.3856 19.7216C50.3139 20.1444 50.1338 20.5397 49.864 20.8664C49.5943 21.1931 49.2449 21.4391 48.852 21.5791C47.8086 21.8587 46.7027 21.742 45.7356 21.2501L40.4584 23.4316L32.9517 23.3506" fill="#E8BF87"/>
<path id="Vector_25" d="M50.3757 19.7319C50.3021 20.1547 50.1207 20.5497 49.8503 20.8762C49.5799 21.2026 49.2302 21.4488 48.8372 21.5894C47.7975 21.8658 46.6962 21.7454 45.7355 21.2503L40.4583 23.4318C37.9064 24.019 35.2499 23.902 32.7556 23.0927C35.725 23.0522 38.4395 22.8194 40.4779 22.0804L45.7355 19.8787C46.7005 20.3821 47.8098 20.5062 48.8568 20.2279C49.1329 20.1441 49.3896 20.0031 49.6112 19.8134C49.8327 19.6237 50.0145 19.3893 50.1454 19.1245C50.2414 19.1873 50.3154 19.2801 50.3568 19.3893C50.3982 19.4985 50.4048 19.6185 50.3757 19.7319Z" fill="#CD9F61"/>
<path id="Vector_26" d="M36.95 24.2868C35.4719 24.3032 34.0015 24.0654 32.5989 23.5833C32.4891 23.5304 32.4022 23.4373 32.355 23.322C32.3078 23.2068 32.3035 23.0776 32.3431 22.9593C32.3827 22.841 32.4633 22.7421 32.5694 22.6816C32.6754 22.6211 32.7994 22.6034 32.9174 22.6317C34.9852 23.3707 37.4106 23.477 40.3261 22.9607L45.5347 20.7438C45.6016 20.7161 45.6737 20.704 45.7457 20.7084C45.8177 20.7128 45.8878 20.7335 45.9512 20.7691C46.8014 21.2052 47.774 21.3147 48.6951 21.0779C49.0101 20.9609 49.2886 20.758 49.5008 20.4906C49.7131 20.2232 49.8512 19.9014 49.9005 19.5594L49.8711 19.5038L46.9949 19.0786L44.3881 19.2456L39.792 21.0475C39.7187 21.0756 39.6401 21.0852 39.5625 21.0756C39.4849 21.0659 39.4107 21.0372 39.3461 20.9918L36.9745 19.3013C36.9126 19.2683 36.8583 19.2219 36.8151 19.1655C36.7719 19.109 36.7409 19.0437 36.7241 18.9738C36.7072 18.904 36.705 18.8313 36.7176 18.7605C36.7302 18.6897 36.7572 18.6225 36.7969 18.5633C36.8366 18.5042 36.888 18.4545 36.9478 18.4175C37.0076 18.3805 37.0743 18.3571 37.1435 18.3489C37.2127 18.3406 37.2828 18.3477 37.3492 18.3697C37.4155 18.3917 37.4765 18.428 37.5282 18.4763L39.694 19.9947L44.1039 18.3042C44.1485 18.2893 44.1945 18.2791 44.2411 18.2738L46.9704 18.0967H47.0684L50.0083 18.532C50.1471 18.5526 50.2802 18.6028 50.3992 18.6795C50.5181 18.7562 50.6203 18.8576 50.6992 18.9774C50.7771 19.0991 50.8304 19.2358 50.8556 19.3794C50.8809 19.5229 50.8777 19.6703 50.8462 19.8125C50.7571 20.322 50.5367 20.7973 50.2082 21.1883C49.8796 21.5794 49.4551 21.8717 48.9793 22.0345C47.8877 22.333 46.7297 22.2329 45.7013 21.7511L40.6397 23.8971L40.5417 23.9224C39.357 24.1515 38.1552 24.2734 36.95 24.2868Z" fill="#333736"/>
<path id="Vector_27" d="M12.6464 23.0269C13.4722 25.4158 14.7991 27.5867 16.532 29.384L11.9261 32.6133L10.0984 34.9162L8.66767 37.7759C8.63218 37.8467 8.61151 37.9243 8.60701 38.0038C8.60252 38.0833 8.61429 38.1629 8.64156 38.2374C8.66884 38.3119 8.71101 38.3796 8.76532 38.4362C8.81963 38.4927 8.88486 38.5368 8.95676 38.5655C9.35076 38.762 9.78851 38.8459 10.2245 38.8085C10.6605 38.7711 11.0789 38.6138 11.4361 38.353C12.3065 37.5933 12.8824 36.5348 13.058 35.3718L18.1098 32.0666C20.1085 30.2298 21.6625 27.9346 22.6472 25.3653" fill="#E8BF87"/>
<path id="Vector_28" d="M8.95187 38.5701C9.34734 38.7661 9.78649 38.8488 10.2235 38.8096C10.6605 38.7705 11.0793 38.6108 11.4361 38.3474C12.3094 37.5916 12.8874 36.5341 13.0629 35.3713L18.1147 32.0611C20.1048 30.2184 21.6574 27.9271 22.6521 25.3647L21.1135 27.4349L17.4091 31.5498L12.1515 34.774C11.8147 35.8654 11.1718 36.829 10.3042 37.5426C10.0665 37.7332 9.79318 37.8711 9.50148 37.9477C9.20979 38.0244 8.90593 38.0381 8.60888 37.988C8.59804 38.1102 8.62553 38.2328 8.6873 38.3376C8.74906 38.4424 8.84182 38.5239 8.95187 38.5701Z" fill="#CD9F61"/>
<path id="Vector_29" d="M10.0837 39.3201C9.63216 39.3158 9.18589 39.2195 8.7705 39.0366C8.63637 38.9808 8.51502 38.8965 8.41421 38.7894C8.3134 38.6823 8.23536 38.5546 8.18509 38.4145C8.13481 38.2744 8.1134 38.1251 8.12224 37.976C8.13108 37.8268 8.16996 37.6813 8.2364 37.5486L9.66718 34.6939C9.68228 34.6634 9.70034 34.6346 9.72108 34.6079L11.5439 32.2998C11.5649 32.268 11.5915 32.2406 11.6223 32.2189L15.6304 29.0403C14.0897 27.3719 12.9193 25.3771 12.2004 23.1943C12.1578 23.0687 12.1648 22.9309 12.2198 22.8106C12.2748 22.6903 12.3735 22.5972 12.4944 22.5515C12.616 22.5074 12.7494 22.5146 12.8659 22.5715C12.9823 22.6283 13.0725 22.7302 13.1167 22.8552C13.8487 25.0808 15.0774 27.0973 16.7035 28.7416C16.7517 28.7929 16.7888 28.8541 16.8125 28.9213C16.8361 28.9885 16.8457 29.0601 16.8407 29.1314C16.8361 29.2022 16.8172 29.2712 16.7851 29.334C16.753 29.3968 16.7085 29.4519 16.6545 29.4958L12.2445 32.9781L10.4953 35.2L9.08409 38.0092C9.07812 38.0272 9.07812 38.0468 9.08409 38.0648C9.09474 38.0837 9.10993 38.0994 9.12819 38.1104C9.44668 38.2706 9.80082 38.3401 10.154 38.3116C10.5072 38.2831 10.8466 38.1577 11.1372 37.9484C11.9027 37.2733 12.4101 36.3383 12.5679 35.3114C12.5778 35.2381 12.6031 35.168 12.642 35.1059C12.681 35.0438 12.7326 34.9913 12.7933 34.952L17.806 31.6722C19.6826 29.6476 21.5593 27.5066 22.1816 25.229C22.1921 25.1581 22.2171 25.0903 22.2549 25.0302C22.2928 24.97 22.3425 24.9189 22.4009 24.8801C22.4593 24.8413 22.525 24.8158 22.5937 24.8052C22.6623 24.7946 22.7324 24.7993 22.7992 24.8188C22.866 24.8383 22.928 24.8722 22.9812 24.9184C23.0343 24.9645 23.0774 25.0218 23.1075 25.0864C23.1376 25.1511 23.154 25.2216 23.1557 25.2933C23.1575 25.365 23.1444 25.4362 23.1175 25.5023C22.4266 28.033 20.4421 30.3006 18.4625 32.4162C18.4363 32.4438 18.4067 32.4676 18.3743 32.4871L13.5038 35.6809C13.2783 36.8876 12.6507 37.9747 11.73 38.7532C11.2568 39.1245 10.678 39.3238 10.0837 39.3201Z" fill="#333736"/>
<path id="Vector_30" d="M43.1043 24.793C43.6241 24.793 44.1227 25.0063 44.4902 25.386C44.8578 25.7656 45.0643 26.2806 45.0643 26.8176V55.6679H41.1248V26.8176C41.1248 26.2806 41.3313 25.7656 41.6988 25.386C42.0664 25.0063 42.5649 24.793 43.0847 24.793H43.1043Z" fill="#C69C6D"/>
<path id="Vector_31" d="M45.0888 56.1744H41.1248C40.9948 56.1744 40.8702 56.1211 40.7783 56.0262C40.6864 55.9313 40.6348 55.8025 40.6348 55.6683V26.818C40.6348 26.1421 40.8947 25.4939 41.3574 25.016C41.82 24.538 42.4476 24.2695 43.1019 24.2695C43.7562 24.2695 44.3837 24.538 44.8464 25.016C45.3091 25.4939 45.569 26.1421 45.569 26.818V55.6683C45.569 55.8008 45.5187 55.928 45.429 56.0227C45.3392 56.1173 45.217 56.1718 45.0888 56.1744ZM41.6099 55.1621H44.5988V26.818C44.5988 26.4085 44.4414 26.0159 44.1611 25.7264C43.8808 25.4369 43.5007 25.2742 43.1043 25.2742C42.708 25.2742 42.3278 25.4369 42.0476 25.7264C41.7673 26.0159 41.6099 26.4085 41.6099 26.818V55.1621Z" fill="#333736"/>
<path id="Vector_32" d="M43.1043 31.1963L29.2228 38.6164V42.1746L43.1043 34.4609" fill="#C69C6D"/>
<path id="Vector_33" d="M29.2228 42.6805C29.1348 42.6805 29.0485 42.656 28.9729 42.6097C28.9006 42.5643 28.841 42.5003 28.7998 42.424C28.7586 42.3477 28.7372 42.2617 28.7377 42.1744V38.6314C28.7379 38.5398 28.7622 38.45 28.8079 38.3716C28.8537 38.2932 28.9191 38.229 28.9974 38.186L42.8838 30.7507C42.9989 30.6903 43.1324 30.6793 43.2554 30.72C43.3783 30.7608 43.4807 30.85 43.5403 30.9683C43.5973 31.0867 43.6071 31.2235 43.5678 31.3493C43.5284 31.4751 43.4429 31.58 43.3296 31.6415L29.7079 38.9199V41.3342L42.874 34.0204C42.9878 33.9572 43.1212 33.9431 43.245 33.981C43.3689 34.0189 43.4733 34.1058 43.5354 34.2228C43.5671 34.2818 43.587 34.3467 43.594 34.4138C43.601 34.4808 43.595 34.5486 43.5762 34.6132C43.5575 34.6778 43.5265 34.7379 43.485 34.7899C43.4435 34.842 43.3923 34.8849 43.3346 34.9163L29.4531 42.6198C29.3823 42.6593 29.3032 42.6801 29.2228 42.6805Z" fill="#333736"/>
<path id="Vector_34" d="M43.1043 38.4692L29.2228 45.8843V49.4475L43.1043 41.7339" fill="#C69C6D"/>
<path id="Vector_35" d="M29.2229 49.9486C29.1349 49.9486 29.0486 49.9241 28.973 49.8778C28.9015 49.8328 28.8423 49.7696 28.8011 49.6943C28.7599 49.619 28.7381 49.534 28.7378 49.4475V45.9045C28.738 45.8129 28.7623 45.7232 28.808 45.6447C28.8538 45.5663 28.9192 45.5021 28.9975 45.4591L42.8839 38.0188C42.997 37.9726 43.1226 37.9716 43.2364 38.0158C43.3502 38.0601 43.444 38.1464 43.4996 38.2581C43.5552 38.3698 43.5686 38.4989 43.5372 38.6202C43.5058 38.7415 43.4319 38.8465 43.3298 38.9146L29.708 46.193V48.6073L42.8741 41.2885C42.9308 41.2476 42.9952 41.2196 43.0632 41.2063C43.1311 41.1929 43.201 41.1946 43.2682 41.2112C43.3355 41.2278 43.3986 41.2589 43.4534 41.3025C43.5082 41.346 43.5534 41.4011 43.5861 41.464C43.6189 41.527 43.6383 41.5963 43.6432 41.6676C43.6481 41.7388 43.6384 41.8103 43.6147 41.8774C43.5909 41.9445 43.5537 42.0056 43.5054 42.0568C43.4572 42.1079 43.399 42.1479 43.3347 42.1742L29.4532 49.8879C29.3824 49.9273 29.3033 49.9482 29.2229 49.9486Z" fill="#333736"/>
<path id="Vector_36" d="M29.2229 32.3849C29.7427 32.3849 30.2412 32.5982 30.6088 32.9779C30.9763 33.3575 31.1828 33.8725 31.1828 34.4095V63.2598H27.2433V34.4095C27.2433 34.1419 27.2946 33.8769 27.3943 33.63C27.4941 33.383 27.6402 33.1589 27.8243 32.9706C28.0083 32.7824 28.2267 32.6337 28.4668 32.5331C28.7068 32.4326 28.9638 32.3822 29.2229 32.3849Z" fill="#C69C6D"/>
<path id="Vector_37" d="M31.2024 63.7667H27.2433C27.1133 63.7667 26.9887 63.7134 26.8968 63.6185C26.8049 63.5236 26.7533 63.3948 26.7533 63.2606V34.4103C26.7533 33.7344 27.0132 33.0862 27.4759 32.6082C27.9386 32.1303 28.5661 31.8618 29.2204 31.8618C29.8747 31.8618 30.5022 32.1303 30.9649 32.6082C31.4276 33.0862 31.6875 33.7344 31.6875 34.4103V63.2606C31.6875 63.3939 31.6366 63.5219 31.5457 63.6167C31.4549 63.7115 31.3315 63.7654 31.2024 63.7667ZM27.7284 62.7544H30.7173V34.4103C30.7173 34.0008 30.5599 33.6082 30.2796 33.3187C29.9993 33.0292 29.6192 32.8665 29.2229 32.8665C28.8265 32.8665 28.4464 33.0292 28.1661 33.3187C27.8858 33.6082 27.7284 34.0008 27.7284 34.4103V62.7544Z" fill="#333736"/>
<path id="Vector_38" d="M44.9418 55.6688C45.0462 53.8485 45.6564 52.0979 46.6992 50.6266C47.742 49.1553 49.1733 48.0257 50.8217 47.373C49.2305 49.828 48.3781 52.7144 48.3717 55.6688H44.9418Z" fill="#85BD79"/>
<path id="Vector_39" d="M48.3766 56.1741H44.9467C44.8167 56.1741 44.6921 56.1208 44.6002 56.0259C44.5083 55.931 44.4567 55.8022 44.4567 55.668C44.5701 53.7497 45.212 51.9048 46.3067 50.3507C47.4014 48.7967 48.9033 47.5982 50.6355 46.8965C50.7315 46.8565 50.8374 46.8491 50.9378 46.8751C51.0382 46.9011 51.1281 46.9594 51.1945 47.0415C51.2609 47.1235 51.3004 47.2252 51.3074 47.3319C51.3143 47.4387 51.2884 47.5449 51.2333 47.6355C49.6866 50.0096 48.8609 52.8064 48.8617 55.668C48.8617 55.8014 48.8108 55.9293 48.7199 56.0241C48.6291 56.1189 48.5057 56.1728 48.3766 56.1741ZM45.466 55.1619H47.916C47.982 52.8647 48.5569 50.6137 49.5967 48.582C48.4721 49.2857 47.5164 50.2432 46.801 51.3827C46.0857 52.5222 45.6293 53.8142 45.466 55.1619Z" fill="#333736"/>
<path id="Vector_40" d="M47.2056 55.6679C47.1234 54.2589 46.6499 52.9043 45.8417 51.766C45.0335 50.6278 43.9249 49.7543 42.6486 49.25C43.8864 51.1471 44.553 53.3802 44.5645 55.6679H47.2056Z" fill="#85BD79"/>
<path id="Vector_41" d="M47.2056 56.1741H44.5498C44.4199 56.1741 44.2952 56.1207 44.2033 56.0258C44.1114 55.9309 44.0598 55.8022 44.0598 55.6679C44.0634 53.477 43.4357 51.3345 42.2567 49.5132C42.2025 49.423 42.1772 49.3176 42.1842 49.2118C42.1912 49.106 42.2302 49.0051 42.2958 48.9234C42.3613 48.8417 42.45 48.7834 42.5494 48.7566C42.6487 48.7298 42.7537 48.736 42.8495 48.7742C44.2188 49.3119 45.4066 50.2505 46.2673 51.4749C47.128 52.6994 47.6244 54.1565 47.6956 55.6679C47.6956 55.8022 47.6439 55.9309 47.552 56.0258C47.4602 56.1207 47.3355 56.1741 47.2056 56.1741ZM45.0251 55.1618H46.7156C46.5937 54.2281 46.2829 53.3314 45.8034 52.53C45.3239 51.7286 44.6864 51.0404 43.9324 50.5103C44.6097 51.9647 44.9868 53.5488 45.0398 55.1618H45.0251Z" fill="#333736"/>
<path id="Vector_42" d="M24.0926 63.2606C24.197 61.4403 24.8072 59.6897 25.85 58.2184C26.8929 56.7471 28.3241 55.6175 29.9725 54.9648C28.3832 57.4207 27.531 60.3065 27.5225 63.2606H24.0926Z" fill="#85BD79"/>
<path id="Vector_43" d="M27.5275 63.7664H24.0975C23.9676 63.7664 23.843 63.7131 23.7511 63.6181C23.6592 63.5232 23.6075 63.3945 23.6075 63.2602C23.7241 61.344 24.368 59.5019 25.4635 57.9508C26.5589 56.3996 28.0604 55.2038 29.7912 54.5039C29.8873 54.464 29.9931 54.4565 30.0936 54.4825C30.194 54.5086 30.2839 54.5668 30.3503 54.6489C30.4166 54.731 30.4562 54.8327 30.4631 54.9394C30.4701 55.0461 30.4442 55.1523 30.389 55.2429C28.8434 57.6121 28.0161 60.4033 28.0126 63.2602C28.0126 63.3936 27.9616 63.5216 27.8708 63.6164C27.78 63.7111 27.6566 63.765 27.5275 63.7664ZM24.6169 62.7541H27.0669C27.1328 60.4569 27.7078 58.206 28.7476 56.1742C27.623 56.8779 26.6673 57.8354 25.9519 58.9749C25.2365 60.1145 24.7801 61.4065 24.6169 62.7541Z" fill="#333736"/>
<path id="Vector_44" d="M26.3711 63.2607C26.289 61.8517 25.8155 60.497 25.0073 59.3588C24.1991 58.2206 23.0905 57.3471 21.8142 56.8428C23.0468 58.7416 23.7083 60.9745 23.7154 63.2607H26.3711Z" fill="#85BD79"/>
<path id="Vector_45" d="M26.3711 63.7665H23.7153C23.5854 63.7665 23.4607 63.7132 23.3689 63.6182C23.277 63.5233 23.2253 63.3946 23.2253 63.2603C23.2232 61.0712 22.5904 58.9322 21.4075 57.1157C21.3533 57.0256 21.328 56.9201 21.335 56.8143C21.342 56.7085 21.3811 56.6076 21.4466 56.5259C21.5121 56.4443 21.6008 56.3859 21.7002 56.3592C21.7996 56.3324 21.9046 56.3385 22.0004 56.3768C23.37 56.9122 24.5588 57.8485 25.4213 59.0711C26.2837 60.2937 26.7823 61.7495 26.8562 63.2603C26.8556 63.3931 26.8046 63.5204 26.7141 63.6146C26.6236 63.71 26.5003 63.7646 26.3711 63.7665ZM24.1759 62.7542H25.8419C25.72 61.8205 25.4092 60.9238 24.9297 60.1224C24.4502 59.321 23.8127 58.6328 23.0587 58.1027C23.7394 59.5564 24.1199 61.1404 24.1759 62.7542Z" fill="#333736"/>
</g>
</svg>
