<svg width="72" height="86" viewBox="0 0 72 86" fill="none" xmlns="http://www.w3.org/2000/svg">
<g id="Group 48095864">
<path id="Vector" d="M42.0962 85.1501C42.2245 82.9953 42.9706 80.923 44.2452 79.1809C45.5197 77.4388 47.2689 76.1005 49.2838 75.3259C47.341 78.2342 46.3027 81.6526 46.2997 85.1501H42.0962Z" fill="#85BD79"/>
<path id="Vector_2" d="M46.2997 85.8315H42.0961C41.9155 85.8315 41.7422 85.7597 41.6144 85.6319C41.4866 85.5042 41.4149 85.3309 41.4149 85.1502C41.5579 82.8621 42.3513 80.6624 43.7019 78.8098C45.0524 76.9572 46.9038 75.5287 49.0384 74.6925C49.1716 74.641 49.3176 74.6327 49.4558 74.6688C49.594 74.7048 49.7173 74.7833 49.8084 74.8933C49.8995 75.0032 49.9538 75.139 49.9635 75.2814C49.9733 75.4239 49.9381 75.5658 49.8628 75.6871C47.9825 78.4851 46.977 81.7791 46.9741 85.1502C46.9742 85.3297 46.9033 85.502 46.777 85.6295C46.6507 85.7571 46.4792 85.8297 46.2997 85.8315ZM42.8319 84.4689H45.6388C45.724 81.8597 46.3823 79.3011 47.5669 76.9748C46.2813 77.8058 45.192 78.9065 44.3744 80.2006C43.5567 81.4946 43.0304 82.9511 42.8319 84.4689Z" fill="#333736"/>
<path id="Vector_3" d="M53.4464 74.9308C53.5916 72.4806 54.44 70.1243 55.8899 68.1439C57.3399 66.1635 59.33 64.643 61.6218 63.7645C59.4095 67.069 58.2243 70.9541 58.2154 74.9308H53.4464Z" fill="#85BD79"/>
<path id="Vector_4" d="M58.2222 75.6121H53.4532C53.2725 75.6121 53.0992 75.5403 52.9715 75.4126C52.8437 75.2848 52.7719 75.1115 52.7719 74.9308C52.935 72.35 53.8313 69.8693 55.3555 67.7803C56.8797 65.6912 58.9686 64.0806 61.3765 63.1378C61.5096 63.0836 61.6563 63.0729 61.7958 63.1072C61.9353 63.1414 62.0604 63.2189 62.1532 63.3285C62.2456 63.4401 62.3 63.5781 62.3086 63.7227C62.3171 63.8672 62.2794 64.0108 62.2009 64.1324C60.0529 67.3245 58.9027 71.0833 58.8967 74.9308C58.8967 75.1103 58.8258 75.2826 58.6995 75.4102C58.5732 75.5377 58.4017 75.6103 58.2222 75.6121ZM54.1754 74.2495H57.5818C57.6792 71.1575 58.4807 68.1284 59.9254 65.3928C58.3612 66.34 57.0315 67.6287 56.0358 69.1625C55.04 70.6962 54.404 72.4353 54.1754 74.2495Z" fill="#333736"/>
<path id="Vector_5" d="M56.6144 74.9309C56.5032 73.0328 55.847 71.2069 54.7245 69.6723C53.6019 68.1377 52.0606 66.9593 50.2852 66.2786C51.9996 68.8389 52.917 71.8496 52.9218 74.9309H56.6144Z" fill="#85BD79"/>
<path id="Vector_6" d="M56.6144 75.6121H52.9218C52.7412 75.6121 52.5679 75.5403 52.4401 75.4126C52.3123 75.2848 52.2406 75.1115 52.2406 74.9308C52.2351 71.9835 51.3529 69.1044 49.7062 66.66C49.6286 66.5376 49.592 66.3937 49.6018 66.2491C49.6116 66.1046 49.6673 65.9669 49.7607 65.8561C49.8535 65.7465 49.9786 65.669 50.1181 65.6348C50.2576 65.6005 50.4043 65.6112 50.5373 65.6654C52.442 66.3865 54.0954 67.6468 55.2956 69.2922C56.4958 70.9376 57.1908 72.8969 57.2957 74.9308C57.2957 75.1115 57.2239 75.2848 57.0962 75.4126C56.9684 75.5403 56.7951 75.6121 56.6144 75.6121ZM53.5827 74.2495H55.8854C55.7132 72.9919 55.2793 71.7843 54.6116 70.7047C53.9438 69.6251 53.0572 68.6975 52.0089 67.9817C52.9601 69.9401 53.496 72.0741 53.5827 74.2495Z" fill="#333736"/>
<path id="Vector_7" d="M19.1301 34.735L19.062 38.741L13.3392 42.6243L10.941 45.5675L9.08794 49.2464C9.04175 49.3364 9.01482 49.4351 9.00884 49.5361C9.00286 49.6371 9.01798 49.7382 9.05323 49.8331C9.08847 49.9279 9.14308 50.0144 9.21356 50.087C9.28405 50.1596 9.36888 50.2167 9.46264 50.2547C9.98398 50.5052 10.5629 50.6115 11.1393 50.5624C11.7156 50.5132 12.2682 50.3105 12.7396 49.9754C13.8887 49.0084 14.6487 47.6579 14.8789 46.1738L21.5418 41.9498L27.4826 33.3724" fill="#CD9F61"/>
<path id="Vector_8" d="M10.9205 51.2494C10.3206 51.2427 9.7279 51.1177 9.17642 50.8815C8.99495 50.8083 8.8307 50.6982 8.6941 50.5581C8.5575 50.418 8.45156 50.251 8.38299 50.0677C8.31443 49.8845 8.28475 49.6889 8.29585 49.4936C8.30694 49.2982 8.35857 49.1073 8.44745 48.933L10.3414 45.2881C10.3624 45.2471 10.3875 45.2083 10.4164 45.1723L12.8145 42.2292C12.8558 42.1794 12.904 42.1359 12.9576 42.0997L18.4078 38.4276L18.2375 33.3724C18.2375 33.1918 18.3093 33.0185 18.4371 32.8907C18.5648 32.7629 18.7381 32.6912 18.9188 32.6912C19.0995 32.6912 19.2728 32.7629 19.4005 32.8907C19.5283 33.0185 19.6001 33.1918 19.6001 33.3724L19.7432 38.8227C19.7452 38.9349 19.7195 39.0458 19.6684 39.1456C19.6173 39.2454 19.5424 39.3311 19.4502 39.395L13.8092 43.2238L11.5132 46.0375L9.66013 49.6211L9.6942 49.696C10.1067 49.8995 10.5661 49.9892 11.0248 49.9556C11.4835 49.9221 11.925 49.7666 12.3035 49.5053C13.3079 48.6463 13.9744 47.4583 14.1839 46.1534C14.1968 46.0553 14.2309 45.9613 14.2839 45.8777C14.3368 45.7942 14.4073 45.7232 14.4904 45.6697L21.0376 41.5206L26.9443 33.0727C27.0547 32.9455 27.2083 32.8637 27.3754 32.8431C27.5425 32.8224 27.7114 32.8644 27.8493 32.9609C27.9873 33.0575 28.0847 33.2016 28.1226 33.3657C28.1606 33.5298 28.1364 33.702 28.0548 33.8493L22.0663 42.3382C22.0106 42.4095 21.9439 42.4716 21.8688 42.5221L15.4579 46.6098C15.1587 48.1533 14.3297 49.5437 13.1143 50.5408C12.4817 51.0136 11.7101 51.2628 10.9205 51.2494Z" fill="#333736"/>
<path id="Vector_9" d="M51.0551 22.3492L54.3525 24.6247L60.8656 22.2266L64.6603 21.9882L68.748 22.5741C68.8488 22.5891 68.9452 22.625 69.0312 22.6795C69.1172 22.7341 69.1908 22.806 69.2473 22.8907C69.3038 22.9755 69.3419 23.0711 69.3591 23.1714C69.3764 23.2718 69.3725 23.3746 69.3476 23.4734C69.2451 24.0415 68.9937 24.5723 68.619 25.0115C68.2444 25.4508 67.76 25.7828 67.2151 25.9737C65.7591 26.3445 64.2182 26.1776 62.8754 25.5036L55.5175 28.4672L45.0734 28.3582" fill="#CD9F61"/>
<path id="Vector_10" d="M55.5175 29.1417L45.0734 29.0327C44.8927 29.0327 44.7194 28.9609 44.5916 28.8331C44.4639 28.7054 44.3921 28.5321 44.3921 28.3514C44.3921 28.1707 44.4639 27.9974 44.5916 27.8697C44.7194 27.7419 44.8927 27.6701 45.0734 27.6701L55.4153 27.7859L62.6029 24.8769C62.6925 24.8353 62.7902 24.8138 62.889 24.8138C62.9878 24.8138 63.0855 24.8353 63.1751 24.8769C64.3553 25.4697 65.709 25.6195 66.9903 25.2992C67.4245 25.1458 67.8094 24.8782 68.1043 24.5245C68.3993 24.1708 68.5934 23.7442 68.6663 23.2895L68.7276 22.5469L68.6254 23.2281L64.6331 22.6559L61.0086 22.8807L54.6182 25.2447C54.5164 25.2826 54.407 25.2955 54.2991 25.2825C54.1913 25.2695 54.0881 25.2308 53.9982 25.1698L50.6463 22.9079C50.4981 22.8022 50.398 22.642 50.368 22.4625C50.338 22.283 50.3805 22.0989 50.4862 21.9507C50.5919 21.8026 50.7521 21.7025 50.9316 21.6724C51.1111 21.6424 51.2952 21.6849 51.4434 21.7906L54.4479 23.8345L60.5794 21.559C60.6413 21.5382 60.7053 21.5245 60.7702 21.5181L64.565 21.2797H64.7012L68.7889 21.8656C68.9815 21.8917 69.1662 21.9587 69.3307 22.0621C69.4952 22.1655 69.6357 22.3029 69.7427 22.4651C69.8532 22.6267 69.929 22.8093 69.9653 23.0016C70.0017 23.1939 69.9978 23.3917 69.9539 23.5824C69.8321 24.2691 69.5264 24.9098 69.0693 25.4365C68.6123 25.9632 68.0209 26.356 67.3582 26.5733C65.8416 26.9824 64.2298 26.8499 62.8004 26.1985L55.7696 29.0872C55.6898 29.1212 55.6042 29.1397 55.5175 29.1417Z" fill="#333736"/>
<path id="Vector_11" d="M41.2173 15.8225L40.7063 17.2873C39.201 17.7104 37.8605 18.5826 36.8639 19.7876C35.3991 21.409 27.6597 21.6679 23.8513 23.521C20.0429 25.3741 19.9271 27.0296 18.1149 26.9888C16.3027 26.9479 13.4822 29.0326 11.7858 30.3203C10.0894 31.6079 7.01676 32.9091 4.97291 32.841C3.29013 32.7797 1.37572 34.333 0.803439 34.8304L0.728497 34.8985L0.633118 34.9871L0.837503 35.0824H0.905632C1.86624 35.5321 5.26586 36.9492 7.64355 36.1384C10.3278 35.2391 12.2286 33.134 14.2793 31.8668L14.5518 31.6965C15.4683 31.1164 16.533 30.8136 17.6176 30.8244L16.984 30.947C17.0865 30.9426 17.1877 30.9219 17.2837 30.8857C17.2837 30.8857 17.6039 30.8244 17.5767 30.9675C17.5494 31.1105 19.6614 33.3452 20.37 34.3739C21.2148 35.6343 27.4826 38.1959 28.3001 35.5525C28.3001 35.5525 33.3621 38.4616 43.6018 33.9311C43.6018 33.9311 45.38 32.8069 46.4359 32.8069L48.6024 32.0098C48.9158 30.0341 51.8385 30.0614 52.9899 28.072C53.5573 27.1403 53.9264 26.1016 54.0741 25.0208C54.2219 23.94 54.145 22.8403 53.8483 21.7906C53.4055 20.428 52.9082 18.3841 52.6902 17.3963C52.6902 17.3213 52.6493 17.2532 52.6356 17.1851C52.5743 16.9262 52.2814 15.3865 52.2814 15.3865L41.2173 15.8225Z" fill="#E8BF87"/>
<path id="Vector_12" d="M0.653564 34.8031C0.677096 34.8379 0.704525 34.8699 0.735319 34.8985C0.788584 34.9736 0.847821 35.0442 0.912453 35.1097C1.87307 35.5594 5.27268 36.9696 7.65037 36.1725C10.4505 35.2255 12.4194 32.9705 14.5586 31.7237C15.4938 31.1332 16.5798 30.8256 17.6857 30.838C17.5222 29.9524 14.8992 30.2249 14.3133 30.4702C13.2305 30.9178 12.2413 31.5649 11.3974 32.3778C7.45279 36.2338 4.48239 35.4163 0.81026 34.8304L0.653564 34.8031ZM52.2609 15.3865C51.6682 15.5023 50.5986 15.5296 50.6531 16.0678C50.803 17.335 52.1247 20.8368 52.3563 22.0699C52.7787 24.3999 52.6833 25.3401 51.675 26.6277C50.8098 27.7859 48.6024 28.6034 47.962 29.966C47.6112 30.7263 47.4589 31.5631 47.5192 32.3982L48.6024 32.0099C48.9431 30.0682 51.8317 30.0886 52.9763 28.1061C53.5519 27.1715 53.9267 26.1274 54.0768 25.0401C54.2269 23.9528 54.1491 22.8462 53.8483 21.7906C53.4055 20.428 52.9082 18.3842 52.6902 17.3963C52.6902 17.3213 52.6902 17.2532 52.6425 17.1851C52.5948 17.117 52.295 15.3797 52.2609 15.3865Z" fill="#CD9F61"/>
<path id="Vector_13" d="M32.2108 37.2149C29.9693 37.2149 28.8043 36.7039 28.2116 36.3428C21.8416 39.1497 17.8493 32.9364 17.0385 31.5193C16.2701 31.6066 15.534 31.8777 14.8925 32.3096C14.0957 32.8057 13.3311 33.3518 12.6034 33.9447C11.2007 35.1645 9.59913 36.1346 7.86844 36.8129C4.8299 37.8348 0.517366 35.682 0.374296 35.5866C0.277242 35.538 0.193218 35.4668 0.129224 35.3791C0.0652302 35.2914 0.0231202 35.1897 0.00640195 35.0824C-0.0083526 34.9756 0.00248245 34.8667 0.0380156 34.7649C0.0735487 34.663 0.132764 34.571 0.210788 34.4965C0.312981 34.4012 2.69067 32.1597 4.92528 32.1597H5.00023C6.77838 32.221 9.76923 30.9743 11.3839 29.7752L11.4997 29.6867C13.3392 28.3241 16.1461 26.2802 18.1286 26.2802C18.8099 26.2802 19.062 26.0554 19.8454 25.3741C20.9517 24.3654 22.2005 23.5252 23.5516 22.8806C25.4592 21.9541 28.2798 21.409 30.7733 20.9321C33.1033 20.4893 35.7535 19.9783 36.3666 19.3039C36.8423 18.6967 37.4414 18.1975 38.1243 17.8391C39.1928 17.3434 40.0689 16.5104 40.6178 15.4682C40.6755 15.3627 40.7601 15.2744 40.863 15.2122C40.966 15.1499 41.0835 15.1161 41.2037 15.114L52.3564 14.9777C52.5148 14.9742 52.6695 15.026 52.7939 15.1242C52.9182 15.2225 53.0044 15.361 53.0377 15.5159C53.0377 15.5568 53.9029 19.6922 54.5024 21.5794C54.8263 22.7174 54.9111 23.9102 54.7517 25.0827C54.5922 26.2552 54.1919 27.382 53.5759 28.3922C53.1561 29.1463 52.5421 29.7744 51.7977 30.2113C51.5462 30.3253 51.3292 30.5039 51.1689 30.7288C51.0086 30.9537 50.9106 31.2171 50.8848 31.4921C50.8635 31.6089 50.8121 31.7181 50.7356 31.8089C50.6592 31.8998 50.5603 31.969 50.4488 32.0098L47.3217 33.168C39.8616 36.3496 35.1403 37.2149 32.2108 37.2149ZM28.3002 34.8781C28.3925 34.8793 28.4835 34.8992 28.5678 34.9367C28.6522 34.9742 28.728 35.0284 28.7907 35.0961C28.7907 35.0961 32.2516 38.1414 46.8107 31.9213L49.6312 30.8789C49.733 30.4994 49.9119 30.145 50.1569 29.8379C50.402 29.5307 50.7077 29.2775 51.0551 29.0939C51.6254 28.773 52.0967 28.3017 52.4177 27.7314C52.9364 26.8846 53.276 25.9405 53.4154 24.9574C53.5549 23.9743 53.4912 22.973 53.2284 22.0154C52.7379 20.4621 52.0975 17.5666 51.8659 16.3607L41.6466 16.4902C40.9511 17.6318 39.9312 18.5402 38.717 19.0995C38.2078 19.3853 37.7626 19.7726 37.409 20.2372C36.5369 21.2047 34.4318 21.6475 31.0662 22.2811C28.6613 22.7444 25.9293 23.269 24.1852 24.1137C22.942 24.7085 21.794 25.4845 20.7788 26.4165C19.9749 27.0978 19.3277 27.6973 18.1422 27.6496H18.1013C16.5548 27.6496 13.8229 29.6935 12.3513 30.7699L12.2355 30.8517C10.4437 32.2142 7.18715 33.5768 5.00023 33.5019C3.99192 33.4542 2.79967 34.1831 1.9685 34.7963C3.33108 35.3277 5.74964 36.1044 7.4801 35.5185C9.06757 34.8866 10.5353 33.988 11.8199 32.8615C12.5962 32.2314 13.4132 31.6533 14.2657 31.131C16.5753 29.7684 17.6108 30.184 17.8765 30.3407C17.9897 30.4099 18.0816 30.5089 18.1422 30.6268C18.2921 30.9266 21.8893 37.9643 28.0481 34.9326C28.1279 34.8985 28.2135 34.88 28.3002 34.8781Z" fill="#333736"/>
<path id="Vector_14" d="M38.4854 22.2811L51.4298 22.2198C51.3567 21.4243 51.243 20.6329 51.0892 19.849L50.7622 19.6446C48.657 19.4538 51.314 18.0299 50.1354 16.1291C50.0332 15.9724 51.8522 14.7325 51.7977 14.5622L51.7569 14.4191C51.6643 14.0939 51.6319 13.7545 51.6615 13.4176C51.7508 12.6232 52.0186 11.8593 52.445 11.183C52.5276 11.044 52.6454 10.9292 52.7866 10.8503C52.9277 10.7713 53.0872 10.731 53.2489 10.7334C53.9919 10.7734 54.7224 10.5299 55.2927 10.0521C56.2197 9.13842 57.2002 8.28075 58.2291 7.48362C58.4045 7.34089 58.5449 7.1598 58.6394 6.95428C58.7339 6.74877 58.78 6.52431 58.7741 6.29819V4.93562C58.7892 4.59447 58.7571 4.25286 58.6787 3.9205C58.6272 3.57752 58.467 3.2601 58.2218 3.01485C57.9765 2.7696 57.6591 2.60946 57.3161 2.55793C55.7219 2.36717 53.6372 3.08933 52.1316 2.6465C51.7601 2.56463 51.4267 2.36077 51.1846 2.0674C51.0934 1.93456 51.0415 1.77874 51.0347 1.61776C51.033 1.50004 50.9918 1.38632 50.9176 1.29487C50.8435 1.20343 50.7407 1.13958 50.6259 1.11361C49.6517 0.868342 47.4239 0.432319 45.816 0.834278C43.7041 1.40656 45.0871 2.31267 42.2802 2.74869C39.4733 3.18471 40.3453 10.965 40.9721 12.9339C41.2737 13.7709 41.5017 14.6326 41.6534 15.5092C41.6534 15.5092 43.561 16.7219 43.1795 17.4713C42.8661 18.0844 40.2636 18.1866 40.1205 18.7793C39.4127 19.8634 38.8622 21.0425 38.4854 22.2811Z" fill="#E8BF87"/>
<path id="Vector_15" d="M57.3025 2.56474C55.7082 2.37398 53.6235 3.09615 52.1179 2.65331C51.7464 2.57144 51.413 2.36758 51.1709 2.07422C51.0993 2.23024 51.0622 2.39989 51.0622 2.57156C51.0622 2.74323 51.0993 2.91287 51.1709 3.0689C51.2861 3.36559 51.4883 3.62058 51.7508 3.80049C52.0134 3.9804 52.3242 4.07684 52.6425 4.0772H55.79C56.226 4.58135 55.9808 5.69866 57.1526 5.65097C57.1526 5.65097 56.0285 7.47 54.9316 8.02184C53.8347 8.57368 52.9218 8.8462 52.0702 9.21409C50.9256 9.73187 49.8356 12.3344 49.7606 13.0974C49.8979 13.5918 50.1044 14.0642 50.3738 14.5009L50.6463 14.2965C50.9212 14.0712 51.2321 13.8938 51.566 13.7719H51.675V13.4653C51.7643 12.6709 52.0322 11.907 52.4585 11.2307C52.5412 11.0917 52.659 10.9769 52.8001 10.898C52.9413 10.819 53.1007 10.7787 53.2624 10.781C54.0054 10.8211 54.7359 10.5776 55.3063 10.0998C56.2293 9.17208 57.2051 8.29858 58.229 7.48363C58.4043 7.34229 58.5447 7.16243 58.6393 6.95801C58.7338 6.7536 58.7799 6.53014 58.774 6.305V4.94243C58.7892 4.60128 58.7571 4.25968 58.6787 3.92732C58.6264 3.58237 58.4642 3.26348 58.2163 3.01801C57.9684 2.77254 57.6479 2.61358 57.3025 2.56474Z" fill="#CD9F61"/>
<path id="Vector_16" d="M41.6465 16.1563C41.477 16.1572 41.3133 16.0948 41.1873 15.9815C41.0613 15.8681 40.9821 15.7118 40.9652 15.5432C40.8037 14.7155 40.5758 13.9022 40.2839 13.111C39.8002 11.5985 38.9213 5.75311 40.4815 3.25279C40.6488 2.94807 40.8827 2.68505 41.1658 2.48333C41.4489 2.28161 41.7739 2.14641 42.1166 2.08779C43.4246 1.89022 43.6018 1.64496 43.8334 1.352C44.2591 0.746343 44.9045 0.330788 45.632 0.193817C47.342 -0.262644 49.5971 0.193817 50.7825 0.473144C51.0412 0.535831 51.272 0.681849 51.4394 0.888685C51.6069 1.09552 51.7016 1.35169 51.7091 1.6177C51.7091 1.75396 51.9475 1.90384 52.3154 2.01285C53.1844 2.17647 54.0762 2.17647 54.9452 2.01285C55.7517 1.8867 56.5702 1.8547 57.3842 1.91747C57.8645 1.98036 58.3117 2.19672 58.6591 2.53431C59.0065 2.8719 59.2356 3.31268 59.3122 3.791C59.4092 4.18751 59.4482 4.59599 59.428 5.00369L59.4621 6.28451C59.4701 6.61435 59.4017 6.94157 59.2622 7.24059C59.1228 7.53961 58.916 7.80231 58.6582 8.00816C57.6594 8.77841 56.7105 9.61125 55.8172 10.5017C55.4716 10.8223 55.0646 11.0696 54.6209 11.2289C54.1772 11.3881 53.7058 11.4559 53.2352 11.4282C53.1904 11.4281 53.1463 11.4392 53.107 11.4607C53.0677 11.4821 53.0344 11.5131 53.0103 11.5508C52.6456 12.1387 52.4131 12.799 52.329 13.4857C52.3054 13.7443 52.3285 14.0051 52.3972 14.2556C52.3952 14.2896 52.3952 14.3237 52.3972 14.3577C52.44 14.4864 52.4971 14.6098 52.5675 14.7256C52.6172 14.8733 52.6148 15.0334 52.5607 15.1795C52.5066 15.3256 52.4041 15.4487 52.2703 15.5283C52.1364 15.608 51.9793 15.6394 51.8251 15.6173C51.671 15.5952 51.529 15.521 51.4229 15.4069C51.2999 15.2098 51.1994 14.9996 51.1232 14.7801L51.0619 14.5962C50.9501 14.193 50.9108 13.7732 50.946 13.3563C51.0429 12.4557 51.3434 11.589 51.8249 10.8219C51.9678 10.5877 52.1677 10.3937 52.406 10.2578C52.6443 10.122 52.9132 10.0488 53.1875 10.0452C53.7574 10.0989 54.3261 9.93054 54.7749 9.57512C55.7214 8.63598 56.7223 7.75332 57.7725 6.93173C57.8693 6.85454 57.9468 6.75586 57.9988 6.64352C58.0509 6.53118 58.076 6.40826 58.0723 6.28451V4.92194C58.0814 4.638 58.0539 4.35407 57.9905 4.07715C57.7998 3.29367 57.3774 3.24598 57.2207 3.22554C56.5108 3.17891 55.7979 3.2109 55.0951 3.32092C54.0497 3.53269 52.9725 3.53269 51.9271 3.32092C50.6803 2.95984 50.401 2.23767 50.3533 1.7744C49.4472 1.54958 47.3965 1.13399 45.9795 1.51551C45.2505 1.71308 45.1074 1.90384 44.9167 2.1968C44.5147 2.71457 44.0446 3.15741 42.3686 3.39586C42.2208 3.42578 42.0821 3.4901 41.9637 3.58361C41.8454 3.67711 41.7507 3.79717 41.6874 3.93407C40.5564 5.76673 41.1015 11.0331 41.626 12.675C41.9359 13.5606 42.1639 14.4728 42.3073 15.4001C42.3226 15.5777 42.2677 15.7542 42.1543 15.8917C42.041 16.0293 41.8782 16.1169 41.701 16.1359L41.6465 16.1563Z" fill="#333736"/>
<path id="Vector_17" d="M57.6091 2.63281C57.6091 2.63281 56.7234 3.21872 57.0096 4.04989C57.2276 4.66986 58.0792 4.86062 58.5016 4.91512C58.5725 4.92671 58.6452 4.91245 58.7065 4.87493C58.7677 4.83742 58.8135 4.77915 58.8354 4.71073C59.0805 4.19723 59.1171 3.60876 58.9376 3.06883C58.5629 2.44886 57.6091 2.63281 57.6091 2.63281Z" fill="#333333"/>
<path id="Vector_18" d="M58.5492 5.59643H58.413C57.3433 5.45336 56.6212 4.99008 56.3691 4.28836C56.2474 3.87731 56.2657 3.43751 56.4211 3.03799C56.5765 2.63847 56.8601 2.30185 57.2275 2.08099C57.2965 2.02927 57.3753 1.99218 57.4592 1.97199C57.8351 1.87953 58.23 1.90075 58.5938 2.03295C58.9577 2.16515 59.2741 2.40238 59.503 2.71459C59.6599 3.06497 59.7411 3.44457 59.7411 3.82849C59.7411 4.21241 59.6599 4.592 59.503 4.94239C59.4329 5.1378 59.303 5.30617 59.1318 5.42357C58.9606 5.54098 58.7568 5.60146 58.5492 5.59643ZM57.8679 3.28687C57.7453 3.40269 57.5682 3.61388 57.6431 3.82508C57.718 4.03628 57.9429 4.10441 58.3244 4.19298C58.418 3.93722 58.4299 3.65869 58.3585 3.39587C58.2835 3.30049 58.0451 3.28005 57.8747 3.28687H57.8679Z" fill="#333736"/>
<path id="Vector_19" d="M47.2399 6.5298C47.2404 6.88003 47.1271 7.22095 46.917 7.50114C46.7068 7.78133 46.4113 7.98559 46.0749 8.08313C44.4866 8.6613 43.0297 9.55072 41.7896 10.6993C40.6996 11.7961 38.5263 12.4502 38.1379 11.7553C37.7496 11.0603 38.2265 9.90897 38.0357 8.86661C37.845 7.82424 37.7155 6.01202 38.1584 5.18085C38.6012 4.34968 39.2416 4.16574 39.3847 3.39588C39.5277 2.62603 40.8494 1.24302 41.9054 1.35203C42.9614 1.46103 45.6661 2.59878 46.1021 3.39588C46.5382 4.19299 46.3678 4.87427 47.2399 6.5298Z" fill="#E8BF87"/>
<path id="Vector_20" d="M46.3679 7.96728C46.2747 8.01115 46.1792 8.04982 46.0817 8.08309C44.4906 8.65962 43.0312 9.54918 41.7896 10.6992C40.6996 11.7961 38.5331 12.4501 38.1379 11.7552C37.7428 11.0603 38.2265 9.90894 38.0357 8.86657C37.845 7.82421 37.7155 6.01199 38.1584 5.18763C38.6012 4.36327 39.2484 4.15889 39.3847 3.39585C39.5209 2.63281 40.8494 1.23617 41.9054 1.35199C42.1353 1.37874 42.363 1.422 42.5867 1.48144C42.2734 1.62235 41.9914 1.82454 41.7574 2.0761C41.5234 2.32766 41.3421 2.6235 41.2241 2.9462C41.1151 3.51848 40.6042 3.66836 40.2703 4.30877C39.9365 4.94918 40.0251 6.35263 40.175 7.12929C40.3248 7.90596 39.9501 8.80526 40.2499 9.34347C40.5497 9.88169 42.212 9.34347 43.0568 8.53274C43.9016 7.72201 45.4413 8.2466 46.3679 7.96728Z" fill="#CD9F61"/>
<path id="Vector_21" d="M38.8192 12.7158C38.7217 12.7228 38.6238 12.7228 38.5263 12.7158C38.3231 12.7021 38.1264 12.639 37.9531 12.5322C37.7798 12.4254 37.6351 12.2779 37.5316 12.1026C37.274 11.5061 37.2074 10.8446 37.3408 10.2087C37.3951 9.80626 37.3951 9.39839 37.3408 8.99598C37.1501 7.96043 36.9729 5.92338 37.5316 4.8742C37.7331 4.5093 37.9905 4.17826 38.2946 3.89315C38.5535 3.62745 38.6693 3.50482 38.7034 3.29362C38.9078 2.224 40.5224 0.56848 41.9463 0.677485C43.0977 0.772865 46.034 1.9583 46.7153 3.05517C46.7646 3.13271 46.7977 3.21943 46.8126 3.31009C46.8275 3.40076 46.8239 3.4935 46.8021 3.58275C46.7802 3.672 46.7405 3.7559 46.6854 3.82941C46.6303 3.90292 46.5609 3.96452 46.4813 4.0105C46.4018 4.05648 46.3137 4.0859 46.2225 4.09698C46.1313 4.10806 46.0388 4.10057 45.9505 4.07497C45.8623 4.04937 45.7801 4.00618 45.709 3.94801C45.6379 3.88983 45.5793 3.81787 45.5367 3.73646C45.2642 3.25956 42.8797 2.10818 41.8509 2.03324C41.1696 1.98555 40.1341 3.09605 40.0523 3.55251C39.9343 4.05422 39.6628 4.50667 39.2757 4.84695C39.0618 5.04453 38.8802 5.27442 38.7375 5.52824C38.4377 6.09371 38.4786 7.64704 38.683 8.77116C38.7611 9.29969 38.7611 9.83684 38.683 10.3654C38.6247 10.7035 38.6247 11.0491 38.683 11.3873C39.6719 11.3361 40.6055 10.9155 41.2991 10.2087C42.6209 8.98458 44.1788 8.04334 45.8773 7.44265C45.9655 7.4007 46.0616 7.37817 46.1592 7.37659C46.2567 7.37502 46.3535 7.39442 46.443 7.4335C46.5324 7.47258 46.6124 7.53042 46.6775 7.6031C46.7427 7.67578 46.7914 7.76161 46.8205 7.85478C46.8496 7.94794 46.8583 8.04627 46.8461 8.1431C46.8339 8.23993 46.801 8.333 46.7497 8.41602C46.6983 8.49904 46.6298 8.57006 46.5486 8.62428C46.4675 8.6785 46.3756 8.71465 46.2793 8.73028C44.7914 9.26973 43.4253 10.0987 42.2597 11.1693C41.3298 12.0724 40.112 12.6199 38.8192 12.7158Z" fill="#333736"/>
<path id="Vector_22" d="M51.8454 13.6151C51.8454 13.6151 46.0272 14.603 41.156 13.6151L41.2105 15.8157C41.2105 15.8157 43.8811 17.0215 52.37 15.659L51.8454 13.6151Z" fill="#A67E73"/>
<path id="Vector_23" d="M45.3664 17.0216C42.2188 17.0216 41.013 16.5106 40.938 16.4765C40.8216 16.4243 40.7222 16.3404 40.6511 16.2344C40.5801 16.1284 40.5402 16.0046 40.5361 15.877L40.4816 13.6151C40.4785 13.5133 40.4984 13.4121 40.5397 13.3189C40.5809 13.2258 40.6426 13.1431 40.72 13.0769C40.7986 13.0117 40.8908 12.965 40.9899 12.9402C41.0889 12.9155 41.1923 12.9133 41.2923 12.9339C45.9727 13.8672 51.6751 12.9339 51.7364 12.9339C51.9045 12.9064 52.0768 12.943 52.2193 13.0363C52.3618 13.1296 52.4642 13.2729 52.5063 13.438L53.024 15.5159C53.0461 15.6074 53.0491 15.7024 53.0327 15.795C53.0163 15.8877 52.9808 15.9759 52.9286 16.0541C52.8767 16.1316 52.8093 16.1976 52.7308 16.248C52.6523 16.2984 52.5643 16.3321 52.4722 16.3471C50.1243 16.7535 47.7488 16.979 45.3664 17.0216ZM41.8782 15.3184C42.832 15.55 45.6525 15.9996 51.532 15.1276L51.3276 14.3646C48.1817 14.8147 44.9894 14.8376 41.8373 14.4327L41.8782 15.3184ZM48.9976 5.17401C48.8705 5.17371 48.746 5.13785 48.6382 5.07049C48.5304 5.00313 48.4436 4.90696 48.3876 4.79284C48.3317 4.67873 48.3087 4.55123 48.3214 4.42475C48.3341 4.29827 48.3819 4.17787 48.4594 4.07714C48.7976 3.67562 49.1767 3.31031 49.5903 2.98709C49.7324 2.87645 49.9124 2.82653 50.0911 2.84823C50.2699 2.86993 50.4327 2.96149 50.5441 3.1029C50.6021 3.1738 50.6452 3.25565 50.6708 3.34358C50.6965 3.43151 50.7041 3.5237 50.6933 3.61464C50.6825 3.70558 50.6535 3.79341 50.6079 3.87288C50.5624 3.95235 50.5013 4.02182 50.4283 4.07714C50.1034 4.33329 49.8044 4.62082 49.5358 4.93556C49.4697 5.01302 49.387 5.07465 49.2938 5.11592C49.2007 5.15719 49.0995 5.17704 48.9976 5.17401Z" fill="#333736"/>
<path id="Vector_24" d="M51.7977 25.4219L55.0951 27.6974L61.581 25.2992L65.3689 25.0608L69.4566 25.6467C69.5574 25.6617 69.6538 25.6976 69.7398 25.7522C69.8258 25.8067 69.8994 25.8786 69.9559 25.9634C70.0124 26.0481 70.0505 26.1437 70.0677 26.2441C70.085 26.3444 70.0811 26.4473 70.0562 26.546C69.9564 27.1152 69.7059 27.6473 69.3309 28.087C68.956 28.5267 68.4701 28.8579 67.9238 29.0463C66.473 29.4226 64.9354 29.2655 63.5908 28.6035L56.2533 31.5398L45.816 31.4308" fill="#E8BF87"/>
<path id="Vector_25" d="M70.0425 26.5596C69.9401 27.1288 69.6879 27.6604 69.312 28.0998C68.936 28.5393 68.4498 28.8707 67.9033 29.0599C66.4577 29.4319 64.9265 29.2698 63.5908 28.6035L56.2533 31.5398C52.7052 32.3302 49.0115 32.1727 45.5435 31.0833C49.6721 31.0288 53.4464 30.7155 56.2806 29.7208L63.5908 26.7572C64.9325 27.4348 66.4748 27.6019 67.9306 27.2273C68.3145 27.1145 68.6714 26.9247 68.9795 26.6693C69.2876 26.4139 69.5403 26.0984 69.7223 25.7421C69.8557 25.8266 69.9586 25.9514 70.0162 26.0984C70.0738 26.2455 70.083 26.407 70.0425 26.5596Z" fill="#CD9F61"/>
<path id="Vector_26" d="M51.3753 32.6911C49.3202 32.7131 47.2757 32.3931 45.3255 31.7441C45.1729 31.6729 45.0521 31.5476 44.9864 31.3925C44.9207 31.2374 44.9149 31.0634 44.9699 30.9042C45.0249 30.745 45.137 30.6119 45.2845 30.5304C45.4319 30.449 45.6043 30.4251 45.7684 30.4633C48.6434 31.458 52.0157 31.6011 56.0694 30.9062L63.3115 27.9221C63.4045 27.8848 63.5047 27.8686 63.6048 27.8745C63.7049 27.8803 63.8025 27.9083 63.8906 27.9562C65.0726 28.5432 66.425 28.6905 67.7058 28.3718C68.1437 28.2143 68.5308 27.9412 68.826 27.5813C69.1211 27.2214 69.3131 26.7882 69.3817 26.3279L69.3408 26.253L65.3417 25.6807L61.7173 25.9055L55.3268 28.3309C55.225 28.3687 55.1156 28.3817 55.0077 28.3686C54.8999 28.3556 54.7967 28.317 54.7068 28.256L51.4094 25.9805C51.3234 25.936 51.2478 25.8736 51.1877 25.7976C51.1277 25.7216 51.0845 25.6337 51.0612 25.5397C51.0378 25.4457 51.0347 25.3478 51.0522 25.2525C51.0696 25.1572 51.1072 25.0667 51.1624 24.9871C51.2176 24.9075 51.2891 24.8406 51.3722 24.7908C51.4553 24.741 51.5481 24.7096 51.6443 24.6985C51.7406 24.6874 51.838 24.697 51.9303 24.7265C52.0225 24.7561 52.1074 24.805 52.1793 24.87L55.1905 26.9138L61.3221 24.6383C61.3841 24.6182 61.4481 24.6045 61.5129 24.5975L65.3076 24.359H65.4439L69.5316 24.9449C69.7246 24.9726 69.9097 25.0403 70.0751 25.1435C70.2405 25.2467 70.3825 25.3833 70.4922 25.5444C70.6006 25.7082 70.6746 25.8923 70.7097 26.0855C70.7448 26.2788 70.7404 26.4771 70.6966 26.6686C70.5727 27.3544 70.2663 27.9941 69.8095 28.5205C69.3527 29.0468 68.7625 29.4402 68.1009 29.6594C66.5831 30.0612 64.973 29.9265 63.5431 29.2779L56.5054 32.1665L56.3692 32.2006C54.722 32.5089 53.051 32.673 51.3753 32.6911Z" fill="#333736"/>
<path id="Vector_27" d="M17.5836 30.9948C18.7317 34.2104 20.5766 37.1324 22.9862 39.5517L16.5821 43.8983L14.0409 46.9982L12.0515 50.8474C12.0022 50.9426 11.9734 51.0471 11.9672 51.1541C11.9609 51.2611 11.9773 51.3683 12.0152 51.4686C12.0531 51.5688 12.1118 51.66 12.1873 51.7361C12.2628 51.8122 12.3535 51.8715 12.4535 51.9102C13.0013 52.1747 13.6099 52.2876 14.2162 52.2373C14.8224 52.187 15.4041 51.9752 15.9008 51.6241C17.111 50.6015 17.9117 49.1767 18.1558 47.6113L25.1799 43.1625C27.9588 40.6901 30.1195 37.6007 31.4886 34.1423" fill="#E8BF87"/>
<path id="Vector_28" d="M12.4467 51.9171C12.9965 52.1809 13.6071 52.2922 14.2147 52.2395C14.8223 52.1868 15.4046 51.9719 15.9008 51.6173C17.115 50.6 17.9187 49.1765 18.1626 47.6114L25.1867 43.1557C27.9537 40.6755 30.1124 37.5913 31.4954 34.1423L29.3562 36.9288L24.2057 42.4676L16.8955 46.8074C16.4272 48.2765 15.5332 49.5735 14.327 50.5341C13.9964 50.7906 13.6164 50.9762 13.2108 51.0794C12.8053 51.1825 12.3828 51.201 11.9698 51.1336C11.9547 51.2981 11.9929 51.463 12.0788 51.6041C12.1647 51.7452 12.2936 51.8549 12.4467 51.9171Z" fill="#CD9F61"/>
<path id="Vector_29" d="M14.0204 52.9253C13.3926 52.9195 12.7721 52.7899 12.1946 52.5438C12.0081 52.4685 11.8393 52.3552 11.6992 52.211C11.559 52.0668 11.4505 51.8949 11.3806 51.7064C11.3107 51.5178 11.2809 51.3168 11.2932 51.1161C11.3055 50.9153 11.3596 50.7194 11.452 50.5408L13.4413 46.6983C13.4623 46.6573 13.4874 46.6185 13.5163 46.5825L16.0506 43.4759C16.0799 43.433 16.1168 43.3961 16.1596 43.3669L21.7326 39.0884C19.5904 36.8428 17.963 34.1576 16.9636 31.2195C16.9043 31.0505 16.914 30.865 16.9905 30.7031C17.067 30.5411 17.2041 30.4158 17.3723 30.3543C17.5413 30.295 17.7269 30.3047 17.8888 30.3812C18.0507 30.4577 18.176 30.5949 18.2376 30.7631C19.2553 33.7588 20.9637 36.4731 23.2246 38.6864C23.2916 38.7554 23.3433 38.8379 23.3761 38.9283C23.409 39.0187 23.4224 39.1151 23.4153 39.211C23.409 39.3064 23.3827 39.3993 23.3381 39.4838C23.2935 39.5683 23.2316 39.6425 23.1564 39.7015L17.0249 44.3888L14.5927 47.3796L12.6306 51.1608C12.6223 51.1851 12.6223 51.2114 12.6306 51.2357C12.6454 51.2611 12.6665 51.2822 12.6919 51.297C13.1347 51.5127 13.6271 51.6062 14.1182 51.5678C14.6092 51.5295 15.0812 51.3608 15.4852 51.079C16.5496 50.1703 17.255 48.9117 17.4745 47.5295C17.4882 47.4309 17.5234 47.3365 17.5775 47.2529C17.6317 47.1693 17.7035 47.0986 17.7879 47.0458L24.7575 42.6311C27.3668 39.9059 29.9761 37.0241 30.8413 33.9583C30.856 33.8629 30.8908 33.7717 30.9433 33.6907C30.9959 33.6098 31.0651 33.5409 31.1463 33.4887C31.2275 33.4365 31.3188 33.4021 31.4143 33.3879C31.5098 33.3737 31.6072 33.3799 31.7001 33.4062C31.793 33.4324 31.8792 33.4781 31.9531 33.5402C32.027 33.6024 32.0868 33.6795 32.1287 33.7664C32.1705 33.8534 32.1934 33.9483 32.1958 34.0448C32.1982 34.1413 32.1801 34.2372 32.1426 34.3262C31.182 37.7326 28.4228 40.7848 25.6704 43.6326C25.6339 43.6697 25.5927 43.7017 25.5478 43.7279L18.7758 48.0268C18.4622 49.6512 17.5896 51.1143 16.3095 52.1623C15.6515 52.662 14.8467 52.9303 14.0204 52.9253Z" fill="#333736"/>
<path id="Vector_30" d="M59.9322 33.3724C60.655 33.3724 61.3481 33.6595 61.8592 34.1706C62.3702 34.6817 62.6573 35.3748 62.6573 36.0976V74.9309H57.1798V36.0976C57.1798 35.3748 57.4669 34.6817 57.978 34.1706C58.4891 33.6595 59.1822 33.3724 59.905 33.3724H59.9322Z" fill="#C69C6D"/>
<path id="Vector_31" d="M62.6914 75.6121H57.1798C56.9991 75.6121 56.8258 75.5403 56.6981 75.4125C56.5703 75.2848 56.4985 75.1115 56.4985 74.9308V36.0975C56.4985 35.1877 56.8599 34.3152 57.5032 33.6719C58.1465 33.0286 59.019 32.6672 59.9288 32.6672C60.8386 32.6672 61.7111 33.0286 62.3544 33.6719C62.9977 34.3152 63.3591 35.1877 63.3591 36.0975V74.9308C63.3591 75.1091 63.2892 75.2804 63.1644 75.4078C63.0395 75.5352 62.8697 75.6085 62.6914 75.6121ZM57.8543 74.2495H62.0101V36.0975C62.0101 35.5464 61.7912 35.0179 61.4015 34.6282C61.0118 34.2385 60.4833 34.0196 59.9322 34.0196C59.3811 34.0196 58.8526 34.2385 58.4629 34.6282C58.0732 35.0179 57.8543 35.5464 57.8543 36.0975V74.2495Z" fill="#333736"/>
<path id="Vector_32" d="M59.9323 41.9907L40.6315 51.9784V56.7678L59.9323 46.385" fill="#C69C6D"/>
<path id="Vector_33" d="M40.6314 57.4492C40.5091 57.4491 40.3891 57.4162 40.2839 57.3538C40.1835 57.2926 40.1006 57.2065 40.0433 57.1039C39.986 57.0012 39.9562 56.8855 39.9569 56.7679V51.9989C39.9572 51.8756 39.991 51.7548 40.0546 51.6492C40.1182 51.5436 40.2092 51.4573 40.318 51.3993L59.6256 41.3913C59.7857 41.3099 59.9714 41.2951 60.1424 41.35C60.3133 41.4048 60.4557 41.5249 60.5386 41.6842C60.6177 41.8436 60.6314 42.0276 60.5767 42.197C60.5219 42.3663 60.4031 42.5075 60.2456 42.5903L41.3059 52.3872V55.6369L59.612 45.7924C59.7703 45.7073 59.9557 45.6883 60.128 45.7393C60.3002 45.7904 60.4453 45.9074 60.5317 46.0649C60.5757 46.1443 60.6034 46.2316 60.6131 46.3219C60.6229 46.4121 60.6145 46.5034 60.5885 46.5903C60.5625 46.6773 60.5193 46.7582 60.4616 46.8282C60.4039 46.8982 60.3328 46.9561 60.2524 46.9982L40.9516 57.3674C40.8532 57.4205 40.7432 57.4486 40.6314 57.4492Z" fill="#333736"/>
<path id="Vector_34" d="M59.9323 51.7808L40.6315 61.7616V66.5578L59.9323 56.1751" fill="#C69C6D"/>
<path id="Vector_35" d="M40.6315 67.2323C40.5092 67.2323 40.3892 67.1993 40.2841 67.1369C40.1846 67.0764 40.1023 66.9914 40.0451 66.89C39.9878 66.7886 39.9575 66.6743 39.957 66.5578V61.7889C39.9574 61.6656 39.9911 61.5448 40.0547 61.4392C40.1183 61.3336 40.2093 61.2472 40.3181 61.1893L59.6257 51.1744C59.783 51.1124 59.9577 51.111 60.1159 51.1705C60.2741 51.23 60.4045 51.3463 60.4818 51.4966C60.5591 51.6469 60.5777 51.8207 60.5341 51.984C60.4905 52.1473 60.3877 52.2885 60.2457 52.3803L41.306 62.1772V65.4269L59.6121 55.5755C59.691 55.5205 59.7806 55.4828 59.875 55.4649C59.9695 55.447 60.0667 55.4492 60.1602 55.4716C60.2537 55.4939 60.3414 55.5357 60.4176 55.5944C60.4938 55.653 60.5567 55.7272 60.6022 55.8118C60.6477 55.8965 60.6747 55.9899 60.6816 56.0858C60.6884 56.1817 60.6748 56.278 60.6418 56.3683C60.6088 56.4585 60.557 56.5408 60.4899 56.6097C60.4228 56.6785 60.3419 56.7324 60.2525 56.7678L40.9517 67.1506C40.8533 67.2037 40.7433 67.2318 40.6315 67.2323Z" fill="#333736"/>
<path id="Vector_36" d="M40.6314 43.5917C41.3542 43.5917 42.0473 43.8788 42.5584 44.3899C43.0694 44.9009 43.3566 45.5941 43.3566 46.3168V85.1501H37.879V46.3168C37.879 45.9567 37.9504 45.6 38.089 45.2676C38.2277 44.9352 38.4309 44.6336 38.6868 44.3802C38.9428 44.1268 39.2464 43.9266 39.5802 43.7913C39.914 43.6559 40.2713 43.5881 40.6314 43.5917Z" fill="#C69C6D"/>
<path id="Vector_37" d="M43.3838 85.8314H37.879C37.6984 85.8314 37.5251 85.7597 37.3973 85.6319C37.2695 85.5041 37.1978 85.3308 37.1978 85.1501V46.3169C37.1978 45.4071 37.5592 44.5346 38.2025 43.8913C38.8458 43.248 39.7183 42.8866 40.628 42.8866C41.5378 42.8866 42.4103 43.248 43.0536 43.8913C43.6969 44.5346 44.0583 45.4071 44.0583 46.3169V85.1501C44.0583 85.3297 43.9875 85.5019 43.8612 85.6295C43.7349 85.7571 43.5633 85.8296 43.3838 85.8314ZM38.5535 84.4689H42.7094V46.3169C42.7094 45.7658 42.4904 45.2372 42.1007 44.8476C41.7111 44.4579 41.1825 44.2389 40.6314 44.2389C40.0803 44.2389 39.5518 44.4579 39.1621 44.8476C38.7724 45.2372 38.5535 45.7658 38.5535 46.3169V84.4689Z" fill="#333736"/>
<path id="Vector_38" d="M62.4871 74.9308C62.6323 72.4806 63.4806 70.1243 64.9306 68.1439C66.3806 66.1635 68.3706 64.643 70.6625 63.7645C68.4502 67.069 67.2649 70.9541 67.2561 74.9308H62.4871Z" fill="#85BD79"/>
<path id="Vector_39" d="M67.2629 75.6121H62.4939C62.3132 75.6121 62.1399 75.5403 62.0122 75.4125C61.8844 75.2848 61.8126 75.1115 61.8126 74.9308C61.9704 72.3487 62.8629 69.8654 64.385 67.7736C65.907 65.6818 67.9953 64.0686 70.4036 63.1241C70.5372 63.0704 70.6843 63.0603 70.824 63.0953C70.9636 63.1304 71.0886 63.2088 71.1809 63.3193C71.2732 63.4297 71.3281 63.5666 71.3378 63.7103C71.3475 63.8539 71.3114 63.9969 71.2348 64.1188C69.0843 67.3144 67.9362 71.079 67.9374 74.9308C67.9374 75.1103 67.8665 75.2826 67.7403 75.4102C67.614 75.5377 67.4424 75.6103 67.2629 75.6121ZM63.2161 74.2495H66.6225C66.7142 71.1575 67.5136 68.1276 68.9593 65.3928C67.3957 66.34 66.0668 67.6288 65.0722 69.1627C64.0776 70.6965 63.443 72.4356 63.2161 74.2495Z" fill="#333736"/>
<path id="Vector_40" d="M65.6346 74.9308C65.5204 73.0343 64.862 71.2108 63.7383 69.6788C62.6146 68.1467 61.0732 66.9709 59.2986 66.2921C61.0197 68.8457 61.9465 71.8515 61.9625 74.9308H65.6346Z" fill="#85BD79"/>
<path id="Vector_41" d="M65.6346 75.6121H61.942C61.7613 75.6121 61.588 75.5403 61.4603 75.4125C61.3325 75.2848 61.2607 75.1115 61.2607 74.9308C61.2656 71.9817 60.3929 69.0979 58.7536 66.6464C58.6783 66.525 58.6431 66.3831 58.6528 66.2407C58.6626 66.0982 58.7169 65.9624 58.808 65.8525C58.8991 65.7426 59.0224 65.664 59.1606 65.628C59.2988 65.592 59.4447 65.6003 59.5779 65.6517C61.4818 66.3755 63.1332 67.6388 64.33 69.2869C65.5268 70.935 66.2169 72.8964 66.3159 74.9308C66.3159 75.1115 66.2441 75.2848 66.1163 75.4125C65.9885 75.5403 65.8153 75.6121 65.6346 75.6121ZM62.6029 74.2495H64.9533C64.7838 72.9928 64.3517 71.7858 63.685 70.707C63.0183 69.6283 62.1319 68.702 61.0836 67.9885C62.0253 69.9462 62.5496 72.0783 62.6233 74.2495H62.6029Z" fill="#333736"/>
<path id="Vector_42" d="M33.4984 85.1502C33.6436 82.7 34.4919 80.3436 35.9419 78.3632C37.3918 76.3828 39.3819 74.8624 41.6738 73.9839C39.4641 77.2896 38.2791 81.1739 38.2674 85.1502H33.4984Z" fill="#85BD79"/>
<path id="Vector_43" d="M38.2741 85.8314H33.5051C33.3244 85.8314 33.1512 85.7596 33.0234 85.6319C32.8956 85.5041 32.8239 85.3308 32.8239 85.1501C32.986 82.5708 33.8812 80.0914 35.4043 78.0034C36.9274 75.9155 39.015 74.3059 41.4217 73.3639C41.5552 73.3101 41.7024 73.3 41.842 73.3351C41.9817 73.3701 42.1066 73.4485 42.1989 73.559C42.2912 73.6695 42.3462 73.8064 42.3559 73.95C42.3656 74.0937 42.3295 74.2367 42.2528 74.3586C40.1038 77.5476 38.9535 81.3046 38.9486 85.1501C38.9486 85.3296 38.8778 85.5019 38.7515 85.6295C38.6252 85.757 38.4536 85.8296 38.2741 85.8314ZM34.2273 84.4688H37.6337C37.7254 81.3768 38.5248 78.3469 39.9705 75.6121C38.407 76.5593 37.0781 77.8481 36.0834 79.382C35.0888 80.9158 34.4542 82.6549 34.2273 84.4688Z" fill="#333736"/>
<path id="Vector_44" d="M36.6664 85.1501C36.5522 83.2535 35.8938 81.4301 34.7701 79.898C33.6464 78.3659 32.105 77.1901 30.3304 76.5114C32.0442 79.0672 32.9639 82.0728 32.9738 85.1501H36.6664Z" fill="#85BD79"/>
<path id="Vector_45" d="M36.6664 85.8314H32.9738C32.7931 85.8314 32.6198 85.7596 32.4921 85.6318C32.3643 85.5041 32.2925 85.3308 32.2925 85.1501C32.2895 82.2034 31.4096 79.3243 29.7649 76.8793C29.6897 76.7579 29.6544 76.616 29.6642 76.4736C29.674 76.3311 29.7282 76.1954 29.8193 76.0854C29.9104 75.9755 30.0338 75.897 30.1719 75.8609C30.3101 75.8249 30.4561 75.8332 30.5893 75.8846C32.4937 76.6053 34.1466 77.8657 35.3457 79.5113C36.5448 81.1569 37.2382 83.1165 37.3408 85.1501C37.3401 85.3288 37.2691 85.5001 37.1433 85.627C37.0175 85.7553 36.8461 85.8288 36.6664 85.8314ZM33.6142 84.4688H35.9306C35.7611 83.212 35.329 82.005 34.6623 80.9263C33.9956 79.8476 33.1092 78.9213 32.0609 78.2078C33.0073 80.1645 33.5363 82.2966 33.6142 84.4688Z" fill="#333736"/>
</g>
</svg>
