<svg width="87" height="86" viewBox="0 0 87 86" fill="none" xmlns="http://www.w3.org/2000/svg">
<g id="Group 48095901">
<rect id="Rectangle 3021" x="1.40674" y="0.75" width="84.5" height="84.5" rx="5.25" fill="#1FAB89" fill-opacity="0.08" stroke="#1FAB89" stroke-width="1.5"/>
<g id="Group 48095900">
<path id="Vector" d="M43.7257 43.6844C32.1315 43.6844 22.6567 53.1592 22.6567 64.7534C22.6567 65.3767 23.1554 66.0001 23.9034 66.0001H63.6726C64.2959 66.0001 64.9193 65.5014 64.9193 64.7534C64.7946 53.1592 55.3198 43.6844 43.7257 43.6844ZM25.1501 63.6314C25.7734 53.9072 33.8769 46.1778 43.7257 46.1778C53.5745 46.1778 61.6779 53.9072 62.3012 63.6314H25.1501Z" fill="#1FAB89"/>
<path id="Vector_2" d="M62.3012 63.6313H25.15C25.7734 53.9072 33.8768 46.1777 43.7256 46.1777C53.5744 46.1777 61.6778 53.9072 62.3012 63.6313Z" fill="#F26E61"/>
<path id="Vector_3" d="M43.7257 19C37.7416 19 32.7549 23.8621 32.7549 29.9708C32.7549 35.9549 37.6169 40.9416 43.7257 40.9416C49.7098 40.9416 54.6965 36.0795 54.6965 29.9708C54.6965 23.9867 49.7098 19 43.7257 19ZM43.7257 38.4482C38.9883 38.4482 35.2482 34.7082 35.2482 29.9708C35.2482 25.2334 39.113 21.4934 43.7257 21.4934C48.4631 21.4934 52.2031 25.3581 52.2031 29.9708C52.2031 34.5835 48.4631 38.4482 43.7257 38.4482Z" fill="#1FAB89"/>
<path id="Vector_4" d="M52.203 29.9707C52.203 34.7081 48.3383 38.4482 43.7256 38.4482C38.9882 38.4482 35.2482 34.7081 35.2482 29.9707C35.2482 25.2333 39.1129 21.4933 43.7256 21.4933C48.463 21.4933 52.203 25.2333 52.203 29.9707Z" fill="#FFE5AB"/>
<path id="Vector_5" d="M43.7256 46.1777C33.8768 46.1777 25.7734 53.9072 25.15 63.6313H62.4258C61.6778 53.9072 53.5744 46.1777 43.7256 46.1777ZM43.7256 48.0478C51.829 48.0478 58.8104 53.9072 60.1818 61.7613H27.2694C28.6407 53.9072 35.6222 48.0478 43.7256 48.0478Z" fill="#E15E5A"/>
<path id="Vector_6" d="M43.7256 21.4933C38.9882 21.4933 35.2482 25.358 35.2482 29.9707C35.2482 34.5834 39.1129 38.4482 43.7256 38.4482C48.463 38.4482 52.203 34.7081 52.203 29.9707C52.203 25.2333 48.463 21.4933 43.7256 21.4933ZM43.7256 36.5781C40.1102 36.5781 37.1182 33.5861 37.1182 29.9707C37.1182 26.3553 40.1102 23.3633 43.7256 23.3633C47.341 23.3633 50.333 26.3553 50.333 29.9707C50.333 33.5861 47.341 36.5781 43.7256 36.5781Z" fill="#F0D39A"/>
</g>
</g>
</svg>
