<svg width="31" height="31" viewBox="0 0 31 31" fill="none" xmlns="http://www.w3.org/2000/svg">
<g id="&#240;&#159;&#166;&#134; icon &#34;woman&#34;">
<g id="Group">
<path id="Vector" d="M19.0919 19.092C15.5855 22.5983 9.8703 22.5983 6.36396 19.092C2.85762 15.5857 2.85762 9.8704 6.36396 6.36407C9.8703 2.85773 15.5855 2.85773 19.0919 6.36407C22.5982 9.8704 22.5982 15.5857 19.0919 19.092ZM7.5957 7.5958C4.76271 10.4288 4.76271 15.0273 7.5957 17.8603C10.4287 20.6932 15.0272 20.6932 17.8601 17.8603C20.6931 15.0273 20.6931 10.4288 17.8601 7.5958C15.0272 4.76281 10.4287 4.76281 7.5957 7.5958Z" fill="#292D32"/>
<path id="Vector_2" d="M24.0187 24.0189C23.6821 24.3556 23.1237 24.3556 22.787 24.0189L17.8601 19.0919C17.5234 18.7553 17.5234 18.1969 17.8601 17.8602C18.1967 17.5235 18.7551 17.5235 19.0918 17.8602L24.0187 22.7871C24.3554 23.1238 24.3554 23.6822 24.0187 24.0189Z" fill="#292D32"/>
<path id="Vector_3" d="M24.0187 19.092L19.0918 24.0189C18.7551 24.3556 18.1967 24.3556 17.8601 24.0189C17.5234 23.6823 17.5234 23.1239 17.8601 22.7872L22.787 17.8603C23.1237 17.5236 23.6821 17.5236 24.0187 17.8603C24.3554 18.1969 24.3554 18.7553 24.0187 19.092Z" fill="#292D32"/>
</g>
</g>
</svg>
