<svg width="23" height="26" viewBox="0 0 23 26" fill="none" xmlns="http://www.w3.org/2000/svg">
<path id="Layer 2" d="M22.0417 3.71429H19.1667V0.928571C19.1667 0.682299 19.0657 0.446113 18.886 0.271972C18.7063 0.0978313 18.4625 0 18.2083 0H0.958333C0.704167 0 0.460412 0.0978313 0.28069 0.271972C0.100967 0.446113 0 0.682299 0 0.928571V21.3571C0 21.6034 0.100967 21.8396 0.28069 22.0137C0.460412 22.1879 0.704167 22.2857 0.958333 22.2857H3.83333V25.0714C3.83333 25.3177 3.9343 25.5539 4.11402 25.728C4.29375 25.9022 4.5375 26 4.79167 26H22.0417C22.2958 26 22.5396 25.9022 22.7193 25.728C22.899 25.5539 23 25.3177 23 25.0714V4.64286C23 4.39658 22.899 4.1604 22.7193 3.98626C22.5396 3.81212 22.2958 3.71429 22.0417 3.71429ZM4.79167 3.71429H14.375C14.6292 3.71429 14.8729 3.81212 15.0526 3.98626C15.2324 4.1604 15.3333 4.39658 15.3333 4.64286C15.3333 4.88913 15.2324 5.12532 15.0526 5.29946C14.8729 5.4736 14.6292 5.57143 14.375 5.57143H4.79167C4.5375 5.57143 4.29375 5.4736 4.11402 5.29946C3.9343 5.12532 3.83333 4.88913 3.83333 4.64286C3.83333 4.39658 3.9343 4.1604 4.11402 3.98626C4.29375 3.81212 4.5375 3.71429 4.79167 3.71429ZM4.79167 7.42857H14.375C14.6292 7.42857 14.8729 7.5264 15.0526 7.70054C15.2324 7.87468 15.3333 8.11087 15.3333 8.35714C15.3333 8.60342 15.2324 8.8396 15.0526 9.01374C14.8729 9.18788 14.6292 9.28571 14.375 9.28571H4.79167C4.5375 9.28571 4.29375 9.18788 4.11402 9.01374C3.9343 8.8396 3.83333 8.60342 3.83333 8.35714C3.83333 8.11087 3.9343 7.87468 4.11402 7.70054C4.29375 7.5264 4.5375 7.42857 4.79167 7.42857ZM4.79167 11.1429H14.375C14.6292 11.1429 14.8729 11.2407 15.0526 11.4148C15.2324 11.589 15.3333 11.8252 15.3333 12.0714C15.3333 12.3177 15.2324 12.5539 15.0526 12.728C14.8729 12.9022 14.6292 13 14.375 13H4.79167C4.5375 13 4.29375 12.9022 4.11402 12.728C3.9343 12.5539 3.83333 12.3177 3.83333 12.0714C3.83333 11.8252 3.9343 11.589 4.11402 11.4148C4.29375 11.2407 4.5375 11.1429 4.79167 11.1429ZM4.79167 14.8571H14.375C14.6292 14.8571 14.8729 14.955 15.0526 15.1291C15.2324 15.3033 15.3333 15.5394 15.3333 15.7857C15.3333 16.032 15.2324 16.2682 15.0526 16.4423C14.8729 16.6165 14.6292 16.7143 14.375 16.7143H4.79167C4.5375 16.7143 4.29375 16.6165 4.11402 16.4423C3.9343 16.2682 3.83333 16.032 3.83333 15.7857C3.83333 15.5394 3.9343 15.3033 4.11402 15.1291C4.29375 14.955 4.5375 14.8571 4.79167 14.8571ZM21.0833 24.1429H5.75V22.2857H18.2083C18.4625 22.2857 18.7063 22.1879 18.886 22.0137C19.0657 21.8396 19.1667 21.6034 19.1667 21.3571V5.57143H21.0833V24.1429Z" fill="#1FAB89"/>
</svg>
