<svg width="66" height="65" viewBox="0 0 66 65" fill="none" xmlns="http://www.w3.org/2000/svg">
<g id="Group 48095908">
<path id="Vector" d="M46.4483 0H1.62069C1.00175 0 0.5 0.50175 0.5 1.12069V57.1552C0.5 57.7741 1.00175 58.2759 1.62069 58.2759H46.4483C47.0672 58.2759 47.569 57.7741 47.569 57.1552V1.12069C47.569 0.50175 47.0672 0 46.4483 0Z" fill="#FFDE55"/>
<path id="Vector_2" d="M53.1724 20.1724V63.8793C53.1724 64.1765 53.0543 64.4616 52.8441 64.6717C52.6339 64.8819 52.3489 65 52.0517 65H7.22408C6.92686 65 6.64181 64.8819 6.43164 64.6717C6.22147 64.4616 6.10339 64.1765 6.10339 63.8793V7.84481C6.10339 7.54759 6.22147 7.26253 6.43164 7.05236C6.64181 6.84219 6.92686 6.72412 7.22408 6.72412H39.7241V17.931C39.7259 18.5249 39.9626 19.094 40.3825 19.514C40.8025 19.9339 41.3716 20.1706 41.9655 20.1724H53.1724Z" fill="#FFEB99"/>
<path id="Vector_3" d="M39.7241 17.931C39.7241 18.5255 39.9603 19.0956 40.3806 19.5159C40.8009 19.9363 41.371 20.1724 41.9655 20.1724H53.1724L39.7241 6.72412V17.931Z" fill="#FFD422"/>
<path id="Vector_4" d="M59.8965 11.207C59.3021 11.207 58.732 11.4432 58.3116 11.8635C57.8913 12.2839 57.6552 12.854 57.6552 13.4484V20.1725H62.1379V13.4484C62.1379 12.854 61.9018 12.2839 61.4814 11.8635C61.0611 11.4432 60.491 11.207 59.8965 11.207Z" fill="#FF9811"/>
<path id="Vector_5" d="M53.1724 20.1724V63.8793C53.1724 64.1765 53.0543 64.4615 52.8441 64.6717C52.6339 64.8819 52.3489 64.9999 52.0517 64.9999H7.22408C6.92686 64.9999 6.64181 64.8819 6.43164 64.6717C6.22147 64.4615 6.10339 64.1765 6.10339 63.8793V59.7103C20.9413 54.7456 39.3879 43.9086 49.093 20.1724H53.1724Z" fill="#FFE477"/>
<path id="Vector_6" d="M59.8965 59.3964L62.1379 53.793H57.6552L59.8965 59.3964Z" fill="#57565C"/>
<path id="Vector_7" d="M62.1379 20.1724H57.6552V53.7931H62.1379V20.1724Z" fill="#FFB655"/>
<path id="Vector_8" d="M36.3621 43.7068V33.6206C34.3672 33.6206 32.4172 34.2122 30.7585 35.3204C29.0998 36.4287 27.8071 38.004 27.0437 39.847C26.2802 41.69 26.0805 43.718 26.4697 45.6745C26.8589 47.6311 27.8195 49.4283 29.2301 50.8388C30.6406 52.2494 32.4378 53.21 34.3944 53.5992C36.3509 53.9884 38.3789 53.7887 40.2219 53.0253C42.0649 52.2619 43.6402 50.9691 44.7485 49.3104C45.8568 47.6517 46.4483 45.7017 46.4483 43.7068H36.3621Z" fill="#1DB794"/>
<path id="Vector_9" d="M36.3621 33.6206V43.7068H46.4483C46.4483 41.0318 45.3856 38.4663 43.4941 36.5748C41.6026 34.6833 39.0371 33.6206 36.3621 33.6206Z" fill="#FD7777"/>
<path id="Vector_10" d="M62.1379 19.0518H57.6552V21.2931H62.1379V19.0518Z" fill="#FFE477"/>
<path id="Vector_11" d="M65.5 24.6551H63.2586V16.8102H61.0172V14.5688H64.3793C64.6765 14.5688 64.9616 14.6869 65.1717 14.8971C65.3819 15.1073 65.5 15.3923 65.5 15.6895V24.6551Z" fill="#FF9478"/>
<path id="Vector_12" d="M13.9483 12.3276H9.46558V14.569H13.9483V12.3276Z" fill="#5AAAE7"/>
<path id="Vector_13" d="M36.3621 12.3276H16.1897V14.569H36.3621V12.3276Z" fill="#5AAAE7"/>
<path id="Vector_14" d="M36.3621 19.0518H9.46558V21.2931H36.3621V19.0518Z" fill="#5AAAE7"/>
<path id="Vector_15" d="M36.3621 25.7759H9.46558V28.0173H36.3621V25.7759Z" fill="#5AAAE7"/>
<path id="Vector_16" d="M21.7931 35.8623H17.3103V38.1037H21.7931V35.8623Z" fill="#FF9478"/>
<path id="Vector_17" d="M21.7931 39.2241H17.3103V41.4655H21.7931V39.2241Z" fill="#FF9478"/>
<path id="Vector_18" d="M29.9662 42.2581L25.8118 38.1037H24.0344V35.8623H26.2758C26.573 35.8624 26.858 35.9805 27.0681 36.1907L31.5509 40.6734L29.9662 42.2581Z" fill="#FFB655"/>
<path id="Vector_19" d="M24.0345 52.6724H19.5518V54.9137H24.0345V52.6724Z" fill="#FF9478"/>
<path id="Vector_20" d="M24.0345 56.0347H19.5518V58.276H24.0345V56.0347Z" fill="#FF9478"/>
<path id="Vector_21" d="M28.5173 57.1553H26.2759V54.9139H28.0533L35.5698 47.3975L37.1544 48.9821L29.3096 56.8269C29.0995 57.0371 28.8145 57.1552 28.5173 57.1553Z" fill="#FFB655"/>
<path id="Vector_22" d="M47.5689 29.1377H43.0862V31.3791H47.5689V29.1377Z" fill="#FF9478"/>
<path id="Vector_23" d="M49.8104 32.5H45.3276V34.7414H49.8104V32.5Z" fill="#FF9478"/>
</g>
</svg>
