<svg width="28" height="28" viewBox="0 0 28 28" fill="none" xmlns="http://www.w3.org/2000/svg">
<g id="Group 3">
<path id="Vector" d="M14 28C21.732 28 28 21.732 28 14C28 6.26801 21.732 0 14 0C6.26802 0 0 6.26801 0 14C0 21.732 6.26802 28 14 28Z" fill="#E0E0E0"/>
<path id="Vector_2" d="M14 27.5745C21.6145 27.5745 27.7872 21.4017 27.7872 13.7872C27.7872 6.17275 21.6145 0 14 0C6.38553 0 0.212769 6.17275 0.212769 13.7872C0.212769 21.4017 6.38553 27.5745 14 27.5745Z" fill="white"/>
<g id="Group">
<g id="Clip path group">
<mask id="mask0_23_237" style="mask-type:luminance" maskUnits="userSpaceOnUse" x="4" y="4" width="20" height="20">
<g id="SVGID_2_">
<path id="Vector_3" d="M22.9362 12.1702H14.2128V15.7872H19.234C18.766 18.0851 16.8085 19.4042 14.2128 19.4042C11.1489 19.4042 8.68086 16.9361 8.68086 13.8723C8.68086 10.8085 11.1489 8.34041 14.2128 8.34041C15.5319 8.34041 16.7234 8.8085 17.6596 9.57446L20.383 6.85105C18.7234 5.40424 16.5958 4.51062 14.2128 4.51062C9.02129 4.51062 4.85107 8.68083 4.85107 13.8723C4.85107 19.0638 9.02129 23.234 14.2128 23.234C18.8936 23.234 23.1489 19.8298 23.1489 13.8723C23.1489 13.3191 23.0638 12.7234 22.9362 12.1702Z" fill="white"/>
</g>
</mask>
<g mask="url(#mask0_23_237)">
<path id="Vector_4" d="M4.00003 19.4042V8.34033L11.2341 13.8722L4.00003 19.4042Z" fill="#FBBC05"/>
</g>
</g>
<g id="Clip path group_2">
<mask id="mask1_23_237" style="mask-type:luminance" maskUnits="userSpaceOnUse" x="4" y="4" width="20" height="20">
<g id="SVGID_4_">
<path id="Vector_5" d="M22.9362 12.1702H14.2128V15.7872H19.234C18.766 18.0851 16.8085 19.4042 14.2128 19.4042C11.1489 19.4042 8.68086 16.9361 8.68086 13.8723C8.68086 10.8085 11.1489 8.34041 14.2128 8.34041C15.5319 8.34041 16.7234 8.8085 17.6596 9.57446L20.383 6.85105C18.7234 5.40424 16.5958 4.51062 14.2128 4.51062C9.02129 4.51062 4.85107 8.68083 4.85107 13.8723C4.85107 19.0638 9.02129 23.234 14.2128 23.234C18.8936 23.234 23.1489 19.8298 23.1489 13.8723C23.1489 13.3191 23.0638 12.7234 22.9362 12.1702Z" fill="white"/>
</g>
</mask>
<g mask="url(#mask1_23_237)">
<path id="Vector_6" d="M4.00003 8.3404L11.2341 13.8723L14.2128 11.2766L24.4256 9.61699V3.65955H4.00003V8.3404Z" fill="#EA4335"/>
</g>
</g>
<g id="Group_2">
<g id="Clip path group_3">
<mask id="mask2_23_237" style="mask-type:luminance" maskUnits="userSpaceOnUse" x="4" y="4" width="20" height="20">
<g id="SVGID_6_">
<path id="Vector_7" d="M22.9362 12.1702H14.2128V15.7872H19.234C18.766 18.0851 16.8085 19.4042 14.2128 19.4042C11.1489 19.4042 8.68086 16.9361 8.68086 13.8723C8.68086 10.8085 11.1489 8.34041 14.2128 8.34041C15.5319 8.34041 16.7234 8.8085 17.6596 9.57446L20.383 6.85105C18.7234 5.40424 16.5958 4.51062 14.2128 4.51062C9.02129 4.51062 4.85107 8.68083 4.85107 13.8723C4.85107 19.0638 9.02129 23.234 14.2128 23.234C18.8936 23.234 23.1489 19.8298 23.1489 13.8723C23.1489 13.3191 23.0638 12.7234 22.9362 12.1702Z" fill="white"/>
</g>
</mask>
<g mask="url(#mask2_23_237)">
<path id="Vector_8" d="M4.00003 19.4042L16.766 9.61699L20.1277 10.0425L24.4256 3.65955V24.0851H4.00003V19.4042Z" fill="#34A853"/>
</g>
</g>
</g>
<g id="Group_3">
<g id="Clip path group_4">
<mask id="mask3_23_237" style="mask-type:luminance" maskUnits="userSpaceOnUse" x="4" y="4" width="20" height="20">
<g id="SVGID_8_">
<path id="Vector_9" d="M22.9362 12.1702H14.2128V15.7872H19.234C18.766 18.0851 16.8085 19.4042 14.2128 19.4042C11.1489 19.4042 8.68086 16.9361 8.68086 13.8723C8.68086 10.8085 11.1489 8.34041 14.2128 8.34041C15.5319 8.34041 16.7234 8.8085 17.6596 9.57446L20.383 6.85105C18.7234 5.40424 16.5958 4.51062 14.2128 4.51062C9.02129 4.51062 4.85107 8.68083 4.85107 13.8723C4.85107 19.0638 9.02129 23.234 14.2128 23.234C18.8936 23.234 23.1489 19.8298 23.1489 13.8723C23.1489 13.3191 23.0638 12.7234 22.9362 12.1702Z" fill="white"/>
</g>
</mask>
<g mask="url(#mask3_23_237)">
<path id="Vector_10" d="M24.4256 24.085L11.2341 13.8722L9.53195 12.5956L24.4256 8.34033V24.085Z" fill="#4285F4"/>
</g>
</g>
</g>
</g>
</g>
</svg>
