<svg width="23" height="22" viewBox="0 0 23 22" fill="none" xmlns="http://www.w3.org/2000/svg">
<path id="Icon" fill-rule="evenodd" clip-rule="evenodd" d="M14.5022 0.982767L20.6227 5.50353C21.8022 6.35717 22.504 7.72208 22.5121 9.1781V17.3618C22.4363 19.986 20.2566 22.057 17.632 21.9985H5.37958C2.7505 22.0634 0.563681 19.9906 0.487885 17.3618V9.1781C0.495952 7.72208 1.19778 6.35717 2.37733 5.50353L8.49775 0.982767C10.2848 -0.327589 12.7152 -0.327589 14.5022 0.982767ZM6.28377 17.0952H16.7163C17.1964 17.0952 17.5857 16.706 17.5857 16.2258C17.5857 15.7457 17.1964 15.3564 16.7163 15.3564H6.28377C5.80362 15.3564 5.41439 15.7457 5.41439 16.2258C5.41439 16.706 5.80362 17.0952 6.28377 17.0952Z" fill="url(#paint0_linear_442_2109)"/>
<defs>
<linearGradient id="paint0_linear_442_2109" x1="23.9271" y1="-10.1538" x2="-3.06706" y2="-9.338" gradientUnits="userSpaceOnUse">
<stop stop-color="#1FAB89"/>
<stop offset="1" stop-color="#42E6A4"/>
</linearGradient>
</defs>
</svg>
