<svg width="76" height="95" viewBox="0 0 76 95" fill="none" xmlns="http://www.w3.org/2000/svg">
<g id="Group 48095865">
<path id="Vector" d="M74.7499 83.6418V87.393C74.753 87.9784 74.6405 88.5586 74.419 89.1004C74.1974 89.6423 73.8712 90.1351 73.4589 90.5506C73.0466 90.9662 72.5563 91.2963 72.0162 91.5221C71.4761 91.7479 70.8968 91.8649 70.3114 91.8664H46.4416C45.2653 91.8633 44.1382 91.3947 43.3065 90.563C42.4748 89.7313 42.0062 88.6041 42.0031 87.4279V83.6418H74.7499ZM74.7499 60.8554V63.1853H42.0031V60.8554C42.0062 58.6483 42.8851 56.5327 44.4468 54.9731C46.0086 53.4136 48.1254 52.5376 50.3325 52.5376H66.4205C68.6276 52.5376 70.7444 53.4136 72.3062 54.9731C73.8679 56.5327 74.7468 58.6483 74.7499 60.8554Z" stroke="#0A72A0" stroke-width="2" stroke-miterlimit="10"/>
<path id="Vector_2" d="M67.9235 46.8057H48.8299V52.5372H67.9235V46.8057Z" stroke="#0A72A0" stroke-width="2" stroke-miterlimit="10"/>
<path id="Vector_3" d="M67.504 39.4434H49.2609C47.5173 39.4434 46.1039 40.8568 46.1039 42.6004V43.6488C46.1039 45.3924 47.5173 46.8059 49.2609 46.8059H67.504C69.2476 46.8059 70.6611 45.3924 70.6611 43.6488V42.6004C70.6611 40.8568 69.2476 39.4434 67.504 39.4434Z" fill="#37ABDD" stroke="#0A72A0" stroke-width="2" stroke-miterlimit="10"/>
<path id="Vector_4" d="M74.7383 63.1851H42.0031V83.6533H74.7383V63.1851Z" stroke="#0A72A0" stroke-width="2" stroke-miterlimit="10"/>
<path id="Vector_5" d="M71.4764 60.6572V63.1851H45.2767V60.6572C45.2672 60.2532 45.4171 59.8618 45.694 59.5675C45.9708 59.2732 46.3524 59.0997 46.7562 59.0845H69.997C70.4007 59.0997 70.7823 59.2732 71.0592 59.5675C71.336 59.8618 71.4859 60.2532 71.4764 60.6572ZM45.2767 83.6417H71.4764V86.0415C71.4432 86.7379 71.1351 87.3927 70.6197 87.8623C70.1043 88.3318 69.4237 88.5778 68.7272 88.5461H48.026C47.3294 88.5778 46.6488 88.3318 46.1334 87.8623C45.618 87.3927 45.3099 86.7379 45.2767 86.0415V83.6417Z" fill="#37ABDD" stroke="#0A72A0" stroke-width="2" stroke-miterlimit="10"/>
<path id="Vector_6" d="M58.3824 65.6318C61.8772 69.1267 65.2789 68.9286 65.2789 68.9286V73.2273C65.2789 74.9515 64.6964 79.7744 58.3474 81.2072C57.4115 80.9944 56.507 80.6616 55.6564 80.217L55.2603 79.9957C54.8801 79.7775 54.5213 79.5239 54.1886 79.2385L53.9672 79.0521C53.7236 78.8338 53.4941 78.6003 53.2799 78.3531C53.2075 78.2728 53.1413 78.1871 53.0819 78.0968C52.9943 78.0039 52.9162 77.9024 52.8489 77.7939C52.7358 77.6362 52.6309 77.4729 52.5343 77.3047C52.2407 76.8013 52.0062 76.2658 51.8354 75.7087C51.7771 75.5456 51.7422 75.3708 51.6956 75.2077C51.649 75.0446 51.6257 74.9281 51.6024 74.7884C51.6024 74.4622 51.5092 74.1593 51.4859 73.8797C51.416 73.1108 51.4859 69.0917 51.4859 69.0917V68.9286C51.4859 68.9286 54.8992 69.0917 58.3824 65.6318Z" fill="#37ABDD" stroke="#0A72A0" stroke-width="2" stroke-linejoin="round"/>
<g id="Vector_7">
<path d="M55.0972 73.4951L57.066 75.4639L62.2966 71.5264" fill="#37ABDD"/>
<path d="M55.0972 73.4951L57.066 75.4639L62.2966 71.5264" stroke="#FCFCFC" stroke-width="2" stroke-linecap="round" stroke-linejoin="round"/>
</g>
<path id="Vector_8" d="M13.6831 65.236L28.3965 70.3385L39.4402 37.8945H23.1658L13.6831 65.236Z" fill="#37ABDD" stroke="#0A72A0" stroke-width="2" stroke-linecap="round" stroke-linejoin="round"/>
<path id="Vector_9" d="M30.3933 75.4233L9.33719 68.1238L23.2114 28.1028C23.52 27.2124 24.1697 26.4811 25.0176 26.0698C25.8654 25.6585 26.8419 25.6008 27.7323 25.9095L42.0412 30.87C42.9316 31.1787 43.6628 31.8284 44.0741 32.6762C44.4855 33.524 44.5431 34.5005 44.2345 35.3909L30.3603 75.4119L30.3933 75.4233Z" stroke="#0A72A0" stroke-width="2" stroke-linecap="round" stroke-linejoin="round"/>
<path id="Vector_10" d="M1.74996 74.1601L32.6353 84.8672L35.3139 77.1404L4.42864 66.4333L1.74996 74.1601Z" fill="#37ABDD" stroke="#0A72A0" stroke-width="2" stroke-linecap="round" stroke-linejoin="round"/>
<path id="Vector_11" d="M4.37046 87.6799L22.1906 93.8576C22.9565 94.1231 23.7927 93.7175 24.0582 92.9515L24.6726 91.1794C24.9381 90.4135 24.5324 89.5773 23.7665 89.3118L5.94637 83.134C5.18043 82.8685 4.34425 83.2741 4.07872 84.0401L3.46438 85.8122C3.19885 86.5781 3.60451 87.4143 4.37046 87.6799Z" fill="#37ABDD" stroke="#0A72A0" stroke-width="2" stroke-linecap="round" stroke-linejoin="round"/>
<path id="Vector_12" d="M9.81346 84.1466L20.1049 87.7144L22.3371 81.2753L12.0457 77.7076L9.81346 84.1466Z" stroke="#0A72A0" stroke-width="2" stroke-linecap="round" stroke-linejoin="round"/>
<path id="Vector_13" d="M38.9509 25.0565L42.8185 26.3962L41.4788 30.2522L28.6061 25.802L29.9458 21.946L33.8018 23.2857L35.5958 18.125L38.1587 19.0104L40.7333 19.919L38.9509 25.0565Z" stroke="#0A72A0" stroke-width="2" stroke-linecap="round" stroke-linejoin="round"/>
<path id="Vector_14" d="M44.4146 1L38.1588 19.0218" stroke="#0A72A0" stroke-width="2" stroke-linecap="round" stroke-linejoin="round"/>
<path id="Vector_15" d="M35.4911 58.4556L26.486 55.3335" stroke="#0A72A0" stroke-width="2" stroke-linecap="round" stroke-linejoin="round"/>
<path id="Vector_16" d="M38.6131 49.4503L33.464 47.6562" stroke="#0A72A0" stroke-width="2" stroke-linecap="round" stroke-linejoin="round"/>
<path id="Vector_17" d="M41.7352 40.4336L32.7301 37.3115" stroke="#0A72A0" stroke-width="2" stroke-linecap="round" stroke-linejoin="round"/>
</g>
</svg>
