<svg width="51" height="64" viewBox="0 0 51 64" fill="none" xmlns="http://www.w3.org/2000/svg">
<g id="Group 48095865">
<path id="Vector" d="M49.5 56.1533V58.6198C49.502 59.0047 49.428 59.3862 49.2824 59.7425C49.1367 60.0988 48.9222 60.4228 48.6511 60.696C48.38 60.9693 48.0576 61.1863 47.7025 61.3348C47.3473 61.4833 46.9664 61.5602 46.5815 61.5612H30.8863C30.1129 61.5592 29.3717 61.2511 28.8248 60.7042C28.278 60.1573 27.9698 59.4162 27.9678 58.6428V56.1533H49.5ZM49.5 41.1704V42.7024H27.9678V41.1704C27.9698 39.7192 28.5478 38.3281 29.5747 37.3026C30.6015 36.2771 31.9934 35.7012 33.4447 35.7012H44.0231C45.4743 35.7012 46.8662 36.2771 47.8931 37.3026C48.92 38.3281 49.4979 39.7192 49.5 41.1704Z" stroke="#0A72A0" stroke-width="2" stroke-miterlimit="10"/>
<path id="Vector_2" d="M45.0113 31.9321H32.4566V35.7008H45.0113V31.9321Z" stroke="#0A72A0" stroke-width="2" stroke-miterlimit="10"/>
<path id="Vector_3" d="M44.7355 27.0913H32.74C31.5935 27.0913 30.6641 28.0207 30.6641 29.1672V29.8566C30.6641 31.003 31.5935 31.9324 32.74 31.9324H44.7355C45.8819 31.9324 46.8113 31.003 46.8113 29.8566V29.1672C46.8113 28.0207 45.8819 27.0913 44.7355 27.0913Z" fill="#37ABDD" stroke="#0A72A0" stroke-width="2" stroke-miterlimit="10"/>
<path id="Vector_4" d="M49.4923 42.7021H27.9678V56.1607H49.4923V42.7021Z" stroke="#0A72A0" stroke-width="2" stroke-miterlimit="10"/>
<path id="Vector_5" d="M47.3475 41.04V42.7022H30.1203V41.04C30.1141 40.7743 30.2126 40.517 30.3947 40.3234C30.5767 40.1299 30.8276 40.0159 31.0931 40.0059H46.3747C46.6402 40.0159 46.8911 40.1299 47.0732 40.3234C47.2552 40.517 47.3538 40.7743 47.3475 41.04ZM30.1203 56.1531H47.3475V57.731C47.3257 58.1889 47.1231 58.6195 46.7842 58.9283C46.4453 59.237 45.9978 59.3987 45.5398 59.3779H31.928C31.4701 59.3987 31.0225 59.237 30.6836 58.9283C30.3447 58.6195 30.1421 58.1889 30.1203 57.731V56.1531Z" fill="#37ABDD" stroke="#0A72A0" stroke-width="2" stroke-miterlimit="10"/>
<path id="Vector_6" d="M38.7378 44.311C41.0358 46.609 43.2725 46.4788 43.2725 46.4788V49.3053C43.2725 50.439 42.8895 53.6102 38.7148 54.5524C38.0994 54.4124 37.5047 54.1936 36.9453 53.9013L36.6849 53.7558C36.4349 53.6123 36.1989 53.4456 35.9802 53.2579L35.8346 53.1353C35.6745 52.9918 35.5235 52.8383 35.3827 52.6757C35.3351 52.6229 35.2916 52.5666 35.2525 52.5072C35.1949 52.4461 35.1436 52.3794 35.0993 52.308C35.025 52.2043 34.9559 52.097 34.8925 51.9863C34.6994 51.6554 34.5452 51.3032 34.4329 50.9369C34.3946 50.8297 34.3716 50.7148 34.3409 50.6075C34.3103 50.5003 34.295 50.4237 34.2797 50.3318C34.2797 50.1173 34.2184 49.9181 34.2031 49.7343C34.1571 49.2287 34.2031 46.586 34.2031 46.586V46.4788C34.2031 46.4788 36.4474 46.586 38.7378 44.311Z" fill="#37ABDD" stroke="#0A72A0" stroke-width="2" stroke-linejoin="round"/>
<g id="Vector_7">
<path d="M36.5777 49.4815L37.8722 50.7761L41.3115 48.187" fill="#37ABDD"/>
<path d="M36.5777 49.4815L37.8722 50.7761L41.3115 48.187" stroke="#FCFCFC" stroke-width="2" stroke-linecap="round" stroke-linejoin="round"/>
</g>
<path id="Vector_8" d="M9.34649 44.0507L19.021 47.4057L26.2827 26.0728H15.5817L9.34649 44.0507Z" fill="#37ABDD" stroke="#0A72A0" stroke-width="2" stroke-linecap="round" stroke-linejoin="round"/>
<path id="Vector_9" d="M20.334 50.7495L6.48888 45.9498L15.6116 19.6346C15.8146 19.0492 16.2418 18.5683 16.7993 18.2979C17.3567 18.0274 17.9988 17.9895 18.5843 18.1925L27.9929 21.4542C28.5783 21.6571 29.0592 22.0843 29.3296 22.6418C29.6001 23.1993 29.638 23.8414 29.435 24.4268L20.3123 50.742L20.334 50.7495Z" stroke="#0A72A0" stroke-width="2" stroke-linecap="round" stroke-linejoin="round"/>
<path id="Vector_10" d="M1.5 49.9187L21.8081 56.959L23.5695 51.8783L3.26132 44.8381L1.5 49.9187Z" fill="#37ABDD" stroke="#0A72A0" stroke-width="2" stroke-linecap="round" stroke-linejoin="round"/>
<path id="Vector_11" d="M3.22305 58.8083L14.9404 62.8704C15.444 63.045 15.9938 62.7782 16.1684 62.2746L16.5724 61.1094C16.747 60.6058 16.4802 60.0559 15.9766 59.8813L4.25927 55.8193C3.75563 55.6447 3.20582 55.9114 3.03122 56.415L2.62728 57.5803C2.45268 58.0839 2.71942 58.6337 3.22305 58.8083Z" fill="#37ABDD" stroke="#0A72A0" stroke-width="2" stroke-linecap="round" stroke-linejoin="round"/>
<path id="Vector_12" d="M6.80203 56.4851L13.569 58.8311L15.0368 54.5972L8.2698 52.2513L6.80203 56.4851Z" stroke="#0A72A0" stroke-width="2" stroke-linecap="round" stroke-linejoin="round"/>
<path id="Vector_13" d="M25.9609 17.6314L28.504 18.5123L27.6231 21.0478L19.1588 18.1216L20.0397 15.5862L22.5752 16.4671L23.7548 13.0737L25.44 13.6559L27.1329 14.2534L25.9609 17.6314Z" stroke="#0A72A0" stroke-width="2" stroke-linecap="round" stroke-linejoin="round"/>
<path id="Vector_14" d="M29.5535 1.81348L25.4401 13.6634" stroke="#0A72A0" stroke-width="2" stroke-linecap="round" stroke-linejoin="round"/>
<path id="Vector_15" d="M23.6859 39.5924L17.7648 37.5396" stroke="#0A72A0" stroke-width="2" stroke-linecap="round" stroke-linejoin="round"/>
<path id="Vector_16" d="M25.7388 33.6713L22.3531 32.4917" stroke="#0A72A0" stroke-width="2" stroke-linecap="round" stroke-linejoin="round"/>
<path id="Vector_17" d="M27.7917 27.7423L21.8705 25.6895" stroke="#0A72A0" stroke-width="2" stroke-linecap="round" stroke-linejoin="round"/>
</g>
</svg>
