<svg width="83" height="100" viewBox="0 0 83 100" fill="none" xmlns="http://www.w3.org/2000/svg">
<g id="Group 48095864">
<path id="Vector" d="M48.7098 98.5278C48.8584 96.0344 49.7216 93.6366 51.1964 91.6208C52.6712 89.605 54.6953 88.0564 57.0266 87.1602C54.7787 90.5254 53.5772 94.4808 53.5738 98.5278H48.7098Z" fill="#85BD79"/>
<path id="Vector_2" d="M53.5738 99.316H48.7099C48.5008 99.316 48.3003 99.2329 48.1524 99.0851C48.0046 98.9373 47.9215 98.7368 47.9215 98.5277C48.0871 95.8801 49.0051 93.3348 50.5678 91.1911C52.1305 89.0475 54.2729 87.3946 56.7429 86.4269C56.897 86.3674 57.0659 86.3578 57.2258 86.3995C57.3856 86.4412 57.5284 86.5321 57.6338 86.6593C57.7392 86.7865 57.802 86.9436 57.8133 87.1085C57.8246 87.2733 57.7838 87.4375 57.6967 87.5779C55.521 90.8154 54.3575 94.627 54.3542 98.5277C54.3543 98.7354 54.2723 98.9347 54.1261 99.0823C53.98 99.23 53.7815 99.3139 53.5738 99.316ZM49.5612 97.7394H52.8091C52.9077 94.7202 53.6694 91.7597 55.0401 89.0678C53.5526 90.0294 52.2921 91.303 51.346 92.8004C50.3999 94.2978 49.7909 95.9831 49.5612 97.7394Z" fill="#333736"/>
<path id="Vector_3" d="M61.8433 86.7038C62.0113 83.8687 62.993 81.1421 64.6708 78.8506C66.3485 76.559 68.6512 74.7997 71.3032 73.7832C68.7433 77.6068 67.3719 82.1024 67.3616 86.7038H61.8433Z" fill="#85BD79"/>
<path id="Vector_4" d="M67.3695 87.4913H61.8512C61.6421 87.4913 61.4416 87.4083 61.2938 87.2604C61.146 87.1126 61.0629 86.9121 61.0629 86.703C61.2516 83.7167 62.2887 80.8463 64.0524 78.429C65.8161 76.0118 68.2331 74.1482 71.0194 73.0572C71.1733 72.9945 71.3431 72.9821 71.5045 73.0218C71.6659 73.0614 71.8107 73.1511 71.9181 73.2779C72.0249 73.4069 72.0879 73.5667 72.0978 73.734C72.1078 73.9012 72.0641 74.0673 71.9733 74.2081C69.4877 77.9017 68.1569 82.251 68.1499 86.703C68.1499 86.9107 68.0679 87.11 67.9218 87.2577C67.7757 87.4053 67.5772 87.4892 67.3695 87.4913ZM62.6868 85.9147H66.6284C66.7411 82.3368 67.6686 78.8318 69.3403 75.6665C67.5304 76.7625 65.9917 78.2537 64.8395 80.0284C63.6874 81.8031 62.9514 83.8154 62.6868 85.9147Z" fill="#333736"/>
<path id="Vector_5" d="M65.509 86.7031C65.3804 84.5067 64.6211 82.3941 63.3222 80.6183C62.0232 78.8426 60.2397 77.4791 58.1855 76.6914C60.1692 79.654 61.2308 83.1377 61.2363 86.7031H65.509Z" fill="#85BD79"/>
<path id="Vector_6" d="M65.509 87.4915H61.2363C61.0272 87.4915 60.8267 87.4084 60.6789 87.2606C60.5311 87.1127 60.448 86.9122 60.448 86.7031C60.4417 83.2927 59.4209 79.9613 57.5154 77.1329C57.4257 76.9913 57.3834 76.8248 57.3947 76.6575C57.4061 76.4902 57.4704 76.3309 57.5785 76.2027C57.6859 76.0759 57.8307 75.9862 57.9921 75.9466C58.1535 75.9069 58.3233 75.9193 58.4772 75.982C60.6811 76.8164 62.5943 78.2747 63.983 80.1786C65.3717 82.0825 66.1759 84.3497 66.2973 86.7031C66.2973 86.9122 66.2143 87.1127 66.0665 87.2606C65.9186 87.4084 65.7181 87.4915 65.509 87.4915ZM62.001 85.9148H64.6655C64.4662 84.4596 63.9641 83.0623 63.1915 81.8131C62.4189 80.5639 61.393 79.4905 60.18 78.6623C61.2806 80.9283 61.9006 83.3976 62.001 85.9148Z" fill="#333736"/>
<path id="Vector_7" d="M22.1356 40.1919L22.0568 44.8272L15.4349 49.3206L12.66 52.7262L10.5157 56.9831C10.4623 57.0873 10.4311 57.2015 10.4242 57.3183C10.4173 57.4352 10.4348 57.5522 10.4756 57.662C10.5163 57.7717 10.5795 57.8718 10.6611 57.9558C10.7427 58.0398 10.8408 58.1059 10.9493 58.1498C11.5525 58.4398 12.2225 58.5627 12.8893 58.5058C13.5562 58.449 14.1957 58.2145 14.7411 57.8266C16.0707 56.7077 16.9501 55.145 17.2165 53.4278L24.9262 48.5402L31.8004 38.6152" fill="#CD9F61"/>
<path id="Vector_8" d="M12.6363 59.301C11.9421 59.2933 11.2563 59.1487 10.6182 58.8753C10.4082 58.7907 10.2181 58.6632 10.0601 58.5011C9.90201 58.339 9.77941 58.1458 9.70008 57.9337C9.62074 57.7217 9.58641 57.4954 9.59924 57.2694C9.61208 57.0433 9.67182 56.8224 9.77466 56.6207L11.9662 52.4032C11.9905 52.3557 12.0195 52.3108 12.0529 52.2692L14.8278 48.8637C14.8756 48.8061 14.9313 48.7557 14.9933 48.7139L21.2999 44.4648L21.1028 38.6155C21.1028 38.4064 21.1859 38.2059 21.3337 38.058C21.4816 37.9102 21.6821 37.8271 21.8912 37.8271C22.1002 37.8271 22.3008 37.9102 22.4486 38.058C22.5964 38.2059 22.6795 38.4064 22.6795 38.6155L22.845 44.922C22.8474 45.0518 22.8177 45.1801 22.7586 45.2956C22.6994 45.4112 22.6127 45.5103 22.5061 45.5842L15.9787 50.0146L13.3221 53.2704L11.1779 57.4169L11.2173 57.5037C11.6946 57.7391 12.2261 57.8428 12.7569 57.804C13.2878 57.7652 13.7986 57.5853 14.2366 57.2829C15.3988 56.289 16.1699 54.9143 16.4123 53.4044C16.4273 53.2909 16.4668 53.1821 16.528 53.0854C16.5893 52.9888 16.6709 52.9066 16.7671 52.8447L24.3428 48.0438L31.1776 38.2686C31.3053 38.1215 31.483 38.0268 31.6764 38.0029C31.8697 37.9791 32.0651 38.0276 32.2248 38.1393C32.3844 38.251 32.4971 38.4178 32.541 38.6077C32.5849 38.7975 32.557 38.9969 32.4626 39.1673L25.5332 48.9898C25.4687 49.0723 25.3915 49.1442 25.3046 49.2026L17.8865 53.9326C17.5403 55.7185 16.5811 57.3274 15.1747 58.4812C14.4428 59.0282 13.5499 59.3166 12.6363 59.301Z" fill="#333736"/>
<path id="Vector_9" d="M59.0762 25.8602L62.8917 28.4932L70.4281 25.7183L74.819 25.4424L79.549 26.1203C79.6655 26.1377 79.7771 26.1792 79.8766 26.2424C79.9761 26.3055 80.0613 26.3887 80.1266 26.4868C80.192 26.5848 80.2361 26.6954 80.2561 26.8115C80.2761 26.9277 80.2715 27.0467 80.2427 27.1609C80.1241 27.8183 79.8332 28.4325 79.3997 28.9407C78.9662 29.449 78.4057 29.8332 77.7752 30.0541C76.0905 30.4832 74.3074 30.29 72.7536 29.5101L64.2398 32.9393L52.1548 32.8132" fill="#CD9F61"/>
<path id="Vector_10" d="M64.2398 33.7203L52.1548 33.5941C51.9457 33.5941 51.7452 33.5111 51.5974 33.3633C51.4495 33.2154 51.3665 33.0149 51.3665 32.8058C51.3665 32.5968 51.4495 32.3962 51.5974 32.2484C51.7452 32.1006 51.9457 32.0175 52.1548 32.0175L64.1215 32.1515L72.4383 28.7854C72.5421 28.7374 72.6551 28.7125 72.7694 28.7125C72.8838 28.7125 72.9967 28.7374 73.1005 28.7854C74.4661 29.4713 76.0325 29.6448 77.5151 29.2741C78.0175 29.0966 78.4628 28.7869 78.8041 28.3777C79.1454 27.9684 79.37 27.4748 79.4544 26.9486L79.5253 26.0893L79.4071 26.8776L74.7875 26.2155L70.5936 26.4756L63.1992 29.2111C63.0814 29.2549 62.9548 29.2698 62.83 29.2548C62.7052 29.2397 62.5858 29.195 62.4818 29.1244L58.6033 26.5071C58.4318 26.3848 58.316 26.1994 58.2813 25.9917C58.2465 25.784 58.2957 25.571 58.418 25.3995C58.5403 25.2281 58.7257 25.1123 58.9335 25.0775C59.1412 25.0428 59.3542 25.092 59.5256 25.2143L63.0021 27.5793L70.097 24.9463C70.1686 24.9222 70.2426 24.9064 70.3177 24.899L74.7087 24.623H74.8663L79.5963 25.301C79.8191 25.3313 80.0328 25.4088 80.2232 25.5285C80.4135 25.6481 80.5761 25.8071 80.6999 25.9947C80.8277 26.1817 80.9154 26.3931 80.9575 26.6156C80.9995 26.8381 80.9951 27.0669 80.9443 27.2876C80.8034 28.0821 80.4497 28.8235 79.9208 29.433C79.3919 30.0424 78.7076 30.497 77.9408 30.7483C76.1859 31.2217 74.3209 31.0684 72.6669 30.3147L64.5315 33.6572C64.4391 33.6966 64.3401 33.718 64.2398 33.7203Z" fill="#333736"/>
<path id="Vector_11" d="M47.6929 18.3082L47.1017 20.0031C45.3598 20.4927 43.8087 21.502 42.6555 22.8963C40.9607 24.7725 32.0053 25.072 27.5986 27.2163C23.1919 29.3605 23.0579 31.2761 20.9609 31.2288C18.864 31.1815 15.6003 33.5938 13.6374 35.0837C11.6745 36.5736 8.11918 38.0793 5.75421 38.0005C3.80706 37.9296 1.59188 39.7269 0.929685 40.3024L0.84297 40.3812L0.732605 40.4837L0.969102 40.5941H1.04793C2.15947 41.1144 6.09319 42.7541 8.84443 41.816C11.9504 40.7754 14.1498 38.3395 16.5227 36.8732L16.838 36.6761C17.8985 36.0049 19.1304 35.6545 20.3855 35.6671L19.6523 35.809C19.771 35.8039 19.8881 35.7799 19.9992 35.738C19.9992 35.738 20.3697 35.6671 20.3382 35.8326C20.3066 35.9982 22.7504 38.5839 23.5703 39.7742C24.5478 41.2326 31.8004 44.1967 32.7463 41.138C32.7463 41.138 38.6036 44.5042 50.4521 39.2618C50.4521 39.2618 52.5096 37.9611 53.7315 37.9611L56.2383 37.0388C56.601 34.7526 59.9829 34.7842 61.3151 32.4823C61.9717 31.4042 62.3988 30.2023 62.5697 28.9517C62.7406 27.701 62.6517 26.4286 62.3084 25.2139C61.796 23.6373 61.2205 21.2723 60.9683 20.1293C60.9683 20.0425 60.921 19.9637 60.9052 19.8849C60.8342 19.5853 60.4953 17.8037 60.4953 17.8037L47.6929 18.3082Z" fill="#E8BF87"/>
<path id="Vector_12" d="M0.756287 40.2709C0.783516 40.3112 0.815254 40.3482 0.850885 40.3813C0.912519 40.4681 0.981063 40.5498 1.05585 40.6256C2.16738 41.1459 6.10111 42.7778 8.85235 41.8554C12.0924 40.7597 14.3706 38.1503 16.8459 36.7077C17.928 36.0244 19.1846 35.6685 20.4643 35.6829C20.2751 34.658 17.2401 34.9734 16.5621 35.2572C15.3091 35.7751 14.1646 36.5239 13.1881 37.4645C8.62374 41.9264 5.18665 40.9804 0.937601 40.3024L0.756287 40.2709ZM60.4716 17.8037C59.7858 17.9377 58.5481 17.9693 58.6112 18.5921C58.7846 20.0583 60.314 24.1103 60.582 25.5372C61.0708 28.2332 60.9604 29.3211 59.7937 30.811C58.7925 32.1512 56.2384 33.0972 55.4973 34.6738C55.0914 35.5535 54.9151 36.5218 54.9849 37.4881L56.2384 37.0388C56.6325 34.7921 59.975 34.8157 61.2994 32.5217C61.9654 31.4403 62.3991 30.2321 62.5728 28.974C62.7465 27.7159 62.6565 26.4354 62.3084 25.214C61.796 23.6373 61.2206 21.2723 60.9683 20.1293C60.9683 20.0426 60.9683 19.9637 60.9131 19.8849C60.8579 19.8061 60.5111 17.7959 60.4716 17.8037Z" fill="#CD9F61"/>
<path id="Vector_13" d="M37.2714 43.0611C34.6778 43.0611 33.3298 42.4699 32.6439 42.052C25.2731 45.2999 20.6535 38.1104 19.7154 36.4707C18.8263 36.5718 17.9746 36.8854 17.2322 37.3852C16.3102 37.9592 15.4255 38.5911 14.5835 39.2771C12.9604 40.6886 11.1072 41.8111 9.10464 42.596C5.58872 43.7785 0.598649 41.2874 0.433101 41.177C0.320799 41.1207 0.223574 41.0384 0.149526 40.9369C0.0754784 40.8355 0.0267526 40.7178 0.00740775 40.5936C-0.00966487 40.47 0.00287246 40.344 0.0439882 40.2262C0.0851039 40.1083 0.153623 40.0019 0.243904 39.9157C0.362153 39.8053 3.11339 37.2117 5.69909 37.2117H5.78581C7.84332 37.2827 11.3041 35.8401 13.1724 34.4526L13.3064 34.3501C15.4349 32.7735 18.6827 30.4085 20.9768 30.4085C21.7651 30.4085 22.0568 30.1484 22.9633 29.3601C24.2434 28.1929 25.6884 27.2207 27.2518 26.4748C29.4591 25.4027 32.7228 24.772 35.608 24.2202C38.3041 23.7078 41.3706 23.1166 42.0801 22.3361C42.6305 21.6336 43.3238 21.0559 44.114 20.6412C45.3504 20.0676 46.3641 19.1037 46.9993 17.8979C47.066 17.7758 47.1639 17.6735 47.283 17.6015C47.4021 17.5296 47.5381 17.4904 47.6772 17.4879L60.582 17.3303C60.7654 17.3262 60.9444 17.3861 61.0883 17.4998C61.2321 17.6135 61.3319 17.7738 61.3704 17.953C61.3704 18.0003 62.3715 22.7855 63.0653 24.9691C63.44 26.286 63.5381 27.6662 63.3536 29.0228C63.1691 30.3795 62.7059 31.6833 61.9931 32.8523C61.5074 33.7249 60.797 34.4517 59.9356 34.9571C59.6445 35.0892 59.3935 35.2958 59.208 35.556C59.0225 35.8163 58.9091 36.121 58.8793 36.4392C58.8547 36.5744 58.7952 36.7008 58.7067 36.8058C58.6182 36.9109 58.5037 36.9911 58.3747 37.0383L54.7563 38.3785C46.1242 42.0599 40.6612 43.0611 37.2714 43.0611ZM32.7464 40.3571C32.8532 40.3586 32.9585 40.3817 33.0561 40.425C33.1537 40.4684 33.2414 40.5311 33.314 40.6094C33.314 40.6094 37.3187 44.1332 54.1651 36.9358L57.4288 35.7297C57.5465 35.2906 57.7535 34.8805 58.037 34.5251C58.3205 34.1697 58.6744 33.8766 59.0763 33.6643C59.7362 33.2929 60.2816 32.7475 60.653 32.0877C61.2532 31.1079 61.6461 30.0155 61.8075 28.8779C61.9688 27.7403 61.8952 26.5817 61.5911 25.4736C61.0235 23.6763 60.2825 20.3259 60.0144 18.9306L48.1896 19.0803C47.3849 20.4013 46.2048 21.4525 44.7998 22.0996C44.2106 22.4304 43.6955 22.8784 43.2863 23.4161C42.2772 24.5355 39.8413 25.0479 35.947 25.7811C33.1642 26.3171 30.003 26.9241 27.9849 27.9017C26.5464 28.5898 25.218 29.4878 24.0433 30.5662C23.1131 31.3545 22.3642 32.0482 20.9925 31.9931H20.9452C19.1557 31.9931 15.9946 34.358 14.2918 35.6036L14.1578 35.6982C12.0845 37.2748 8.31632 38.8515 5.78581 38.7647C4.61909 38.7096 3.23953 39.5531 2.27777 40.2626C3.85442 40.8774 6.65296 41.7761 8.6553 41.0982C10.4922 40.3671 12.1905 39.3273 13.6769 38.0237C14.5752 37.2947 15.5206 36.6258 16.507 36.0214C19.1794 34.4447 20.3776 34.9256 20.6851 35.1069C20.816 35.187 20.9224 35.3015 20.9925 35.438C21.166 35.7849 25.3283 43.9282 32.4547 40.4202C32.5471 40.3808 32.646 40.3594 32.7464 40.3571Z" fill="#333736"/>
<path id="Vector_14" d="M44.5318 25.7818L59.5099 25.7108C59.4252 24.7903 59.2937 23.8746 59.1157 22.9675L58.7374 22.731C56.3014 22.5102 59.3759 20.8627 58.0121 18.6632C57.8938 18.4819 59.9987 17.0472 59.9356 16.8501L59.8883 16.6845C59.7812 16.3082 59.7438 15.9155 59.7779 15.5257C59.8813 14.6065 60.1912 13.7225 60.6845 12.94C60.7801 12.7792 60.9165 12.6464 61.0798 12.555C61.2431 12.4637 61.4276 12.417 61.6147 12.4197C62.4745 12.4661 63.3197 12.1843 63.9797 11.6314C65.0523 10.5742 66.1868 9.5818 67.3774 8.65943C67.5804 8.49428 67.7429 8.28473 67.8522 8.04693C67.9615 7.80912 68.0148 7.5494 68.008 7.28775V5.71111C68.0255 5.31636 67.9884 4.92109 67.8977 4.53651C67.838 4.13964 67.6527 3.77235 67.3689 3.48858C67.0852 3.2048 66.7179 3.01949 66.321 2.95987C64.4763 2.73914 62.0641 3.57476 60.3219 3.06235C59.892 2.96762 59.5063 2.73173 59.2261 2.39228C59.1206 2.23856 59.0605 2.05825 59.0527 1.87198C59.0507 1.73578 59.003 1.60419 58.9172 1.49838C58.8314 1.39257 58.7126 1.31869 58.5797 1.28863C57.4524 1.00483 54.8746 0.500305 53.0141 0.965415C50.5703 1.62761 52.1706 2.67607 48.9228 3.1806C45.6749 3.68512 46.6839 12.6878 47.4092 14.966C47.7581 15.9345 48.0219 16.9315 48.1975 17.9459C48.1975 17.9459 50.4048 19.3491 49.9633 20.2162C49.6007 20.9257 46.5893 21.044 46.4238 21.7298C45.6047 22.9842 44.9677 24.3485 44.5318 25.7818Z" fill="#E8BF87"/>
<path id="Vector_15" d="M66.3052 2.96798C64.4605 2.74725 62.0482 3.58287 60.3061 3.07046C59.8762 2.97573 59.4905 2.73984 59.2103 2.40039C59.1274 2.58092 59.0845 2.77722 59.0845 2.97587C59.0845 3.17451 59.1274 3.37081 59.2103 3.55134C59.3436 3.89465 59.5775 4.1897 59.8814 4.39787C60.1852 4.60605 60.5448 4.71764 60.9131 4.71806H64.5551C65.0596 5.30141 64.7758 6.59426 66.1318 6.53908C66.1318 6.53908 64.831 8.6439 63.5618 9.28244C62.2926 9.92098 61.2363 10.2363 60.2509 10.662C58.9265 11.2611 57.6652 14.2725 57.5785 15.1554C57.7373 15.7274 57.9762 16.2742 58.288 16.7794L58.6033 16.5429C58.9214 16.2822 59.2812 16.0769 59.6675 15.9359H59.7936V15.5811C59.897 14.6619 60.2069 13.7779 60.7002 12.9954C60.7958 12.8346 60.9322 12.7018 61.0955 12.6104C61.2588 12.5191 61.4433 12.4724 61.6304 12.4751C62.4902 12.5215 63.3354 12.2397 63.9954 11.6868C65.0634 10.6134 66.1926 9.60265 67.3773 8.65966C67.5802 8.49612 67.7426 8.288 67.852 8.05147C67.9614 7.81494 68.0148 7.55638 68.008 7.29587V5.71922C68.0255 5.32448 67.9883 4.9292 67.8976 4.54463C67.8371 4.14548 67.6495 3.77649 67.3626 3.49246C67.0757 3.20842 66.7049 3.02449 66.3052 2.96798Z" fill="#CD9F61"/>
<path id="Vector_16" d="M48.1896 18.6946C47.9935 18.6956 47.804 18.6235 47.6583 18.4923C47.5125 18.3611 47.4209 18.1803 47.4013 17.9852C47.2144 17.0274 46.9507 16.0863 46.6129 15.1708C46.0532 13.4208 45.0363 6.65697 46.8416 3.76383C47.0351 3.41124 47.3058 3.10689 47.6334 2.87348C47.961 2.64007 48.3371 2.48362 48.7335 2.4158C50.2471 2.18719 50.4521 1.90339 50.7201 1.56441C51.2127 0.8636 51.9594 0.382758 52.8013 0.224268C54.78 -0.303908 57.3893 0.224268 58.761 0.54748C59.0602 0.620015 59.3273 0.788973 59.5211 1.02831C59.7148 1.26764 59.8245 1.56406 59.8331 1.87186C59.8331 2.02952 60.109 2.20296 60.5347 2.32909C61.5402 2.51841 62.5721 2.51841 63.5776 2.32909C64.5109 2.18312 65.458 2.14608 66.3998 2.21872C66.9556 2.2915 67.473 2.54184 67.875 2.93247C68.277 3.32311 68.5421 3.83313 68.6308 4.38661C68.743 4.84541 68.7881 5.31806 68.7648 5.78982L68.8042 7.27186C68.8134 7.65353 68.7343 8.03216 68.5729 8.37815C68.4115 8.72414 68.1723 9.02812 67.874 9.26632C66.7183 10.1576 65.6203 11.1213 64.5867 12.1516C64.1867 12.5226 63.7159 12.8088 63.2024 12.993C62.6889 13.1773 62.1435 13.2557 61.5989 13.2237C61.5471 13.2235 61.4961 13.2364 61.4506 13.2612C61.4052 13.286 61.3667 13.3219 61.3388 13.3656C60.9167 14.0458 60.6477 14.8098 60.5505 15.6044C60.5231 15.9037 60.5498 16.2054 60.6293 16.4952C60.627 16.5346 60.627 16.5741 60.6293 16.6135C60.6788 16.7623 60.7449 16.9051 60.8264 17.0392C60.8839 17.21 60.8811 17.3953 60.8185 17.5643C60.7559 17.7333 60.6373 17.8758 60.4824 17.968C60.3276 18.0602 60.1458 18.0965 59.9674 18.0709C59.789 18.0454 59.6247 17.9595 59.502 17.8275C59.3597 17.5994 59.2433 17.3562 59.1551 17.1022L59.0842 16.8894C58.9548 16.4229 58.9094 15.9371 58.9502 15.4546C59.0622 14.4126 59.41 13.4098 59.9671 12.5221C60.1324 12.2512 60.3638 12.0266 60.6395 11.8694C60.9153 11.7123 61.2264 11.6276 61.5438 11.6234C62.2032 11.6856 62.8613 11.4907 63.3805 11.0795C64.4758 9.99277 65.634 8.97144 66.8492 8.02077C66.9612 7.93145 67.0508 7.81727 67.111 7.68728C67.1712 7.55729 67.2003 7.41506 67.196 7.27186V5.69522C67.2066 5.36667 67.1748 5.03813 67.1014 4.7177C66.8807 3.81113 66.3919 3.75595 66.2106 3.7323C65.3892 3.67835 64.5643 3.71536 63.7511 3.84266C62.5414 4.08771 61.295 4.08771 60.0854 3.84266C58.6427 3.42485 58.3195 2.58923 58.2643 2.05317C57.2159 1.79303 54.843 1.31215 53.2033 1.75361C52.3598 1.98222 52.1943 2.20295 51.9735 2.54193C51.5084 3.14106 50.9645 3.65347 49.0252 3.92938C48.8541 3.964 48.6936 4.03843 48.5567 4.14662C48.4197 4.25482 48.3102 4.39374 48.2369 4.55215C46.9283 6.67274 47.5589 12.7665 48.1659 14.6663C48.5244 15.6911 48.7883 16.7467 48.9543 17.8196C48.9719 18.0251 48.9084 18.2293 48.7772 18.3885C48.646 18.5476 48.4577 18.6491 48.2527 18.671L48.1896 18.6946Z" fill="#333736"/>
<path id="Vector_17" d="M66.66 3.04612C66.66 3.04612 65.6352 3.72408 65.9663 4.68583C66.2185 5.4032 67.2039 5.62393 67.6927 5.687C67.7747 5.70041 67.8589 5.68391 67.9298 5.6405C68.0007 5.59709 68.0536 5.52967 68.079 5.4505C68.3625 4.85632 68.4049 4.1754 68.1972 3.55065C67.7636 2.83327 66.66 3.04612 66.66 3.04612Z" fill="#333333"/>
<path id="Vector_18" d="M67.7478 6.47614H67.5902C66.3525 6.31059 65.5169 5.77453 65.2252 4.96256C65.0844 4.48694 65.1056 3.97803 65.2854 3.51575C65.4652 3.05346 65.7934 2.66396 66.2185 2.4084C66.2983 2.34856 66.3895 2.30564 66.4865 2.28227C66.9215 2.17529 67.3784 2.19984 67.7995 2.35281C68.2205 2.50578 68.5866 2.78028 68.8515 3.14154C69.0331 3.54697 69.1269 3.9862 69.1269 4.43044C69.1269 4.87469 69.0331 5.31391 68.8515 5.71935C68.7704 5.94546 68.6201 6.14028 68.422 6.27613C68.2239 6.41198 67.988 6.48196 67.7478 6.47614ZM66.9595 3.80373C66.8176 3.93774 66.6126 4.18212 66.6994 4.4265C66.7861 4.67088 67.0462 4.74971 67.4877 4.8522C67.596 4.55625 67.6098 4.23397 67.5271 3.92986C67.4404 3.81949 67.1645 3.79584 66.9674 3.80373H66.9595Z" fill="#333736"/>
<path id="Vector_19" d="M54.6617 7.55492C54.6623 7.96018 54.5312 8.35466 54.288 8.67887C54.0449 9.00308 53.7029 9.23944 53.3136 9.35229C51.4758 10.0213 49.79 11.0505 48.3551 12.3794C47.0938 13.6486 44.579 14.4054 44.1297 13.6013C43.6804 12.7973 44.2322 11.465 44.0115 10.2589C43.7907 9.05273 43.6409 6.95579 44.1533 5.99404C44.6658 5.03229 45.4068 4.81944 45.5723 3.92864C45.7379 3.03784 47.2672 1.43754 48.4891 1.56368C49.711 1.68981 52.8407 3.0063 53.3452 3.92864C53.8497 4.85098 53.6526 5.6393 54.6617 7.55492Z" fill="#E8BF87"/>
<path id="Vector_20" d="M53.6526 9.21909C53.5448 9.26986 53.4343 9.3146 53.3215 9.3531C51.4804 10.0202 49.7917 11.0495 48.3551 12.3803C47.0938 13.6495 44.5869 14.4062 44.1297 13.6022C43.6725 12.7981 44.2322 11.4658 44.0115 10.2597C43.7907 9.05354 43.6409 6.9566 44.1533 6.00273C44.6658 5.04886 45.4147 4.81237 45.5723 3.92945C45.73 3.04653 47.2672 1.43047 48.4891 1.56448C48.7551 1.59543 49.0186 1.64549 49.2774 1.71426C48.9149 1.87732 48.5886 2.11128 48.3178 2.40236C48.047 2.69344 47.8372 3.03576 47.7008 3.40916C47.5747 4.07135 46.9834 4.24478 46.5971 4.9858C46.2109 5.72682 46.3133 7.35076 46.4868 8.24945C46.6602 9.14814 46.2266 10.1887 46.5735 10.8115C46.9204 11.4343 48.8439 10.8115 49.8214 9.87339C50.7989 8.93529 52.5805 9.5423 53.6526 9.21909Z" fill="#CD9F61"/>
<path id="Vector_21" d="M44.9181 14.7139C44.8052 14.722 44.692 14.722 44.5791 14.7139C44.3441 14.698 44.1164 14.6251 43.9159 14.5014C43.7154 14.3778 43.548 14.2072 43.4282 14.0044C43.1302 13.3142 43.053 12.5487 43.2074 11.8129C43.2702 11.3472 43.2702 10.8753 43.2074 10.4097C42.9867 9.21141 42.7817 6.85432 43.4282 5.64031C43.6613 5.21807 43.9592 4.83502 44.3111 4.50513C44.6106 4.19768 44.7447 4.05578 44.7841 3.8114C45.0206 2.57374 46.8889 0.658116 48.5365 0.784247C49.8687 0.894612 53.2664 2.26629 54.0547 3.53549C54.1118 3.62521 54.1501 3.72555 54.1673 3.83046C54.1846 3.93537 54.1804 4.04269 54.1551 4.14595C54.1298 4.24922 54.0839 4.34631 54.0201 4.43137C53.9563 4.51642 53.876 4.5877 53.784 4.64091C53.6919 4.69412 53.5901 4.72815 53.4845 4.74097C53.379 4.75379 53.2719 4.74513 53.1698 4.71551C53.0677 4.68589 52.9726 4.63591 52.8903 4.5686C52.808 4.50129 52.7402 4.41802 52.6909 4.32381C52.3756 3.77199 49.6165 2.43972 48.4261 2.35301C47.6378 2.29782 46.4395 3.58279 46.3449 4.11096C46.2083 4.69149 45.8942 5.21503 45.4463 5.60878C45.1988 5.83739 44.9886 6.1034 44.8235 6.3971C44.4766 7.0514 44.5239 8.84878 44.7604 10.1495C44.8508 10.7611 44.8508 11.3826 44.7604 11.9942C44.6931 12.3855 44.6931 12.7854 44.7604 13.1767C45.9047 13.1174 46.9851 12.6307 47.7876 11.8129C49.3171 10.3965 51.1198 9.30734 53.0851 8.61228C53.1871 8.56374 53.2983 8.53767 53.4112 8.53585C53.5241 8.53402 53.6361 8.55648 53.7396 8.60169C53.8431 8.64691 53.9356 8.71384 54.011 8.79794C54.0864 8.88204 54.1428 8.98135 54.1764 9.08916C54.2101 9.19696 54.2202 9.31073 54.2061 9.42278C54.1919 9.53482 54.1539 9.64252 54.0945 9.73858C54.0351 9.83464 53.9558 9.91682 53.8619 9.97955C53.768 10.0423 53.6617 10.0841 53.5502 10.1022C51.8286 10.7264 50.2478 11.6856 48.8991 12.9244C47.8231 13.9694 46.4139 14.6029 44.9181 14.7139Z" fill="#333736"/>
<path id="Vector_22" d="M59.9907 15.7539C59.9907 15.7539 53.2584 16.897 47.6219 15.7539L47.685 18.3002C47.685 18.3002 50.7752 19.6955 60.5977 18.1189L59.9907 15.7539Z" fill="#A67E73"/>
<path id="Vector_23" d="M52.4938 19.6959C48.8518 19.6959 47.4565 19.1046 47.3697 19.0652C47.235 19.0048 47.12 18.9077 47.0378 18.785C46.9555 18.6624 46.9094 18.5191 46.9046 18.3715L46.8416 15.7543C46.8381 15.6364 46.861 15.5193 46.9088 15.4116C46.9565 15.3038 47.0278 15.2081 47.1175 15.1315C47.2084 15.0561 47.3151 15.002 47.4297 14.9733C47.5443 14.9447 47.6639 14.9422 47.7797 14.966C53.1954 16.046 59.7937 14.966 59.8646 14.966C60.0592 14.9342 60.2585 14.9765 60.4234 15.0845C60.5883 15.1925 60.7068 15.3583 60.7554 15.5493L61.3546 17.9537C61.3802 18.0595 61.3836 18.1695 61.3646 18.2766C61.3456 18.3838 61.3046 18.4859 61.2442 18.5765C61.1841 18.6661 61.1062 18.7425 61.0153 18.8008C60.9244 18.8591 60.8226 18.8981 60.716 18.9154C57.9993 19.3857 55.2505 19.6466 52.4938 19.6959ZM48.4576 17.7251C49.5613 17.9931 52.8249 18.5134 59.6281 17.5044L59.3916 16.6214C55.7515 17.1423 52.0576 17.1688 48.4103 16.7003L48.4576 17.7251ZM56.6956 5.98697C56.5485 5.98662 56.4045 5.94513 56.2797 5.86718C56.155 5.78924 56.0546 5.67796 55.9898 5.54592C55.925 5.41387 55.8984 5.26634 55.9131 5.11999C55.9278 4.97364 55.9831 4.83432 56.0728 4.71777C56.4642 4.25317 56.9027 3.83046 57.3814 3.45646C57.5458 3.32844 57.7541 3.27068 57.9609 3.29579C58.1677 3.3209 58.3561 3.42685 58.4851 3.59047C58.5522 3.67251 58.602 3.76722 58.6317 3.86896C58.6613 3.9707 58.6702 4.07738 58.6577 4.18261C58.6451 4.28784 58.6115 4.38947 58.5589 4.48142C58.5062 4.57337 58.4355 4.65376 58.3511 4.71777C57.975 5.01416 57.6291 5.34686 57.3184 5.71106C57.2418 5.80069 57.1461 5.872 57.0383 5.91975C56.9305 5.9675 56.8134 5.99047 56.6956 5.98697Z" fill="#333736"/>
<path id="Vector_24" d="M59.9356 29.4159L63.7511 32.0489L71.2559 29.274L75.639 28.998L80.3689 29.676C80.4855 29.6933 80.5971 29.7349 80.6966 29.798C80.7961 29.8611 80.8812 29.9444 80.9466 30.0424C81.0119 30.1405 81.056 30.2511 81.076 30.3672C81.096 30.4833 81.0914 30.6023 81.0626 30.7166C80.9471 31.3752 80.6574 31.9909 80.2235 32.4997C79.7896 33.0084 79.2273 33.3917 78.5952 33.6097C76.9165 34.0452 75.1373 33.8633 73.5815 33.0973L65.0912 36.495L53.0142 36.3689" fill="#E8BF87"/>
<path id="Vector_25" d="M81.0468 30.7321C80.9283 31.3907 80.6365 32.0059 80.2015 32.5143C79.7664 33.0228 79.2038 33.4062 78.5715 33.6253C76.8988 34.0557 75.127 33.8681 73.5814 33.0971L65.0912 36.4948C60.9856 37.4093 56.7117 37.2271 52.6988 35.9666C57.476 35.9035 61.8433 35.5409 65.1227 34.3899L73.5814 30.9607C75.134 31.7448 76.9186 31.9381 78.603 31.5047C79.0473 31.3742 79.4603 31.1545 79.8168 30.859C80.1732 30.5636 80.4657 30.1985 80.6763 29.7861C80.8306 29.8839 80.9497 30.0284 81.0164 30.1985C81.083 30.3686 81.0937 30.5555 81.0468 30.7321Z" fill="#CD9F61"/>
<path id="Vector_26" d="M59.4469 37.8267C57.0688 37.8522 54.7031 37.4819 52.4466 36.731C52.27 36.6485 52.1302 36.5035 52.0542 36.324C51.9782 36.1446 51.9714 35.9433 52.0351 35.7591C52.0988 35.5749 52.2284 35.4208 52.3991 35.3266C52.5697 35.2324 52.7692 35.2047 52.959 35.2489C56.2857 36.3999 60.1879 36.5654 64.8784 35.7613L73.2583 32.3085C73.366 32.2653 73.4819 32.2465 73.5977 32.2533C73.7135 32.2601 73.8264 32.2924 73.9283 32.3479C75.2961 33.0271 76.861 33.1976 78.3429 32.8288C78.8497 32.6466 79.2976 32.3305 79.6391 31.9141C79.9806 31.4976 80.2028 30.9964 80.2822 30.4638L80.2349 30.3771L75.6075 29.7149L71.4136 29.975L64.0191 32.7815C63.9013 32.8252 63.7747 32.8402 63.6499 32.8251C63.5251 32.8101 63.4058 32.7653 63.3018 32.6947L59.4863 30.0618C59.3867 30.0103 59.2993 29.9382 59.2298 29.8502C59.1603 29.7623 59.1104 29.6605 59.0833 29.5517C59.0563 29.4429 59.0527 29.3297 59.0729 29.2194C59.0931 29.1091 59.1366 29.0045 59.2005 28.9124C59.2643 28.8202 59.3471 28.7428 59.4433 28.6852C59.5394 28.6276 59.6468 28.5912 59.7581 28.5783C59.8695 28.5655 59.9823 28.5766 60.089 28.6108C60.1957 28.645 60.2939 28.7016 60.3771 28.7768L63.8615 31.1418L70.9564 28.5088C71.0281 28.4855 71.1021 28.4696 71.1771 28.4615L75.568 28.1855H75.7257L80.4556 28.8635C80.6789 28.8956 80.8931 28.9738 81.0845 29.0933C81.2759 29.2127 81.4402 29.3707 81.5672 29.5572C81.6926 29.7467 81.7782 29.9598 81.8188 30.1833C81.8595 30.4069 81.8543 30.6364 81.8037 30.858C81.6603 31.6515 81.3057 32.3918 80.7772 33.0008C80.2486 33.6098 79.5657 34.0651 78.8002 34.3187C77.0439 34.7837 75.1809 34.6277 73.5263 33.8772L65.3829 37.2197L65.2253 37.2591C63.3193 37.6159 61.3858 37.8058 59.4469 37.8267Z" fill="#333736"/>
<path id="Vector_27" d="M20.3461 35.8643C21.6747 39.5851 23.8094 42.9662 26.5975 45.7656L19.1873 50.7951L16.2468 54.3819L13.9449 58.836C13.8878 58.9461 13.8546 59.067 13.8474 59.1908C13.8401 59.3147 13.8591 59.4387 13.9029 59.5547C13.9468 59.6707 14.0147 59.7762 14.102 59.8642C14.1894 59.9523 14.2944 60.021 14.4101 60.0657C15.0439 60.3717 15.7482 60.5024 16.4497 60.4442C17.1511 60.386 17.8242 60.141 18.399 59.7346C19.7993 58.5514 20.7258 56.9028 21.0083 55.0914L29.1359 49.9437C32.3514 47.0829 34.8516 43.5081 36.4358 39.5063" fill="#E8BF87"/>
<path id="Vector_28" d="M14.4022 60.0732C15.0384 60.3784 15.745 60.5073 16.448 60.4463C17.1511 60.3853 17.8248 60.1366 18.399 59.7263C19.8039 58.5491 20.7339 56.9021 21.0162 55.091L29.1438 49.9354C32.3456 47.0654 34.8434 43.4967 36.4437 39.5059L33.9683 42.7301L28.0086 49.1391L19.5499 54.1608C19.008 55.8607 17.9737 57.3615 16.578 58.4729C16.1954 58.7697 15.7557 58.9845 15.2864 59.1039C14.8171 59.2232 14.3283 59.2446 13.8504 59.1666C13.8329 59.3569 13.8772 59.5478 13.9765 59.711C14.0759 59.8743 14.2251 60.0012 14.4022 60.0732Z" fill="#CD9F61"/>
<path id="Vector_29" d="M16.2231 61.2406C15.4967 61.234 14.7787 61.0839 14.1104 60.7992C13.8946 60.7121 13.6994 60.581 13.5372 60.4141C13.375 60.2473 13.2495 60.0484 13.1686 59.8302C13.0877 59.612 13.0533 59.3794 13.0675 59.1471C13.0817 58.9149 13.1443 58.6882 13.2512 58.4815L15.5531 54.0353C15.5773 53.9879 15.6064 53.943 15.6398 53.9013L18.5723 50.3066C18.6061 50.257 18.6489 50.2143 18.6985 50.1805L25.1469 45.2298C22.6682 42.6314 20.7852 39.5244 19.6287 36.1247C19.5601 35.9291 19.5713 35.7144 19.6598 35.5271C19.7483 35.3397 19.9071 35.1947 20.1017 35.1235C20.2972 35.0549 20.5119 35.0661 20.6993 35.1546C20.8866 35.2432 21.0316 35.4019 21.1028 35.5965C22.2805 39.0629 24.2573 42.2036 26.8734 44.7647C26.9509 44.8445 27.0107 44.9399 27.0487 45.0445C27.0868 45.1492 27.1022 45.2607 27.0941 45.3717C27.0867 45.482 27.0563 45.5896 27.0047 45.6874C26.9531 45.7851 26.8815 45.871 26.7945 45.9393L19.6996 51.3629L16.8853 54.8237L14.615 59.1989C14.6053 59.227 14.6053 59.2575 14.615 59.2856C14.6321 59.3149 14.6565 59.3394 14.6859 59.3565C15.1983 59.6061 15.7681 59.7142 16.3363 59.6699C16.9045 59.6255 17.4505 59.4303 17.918 59.1043C19.1497 58.0528 19.9659 56.5965 20.2199 54.9971C20.2358 54.883 20.2765 54.7737 20.3391 54.677C20.4018 54.5803 20.4849 54.4985 20.5825 54.4374L28.6471 49.3291C31.6663 46.1758 34.6856 42.8412 35.6868 39.2937C35.7037 39.1833 35.744 39.0778 35.8048 38.9841C35.8656 38.8904 35.9457 38.8108 36.0396 38.7504C36.1336 38.6899 36.2393 38.6502 36.3498 38.6337C36.4602 38.6173 36.573 38.6245 36.6804 38.6549C36.7879 38.6852 36.8877 38.7381 36.9732 38.81C37.0587 38.8819 37.128 38.9711 37.1764 39.0717C37.2248 39.1724 37.2513 39.2822 37.254 39.3939C37.2568 39.5055 37.2358 39.6165 37.1925 39.7194C36.0809 43.661 32.8882 47.1927 29.7034 50.4879C29.6612 50.5308 29.6135 50.5679 29.5615 50.5983L21.7256 55.5726C21.3628 57.4521 20.3531 59.1451 18.8719 60.3577C18.1105 60.936 17.1792 61.2464 16.2231 61.2406Z" fill="#333736"/>
<path id="Vector_30" d="M69.3482 38.6152C70.1845 38.6152 70.9865 38.9475 71.5779 39.5388C72.1692 40.1302 72.5014 40.9322 72.5014 41.7685V86.7029H66.1633V41.7685C66.1633 40.9322 66.4956 40.1302 67.0869 39.5388C67.6783 38.9475 68.4803 38.6152 69.3166 38.6152H69.3482Z" fill="#C69C6D"/>
<path id="Vector_31" d="M72.5408 87.4917H66.1633C65.9542 87.4917 65.7537 87.4086 65.6058 87.2608C65.458 87.1129 65.3749 86.9124 65.3749 86.7033V41.769C65.3749 40.7163 65.7931 39.7067 66.5375 38.9624C67.2819 38.218 68.2914 37.7998 69.3441 37.7998C70.3968 37.7998 71.4064 38.218 72.1508 38.9624C72.8952 39.7067 73.3133 40.7163 73.3133 41.769V86.7033C73.3134 86.9097 73.2325 87.1079 73.088 87.2553C72.9436 87.4027 72.7471 87.4875 72.5408 87.4917ZM66.9437 85.915H71.7525V41.769C71.7525 41.1313 71.4991 40.5198 71.0482 40.0688C70.5973 39.6179 69.9858 39.3646 69.3481 39.3646C68.7104 39.3646 68.0988 39.6179 67.6479 40.0688C67.197 40.5198 66.9437 41.1313 66.9437 41.769V85.915Z" fill="#333736"/>
<path id="Vector_32" d="M69.3482 48.5879L47.015 60.1447V65.6866L69.3482 53.6726" fill="#C69C6D"/>
<path id="Vector_33" d="M47.015 66.4748C46.8735 66.4748 46.7346 66.4367 46.6129 66.3644C46.4967 66.2937 46.4008 66.1941 46.3345 66.0753C46.2682 65.9565 46.2337 65.8225 46.2345 65.6865V60.1682C46.2349 60.0256 46.274 59.8858 46.3475 59.7636C46.4211 59.6415 46.5264 59.5415 46.6523 59.4745L68.9934 47.8941C69.1786 47.8 69.3934 47.7828 69.5913 47.8463C69.7891 47.9098 69.9538 48.0488 70.0497 48.2331C70.1413 48.4175 70.1572 48.6304 70.0938 48.8264C70.0305 49.0223 69.893 49.1857 69.7107 49.2815L47.7954 60.6176V64.3779L68.9776 52.9866C69.1607 52.8883 69.3753 52.8662 69.5746 52.9253C69.7739 52.9843 69.9419 53.1197 70.0418 53.302C70.0927 53.3938 70.1247 53.4949 70.136 53.5993C70.1473 53.7038 70.1376 53.8094 70.1075 53.91C70.0774 54.0106 70.0274 54.1042 69.9607 54.1852C69.8939 54.2663 69.8116 54.3332 69.7186 54.382L47.3855 66.3802C47.2716 66.4417 47.1443 66.4742 47.015 66.4748Z" fill="#333736"/>
<path id="Vector_34" d="M69.3482 59.916L47.015 71.4649V77.0147L69.3482 65.0007" fill="#C69C6D"/>
<path id="Vector_35" d="M47.0151 77.795C46.8736 77.7949 46.7347 77.7568 46.613 77.6846C46.4979 77.6146 46.4027 77.5162 46.3365 77.3989C46.2703 77.2816 46.2352 77.1493 46.2346 77.0145V71.4963C46.235 71.3537 46.2741 71.2138 46.3476 71.0917C46.4212 70.9695 46.5266 70.8696 46.6524 70.8026L68.9935 59.2142C69.1754 59.1424 69.3775 59.1408 69.5606 59.2097C69.7437 59.2786 69.8946 59.4131 69.984 59.5871C70.0735 59.761 70.095 59.962 70.0445 60.151C69.994 60.34 69.8751 60.5034 69.7108 60.6096L47.7955 71.9456V75.7059L68.9777 64.3068C69.0689 64.2431 69.1726 64.1995 69.2819 64.1788C69.3912 64.158 69.5036 64.1607 69.6119 64.1865C69.7201 64.2123 69.8216 64.2608 69.9097 64.3286C69.9979 64.3965 70.0707 64.4823 70.1233 64.5803C70.1759 64.6783 70.2073 64.7863 70.2152 64.8973C70.2231 65.0082 70.2074 65.1196 70.1692 65.2241C70.131 65.3286 70.0711 65.4238 69.9934 65.5034C69.9158 65.5831 69.8222 65.6455 69.7187 65.6864L47.3856 77.7004C47.2717 77.7619 47.1445 77.7943 47.0151 77.795Z" fill="#333736"/>
<path id="Vector_36" d="M47.015 50.4396C47.8513 50.4396 48.6533 50.7718 49.2447 51.3632C49.8361 51.9545 50.1683 52.7566 50.1683 53.5929V98.5272H43.8302V53.5929C43.8301 53.1761 43.9127 52.7635 44.0732 52.3789C44.2336 51.9942 44.4687 51.6452 44.7649 51.352C45.061 51.0587 45.4124 50.8271 45.7986 50.6705C46.1848 50.5139 46.5982 50.4354 47.015 50.4396Z" fill="#C69C6D"/>
<path id="Vector_37" d="M50.1998 99.3169H43.8302C43.6211 99.3169 43.4206 99.2338 43.2728 99.086C43.1249 98.9381 43.0419 98.7376 43.0419 98.5285V53.5942C43.0419 52.5415 43.4601 51.5319 44.2044 50.7876C44.9488 50.0432 45.9584 49.625 47.0111 49.625C48.0638 49.625 49.0733 50.0432 49.8177 50.7876C50.5621 51.5319 50.9803 52.5415 50.9803 53.5942V98.5285C50.9803 98.7362 50.8983 98.9356 50.7522 99.0832C50.606 99.2308 50.4075 99.3148 50.1998 99.3169ZM44.6106 97.7402H49.4194V53.5942C49.4194 52.9565 49.1661 52.345 48.7152 51.894C48.2643 51.4431 47.6527 51.1898 47.015 51.1898C46.3773 51.1898 45.7658 51.4431 45.3149 51.894C44.8639 52.345 44.6106 52.9565 44.6106 53.5942V97.7402Z" fill="#333736"/>
<path id="Vector_38" d="M72.3044 86.7038C72.4724 83.8687 73.454 81.1421 75.1318 78.8506C76.8095 76.559 79.1123 74.7997 81.7642 73.7832C79.2043 77.6068 77.8329 82.1024 77.8226 86.7038H72.3044Z" fill="#85BD79"/>
<path id="Vector_39" d="M77.8305 87.4914H72.3123C72.1032 87.4914 71.9027 87.4083 71.7548 87.2605C71.607 87.1126 71.524 86.9121 71.524 86.703C71.7065 83.7152 72.7392 80.8418 74.5004 78.4214C76.2616 76.001 78.678 74.1343 81.4647 73.0414C81.6192 72.9792 81.7895 72.9675 81.9511 73.0081C82.1127 73.0487 82.2572 73.1394 82.364 73.2672C82.4709 73.395 82.5344 73.5534 82.5457 73.7196C82.5569 73.8859 82.5151 74.0513 82.4264 74.1924C79.9381 77.89 78.6096 82.2461 78.611 86.703C78.611 86.9108 78.529 87.1101 78.3829 87.2577C78.2367 87.4053 78.0382 87.4893 77.8305 87.4914ZM73.1479 85.9147H77.0895C77.1956 82.3369 78.1206 78.831 79.7934 75.6665C77.9842 76.7625 76.4465 78.2539 75.2957 80.0287C74.1448 81.8035 73.4105 83.8158 73.1479 85.9147Z" fill="#333736"/>
<path id="Vector_40" d="M75.9464 86.7029C75.8142 84.5084 75.0524 82.3985 73.7521 80.6257C72.4519 78.853 70.6684 77.4924 68.615 76.707C70.6064 79.6618 71.6789 83.1398 71.6973 86.7029H75.9464Z" fill="#85BD79"/>
<path id="Vector_41" d="M75.9464 87.4913H71.6737C71.4646 87.4913 71.2641 87.4082 71.1162 87.2604C70.9684 87.1125 70.8854 86.912 70.8854 86.7029C70.8911 83.2905 69.8812 79.9536 67.9843 77.117C67.8972 76.9766 67.8565 76.8124 67.8678 76.6475C67.879 76.4827 67.9418 76.3256 68.0473 76.1984C68.1527 76.0712 68.2954 75.9803 68.4553 75.9386C68.6151 75.8969 68.7841 75.9065 68.9382 75.966C71.1412 76.8035 73.0521 78.2653 74.4368 80.1724C75.8216 82.0794 76.6202 84.3489 76.7347 86.7029C76.7347 86.912 76.6516 87.1125 76.5038 87.2604C76.356 87.4082 76.1554 87.4913 75.9464 87.4913ZM72.4383 85.9146H75.1581C74.962 84.4604 74.462 83.0638 73.6905 81.8156C72.919 80.5674 71.8934 79.4956 70.6804 78.6699C71.77 80.9352 72.3767 83.4023 72.462 85.9146H72.4383Z" fill="#333736"/>
<path id="Vector_42" d="M38.7613 98.528C38.9293 95.6929 39.9109 92.9663 41.5887 90.6748C43.2664 88.3833 45.5692 86.6239 48.2211 85.6074C45.6642 89.4325 44.2931 93.9271 44.2795 98.528H38.7613Z" fill="#85BD79"/>
<path id="Vector_43" d="M44.2874 99.3163H38.7691C38.5601 99.3163 38.3595 99.2333 38.2117 99.0854C38.0639 98.9376 37.9808 98.7371 37.9808 98.528C38.1684 95.5434 39.2043 92.6745 40.9667 90.2585C42.7291 87.8426 45.1447 85.9801 47.9294 84.8901C48.084 84.8278 48.2542 84.8162 48.4158 84.8567C48.5774 84.8973 48.722 84.988 48.8288 85.1158C48.9356 85.2437 48.9992 85.4021 49.0104 85.5683C49.0216 85.7345 48.9799 85.9 48.8912 86.041C46.4045 89.7311 45.0735 94.0783 45.0678 98.528C45.0678 98.7357 44.9859 98.9351 44.8397 99.0827C44.6936 99.2303 44.4951 99.3143 44.2874 99.3163ZM39.6047 97.7397H43.5464C43.6524 94.1619 44.5775 90.656 46.2503 87.4915C44.4411 88.5875 42.9034 90.0788 41.7525 91.8537C40.6016 93.6285 39.8673 95.6407 39.6047 97.7397Z" fill="#333736"/>
<path id="Vector_44" d="M42.427 98.5281C42.2948 96.3336 41.533 94.2237 40.2328 92.4509C38.9326 90.6782 37.149 89.3176 35.0956 88.5322C37.0787 91.4896 38.1429 94.9674 38.1543 98.5281H42.427Z" fill="#85BD79"/>
<path id="Vector_45" d="M42.427 99.3163H38.1543C37.9452 99.3163 37.7447 99.2333 37.5969 99.0854C37.4491 98.9376 37.366 98.7371 37.366 98.528C37.3625 95.1184 36.3444 91.7869 34.4413 88.9578C34.3542 88.8174 34.3135 88.6532 34.3248 88.4883C34.336 88.3235 34.3988 88.1664 34.5043 88.0392C34.6097 87.912 34.7524 87.8211 34.9123 87.7794C35.0721 87.7377 35.2411 87.7473 35.3952 87.8068C37.5987 88.6408 39.5113 90.0991 40.8989 92.0033C42.2864 93.9075 43.0887 96.1749 43.2075 98.528C43.2066 98.7348 43.1245 98.933 42.9788 99.0798C42.8333 99.2284 42.635 99.3134 42.427 99.3163ZM38.8953 97.7397H41.5756C41.3796 96.2855 40.8795 94.8888 40.1081 93.6406C39.3366 92.3924 38.311 91.3207 37.098 90.495C38.1931 92.7591 38.8052 95.2263 38.8953 97.7397Z" fill="#333736"/>
</g>
</svg>
