<svg width="430" height="643" viewBox="0 0 430 643" fill="none" xmlns="http://www.w3.org/2000/svg">
<path d="M-129.5 147.661C-129.5 85.3879 -77.4925 35.0168 -15.9019 43.7204C-0.168884 45.9437 15.2096 48.6012 28.7469 51.7591C65.0353 60.2244 93.1625 88.4739 121.415 116.849L121.543 116.978C149.787 145.344 178.169 173.808 214.889 182.157C252.761 190.768 281.94 184.281 310.967 173.071C320.793 169.276 330.615 164.934 340.746 160.456C345.561 158.327 350.445 156.168 355.433 154.022C370.928 147.355 387.454 140.801 406.087 135.64C439.447 126.4 477.834 130.07 507.866 144.698C537.89 159.323 559.5 184.861 559.5 219.354V630.5H-129.5V147.661Z" stroke="white"/>
<path d="M-129.5 130.677C-129.5 68.3977 -77.4818 18.0224 -15.8897 26.7563C-0.161026 28.9867 15.2128 31.6525 28.7465 34.8202C65.0347 43.3137 93.162 71.6577 121.415 100.128L121.542 100.257C149.786 128.718 178.168 157.277 214.889 165.654C252.761 174.294 281.94 167.786 310.967 156.538C320.794 152.73 330.616 148.374 340.747 143.88C345.561 141.745 350.446 139.578 355.434 137.425C370.929 130.736 387.454 124.16 406.087 118.982C439.427 109.717 477.813 113.356 507.85 127.958C537.88 142.556 559.5 168.07 559.5 202.549V615.5H-129.5V130.677Z" stroke="white"/>
<path d="M-129.5 114.661C-129.5 52.3879 -77.4925 2.01677 -15.9019 10.7204C-0.168884 12.9437 15.2096 15.6012 28.7469 18.7591C65.0353 27.2244 93.1625 55.4739 121.415 83.8493L121.543 83.9776C149.787 112.344 178.169 140.808 214.889 149.157C252.761 157.768 281.94 151.281 310.967 140.071C320.793 136.276 330.615 131.934 340.746 127.456C345.561 125.327 350.445 123.168 355.433 121.022C370.928 114.355 387.454 107.801 406.087 102.64C439.447 93.4005 477.834 97.0695 507.866 111.698C537.89 126.323 559.5 151.861 559.5 186.354V597.5H-129.5V114.661Z" stroke="white"/>
<path d="M-130 156.661C-130 94.12 -77.7582 43.4743 -15.8319 52.2253C-0.0903778 54.4498 15.3038 57.1098 28.8605 60.2722C101.878 77.3055 141.894 174.047 215 190.669C290.485 207.833 331.295 164.836 405.953 144.158C472.908 125.614 560 158.879 560 228.354V640H-130V156.661Z" fill="#1FAB89"/>
<path d="M-129.5 173.606C-129.5 111.353 -77.5298 60.9972 -15.9447 69.5947C-0.196426 71.7932 15.1981 74.4217 28.7481 77.5456C65.0374 85.9119 93.1646 113.831 121.417 141.873L121.545 142.001C149.789 170.036 178.171 198.166 214.89 206.417C252.76 214.927 281.938 208.517 310.965 197.438C320.791 193.687 330.613 189.396 340.744 184.97C345.559 182.867 350.443 180.733 355.431 178.612C370.926 172.023 387.452 165.545 406.086 160.445C439.519 151.293 477.906 155.068 507.919 169.791C537.926 184.511 559.5 210.134 559.5 244.675V649.5H-129.5V173.606Z" stroke="white"/>
</svg>
