<svg width="63" height="63" viewBox="0 0 63 63" fill="none" xmlns="http://www.w3.org/2000/svg">
<circle cx="31.5" cy="31.5" r="31.5" fill="#1FAB89"/>
<path d="M32 20C29.6139 20.0027 27.3262 20.9729 25.639 22.6977C23.9518 24.4225 23.0027 26.761 23 29.2002C23 32.9436 25.6584 36.0521 28.4743 39.3424C29.3653 40.3843 30.2878 41.4619 31.109 42.5521C31.2141 42.6915 31.3491 42.8043 31.5035 42.882C31.658 42.9596 31.8279 43 32 43C32.1721 43 32.342 42.9596 32.4965 42.882C32.6509 42.8043 32.7859 42.6915 32.891 42.5521C33.7122 41.4619 34.6347 40.3843 35.5258 39.3424C38.3416 36.0521 41 32.9436 41 29.2002C40.9973 26.761 40.0482 24.4225 38.361 22.6977C36.6738 20.9729 34.3861 20.0027 32 20ZM32 32.6503C31.3325 32.6503 30.68 32.448 30.125 32.0689C29.5699 31.6898 29.1374 31.151 28.8819 30.5205C28.6265 29.8901 28.5596 29.1964 28.6898 28.5272C28.8201 27.8579 29.1415 27.2432 29.6135 26.7607C30.0855 26.2782 30.6869 25.9496 31.3416 25.8164C31.9963 25.6833 32.6749 25.7516 33.2916 26.0128C33.9083 26.2739 34.4354 26.7161 34.8062 27.2835C35.1771 27.8508 35.375 28.5179 35.375 29.2002C35.375 30.1153 35.0194 30.9928 34.3865 31.6398C33.7536 32.2868 32.8951 32.6503 32 32.6503Z" fill="white"/>
</svg>
