<svg width="34" height="35" viewBox="0 0 34 35" fill="none" xmlns="http://www.w3.org/2000/svg">
<circle cx="17" cy="17.75" r="17" fill="#FF4B4D"/>
<path d="M20.125 16.2V15C20.125 13.32 18.75 12 17 12C15.25 12 13.875 13.32 13.875 15V16.2C12.8125 16.2 12 16.98 12 18V22.2C12 23.22 12.8125 24 13.875 24H20.125C21.1875 24 22 23.22 22 22.2V18C22 16.98 21.1875 16.2 20.125 16.2ZM15.125 15C15.125 13.98 15.9375 13.2 17 13.2C18.0625 13.2 18.875 13.98 18.875 15V16.2H15.125V15ZM17.625 21C17.625 21.36 17.375 21.6 17 21.6C16.625 21.6 16.375 21.36 16.375 21V19.2C16.375 18.84 16.625 18.6 17 18.6C17.375 18.6 17.625 18.84 17.625 19.2V21Z" fill="white"/>
</svg>
