<svg width="430" height="520" viewBox="0 0 430 520" fill="none" xmlns="http://www.w3.org/2000/svg">
<path d="M-63.5 140.685C-63.5 78.3887 -11.2228 26.9213 49.9043 38.3221C54.9246 39.2584 59.7711 40.262 64.3556 41.3368C93.6749 48.2102 116.405 71.152 139.261 94.2221L139.353 94.3145C162.189 117.363 185.161 140.519 214.889 147.312C245.54 154.317 269.158 149.039 292.643 139.924C300.592 136.839 308.538 133.309 316.733 129.668C320.626 127.939 324.575 126.185 328.606 124.441C341.135 119.024 354.495 113.699 369.557 109.507C396.488 102.011 427.507 104.94 451.779 116.727C476.044 128.512 493.5 149.107 493.5 176.937V511.5H-63.5V140.685Z" stroke="white"/>
<path d="M-63.5 127.685C-63.5 65.3887 -11.2228 13.9213 49.9043 25.3221C54.9246 26.2584 59.7711 27.262 64.3556 28.3368C93.6749 35.2102 116.405 58.152 139.261 81.2221L139.353 81.3145C162.189 104.363 185.161 127.519 214.889 134.312C245.54 141.317 269.158 136.039 292.643 126.924C300.592 123.839 308.538 120.309 316.733 116.668C320.626 114.939 324.575 113.185 328.606 111.441C341.135 106.024 354.495 100.699 369.557 96.5067C396.488 89.0107 427.507 91.9398 451.779 103.727C476.044 115.512 493.5 136.107 493.5 163.937V498.5H-63.5V127.685Z" stroke="white"/>
<path d="M-63.5 114.675C-63.5 52.3826 -11.2306 0.920106 49.8975 12.2965C54.9203 13.2313 59.7691 14.2332 64.3559 15.3063C93.6753 22.1656 116.405 45.0602 139.262 68.0828L139.353 68.175C162.189 91.1764 185.161 114.285 214.889 121.064C245.54 128.054 269.158 122.787 292.643 113.691C300.592 110.612 308.538 107.089 316.732 103.456C320.625 101.73 324.574 99.9796 328.606 98.24C341.135 92.8338 354.495 87.5198 369.557 83.3359C396.499 75.8524 427.517 78.7965 451.787 90.5976C476.049 102.395 493.5 123.002 493.5 150.84V484.5H-63.5V114.675Z" stroke="white"/>
<path d="M-64 148.675C-64 86.1286 -11.5018 34.361 49.989 45.8049C55.0179 46.7408 59.8744 47.7443 64.4698 48.8194C123.519 62.6341 155.88 141.095 215 154.576C276.045 168.497 309.047 133.625 369.423 116.854C423.54 101.822 494 128.674 494 184.84V519H-64V148.675Z" fill="#1FAB89"/>
<path d="M-63.5 162.616C-63.5 100.346 -11.277 48.9129 49.8568 60.143C54.8945 61.0684 59.7577 62.0605 64.3572 63.1233C93.6774 69.8979 116.407 92.5093 139.263 115.246L139.355 115.338C162.192 138.056 185.164 160.878 214.89 167.573C245.54 174.475 269.156 169.274 292.641 160.291C300.589 157.25 308.536 153.771 316.73 150.183C320.623 148.479 324.572 146.749 328.604 145.031C341.133 139.692 354.493 134.444 369.556 130.311C396.56 122.903 427.579 125.937 451.832 137.82C476.079 149.698 493.5 170.378 493.5 198.257V526.5H-63.5V162.616Z" stroke="white"/>
</svg>
