<svg width="430" height="570" viewBox="0 0 430 570" fill="none" xmlns="http://www.w3.org/2000/svg">
<path d="M-90.5 143.667C-90.5 81.385 -38.3806 30.5308 23.0028 40.5176C32.422 42.0501 41.4954 43.7751 49.7886 45.7119C81.959 53.225 106.897 78.2995 131.961 103.501L132.067 103.608C157.115 128.794 182.301 154.082 214.889 161.5C248.494 169.15 274.387 163.386 300.139 153.43C308.856 150.059 317.569 146.203 326.556 142.226C330.826 140.336 335.158 138.419 339.581 136.514C353.323 130.595 367.978 124.776 384.501 120.194C414.071 111.995 448.104 115.239 474.73 128.2C501.349 141.158 520.5 163.784 520.5 194.346V559.5H-90.5V143.667Z" stroke="white"/>
<path d="M-90.5 128.685C-90.5 66.3961 -38.3677 15.5353 23.0159 25.5613C32.4303 27.099 41.499 28.8298 49.7882 30.7729C81.9584 38.3142 106.896 63.4832 131.96 88.7798L132.067 88.887C157.115 114.167 182.3 139.551 214.889 146.997C248.494 154.676 274.387 148.891 300.14 138.896C308.856 135.513 317.57 131.643 326.556 127.651C330.827 125.754 335.158 123.829 339.581 121.917C353.324 115.975 367.978 110.135 384.502 105.536C414.05 97.3117 448.083 100.526 474.715 113.46C501.339 126.39 520.5 148.993 520.5 179.541V546.5H-90.5V128.685Z" stroke="white"/>
<path d="M-90.5 114.667C-90.5 52.385 -38.3806 1.53081 23.0028 11.5176C32.422 13.0501 41.4954 14.7751 49.7886 16.7119C81.959 24.225 106.897 49.2995 131.961 74.501L132.067 74.608C157.115 99.7935 182.301 125.082 214.889 132.5C248.494 140.15 274.387 134.386 300.139 124.43C308.856 121.059 317.569 117.203 326.556 113.226C330.826 111.336 335.158 109.419 339.581 107.514C353.323 101.595 367.978 95.7759 384.501 91.1943C414.071 82.9952 448.104 86.2393 474.73 99.2002C501.349 112.158 520.5 134.784 520.5 165.346V530.5H-90.5V114.667Z" stroke="white"/>
<path d="M-91 151.667C-91 89.1234 -38.6488 37.9806 23.0831 48.0241C32.5102 49.5579 41.5952 51.285 49.9023 53.225C114.666 68.3499 150.158 154.252 215 169.012C281.952 184.253 318.148 146.074 384.367 127.713C443.741 111.249 521 140.733 521 202.346V568H-91V151.667Z" fill="#1FAB89"/>
<path d="M-90.5 166.613C-90.5 104.352 -38.4195 53.5174 22.9633 63.3867C32.397 64.9035 41.4846 66.6112 49.7898 68.5288C81.961 75.9572 106.899 100.748 131.962 125.664L132.069 125.771C157.118 150.672 182.303 175.674 214.89 183.009C248.494 190.572 274.385 184.874 300.137 175.03C308.854 171.697 317.567 167.885 326.554 163.953C330.824 162.084 335.156 160.189 339.579 158.305C353.321 152.453 367.976 146.7 384.5 142.17C414.132 134.046 448.165 137.38 474.776 150.423C501.379 163.461 520.5 186.161 520.5 216.764V576.5H-90.5V166.613Z" stroke="white"/>
</svg>
