<svg width="24" height="25" viewBox="0 0 24 25" fill="none" xmlns="http://www.w3.org/2000/svg">
<g id="Group 48095905">
<path id="Vector" d="M23.8999 10.1473C23.7663 10.0138 23.7664 9.88023 23.6328 9.74671L20.9625 7.07634C20.4284 6.54226 19.6273 6.54226 19.0932 7.07634C18.5591 7.61041 18.5591 8.41153 19.0932 8.9456L19.4937 9.34616H16.0223C15.2211 9.34616 14.6871 9.88023 14.6871 10.6813C14.6871 11.4825 15.2211 12.0165 16.0223 12.0165H19.4937L19.0932 12.4171C18.5591 12.9512 18.5591 13.7523 19.0932 14.2864C19.3602 14.5534 19.7608 14.6869 20.0278 14.6869C20.2949 14.6869 20.6954 14.5534 20.9625 14.2864L23.6328 11.616C23.7664 11.4825 23.8999 11.3489 23.8999 11.2154C24.0334 10.8149 24.0334 10.5478 23.8999 10.1473Z" fill="#1FAB89"/>
<path id="Vector_2" d="M17.3574 14.6871C16.5563 14.6871 16.0223 15.2211 16.0223 16.0223V17.3574C16.0223 18.1586 15.4882 18.6926 14.6871 18.6926H13.3519V7.21001C13.3519 5.47427 12.2837 4.00556 10.815 3.47149L8.67872 2.67038H14.6871C15.4882 2.67038 16.0223 3.20445 16.0223 4.00556V5.34075C16.0223 6.14186 16.5563 6.67594 17.3574 6.67594C18.1586 6.67594 18.6926 6.14186 18.6926 5.34075V4.00556C18.6926 1.73574 16.9569 0 14.6871 0H1.33519C1.20167 0 1.06815 -1.29323e-07 0.934631 0.133519C0.801112 0.133519 0.667594 0.267038 0.667594 0.267038L0.534075 0.400556C0.400557 0.400556 0.267037 0.534075 0.267037 0.667594V0.801113C0.133519 0.801113 0 0.934631 0 1.06815V20.0278C0 20.5619 0.400556 21.096 0.801113 21.2295L9.61335 24.5675C9.88039 24.701 10.2809 24.701 10.548 24.701C11.0821 24.701 11.6161 24.5675 12.0167 24.1669C12.6843 23.6328 13.2184 22.8317 13.2184 22.0306V21.363H14.5535C16.8234 21.363 18.5591 19.6273 18.5591 17.3574V16.0223C18.6926 15.3547 18.1586 14.6871 17.3574 14.6871ZM2.67038 19.0932V3.20445L9.74687 5.87483C10.2809 6.14186 10.6815 6.67594 10.6815 7.21001V22.0306L2.67038 19.0932Z" fill="#1FAB89"/>
</g>
</svg>
