<svg width="25" height="25" viewBox="0 0 25 25" fill="none" xmlns="http://www.w3.org/2000/svg">
<g id="Group 4">
<g id="Group">
<g id="Group_2">
<path id="Vector" d="M0.537963 7.41497C1.38365 3.33777 3.98577 1.0669 8.04461 0.380893C11.045 -0.126119 14.0466 -0.13254 17.042 0.39513C21.2211 1.13128 23.7335 3.53458 24.5338 7.67342C25.1522 10.872 25.1619 14.1048 24.5241 17.3004C23.6685 21.3494 20.9993 23.8487 16.9554 24.5322C13.955 25.0391 10.9535 25.0456 7.95807 24.5179C3.77891 23.7817 1.25541 21.2585 0.455108 17.1197C-0.194779 13.8999 -0.132247 10.6468 0.537963 7.41497Z" fill="#EA4335"/>
</g>
<path id="Vector_2" fill-rule="evenodd" clip-rule="evenodd" d="M5.1366 18.313V7.80411C5.1366 7.25595 5.58102 6.81152 6.12918 6.81152H19.8333V7.87116H6.19629V18.313H5.1366ZM8.28978 9.64545L12.108 13.5652C12.3676 13.8433 12.8025 13.8611 13.0841 13.6054C13.0841 13.6054 16.4079 10.651 17.3332 9.85762C18.2584 9.06424 19.8333 9.28645 19.8333 10.4681V16.0814C19.8333 17.3139 18.8342 18.313 17.6017 18.313H7.89566V17.2534H17.5829C18.2404 17.2534 18.7736 16.7202 18.7736 16.0625V10.7017C18.7736 10.3046 18.498 10.3458 18.3246 10.5013L13.3848 14.7647C12.8943 15.2046 12.142 15.1708 11.693 14.6886L7.51544 10.3688L8.28978 9.64545Z" fill="white"/>
</g>
</g>
</svg>
