<svg width="71" height="70" viewBox="0 0 71 70" fill="none" xmlns="http://www.w3.org/2000/svg">
    <g id="Group 48095859">
        <g id="Group">
            <path id="Vector" fill-rule="evenodd" clip-rule="evenodd"
                d="M47.2163 30.7377C47.2163 30.7377 48.4665 34.4555 49.257 36.8042C49.6502 37.9754 49.4347 39.2676 48.6799 40.247L34.6835 58.4072C34.1651 59.0798 33.4008 59.519 32.5582 59.6276C31.7156 59.7362 30.8651 59.5067 30.1935 58.9891C26.0207 55.773 17.7603 49.4066 13.5875 46.1905C12.9159 45.6729 12.4774 44.9089 12.3677 44.0664C12.2581 43.2239 12.4882 42.373 13.0066 41.7004C16.5818 37.0615 24.0759 27.3381 27.003 23.5402C27.7578 22.5608 28.9526 22.0233 30.1852 22.1052C32.6578 22.2715 36.5714 22.5334 36.5714 22.5334L39.9128 18.1981L50.5577 26.4023L47.2163 30.7377Z"
                fill="#FFBE61" />
            <path id="Vector_2" d="M55.7039 21.7302L43.1235 12.0342L37.6789 19.0985L50.2593 28.7945L55.7039 21.7302Z"
                fill="#696969" />
            <path id="Vector_3" fill-rule="evenodd" clip-rule="evenodd"
                d="M45.2358 22.3008L21.891 52.5904L13.5891 46.192C12.9157 45.673 12.4774 44.9093 12.3673 44.0664C12.2587 43.2246 12.4892 42.3739 13.0076 41.7013C16.5827 37.0626 24.0769 27.339 27.004 23.5411C27.7588 22.5618 28.9522 22.0232 30.1852 22.1055C32.6571 22.2713 36.5716 22.5338 36.5716 22.5338L39.913 18.1984L45.2358 22.3008Z"
                fill="#FFD48C" />
            <path id="Vector_4" d="M44.8729 40.2993L27.9201 27.2334L16.5218 42.0226L33.4746 55.0884L44.8729 40.2993Z"
                fill="#EEEEEE" />
            <path id="Vector_5" d="M44.8749 40.3011L36.3984 33.7681L25.0001 48.5572L33.4766 55.0902L44.8749 40.3011Z"
                fill="#C4C4C4" />
            <path id="Vector_6" d="M49.4136 16.8822L43.1234 12.0342L37.6788 19.0985L43.969 23.9465L49.4136 16.8822Z"
                fill="#866a6a" />
            <path id="Vector_7" d="M45.827 14.8507L43.2838 12.8906L38.5479 19.0354L41.0911 20.9954L45.827 14.8507Z"
                fill="url(#paint0_linear_226_12953)" />
            <path id="Vector_8" d="M36.3856 36.9493L33.3248 34.5903L25.0122 45.3759L28.073 47.7349L36.3856 36.9493Z"
                fill="#EF2B4A" />
            <path id="Vector_9" d="M36.3856 36.949L34.8552 35.7695L26.5426 46.5551L28.073 47.7346L36.3856 36.949Z"
                fill="#C40926" />
            <path id="Vector_10" d="M29.5189 42.6931L31.8779 39.6323L26.4851 35.476L24.1261 38.5368L29.5189 42.6931Z"
                fill="#EF2B4A" />
            <path id="Vector_11" d="M34.912 46.8493L37.271 43.7886L31.8782 39.6323L29.5192 42.693L34.912 46.8493Z"
                fill="#C40926" />
            <path id="Vector_12" fill-rule="evenodd" clip-rule="evenodd"
                d="M40.3348 21.9786L19.0149 49.6409L14.3636 46.056C13.7245 45.5635 13.3085 44.8385 13.2044 44.0384C13.1003 43.2385 13.3195 42.4312 13.8115 41.7927C17.2059 37.3886 24.6751 27.6974 27.4542 24.0915C28.1708 23.1617 29.303 22.6499 30.4755 22.7293C32.8218 22.8863 36.9631 23.2185 36.9631 23.2185L38.8191 20.8104L40.3348 21.9786Z"
                fill="url(#paint1_linear_226_12953)" />
            <path id="Vector_13" d="M33.1667 31.2774L27.9216 27.2349L16.5233 42.024L21.7684 46.0665L33.1667 31.2774Z"
                fill="url(#paint2_linear_226_12953)" />
            <path id="Vector_14" d="M26.2874 40.2024L28.6464 37.1416L26.4849 35.4757L24.1259 38.5365L26.2874 40.2024Z"
                fill="url(#paint3_linear_226_12953)" />
        </g>
    </g>
    <defs>
        <linearGradient id="paint0_linear_226_12953" x1="44.5554" y1="13.8706" x2="40.0456" y2="19.722"
            gradientUnits="userSpaceOnUse">
            <stop stop-color="#BCBCBC" />
            <stop offset="1" stop-color="white" stop-opacity="0" />
        </linearGradient>
        <linearGradient id="paint1_linear_226_12953" x1="39.3954" y1="21.4192" x2="18.1888" y2="48.9346"
            gradientUnits="userSpaceOnUse">
            <stop stop-color="#FFF3B4" />
            <stop offset="1" stop-color="white" stop-opacity="0" />
        </linearGradient>
        <linearGradient id="paint2_linear_226_12953" x1="31.23" y1="30.0075" x2="18.1153" y2="47.0236"
            gradientUnits="userSpaceOnUse">
            <stop stop-color="white" />
            <stop offset="1" stop-color="white" stop-opacity="0" />
        </linearGradient>
        <linearGradient id="paint3_linear_226_12953" x1="29.2124" y1="34.1719" x2="25.2062" y2="39.37"
            gradientUnits="userSpaceOnUse">
            <stop stop-color="#FF4C5D" />
            <stop offset="1" stop-color="#FF001A" stop-opacity="0" />
        </linearGradient>
    </defs>
</svg>