<svg width="64" height="65" viewBox="0 0 64 65" fill="none" xmlns="http://www.w3.org/2000/svg">
<g id="Group 48095868">
<path id="Vector" d="M36.13 16.25H49.13V55.25C49.13 55.7804 48.9193 56.2891 48.5442 56.6642C48.1691 57.0393 47.6604 57.25 47.13 57.25H38.13C37.5996 57.25 37.0909 57.0393 36.7158 56.6642C36.3407 56.2891 36.13 55.7804 36.13 55.25V16.25Z" fill="#FFC32E"/>
<path id="Vector_2" d="M41.13 51.25C41.13 51.7804 41.3407 52.2891 41.7158 52.6642C42.0909 53.0393 42.5996 53.25 43.13 53.25H49.13V16.25H41.13V51.25Z" fill="#FFD473"/>
<path id="Vector_3" d="M36.13 22.25H49.13V50.25H36.13V22.25Z" fill="#F6921E"/>
<path id="Vector_4" d="M41.13 22.25H49.13V50.25H41.13V22.25Z" fill="#F99B3E"/>
<path id="Vector_5" d="M49.13 7.75H36.13C35.0254 7.75 34.13 8.64543 34.13 9.75V14.25C34.13 15.3546 35.0254 16.25 36.13 16.25H49.13C50.2346 16.25 51.13 15.3546 51.13 14.25V9.75C51.13 8.64543 50.2346 7.75 49.13 7.75Z" fill="#D6EBF2"/>
<path id="Vector_6" d="M34.13 11.25V14.25C34.13 14.7804 34.3407 15.2891 34.7158 15.6642C35.0909 16.0393 35.5996 16.25 36.13 16.25H49.13C49.6604 16.25 50.1691 16.0393 50.5442 15.6642C50.9193 15.2891 51.13 14.7804 51.13 14.25V11.25H34.13Z" fill="#BDD5DB"/>
<path id="Vector_7" d="M36.87 30.25H34.87V27.25H16.87V30.25H14.87C14.3396 30.25 13.8309 30.4607 13.4558 30.8358C13.0807 31.2109 12.87 31.7196 12.87 32.25V53.25C12.87 54.3109 13.2914 55.3283 14.0416 56.0784C14.7917 56.8286 15.8091 57.25 16.87 57.25H34.87C35.9309 57.25 36.9483 56.8286 37.6984 56.0784C38.4486 55.3283 38.87 54.3109 38.87 53.25V32.25C38.87 31.7196 38.6593 31.2109 38.2842 30.8358C37.9091 30.4607 37.4004 30.25 36.87 30.25Z" fill="#B6D99E"/>
<path id="Vector_8" d="M36.88 30.25H34.88V27.25H20.13V49.94C20.13 51.0831 20.5841 52.1793 21.3924 52.9876C22.2007 53.7959 23.2969 54.25 24.44 54.25H38.74C38.74 54.13 38.8 54 38.82 53.87C38.8561 53.6652 38.8762 53.4579 38.88 53.25V32.25C38.88 31.7196 38.6693 31.2109 38.2942 30.8358C37.9191 30.4607 37.4104 30.25 36.88 30.25Z" fill="#C8E8AF"/>
<path id="Vector_9" d="M38.87 49.05C38.87 49.05 33.25 49.25 25.25 49.25C17.25 49.25 12.87 49.05 12.87 49.05V36.25C12.87 36.25 18.25 36.45 25.25 36.45C32.25 36.45 38.87 36.25 38.87 36.25V49.05Z" fill="#7EC04F"/>
<path id="Vector_10" d="M20.13 36.41V49.22H25.26C33.26 49.22 38.88 49.02 38.88 49.02V36.25C38.88 36.25 32.26 36.45 25.26 36.45C23.41 36.45 21.68 36.43 20.13 36.41Z" fill="#94D363"/>
<path id="Vector_11" d="M34.87 18.25H16.87C15.7654 18.25 14.87 19.1454 14.87 20.25V25.25C14.87 26.3546 15.7654 27.25 16.87 27.25H34.87C35.9746 27.25 36.87 26.3546 36.87 25.25V20.25C36.87 19.1454 35.9746 18.25 34.87 18.25Z" fill="#D6EBF2"/>
<path id="Vector_12" d="M28.13 41.31H27.32V40.5C27.32 40.2348 27.2146 39.9804 27.0271 39.7929C26.8396 39.6054 26.5852 39.5 26.32 39.5H25.43C25.1648 39.5 24.9104 39.6054 24.7229 39.7929C24.5354 39.9804 24.43 40.2348 24.43 40.5V41.31H23.62C23.3548 41.31 23.1004 41.4154 22.9129 41.6029C22.7254 41.7904 22.62 42.0448 22.62 42.31V43.2C22.62 43.4652 22.7254 43.7196 22.9129 43.9071C23.1004 44.0946 23.3548 44.2 23.62 44.2H24.43V45.01C24.43 45.2752 24.5354 45.5296 24.7229 45.7171C24.9104 45.9046 25.1648 46.01 25.43 46.01H26.32C26.5852 46.01 26.8396 45.9046 27.0271 45.7171C27.2146 45.5296 27.32 45.2752 27.32 45.01V44.2H28.13C28.3952 44.2 28.6496 44.0946 28.8371 43.9071C29.0246 43.7196 29.13 43.4652 29.13 43.2V42.31C29.13 42.0448 29.0246 41.7904 28.8371 41.6029C28.6496 41.4154 28.3952 41.31 28.13 41.31Z" fill="white"/>
<path id="Vector_13" d="M14.88 22.25V25.25C14.88 25.7804 15.0907 26.2891 15.4658 26.6642C15.8409 27.0393 16.3496 27.25 16.88 27.25H34.88C35.4104 27.25 35.9191 27.0393 36.2942 26.6642C36.6693 26.2891 36.88 25.7804 36.88 25.25V22.25H14.88Z" fill="#BDD5DB"/>
</g>
</svg>
