<svg width="56" height="58" viewBox="0 0 56 58" fill="none" xmlns="http://www.w3.org/2000/svg">
<g id="Group 48095860">
<path id="Vector" d="M39.9776 2.95893C38.3092 2.10701 36.403 1.95346 34.6144 2.53285C34.6144 2.53285 34.6144 2.53285 34.6077 2.53504C32.8259 3.11224 31.3696 4.34754 30.5176 6.01587L24.7167 17.387C24.7053 17.3982 24.7097 17.4117 24.7073 17.4275C23.8935 19.1209 26.7242 21.5276 29.7133 23.0596C32.0521 24.2483 34.7591 25.0482 36.2631 24.561C36.6899 24.4227 37.0208 24.1733 37.2176 23.8101C37.2222 23.8011 37.2335 23.79 37.2381 23.781L43.048 12.4144C43.8978 10.7393 44.0513 8.83313 43.4695 7.06031C42.8969 5.26955 41.6548 3.81543 39.9776 2.95893ZM36.0093 23.1535C35.8444 23.4764 33.6393 23.5095 30.3453 21.8218C27.0467 20.1431 25.7874 18.3352 25.9455 18.0145C25.9706 17.9764 26.025 17.9364 26.1131 17.9078C26.7093 17.7147 28.746 17.8784 31.6095 19.3462C34.9103 21.0317 36.1674 22.8328 36.0093 23.1535ZM41.8192 11.787L36.8039 21.6086C35.9046 20.3578 34.1004 19.0633 32.2415 18.1084C30.3781 17.1625 28.2716 16.46 26.7311 16.465L31.7465 6.64336C32.4357 5.30471 33.6039 4.31244 35.0334 3.84937C35.0402 3.84717 35.0402 3.84717 35.0402 3.84717C36.4765 3.38191 38.0046 3.50072 39.3501 4.18775C40.6977 4.88156 41.6967 6.0476 42.1552 7.48607C42.6251 8.91337 42.4995 10.4437 41.8192 11.787Z" fill="#2C2E63"/>
<path id="Vector_2" d="M42.1552 7.4865C42.625 8.91381 42.4994 10.4442 41.8192 11.7874L36.8038 21.609C35.9046 20.3582 34.1004 19.0637 32.2415 18.1089C30.378 17.1629 28.2715 16.4605 26.7311 16.4654L31.7464 6.6438C32.4357 5.30514 33.6039 4.31287 35.0334 3.8498C35.0402 3.84761 35.0402 3.84761 35.0402 3.84761C36.4764 3.38234 38.0046 3.50115 39.35 4.18818C40.6976 4.88199 41.6967 6.04804 42.1552 7.4865Z" fill="#EDC35E"/>
<path id="Vector_3" d="M36.0092 23.1535C35.8443 23.4765 33.6393 23.5096 30.3453 21.8218C27.0467 20.1431 25.7873 18.3352 25.9454 18.0145C25.9705 17.9765 26.0249 17.9364 26.113 17.9079C26.7092 17.7147 28.7459 17.8784 31.6094 19.3463C34.9102 21.0318 36.1673 22.8328 36.0092 23.1535Z" fill="#FFDC7C"/>
<path id="Vector_4" d="M22.5305 18.1253C22.5215 18.1208 22.5171 18.1072 22.5013 18.1048L12.3389 12.9154C10.6706 12.0635 8.7779 11.9056 7.00288 12.4806L6.96223 12.4937C5.18722 13.0687 3.73987 14.3086 2.88795 15.9769C1.12456 19.4302 2.49164 23.6735 5.9449 25.4369L16.1073 30.6263C16.1163 30.6308 16.1321 30.6332 16.141 30.6378C16.5134 30.8166 16.9277 30.8246 17.3545 30.6864C18.8585 30.1992 20.5891 27.9617 21.7799 25.6297C22.5793 24.0532 23.1355 22.4657 23.3381 21.15C23.643 19.1797 23.0752 18.4205 22.5305 18.1253ZM15.1921 28.6096L6.57239 24.208C3.80081 22.7927 2.6969 19.385 4.11678 16.6044C4.79923 15.268 5.96527 14.2689 7.39477 13.8059L7.42187 13.7971C8.85137 13.334 10.3749 13.4618 11.7114 14.1442L20.3289 18.5391C19.0781 19.4383 17.7904 21.2403 16.8355 23.0992C16.0362 24.6756 15.48 26.2631 15.2706 27.5811C15.211 27.9747 15.1924 28.3101 15.1921 28.6096ZM20.5489 24.9954C18.8634 28.2962 17.0555 29.5555 16.7348 29.3974C16.4187 29.2303 16.381 27.0342 18.0666 23.7335C19.5322 20.8632 21.0862 19.5364 21.6756 19.3455C21.7636 19.3169 21.8312 19.3175 21.8739 19.3336C22.1968 19.4985 22.2366 21.7014 20.5489 24.9954Z" fill="#2C2E63"/>
<path id="Vector_5" d="M20.5489 24.9957C18.8633 28.2964 17.0555 29.5558 16.7348 29.3977C16.4187 29.2306 16.381 27.0345 18.0665 23.7337C19.5322 20.8635 21.0861 19.5367 21.6755 19.3457C21.7636 19.3172 21.8312 19.3178 21.8738 19.3339C22.1967 19.4988 22.2366 21.7017 20.5489 24.9957Z" fill="#D7E9F2"/>
<path id="Vector_6" d="M20.3288 18.5393C19.078 19.4386 17.7903 21.2406 16.8354 23.0995C16.0361 24.6759 15.4799 26.2634 15.2705 27.5814C15.2109 27.975 15.1923 28.3104 15.192 28.6099L6.57227 24.2083C3.80069 22.793 2.69679 19.3852 4.11666 16.6047C4.79911 15.2682 5.96515 14.2692 7.39465 13.8061L7.42175 13.7973C8.85125 13.3343 10.3748 13.4621 11.7113 14.1445L20.3288 18.5393Z" fill="#B6D9E6"/>
<path id="Vector_7" d="M42.1551 7.48651C42.625 8.91381 42.4994 10.4442 41.8192 11.7874L41.0543 13.2853C41.7345 11.9421 41.8601 10.4117 41.3903 8.98442C40.9318 7.54595 39.9327 6.37991 38.5851 5.6861C37.2397 4.99906 35.7115 4.88026 34.2752 5.34552C34.2752 5.34552 34.2752 5.34552 34.2685 5.34772C32.839 5.81079 31.6707 6.80306 30.9815 8.14171L31.7464 6.6438C32.4356 5.30515 33.6039 4.31288 35.0334 3.84981C35.0401 3.84761 35.0401 3.84761 35.0401 3.84761C36.4764 3.38235 38.0046 3.50116 39.35 4.18819C40.6976 4.882 41.6967 6.04804 42.1551 7.48651Z" fill="#E3B349"/>
<path id="Vector_8" d="M13.5052 15.0606C12.1687 14.3781 10.6451 14.2503 9.21565 14.7134L9.18855 14.7222C7.75906 15.1852 6.59301 16.1843 5.91056 17.5207C4.49069 20.3013 5.59459 23.709 8.36617 25.1243L6.57227 24.2083C3.80069 22.793 2.69678 19.3852 4.11666 16.6047C4.79911 15.2682 5.96515 14.2692 7.39465 13.8061L7.42175 13.7973C8.85125 13.3343 10.3748 13.4621 11.7113 14.1445L13.5052 15.0606Z" fill="#A0C3D8"/>
<path id="Vector_9" d="M26.6037 24.2989C25.3978 24.6896 24.7337 25.9902 25.1243 27.1961C25.515 28.402 26.8134 29.0594 28.0193 28.6687C29.2184 28.2803 29.8848 26.9865 29.4941 25.7806C29.1035 24.5746 27.8029 23.9105 26.6037 24.2989ZM27.5935 27.3544C27.1125 27.5102 26.5945 27.2513 26.4387 26.7703C26.2828 26.2893 26.5485 25.7691 27.0295 25.6133C27.5038 25.4596 28.024 25.7253 28.1798 26.2063C28.3356 26.6873 28.0678 27.2008 27.5935 27.3544Z" fill="#2C2E63"/>
<path id="Vector_10" d="M28.1799 26.2064C28.3357 26.6874 28.0679 27.2009 27.5936 27.3545C27.1126 27.5103 26.5946 27.2515 26.4387 26.7704C26.2829 26.2894 26.5486 25.7692 27.0296 25.6134C27.5038 25.4598 28.0241 25.7254 28.1799 26.2064Z" fill="#F26E61"/>
<path id="Vector_11" d="M23.3755 30.5326C22.1764 30.921 21.5123 32.2216 21.9029 33.4275C22.2914 34.6267 23.5919 35.2908 24.7911 34.9024C25.997 34.5117 26.6611 33.2111 26.2727 32.012C25.882 30.8061 24.5815 30.1419 23.3755 30.5326ZM24.3653 33.588C23.8911 33.7417 23.3708 33.476 23.2172 33.0018C23.0614 32.5208 23.3271 32.0005 23.8013 31.8469C24.2823 31.6911 24.8025 31.9567 24.9584 32.4378C25.112 32.912 24.8463 33.4322 24.3653 33.588Z" fill="#2C2E63"/>
<path id="Vector_12" d="M24.9585 32.4379C25.1121 32.9121 24.8464 33.4323 24.3654 33.5882C23.8912 33.7418 23.3709 33.4761 23.2173 33.0019C23.0615 32.5209 23.3271 32.0006 23.8014 31.847C24.2824 31.6912 24.8026 31.9569 24.9585 32.4379Z" fill="#FFE5AB"/>
<path id="Vector_13" d="M27.8541 36.2008C26.6482 36.5914 25.9819 37.8852 26.3725 39.0912C26.7632 40.2971 28.0637 40.9612 29.2697 40.5706C30.4756 40.1799 31.1329 38.8816 30.7423 37.6756C30.3516 36.4697 29.06 35.8102 27.8541 36.2008ZM28.8439 39.2563C28.3629 39.4121 27.8427 39.1464 27.6868 38.6654C27.531 38.1844 27.7989 37.6709 28.2799 37.5151C28.7609 37.3593 29.2722 37.6204 29.428 38.1014C29.5838 38.5824 29.3249 39.1004 28.8439 39.2563Z" fill="#2C2E63"/>
<path id="Vector_14" d="M29.4281 38.1015C29.5839 38.5825 29.3251 39.1006 28.844 39.2564C28.363 39.4122 27.8428 39.1465 27.687 38.6655C27.5312 38.1845 27.799 37.6711 28.28 37.5152C28.761 37.3594 29.2723 37.6205 29.4281 38.1015Z" fill="#F26E61"/>
<path id="Vector_15" d="M32.1436 29.3839C30.9377 29.7745 30.2714 31.0684 30.662 32.2743C31.0526 33.4802 32.351 34.1376 33.557 33.7469C34.7561 33.3585 35.4224 32.0647 35.0318 30.8587C34.6411 29.6528 33.3428 28.9955 32.1436 29.3839ZM33.1334 32.4394C32.6524 32.5952 32.1321 32.3295 31.9763 31.8485C31.8205 31.3675 32.0884 30.854 32.5694 30.6982C33.0436 30.5446 33.5616 30.8035 33.7175 31.2845C33.8733 31.7655 33.6076 32.2857 33.1334 32.4394Z" fill="#2C2E63"/>
<path id="Vector_16" d="M33.7176 31.2846C33.8734 31.7656 33.6078 32.2859 33.1335 32.4395C32.6525 32.5953 32.1323 32.3296 31.9765 31.8486C31.8207 31.3676 32.0885 30.8542 32.5695 30.6983C33.0438 30.5447 33.5618 30.8036 33.7176 31.2846Z" fill="#F0D39A"/>
<path id="Vector_17" d="M32.8683 46.1798C31.6623 46.5704 30.996 47.8643 31.3867 49.0702C31.7773 50.2761 33.0779 50.9402 34.2838 50.5496C35.4897 50.1589 36.1471 48.8606 35.7565 47.6546C35.3658 46.4487 34.0742 45.7892 32.8683 46.1798ZM33.8581 49.2353C33.377 49.3911 32.8568 49.1254 32.701 48.6444C32.5452 48.1634 32.813 47.6499 33.294 47.4941C33.7751 47.3383 34.2863 47.5994 34.4421 48.0804C34.598 48.5614 34.3391 49.0794 33.8581 49.2353Z" fill="#2C2E63"/>
<path id="Vector_18" d="M34.4422 48.0805C34.598 48.5615 34.3391 49.0796 33.8581 49.2354C33.3771 49.3912 32.8568 49.1255 32.701 48.6445C32.5452 48.1635 32.813 47.6501 33.2941 47.4942C33.7751 47.3384 34.2863 47.5995 34.4422 48.0805Z" fill="#F26E61"/>
<path id="Vector_19" d="M35.8973 38.4986C34.6913 38.8893 34.025 40.1831 34.4157 41.389C34.8063 42.595 36.1069 43.2591 37.3128 42.8684C38.5187 42.4778 39.1761 41.1794 38.7854 39.9735C38.3948 38.7676 37.1032 38.108 35.8973 38.4986ZM36.8871 41.5541C36.406 41.7099 35.8858 41.4443 35.73 40.9633C35.5742 40.4823 35.842 39.9688 36.323 39.813C36.804 39.6572 37.3153 39.9182 37.4711 40.3992C37.6269 40.8803 37.3681 41.3983 36.8871 41.5541Z" fill="#2C2E63"/>
<path id="Vector_20" d="M37.471 40.3994C37.6268 40.8804 37.368 41.3984 36.887 41.5542C36.4059 41.71 35.8857 41.4444 35.7299 40.9634C35.5741 40.4824 35.8419 39.9689 36.3229 39.8131C36.8039 39.6573 37.3152 39.9183 37.471 40.3994Z" fill="#F0D39A"/>
</g>
</svg>
