<svg width="83" height="107" viewBox="0 0 83 107" fill="none" xmlns="http://www.w3.org/2000/svg">
<g id="Layer 2">
<g id="Layer 1">
<path id="Vector" d="M44.733 107C44.3038 107 43.8797 107 43.4712 106.953H37.2035C36.8002 106.984 36.3865 107 35.9676 107C35.5487 107 35.1092 107 34.6541 106.953H4.52591V100.965C4.48373 98.3577 5.05968 95.7775 6.20659 93.4356C5.03288 91.9027 4.01431 90.257 3.16585 88.5228C2.8142 87.804 2.49358 87.0749 2.20398 86.3457C0.776696 82.7775 -2.05719 73.6449 2.42635 65.9655C4.43024 62.5096 7.60598 59.8861 11.3779 58.5705C8.00731 54.8073 5.62123 50.2679 4.43283 45.3577C3.29833 40.3783 3.527 35.1851 5.09476 30.3247C5.77815 28.2819 6.78374 26.3615 8.07344 24.6362C7.85625 21.6524 7.85625 17.505 10.142 13.7764C11.7658 10.9839 14.3204 9.38597 16.0166 8.32584L16.3269 8.12933C17.3678 7.49271 18.2785 6.66445 19.0108 5.68846C19.7078 4.72257 20.5129 3.83945 21.4103 3.05626L21.5499 2.85975L22.4963 2.19782C24.4986 0.794963 26.8777 0.0289714 29.3224 0C31.1432 0.0088974 32.9356 0.452114 34.5507 1.29283C36.8795 0.782007 39.2563 0.521959 41.6405 0.517133C46.9942 0.572454 52.2119 2.20974 56.6374 5.22304C58.6989 4.26176 60.9409 3.74885 63.2153 3.71819C65.0539 3.72616 66.8719 4.10542 68.5603 4.83321C70.2487 5.56099 71.7727 6.62231 73.0409 7.95351C75.0008 9.82036 75.6265 12.0906 76.0247 13.492L76.0558 13.6006C76.4326 14.852 77.0433 16.0207 77.8554 17.0447L78.0933 17.3498C79.4533 19.1081 81.3098 21.4869 81.8632 24.7448C82.8974 30.0299 80.3583 34.6634 78.9879 37.156C77.7274 39.4335 76.8602 41.9074 76.4229 44.4734V44.6286C76.2729 45.6628 75.823 48.7656 72.8495 50.5446C72.7306 50.617 72.6065 50.6842 72.4824 50.7514C72.2755 51.16 72.0583 51.5582 71.836 51.9564C70.5738 54.16 69.053 56.2051 67.3059 58.0482C69.5882 58.5255 71.7443 59.4786 73.6334 60.8455C75.5225 62.2124 77.1021 63.9623 78.2691 65.981C82.4062 73.0502 80.591 82.2655 77.5348 88.5332C76.6838 90.2688 75.6636 91.9161 74.4888 93.4511C75.6357 95.793 76.2117 98.3733 76.1695 100.981V106.969H46.0775C45.6173 106.984 45.1674 107 44.733 107Z" fill="white"/>
<path id="Vector_2" d="M66.6131 48.9781C67.2477 47.8596 67.7841 46.6882 68.2162 45.4771C68.4679 45.5674 68.7353 45.6052 69.0021 45.5883C69.2689 45.5714 69.5294 45.5001 69.7676 45.3788C70.3572 45.0272 70.3985 44.0963 70.5071 43.4603C71.0541 40.236 72.1379 37.1263 73.7134 34.2605C75.1096 31.7213 76.5731 28.8099 75.9474 25.8053C75.6475 23.8764 74.2357 22.1854 73.0825 20.6754C71.8035 19.0463 70.8486 17.1874 70.2693 15.1989C69.9745 14.1647 69.6694 12.9804 68.8368 12.2254C64.3377 7.6126 59.0113 10.3017 56.1774 12.3599C51.9679 8.73995 46.9776 6.48525 41.6253 6.48525C38.8611 6.50946 36.1153 6.93805 33.4752 7.75739C31.4946 6.025 28.8986 5.12001 25.8579 7.15235C25.8398 7.1657 25.8256 7.18352 25.8165 7.20406C25.0578 7.76482 24.3942 8.44406 23.8514 9.21571C22.6793 10.811 21.2116 12.1663 19.5282 13.208C18.0233 14.1543 16.234 15.1938 15.2928 16.8589C13.6897 19.4032 13.8862 22.6508 14.1552 25.5313C14.1914 25.9294 14.2224 26.3276 14.2431 26.7258L13.9742 26.9792C12.505 28.4684 11.4036 30.2799 10.7576 32.2695C9.54931 36.0831 9.38326 40.1504 10.2767 44.0498C11.6884 50.3485 16.3737 56.3679 22.088 59.8534C21.3156 61.2852 20.625 62.7597 20.0194 64.2697L19.4713 64.1249C18.0315 63.7457 16.5324 63.6457 15.055 63.8301C13.5041 64.0787 12.0288 64.6724 10.7381 65.5675C9.44746 66.4625 8.3743 67.6361 7.59791 69.0015C5.01224 73.3971 5.87586 79.4217 7.76339 84.1483C8.00644 84.7585 8.28052 85.3429 8.54426 85.9065C9.93852 88.7483 11.9072 91.2699 14.3258 93.3119C12.6555 94.1755 10.5145 96.2182 10.5145 100.965H33.7855V100.841C34.9621 101.015 36.156 101.038 37.3382 100.909C37.4365 100.909 37.5296 100.878 37.6278 100.862C38.5173 100.924 39.4274 100.95 40.3428 100.95C41.2581 100.95 42.1683 100.924 43.0577 100.862C43.1508 100.862 43.2439 100.898 43.3421 100.909C44.4303 101.035 45.53 101.024 46.6156 100.878C46.6156 100.929 46.6156 100.95 46.6156 100.95H70.171C70.171 96.1975 68.0249 94.1652 66.3546 93.2964C67.0227 92.7443 67.6598 92.1556 68.2628 91.533C69.837 89.8607 71.1498 87.9604 72.1568 85.8962C74.546 80.999 75.9991 73.9556 73.1032 68.9911C72.3268 67.6257 71.2536 66.4522 69.9629 65.5571C68.6722 64.6621 67.197 64.0683 65.6461 63.8198C64.1667 63.6347 62.6655 63.7365 61.2246 64.1197C61.0436 64.1611 60.8678 64.2128 60.7075 64.2645C59.8748 62.1961 58.8824 60.1956 57.7391 58.2813C61.3923 55.9269 64.4338 52.7383 66.6131 48.9781Z" fill="white"/>
<path id="Vector_3" d="M42.8612 94.0099C42.686 96.0561 41.7919 97.9742 40.3376 99.4243C39.589 100.157 38.6473 100.661 37.6226 100.877C37.5244 100.877 37.4313 100.914 37.333 100.924C36.0483 101.064 34.7506 101.029 33.4752 100.821C31.8204 100.588 30.1449 100.184 28.671 99.8535L28.4073 99.7966L28.2367 99.7604C27.2024 99.5329 26.1681 99.2433 25.1339 98.9588C22.2471 98.1205 19.4929 96.8792 16.9528 95.2717C16.0266 94.6794 15.142 94.0246 14.3051 93.3118C11.8848 91.2652 9.91599 88.7382 8.52354 85.8909C8.24946 85.3272 8.00641 84.7429 7.74267 84.1326C5.85514 79.406 5.01221 73.3814 7.57719 68.9858C8.35358 67.6204 9.42674 66.4469 10.7174 65.5518C12.0081 64.6568 13.4834 64.063 15.0342 63.8145C16.5117 63.63 18.0108 63.7301 19.4506 64.1092C21.6764 64.7354 23.8255 65.6078 25.8578 66.7104L26.7163 67.15C29.4519 68.5566 32.1669 70.1028 34.3647 72.3575C34.6594 72.6575 34.9439 72.9781 35.2231 73.2987C36.7705 75.1988 38.0462 77.3047 39.0137 79.556C39.4998 80.6213 39.9445 81.7125 40.3582 82.8139C40.6375 83.5431 40.8754 84.2774 41.1598 85.0066C41.3356 85.5237 41.5115 86.0047 41.6769 86.5063C42.463 88.9471 43.0991 91.4552 42.8612 94.0099Z" fill="#E88643"/>
<path id="Vector_4" d="M28.7379 99.0357C28.7379 99.346 28.6914 99.6201 28.6707 99.8528C28.6138 100.577 28.5724 100.965 28.5724 100.965H10.5142C10.5142 96.2174 12.6551 94.1747 14.3254 93.3111C14.928 92.9844 15.5852 92.7706 16.2647 92.6802C13.3274 82.2755 15.0287 78.5625 16.4043 77.2489C16.7309 76.9026 17.1485 76.6553 17.6092 76.5353C17.6364 76.4886 17.6606 76.4403 17.6816 76.3905C22.5478 66.3995 28.7534 70.8934 28.7534 70.8934C28.9603 73.0188 29.0999 75.1701 29.193 77.2955C29.4635 84.5449 29.3116 91.804 28.7379 99.0357ZM65.9715 74.896C65.9715 74.896 68.7123 77.4351 64.4201 92.6802C64.4201 92.6802 70.1758 93.1973 70.1758 100.954H52.102C52.102 100.954 50.5196 85.3214 51.921 70.8934C51.921 70.9037 61.0898 64.7136 65.9715 74.896Z" fill="#E88643"/>
<path id="Vector_5" d="M72.1306 85.8912C71.132 87.9555 69.828 89.8575 68.2625 91.5331C67.6684 92.162 67.04 92.7577 66.3801 93.3172C65.417 94.1328 64.3936 94.8744 63.3187 95.5357C60.4384 97.2759 57.3127 98.5729 54.0465 99.3832C53.4639 99.5383 52.8795 99.6779 52.2934 99.8021L52.0297 99.8589H51.9935C50.2279 100.294 48.4415 100.639 46.6411 100.893C45.5556 101.04 44.4559 101.051 43.3677 100.924C43.2694 100.924 43.1763 100.893 43.0833 100.878C42.0476 100.667 41.0944 100.162 40.3373 99.4245C38.8811 97.9758 37.9867 96.057 37.8137 94.0102C37.5758 91.4607 38.2119 88.9371 39.0186 86.5014C39.1841 85.9843 39.3599 85.4981 39.5357 85.0017C39.7943 84.2725 40.0529 83.5382 40.3373 82.8091C40.7562 81.7024 41.2009 80.6061 41.687 79.5356C42.6546 77.2891 43.9304 75.1883 45.4776 73.2938C45.7465 72.9732 46.0361 72.6526 46.3309 72.3526C48.7614 69.86 51.8176 68.2156 54.8429 66.7107C56.8572 65.612 58.9892 64.7446 61.1984 64.125C62.6393 63.7418 64.1405 63.64 65.6199 63.8251C67.1708 64.0737 68.6461 64.6674 69.9368 65.5624C71.2274 66.4575 72.3006 67.6311 73.077 68.9964C75.9729 73.9506 74.5198 80.9939 72.1306 85.8912Z" fill="#E88643"/>
<path id="Vector_6" d="M63.7636 79.3803C63.7636 84.9912 62.3001 89.3247 59.792 92.5568C58.1507 94.6399 56.0639 96.3291 53.6847 97.5006C53.0744 97.8109 52.4384 98.0953 51.7868 98.3487L51.6523 98.4056C49.9783 99.0364 48.2461 99.5006 46.481 99.7915C45.3255 99.9881 44.1603 100.123 42.9904 100.195C42.1216 100.257 41.2373 100.283 40.3426 100.283C39.448 100.283 38.5637 100.283 37.6949 100.195C36.3304 100.109 34.9727 99.9365 33.6302 99.6777C32.0622 99.3877 30.5235 98.9568 29.0329 98.3901C28.8312 98.3177 28.6347 98.2349 28.4382 98.1522C27.4307 97.7479 26.4571 97.2637 25.5268 96.7042C23.6849 95.5859 22.0693 94.1317 20.764 92.4172C18.3283 89.2006 16.9165 84.9188 16.9165 79.401C16.9165 78.6666 16.9165 77.922 16.9889 77.1669C17.0888 75.797 17.2614 74.4333 17.506 73.0816C17.7857 71.4809 18.1569 69.8976 18.6179 68.3395C19.0161 66.9898 19.4763 65.6504 20.0038 64.342C24.0219 54.2993 31.6238 45.9062 40.3375 45.9062C49.0512 45.9062 56.653 54.2838 60.6918 64.342C61.1004 65.3763 61.4779 66.4106 61.814 67.4448C62.2122 68.6963 62.5535 69.9633 62.8483 71.2354C62.9827 71.8353 63.1017 72.4352 63.2051 73.035C63.5738 75.1301 63.7606 77.2531 63.7636 79.3803Z" fill="#FFA75F"/>
<path id="Vector_7" d="M56.9116 71.7568C54.3259 75.8112 53.7778 83.987 53.2607 88.7602C52.8935 92.1422 52.4901 95.5605 52.0712 98.9839C52.0712 99.2166 52.0144 99.4545 51.9885 99.6872C51.9885 99.7441 51.9885 99.8061 51.9885 99.863C51.942 100.23 51.8954 100.597 51.854 100.965H46.6103C46.6103 100.965 46.6103 100.965 46.6103 100.892C45.5247 101.039 44.425 101.049 43.3369 100.923C43.2386 100.923 43.1455 100.892 43.0524 100.877C42.163 100.939 41.258 100.965 40.3375 100.965C39.417 100.965 38.512 100.939 37.6225 100.877C37.5243 100.877 37.4312 100.913 37.333 100.923C36.0482 101.063 34.7505 101.028 33.4751 100.82V100.965H28.371C28.3297 100.566 28.2831 100.163 28.2366 99.7596C28.2056 99.439 28.1642 99.1132 28.128 98.7925C27.0937 90.3374 25.3096 79.8448 22.6309 71.7568C24.6797 73.1418 26.8818 74.2854 29.1933 75.1647C29.9431 75.4543 30.7136 75.7232 31.4893 75.9663C33.9223 76.7506 36.4424 77.2334 38.993 77.4039C39.5515 77.435 40.0996 77.4453 40.6323 77.435C40.9839 77.435 41.3407 77.4091 41.6665 77.3884C44.0279 77.25 46.3618 76.8103 48.6116 76.0801C49.5921 75.7705 50.5539 75.4045 51.4921 74.9837C53.4158 74.1185 55.2342 73.0358 56.9116 71.7568Z" fill="#FFE6D4"/>
<path id="Vector_8" d="M33.7853 100.965H15.7271C15.7271 98.3123 16.3993 96.5024 17.2784 95.2767C18.0901 94.1404 19.2503 93.2997 20.5829 92.8824C20.8758 92.7881 21.1772 92.7223 21.4827 92.6859C21.1569 87.8042 19.1918 80.5126 17.9869 76.4066C17.9559 76.2928 17.9197 76.179 17.8887 76.0704C17.5857 75.0666 17.5519 74.0007 17.7906 72.9796C18.0293 71.9586 18.5321 71.0182 19.2487 70.2527C24.8027 64.4918 30.9152 71.137 30.9152 71.137C31.0187 71.8661 31.1118 72.5901 31.1997 73.2986C31.4169 74.9603 31.6151 76.5669 31.7944 78.1183C33.1648 89.8003 33.6457 98.1055 33.7595 100.355C33.7595 100.562 33.7595 100.717 33.7595 100.82L33.7853 100.965ZM64.9788 100.965H46.9153C46.9153 100.965 46.9153 100.965 46.9153 100.893C46.9153 100.82 46.9153 100.67 46.9153 100.464C47.0188 98.3951 47.4894 90.0382 48.8701 78.2269C49.0563 76.6444 49.258 74.9948 49.4803 73.2934C49.5682 72.5849 49.6665 71.861 49.7647 71.1318C49.7647 71.1318 55.1533 65.2675 60.4125 69.327C60.78 69.6073 61.1258 69.915 61.4468 70.2475C62.1634 71.013 62.6662 71.9534 62.9049 72.9745C63.1436 73.9955 63.1098 75.0614 62.8068 76.0652C61.6123 80.0989 59.5437 87.6594 59.1869 92.6807C59.6557 92.7422 60.1145 92.8639 60.5521 93.0427C61.789 93.5421 62.8418 94.4107 63.567 95.5301C64.3944 96.7557 64.9788 98.4933 64.9788 100.965Z" fill="#FFA75F"/>
<path id="Vector_9" d="M40.3373 88.6731L49.1286 75.9568C49.1286 75.9568 55.2618 63.7317 46.8635 53.477L40.3373 51.124L33.7697 53.477C25.5939 65.0452 31.5461 75.9723 31.5461 75.9723L40.3373 88.6731Z" fill="#FFE6D4"/>
<path id="Vector_10" d="M25.8577 7.151C32.2184 2.89499 36.6451 11.5104 37.5707 13.6927C37.5985 13.7547 37.6125 13.8219 37.6119 13.8899C37.6112 13.9578 37.5959 14.0247 37.5669 14.0861C37.5379 14.1475 37.496 14.202 37.444 14.2456C37.392 14.2893 37.3311 14.3212 37.2656 14.3391C35.3626 14.7322 28.795 16.3249 25.7491 20.0586C22.5739 23.9526 25.6043 12.6688 25.6043 12.6688L27.9986 9.49361C27.9986 9.49361 25.1906 7.6009 25.8577 7.151Z" fill="#915829"/>
<path id="Vector_11" d="M29.1674 8.82794C29.2172 9.48017 29.1929 10.1359 29.095 10.7827C29.0174 11.8635 28.8726 12.9443 28.6968 14.0148C28.3389 16.1504 27.8203 18.2559 27.1454 20.3135C25.9819 23.9432 24.3309 27.3982 22.2378 30.5837C21.1999 32.144 20.0525 33.6284 18.804 35.0259C17.899 36.0602 16.42 37.7874 15.0807 37.9994C14.7846 38.029 14.486 37.9812 14.214 37.8606C13.9421 37.74 13.7061 37.5509 13.5293 37.3116C13.1569 36.7635 13.4517 35.8843 13.5913 35.2431C14.2788 32.0509 14.4758 28.7726 14.1757 25.521C13.9068 22.6406 13.7103 19.393 15.3134 16.8487C16.2546 15.1835 18.0438 14.1441 19.5487 13.1977C21.2321 12.1561 22.6998 10.8008 23.8719 9.20544C24.5287 8.2746 25.6612 7.03348 26.7679 6.7232C27.6211 6.49049 28.1745 7.02314 28.733 7.75747C28.9681 8.07063 29.1178 8.43951 29.1674 8.82794Z" fill="#915829"/>
<path id="Vector_12" d="M69.457 38.7845C69.3813 42.3754 68.4032 45.8895 66.6128 49.0031C63.029 55.2914 56.7872 59.8629 49.9145 61.9314H49.8473C49.0147 62.1796 48.1925 62.402 47.3702 62.5985C44.631 63.2775 41.82 63.6247 38.9979 63.6328C34.6281 63.6328 30.129 63.307 25.992 61.7814C18.6176 59.0303 12.0035 51.7128 10.2763 44.0489C9.38289 40.1496 9.54894 36.0822 10.7572 32.2686C11.4022 30.2808 12.4997 28.4699 13.9634 26.9784C15.8096 25.158 18.2453 24.8116 18.7521 22.3604C21.1878 10.6576 33.6972 6.48438 41.6249 6.48438C49.5525 6.48438 56.6735 11.4489 61.6483 18.3422C66.2715 24.3668 69.6121 31.5446 69.457 38.7845Z" fill="#FFA75F"/>
<path id="Vector_13" d="M46.5504 28.9219C50.6377 27.5194 52.9808 23.5552 51.7841 20.0676C50.5873 16.5801 46.3038 14.8899 42.2165 16.2925C38.1293 17.695 35.7861 21.6592 36.9829 25.1468C38.1796 28.6343 42.4632 30.3245 46.5504 28.9219Z" fill="#FFE6D4"/>
<path id="Vector_14" d="M48.567 24.5848C50.244 21.037 49.7301 17.2753 47.4191 16.1829C45.1081 15.0905 41.8752 17.0811 40.1982 20.6289C38.5211 24.1767 39.035 27.9383 41.346 29.0307C43.657 30.1231 46.8899 28.1326 48.567 24.5848Z" fill="#424242"/>
<path id="Vector_15" d="M49.5261 24.6757C49.7586 23.851 48.7013 22.8314 47.1646 22.3983C45.6279 21.9652 44.1938 22.2827 43.9614 23.1074C43.7289 23.932 44.7862 24.9517 46.3229 25.3848C47.8596 25.8179 49.2937 25.5004 49.5261 24.6757Z" fill="#FFE6D4"/>
<path id="Vector_16" d="M33.0756 23.2186C35.2963 20.3506 35.1504 16.5189 32.7499 14.6602C30.3494 12.8016 26.6032 13.6198 24.3826 16.4877C22.162 19.3557 22.3078 23.1874 24.7083 25.0461C27.1089 26.9048 30.855 26.0866 33.0756 23.2186Z" fill="#FFE6D4"/>
<path id="Vector_17" d="M31.8087 21.3981C33.3897 18.2131 33.2591 14.9301 31.517 14.0653C29.7749 13.2005 27.0809 15.0814 25.4999 18.2663C23.9189 21.4513 24.0495 24.7343 25.7916 25.5991C27.5337 26.4639 30.2277 24.583 31.8087 21.3981Z" fill="#424242"/>
<path id="Vector_18" d="M32.3813 20.7145C32.3914 19.9548 31.492 19.327 30.3726 19.3121C29.2531 19.2973 28.3374 19.901 28.3273 20.6607C28.3173 21.4203 29.2166 22.0482 30.3361 22.063C31.4555 22.0779 32.3712 21.4741 32.3813 20.7145Z" fill="#FFE6D4"/>
<path id="Vector_19" d="M69.0178 12.4112C63.4172 6.41761 56.4411 12.0078 54.6518 13.6368C54.6001 13.684 54.5599 13.7424 54.5341 13.8076C54.5084 13.8727 54.4979 13.9429 54.5034 14.0127C54.5089 14.0825 54.5302 14.1501 54.5658 14.2105C54.6014 14.2708 54.6503 14.3222 54.7087 14.3608C56.4825 15.514 62.4036 20.0492 63.5 25.7377C64.4929 30.8366 67.1509 17.6963 67.1509 17.6963L65.9719 13.7764C65.9719 13.7764 69.5142 12.9283 69.0178 12.4112Z" fill="#915829"/>
<path id="Vector_20" d="M65.0565 12.6285C64.7528 13.2154 64.5219 13.8371 64.3687 14.4798C64.0274 15.5141 63.7482 16.5484 63.5103 17.624C63.0239 19.7341 62.7109 21.8805 62.5743 24.0416C62.3636 27.9085 62.7119 31.7856 63.6085 35.553C64.0514 37.4348 64.6339 39.2809 65.3513 41.076C65.8684 42.3843 66.6803 44.6132 67.9369 45.363C68.2214 45.5134 68.5383 45.592 68.86 45.592C69.1818 45.592 69.4987 45.5134 69.7831 45.363C70.3726 45.0114 70.414 44.0805 70.5226 43.4445C71.0696 40.2202 72.1534 37.1105 73.7288 34.2447C75.1251 31.7056 76.5886 28.7941 75.9629 25.7895C75.6629 23.8606 74.2511 22.1696 73.0979 20.6596C71.819 19.0306 70.8641 17.1716 70.2847 15.1831C69.9641 14.0506 69.6383 12.763 68.6402 12.0235C68.2482 11.7431 67.7866 11.5759 67.3059 11.5404C66.8252 11.5048 66.344 11.6022 65.915 11.8218C65.561 12.008 65.2643 12.2868 65.0565 12.6285Z" fill="#915829"/>
<path id="Vector_21" d="M47.3702 62.5732C44.631 63.2522 41.82 63.5994 38.9979 63.6075C34.6281 63.6075 30.129 63.2817 25.992 61.7561C18.6176 59.0308 12.0035 51.7134 10.2763 44.0495C9.38289 40.1501 9.54894 36.0828 10.7572 32.2692C13.0326 30.1127 16.1044 29.5749 17.9971 29.3577C19.9485 29.1324 21.9224 29.1934 23.8562 29.5387C25.8437 29.8939 27.7722 30.524 29.586 31.4108C37.6171 35.2996 43.8279 44.0133 46.4911 54.6249C46.6101 55.0903 46.7187 55.5557 46.8221 56.0263C47.4405 58.15 47.6269 60.3762 47.3702 62.5732Z" fill="#FFE6D4"/>
<path id="Vector_22" d="M31.2514 31.1423C30.3929 32.4454 26.4524 33.49 23.1065 32.4609C19.7607 31.4318 18.2713 28.7272 19.1349 27.4086C19.9985 26.0899 22.8583 26.6949 26.2041 27.724C29.55 28.7531 32.1046 29.8391 31.2514 31.1423Z" fill="#424242"/>
</g>
</g>
</svg>
