<svg width="12" height="11" viewBox="0 0 12 11" fill="none" xmlns="http://www.w3.org/2000/svg">
<g id="Group">
<path id="Vector" d="M10.9642 3.38325C10.8621 2.44381 10.1186 1.69518 9.17639 1.62392C7.06435 1.4639 4.95211 1.4639 2.84007 1.62392C1.89789 1.69518 1.15432 2.44402 1.05228 3.38325C0.913767 4.66021 0.913767 5.93738 1.05228 7.21434C1.1248 7.88266 1.52305 8.45315 2.08574 8.75315V10.3978L3.46832 9.01521C5.37101 9.13074 7.2737 9.11767 9.17639 8.97367C10.1186 8.90241 10.8621 8.15357 10.9642 7.21434C11.1027 5.93738 11.1027 4.66021 10.9642 3.38325Z" fill="#018383" fill-opacity="0.12"/>
<path id="Vector_2" d="M1.45348 10.0817C1.41279 10.0817 1.37168 10.0739 1.33246 10.0577C1.21419 10.0088 1.13724 9.89344 1.13724 9.76547V8.30108C0.561899 7.92793 0.18094 7.31126 0.105465 6.61597C-0.035155 5.32235 -0.035155 4.01039 0.105465 2.71656C0.224791 1.61627 1.09887 0.758213 2.18356 0.675992C4.30171 0.515555 6.44938 0.515555 8.56753 0.675992C9.65243 0.758213 10.5263 1.61627 10.6456 2.71656C10.786 4.01018 10.786 5.32214 10.6456 6.61576C10.5263 7.71605 9.65222 8.57431 8.56753 8.65632C6.71228 8.79694 4.82624 8.8136 2.95897 8.70671L1.67674 9.98873C1.61665 10.0497 1.53591 10.0817 1.45348 10.0817ZM5.37586 1.18851C4.32532 1.18851 3.27479 1.22793 2.23163 1.30699C1.45052 1.36623 0.821003 1.98774 0.734354 2.78508C0.598794 4.03358 0.598794 5.29958 0.734354 6.54787C0.794228 7.10023 1.11869 7.58407 1.60232 7.8417C1.70541 7.89672 1.76971 8.00403 1.76971 8.12083V9.00208L2.61238 8.15941C2.67647 8.09532 2.76586 8.0618 2.85504 8.06728C4.74023 8.18176 6.64629 8.16784 8.51988 8.02596C9.30078 7.96672 9.93051 7.34521 10.0172 6.54787C10.1527 5.29937 10.1527 4.03337 10.0172 2.78487C9.93072 1.98753 9.30099 1.36602 8.51988 1.30678C7.47693 1.22793 6.42619 1.18851 5.37586 1.18851Z" fill="#1FAB89"/>
<g id="Group_2">
<path id="Vector_3" d="M5.37586 5.46101C5.8416 5.46101 6.21916 5.08345 6.21916 4.61771C6.21916 4.15197 5.8416 3.77441 5.37586 3.77441C4.91012 3.77441 4.53256 4.15197 4.53256 4.61771C4.53256 5.08345 4.91012 5.46101 5.37586 5.46101Z" fill="white"/>
<path id="Vector_4" d="M5.37587 5.61904C4.82372 5.61904 4.37445 5.16977 4.37445 4.61763C4.37445 4.06548 4.82372 3.61621 5.37587 3.61621C5.92801 3.61621 6.37728 4.06548 6.37728 4.61763C6.37728 5.16977 5.92801 5.61904 5.37587 5.61904ZM5.37587 3.93245C4.99807 3.93245 4.69069 4.23983 4.69069 4.61763C4.69069 4.99542 4.99807 5.30281 5.37587 5.30281C5.75366 5.30281 6.06104 4.99542 6.06104 4.61763C6.06104 4.23983 5.75366 3.93245 5.37587 3.93245Z" fill="#1FAB89"/>
</g>
<g id="Group_3">
<path id="Vector_5" d="M2.84597 5.46101C3.31171 5.46101 3.68926 5.08345 3.68926 4.61771C3.68926 4.15197 3.31171 3.77441 2.84597 3.77441C2.38023 3.77441 2.00267 4.15197 2.00267 4.61771C2.00267 5.08345 2.38023 5.46101 2.84597 5.46101Z" fill="white"/>
<path id="Vector_6" d="M2.84596 5.61904C2.29381 5.61904 1.84454 5.16977 1.84454 4.61763C1.84454 4.06548 2.29381 3.61621 2.84596 3.61621C3.39811 3.61621 3.84737 4.06548 3.84737 4.61763C3.84737 5.16977 3.39811 5.61904 2.84596 5.61904ZM2.84596 3.93245C2.46816 3.93245 2.16078 4.23983 2.16078 4.61763C2.16078 4.99542 2.46816 5.30281 2.84596 5.30281C3.22376 5.30281 3.53114 4.99542 3.53114 4.61763C3.53114 4.23983 3.22376 3.93245 2.84596 3.93245Z" fill="#1FAB89"/>
</g>
<g id="Group_4">
<path id="Vector_7" d="M7.90574 5.46101C8.37148 5.46101 8.74903 5.08345 8.74903 4.61771C8.74903 4.15197 8.37148 3.77441 7.90574 3.77441C7.44 3.77441 7.06244 4.15197 7.06244 4.61771C7.06244 5.08345 7.44 5.46101 7.90574 5.46101Z" fill="white"/>
<path id="Vector_8" d="M7.90574 5.61904C7.35359 5.61904 6.90433 5.16977 6.90433 4.61763C6.90433 4.06548 7.35359 3.61621 7.90574 3.61621C8.45789 3.61621 8.90716 4.06548 8.90716 4.61763C8.90716 5.16977 8.45789 5.61904 7.90574 5.61904ZM7.90574 3.93245C7.52795 3.93245 7.22056 4.23983 7.22056 4.61763C7.22056 4.99542 7.52795 5.30281 7.90574 5.30281C8.28354 5.30281 8.59092 4.99542 8.59092 4.61763C8.59092 4.23983 8.28354 3.93245 7.90574 3.93245Z" fill="#1FAB89"/>
</g>
</g>
</svg>
