<svg width="24" height="22" viewBox="0 0 24 22" fill="none" xmlns="http://www.w3.org/2000/svg">
<path id="Icon" fill-rule="evenodd" clip-rule="evenodd" d="M15.0023 0.982767L21.1227 5.50353C22.3022 6.35717 23.0041 7.72208 23.0121 9.1781V17.3618C22.9363 19.986 20.7566 22.057 18.132 21.9985H5.87961C3.25053 22.0634 1.06371 19.9906 0.987915 17.3618V9.1781C0.995982 7.72208 1.69781 6.35717 2.87736 5.50353L8.99778 0.982767C10.7848 -0.327589 13.2152 -0.327589 15.0023 0.982767ZM6.7838 17.0952H17.2163C17.6965 17.0952 18.0857 16.706 18.0857 16.2258C18.0857 15.7457 17.6965 15.3564 17.2163 15.3564H6.7838C6.30365 15.3564 5.91442 15.7457 5.91442 16.2258C5.91442 16.706 6.30365 17.0952 6.7838 17.0952Z" fill="#3F3F3F"/>
</svg>
