<svg width="48" height="70" viewBox="0 0 48 70" fill="none" xmlns="http://www.w3.org/2000/svg">
<g id="Group 48095909">
<path id="Vector" d="M42.5455 12H5.45458C3.04461 12 1.09094 13.9537 1.09094 16.3636V64.3636C1.09094 66.7736 3.04461 68.7273 5.45458 68.7273H42.5455C44.9555 68.7273 46.9091 66.7736 46.9091 64.3636V16.3636C46.9091 13.9537 44.9555 12 42.5455 12Z" fill="#DFE1F1"/>
<path id="Vector_2" d="M29.4545 7.63628V6.54537C29.4545 5.82906 29.3134 5.11978 29.0393 4.458C28.7652 3.79623 28.3634 3.19492 27.8569 2.68842C27.3504 2.18192 26.7491 1.78014 26.0874 1.50602C25.4256 1.23191 24.7163 1.09082 24 1.09082C22.5534 1.09082 21.166 1.66549 20.143 2.68842C19.1201 3.71135 18.5454 5.09873 18.5454 6.54537V7.63628H16.3636C15.2063 7.63628 14.0964 8.09601 13.2781 8.91435C12.4597 9.73269 12 10.8426 12 11.9999C12 13.1572 12.4597 14.2671 13.2781 15.0855C14.0964 15.9038 15.2063 16.3635 16.3636 16.3635H31.6364C32.7937 16.3635 33.9036 15.9038 34.7219 15.0855C35.5403 14.2671 36 13.1572 36 11.9999C36 10.8426 35.5403 9.73269 34.7219 8.91435C33.9036 8.09601 32.7937 7.63628 31.6364 7.63628H29.4545ZM20.7273 38.1817V40.3635C20.7273 40.9422 20.4974 41.4972 20.0882 41.9063C19.6791 42.3155 19.1241 42.5454 18.5454 42.5454H9.81817C9.23952 42.5454 8.68456 42.3155 8.27539 41.9063C7.86622 41.4972 7.63635 40.9422 7.63635 40.3635V31.6363C7.63635 31.0576 7.86622 30.5027 8.27539 30.0935C8.68456 29.6843 9.23952 29.4545 9.81817 29.4545H18.5454M20.7273 57.8181V59.9999C20.7273 60.5786 20.4974 61.1335 20.0882 61.5427C19.6791 61.9519 19.1241 62.1817 18.5454 62.1817H9.81817C9.23952 62.1817 8.68456 61.9519 8.27539 61.5427C7.86622 61.1335 7.63635 60.5786 7.63635 59.9999V51.2726C7.63635 50.694 7.86622 50.139 8.27539 49.7299C8.68456 49.3207 9.23952 49.0908 9.81817 49.0908H18.5454" fill="#DFE1F1"/>
<path id="Vector_3" d="M29.4545 7.63628V6.54537C29.4545 5.82906 29.3135 5.11978 29.0393 4.458C28.7652 3.79623 28.3634 3.19492 27.8569 2.68842C27.3504 2.18192 26.7491 1.78014 26.0874 1.50602C25.4256 1.23191 24.7163 1.09082 24 1.09082C22.5534 1.09082 21.166 1.66549 20.1431 2.68842C19.1201 3.71135 18.5455 5.09873 18.5455 6.54537V7.63628H16.3636C15.2063 7.63628 14.0964 8.09601 13.2781 8.91435C12.4597 9.73269 12 10.8426 12 11.9999C12 13.1572 12.4597 14.2671 13.2781 15.0855C14.0964 15.9038 15.2063 16.3635 16.3636 16.3635H31.6364C32.7937 16.3635 33.9036 15.9038 34.7219 15.0855C35.5403 14.2671 36 13.1572 36 11.9999C36 10.8426 35.5403 9.73269 34.7219 8.91435C33.9036 8.09601 32.7937 7.63628 31.6364 7.63628H29.4545Z" fill="#8B8891"/>
<path id="Vector_4" d="M20.7273 38.1819V40.3637C20.7273 40.9423 20.4974 41.4973 20.0882 41.9065C19.6791 42.3156 19.1241 42.5455 18.5454 42.5455H9.81817C9.23952 42.5455 8.68456 42.3156 8.27539 41.9065C7.86622 41.4973 7.63635 40.9423 7.63635 40.3637V31.6364C7.63635 31.0578 7.86622 30.5028 8.27539 30.0936C8.68456 29.6845 9.23952 29.4546 9.81817 29.4546H18.5454C19.1241 29.4546 19.6791 29.6845 20.0882 30.0936C20.4974 30.5028 20.7273 31.0578 20.7273 31.6364V38.1819ZM20.7273 57.8182V60C20.7273 60.5787 20.4974 61.1337 20.0882 61.5428C19.6791 61.952 19.1241 62.1819 18.5454 62.1819H9.81817C9.23952 62.1819 8.68456 61.952 8.27539 61.5428C7.86622 61.1337 7.63635 60.5787 7.63635 60V51.2728C7.63635 50.6941 7.86622 50.1392 8.27539 49.73C8.68456 49.3208 9.23952 49.091 9.81817 49.091H18.5454C19.1241 49.091 19.6791 49.3208 20.0882 49.73C20.4974 50.1392 20.7273 50.6941 20.7273 51.2728V57.8182Z" fill="white"/>
<path id="Vector_5" d="M20.7273 56.7273C20.4379 56.7273 20.1605 56.8422 19.9559 57.0468C19.7513 57.2514 19.6364 57.5289 19.6364 57.8182V60C19.6364 60.2893 19.5214 60.5668 19.3168 60.7714C19.1123 60.976 18.8348 61.0909 18.5455 61.0909H9.81818C9.52886 61.0909 9.25138 60.976 9.04679 60.7714C8.84221 60.5668 8.72727 60.2893 8.72727 60V51.2727C8.72727 50.9834 8.84221 50.7059 9.04679 50.5013C9.25138 50.2968 9.52886 50.1818 9.81818 50.1818H18.5455C18.8348 50.1818 19.1123 50.0669 19.3168 49.8623C19.5214 49.6577 19.6364 49.3802 19.6364 49.0909C19.6364 48.8016 19.5214 48.5241 19.3168 48.3195C19.1123 48.1149 18.8348 48 18.5455 48H9.81818C8.9502 48 8.11777 48.3448 7.50401 48.9586C6.89026 49.5723 6.54545 50.4047 6.54545 51.2727V60C6.54545 60.868 6.89026 61.7004 7.50401 62.3142C8.11777 62.9279 8.9502 63.2727 9.81818 63.2727H18.5455C19.4134 63.2727 20.2459 62.9279 20.8596 62.3142C21.4734 61.7004 21.8182 60.868 21.8182 60V57.8182C21.8182 57.5289 21.7032 57.2514 21.4987 57.0468C21.2941 56.8422 21.0166 56.7273 20.7273 56.7273ZM22.2153 29.7731L15.2727 36.7156L12.6938 34.1367C12.4881 33.938 12.2125 33.8281 11.9265 33.8305C11.6404 33.833 11.3668 33.9478 11.1646 34.15C10.9623 34.3523 10.8476 34.6259 10.8451 34.9119C10.8426 35.198 10.9526 35.4735 11.1513 35.6793L14.5025 39.0284C14.7071 39.2329 14.9845 39.3478 15.2738 39.3478C15.5631 39.3478 15.8405 39.2329 16.0451 39.0284L23.76 31.3156C23.9587 31.1099 24.0687 30.8343 24.0662 30.5483C24.0637 30.2623 23.949 29.9886 23.7467 29.7864C23.5444 29.5841 23.2708 29.4694 22.9848 29.4669C22.6988 29.4644 22.421 29.5744 22.2153 29.7731ZM16.3636 24H29.4545C29.7439 24 30.0214 23.8851 30.2259 23.6805C30.4305 23.4759 30.5455 23.1984 30.5455 22.9091C30.5455 22.6198 30.4305 22.3423 30.2259 22.1377C30.0214 21.9331 29.7439 21.8182 29.4545 21.8182H16.3636C16.0743 21.8182 15.7968 21.9331 15.5922 22.1377C15.3877 22.3423 15.2727 22.6198 15.2727 22.9091C15.2727 23.1984 15.3877 23.4759 15.5922 23.6805C15.7968 23.8851 16.0743 24 16.3636 24ZM9.81818 43.6364H18.5455C19.4134 43.6364 20.2459 43.2916 20.8596 42.6778C21.4734 42.064 21.8182 41.2316 21.8182 40.3636V38.1818C21.8182 37.8925 21.7032 37.615 21.4987 37.4104C21.2941 37.2058 21.0166 37.0909 20.7273 37.0909C20.4379 37.0909 20.1605 37.2058 19.9559 37.4104C19.7513 37.615 19.6364 37.8925 19.6364 38.1818V40.3636C19.6364 40.653 19.5214 40.9304 19.3168 41.135C19.1123 41.3396 18.8348 41.4545 18.5455 41.4545H9.81818C9.52886 41.4545 9.25138 41.3396 9.04679 41.135C8.84221 40.9304 8.72727 40.653 8.72727 40.3636V31.6364C8.72727 31.347 8.84221 31.0696 9.04679 30.865C9.25138 30.6604 9.52886 30.5455 9.81818 30.5455H18.5455C18.8348 30.5455 19.1123 30.4305 19.3168 30.2259C19.5214 30.0214 19.6364 29.7439 19.6364 29.4545C19.6364 29.1652 19.5214 28.8877 19.3168 28.6832C19.1123 28.4786 18.8348 28.3636 18.5455 28.3636H9.81818C8.9502 28.3636 8.11777 28.7084 7.50401 29.3222C6.89026 29.936 6.54545 30.7684 6.54545 31.6364V40.3636C6.54545 41.2316 6.89026 42.064 7.50401 42.6778C8.11777 43.2916 8.9502 43.6364 9.81818 43.6364ZM22.2153 49.4095L15.2727 56.352L12.6938 53.7731C12.4881 53.5744 12.2125 53.4644 11.9265 53.4669C11.6404 53.4694 11.3668 53.5841 11.1646 53.7864C10.9623 53.9886 10.8476 54.2623 10.8451 54.5483C10.8426 54.8343 10.9526 55.1099 11.1513 55.3156L14.5025 58.6647C14.7071 58.8692 14.9845 58.9841 15.2738 58.9841C15.5631 58.9841 15.8405 58.8692 16.0451 58.6647L23.76 50.952C23.9587 50.7463 24.0687 50.4707 24.0662 50.1847C24.0637 49.8986 23.949 49.625 23.7467 49.4227C23.5444 49.2205 23.2708 49.1058 22.9848 49.1033C22.6988 49.1008 22.421 49.2107 22.2153 49.4095ZM40.3636 56.7273H27.2727C26.9834 56.7273 26.7059 56.8422 26.5013 57.0468C26.2968 57.2514 26.1818 57.5289 26.1818 57.8182C26.1818 58.1075 26.2968 58.385 26.5013 58.5896C26.7059 58.7942 26.9834 58.9091 27.2727 58.9091H40.3636C40.653 58.9091 40.9304 58.7942 41.135 58.5896C41.3396 58.385 41.4545 58.1075 41.4545 57.8182C41.4545 57.5289 41.3396 57.2514 41.135 57.0468C40.9304 56.8422 40.653 56.7273 40.3636 56.7273ZM42.5455 10.9091H36.9796C36.7282 9.67742 36.0591 8.5704 35.0855 7.77527C34.1118 6.98013 32.8934 6.5457 31.6364 6.54545H30.5455C30.5455 4.80949 29.8558 3.14463 28.6283 1.91712C27.4008 0.689608 25.736 0 24 0C22.264 0 20.5992 0.689608 19.3717 1.91712C18.1442 3.14463 17.4545 4.80949 17.4545 6.54545H16.3636C15.1066 6.5457 13.8882 6.98013 12.9145 7.77527C11.9409 8.5704 11.2718 9.67742 11.0204 10.9091H5.45455C4.00791 10.9091 2.62053 11.4838 1.5976 12.5067C0.574674 13.5296 0 14.917 0 16.3636V64.3636C0 65.8103 0.574674 67.1977 1.5976 68.2206C2.62053 69.2435 4.00791 69.8182 5.45455 69.8182H42.5455C43.9921 69.8182 45.3795 69.2435 46.4024 68.2206C47.4253 67.1977 48 65.8103 48 64.3636V16.3636C48 14.917 47.4253 13.5296 46.4024 12.5067C45.3795 11.4838 43.9921 10.9091 42.5455 10.9091ZM16.3636 8.72727H18.5455C18.8348 8.72727 19.1123 8.61234 19.3168 8.40775C19.5214 8.20317 19.6364 7.92569 19.6364 7.63636V6.54545C19.6364 5.38815 20.0961 4.27824 20.9144 3.4599C21.7328 2.64156 22.8427 2.18182 24 2.18182C25.1573 2.18182 26.2672 2.64156 27.0856 3.4599C27.9039 4.27824 28.3636 5.38815 28.3636 6.54545V7.63636C28.3636 7.92569 28.4786 8.20317 28.6832 8.40775C28.8877 8.61234 29.1652 8.72727 29.4545 8.72727H31.6364C32.5043 8.72727 33.3368 9.07208 33.9505 9.68583C34.5643 10.2996 34.9091 11.132 34.9091 12C34.9091 12.868 34.5643 13.7004 33.9505 14.3142C33.3368 14.9279 32.5043 15.2727 31.6364 15.2727H16.3636C15.4957 15.2727 14.6632 14.9279 14.0495 14.3142C13.4357 13.7004 13.0909 12.868 13.0909 12C13.0909 11.132 13.4357 10.2996 14.0495 9.68583C14.6632 9.07208 15.4957 8.72727 16.3636 8.72727ZM45.8182 64.3636C45.8182 65.2316 45.4734 66.064 44.8596 66.6778C44.2459 67.2916 43.4134 67.6364 42.5455 67.6364H5.45455C4.58656 67.6364 3.75413 67.2916 3.14038 66.6778C2.52662 66.064 2.18182 65.2316 2.18182 64.3636V16.3636C2.18182 15.4957 2.52662 14.6632 3.14038 14.0495C3.75413 13.4357 4.58656 13.0909 5.45455 13.0909H11.0204C11.2718 14.3226 11.9409 15.4296 12.9145 16.2247C13.8882 17.0199 15.1066 17.4543 16.3636 17.4545H31.6364C32.8934 17.4543 34.1118 17.0199 35.0855 16.2247C36.0591 15.4296 36.7282 14.3226 36.9796 13.0909H42.5455C43.4134 13.0909 44.2459 13.4357 44.8596 14.0495C45.4734 14.6632 45.8182 15.4957 45.8182 16.3636V64.3636ZM40.3636 32.7273H27.2727C26.9834 32.7273 26.7059 32.8422 26.5013 33.0468C26.2968 33.2514 26.1818 33.5289 26.1818 33.8182C26.1818 34.1075 26.2968 34.385 26.5013 34.5896C26.7059 34.7942 26.9834 34.9091 27.2727 34.9091H40.3636C40.653 34.9091 40.9304 34.7942 41.135 34.5896C41.3396 34.385 41.4545 34.1075 41.4545 33.8182C41.4545 33.5289 41.3396 33.2514 41.135 33.0468C40.9304 32.8422 40.653 32.7273 40.3636 32.7273ZM40.3636 52.3636H27.2727C26.9834 52.3636 26.7059 52.4786 26.5013 52.6832C26.2968 52.8877 26.1818 53.1652 26.1818 53.4545C26.1818 53.7439 26.2968 54.0214 26.5013 54.2259C26.7059 54.4305 26.9834 54.5455 27.2727 54.5455H40.3636C40.653 54.5455 40.9304 54.4305 41.135 54.2259C41.3396 54.0214 41.4545 53.7439 41.4545 53.4545C41.4545 53.1652 41.3396 52.8877 41.135 52.6832C40.9304 52.4786 40.653 52.3636 40.3636 52.3636ZM40.3636 37.0909H27.2727C26.9834 37.0909 26.7059 37.2058 26.5013 37.4104C26.2968 37.615 26.1818 37.8925 26.1818 38.1818C26.1818 38.4711 26.2968 38.7486 26.5013 38.9532C26.7059 39.1578 26.9834 39.2727 27.2727 39.2727H40.3636C40.653 39.2727 40.9304 39.1578 41.135 38.9532C41.3396 38.7486 41.4545 38.4711 41.4545 38.1818C41.4545 37.8925 41.3396 37.615 41.135 37.4104C40.9304 37.2058 40.653 37.0909 40.3636 37.0909Z" fill="black"/>
</g>
</svg>
