<svg width="57" height="62" viewBox="0 0 57 62" fill="none" xmlns="http://www.w3.org/2000/svg">
<g id="Group 1">
<path id="Vector" d="M32.1365 4.7188C32.6773 3.1427 37.1988 2.94301 40.616 3.90579C40.9595 4.00206 48.846 6.36621 50.8381 13.8973C52.9122 21.7314 47.2045 29.8556 44.6811 29.4681C41.889 29.0354 44.5622 18.414 37.0145 10.3005C34.4721 7.56077 31.6681 6.07976 32.1365 4.7188ZM20.9231 4.7188C20.3823 3.1427 15.8608 2.94301 12.4435 3.90579C12.1 4.00206 4.2136 6.36621 2.22148 13.8973C0.147357 21.7314 5.85507 29.8556 8.37849 29.4681C11.1705 29.0354 8.49735 18.414 16.045 10.3005C18.5875 7.56077 21.3914 6.07976 20.9231 4.7188ZM38.8283 47.4506C39.8054 47.1059 40.4163 49.3951 42.7686 50.2284C46.5721 51.5762 50.9546 47.7073 51.3207 47.3757C52.6611 46.1516 53.7012 44.6349 54.3599 42.9433C54.4223 42.7836 54.536 42.6492 54.6832 42.5612C54.8304 42.4732 55.0027 42.4367 55.1729 42.4574C55.3431 42.4781 55.5016 42.5548 55.6234 42.6755C55.7452 42.7962 55.8234 42.954 55.8457 43.124C56.1619 45.4953 56.068 48.8353 53.9926 51.7403C50.4209 56.7503 42.5475 58.2348 39.929 55.6805C39.1707 54.9412 38.8331 53.8441 38.5657 52.9705C37.9024 50.8143 37.8287 47.8024 38.8283 47.4506Z" fill="#F5DEA3"/>
<path id="Vector_2" d="M43.2892 46.5697C43.2885 50.2941 41.8087 53.8657 39.1752 56.4993C36.5417 59.1328 32.9701 60.6126 29.2457 60.6132H23.8138C21.2613 60.6132 18.7571 59.9176 16.5703 58.601C14.3836 57.2845 12.597 55.3969 11.4026 53.1411C10.2082 50.8853 9.65123 48.3467 9.79148 45.7981C9.93174 43.2495 10.7639 40.7873 12.1986 38.6762L16.0176 33.0564L22.2507 23.8851H30.8087L38.5252 35.2363L40.8608 38.6726C42.4436 41.002 43.2897 43.7535 43.2892 46.5697Z" fill="#F5DEA3"/>
<path id="Vector_3" d="M26.5297 44.2377C24.073 44.2377 21.717 45.2136 19.9799 46.9508C18.2427 48.6879 17.2668 51.0439 17.2668 53.5006V58.9955C19.2843 60.0612 21.5321 60.6166 23.8137 60.6132H29.2457C31.5273 60.6166 33.7751 60.0612 35.7925 58.9955V53.5006C35.7925 51.0439 34.8166 48.6879 33.0795 46.9508C31.3424 45.2136 28.9864 44.2377 26.5297 44.2377Z" fill="#FEF1DA"/>
<path id="Vector_4" d="M38.5252 35.2363C35.7498 37.6659 32.1923 39.1231 28.3127 39.1231C23.3776 39.1231 18.9631 36.7649 16.0177 33.0612L22.2508 23.8851H30.8088L38.5252 35.2363Z" fill="#F5DEA3"/>
<path id="Vector_5" d="M26.5297 35.5573C35.3984 35.5573 42.5878 27.9421 42.5878 18.5483C42.5878 9.15446 35.3984 1.53926 26.5297 1.53926C17.661 1.53926 10.4716 9.15446 10.4716 18.5483C10.4716 27.9421 17.661 35.5573 26.5297 35.5573Z" fill="#F5DEA3"/>
<path id="Vector_6" d="M30.817 26.5595L27.3118 30.0648C27.1781 30.1983 26.9968 30.2733 26.8078 30.2733C26.6189 30.2733 26.4376 30.1983 26.3039 30.0648L22.7987 26.5595C22.699 26.4598 22.6312 26.3328 22.6038 26.1945C22.5763 26.0563 22.5904 25.913 22.6443 25.7827C22.6983 25.6525 22.7896 25.5412 22.9067 25.4628C23.0239 25.3844 23.1617 25.3425 23.3026 25.3424H30.3154C30.4562 25.343 30.5936 25.3852 30.7104 25.4638C30.8272 25.5423 30.9182 25.6537 30.9718 25.7838C31.0254 25.914 31.0394 26.0571 31.0118 26.1951C30.9843 26.3332 30.9165 26.46 30.817 26.5595Z" fill="#444444"/>
<path id="Vector_7" d="M32.1828 16.12C32.4192 16.12 32.6459 16.026 32.8131 15.8589C32.9803 15.6917 33.0742 15.4649 33.0742 15.2285V12.963C33.0742 12.7266 32.9803 12.4998 32.8131 12.3326C32.6459 12.1655 32.4192 12.0715 32.1828 12.0715C31.9463 12.0715 31.7196 12.1655 31.5524 12.3326C31.3852 12.4998 31.2913 12.7266 31.2913 12.963V15.2285C31.2913 15.4649 31.3852 15.6917 31.5524 15.8589C31.7196 16.026 31.9463 16.12 32.1828 16.12ZM56.7288 43.0063C56.6801 42.6411 56.5116 42.3023 56.2496 42.0431C55.9877 41.784 55.6471 41.6191 55.2813 41.5744C54.9156 41.5296 54.5453 41.6076 54.2286 41.796C53.9119 41.9843 53.6667 42.2725 53.5314 42.6153C52.9243 44.1803 51.9629 45.5835 50.7227 46.7148C50.5623 46.8598 47.038 50.0073 43.8751 49.5817C44.2774 47.6241 44.2832 45.6057 43.892 43.6458C43.5008 41.6859 42.7207 39.8243 41.5978 38.1711L37.5149 32.1638C39.5447 30.3267 41.1278 28.05 42.1433 25.5076C42.5261 28.1772 42.8779 30.0778 44.5455 30.3369C44.6533 30.3531 44.7622 30.3611 44.8712 30.3607C46.0943 30.3607 47.2841 29.3385 48.0959 28.4363C49.5222 26.8543 50.7465 24.5745 51.4573 22.1819C52.3226 19.271 52.4082 16.3244 51.695 13.6607C49.5555 5.57816 41.2067 3.13913 40.8525 3.03929C38.6702 2.42478 36.1099 2.25599 34.2105 2.5888C31.8504 1.30954 29.2083 0.639542 26.5238 0.639542C23.8393 0.639542 21.1972 1.30954 18.837 2.5888C16.9353 2.25599 14.3774 2.42478 12.1951 3.03929C11.8385 3.13913 3.49326 5.5746 1.35257 13.6607C0.652477 16.3375 0.736868 19.2793 1.60218 22.1902C2.31534 24.5829 3.53842 26.8626 4.96357 28.4447C5.77539 29.3468 6.96519 30.3702 8.18827 30.369C8.29728 30.3694 8.40616 30.3615 8.51395 30.3453C10.178 30.0861 10.5346 28.1855 10.9161 25.5159C11.9316 28.0583 13.5148 30.335 15.5446 32.1721L11.4617 38.1794C10.2846 39.9112 9.4849 41.8713 9.11453 43.9323C8.74416 45.9933 8.8114 48.1091 9.31188 50.1424C9.81236 52.1757 10.7349 54.081 12.0196 55.7346C13.3043 57.3883 14.9224 58.7532 16.7689 59.7408C16.8204 59.7742 16.8749 59.8029 16.9317 59.8264C19.0567 60.933 21.4179 61.5089 23.8138 61.5047H29.2457C31.642 61.5074 34.0032 60.9299 36.1278 59.8216C36.1848 59.7986 36.2393 59.7699 36.2906 59.736C37.6807 58.9876 38.9442 58.0249 40.0347 56.8834C40.9963 57.4836 42.2753 57.7986 43.767 57.7986C44.099 57.7986 44.4409 57.7832 44.7927 57.7523C48.6843 57.4052 52.5805 55.2478 54.7177 52.2561C56.9784 49.0944 57.0592 45.481 56.7288 43.0063ZM40.3747 4.76396C40.4519 4.78536 48.0947 7.01282 49.9775 14.1255C51.4133 19.5479 48.8459 24.9418 46.7682 27.2525C45.8173 28.3032 45.0828 28.6241 44.8165 28.5825C44.366 28.5136 44.0522 26.2992 43.8442 24.8349C43.6957 23.7853 43.5269 22.6003 43.2725 21.3261C43.4088 20.4064 43.4771 19.478 43.477 18.5483C43.477 12.6932 40.8014 7.48588 36.6733 4.2172C37.9247 4.24909 39.1676 4.43269 40.3747 4.76396ZM9.78577 21.338C9.77745 21.3689 9.76913 21.3986 9.76318 21.4307C9.52546 22.6668 9.35668 23.8186 9.21286 24.8349C9.00485 26.2992 8.69105 28.5136 8.24057 28.5825C7.9767 28.6253 7.23501 28.3044 6.28887 27.2525C4.21356 24.9466 1.64616 19.5479 3.07962 14.1255C4.96238 7.01282 12.6052 4.78536 12.6824 4.76396C13.8894 4.43148 15.1323 4.24669 16.3837 4.21364C12.2557 7.48232 9.58014 12.6896 9.58014 18.5447C9.57958 19.4796 9.64831 20.4132 9.78577 21.338ZM11.3631 18.5483C11.3631 9.66104 18.1667 2.43072 26.5297 2.43072C34.8928 2.43072 41.6964 9.66104 41.6964 18.5483C41.6964 27.4355 34.8928 34.6647 26.5297 34.6647C18.1667 34.6647 11.3631 27.4355 11.3631 18.5483ZM34.8976 58.4416C33.1331 59.2857 31.2017 59.7232 29.2457 59.7218H23.8138C21.8566 59.7237 19.9239 59.2863 18.1583 58.4416V53.5006C18.1583 51.2804 19.0403 49.1511 20.6103 47.5811C22.1802 46.0112 24.3095 45.1292 26.5297 45.1292C28.75 45.1292 30.8793 46.0112 32.4492 47.5811C34.0191 49.1511 34.9011 51.2804 34.9011 53.5006L34.8976 58.4416ZM36.6805 57.4099V53.5006C36.6805 50.8075 35.6107 48.2247 33.7063 46.3204C31.802 44.4161 29.2193 43.3463 26.5262 43.3463C23.8331 43.3463 21.2503 44.4161 19.346 46.3204C17.4417 48.2247 16.3719 50.8075 16.3719 53.5006V57.4099C13.5034 55.4438 11.5308 52.4211 10.8861 49.0037C10.2414 45.5864 10.9771 42.0528 12.932 39.1766L16.9305 33.2942C19.7105 35.3426 23.073 36.4477 26.5262 36.4477C29.9793 36.4477 33.3419 35.3426 36.1218 33.2942L40.1203 39.1766C42.0753 42.0528 42.8109 45.5864 42.1662 49.0037C41.5215 52.4211 39.549 55.4438 36.6805 57.4099ZM53.2735 51.222C51.027 54.3647 47.2187 55.7483 44.6406 55.9765C43.2452 56.0953 42.0471 55.9277 41.2127 55.501C42.1628 54.2306 42.9039 52.8166 43.408 51.3124C45.0174 51.5964 46.8122 51.2303 48.7568 50.2141C49.8922 49.6163 50.9524 48.8853 51.9149 48.0365C53.2444 46.8256 54.2983 45.3433 55.0053 43.6898C55.2323 45.815 55.0564 48.7129 53.2735 51.222ZM22.1687 27.1871L25.6727 30.6923C25.9738 30.9929 26.3819 31.1617 26.8073 31.1617C27.2327 31.1617 27.6407 30.9929 27.9418 30.6923L31.447 27.1871C31.6701 26.9627 31.8218 26.6773 31.883 26.3668C31.9442 26.0563 31.9121 25.7347 31.7909 25.4424C31.6696 25.1501 31.4646 24.9002 31.2017 24.7242C30.9387 24.5482 30.6295 24.454 30.3131 24.4533H23.3003C22.9838 24.454 22.6747 24.5482 22.4117 24.7242C22.1487 24.9002 21.9437 25.1501 21.8225 25.4424C21.7012 25.7347 21.6692 26.0563 21.7304 26.3668C21.7916 26.6773 21.9433 26.9627 22.1663 27.1871H22.1687ZM29.8816 26.2362L26.8079 29.3052L23.7329 26.2315L29.8816 26.2362ZM20.8767 16.1247C21.1131 16.1247 21.3399 16.0308 21.5071 15.8636C21.6742 15.6964 21.7682 15.4697 21.7682 15.2333V12.963C21.7682 12.7266 21.6742 12.4998 21.5071 12.3326C21.3399 12.1655 21.1131 12.0715 20.8767 12.0715C20.6403 12.0715 20.4135 12.1655 20.2463 12.3326C20.0792 12.4998 19.9852 12.7266 19.9852 12.963V15.2285C19.9852 15.4649 20.0792 15.6917 20.2463 15.8589C20.4135 16.026 20.6403 16.12 20.8767 16.12V16.1247Z" fill="black"/>
</g>
</svg>
