<svg width="66" height="93" viewBox="0 0 66 93" fill="none" xmlns="http://www.w3.org/2000/svg">
<g id="Group 48095863">
<path id="Vector" d="M21.8724 28.4341H4.5932C2.05965 28.4341 0 26.3744 0 23.8409C0 21.3073 2.05965 19.2477 4.5932 19.2477H21.8724V28.4341Z" fill="#EF917B"/>
<path id="Vector_2" d="M21.8724 19.2477H39.1516C41.6852 19.2477 43.7448 21.3073 43.7448 23.8409C43.7448 26.3744 41.6852 28.4341 39.1516 28.4341H21.8724V19.2477Z" fill="#EF917B"/>
<path id="Vector_3" d="M6.99917 42.3959C10.8647 42.3959 13.9983 39.2623 13.9983 35.3967C13.9983 31.5312 10.8647 28.3976 6.99917 28.3976C3.13363 28.3976 0 31.5312 0 35.3967C0 39.2623 3.13363 42.3959 6.99917 42.3959Z" fill="url(#paint0_linear_177_1088)"/>
<path id="Vector_4" d="M36.7091 42.3959C40.5747 42.3959 43.7083 39.2623 43.7083 35.3967C43.7083 31.5312 40.5747 28.3976 36.7091 28.3976C32.8436 28.3976 29.71 31.5312 29.71 35.3967C29.71 39.2623 32.8436 42.3959 36.7091 42.3959Z" fill="url(#paint1_linear_177_1088)"/>
<path id="Vector_5" d="M33.7199 91.4995H10.0248C6.41589 91.4995 3.49957 88.5832 3.49957 84.9742V59.4017C3.49957 54.6262 6.61639 50.3976 11.1731 48.9577L17.4979 46.9891H26.2469L32.5716 48.9577C37.1284 50.3794 40.2452 54.608 40.2452 59.4017V84.9742C40.2452 88.5832 37.3289 91.4995 33.7199 91.4995Z" fill="url(#paint2_linear_177_1088)"/>
<path id="Vector_6" d="M26.2469 40.865H17.4979V46.9893L14.4358 47.9553C14.4358 50.8169 16.7506 53.1135 19.594 53.1135H24.1326C26.9942 53.1135 29.2908 50.7987 29.2908 47.9553L26.2287 47.0075V40.865H26.2469Z" fill="url(#paint3_linear_177_1088)"/>
<path id="Vector_7" d="M21.8724 43.7084C13.652 43.7084 6.99915 37.0555 6.99915 28.8351V5.65039H36.7456V28.8351C36.7456 37.0555 30.0928 43.7084 21.8724 43.7084Z" fill="url(#paint4_radial_177_1088)"/>
<path id="Vector_8" d="M19.1201 28.252H17.2974V25.3356H16.0215V23.5129H18.227C18.7373 23.5129 19.1201 23.9139 19.1201 24.4243V28.252ZM26.4109 28.252H24.5882V24.4243C24.5882 23.9139 25.0074 23.5129 25.5178 23.5129H27.6868V25.3356H26.4109V28.252Z" fill="#399349"/>
<path id="Vector_9" d="M3.57244 15.0737L4.5567 19.2477H9.71494C17.5343 19.2477 25.0621 16.2767 30.7671 10.9362V13.9983C30.7671 16.8964 33.1184 19.2477 36.0165 19.2477H39.2062L40.1905 15.0737C42.0132 7.38193 36.1805 0 28.27 0H15.4929C7.58238 0 1.74974 7.38193 3.57244 15.0737Z" fill="url(#paint5_linear_177_1088)"/>
<path id="Vector_10" d="M21.8724 34.522C20.1773 34.522 18.5551 33.7746 17.4615 32.4805L18.8467 31.2958C19.594 32.1889 20.7059 32.6993 21.8724 32.6993C23.039 32.6993 24.1326 32.1889 24.8981 31.2958L26.2834 32.4805C25.1715 33.7929 23.5675 34.522 21.8724 34.522Z" fill="#EF917B"/>
<path id="Vector_11" d="M10.0248 65.5808H3.49957V84.9743C3.49957 88.5833 6.41589 91.4996 10.0248 91.4996V65.5808Z" fill="url(#paint6_linear_177_1088)"/>
<path id="Vector_12" d="M40.2452 65.5808H33.72V91.4996C37.3289 91.4996 40.2452 88.5833 40.2452 84.9743V65.5808Z" fill="url(#paint7_linear_177_1088)"/>
<path id="Vector_13" d="M10.918 61.6072H9.09528V65.6171H10.918V61.6072Z" fill="#C12944"/>
<path id="Vector_14" d="M34.6131 61.6072H32.7904V65.6171H34.6131V61.6072Z" fill="#C12944"/>
<path id="Vector_15" d="M14.0348 31.3504C15.1421 31.3504 16.0398 30.6568 16.0398 29.8011C16.0398 28.9455 15.1421 28.2518 14.0348 28.2518C12.9275 28.2518 12.0298 28.9455 12.0298 29.8011C12.0298 30.6568 12.9275 31.3504 14.0348 31.3504Z" fill="url(#paint8_radial_177_1088)"/>
<path id="Vector_16" d="M29.5278 31.3504C30.6351 31.3504 31.5328 30.6568 31.5328 29.8011C31.5328 28.9455 30.6351 28.2518 29.5278 28.2518C28.4205 28.2518 27.5228 28.9455 27.5228 29.8011C27.5228 30.6568 28.4205 31.3504 29.5278 31.3504Z" fill="url(#paint9_radial_177_1088)"/>
<g id="Group">
<path id="Vector_17" d="M57.5062 56.6132V47.4814H39.0787V56.6132L31.6967 72.5253C30.9859 74.0564 30.6213 75.7151 30.6213 77.392C30.6213 80.0531 31.5327 82.6231 33.2096 84.6828C36.6909 88.9661 41.9221 91.4632 47.4631 91.4632H49.14C54.6628 91.4632 59.8939 88.9661 63.3935 84.6828C65.0704 82.6231 65.9817 80.0531 65.9817 77.392C65.9817 75.7151 65.6172 74.0564 64.9063 72.5253L57.5062 56.6132Z" fill="url(#paint10_linear_177_1088)"/>
<path id="Vector_18" d="M57.5062 31.8608C55.0821 30.0745 52.1475 29.1267 49.1401 29.1267H47.4449C44.4375 29.1267 41.5029 30.0927 39.0787 31.8608L35.0323 40.5733L39.0787 47.5542L42.8882 50.2883C44.4739 51.4183 46.3513 52.038 48.3016 52.038C50.2519 52.038 52.1293 51.4183 53.715 50.2883L57.5245 47.5542L61.7531 40.5733L57.5062 31.8608Z" fill="url(#paint11_radial_177_1088)"/>
<path id="Vector_19" d="M53.1681 92.3744H43.4349C41.5575 92.3744 40.0264 90.8434 40.0264 88.966C40.0264 87.2527 41.2841 85.8492 42.9245 85.594L40.0447 68.1143L41.8491 67.8227L44.9113 86.3231C44.9477 86.5783 44.8748 86.8517 44.7108 87.0522C44.5285 87.2527 44.2915 87.3802 44.0181 87.3802H43.4531C42.5782 87.3802 41.8674 88.0911 41.8674 88.966C41.8674 89.8409 42.5782 90.5517 43.4531 90.5517H53.1863C54.0612 90.5517 54.7721 89.8409 54.7721 88.966C54.7721 88.0911 54.0612 87.3802 53.1863 87.3802H52.6213C52.3479 87.3802 52.0927 87.2709 51.9287 87.0522C51.7646 86.8517 51.6735 86.5783 51.7282 86.3231L54.7721 67.8044L56.5765 68.0961L53.6967 85.5758C55.3371 85.8127 56.5948 87.2344 56.5948 88.9478C56.5765 90.8434 55.0455 92.3744 53.1681 92.3744Z" fill="#E96B4E"/>
<path id="Vector_20" d="M49.1947 67.0754H47.372V91.3173H49.1947V67.0754Z" fill="#E96B4E"/>
<path id="Vector_21" d="M32.2618 48.0646L34.0298 50.7804C34.5402 51.5641 35.3968 52.0198 36.3264 52.0198C37.8393 52.0198 39.0787 50.7986 39.0787 49.2675V31.8425L35.6703 33.7928C32.5352 35.5973 30.6031 38.9328 30.6031 42.5418C30.6214 44.5103 31.1864 46.4241 32.2618 48.0646Z" fill="url(#paint12_linear_177_1088)"/>
<path id="Vector_22" d="M64.3414 48.0646L62.5734 50.7804C62.063 51.5641 61.2063 52.0198 60.2767 52.0198C58.7639 52.0198 57.5245 50.7986 57.5245 49.2675V31.8425L60.9329 33.7928C64.068 35.5973 66 38.9328 66 42.5418C65.9818 44.5103 65.4168 46.4241 64.3414 48.0646Z" fill="url(#paint13_linear_177_1088)"/>
<path id="Vector_23" d="M45.5493 40.4639H43.7266V43.0156H45.5493V40.4639Z" fill="#399349"/>
<path id="Vector_24" d="M52.8401 40.4639H51.0174V43.0156H52.8401V40.4639Z" fill="#399349"/>
<path id="Vector_25" d="M49.0489 48.4838H47.5543C46.2237 48.4838 45.1483 47.4085 45.1483 46.0779H46.971C46.971 46.406 47.2262 46.6611 47.5543 46.6611H49.0489C49.377 46.6611 49.6322 46.406 49.6322 46.0779H51.4549C51.4549 47.4085 50.3795 48.4838 49.0489 48.4838Z" fill="#399349"/>
<path id="Vector_26" d="M49.7415 43.5625H46.8252V45.3852H49.7415V43.5625Z" fill="#399349"/>
<g id="Group_2">
<path id="Vector_27" d="M49.1947 44.4739H47.372V47.5725H49.1947V44.4739Z" fill="#399349"/>
</g>
</g>
</g>
<defs>
<linearGradient id="paint0_linear_177_1088" x1="11.5047" y1="30.8887" x2="2.08043" y2="40.3129" gradientUnits="userSpaceOnUse">
<stop stop-color="#FFB20F"/>
<stop offset="0.075" stop-color="#FFB61A"/>
<stop offset="0.311" stop-color="#FFBF37"/>
<stop offset="0.546" stop-color="#FFC64B"/>
<stop offset="0.777" stop-color="#FFCA58"/>
<stop offset="1" stop-color="#FFCB5C"/>
</linearGradient>
<linearGradient id="paint1_linear_177_1088" x1="31.9812" y1="30.6714" x2="41.8152" y2="40.5054" gradientUnits="userSpaceOnUse">
<stop stop-color="#FFB20F"/>
<stop offset="0.075" stop-color="#FFB61A"/>
<stop offset="0.311" stop-color="#FFBF37"/>
<stop offset="0.546" stop-color="#FFC64B"/>
<stop offset="0.777" stop-color="#FFCA58"/>
<stop offset="1" stop-color="#FFCB5C"/>
</linearGradient>
<linearGradient id="paint2_linear_177_1088" x1="39.6107" y1="69.2443" x2="4.24852" y2="69.2443" gradientUnits="userSpaceOnUse">
<stop stop-color="#C12944"/>
<stop offset="1" stop-color="#D84861"/>
</linearGradient>
<linearGradient id="paint3_linear_177_1088" x1="21.8699" y1="44.231" x2="21.8699" y2="52.5549" gradientUnits="userSpaceOnUse">
<stop stop-color="#EF917B"/>
<stop offset="0.103" stop-color="#F09884"/>
<stop offset="0.408" stop-color="#F3A998"/>
<stop offset="0.709" stop-color="#F4B4A5"/>
<stop offset="1" stop-color="#F5B7A9"/>
</linearGradient>
<radialGradient id="paint4_radial_177_1088" cx="0" cy="0" r="1" gradientUnits="userSpaceOnUse" gradientTransform="translate(25.9405 14.7152) scale(17.078)">
<stop stop-color="#EF917B"/>
<stop offset="1" stop-color="#F5B7A9"/>
</radialGradient>
<linearGradient id="paint5_linear_177_1088" x1="3.23014" y1="9.62386" x2="40.5095" y2="9.62386" gradientUnits="userSpaceOnUse">
<stop stop-color="#FFCB5C"/>
<stop offset="0.156" stop-color="#FFCA58"/>
<stop offset="0.318" stop-color="#FFC64B"/>
<stop offset="0.482" stop-color="#FFBF37"/>
<stop offset="0.647" stop-color="#FFB61A"/>
<stop offset="0.7" stop-color="#FFB20F"/>
<stop offset="0.723" stop-color="#FFB61A"/>
<stop offset="0.793" stop-color="#FFBF37"/>
<stop offset="0.864" stop-color="#FFC64B"/>
<stop offset="0.933" stop-color="#FFCA58"/>
<stop offset="1" stop-color="#FFCB5C"/>
</linearGradient>
<linearGradient id="paint6_linear_177_1088" x1="6.75965" y1="65.8907" x2="6.75965" y2="91.3181" gradientUnits="userSpaceOnUse">
<stop stop-color="#EF917B"/>
<stop offset="0.103" stop-color="#F09884"/>
<stop offset="0.408" stop-color="#F3A998"/>
<stop offset="0.709" stop-color="#F4B4A5"/>
<stop offset="1" stop-color="#F5B7A9"/>
</linearGradient>
<linearGradient id="paint7_linear_177_1088" x1="36.9801" y1="65.8907" x2="36.9801" y2="91.3181" gradientUnits="userSpaceOnUse">
<stop stop-color="#EF917B"/>
<stop offset="0.103" stop-color="#F09884"/>
<stop offset="0.408" stop-color="#F3A998"/>
<stop offset="0.709" stop-color="#F4B4A5"/>
<stop offset="1" stop-color="#F5B7A9"/>
</linearGradient>
<radialGradient id="paint8_radial_177_1088" cx="0" cy="0" r="1" gradientUnits="userSpaceOnUse" gradientTransform="translate(14.0323 29.8011) scale(1.79171)">
<stop offset="0.5" stop-color="#EF917B"/>
<stop offset="1" stop-color="#EF917B" stop-opacity="0"/>
</radialGradient>
<radialGradient id="paint9_radial_177_1088" cx="0" cy="0" r="1" gradientUnits="userSpaceOnUse" gradientTransform="translate(29.5252 29.8011) scale(1.79171)">
<stop offset="0.5" stop-color="#EF917B"/>
<stop offset="1" stop-color="#EF917B" stop-opacity="0"/>
</radialGradient>
<linearGradient id="paint10_linear_177_1088" x1="48.299" y1="53.3445" x2="48.299" y2="89.8714" gradientUnits="userSpaceOnUse">
<stop stop-color="#E96B4E"/>
<stop offset="0.093" stop-color="#EA7256"/>
<stop offset="0.402" stop-color="#ED836A"/>
<stop offset="0.706" stop-color="#EE8D77"/>
<stop offset="1" stop-color="#EF917B"/>
</linearGradient>
<radialGradient id="paint11_radial_177_1088" cx="0" cy="0" r="1" gradientUnits="userSpaceOnUse" gradientTransform="translate(47.3378 32.1918) scale(11.4852)">
<stop stop-color="#F5B7A9"/>
<stop offset="1" stop-color="#EF917B"/>
</radialGradient>
<linearGradient id="paint12_linear_177_1088" x1="34.852" y1="51.6735" x2="34.852" y2="32.2512" gradientUnits="userSpaceOnUse">
<stop stop-color="#E96B4E"/>
<stop offset="0.093" stop-color="#EA7256"/>
<stop offset="0.402" stop-color="#ED836A"/>
<stop offset="0.706" stop-color="#EE8D77"/>
<stop offset="1" stop-color="#EF917B"/>
</linearGradient>
<linearGradient id="paint13_linear_177_1088" x1="61.746" y1="51.6735" x2="61.746" y2="32.2512" gradientUnits="userSpaceOnUse">
<stop stop-color="#E96B4E"/>
<stop offset="0.093" stop-color="#EA7256"/>
<stop offset="0.402" stop-color="#ED836A"/>
<stop offset="0.706" stop-color="#EE8D77"/>
<stop offset="1" stop-color="#EF917B"/>
</linearGradient>
</defs>
</svg>
