<svg width="109" height="79" viewBox="0 0 109 79" fill="none" xmlns="http://www.w3.org/2000/svg">
<g id="OBJECTS">
<path id="Vector" d="M33.8842 78.8667C52.598 78.8667 67.7685 77.3565 67.7685 75.4936C67.7685 73.6308 52.598 72.1206 33.8842 72.1206C15.1705 72.1206 0 73.6308 0 75.4936C0 77.3565 15.1705 78.8667 33.8842 78.8667Z" fill="#D8D8D8" fill-opacity="0.37"/>
<path id="Vector_2" d="M85.2272 78.3271C98.2155 78.3271 108.745 76.817 108.745 74.9541C108.745 73.0912 98.2155 71.5811 85.2272 71.5811C72.239 71.5811 61.71 73.0912 61.71 74.9541C61.71 76.817 72.239 78.3271 85.2272 78.3271Z" fill="#D8D8D8" fill-opacity="0.37"/>
<g id="Group">
<path id="Vector_3" d="M72.2958 60.1167C72.2958 60.1167 73.7345 67.4305 71.9361 69.2289C70.1377 71.0273 68.6987 72.3463 69.2983 73.4252C69.8979 74.5042 74.5739 73.1854 74.5739 73.1854L76.732 63.5936L72.2958 59.2773" fill="#F4EEE6"/>
<path id="Vector_4" d="M86.8027 71.6267C86.8027 71.6267 82.0068 71.6267 82.0068 72.9455C82.0068 74.2642 82.0068 74.2642 82.0068 74.2642C82.0068 74.2642 89.9199 74.2642 90.7593 74.2642C91.5986 74.2642 91.5986 71.6265 91.5986 71.6265H86.8027V71.6267Z" fill="#F4EEE6"/>
<path id="Vector_5" d="M98.3132 67.1904C98.3132 67.1904 99.7518 71.2669 101.431 71.9863C103.109 72.7058 99.872 73.6648 97.594 72.9456C95.3157 72.2259 98.3132 67.1904 98.3132 67.1904Z" fill="#F4EEE6"/>
<path id="Vector_6" d="M87.4025 68.3894C87.4025 68.3894 89.081 75.1036 94.8362 75.3434C96.9943 75.4333 97.5749 76.9271 97.9536 74.9837C99.752 65.7516 94.9561 65.6317 94.9561 65.6317C94.9561 65.6317 87.0428 61.7951 87.4025 68.3894Z" fill="#E6E6DE"/>
<g id="Group_2">
<path id="Vector_7" d="M97.354 62.0353C95.5139 59.7149 85.3643 51.0048 78.1707 42.3723C75.9298 39.6834 64.9821 31.5816 63.4235 31.7015C62.146 31.7997 62.0764 34.6353 61.6971 36.5137C60.9158 37.226 60.2905 38.2385 59.9466 39.6148L55.6303 43.5714C55.6303 43.5714 54.3116 44.2908 56.4697 45.8494C58.6278 47.408 60.786 46.2091 61.8652 46.0892C62.7458 45.9913 65.0996 45.8896 66.4213 46.2091C69.305 49.314 70.9773 53.1632 70.7375 57.9591C70.5652 61.4068 85.9644 75.9436 92.5587 73.6656C99.1524 71.3872 100.112 65.5121 97.354 62.0353Z" fill="white"/>
</g>
<g id="Group_3">
<g id="Clip path group">
<mask id="mask0_327_5825" style="mask-type:luminance" maskUnits="userSpaceOnUse" x="55" y="31" width="44" height="43">
<g id="SVGID_00000047026092969318583190000006157779041823693955_">
<path id="Vector_8" d="M97.354 62.0353C95.5139 59.7149 85.3643 51.0048 78.1707 42.3723C75.9298 39.6834 64.9821 31.5816 63.4235 31.7015C62.146 31.7997 62.0764 34.6353 61.6971 36.5137C60.9158 37.226 60.2905 38.2385 59.9466 39.6148L55.6303 43.5714C55.6303 43.5714 54.3116 44.2908 56.4697 45.8494C58.6278 47.408 60.786 46.2091 61.8652 46.0892C62.7458 45.9913 65.0996 45.8896 66.4213 46.2091C69.305 49.314 70.9773 53.1632 70.7375 57.9591C70.5652 61.4068 85.9644 75.9436 92.5587 73.6656C99.1524 71.3872 100.112 65.5121 97.354 62.0353Z" fill="white"/>
</g>
</mask>
<g mask="url(#mask0_327_5825)">
<g id="Group_4">
<path id="Vector_9" d="M67.2005 29.7227C67.2005 29.7227 70.1381 36.8566 67.2605 38.7749C64.3829 40.6932 60.1865 38.8948 60.1865 34.6984C60.1865 30.5021 67.2005 29.7227 67.2005 29.7227Z" fill="#A97E4E"/>
<path id="Vector_10" d="M69.5381 33.6196C69.5381 33.6196 70.0177 37.6961 72.2958 39.4945C74.5738 41.2929 81.288 42.2522 77.5713 38.6551C73.8543 35.0583 69.5381 33.6196 69.5381 33.6196Z" fill="#A97E4E"/>
<path id="Vector_11" d="M79.0106 41.1729C79.0106 41.1729 74.9342 44.1704 76.7326 48.7264C78.531 53.2825 78.8907 58.9175 82.7273 58.1983C86.5639 57.4789 87.6431 55.4407 88.9619 55.5606C90.2806 55.6805 93.1582 55.6805 93.1582 55.6805L79.0106 41.1729Z" fill="#A97E4E"/>
<path id="Vector_12" d="M82.0075 67.3106C82.0075 67.3106 81.6477 61.4358 82.607 60.9562C83.5663 60.4765 87.0812 57.4779 88.9615 57.7188C93.6375 58.3184 95.7956 62.7546 96.0355 62.7546C96.2753 62.7546 86.0839 67.5502 82.0075 67.3106Z" fill="#A97E4E"/>
<path id="Vector_13" d="M99.3922 61.3154L96.5146 65.272C96.5146 65.272 96.5146 69.3484 97.9533 70.5475C99.392 71.7466 99.392 71.7466 99.392 71.7466C99.392 71.7466 103.109 64.7926 99.3922 61.3154Z" fill="#A97E4E"/>
<path id="Vector_14" d="M54.791 42.3722C54.791 42.3722 56.7093 43.4512 59.1073 42.3722C61.5052 41.2933 63.6634 44.4105 65.9414 43.8109C68.2194 43.2113 68.4593 40.0942 66.0613 38.4154C63.6634 36.737 60.1865 34.6987 60.1865 34.6987L54.791 42.3722Z" fill="#A97E4E"/>
</g>
</g>
</g>
</g>
<path id="Vector_15" d="M96.9943 71.7471C96.9943 71.7471 98.433 74.9841 97.474 76.1832C96.5149 77.3821 85.0048 77.1425 85.0048 76.3032C85.0048 75.4638 84.8849 74.3848 87.4028 74.2649C89.9204 74.145 96.9943 71.7471 96.9943 71.7471Z" fill="white"/>
<path id="Vector_16" d="M61.0254 38.7749L63.0636 39.0147C63.0636 39.0147 61.7449 40.2136 61.3851 40.2136C61.0254 40.2138 61.0254 38.7749 61.0254 38.7749Z" fill="#560E00"/>
<path id="Vector_17" d="M56.4691 42.8521C56.4691 42.8521 56.3492 45.7296 55.6297 45.7296C54.9102 45.7296 53.232 43.5712 56.4691 42.8521Z" fill="#560E00"/>
<path id="Vector_18" d="M57.3086 46.3289C57.3086 46.3289 59.9464 46.3289 60.6656 44.6504L57.3086 46.3289Z" fill="#560E00"/>
<g id="Group_5">
<path id="Vector_19" d="M65.7014 34.0991C65.3987 34.362 65.1187 34.6553 64.93 34.9934C64.8344 35.1601 64.7667 35.34 64.7464 35.5188C64.7421 35.5635 64.74 35.6079 64.741 35.6521C64.7416 35.7032 64.7424 35.7581 64.74 35.8103C64.7354 35.9157 64.7266 36.0201 64.7108 36.1234C64.6436 36.5345 64.514 36.9395 64.2951 37.3027C64.0796 37.6654 63.7748 37.9903 63.3939 38.197C63.0165 38.4095 62.5791 38.4941 62.1608 38.4799C62.0553 38.4802 61.9517 38.4673 61.8479 38.4558L61.694 38.4306L61.6174 38.4175C61.5915 38.4135 61.5484 38.4023 61.5157 38.387C61.3688 38.3163 61.3131 38.1715 61.2912 38.0631C61.2676 37.9489 61.2679 37.8407 61.274 37.735C61.3064 37.3156 61.4191 36.9259 61.5454 36.5423C61.6739 36.1596 61.8166 35.7832 61.9847 35.4176C61.8666 35.8017 61.7534 36.1863 61.6613 36.5752C61.5744 36.9631 61.4876 37.3579 61.4833 37.7417C61.4799 37.9232 61.5219 38.1416 61.614 38.1675C61.6282 38.1753 61.679 38.1782 61.7293 38.1836L61.8739 38.197C61.9702 38.2002 62.0663 38.2061 62.1619 38.2023C62.5441 38.198 62.9175 38.1049 63.24 37.9221C63.8891 37.5508 64.2895 36.8252 64.4469 36.0763C64.468 35.9824 64.4827 35.8873 64.4934 35.7929C64.4991 35.745 64.5015 35.6997 64.5044 35.6505C64.5068 35.5943 64.5135 35.5389 64.5229 35.484C64.5646 35.265 64.6669 35.0718 64.7863 34.9013C65.0357 34.5665 65.3524 34.3004 65.7014 34.0991Z" fill="#560E00"/>
</g>
<path id="Vector_20" d="M74.6934 58.9176C74.6934 58.9176 75.1731 65.9916 75.0532 69.5884C74.9333 73.1852 73.4946 74.6241 73.6145 75.703C73.7344 76.782 77.691 77.0218 78.1706 75.823C78.6502 74.6241 80.3287 65.0323 80.3287 61.795C80.3287 58.5582 74.6934 58.9176 74.6934 58.9176Z" fill="white"/>
</g>
<g id="Group_6">
<g id="Group_7">
<path id="Vector_21" d="M45.4287 20.6943L37.6864 7.31569C38.2836 5.763 39.6778 3.97933 41.3932 2.74623C41.3932 2.74623 38.5156 -0.221302 35.4584 3.46569C32.401 7.15242 23.674 18.9548 30.9623 24.9571C34.0198 27.4749 42.9221 34.2191 42.9221 34.2191C42.9221 34.2191 48.0478 34.4889 49.9361 30.1727C51.8242 25.8564 45.4287 20.6943 45.4287 20.6943Z" fill="#560E00"/>
<g id="Group_8">
<g id="Group_9">
<path id="Vector_22" d="M38.3011 10.3667C38.3011 10.3667 33.4795 19.4269 31.7988 20.6464C31.7988 20.6464 33.2624 25.6529 38.2325 24.07L42.6518 14.7959L38.3011 10.3667Z" fill="#ED815C"/>
<g id="Group_10">
<g id="Clip path group_2">
<mask id="mask1_327_5825" style="mask-type:luminance" maskUnits="userSpaceOnUse" x="31" y="10" width="12" height="15">
<g id="SVGID_00000117666619645501346990000009074607439138496428_">
<path id="Vector_23" d="M38.3011 10.3667C38.3011 10.3667 33.4795 19.4269 31.7988 20.6464C31.7988 20.6464 33.2624 25.6529 38.2325 24.07L42.6518 14.7959L38.3011 10.3667Z" fill="white"/>
</g>
</mask>
<g mask="url(#mask1_327_5825)">
<path id="Vector_24" d="M37.3467 12.5483C37.3467 12.5483 38.2332 20.1255 40.823 21.5037C43.4129 22.8818 43.0914 19.2128 43.0914 19.2128L39.9582 13.4795" fill="#560E00"/>
</g>
</g>
</g>
</g>
<path id="Vector_25" d="M51.964 12.0519C51.5856 17.0687 49.7647 21.0214 45.4281 20.6944C41.0915 20.3673 35.8812 15.884 36.2597 10.867C36.6382 5.85001 39.7628 1.37637 46.7988 2.5265C51.0909 3.2283 52.3428 7.03494 51.964 12.0519Z" fill="#ED815C"/>
<g id="Group_11">
<g id="Clip path group_3">
<mask id="mask2_327_5825" style="mask-type:luminance" maskUnits="userSpaceOnUse" x="36" y="2" width="17" height="19">
<g id="SVGID_00000098907209393535753810000009457069841156552344_">
<path id="Vector_26" d="M51.964 12.0519C51.5856 17.0687 49.7647 21.0214 45.4281 20.6944C41.0915 20.3673 35.8812 15.884 36.2597 10.867C36.6382 5.85001 39.7628 1.37637 46.7988 2.5265C51.0909 3.2283 52.3428 7.03494 51.964 12.0519Z" fill="white"/>
</g>
</mask>
<g mask="url(#mask2_327_5825)">
<path id="Vector_27" d="M37.7886 16.9953C37.7886 16.9953 38.0359 13.3556 38.9829 13.1174C39.9299 12.8792 39.9813 12.028 40.6319 11.6126C41.2826 11.1972 41.7213 6.46369 42.1033 5.45275C43.7721 1.03451 53.1835 10.3806 53.6685 10.1076C54.1538 9.83459 52.6089 -1.41912 52.6089 -1.41912L33.1396 -1.95898L34.0957 12.0487L37.7886 16.9953Z" fill="#560E00"/>
</g>
</g>
</g>
<path id="Vector_28" d="M40.313 11.7435C40.313 11.7435 38.119 6.65955 36.9839 10.7181C36.1357 13.7509 39.0261 14.4334 39.5344 13.8523" fill="#ED815C"/>
<g id="Group_12">
<path id="Vector_29" d="M45.83 10.9698C45.7981 11.3927 45.5762 11.7206 45.3348 11.7024C45.0931 11.6842 44.9232 11.3266 44.955 10.9037C44.9869 10.4808 45.2088 10.1529 45.4502 10.1711C45.6919 10.1893 45.8618 10.5469 45.83 10.9698Z" fill="#560E00"/>
<path id="Vector_30" d="M50.7177 11.3385C50.6858 11.7614 50.4639 12.0893 50.2225 12.0711C49.9808 12.0529 49.8109 11.6953 49.8427 11.2724C49.8746 10.8495 50.0964 10.5216 50.3379 10.5398C50.5796 10.5583 50.7495 10.9158 50.7177 11.3385Z" fill="#560E00"/>
<g id="Group_13">
<path id="Vector_31" d="M48.6122 10.5117C48.874 11.0891 49.1168 11.6667 49.3906 12.2239C49.5295 12.5007 49.6695 12.7764 49.8368 13.0272C49.9963 13.2742 50.1994 13.5239 50.4165 13.5992L50.7944 13.73L50.443 13.8754C50.0803 14.0255 49.7134 14.1414 49.3312 14.2161C49.1411 14.2541 48.9473 14.2798 48.7519 14.2817C48.5582 14.2844 48.3585 14.2675 48.1797 14.195C48.37 14.2217 48.5574 14.1976 48.7407 14.1655C48.924 14.1318 49.1042 14.0815 49.2822 14.0239C49.6366 13.9094 49.9872 13.7646 50.3202 13.6083L50.3467 13.8845C50.1464 13.8358 50 13.7167 49.8796 13.5957C49.7591 13.4726 49.658 13.3401 49.5683 13.2028C49.3927 12.926 49.249 12.638 49.1291 12.3417C49.0057 12.0473 48.9045 11.7451 48.8181 11.4402C48.7303 11.1354 48.6585 10.8259 48.6122 10.5117Z" fill="#560E00"/>
</g>
<path id="Vector_32" d="M46.0691 15.3359L49.5291 15.8576C49.5291 15.8576 49.576 17.584 47.7776 17.3142C45.9792 17.0444 46.0691 15.3359 46.0691 15.3359Z" fill="white"/>
<g id="Group_14">
<path id="Vector_33" d="M43.915 9.15078C44.0438 8.9214 44.2579 8.74421 44.498 8.6251C44.7389 8.50224 45.0127 8.44737 45.2838 8.44336C45.555 8.45246 45.8218 8.5084 46.0641 8.61547C46.1867 8.66445 46.2972 8.73859 46.4096 8.80229C46.5145 8.88125 46.6165 8.96181 46.7094 9.05175C46.5798 9.02337 46.461 8.98216 46.3422 8.94549C46.2198 8.91792 46.1034 8.87911 45.9851 8.85422C45.7485 8.80283 45.5148 8.76857 45.2817 8.76535C44.8165 8.76535 44.358 8.88446 43.915 9.15078Z" fill="#560E00"/>
</g>
<g id="Group_15">
<path id="Vector_34" d="M51.1344 9.55143C51.0297 9.51208 50.9377 9.46257 50.8448 9.4168C50.7484 9.37718 50.6588 9.32981 50.5664 9.29207C50.3815 9.21659 50.1995 9.15101 50.0132 9.10979C49.6403 9.03083 49.2594 9.03351 48.8408 9.14619C48.9811 8.97436 49.188 8.86381 49.4056 8.80734C49.6248 8.74738 49.8595 8.75113 50.0825 8.79529C50.3033 8.85043 50.5118 8.9433 50.6903 9.07419C50.7816 9.13602 50.8587 9.21685 50.9382 9.28992C51.0089 9.37424 51.0771 9.45908 51.1344 9.55143Z" fill="#560E00"/>
</g>
</g>
<g id="Group_16">
<path id="Vector_35" d="M38.4548 13.4384C38.4366 13.2428 38.4307 13.0452 38.4414 12.8474C38.454 12.6494 38.469 12.4505 38.5482 12.2492C38.5696 12.1992 38.5959 12.1483 38.6405 12.102C38.6823 12.0557 38.7522 12.015 38.8268 12.0123C38.9781 12.011 39.0728 12.0929 39.1542 12.1598C39.3156 12.3038 39.4288 12.4722 39.5401 12.6395L39.3156 12.7313C39.1935 12.318 39.0549 11.9039 38.897 11.5057C38.8177 11.3065 38.7262 11.1135 38.6277 10.9302C38.5287 10.7522 38.4077 10.5713 38.2704 10.4835C38.204 10.4425 38.1416 10.4273 38.0935 10.4479C38.0413 10.4647 37.9821 10.5311 37.9385 10.6133C37.8453 10.7787 37.7964 10.9894 37.7624 11.1968C37.7284 11.4064 37.7155 11.6216 37.7153 11.837C37.7233 12.0501 37.7289 12.2741 37.8346 12.4674C37.6799 12.3003 37.6382 12.0643 37.5929 11.8488C37.5514 11.6277 37.5423 11.4021 37.5506 11.1754C37.5651 10.9487 37.5951 10.7201 37.6963 10.4904C37.7509 10.3802 37.8261 10.2549 37.9786 10.1829C38.1336 10.1082 38.3108 10.1524 38.4291 10.2212C38.6662 10.3713 38.7867 10.5777 38.9063 10.7742C39.0222 10.9736 39.1079 11.1829 39.1892 11.3916C39.3488 11.8111 39.4663 12.2377 39.5549 12.6759L39.7069 13.4285L39.3303 12.7677C39.2364 12.6028 39.1336 12.4393 39.0134 12.3097C38.9548 12.2463 38.8817 12.1944 38.8322 12.193C38.787 12.1853 38.7289 12.2393 38.6858 12.3167C38.6004 12.4727 38.5576 12.6678 38.5241 12.8571C38.4931 13.0479 38.4698 13.2425 38.4548 13.4384Z" fill="#560E00"/>
</g>
</g>
<path id="Vector_36" d="M40.7525 3.17559C36.7403 -1.40512 51.8333 -1.47712 56.32 7.60213C58.0729 11.1491 52.0937 12.2781 52.0937 12.2781C49.8935 9.93504 46.221 4.69991 40.7525 3.17559Z" fill="#560E00"/>
</g>
<path id="Vector_37" d="M33.7492 54.9915L16.2489 50.9478C16.2489 50.9478 9.83013 68.7227 24.1488 70.2042C38.4675 71.6854 42.4176 72.6728 42.4176 72.6728L51.8236 61.2561L33.7492 54.9915Z" fill="#5E8B99"/>
<path id="Vector_38" d="M36.1772 21.0006C46.4283 29.9029 43.2876 39.3595 39.1447 42.5819C31.8609 48.2469 33.7493 55.2609 33.7493 55.2609C33.7493 55.2609 18.1437 65.2732 15.6748 56.8794C13.2059 48.4856 26.9414 12.9802 36.1772 21.0006Z" fill="#BA4325"/>
<g id="Group_17">
<path id="Vector_39" d="M33.2093 24.5079C30.6443 27.6836 33.4992 56.5455 42.3705 53.9779C48.7059 52.1442 54.7007 39.3153 54.7007 39.3153C54.7007 39.3153 58.09 39.2163 59.5565 37.0972C61.023 34.9781 64.1426 33.0507 64.1426 33.0507C64.1426 33.0507 63.0744 31.187 57.3984 33.1407C54.6723 34.0791 44.2698 44.2011 42.9208 44.7407C41.572 45.2798 38.8743 17.4939 33.2093 24.5079Z" fill="#ED815C"/>
<g id="Group_18">
<path id="Vector_40" d="M58.1182 33.6796C58.2651 33.4644 58.4442 33.2803 58.635 33.1106C58.8248 32.939 59.033 32.7891 59.2514 32.6539C59.4725 32.5236 59.7032 32.404 59.9535 32.3271C60.2 32.2487 60.4671 32.1976 60.726 32.241C60.4827 32.332 60.2677 32.4433 60.052 32.5584C59.8381 32.6754 59.6272 32.7998 59.4184 32.9291C58.9947 33.1796 58.5823 33.4513 58.1182 33.6796Z" fill="#560E00"/>
</g>
<g id="Group_19">
<path id="Vector_41" d="M59.5566 34.3994C59.755 34.1393 59.9822 33.9083 60.2215 33.6917C60.46 33.4736 60.7161 33.2763 60.9809 33.0892C61.2507 32.9096 61.5306 32.741 61.8315 32.6093C62.1286 32.4827 62.4642 32.3695 62.7937 32.4209C62.4792 32.5049 62.2166 32.6698 61.9482 32.832C61.6845 33.002 61.4225 33.1751 61.1629 33.3547C60.6401 33.7107 60.123 34.0777 59.5566 34.3994Z" fill="#560E00"/>
</g>
</g>
<g id="Group_20">
<path id="Vector_42" d="M51.8237 61.2563C51.8237 61.2563 64.7725 65.8724 60.4563 73.0663C59.1022 75.3231 56.7307 76.052 51.5464 76.4832C40.2055 77.4267 23.5793 75.2244 18.6424 75.2244C11.4485 75.2244 9.74004 74.3251 6.77251 74.415C0.271352 74.612 6.68686 71.6123 11.3586 68.75C14.1829 67.0196 16.969 66.1599 18.3726 66.8617C21.9694 68.6601 17.1676 70.9239 24.5772 69.2896C42.9214 65.2431 45.9486 68.0907 45.9486 68.0907L51.8237 61.2563Z" fill="#ED815C"/>
<g id="Group_21">
<path id="Vector_43" d="M50.984 70.6079L47.998 69.0835C47.5031 68.8277 47.0018 68.586 46.5018 68.3397L44.9893 67.6104C45.5366 67.7402 46.0789 67.9008 46.6019 68.109C47.1278 68.3105 47.6412 68.5429 48.1436 68.7961C49.1439 69.3095 50.1125 69.8919 50.984 70.6079Z" fill="#560E00"/>
</g>
</g>
<path id="Vector_44" d="M38.3615 14.0315C38.3615 14.0315 37.7639 18.5132 34.6269 20.754C31.3968 23.0613 28.8008 21.9491 28.8008 21.9491L36.3699 12.8364L38.3615 14.0315Z" fill="#560E00"/>
</g>
</g>
</svg>
