<svg width="62" height="63" viewBox="0 0 62 63" fill="none" xmlns="http://www.w3.org/2000/svg">
<g id="pdf-svgrepo-com 1">
<path id="Vector" d="M45.9863 41.1015C45.2308 41.3282 44.1216 41.3537 42.9325 41.1784C41.6562 40.9903 40.3544 40.5939 39.0748 40.0097C41.3566 39.6724 43.1267 39.7763 44.6407 40.3214C44.9994 40.4506 45.5886 40.7958 45.9863 41.1015ZM33.2555 38.9748C33.1627 39.0005 33.0712 39.0247 32.9802 39.0504C32.3663 39.2202 31.7689 39.3859 31.1932 39.5333L30.417 39.7333C28.8555 40.1348 27.259 40.5449 25.6822 41.0333C26.2814 39.5649 26.8382 38.0803 27.3833 36.6288C27.787 35.5544 28.1991 34.4567 28.6254 33.3733C28.8416 33.7362 29.0673 34.0992 29.3021 34.4632C30.3719 36.1188 31.7167 37.6496 33.2555 38.9748ZM29.2836 22.4163C29.3849 24.2282 29.0001 25.9713 28.4358 27.6435C27.7406 25.5758 27.4167 23.2925 28.2857 21.4491C28.5086 20.9766 28.6912 20.724 28.8096 20.5922C28.9925 20.8791 29.2331 21.5211 29.2836 22.4163ZM21.1318 45.3685C20.7412 46.0785 20.3426 46.7432 19.9339 47.3708C18.9478 48.8809 17.335 50.4978 16.5065 50.4978C16.425 50.4978 16.3263 50.4844 16.1822 50.3298C16.0894 50.2308 16.0745 50.16 16.079 50.0633C16.1069 49.5081 16.8309 48.5193 17.8796 47.6025C18.8315 46.7707 19.9074 46.0313 21.1318 45.3685ZM48.6244 41.1801C48.4977 39.3307 45.434 38.1443 45.4038 38.1333C44.2194 37.7066 42.9328 37.4993 41.4705 37.4993C39.9052 37.4993 38.2175 37.7294 36.0502 38.244C34.1217 36.8548 32.4557 35.1157 31.2111 33.1904C30.6614 32.3398 30.1673 31.4907 29.7365 30.6613C30.7881 28.1065 31.735 25.3595 31.5629 22.2829C31.4242 19.816 30.3294 18.159 28.8406 18.159C27.8194 18.159 26.94 18.9276 26.225 20.4455C24.9495 23.1505 25.2848 26.6115 27.2211 30.7415C26.5237 32.4058 25.8758 34.1312 25.2487 35.8015C24.4684 37.8784 23.6644 40.0212 22.7583 42.0596C20.2171 43.0813 18.1295 44.3203 16.3897 45.8415C15.2499 46.8362 13.8759 48.3569 13.7975 49.9444C13.7592 50.692 14.0115 51.3776 14.5241 51.927C15.0688 52.5102 15.7531 52.8173 16.5054 52.8183C18.9904 52.8183 21.382 49.349 21.8357 48.6532C22.7488 47.2546 23.6035 45.6945 24.441 43.8951C26.5502 43.1205 28.798 42.5423 30.9767 41.9835L31.757 41.7821C32.3435 41.6306 32.9531 41.463 33.5784 41.2891C34.2401 41.1073 34.9208 40.9188 35.6128 40.7397C37.8499 42.1854 40.2556 43.1284 42.6019 43.4744C44.5781 43.7666 46.3332 43.5971 47.5212 42.9677C48.5903 42.402 48.6492 41.529 48.6244 41.1801ZM53.437 57.0824C53.437 60.4693 50.4993 60.6781 49.9065 60.6849H12.0045C8.68342 60.6849 8.48344 57.6793 8.4771 57.0824L8.47665 5.91636C8.47665 2.52614 11.4198 2.32061 12.004 2.3138H37.6076L37.6212 2.32754V12.4802C37.6212 14.5178 38.8335 18.3754 43.4244 18.3754H53.3514L53.4367 18.4618L53.437 57.0824ZM51.0836 16.0612H43.4261C40.106 16.0612 39.9052 13.072 39.9007 12.4806V4.65109L51.0836 16.0612ZM55.7142 57.0824V17.5072L39.9007 1.37186V1.29679H39.825L38.555 0H12.0046C9.99674 0 6.19995 1.2369 6.19995 5.91745V57.0835C6.19995 59.1298 7.41353 63 12.0046 63H49.9101C51.9175 62.9995 55.7142 61.7625 55.7142 57.0824Z" fill="#EB5757"/>
</g>
</svg>
