<svg width="73" height="45" viewBox="0 0 73 45" fill="none" xmlns="http://www.w3.org/2000/svg">
<g id="Group 48095873">
<path id="Vector" d="M71.6339 34.2414C71.6339 39.8065 67.1226 44.3178 61.5575 44.3178H10.6672C5.10217 44.3178 0.59082 39.8065 0.59082 34.2414C0.59082 29.2796 4.20073 25.0318 9.12803 24.4473C27.0547 22.3209 45.1701 22.3209 63.0967 24.4473C68.024 25.0318 71.6339 29.2796 71.6339 34.2414Z" fill="#85BD79"/>
<path id="Vector_2" d="M71.6339 44.8851H0.590799C0.438849 44.8851 0.293122 44.8248 0.185677 44.7173C0.0782325 44.6099 0.0178706 44.4642 0.0178706 44.3122C0.0178706 44.1603 0.0782325 44.0145 0.185677 43.9071C0.293122 43.7996 0.438849 43.7393 0.590799 43.7393H71.6339C71.7859 43.7393 71.9316 43.7996 72.039 43.9071C72.1465 44.0145 72.2068 44.1603 72.2068 44.3122C72.2068 44.4642 72.1465 44.6099 72.039 44.7173C71.9316 44.8248 71.7859 44.8851 71.6339 44.8851ZM71.6339 26.1962C71.5767 26.1962 71.5196 26.1917 71.4631 26.1829C48.0077 22.4951 24.1196 22.4996 0.66528 26.1962C0.51333 26.219 0.358549 26.1805 0.234987 26.0892C0.111425 25.9978 0.0292045 25.8612 0.006412 25.7092C-0.0163805 25.5573 0.0221224 25.4025 0.113451 25.2789C0.204779 25.1554 0.341451 25.0732 0.493401 25.0504C24.0895 21.3263 48.1237 21.3263 71.7199 25.0504C71.8669 25.0717 71.9999 25.1494 72.0908 25.267C72.1816 25.3846 72.2233 25.5329 72.2068 25.6806C72.1926 25.8224 72.126 25.9538 72.0201 26.0492C71.9141 26.1445 71.7764 26.1969 71.6339 26.1962Z" fill="#333736"/>
<path id="Vector_3" d="M18.2997 23.6924C17.4304 25.9231 15.5304 27.5916 13.206 28.1655L11.9178 28.4835C10.9828 28.7143 10.0865 29.0801 9.25689 29.5693L8.69605 29.9001C7.82094 30.4162 7.00305 31.0236 6.25612 31.7123L4.51504 33.3176C4.44269 33.3826 4.38483 33.4621 4.34523 33.5509C4.30562 33.6398 4.28516 33.736 4.28516 33.8332C4.28516 33.9305 4.30562 34.0267 4.34523 34.1155C4.38483 34.2043 4.44269 34.2838 4.51504 34.3489C4.90135 34.7434 5.38554 35.0282 5.91806 35.1742C6.45059 35.3201 7.01234 35.322 7.54583 35.1796C10.066 34.2588 12.1955 32.1764 14.8192 31.6149L15.7956 31.4059C17.2859 31.087 18.6982 30.4755 19.9506 29.607L26.2405 25.245" fill="#CD9F61"/>
<path id="Vector_4" d="M6.6983 35.8672C5.72802 35.8497 4.80051 35.4648 4.10294 34.7901C3.97308 34.6692 3.86945 34.5229 3.79849 34.3603C3.72753 34.1977 3.69075 34.0222 3.69043 33.8448C3.69105 33.6699 3.72804 33.4971 3.79906 33.3373C3.87007 33.1775 3.97356 33.0343 4.10294 32.9166L7.00196 30.2754L7.09362 30.2067L10.2161 28.3676C10.2634 28.3374 10.3158 28.3161 10.3708 28.3046L11.7814 27.9499C14.7103 27.2136 17.0669 25.0439 18.0423 22.1857C18.0591 22.1065 18.0926 22.0318 18.1404 21.9665C18.1882 21.9011 18.2493 21.8467 18.3197 21.8067C18.3901 21.7667 18.4682 21.7421 18.5488 21.7345C18.6294 21.7269 18.7107 21.7364 18.7873 21.7625C18.864 21.7886 18.9342 21.8306 18.9934 21.8858C19.0526 21.9411 19.0995 22.0082 19.1308 22.0828C19.1622 22.1575 19.1774 22.2379 19.1754 22.3188C19.1735 22.3998 19.1544 22.4794 19.1194 22.5524L17.4522 27.4624C17.4217 27.553 17.369 27.6345 17.299 27.6996C17.2289 27.7646 17.1437 27.8111 17.0511 27.8348L12.7404 28.9007C11.4198 29.2272 10.1539 29.7447 8.98264 30.4367C8.16467 30.92 7.39806 31.4853 6.69468 32.124L4.88785 33.7646C4.87448 33.776 4.86353 33.79 4.85566 33.8058C4.84778 33.8215 4.84315 33.8387 4.84202 33.8563C4.843 33.8761 4.84809 33.8955 4.85696 33.9132C4.86584 33.931 4.87831 33.9467 4.89358 33.9594C5.20551 34.2873 5.59963 34.5256 6.03492 34.6496C6.4702 34.7735 6.93075 34.7785 7.36863 34.6641C8.56911 34.2202 9.57375 33.3657 10.2046 32.252C10.2429 32.1773 10.2971 32.1119 10.3634 32.0604C10.4297 32.0089 10.5066 31.9726 10.5885 31.9541L12.5116 31.5425C16.0295 30.7894 19.3615 29.3409 22.3118 27.282L25.9201 24.7639C25.9805 24.7092 26.0519 24.6681 26.1294 24.6432C26.207 24.6184 26.289 24.6103 26.3699 24.6197C26.4508 24.629 26.5288 24.6555 26.5987 24.6973C26.6686 24.7392 26.7288 24.7955 26.7752 24.8624C26.8216 24.9294 26.8532 25.0054 26.8679 25.0856C26.8826 25.1657 26.88 25.248 26.8603 25.3271C26.8407 25.4061 26.8044 25.4801 26.7539 25.544C26.7034 25.6079 26.6398 25.6603 26.5675 25.6977L18.3517 31.3526C18.2916 31.395 18.2233 31.4243 18.1511 31.4385L15.3864 32.041C12.621 32.6436 10.3534 34.8005 7.67801 35.724C7.36024 35.8196 7.03013 35.8678 6.6983 35.8672Z" fill="#333736"/>
<path id="Vector_5" d="M47.2268 23.1484C48.6024 25.1059 50.845 26.2709 53.2375 26.2709H54.5383C55.5214 26.2709 56.4989 26.4181 57.4384 26.7075L58.1074 26.9136C59.0328 27.1987 59.9272 27.5757 60.7774 28.039L62.9365 29.2157C63.0213 29.2627 63.0954 29.3269 63.1542 29.404C63.2129 29.4812 63.2549 29.5698 63.2775 29.6641C63.3001 29.7584 63.3029 29.8564 63.2856 29.9518C63.2683 30.0472 63.2314 30.138 63.1771 30.2184C62.898 30.6939 62.497 31.0864 62.0156 31.3553C61.5342 31.6242 60.9898 31.7598 60.4385 31.7481C57.7611 31.4475 55.1882 29.9103 52.4953 29.9923L51.4916 30.0228C49.9848 30.0687 48.4838 29.8161 47.075 29.2796L39.8818 26.5402" fill="#CD9F61"/>
<path id="Vector_6" d="M60.5994 32.2921H60.4161C57.6 32.0328 54.8814 30.4908 52.0548 30.5776L49.2096 30.665C49.1354 30.6709 49.0607 30.6592 48.9919 30.6306L39.6818 27.0784C39.5541 27.0152 39.4546 26.9066 39.4027 26.7739C39.3507 26.6412 39.3501 26.4939 39.401 26.3608C39.4518 26.2276 39.5504 26.1182 39.6775 26.0539C39.8047 25.9895 39.9512 25.9749 40.0886 26.0128L44.2514 27.5991C47.5775 28.8666 51.1214 29.4639 54.6793 29.3567L56.7035 29.2957C56.7864 29.2934 56.8687 29.3091 56.9449 29.3418C57.021 29.3744 57.0892 29.4232 57.1447 29.4847C58.0211 30.4181 59.2011 31.0091 60.4734 31.152C60.9268 31.158 61.3735 31.0427 61.7674 30.8181C62.1612 30.5934 62.4879 30.2676 62.7136 29.8743C62.7211 29.8562 62.725 29.8367 62.725 29.817C62.725 29.8136 62.7249 29.8102 62.7247 29.8068C62.7224 29.7746 62.7131 29.7416 62.6934 29.716C62.6834 29.7031 62.6708 29.6926 62.6563 29.6853L60.5193 28.5249C59.6812 28.0698 58.7985 27.702 57.8851 27.4274C56.5849 27.0364 55.2345 26.8378 53.8768 26.8378H49.4216C49.3307 26.8374 49.2412 26.8154 49.1605 26.7735C49.0798 26.7317 49.0103 26.6712 48.9575 26.5972L46.7575 23.4747C46.6827 23.3507 46.6577 23.2029 46.6874 23.0612C46.7172 22.9195 46.7995 22.7942 46.9179 22.7107C47.0362 22.6272 47.1818 22.5917 47.3253 22.6112C47.4688 22.6307 47.5996 22.7038 47.6914 22.8159C48.9634 24.6126 51.028 25.6805 53.2295 25.6805H55.9348C55.9927 25.6805 56.0505 25.6735 56.1083 25.6739C56.1615 25.6743 56.2134 25.6885 56.2642 25.7044L59.6598 26.7691L59.7687 26.8149L63.2063 28.6826C63.3593 28.767 63.4936 28.8817 63.6009 29.0195C63.7083 29.1574 63.7865 29.3157 63.8308 29.4847C63.8738 29.6568 63.8803 29.836 63.8497 30.0107C63.8191 30.1853 63.7521 30.3517 63.6532 30.4988C63.3386 31.0327 62.8931 31.4776 62.3588 31.7914C61.8245 32.1052 61.2189 32.2775 60.5994 32.2921Z" fill="#333736"/>
<path id="Vector_7" d="M41.3729 14.3065C40.8921 14.1486 40.3638 14.3024 40.0429 14.6936C39.7879 15.0047 39.3962 15.1636 38.994 15.1661C37.7254 15.174 36.4767 15.5123 35.3731 16.1528C33.5225 17.1211 30.2683 14.7892 26.2463 15.1903C22.2244 15.5913 21.5712 17.0294 19.9441 16.3877C18.317 15.746 15.1143 16.72 13.1778 17.2815C11.2413 17.8429 8.02148 18.0091 6.25114 17.2815C4.76152 16.6742 2.53856 17.4304 1.8625 17.6825L1.77084 17.7169C1.71501 17.742 1.70095 17.8149 1.74341 17.859L1.80521 17.9232L1.85678 17.969C2.57294 18.6909 5.14538 21.08 7.54022 21.1487C10.2444 21.2232 12.645 20.0029 14.8966 19.5102L15.1945 19.4586C16.1136 19.2596 17.0672 19.3067 17.9596 19.5927C17.9934 19.6035 17.9821 19.6479 17.947 19.6422L17.9095 19.6362C17.8781 19.6312 17.8761 19.6369 17.908 19.6363C17.9095 19.6362 17.9108 19.6363 17.9123 19.6365C17.9385 19.6408 18.2106 19.6878 18.1451 19.8024C18.0764 19.9227 19.228 22.6212 19.5144 23.8129C20.1508 26.3478 30.6294 30.9726 33.2397 31.1042C34.1723 31.1512 35.229 31.1485 36.4261 31.0824C36.6057 31.0725 36.79 31.047 36.9672 31.0161C37.4178 30.9375 38.3562 30.8023 39.0883 30.887C39.4384 30.9275 39.7876 31.0031 40.14 31.0031C41.1914 31.0031 42.1776 30.3253 43.1924 30.0501C44.3726 29.7301 45.9304 29.8736 47.0723 28.9291C47.8885 28.2876 48.564 27.4851 49.0568 26.5714C49.5496 25.6578 49.8492 24.6525 49.9369 23.6181C50.0114 22.2087 50.2291 20.2492 50.3437 19.2695C50.3437 19.1893 50.3437 19.1263 50.3437 19.0633C50.4567 18.0686 49.916 17.1136 48.965 16.8011L41.3729 14.3065Z" fill="#E8BF87"/>
<path id="Vector_8" d="M1.84947 17.6465C1.80283 17.6283 1.75678 17.6708 1.77643 17.7168C1.82298 17.8828 1.92357 18.0254 2.04777 18.145C2.9526 19.0161 5.32554 21.0792 7.54582 21.1429C10.3646 21.2231 12.8626 19.8538 15.2001 19.4241C16.7941 19.0864 17.3222 18.459 15.7073 18.2427C15.5798 18.2256 15.4727 18.2181 15.3949 18.221C14.277 18.2645 13.1771 18.5171 12.1522 18.9658C7.35103 21.1086 4.96192 19.384 1.8681 17.6538L1.84947 17.6465ZM50.6071 17.3043C50.0342 17.2126 49.0717 16.8861 48.9514 17.3673C48.6649 18.5533 48.6993 22.0997 48.4873 23.3029C48.0977 25.5316 47.7024 26.3394 46.4018 27.1701C45.2101 27.9264 42.9643 27.9493 41.9387 28.9233C41.5573 29.3052 41.2447 29.7476 41.0126 30.2308C40.8454 30.5788 41.1224 30.9515 41.5085 30.9515C41.7145 30.9515 41.8993 30.8364 42.0335 30.68C43.1006 29.4357 45.4737 30.2182 47.0492 28.9061C47.8659 28.2651 48.5418 27.4627 49.0347 26.5489C49.5275 25.6352 49.8268 24.6296 49.9139 23.5951C49.9884 22.1857 50.2061 20.2205 50.3207 19.2408C50.3207 19.1721 50.3207 19.1033 50.3207 19.0346C50.3207 18.9658 50.6415 17.31 50.6071 17.3043Z" fill="#CD9F61"/>
<path id="Vector_9" d="M36.6857 31.6159C30.7215 31.6159 27.1235 30.7794 25.9719 29.0606C25.6334 28.5574 25.1378 28.0817 24.5344 28.0199C20.7045 27.6273 18.931 24.5394 18.1434 22.2549C17.6804 20.9116 16.7225 19.7704 15.3269 20.037C14.4468 20.2152 13.5797 20.4525 12.7315 20.7475C11.0821 21.3706 9.33801 21.7058 7.57516 21.7386C4.52145 21.6126 1.39327 18.2953 1.26149 18.175C1.2012 18.1081 1.15754 18.0279 1.13406 17.9409C1.11058 17.8539 1.10794 17.7626 1.12636 17.6744C1.14478 17.5862 1.18373 17.5036 1.24006 17.4333C1.29639 17.363 1.36851 17.307 1.45056 17.2698C1.5766 17.2125 4.51573 15.975 6.4866 16.7771C8.09653 17.4417 11.1789 17.3042 13.0352 16.7771L13.1669 16.737C15.2581 16.1297 18.415 15.2072 20.1739 15.9005C20.7926 16.1468 21.1879 15.9979 22.0588 15.6656C23.3782 15.1278 24.7705 14.7898 26.1896 14.663C28.0818 14.5545 29.9776 14.7973 31.7814 15.3791C33.1736 15.7515 34.3768 16.0724 35.1044 15.6885C35.724 15.3129 36.4144 15.0691 37.1325 14.9723C38.2787 14.8632 39.3565 14.3776 40.1977 13.5916C40.2747 13.5238 40.3685 13.4779 40.4693 13.4588C40.5701 13.4397 40.6741 13.4479 40.7706 13.4827L50.8026 17.0521C50.9263 17.098 51.0303 17.1853 51.0971 17.299C51.2292 17.524 51.1524 17.8059 51.117 18.0644C50.9728 19.115 50.5741 22.04 50.476 23.5949C50.3893 24.7082 50.0739 25.7915 49.5494 26.7774C49.025 27.7632 48.3028 28.6302 47.4281 29.3242C46.816 29.8534 46.0747 30.2112 45.2796 30.3612C45.0066 30.3836 44.744 30.4761 44.5172 30.6297C44.2904 30.7832 44.107 30.9927 43.9848 31.2378C43.9348 31.3244 43.863 31.3964 43.7766 31.4466C43.6901 31.4969 43.592 31.5236 43.492 31.5242H40.2894C38.9774 31.5815 37.7857 31.6159 36.6857 31.6159ZM26.2412 26.8663C26.264 26.8625 26.2872 26.8604 26.3104 26.8621C26.3933 26.8681 26.4741 26.8922 26.547 26.9327C26.6301 26.9789 26.7004 27.0451 26.7516 27.1252C26.8027 27.2054 26.8331 27.297 26.8401 27.3918C26.847 27.4867 26.8302 27.5817 26.7912 27.6684C26.7519 27.8002 26.7454 27.9396 26.7724 28.0744C26.7994 28.2092 26.8589 28.3354 26.9459 28.4419C27.4844 29.1924 29.8621 30.8883 40.2665 30.3841H42.0517C42.7511 30.3841 43.3754 29.9804 43.9695 29.6114C44.2877 29.4137 44.6446 29.2865 45.016 29.2383C45.6323 29.1416 46.2117 28.8825 46.6947 28.4877C47.4467 27.8954 48.0691 27.155 48.5234 26.3124C48.9777 25.4698 49.2543 24.5429 49.3359 23.5892C49.4896 20.3255 47.7646 17.2225 44.6894 16.1189L44.2712 15.9688C42.0505 15.1719 39.5706 15.8822 37.2185 16.0666C36.6581 16.1489 36.1202 16.3438 35.6372 16.6396C34.52 17.2125 33.1163 16.8515 31.4949 16.4161C29.8322 15.8761 28.0846 15.645 26.3386 15.7343C25.0201 15.8552 23.7266 16.1699 22.5 16.6682C21.5603 17.0291 20.8155 17.3099 19.79 16.9031C18.3921 16.3302 15.3441 17.2411 13.5222 17.774L13.3904 17.8083C11.3508 18.3813 7.98194 18.5646 6.08555 17.8083C4.70053 17.239 4.17001 19.2874 5.50448 19.9668C6.18857 20.315 6.91231 20.5617 7.60954 20.5813C9.2476 20.5399 10.8669 20.2222 12.3992 19.6417C13.2973 19.3294 14.2163 19.0805 15.1493 18.8969C17.6186 18.4729 18.3921 19.1433 18.5868 19.3552C18.6576 19.442 18.7014 19.5475 18.7129 19.6589C18.7473 19.9797 19.641 27.5424 26.2412 26.8663Z" fill="#333736"/>
<path id="Vector_10" d="M58.21 11.0957C58.21 11.0946 58.2106 11.0936 58.2116 11.0933C58.2602 11.0753 58.306 11.0504 58.3475 11.0194C58.3053 11.0496 58.2605 11.0759 58.2136 11.0979C58.2119 11.0987 58.21 11.0975 58.21 11.0957ZM58.3532 11.0151C58.3532 11.0142 58.3537 11.0134 58.3545 11.013C58.3994 10.9898 58.4413 10.9612 58.4792 10.9277C58.4411 10.961 58.4001 10.991 58.3568 11.0172C58.3552 11.0182 58.3532 11.017 58.3532 11.0151Z" fill="#E8BF87"/>
<path id="Vector_11" d="M60.1241 9.16883C60.1182 9.23274 60.1067 9.29601 60.0897 9.3579L60.0553 9.53551C60.0476 9.56994 60.0392 9.60418 60.0299 9.6382C59.9953 9.76521 59.944 9.88907 59.9121 10.0168C59.8898 10.0752 59.8461 10.1221 59.7959 10.1595L59.2753 10.5484C59.0591 10.7099 58.8093 10.6255 58.6001 10.796C58.5496 10.8464 58.4781 10.8683 58.4067 10.8666C57.7211 10.8505 57.2622 11.5925 56.3599 11.2772C56.2328 11.2347 56.107 11.1888 55.9827 11.1395C55.8186 11.0744 55.5979 11.3772 55.724 11.5007C56.3034 12.0669 56.0862 13.0522 55.3518 13.3941C55.277 13.4289 55.2024 13.4643 55.1281 13.5002C54.5961 13.7201 54.0034 13.7445 53.4552 13.5689L53.1974 13.4887L53.0369 13.4372C52.9354 13.4028 52.829 13.3854 52.7218 13.3856C52.514 13.383 52.3123 13.4563 52.1546 13.5918C51.5503 14.049 51.0568 14.6365 50.7108 15.3106C50.6707 15.3966 50.6364 15.4825 50.602 15.5799C50.5138 15.8019 50.4578 16.0353 50.4358 16.2731C50.4329 16.3208 50.4329 16.3687 50.4358 16.4164C50.4358 16.5825 48.3905 17.0924 48.4249 17.2643C48.8437 19.3029 46.1483 19.7299 47.6949 20.5568C47.7773 20.6009 47.854 20.6591 47.9133 20.7314C48.007 20.8457 48.0551 20.9884 48.0298 21.134C48.0139 21.2258 47.9921 21.3368 47.9666 21.4588C47.7769 22.3667 46.8126 22.8715 45.9413 22.5536L39.0991 20.0572C37.5532 19.4932 37.001 17.5869 38.2887 16.5624C38.5099 16.3864 38.73 16.1722 39.0113 16.1453C39.7883 16.0709 41.4073 16.5035 41.7961 16.1471C42.9411 15.0021 41.3153 12.948 41.3205 11.3288C41.4065 9.40946 43.1826 2.13327 45.8524 2.7062C48.5223 3.27913 47.5712 1.97858 49.6509 2.16192C49.8434 2.18505 50.0346 2.21755 50.2239 2.25932C50.4292 2.30793 50.632 2.36721 50.8312 2.43693C51.0374 2.50568 51.2379 2.58589 51.4385 2.6661C51.639 2.74631 51.8338 2.84371 52.0114 2.93537C52.6561 3.24466 53.2783 3.59884 53.8734 3.99529L53.9708 4.0755C53.9991 4.09782 54.014 4.13418 54.0351 4.16333C54.0655 4.20527 54.0866 4.25345 54.0969 4.30467C54.1002 4.34662 54.1002 4.38877 54.0969 4.43072C54.0962 4.48168 54.0865 4.53212 54.0682 4.57968C54.0618 4.59717 54.0561 4.6149 54.0512 4.63281C54.0159 4.76189 54.0113 4.89954 54.0281 5.03229C54.0438 5.09853 54.0689 5.1622 54.1026 5.22136C54.1354 5.29233 54.1757 5.35956 54.2229 5.42188C54.2244 5.42434 54.2259 5.42678 54.2275 5.4292C54.2739 5.50193 54.3373 5.5637 54.4005 5.62241L54.4406 5.66251L54.538 5.74845L54.6812 5.86877C55.004 6.09474 55.3569 6.27411 55.7297 6.40159C55.9245 6.47034 56.125 6.53909 56.3026 6.59066L56.9328 6.75681L57.5688 6.9115C57.6733 6.93763 57.7779 6.96377 57.8824 6.99139C58.0857 7.04511 58.2895 7.10426 58.4912 7.16359C58.6917 7.22661 58.8808 7.30109 59.0641 7.37557L59.3277 7.50161C59.3999 7.53764 59.4689 7.57981 59.5339 7.62766C59.569 7.64779 59.5989 7.67692 59.6301 7.70261C59.6449 7.71472 59.6587 7.72797 59.6714 7.74224L59.7058 7.77662C59.7656 7.83459 59.8176 7.90006 59.8605 7.97141C59.8897 8.01473 59.9147 8.06078 59.935 8.10892C59.9656 8.16352 59.9906 8.22111 60.0095 8.2808C60.0262 8.34113 60.0396 8.40234 60.0496 8.46413C60.1108 8.69375 60.1359 8.93149 60.1241 9.16883Z" fill="#E8BF87"/>
<path id="Vector_12" d="M55.4485 11.5464C55.6076 11.5449 55.768 11.5894 55.8818 11.7006L56.0037 11.8197C56.4438 12.2498 56.2787 12.9967 55.7147 13.2428C55.5096 13.3322 55.3063 13.4257 55.1047 13.523C54.5727 13.743 53.98 13.7673 53.4318 13.5918L53.174 13.5116L53.0135 13.46C52.912 13.4257 52.8056 13.4083 52.6984 13.4084C52.5013 13.4049 52.309 13.4696 52.1541 13.5918C51.5498 14.0489 51.0564 14.6364 50.7104 15.3106C50.685 15.3683 50.6622 15.4272 50.642 15.4869C50.6236 15.5415 50.5732 15.5798 50.5156 15.5798C50.1764 15.58 49.8396 15.6361 49.5187 15.746C49.3712 15.8154 49.1948 15.7164 49.172 15.555C49.1271 15.2381 49.1136 14.9174 49.132 14.5976C49.139 14.4741 49.1722 14.354 49.2377 14.249C49.7264 13.4652 51.3862 11.6741 52.4979 11.6954C55.099 11.7527 53.6839 10.5495 54.5891 10.4693C54.7667 10.4693 55.2537 11.5693 55.4485 11.5464ZM60.1236 9.16877C60.1177 9.23268 60.1062 9.29594 60.0892 9.35784L60.0548 9.53544C60.0471 9.56987 60.0387 9.60411 60.0294 9.63814C59.9948 9.76514 59.9435 9.88901 59.9116 10.0167C59.8893 10.0752 59.8456 10.122 59.7954 10.1594L59.2748 10.5483C59.0586 10.7098 58.8088 10.6254 58.5996 10.7959C58.5491 10.8464 58.4787 10.87 58.4078 10.8612C58.1211 10.8257 57.6987 10.7907 57.2314 10.7471C56.7547 10.7027 57.6133 10.2993 58.0811 10.1977C58.4397 10.1197 57.641 9.88042 57.5741 9.51955C57.5245 9.25201 57.5805 8.94962 57.5786 8.67224C57.5769 8.43809 57.3957 8.26349 57.1755 8.18383L54.7037 7.28956C54.4153 7.18997 54.164 7.00519 53.9829 6.75967C53.8018 6.51415 53.6996 6.21944 53.6896 5.91453C53.6814 5.75104 53.7084 5.58769 53.7687 5.4355C53.8039 5.34671 53.8499 5.26292 53.9056 5.18597C53.9584 5.11297 54.069 5.14301 54.1136 5.22129C54.1464 5.29226 54.1867 5.35949 54.2339 5.42182C54.2354 5.42428 54.2369 5.42672 54.2384 5.42914C54.2849 5.50187 54.3482 5.56363 54.4115 5.62234L54.4516 5.66245L54.549 5.74839L54.6922 5.8687C55.0149 6.09467 55.3679 6.27405 55.7407 6.40153C55.9355 6.47028 56.136 6.53903 56.3136 6.59059L56.9438 6.75674L57.5798 6.91143C57.6843 6.93757 57.7889 6.9637 57.8934 6.99133C58.0967 7.04505 58.3005 7.10419 58.5022 7.16352C58.7027 7.22654 58.8918 7.30102 59.0751 7.3755L59.3387 7.50155C59.4109 7.53758 59.4799 7.57975 59.5449 7.62759C59.58 7.64772 59.6098 7.67685 59.6411 7.70254C59.6559 7.71466 59.6697 7.7279 59.6824 7.74218L59.7168 7.77655C59.7766 7.83452 59.8286 7.9 59.8715 7.97135C59.9007 8.01467 59.9257 8.06072 59.946 8.10885C59.9766 8.16345 60.0016 8.22104 60.0205 8.28073C60.0372 8.34107 60.0505 8.40227 60.0606 8.46407C60.1179 8.69429 60.1392 8.93202 60.1236 9.16877Z" fill="#CD9F61"/>
<path id="Vector_13" d="M50.4982 17.505C50.3666 17.5085 50.2377 17.4665 50.1334 17.3862C50.029 17.3058 49.9556 17.192 49.9253 17.0638C49.8822 16.8507 49.8611 16.6338 49.8623 16.4164C49.8623 16.3477 49.8623 16.2846 49.8623 16.2216C49.8831 15.9458 49.9409 15.6741 50.0342 15.4138C50.0629 15.3281 50.0965 15.2441 50.1347 15.1622C50.1401 15.1505 50.143 15.1378 50.143 15.125C50.143 15.1114 50.1462 15.0981 50.1523 15.0861C50.5356 14.3319 51.08 13.6711 51.7472 13.1507C51.9456 13.0003 52.1777 12.9008 52.4234 12.8608C52.6691 12.8209 52.9208 12.8417 53.1566 12.9215L53.2941 12.9674L53.5176 13.0361C53.9211 13.1818 54.363 13.1818 54.7666 13.0361C55.0782 12.8972 55.4166 12.8288 55.7577 12.8356C55.7779 12.8356 55.7888 12.8119 55.7756 12.7965L54.0905 10.8418C54.0186 10.7514 53.9757 10.6414 53.9674 10.5262C53.9592 10.411 53.9859 10.296 54.0441 10.1963C54.1024 10.0966 54.1894 10.0168 54.2937 9.96736C54.3981 9.91794 54.515 9.90123 54.6291 9.9194L57.3906 10.4465C58.6844 10.8096 59.1429 10.1137 59.2387 9.91925C59.2511 9.89392 59.2798 9.87872 59.3072 9.8853L59.3223 9.88891C59.383 9.90348 59.4127 9.81789 59.356 9.79172C59.3304 9.77991 59.3193 9.74982 59.3276 9.72286C59.3307 9.71258 59.3335 9.70219 59.3358 9.6917C59.3377 9.68316 59.3379 9.67435 59.3373 9.66561C59.3368 9.65848 59.3367 9.65134 59.3369 9.64421C59.3373 9.62905 59.341 9.61425 59.3456 9.59981C59.3668 9.53374 59.3836 9.46634 59.3958 9.39803L59.4245 9.2548C59.4299 9.1635 59.4333 9.07184 59.4399 8.98061C59.4481 8.86708 59.445 8.75294 59.4306 8.63987C59.4269 8.61057 59.4245 8.5811 59.4245 8.55156C59.4245 8.53528 59.4245 8.52073 59.4245 8.50695C59.4245 8.48615 59.4222 8.4653 59.4152 8.4457C59.4128 8.43899 59.4102 8.43235 59.4075 8.42579C59.3973 8.40152 59.3901 8.37588 59.3901 8.34957C59.3901 8.31585 59.3814 8.28234 59.3613 8.25523C59.344 8.2318 59.3249 8.20971 59.3041 8.18915L59.2526 8.13759C59.2014 8.09524 59.1457 8.05873 59.0864 8.02873L58.8515 7.91988C58.7026 7.85685 58.525 7.79383 58.3416 7.73081L58.0838 7.65633C57.8546 7.59331 57.6656 7.54174 57.465 7.49591L56.8348 7.28966C56.6171 7.23236 56.3937 7.1808 56.1817 7.11205C55.9663 7.05647 55.754 6.98954 55.5457 6.91152C55.1199 6.76824 54.7182 6.56157 54.354 6.29849C54.2956 6.25851 54.2401 6.21447 54.1879 6.16672C54.1611 6.14622 54.1357 6.12399 54.1118 6.10018C54.0811 6.0695 54.0503 6.03869 54.016 6.01203C53.9238 5.92861 53.8402 5.83422 53.7711 5.7308C53.7687 5.72716 53.7663 5.72351 53.7639 5.71983C53.7034 5.63644 53.6498 5.54831 53.6035 5.45628C53.5523 5.35847 53.5138 5.25449 53.4889 5.1469C53.4562 5.0373 53.4407 4.92325 53.4431 4.80887C53.4455 4.57382 53.3738 4.32733 53.1763 4.19989C52.7286 3.91105 52.2649 3.64764 51.7873 3.41093C51.6097 3.32499 51.4264 3.23332 51.2144 3.15884C51.0275 3.07598 50.8362 3.0033 50.6415 2.94113C50.4535 2.87746 50.2622 2.82391 50.0685 2.78071C49.8927 2.74181 49.7148 2.71312 49.5357 2.69477C49.3283 2.64672 49.113 2.64385 48.9045 2.68636C48.6959 2.72887 48.4989 2.81576 48.3268 2.94113C47.7539 3.29634 47.244 3.5427 45.6799 3.22759C45.5261 3.20423 45.3689 3.21579 45.2202 3.26141C45.0714 3.30703 44.9348 3.38555 44.8205 3.49114C43.1533 4.79169 41.9215 9.65012 41.8413 11.3517C41.8387 12.1031 41.7768 12.8528 41.6563 13.594C41.6119 13.8677 41.5563 14.1806 41.3088 14.3056C41.1834 14.369 41.0392 14.384 40.9034 14.348C40.7676 14.3119 40.6498 14.2272 40.5724 14.11C40.495 13.9928 40.4633 13.8512 40.4834 13.7122C40.6401 12.917 40.7301 12.1102 40.7527 11.3002C40.8215 9.84492 42.0132 4.28178 44.1903 2.59737C44.4329 2.39628 44.7166 2.25058 45.0213 2.17043C45.3261 2.09027 45.6447 2.0776 45.9549 2.1333C47.181 2.37966 47.4445 2.20778 47.7482 2.01299C48.3103 1.61123 49.0086 1.44849 49.6904 1.56037C49.931 1.58902 50.1487 1.62339 50.3665 1.66923C50.5912 1.72279 50.813 1.78781 51.0311 1.86402C51.2488 1.93278 51.4665 2.01871 51.6842 2.11038C51.9019 2.20205 52.091 2.29372 52.2571 2.39112C52.912 2.71588 53.5437 3.08534 54.1478 3.49687C54.2354 3.5589 54.3127 3.6343 54.377 3.72031C54.4792 3.84058 54.55 3.98426 54.5832 4.13855C54.5948 4.22218 54.5948 4.307 54.5832 4.39064C54.5832 4.49546 54.5678 4.59971 54.5374 4.70002C54.5354 4.7096 54.5341 4.71928 54.5334 4.72899C54.531 4.76146 54.5374 4.82215 54.5374 4.85471C54.5374 4.89241 54.5455 4.9299 54.5641 4.96269C54.5788 4.98856 54.5947 5.01371 54.6119 5.03805C54.6383 5.06966 54.6867 5.12443 54.7119 5.15705C54.7125 5.15783 54.713 5.15859 54.7136 5.15936C54.7186 5.16607 54.7241 5.1725 54.7306 5.17773L54.778 5.21566L54.8525 5.28441L54.9442 5.35889C55.225 5.55962 55.5339 5.71792 55.8608 5.82869C56.0442 5.89744 56.2275 5.95473 56.4338 6.0063C56.64 6.05786 56.8463 6.11515 57.0468 6.16672L57.6828 6.32141L58.3015 6.48183L58.6338 6.57922C58.8687 6.65943 59.075 6.72818 59.2698 6.81412L59.3672 6.85996L59.5562 6.95163C59.6615 7.00245 59.7613 7.06388 59.8542 7.13496C59.8955 7.16112 59.9324 7.194 59.97 7.22525C60.0022 7.25204 60.0325 7.28123 60.0604 7.31257C60.1521 7.40199 60.2329 7.502 60.301 7.6105C60.3391 7.66945 60.3736 7.73067 60.4042 7.79383C60.4374 7.8613 60.4659 7.93102 60.4893 8.00249C60.4937 8.0161 60.4968 8.03017 60.4974 8.04448C60.4987 8.07566 60.5011 8.10702 60.5099 8.13697C60.5287 8.20104 60.5431 8.26633 60.5531 8.33239C60.5923 8.58102 60.5966 8.83376 60.5659 9.08329C60.5584 9.1442 60.5531 9.19808 60.5531 9.25945C60.5531 9.34667 60.5434 9.44097 60.5242 9.52605L60.513 9.57564C60.5001 9.6445 60.4844 9.71278 60.4659 9.78029C60.4362 9.88862 60.4035 9.99756 60.3641 10.1027C60.3418 10.1694 60.315 10.2345 60.2839 10.2975C60.026 10.9106 59.012 12.0163 57.1213 11.4778C56.7413 11.4056 56.4826 11.8521 56.7342 12.1458L57.276 12.7783C57.3351 12.8488 57.3763 12.9324 57.3962 13.0221C57.4162 13.1119 57.4142 13.2051 57.3906 13.2939C57.3669 13.3826 57.3222 13.4642 57.2604 13.532C57.1986 13.5998 57.1214 13.6518 57.0353 13.6835C56.6272 13.821 56.1998 13.8925 55.7692 13.8955C55.4219 13.8912 55.1006 14.0558 54.7658 14.1484C54.2897 14.2802 53.7845 14.2873 53.2999 14.1648L53.0077 14.0789L52.8938 14.0438C52.8705 14.0367 52.8463 14.033 52.822 14.033C52.8007 14.033 52.7796 14.0297 52.7586 14.0263C52.7203 14.02 52.6811 14.0208 52.6428 14.0286C52.5941 14.0385 52.5484 14.0597 52.5092 14.0903C51.9937 14.473 51.5645 14.9597 51.2491 15.5187C51.2414 15.5325 51.2373 15.5481 51.2373 15.564C51.2373 15.5782 51.234 15.5923 51.2279 15.6052C51.1995 15.6655 51.1758 15.7279 51.1571 15.7919C51.0918 15.9566 51.0532 16.1307 51.0425 16.3075C51.0425 16.3648 51.0425 16.3878 51.0425 16.4164C51.0396 16.5493 51.053 16.6821 51.0826 16.8117C51.1152 16.9591 51.0884 17.1133 51.0079 17.2409C50.9553 17.3244 50.8826 17.3921 50.7975 17.4385C50.7068 17.4879 50.6012 17.4973 50.4982 17.505Z" fill="#333736"/>
<path id="Vector_14" d="M60.6507 8.49285C60.4876 7.56872 58.7775 7.65298 58.6147 8.57716C58.6059 8.62676 58.6007 8.67883 58.5996 8.73348C58.5996 9.35798 59.2871 9.81059 59.6538 9.99966C59.7122 10.0335 59.7808 10.0452 59.8471 10.0325C59.9134 10.0199 59.9729 9.98383 60.0147 9.93091C60.2726 9.63298 60.7481 8.99703 60.6507 8.49285Z" fill="#333736"/>
<path id="Vector_15" d="M59.803 10.6069C59.6611 10.6059 59.5215 10.5705 59.3963 10.5037C58.5139 10.0339 58.0327 9.40371 58.0441 8.72193C58.0731 8.33176 58.2304 7.96217 58.4917 7.6709C58.7529 7.37963 59.1032 7.1831 59.4879 7.112C59.5598 7.09808 59.6337 7.09808 59.7056 7.112C60.056 7.15338 60.3865 7.29722 60.6555 7.52551C60.9246 7.75379 61.1203 8.05637 61.2182 8.39536C61.3557 9.0886 60.8801 9.81622 60.4619 10.3089C60.3798 10.4029 60.2785 10.4781 60.1649 10.5295C60.0512 10.5809 59.9278 10.6073 59.803 10.6069ZM59.9794 8.42556C59.7822 8.27195 59.4847 8.27349 59.3116 8.45381C59.2393 8.52919 59.1867 8.62501 59.1843 8.74485C59.1843 8.79831 59.2035 8.85801 59.2402 8.92128C59.446 9.27611 59.9931 9.17666 60.0884 8.77768C60.1157 8.66348 60.1041 8.5366 60.0173 8.45748C60.0053 8.44654 59.9926 8.43589 59.9794 8.42556Z" fill="#333736"/>
<path id="Vector_16" d="M48.9705 6.72926C48.9754 7.38148 48.9824 8.12722 48.4354 8.48247C48.1554 8.66432 47.8239 8.75032 47.4908 8.72754C45.8736 8.7095 44.2696 9.01939 42.7756 9.63849C41.4349 10.263 39.275 10.1312 39.1547 9.37495C39.0343 8.61868 39.8479 7.75356 40.0198 6.75666C40.1917 5.75977 40.6787 4.09828 41.349 3.50243C42.0193 2.90658 42.6724 2.9295 43.0678 2.32793C43.4631 1.72635 45.0902 0.884148 46.0069 1.31384C46.9236 1.74354 48.9632 3.67431 49.095 4.52224C49.1985 5.18813 48.9627 5.68795 48.9705 6.72926Z" fill="#E8BF87"/>
<path id="Vector_17" d="M47.7887 8.71631C47.6895 8.72236 47.59 8.72236 47.4908 8.71631C45.8735 8.70323 44.2701 9.01495 42.7756 9.63299C41.4349 10.2518 39.275 10.12 39.1547 9.36945C39.0343 8.61891 39.8479 7.74233 40.0198 6.74543C40.1917 5.74854 40.6787 4.08705 41.349 3.4912C42.0193 2.89536 42.6724 2.91827 43.0678 2.3167C43.4631 1.71512 45.0902 0.872917 46.0126 1.30261C46.2136 1.39898 46.1494 1.70108 45.9403 1.77821C45.8442 1.81364 45.7503 1.8551 45.6591 1.90243C45.0855 2.19999 44.7106 2.77633 44.1292 3.05847C43.9598 3.14072 43.7805 3.2398 43.6006 3.39953C43.0907 3.85214 42.7126 5.11832 42.5865 5.89177C42.4605 6.66522 41.8302 7.32409 41.9219 7.90275C42.0136 8.48141 43.6407 8.5788 44.7006 8.10327C45.7605 7.62774 46.8663 8.66474 47.7887 8.71631Z" fill="#CD9F61"/>
<path id="Vector_18" d="M40.8273 10.6069C40.2803 10.6279 39.7362 10.5179 39.2403 10.2861C39.0752 10.2106 38.9304 10.0969 38.8178 9.95449C38.7053 9.81205 38.6282 9.6449 38.5929 9.46681C38.5574 8.86193 38.7116 8.26107 39.034 7.74803C39.2256 7.40075 39.3683 7.02864 39.458 6.64227C39.6299 5.66257 40.1398 3.77763 40.9705 3.06147C41.266 2.80837 41.5983 2.60166 41.956 2.44844C42.2825 2.29375 42.443 2.21354 42.5289 2.01874C43.0503 1.14789 45.0154 0.231206 46.1956 0.781217C47.1524 1.2281 49.427 3.27919 49.6046 4.41358C49.6277 4.56319 49.5906 4.71586 49.5015 4.83824C49.4124 4.96062 49.2785 5.04276 49.129 5.06672C48.9803 5.08818 48.8291 5.05037 48.708 4.96142C48.5869 4.87247 48.5056 4.73952 48.4816 4.59119C48.3957 4.01826 46.5852 2.21927 45.7144 1.81249C45.0956 1.5203 43.7435 2.19635 43.5029 2.60313C43.2428 3.00262 42.8612 3.30792 42.4143 3.47398C42.1548 3.58176 41.9133 3.7286 41.6981 3.90941C41.2226 4.33337 40.7414 5.73132 40.5523 6.83707C40.445 7.32887 40.2695 7.80325 40.0309 8.24647C39.6892 8.80783 40.0419 9.43116 40.6989 9.4489C41.2489 9.46376 41.9256 9.37952 42.506 9.10587C44.085 8.45029 45.7809 8.12281 47.4905 8.14335C47.6364 8.15212 47.7734 8.21633 47.8735 8.32284C47.9736 8.42935 48.0293 8.5701 48.029 8.71628C48.0202 8.86219 47.956 8.99924 47.8495 9.09935C47.743 9.19947 47.6023 9.25509 47.4561 9.25483C45.9309 9.25617 44.4213 9.56198 43.0159 10.1543C42.3262 10.4572 41.5805 10.6114 40.8273 10.6069Z" fill="#333736"/>
<path id="Vector_19" d="M50.7344 16.5063C50.789 15.9827 50.4341 15.5025 49.9215 15.3828C48.4083 15.0295 45.265 14.187 42.4849 12.7441C41.8502 12.4146 41.0491 12.7022 40.8189 13.3793C40.6808 13.7855 40.7971 14.2277 41.1596 14.4572C42.1302 15.0719 44.5118 16.2741 49.5258 17.3822C50.1085 17.511 50.6726 17.0999 50.7344 16.5063Z" fill="#A67E73"/>
<path id="Vector_20" d="M50.6015 18.1754C50.5291 18.1754 50.4549 18.1678 50.384 18.1532C42.3951 16.5132 40.2655 14.5312 40.1799 14.4514C40.1063 14.3779 40.0541 14.2857 40.0288 14.1848C40.0036 14.0839 40.0063 13.978 40.0367 13.8785L40.6956 11.8732C40.7235 11.7926 40.769 11.7193 40.8288 11.6586C40.8887 11.5978 40.9613 11.5512 41.0415 11.5221C41.1216 11.493 41.2073 11.4822 41.2921 11.4904C41.377 11.4986 41.459 11.5256 41.5321 11.5696C44.8016 13.5841 49.1524 14.6384 50.5009 14.9253C50.7776 14.9842 51.1 15.0021 51.2673 15.2302C51.3522 15.3458 51.3906 15.4891 51.375 15.6316L51.1515 17.6655C51.1425 17.7436 51.1175 17.819 51.0781 17.887C51.0386 17.955 50.9856 18.0142 50.9224 18.0608C50.8295 18.1307 50.7176 18.1706 50.6015 18.1754ZM41.3948 13.4721C41.3201 13.692 41.3997 13.9351 41.5987 14.0548C42.5805 14.6455 44.9136 15.7775 49.6436 16.8261C49.9042 16.8839 50.1567 16.7016 50.1854 16.4362C50.2102 16.2069 50.0577 15.9962 49.8328 15.945C47.1614 15.3375 44.5741 14.4076 42.1277 13.1759C41.8438 13.0329 41.4969 13.1711 41.3948 13.4721ZM51.289 7.05488C51.1926 7.05411 51.098 7.02903 51.0139 6.98196C50.9297 6.93489 50.8589 6.86735 50.8078 6.78561C50.7321 6.65543 50.7107 6.50071 50.7482 6.35489C50.7858 6.20908 50.8792 6.0839 51.0083 6.00642C51.4393 5.75486 51.8965 5.55121 52.3719 5.39912C52.5103 5.36925 52.6549 5.39171 52.7777 5.46215C52.9005 5.53259 52.9929 5.64603 53.0371 5.78058C53.0812 5.91513 53.074 6.06126 53.0167 6.19078C52.9595 6.3203 52.8563 6.42403 52.7271 6.48195C52.3431 6.60438 51.9726 6.76563 51.6213 6.96321C51.5226 7.02716 51.4066 7.05916 51.289 7.05488Z" fill="#333736"/>
<path id="Vector_21" d="M46.8661 26.1387C48.2454 28.0998 50.4929 29.2669 52.8905 29.2669H54.2124C55.1765 29.2669 56.1354 29.4075 57.0589 29.6844L57.7047 29.8781C58.6617 30.165 59.5864 30.55 60.4642 31.0269L62.5815 32.1773C62.6664 32.2243 62.7405 32.2884 62.7992 32.3656C62.8579 32.4428 62.8999 32.5314 62.9226 32.6257C62.9452 32.72 62.948 32.818 62.9307 32.9134C62.9134 33.0088 62.8764 33.0996 62.8222 33.18C62.5442 33.657 62.1437 34.0509 61.6621 34.3209C61.1805 34.5909 60.6355 34.7271 60.0836 34.7154C57.3957 34.4331 54.8117 32.9027 52.1101 32.9789L51.1338 33.0064C49.6174 33.0491 48.1073 32.7934 46.6896 32.2537L39.5498 29.5361" fill="#E8BF87"/>
<path id="Vector_22" d="M62.8341 33.1802C62.555 33.657 62.1532 34.0504 61.6706 34.3194C61.188 34.5884 60.6422 34.7232 60.0898 34.7099C57.4019 34.4402 54.8176 32.903 52.1173 32.979L49.0037 33.0667C48.8931 33.0698 48.7699 33.061 48.6608 33.0431C46.6626 32.7161 47.2516 31.3918 49.2754 31.4515C49.3379 31.4533 49.4001 31.4547 49.462 31.4557L52.7 31.3571C55.4256 31.2742 58.0356 32.8255 60.7487 33.1C61.1264 33.1223 61.5046 33.0672 61.8603 32.9382C62.0759 32.8599 62.2805 32.7555 62.4695 32.6276C62.6676 32.4936 62.9589 32.5229 62.9638 32.762C62.9669 32.9118 62.9214 33.0585 62.8341 33.1802Z" fill="#CD9F61"/>
<path id="Vector_23" d="M60.2439 35.2887H60.0606C57.2435 35.0321 54.5261 33.4836 51.6984 33.5638L48.8541 33.6444C48.8086 33.6517 48.7622 33.6517 48.7166 33.6444C44.6202 32.8881 41.4462 31.5532 39.0227 29.5709C38.9225 29.4704 38.8631 29.3362 38.8562 29.1945C38.8492 29.0527 38.8951 28.9134 38.985 28.8036C39.0749 28.6937 39.2023 28.6211 39.3426 28.5999C39.483 28.5786 39.6262 28.6102 39.7446 28.6886C41.4222 30.0681 43.5017 31.1123 46.0513 31.8516C47.8972 32.3868 49.8343 32.4802 51.7553 32.4211L56.3137 32.2808C56.3969 32.2793 56.4795 32.2959 56.5557 32.3295C56.6319 32.3632 56.6999 32.413 56.7548 32.4756C57.6303 33.4102 58.8107 34.0015 60.0835 34.1428C60.5379 34.1507 60.986 34.0356 61.3804 33.8097C61.7747 33.5838 62.1006 33.2555 62.3237 32.8595C62.3314 32.8424 62.3354 32.8238 62.3354 32.8051C62.3354 32.8025 62.3354 32.8 62.3352 32.7975C62.3334 32.7653 62.3232 32.7325 62.3035 32.7069C62.2936 32.694 62.2809 32.6835 62.2664 32.6761L60.0894 31.494C59.2778 31.0533 58.4238 30.6959 57.5402 30.4271C56.2484 30.0342 54.9055 29.8344 53.5551 29.8344H49.0661C48.9752 29.834 48.8857 29.812 48.805 29.7701C48.7243 29.7283 48.6548 29.6678 48.602 29.5938L46.4249 26.4713C46.3708 26.4113 46.3301 26.3404 46.3054 26.2635C46.2806 26.1866 46.2724 26.1053 46.2813 26.025C46.2902 25.9447 46.316 25.8671 46.357 25.7975C46.398 25.7278 46.4532 25.6677 46.5191 25.6209C46.585 25.5741 46.6601 25.5418 46.7393 25.5261C46.8186 25.5104 46.9003 25.5116 46.979 25.5297C47.0578 25.5478 47.1318 25.5823 47.1963 25.6311C47.2608 25.6798 47.3142 25.7416 47.3531 25.8125C48.6289 27.6095 50.6963 28.6771 52.9002 28.6771H55.5223C55.6334 28.6771 55.7456 28.6596 55.8553 28.6771L59.3273 29.7198L59.4361 29.7657L62.8737 31.6334C63.0267 31.7178 63.161 31.8324 63.2683 31.9703C63.3757 32.1082 63.4539 32.2665 63.4982 32.4355C63.5412 32.6076 63.5477 32.7867 63.5171 32.9614C63.4865 33.1361 63.4195 33.3024 63.3206 33.4496C63.0097 33.9953 62.5631 34.4514 62.024 34.7736C61.485 35.0958 60.8718 35.2733 60.2439 35.2887Z" fill="#333736"/>
<path id="Vector_24" d="M18.1627 19.8022C18.1518 20.852 18.2155 21.8984 18.3521 22.9337C18.8002 26.3298 17.0894 30.0084 13.7633 30.828C13.2462 30.9554 12.7505 31.1578 12.2919 31.4286L11.0484 32.163C10.1484 32.6945 9.3053 33.317 8.53229 34.0205L6.63542 35.7468C6.55927 35.8156 6.49841 35.8996 6.45674 35.9933C6.41508 36.0871 6.39355 36.1885 6.39355 36.2911C6.39355 36.3937 6.41508 36.4952 6.45674 36.5889C6.49841 36.6827 6.55927 36.7666 6.63542 36.8354C7.04137 37.252 7.55107 37.5529 8.11201 37.707C8.67294 37.8611 9.26481 37.8628 9.82663 37.712C12.5136 36.7362 14.7786 34.5036 17.5739 33.9054L19.7848 33.4322C20.5509 33.2682 21.3069 33.053 22.0217 32.7324C24.8926 31.4446 27.4669 29.5688 29.5755 27.2217" fill="#E8BF87"/>
<path id="Vector_25" d="M6.64097 36.8355C7.04623 37.2532 7.5559 37.5548 8.11707 37.7089C8.67823 37.863 9.27043 37.8642 9.83218 37.7121C12.5191 36.7364 14.7841 34.5038 17.5794 33.9055L20.8247 33.2109C20.9023 33.1943 20.9784 33.1715 21.0521 33.142C23.2561 32.2615 25.305 31.0489 27.1301 29.5519C27.5501 29.2074 27.1715 28.7275 26.7106 29.0151L22.2882 31.2539C20.9655 31.9235 19.5534 32.3996 18.0953 32.6676L16.6208 32.9386C13.8456 33.4486 11.4623 35.3299 8.78372 36.2168C8.40507 36.3321 8.00712 36.3703 7.61345 36.3289C7.37507 36.3039 7.1412 36.2501 6.91687 36.1689C6.67718 36.0823 6.38131 36.1793 6.42484 36.4304C6.45165 36.5851 6.52741 36.7271 6.64097 36.8355Z" fill="#CD9F61"/>
<path id="Vector_26" d="M8.97266 38.4109C7.9548 38.3875 6.98394 37.9779 6.25698 37.265C6.12385 37.1412 6.01753 36.9914 5.94461 36.8249C5.87168 36.6583 5.8337 36.4786 5.83301 36.2968C5.83321 36.1166 5.87102 35.9384 5.94402 35.7737C6.01703 35.6089 6.12362 35.4612 6.25698 35.34L9.31068 32.5556C9.33725 32.5278 9.36822 32.5045 9.40235 32.4868L12.6967 30.5446C12.7351 30.5221 12.7753 30.5029 12.817 30.4873C16.2694 29.422 17.9368 25.5446 17.6413 21.9437C17.5833 21.2368 17.562 20.5258 17.578 19.8137C17.578 19.6617 17.6384 19.516 17.7458 19.4085C17.8533 19.3011 17.999 19.2407 18.151 19.2407C18.3029 19.2407 18.4486 19.3011 18.5561 19.4085C18.6635 19.516 18.7239 19.6617 18.7239 19.8137C18.6483 22.8443 19.2841 25.8504 20.5802 28.5909C20.6134 28.6648 20.6306 28.7448 20.6306 28.8258C20.6306 28.9068 20.6134 28.9869 20.5802 29.0607C20.5463 29.1345 20.4971 29.2003 20.4358 29.2536C20.3746 29.3069 20.3027 29.3466 20.225 29.3701L15.0593 30.9699C13.8207 31.3535 12.6311 31.88 11.5143 32.5388C10.5139 33.1289 9.57786 33.8218 8.72128 34.6062L7.01897 36.165C6.98659 36.1968 6.96805 36.24 6.96741 36.2853C6.96688 36.3101 6.97173 36.3348 6.98162 36.3575C6.99151 36.3803 7.00621 36.4006 7.0247 36.4171C7.35749 36.7671 7.77813 37.0214 8.2427 37.1534C8.70728 37.2854 9.19878 37.2904 9.6659 37.1677C10.9404 36.6976 12.0065 35.7899 12.6738 34.6067C12.7127 34.533 12.7672 34.4687 12.8335 34.4182C12.8997 34.3677 12.9763 34.3323 13.0576 34.3145L17.5677 33.3514C19.6867 32.8989 21.7646 32.2319 23.6645 31.1902C25.8588 29.9871 27.8541 28.6186 29.1111 26.8893C29.2056 26.7831 29.3362 26.7159 29.4776 26.7006C29.6189 26.6854 29.7609 26.7232 29.8758 26.8068C29.9908 26.8903 30.0707 27.0137 30.0998 27.1528C30.1289 27.292 30.1053 27.437 30.0335 27.5596C28.0913 30.2639 24.585 32.0858 21.2161 33.7186C21.1761 33.7388 21.1338 33.7542 21.0901 33.7645L18.0954 34.3989C15.192 35.0139 12.8037 37.2598 9.9982 38.2276C9.66739 38.3394 9.32172 38.4012 8.97266 38.4109Z" fill="#333736"/>
<path id="Vector_27" d="M67.3081 17.1612C69.0295 17.1612 70.4249 15.7658 70.4249 14.0445C70.4249 12.3231 69.0295 10.9277 67.3081 10.9277C65.5868 10.9277 64.1914 12.3231 64.1914 14.0445C64.1914 15.7658 65.5868 17.1612 67.3081 17.1612Z" fill="#DA5D6A"/>
<path id="Vector_28" d="M70.4251 14.0444C70.4226 14.7899 70.153 15.5098 69.6652 16.0736C69.1773 16.6373 68.5036 17.0076 67.7661 17.1171C67.0287 17.2266 66.2765 17.0681 65.6459 16.6704C65.3499 16.4838 65.09 16.2503 64.8748 15.9814C64.5812 15.6145 65.0052 15.1724 65.475 15.1673C66.3 15.1673 67.0913 14.8396 67.6748 14.2561C68.2582 13.6727 68.586 12.8814 68.586 12.0563C68.587 11.6788 68.9606 11.3678 69.2556 11.6034C69.4984 11.7973 69.712 12.0275 69.8884 12.2875C70.2401 12.8058 70.4271 13.4181 70.4251 14.0444Z" fill="#D03E54"/>
<path id="Vector_29" d="M67.308 17.7282C66.5793 17.7282 65.8671 17.5122 65.2613 17.1074C64.6555 16.7026 64.1833 16.1272 63.9044 15.4541C63.6256 14.7809 63.5527 14.0402 63.6948 13.3256C63.837 12.611 64.1878 11.9546 64.703 11.4394C65.2182 10.9241 65.8746 10.5733 66.5893 10.4311C67.3039 10.289 68.0446 10.3619 68.7177 10.6408C69.3909 10.9196 69.9662 11.3918 70.371 11.9976C70.7758 12.6034 70.9919 13.3157 70.9919 14.0443C70.9904 15.0209 70.6018 15.957 69.9112 16.6475C69.2207 17.3381 68.2845 17.7267 67.308 17.7282ZM67.308 11.4948C66.8037 11.4948 66.3108 11.6443 65.8915 11.9244C65.4722 12.2046 65.1455 12.6028 64.9525 13.0686C64.7595 13.5345 64.709 14.0471 64.8074 14.5417C64.9058 15.0362 65.1486 15.4905 65.5052 15.8471C65.8617 16.2036 66.316 16.4465 66.8106 16.5448C67.3051 16.6432 67.8178 16.5927 68.2836 16.3997C68.7495 16.2068 69.1477 15.88 69.4278 15.4607C69.708 15.0415 69.8575 14.5485 69.8575 14.0443C69.856 13.3686 69.5869 12.721 69.1091 12.2432C68.6313 11.7654 67.9837 11.4963 67.308 11.4948Z" fill="#333736"/>
<path id="Vector_30" d="M49.1519 41.1957C49.0985 41.2071 49.044 41.2154 48.9898 41.2088C48.8858 41.1962 48.7868 41.1552 48.7038 41.0896C48.5992 41.007 48.5267 40.8905 48.4987 40.7602C48.344 40.0441 47.6852 38.1076 46.5164 37.7638C46.3845 37.7106 46.277 37.6103 46.215 37.4823C46.153 37.3542 46.1408 37.2077 46.1808 37.0712C46.2208 36.9347 46.3102 36.818 46.4315 36.7438C46.671 36.5972 46.9728 36.7126 47.2223 36.8414C47.5328 37.0016 47.8199 37.2052 48.0746 37.4466C48.1791 37.5457 48.2776 37.6505 48.3696 37.7606C48.6307 38.0729 49.2321 38.0844 49.5378 37.8156C49.7989 37.586 50.1044 37.4124 50.4352 37.3055C50.5781 37.2579 50.7339 37.2686 50.869 37.335C51.0041 37.4015 51.1076 37.5185 51.1571 37.6607C51.2044 37.8043 51.1929 37.9608 51.1253 38.096C51.0577 38.2312 50.9394 38.3342 50.7962 38.3826C49.5873 38.7894 49.6503 40.5998 49.6503 40.6227C49.6515 40.7626 49.6015 40.8981 49.5096 41.0036C49.4178 41.1092 49.2906 41.1775 49.1519 41.1957ZM66.7637 38.8352C66.7218 38.8466 66.6786 38.8541 66.6354 38.8502C66.5262 38.8404 66.4215 38.7994 66.3343 38.7314C66.2298 38.6499 66.1568 38.5347 66.1277 38.4055C65.9788 37.6893 65.3199 35.7471 64.1454 35.4033C64.0651 35.3901 63.9885 35.3599 63.9208 35.3147C63.853 35.2695 63.7957 35.2104 63.7526 35.1414C63.7095 35.0723 63.6816 34.9949 63.6708 34.9142C63.66 34.8335 63.6665 34.7514 63.6899 34.6734C63.7133 34.5955 63.753 34.5234 63.8065 34.4619C63.8599 34.4005 63.9258 34.3512 63.9999 34.3173C64.0738 34.2833 64.1542 34.2656 64.2356 34.2651C64.3171 34.2647 64.3976 34.2816 64.472 34.3148C64.9302 34.4894 65.3493 34.7529 65.7053 35.0902C65.8111 35.1905 65.9108 35.2967 66.0038 35.4083C66.262 35.7181 66.8567 35.7287 67.1576 35.4601C67.4145 35.2307 67.7151 35.0555 68.0413 34.945C68.1842 34.8975 68.34 34.9081 68.4751 34.9746C68.6102 35.0411 68.7137 35.158 68.7632 35.3002C68.8107 35.4431 68.8001 35.5989 68.7336 35.734C68.6672 35.8691 68.5502 35.9726 68.408 36.0221C67.1934 36.4289 67.2621 38.2451 67.2621 38.2623C67.2633 38.4021 67.2133 38.5376 67.1215 38.6432C67.0296 38.7487 66.9024 38.817 66.7637 38.8352ZM18.7666 42.2966C18.7457 42.3036 18.7239 42.3077 18.7019 42.3069C18.5804 42.3026 18.463 42.2596 18.3672 42.1839C18.2626 42.1013 18.1901 41.9848 18.1622 41.8545C18.0075 41.1384 17.3486 39.2019 16.1798 38.8581C16.0539 38.8011 15.9529 38.7004 15.8953 38.5748C15.8377 38.4491 15.8276 38.3068 15.8666 38.1742C15.9057 38.0416 15.9914 37.9276 16.1079 37.8533C16.3378 37.7065 16.6327 37.8114 16.8757 37.9353C17.19 38.0955 17.4804 38.3001 17.7378 38.5434C17.8449 38.6445 17.9456 38.7518 18.0395 38.8645C18.2964 39.1727 18.8897 39.1824 19.1885 38.9147C19.4445 38.6852 19.7444 38.5101 20.07 38.3998C20.2121 38.354 20.3665 38.3655 20.5003 38.4318C20.6341 38.4982 20.7366 38.6141 20.7862 38.755C20.8337 38.8978 20.8231 39.0537 20.7566 39.1888C20.6901 39.3239 20.5731 39.4274 20.431 39.4769C19.2221 39.8836 19.2851 41.6998 19.2851 41.717C19.2863 41.8569 19.2363 41.9924 19.1444 42.0979C19.0572 42.1981 18.9381 42.2648 18.8076 42.2868C18.7937 42.2892 18.7799 42.2922 18.7666 42.2966ZM4.72126 31.0892C4.68314 31.0968 4.64435 31.1021 4.60558 31.0991C4.49385 31.0904 4.38664 31.0491 4.2976 30.9797C4.19314 30.8982 4.12015 30.783 4.09104 30.6538C3.94208 29.9663 3.31186 28.1042 2.18892 27.7891C2.0454 27.7453 1.92478 27.647 1.85301 27.5152C1.78123 27.3834 1.76401 27.2288 1.80506 27.0844C1.84885 26.9409 1.9472 26.8203 2.07898 26.7485C2.21075 26.6767 2.36543 26.6595 2.50976 26.7006C2.95077 26.8657 3.35489 27.1161 3.69898 27.4376C3.80257 27.5344 3.9001 27.637 3.99115 27.7449C4.24319 28.0436 4.81288 28.0541 5.10622 27.7958C5.2551 27.6647 5.41887 27.5524 5.59383 27.4609C5.82418 27.3404 6.10676 27.2523 6.32761 27.3894C6.4394 27.4588 6.52389 27.5646 6.56691 27.6889C6.60992 27.8132 6.60883 27.9486 6.56382 28.0722C6.47492 28.3164 6.18348 28.3938 5.97424 28.5479C5.18368 29.13 5.21971 30.501 5.21971 30.5163C5.2209 30.6562 5.17086 30.7916 5.07904 30.8972C4.98722 31.0027 4.85996 31.071 4.72126 31.0892ZM34.3833 38.4005C34.3595 38.4076 34.3348 38.4119 34.3099 38.4108C34.1899 38.4056 34.0742 38.3628 33.9795 38.288C33.8749 38.2054 33.8024 38.0889 33.7745 37.9586C33.6771 37.4888 33.2015 36.0794 32.4109 35.8502C32.279 35.797 32.1715 35.6967 32.1095 35.5687C32.0475 35.4407 32.0353 35.2942 32.0753 35.1577C32.1153 35.0212 32.2047 34.9044 32.326 34.8302C32.4228 34.7709 32.5345 34.7421 32.6466 34.7463C32.7037 34.7485 32.7589 34.765 32.8121 34.7857C32.9942 34.8563 33.167 34.9457 33.3281 35.0518C33.8361 35.3864 34.715 35.4163 35.2927 35.2257C35.4363 35.1785 35.5928 35.1899 35.728 35.2575C35.8632 35.3251 35.9662 35.4434 36.0146 35.5867C36.0601 35.7295 36.0478 35.8846 35.9803 36.0184C35.9129 36.1523 35.7956 36.2544 35.6537 36.3028C34.8688 36.5664 34.9031 37.8096 34.9031 37.8211C34.9043 37.961 34.8543 38.0965 34.7625 38.202C34.6755 38.3019 34.5569 38.3685 34.4268 38.3907C34.4121 38.3932 34.3975 38.3962 34.3833 38.4005Z" fill="#75A86F"/>
</g>
</svg>
