<svg width="82" height="82" viewBox="0 0 82 82" fill="none" xmlns="http://www.w3.org/2000/svg">
<g id="Group 48095904">
<path id="Vector" d="M14.1092 36.4641L6.48053 45.301L1.45801 33.2539L14.1092 36.4641Z" fill="#1FAB89" fill-opacity="0.47"/>
<path id="Vector_2" d="M14.1092 36.4641L6.48053 45.301L1.45801 33.2539L14.1092 36.4641Z" fill="#1FAB89" fill-opacity="0.47"/>
<path id="Vector_3" d="M1.45801 33.2539L4.15459 39.7239L8.76854 35.11L1.45801 33.2539Z" fill="#1FAB89" fill-opacity="0.51"/>
<path id="Vector_4" d="M14.1087 36.4649L25.3182 46.1422L35.1444 6.14591L62.8718 12.9574L51.3734 1.46191H13.4346V37.2441L14.1087 36.4649ZM13.4346 51.3048V65.6662H20.5233L22.1926 58.8634L13.4346 51.3048Z" fill="white"/>
<path id="Vector_5" d="M37.4094 71.9948L22.193 58.8621L19.8262 68.4956L37.0037 72.7156C37.1175 72.4675 37.2226 72.2136 37.4094 71.9948ZM71.9892 15.1973L35.1447 6.14453L25.3186 46.1379L45.0351 63.1579C45.5463 62.5925 46.2584 62.2495 47.0192 62.2023C47.7799 62.1551 48.529 62.4074 49.1061 62.9053C49.6833 63.4031 50.0428 64.107 50.1077 64.8665C50.1726 65.626 49.9378 66.3807 49.4535 66.9693L53.8719 70.7836C54.4577 71.2892 54.8187 72.0066 54.8756 72.7782C54.9325 73.5499 54.6807 74.3125 54.1754 74.8985L52.7279 76.5737L68.0056 80.3267L80.5401 29.3135L71.9892 15.1973Z" fill="white"/>
<path id="Vector_6" d="M32.4039 13.1356H28.0264V7.29883H33.8631M63.5342 25.1418L46.5318 20.9656L47.9238 15.2981L64.9292 19.4743" fill="#1FAB89" fill-opacity="0.12"/>
<path id="Vector_7" d="M62.8719 12.9574L51.3735 1.46191V10.1353L62.8719 12.9574ZM80.5398 29.3207L69.2048 26.5366L71.9889 15.1987L80.5398 29.3207Z" fill="#1FAB89" fill-opacity="0.47"/>
<path id="Vector_8" d="M30.9452 23.3496H25.1084C24.7214 23.3496 24.3503 23.1959 24.0766 22.9222C23.803 22.6486 23.6493 22.2774 23.6493 21.8904C23.6493 21.5034 23.803 21.1323 24.0766 20.8586C24.3503 20.585 24.7214 20.4312 25.1084 20.4312H30.9452C31.3322 20.4312 31.7033 20.585 31.977 20.8586C32.2506 21.1323 32.4044 21.5034 32.4044 21.8904C32.4044 22.2774 32.2506 22.6486 31.977 22.9222C31.7033 23.1959 31.3322 23.3496 30.9452 23.3496ZM28.0268 32.1047H19.2717C18.8847 32.1047 18.5135 31.951 18.2399 31.6774C17.9662 31.4037 17.8125 31.0326 17.8125 30.6456C17.8125 30.2586 17.9662 29.8874 18.2399 29.6138C18.5135 29.3401 18.8847 29.1864 19.2717 29.1864H28.0268C28.4138 29.1864 28.785 29.3401 29.0586 29.6138C29.3323 29.8874 29.486 30.2586 29.486 30.6456C29.486 31.0326 29.3323 31.4037 29.0586 31.6774C28.785 31.951 28.4138 32.1047 28.0268 32.1047ZM26.5676 40.8599H19.2717C18.8847 40.8599 18.5135 40.7061 18.2399 40.4325C17.9662 40.1588 17.8125 39.7877 17.8125 39.4007C17.8125 39.0137 17.9662 38.6425 18.2399 38.3689C18.5135 38.0952 18.8847 37.9415 19.2717 37.9415H26.5676C26.9546 37.9415 27.3258 38.0952 27.5994 38.3689C27.8731 38.6425 28.0268 39.0137 28.0268 39.4007C28.0268 39.7877 27.8731 40.1588 27.5994 40.4325C27.3258 40.7061 26.9546 40.8599 26.5676 40.8599ZM32.4044 14.5945H28.0268C27.6398 14.5945 27.2687 14.4408 26.995 14.1671C26.7214 13.8934 26.5676 13.5223 26.5676 13.1353V7.29855C26.5676 6.91155 26.7214 6.5404 26.995 6.26675C27.2687 5.9931 27.6398 5.83936 28.0268 5.83936H33.8636C34.2506 5.83936 34.6217 5.9931 34.8954 6.26675C35.169 6.5404 35.3228 6.91155 35.3228 7.29855C35.3228 7.68555 35.169 8.0567 34.8954 8.33035C34.6217 8.604 34.2506 8.75774 33.8636 8.75774H29.486V11.6761H32.4044C32.7914 11.6761 33.1625 11.8298 33.4362 12.1035C33.7098 12.3771 33.8636 12.7483 33.8636 13.1353C33.8636 13.5223 33.7098 13.8934 33.4362 14.1671C33.1625 14.4408 32.7914 14.5945 32.4044 14.5945ZM62.8722 14.4194C62.7551 14.4194 62.6384 14.4047 62.5249 14.3756L51.0294 11.5506C50.7126 11.473 50.4308 11.2914 50.2293 11.0348C50.0277 10.7782 49.918 10.4615 49.9175 10.1352V1.4618C49.917 1.17282 50.0023 0.890194 50.1626 0.649751C50.3229 0.409309 50.551 0.221878 50.818 0.111221C51.0849 0.000563126 51.3787 -0.0283378 51.6621 0.0281818C51.9455 0.0847013 52.2058 0.224096 52.4098 0.428694L63.9053 11.9242C64.1109 12.1281 64.2512 12.3886 64.3083 12.6725C64.3654 12.9564 64.3367 13.2509 64.226 13.5184C64.1152 13.786 63.9273 14.0145 63.6862 14.175C63.4452 14.3354 63.1618 14.4205 62.8722 14.4194ZM52.833 8.99121L58.1415 10.2928L52.833 4.98428V8.99121ZM67.1155 36.4969C66.9974 36.4967 66.8798 36.482 66.7653 36.4531L41.2587 30.1874C41.0729 30.1418 40.8978 30.06 40.7435 29.9467C40.5892 29.8335 40.4588 29.6909 40.3596 29.5272C40.1593 29.1967 40.0985 28.8001 40.1906 28.4247C40.2827 28.0493 40.5202 27.7259 40.8507 27.5255C41.1813 27.3252 41.5779 27.2644 41.9533 27.3565L67.4599 33.6223C67.8151 33.6974 68.1293 33.9027 68.3407 34.1979C68.5521 34.493 68.6454 34.8566 68.6022 35.2171C68.5591 35.5775 68.3825 35.9088 68.1074 36.1456C67.8322 36.3825 67.4784 36.5078 67.1155 36.4969ZM70.6964 46.3931C70.5783 46.3929 70.4607 46.3782 70.3462 46.3493L33.5017 37.2965C33.1263 37.2044 32.8029 36.967 32.6026 36.6364C32.4022 36.3058 32.3415 35.9092 32.4336 35.5338C32.5257 35.1584 32.7631 34.835 33.0937 34.6347C33.4243 34.4344 33.8209 34.3736 34.1963 34.4657L71.0407 43.5185C71.3959 43.5936 71.7102 43.799 71.9216 44.0941C72.133 44.3892 72.2263 44.7528 72.1831 45.1133C72.1399 45.4738 71.9634 45.805 71.6882 46.0419C71.4131 46.2787 71.0593 46.404 70.6964 46.3931ZM68.6068 54.8943C68.4887 54.8942 68.3711 54.8795 68.2566 54.8506L31.415 45.8007C31.2292 45.7551 31.0541 45.6733 30.8998 45.56C30.7456 45.4468 30.6151 45.3042 30.5159 45.1405C30.4167 44.9769 30.3508 44.7952 30.3218 44.6061C30.2928 44.4169 30.3013 44.2239 30.3469 44.038C30.3925 43.8521 30.4743 43.677 30.5876 43.5228C30.7008 43.3685 30.8434 43.238 31.0071 43.1388C31.1707 43.0397 31.3524 42.9737 31.5415 42.9447C31.7307 42.9157 31.9237 42.9242 32.1096 42.9698L68.9541 52.0227C69.3062 52.101 69.6166 52.3074 69.8249 52.6019C70.0333 52.8963 70.1247 53.2577 70.0814 53.6158C70.0381 53.9739 69.8631 54.3031 69.5906 54.5394C69.3181 54.7757 68.9674 54.9022 68.6068 54.8943ZM66.5173 63.3956C66.3992 63.3954 66.2816 63.3807 66.1671 63.3518L42.2101 57.4654C42.016 57.4279 41.8315 57.3513 41.6679 57.2403C41.5043 57.1293 41.365 56.9862 41.2584 56.8197C41.1517 56.6532 41.0801 56.4668 41.0477 56.2717C41.0153 56.0767 41.0229 55.8771 41.07 55.6851C41.1171 55.493 41.2028 55.3126 41.3218 55.1547C41.4407 54.9968 41.5905 54.8647 41.7621 54.7665C41.9337 54.6682 42.1235 54.6059 42.3199 54.5832C42.5163 54.5605 42.7152 54.578 42.9047 54.6346L66.8616 60.521C67.2062 60.6073 67.5074 60.8163 67.7088 61.1088C67.9103 61.4013 67.9981 61.7573 67.9559 62.11C67.9136 62.4626 67.7442 62.7878 67.4794 63.0244C67.2145 63.2611 66.8724 63.3931 66.5173 63.3956ZM64.4277 71.8968C64.3096 71.8966 64.192 71.8819 64.0775 71.853L57.1464 70.1516C56.771 70.0595 56.4475 69.822 56.2472 69.4915C56.148 69.3278 56.0821 69.1462 56.0531 68.957C56.0241 68.7678 56.0326 68.5748 56.0782 68.3889C56.1238 68.203 56.2056 68.028 56.3189 67.8737C56.4321 67.7194 56.5747 67.589 56.7384 67.4898C57.0689 67.2895 57.4655 67.2287 57.8409 67.3208L64.7721 69.0222C65.1215 69.1035 65.4286 69.3108 65.6345 69.6045C65.8405 69.8982 65.9307 70.2576 65.8881 70.6138C65.8454 70.97 65.6728 71.2979 65.4033 71.5346C65.1338 71.7714 64.7864 71.9003 64.4277 71.8968ZM80.5401 30.7798C80.4229 30.7798 80.3062 30.7651 80.1928 30.736L68.8549 27.949C68.6687 27.9038 68.4933 27.8224 68.3388 27.7092C68.1842 27.5961 68.0536 27.4535 67.9543 27.2897C67.855 27.1259 67.7891 26.9441 67.7604 26.7547C67.7316 26.5654 67.7406 26.3722 67.7868 26.1863L70.5738 14.8513C70.6427 14.5712 70.793 14.3178 71.0059 14.1231C71.2187 13.9283 71.4845 13.8011 71.7696 13.7574C72.0548 13.7136 72.3465 13.7554 72.6079 13.8774C72.8693 13.9994 73.0886 14.1961 73.2383 14.4427L81.7891 28.5648C81.9232 28.7861 81.996 29.0392 82 29.2979C82.004 29.5567 81.9391 29.8119 81.812 30.0373C81.6849 30.2628 81.5001 30.4503 81.2766 30.5808C81.0531 30.7113 80.7989 30.78 80.5401 30.7798ZM70.9707 25.4654L77.4699 27.0647L72.5671 18.9691L70.9707 25.4654ZM63.5376 26.6036C63.4195 26.6034 63.3019 26.5887 63.1874 26.5598L46.182 22.3807C45.9959 22.3356 45.8205 22.2541 45.6659 22.141C45.5114 22.0278 45.3807 21.8853 45.2815 21.7215C45.1822 21.5576 45.1163 21.3758 45.0875 21.1865C45.0588 20.9971 45.0677 20.8039 45.1139 20.618L46.5089 14.9505C46.6014 14.5754 46.839 14.2523 47.1694 14.052C47.4998 13.8518 47.8962 13.7908 48.2716 13.8824L65.277 18.0615C65.4631 18.1066 65.6385 18.1881 65.793 18.3013C65.9476 18.4144 66.0783 18.557 66.1775 18.7208C66.2768 18.8846 66.3427 19.0664 66.3714 19.2558C66.4002 19.4451 66.3912 19.6383 66.3451 19.8242C66.301 20.011 66.2202 20.1871 66.1073 20.3422C65.9945 20.4974 65.8518 20.6285 65.6877 20.7279C65.5236 20.8274 65.3414 20.8931 65.1516 20.9214C64.9618 20.9496 64.7683 20.9397 64.5824 20.8923L48.9953 17.0605L48.2949 19.8972L63.882 23.729C64.2372 23.8041 64.5514 24.0094 64.7628 24.3046C64.9742 24.5997 65.0675 24.9633 65.0243 25.3238C64.9811 25.6842 64.8046 26.0155 64.5295 26.2524C64.2543 26.4892 63.9005 26.6145 63.5376 26.6036Z" fill="#1FAB89"/>
<path id="Vector_9" d="M6.47949 45.3027L14.1069 36.4657L45.0366 63.1616L37.4092 71.9986L6.47949 45.3027Z" fill="#1FAB89" fill-opacity="0.12"/>
<path id="Vector_10" d="M37.4078 73.4544C37.0579 73.4537 36.7196 73.3286 36.4535 73.1013L5.52458 46.4069C5.23153 46.1536 5.05096 45.7944 5.02251 45.4081C4.99406 45.0218 5.12005 44.64 5.37283 44.3465L13.0015 35.5097C13.2542 35.2168 13.613 35.0363 13.9988 35.0079C14.3846 34.9794 14.7659 35.1053 15.0589 35.3579L45.9879 62.0523C46.2809 62.3056 46.4615 62.6648 46.4899 63.0511C46.5184 63.4374 46.3924 63.8192 46.1396 64.1127L38.511 72.9495C38.3857 73.0947 38.2331 73.2137 38.0619 73.2998C37.8906 73.3859 37.7041 73.4375 37.5129 73.4515L37.4078 73.4544ZM8.53635 45.1491L37.2561 69.9378L42.9761 63.3101L14.2564 38.5215L8.53635 45.1491Z" fill="#1FAB89"/>
<path id="Vector_11" d="M25.3184 47.6016C24.9684 47.6015 24.6299 47.4762 24.3641 47.2485L14.2081 38.4817C13.9873 38.6198 13.7335 38.6962 13.4731 38.703C13.2127 38.7098 12.9552 38.6469 12.7274 38.5206C12.4996 38.3943 12.3097 38.2094 12.1775 37.9849C12.0453 37.7605 11.9756 37.5048 11.9756 37.2443V1.46212C11.9756 1.07512 12.1293 0.703967 12.403 0.430316C12.6766 0.156665 13.0478 0.00292969 13.4348 0.00292969H51.3736C51.7618 0.00292969 52.1324 0.157603 52.4068 0.429012L63.9022 11.9245C64.1274 12.1498 64.2727 12.4427 64.3159 12.7583C64.359 13.074 64.2977 13.3951 64.1412 13.6726C63.9848 13.9501 63.7418 14.1688 63.4494 14.2953C63.157 14.4218 62.8312 14.4491 62.5218 14.373L36.2127 7.91173L26.7338 46.4897C26.6571 46.8071 26.4757 47.0894 26.2189 47.2912C25.9622 47.4929 25.6449 47.6022 25.3184 47.6016ZM14.894 35.2365C14.9523 35.2744 15.0078 35.3123 15.0603 35.359L24.4692 43.4809L33.7262 5.80174C33.8188 5.4266 34.0563 5.10348 34.3868 4.90324C34.7172 4.70301 35.1136 4.642 35.4889 4.73362L58.1384 10.296L50.7666 2.92422H14.894V35.2365ZM20.5235 67.1256H13.4348C13.0478 67.1256 12.6766 66.9718 12.403 66.6982C12.1293 66.4245 11.9756 66.0534 11.9756 65.6664V51.3021C11.9776 51.0234 12.059 50.751 12.2104 50.517C12.3618 50.2829 12.5768 50.0969 12.8302 49.9808C13.0836 49.8646 13.3649 49.8232 13.641 49.8613C13.9171 49.8995 14.1766 50.0156 14.3891 50.1961L23.1471 57.7576C23.3513 57.9332 23.5028 58.1621 23.5847 58.4186C23.6666 58.6752 23.6758 58.9495 23.6111 59.2109L21.9389 66.0137C21.8617 66.3308 21.6802 66.6128 21.4236 66.8145C21.1669 67.0161 20.8499 67.1257 20.5235 67.1256ZM14.894 64.2072H19.3795L20.5644 59.386L14.894 54.489V64.2072Z" fill="#1FAB89"/>
<path id="Vector_12" d="M6.48003 46.76C6.19194 46.7604 5.91024 46.6752 5.6707 46.5151C5.43115 46.3551 5.24458 46.1275 5.13466 45.8612L0.112139 33.8141C0.00803332 33.5641 -0.024454 33.2901 0.0183121 33.0227C0.0610782 32.7553 0.177411 32.5051 0.354291 32.3C0.531172 32.095 0.761623 31.9432 1.01986 31.8617C1.27809 31.7801 1.55391 31.7721 1.81647 31.8384L14.4676 35.0486C14.7094 35.1091 14.9316 35.2306 15.113 35.4016C15.2944 35.5725 15.4288 35.7872 15.5035 36.025C15.5782 36.2628 15.5906 36.5158 15.5395 36.7597C15.4884 37.0037 15.3756 37.2304 15.2118 37.4183L7.58318 46.2551C7.44615 46.4133 7.27676 46.5403 7.08644 46.6274C6.89613 46.7145 6.68933 46.7597 6.48003 46.76ZM3.92645 35.3842L6.91779 42.5576L11.4617 37.2957L3.92645 35.3842Z" fill="#1FAB89"/>
<path id="Vector_13" d="M41.2232 69.0388C40.8732 69.0389 40.5346 68.9136 40.2689 68.6857L9.34 41.9884C9.07058 41.7292 8.91069 41.3766 8.8932 41.0032C8.87572 40.6297 9.00195 40.2637 9.24597 39.9805C9.48999 39.6972 9.83324 39.5182 10.2052 39.4802C10.5771 39.4422 10.9495 39.5482 11.2457 39.7763L42.1746 66.4706C42.3999 66.6654 42.5604 66.9243 42.6345 67.2128C42.7086 67.5012 42.6929 67.8054 42.5895 68.0846C42.486 68.3639 42.2998 68.6049 42.0556 68.7754C41.8114 68.9459 41.521 69.0378 41.2232 69.0388Z" fill="#1FAB89"/>
<path id="Vector_14" d="M49.455 66.9741L41.8264 75.811C41.3152 76.3764 40.6031 76.7194 39.8423 76.7666C39.0816 76.8138 38.3325 76.5615 37.7553 76.0637C37.1782 75.5658 36.8187 74.8618 36.7538 74.1024C36.6889 73.3429 36.9237 72.5882 37.408 71.9996L45.0366 63.1628C45.2837 62.8624 45.5884 62.6145 45.9327 62.4335C46.2771 62.2526 46.6541 62.1424 47.0416 62.1092C47.4292 62.0761 47.8195 62.1208 48.1895 62.2407C48.5595 62.3605 48.9019 62.5531 49.1964 62.8072C49.4909 63.0613 49.7317 63.3716 49.9045 63.7201C50.0774 64.0685 50.1789 64.448 50.2029 64.8362C50.227 65.2244 50.1733 65.6136 50.0448 65.9807C49.9164 66.3479 49.7159 66.6856 49.455 66.9741Z" fill="#1FAB89" fill-opacity="0.51"/>
<path id="Vector_15" d="M39.6127 78.2806C38.5643 78.2821 37.5507 77.9048 36.7585 77.2183C36.3224 76.8432 35.9645 76.3857 35.7055 75.8721C35.4465 75.3585 35.2914 74.7988 35.2491 74.2251C35.2068 73.6514 35.2782 73.0751 35.4591 72.529C35.6399 71.9829 35.9268 71.478 36.3032 71.043L43.9319 62.2061C44.7 61.3588 45.769 60.8454 46.9106 60.7757C48.0522 60.7061 49.1757 61.0856 50.0412 61.8333C50.9066 62.581 51.4453 63.6375 51.5422 64.7771C51.639 65.9167 51.2863 67.049 50.5595 67.932L42.9309 76.7659C42.5199 77.243 42.0106 77.6254 41.4378 77.8869C40.865 78.1484 40.2423 78.2827 39.6127 78.2806ZM47.2471 63.607C47.0373 63.6066 46.8299 63.6516 46.639 63.7387C46.4481 63.8258 46.2783 63.9531 46.1411 64.1118L38.5124 72.9487C38.386 73.0928 38.2895 73.2607 38.2286 73.4425C38.1677 73.6244 38.1436 73.8165 38.1577 74.0078C38.1718 74.199 38.2239 74.3855 38.3109 74.5564C38.3978 74.7273 38.5179 74.8792 38.6642 75.0032C38.8088 75.1298 38.9772 75.2264 39.1595 75.2874C39.3418 75.3484 39.5344 75.3725 39.7261 75.3584C39.9178 75.3443 40.1048 75.2922 40.2762 75.2052C40.4476 75.1181 40.6 74.9979 40.7246 74.8515L48.3532 66.0175C48.5353 65.8058 48.6528 65.5463 48.6917 65.2698C48.7307 64.9933 48.6895 64.7114 48.5731 64.4576C48.4566 64.2038 48.2698 63.9888 48.0348 63.838C47.7997 63.6872 47.5264 63.607 47.2471 63.607Z" fill="#1FAB89"/>
<path id="Vector_16" d="M54.1753 74.9009L50.361 79.3193C49.8554 79.9051 49.138 80.2661 48.3663 80.323C47.5947 80.3799 46.8321 80.1281 46.2461 79.6228L41.8276 75.8085L49.4563 66.9717L53.8747 70.786C54.46 71.2919 54.8205 72.0096 54.8768 72.7812C54.9332 73.5528 54.6809 74.3153 54.1753 74.9009Z" fill="#1FAB89" fill-opacity="0.47"/>
<path id="Vector_17" d="M48.1449 81.7961C47.0972 81.7961 46.0933 81.4225 45.2907 80.7338L40.8723 76.9166C40.5792 76.6633 40.3987 76.3041 40.3702 75.9178C40.3418 75.5315 40.4677 75.1497 40.7205 74.8562L48.3492 66.0223C48.6024 65.7301 48.961 65.5501 49.3466 65.5216C49.7321 65.4932 50.1133 65.6186 50.4066 65.8705L54.825 69.6848C55.262 70.0594 55.6205 70.5168 55.8799 71.0306C56.1393 71.5443 56.2945 72.1043 56.3365 72.6783C56.3786 73.2523 56.3066 73.829 56.1249 74.375C55.9431 74.9211 55.6551 75.4258 55.2774 75.8601L51.4631 80.2785C51.0529 80.7568 50.5438 81.1402 49.9708 81.4022C49.3979 81.6642 48.7749 81.7986 48.1449 81.7961ZM43.884 75.6587L47.1993 78.5188C47.3436 78.6448 47.5116 78.741 47.6934 78.8017C47.8752 78.8624 48.0672 78.8864 48.2583 78.8722C48.4494 78.8581 48.6358 78.8062 48.8067 78.7195C48.9776 78.6327 49.1296 78.5129 49.2539 78.367L53.0682 73.9457C53.3202 73.6532 53.4461 73.2727 53.4182 72.8876C53.3903 72.5026 53.2109 72.1442 52.9193 71.8911L49.6041 69.0311L43.884 75.6587ZM36.9704 74.1704C36.8651 74.1709 36.7602 74.1581 36.6581 74.1324L19.4806 69.9125C19.2944 69.8673 19.1191 69.7859 18.9645 69.6727C18.8099 69.5596 18.6793 69.417 18.58 69.2532C18.4808 69.0894 18.4149 68.9076 18.3861 68.7182C18.3573 68.5288 18.3663 68.3357 18.4125 68.1498L20.7793 58.5162C20.8375 58.273 20.9576 58.0489 21.1278 57.8656C21.298 57.6823 21.5127 57.5461 21.751 57.4701C21.9893 57.3941 22.2432 57.3809 22.4881 57.4317C22.733 57.4826 22.9606 57.5958 23.149 57.7604L38.3625 70.893C38.6459 71.1524 38.8193 71.5104 38.847 71.8936C38.8747 72.2768 38.7545 72.656 38.5113 72.9534C38.4557 73.048 38.4069 73.1465 38.3654 73.2482C38.2428 73.5173 38.047 73.7465 37.8003 73.9096C37.5536 74.0726 37.266 74.163 36.9704 74.1704ZM21.5935 67.4289L33.1824 70.2773L23.0439 61.5251L21.5935 67.4289Z" fill="#1FAB89"/>
<path id="Vector_18" d="M68.0083 81.7927C67.8902 81.7926 67.7726 81.7778 67.6581 81.7489L52.3804 77.9959C52.1381 77.9362 51.9152 77.8154 51.733 77.645C51.5507 77.4745 51.4152 77.2603 51.3394 77.0225C51.2636 76.7848 51.25 76.5317 51.2999 76.2872C51.3498 76.0427 51.4616 75.8151 51.6245 75.6262L53.072 73.951C53.1985 73.8069 53.295 73.639 53.3559 73.4572C53.4168 73.2753 53.4409 73.0832 53.4268 72.892C53.4126 72.7007 53.3606 72.5142 53.2736 72.3433C53.1867 72.1724 53.0666 72.0205 52.9203 71.8965L48.5019 68.0822C48.3564 67.957 48.2371 67.8043 48.1508 67.633C48.0644 67.4616 48.0127 67.2749 47.9986 67.0835C47.9845 66.8921 48.0083 66.6998 48.0686 66.5176C48.1289 66.3355 48.2246 66.167 48.3501 66.0218C48.5923 65.7275 48.7097 65.3502 48.6772 64.9704C48.6447 64.5907 48.465 64.2387 48.1764 63.9898C47.8878 63.7409 47.5133 63.6147 47.1329 63.6383C46.7525 63.6619 46.3965 63.8334 46.1409 64.1161C45.8869 64.407 45.5284 64.586 45.1433 64.6144C44.7582 64.6428 44.3774 64.5183 44.0834 64.2679L24.3669 47.2508C24.1627 47.0752 24.0113 46.8464 23.9293 46.5898C23.8474 46.3332 23.8383 46.059 23.9029 45.7975L33.7291 5.80407C33.8216 5.42894 34.0591 5.10582 34.3896 4.90558C34.72 4.70534 35.1164 4.64434 35.4918 4.73595L72.3362 13.7887C72.7127 13.8792 73.0367 14.1185 73.238 14.4512L81.7889 28.5732C81.9892 28.904 82.0501 29.3008 81.9581 29.6764L69.4237 80.6808C69.3456 80.9975 69.1638 81.2789 68.9074 81.4804C68.6509 81.6819 68.3344 81.7918 68.0083 81.7927ZM55.3863 75.7313L66.9372 78.5708L78.9785 29.5626L71.0551 16.4766L36.2126 7.91114L26.9497 45.6195L45.0757 61.262C45.8623 60.8147 46.7679 60.6214 47.6685 60.7087C48.5692 60.7959 49.4209 61.1594 50.107 61.7493C51.5487 62.9955 51.9806 64.977 51.3239 66.6609L54.826 69.6815C55.7103 70.4461 56.2443 71.5084 56.3319 72.6728C56.4136 73.7876 56.078 74.8645 55.3863 75.7313Z" fill="#1FAB89"/>
</g>
</svg>
