<svg width="28" height="28" viewBox="0 0 28 28" fill="none" xmlns="http://www.w3.org/2000/svg">
<path id="Vector" d="M27.259 23.5361L21.0905 17.3678C22.1645 15.6287 22.8138 13.6001 22.8138 11.4065C22.8138 5.10662 17.707 0 11.4069 0C5.10679 0 0 5.10662 0 11.4065C0 17.7065 5.10679 22.8131 11.4069 22.8131C13.6005 22.8131 15.6292 22.1638 17.3666 21.0916L23.5368 27.2599C24.0334 27.74 24.6988 28.0058 25.3895 27.9999C26.0802 27.994 26.741 27.7169 27.2293 27.2284C27.7176 26.7399 27.9944 26.079 27.9999 25.3883C28.0055 24.6976 27.7394 24.0324 27.259 23.5361ZM11.4069 19.3034C7.04596 19.3034 3.50982 15.7674 3.50982 11.4065C3.50982 7.04574 7.04596 3.50971 11.4069 3.50971C15.7679 3.50971 19.304 7.04574 19.304 11.4065C19.304 15.7674 15.7679 19.3034 11.4069 19.3034Z" fill="#1FAB89"/>
</svg>
