<svg width="18" height="19" viewBox="0 0 18 19" fill="none" xmlns="http://www.w3.org/2000/svg">
<g id="Layer 2">
<path id="search" d="M17.71 16.7871L14.31 13.3971C15.407 11.9995 16.0022 10.2737 16 8.49707C16 6.91482 15.5308 5.3681 14.6518 4.05251C13.7727 2.73692 12.5233 1.71154 11.0615 1.10604C9.59966 0.500537 7.99113 0.34211 6.43928 0.650792C4.88743 0.959473 3.46197 1.7214 2.34315 2.84022C1.22433 3.95904 0.462403 5.3845 0.153721 6.93635C-0.15496 8.4882 0.00346625 10.0967 0.608967 11.5585C1.21447 13.0204 2.23985 14.2698 3.55544 15.1488C4.87103 16.0279 6.41775 16.4971 8 16.4971C9.77666 16.4993 11.5025 15.9041 12.9 14.8071L16.29 18.2071C16.383 18.3008 16.4936 18.3752 16.6154 18.426C16.7373 18.4767 16.868 18.5029 17 18.5029C17.132 18.5029 17.2627 18.4767 17.3846 18.426C17.5064 18.3752 17.617 18.3008 17.71 18.2071C17.8037 18.1141 17.8781 18.0035 17.9289 17.8817C17.9797 17.7598 18.0058 17.6291 18.0058 17.4971C18.0058 17.3651 17.9797 17.2344 17.9289 17.1125C17.8781 16.9906 17.8037 16.88 17.71 16.7871ZM2 8.49707C2 7.31039 2.3519 6.15035 3.01119 5.16365C3.67047 4.17696 4.60755 3.40792 5.7039 2.9538C6.80026 2.49967 8.00666 2.38085 9.17055 2.61236C10.3344 2.84387 11.4035 3.41532 12.2426 4.25443C13.0818 5.09355 13.6532 6.16265 13.8847 7.32653C14.1162 8.49042 13.9974 9.69682 13.5433 10.7932C13.0892 11.8895 12.3201 12.8266 11.3334 13.4859C10.3467 14.1452 9.18669 14.4971 8 14.4971C6.4087 14.4971 4.88258 13.8649 3.75736 12.7397C2.63214 11.6145 2 10.0884 2 8.49707Z" fill="black"/>
</g>
</svg>
