<svg width="20" height="22" viewBox="0 0 20 22" fill="none" xmlns="http://www.w3.org/2000/svg">
<path id="Vector" d="M10.7494 0.375382C11.3282 0.364757 11.8765 0.576191 12.2859 0.980996C12.6974 1.37305 12.9173 1.91598 12.9173 2.48972C12.9173 3.65845 13.875 4.60512 15.0653 4.60512C15.4326 4.60512 15.8009 4.49781 16.1282 4.31719C17.148 3.76363 18.4214 4.11531 19.0002 5.10342L19.7169 6.34652C19.8958 6.66527 20 7.02651 20 7.39838C20 8.15274 19.5906 8.85504 18.9276 9.22585C18.6003 9.40647 18.3267 9.68271 18.1383 10.0025C17.5795 11.0002 17.9278 12.2635 18.9276 12.8393C19.9369 13.4226 20.2841 14.6987 19.7169 15.707L19.0002 16.9086C18.6214 17.5663 17.9162 17.9711 17.1585 17.9711C16.7796 17.9711 16.4008 17.8744 16.0861 17.6832C15.7483 17.5026 15.381 17.3963 15.0116 17.3963C14.4433 17.3963 13.8961 17.6205 13.4972 18.0232C13.0857 18.4174 12.8647 18.9582 12.8647 19.5213C12.8647 20.6794 11.9081 21.625 10.7178 21.625H9.27707C8.70772 21.625 8.17099 21.3913 7.7816 20.9981C7.38169 20.5944 7.17226 20.0632 7.17226 19.5107C7.17226 18.3419 6.22405 17.3963 5.03588 17.3963C4.64544 17.3963 4.26658 17.5026 3.94033 17.7055C3.4457 17.9807 2.85636 18.0551 2.30911 17.9169C1.76186 17.7682 1.28828 17.4069 1.00413 16.9288L0.331642 15.7282C0.0148692 15.2299 -0.0798471 14.6339 0.0685418 14.0708C0.214826 13.5076 0.594743 13.0295 1.10937 12.7427C1.43667 12.562 1.70924 12.2964 1.89867 11.967C2.44697 10.9683 2.09863 9.71459 1.10937 9.13022C0.109585 8.55648 -0.237708 7.29213 0.331642 6.2934L1.00413 5.10342C1.28828 4.60512 1.76186 4.24281 2.31963 4.09406C2.87846 3.94532 3.46675 4.02925 3.96138 4.31719C4.29815 4.49781 4.66649 4.59343 5.03588 4.59343C5.60418 4.59343 6.15038 4.37031 6.55029 3.97719C6.9502 3.58407 7.17226 3.04221 7.17226 2.48972C7.17226 1.32099 8.1289 0.375382 9.31811 0.375382H10.7494ZM11.1714 8.3238C10.0664 7.86587 8.79191 8.11024 7.93946 8.9496C7.09754 9.77834 6.83444 11.0427 7.2975 12.1275C7.75108 13.2208 8.82348 13.9326 10.0232 13.9326H10.0348C10.8241 13.9433 11.5608 13.6362 12.1175 13.0827C12.6753 12.5408 12.991 11.7971 12.991 11.0214C13.0015 9.84209 12.2754 8.76898 11.1714 8.3238Z" fill="#3F3F3F"/>
</svg>
