<svg width="430" height="457" viewBox="0 0 430 457" fill="none" xmlns="http://www.w3.org/2000/svg">
<path d="M-39.5 137.5C-39.5 75.2634 12.8804 22.9589 73.6444 35.7375C74.8843 35.9982 76.1064 36.264 77.3087 36.535C104.096 42.5719 124.863 62.7213 145.756 82.9923L145.837 83.0709C166.707 103.321 187.711 123.675 214.893 129.645C242.914 135.801 264.505 131.162 285.974 123.153C293.239 120.442 300.503 117.34 307.993 114.141C311.551 112.622 315.16 111.081 318.844 109.549C330.295 104.79 342.504 100.112 356.269 96.4288C381.054 89.797 409.394 92.7335 431.524 103.738C453.646 114.738 469.5 133.76 469.5 159.296V449.5H-39.5V137.5Z" stroke="white"/>
<path d="M-39.5 126.5C-39.5 64.2634 12.8804 11.9589 73.6444 24.7375C74.8843 24.9982 76.1064 25.264 77.3087 25.535C104.096 31.5719 124.863 51.7213 145.756 71.9923L145.837 72.0709C166.707 92.3208 187.711 112.675 214.893 118.645C242.914 124.801 264.505 120.162 285.974 112.153C293.239 109.442 300.503 106.34 307.993 103.141C311.551 101.622 315.16 100.081 318.844 98.5492C330.295 93.7898 342.504 89.1119 356.269 85.4288C381.054 78.797 409.394 81.7335 431.524 92.7375C453.646 103.738 469.5 122.76 469.5 148.296V438.5H-39.5V126.5Z" stroke="white"/>
<path d="M-39.5 114.5C-39.5 52.2634 12.8804 -0.0410867 73.6444 12.7375C74.8843 12.9982 76.1064 13.264 77.3087 13.535C104.096 19.5719 124.863 39.7213 145.756 59.9923L145.837 60.0709C166.707 80.3208 187.711 100.675 214.893 106.645C242.914 112.801 264.505 108.162 285.974 100.153C293.239 97.4419 300.503 94.3397 307.993 91.1413C311.551 89.6218 315.16 88.0806 318.844 86.5492C330.295 81.7898 342.504 77.1119 356.269 73.4288C381.054 66.797 409.394 69.7335 431.524 80.7375C453.646 91.7377 469.5 110.76 469.5 136.296V426.5H-39.5V114.5Z" stroke="white"/>
<path d="M-40 144.5C-40 82.0197 12.6042 29.3899 73.7473 42.2482C74.9894 42.5094 76.2138 42.7757 77.4186 43.0472C131.388 55.2098 160.965 124.288 215 136.157C270.793 148.413 300.957 117.711 356.14 102.946C405.944 89.6197 470 114.739 470 166.296V457H-40V144.5Z" fill="#1FAB89"/>
<path d="M-39.5 151.5C-39.5 89.2634 12.8804 36.9589 73.6444 49.7375C74.8843 49.9982 76.1064 50.264 77.3087 50.535C104.096 56.5719 124.863 76.7213 145.756 96.9923L145.837 97.0709C166.707 117.321 187.711 137.675 214.893 143.645C242.914 149.801 264.505 145.162 285.974 137.153C293.239 134.442 300.503 131.34 307.993 128.141C311.551 126.622 315.16 125.081 318.844 123.549C330.295 118.79 342.504 114.112 356.269 110.429C381.054 103.797 409.394 106.733 431.524 117.738C453.646 128.738 469.5 147.76 469.5 173.296V463.5H-39.5V151.5Z" stroke="white"/>
</svg>
