<svg width="50" height="49" viewBox="0 0 50 49" fill="none" xmlns="http://www.w3.org/2000/svg">
<g id="Group 48095918">
<g id="Group" filter="url(#filter0_d_327_6428)">
<path id="Vector" d="M18.5484 13.644L8.53907 16.2983C8.53907 16.2983 4.05568 19.3107 5.18132 23.6853C6.30697 28.0601 9.87153 28.9406 11.5451 28.9299L21.9381 26.3076L18.5484 13.644Z" fill="#DF6E21"/>
<path id="Vector_2" d="M18.5484 13.644L8.53907 16.2983C8.53907 16.2983 4.05568 19.3107 5.18132 23.6853C6.30697 28.0601 9.87153 28.9406 11.5451 28.9299L21.9381 26.3076L18.5484 13.644Z" stroke="#DF6E21" stroke-width="0.1"/>
</g>
<g id="Group_2" filter="url(#filter1_d_327_6428)">
<path id="Vector_3" d="M23.4566 25.8018L20.0107 13.2967C27.436 12.941 32.2935 5.10824 33.7941 1.2363L35.4058 0.902832L42.8533 29.2475L40.7969 29.859C36.3061 24.8347 27.3655 25.0607 23.4566 25.8018Z" fill="#DF6E21"/>
<path id="Vector_4" d="M23.4566 25.8018L20.0107 13.2967C27.436 12.941 32.2935 5.10824 33.7941 1.2363L35.4058 0.902832L42.8533 29.2475L40.7969 29.859C36.3061 24.8347 27.3655 25.0607 23.4566 25.8018Z" stroke="#DF6E21" stroke-width="0.1"/>
</g>
<g id="Group_3" filter="url(#filter2_d_327_6428)">
<path id="Vector_5" d="M41.7965 19.7442L39.6289 11.3521C41.1963 11.352 44.6116 11.4979 45.0067 14.5995C45.344 17.2487 42.7417 19.2091 41.7965 19.7442Z" fill="#DF6E21"/>
<path id="Vector_6" d="M41.7965 19.7442L39.6289 11.3521C41.1963 11.352 44.6116 11.4979 45.0067 14.5995C45.344 17.2487 42.7417 19.2091 41.7965 19.7442Z" stroke="#DF6E21" stroke-width="0.1"/>
</g>
<g id="Group_4" filter="url(#filter3_d_327_6428)">
<path id="Vector_7" d="M19.3293 28.4173L14.3027 29.8248C14.6053 30.4248 15.4544 32.0275 16.4305 33.6391C17.6506 35.6535 17.4035 40.0188 19.3293 40.5336C20.8389 40.9373 23.5237 39.342 24.4884 38.1503C25.4532 36.9587 23.481 35.1758 22.5307 34.5187C21.8708 34.0622 21.3225 32.8942 21.1404 32.2488C21.0953 32.0887 20.864 31.3797 20.3011 29.8248C19.7382 28.2699 19.5988 28.4174 19.3293 28.4173Z" fill="#DF6E21"/>
<path id="Vector_8" d="M19.3293 28.4173L14.3027 29.8248C14.6053 30.4248 15.4544 32.0275 16.4305 33.6391C17.6506 35.6535 17.4035 40.0188 19.3293 40.5336C20.8389 40.9373 23.5237 39.342 24.4884 38.1503C25.4532 36.9587 23.481 35.1758 22.5307 34.5187C21.8708 34.0622 21.3225 32.8942 21.1404 32.2488C21.0953 32.0887 20.864 31.3797 20.3011 29.8248C19.7382 28.2699 19.5988 28.4174 19.3293 28.4173Z" stroke="#DF6E21" stroke-width="0.1"/>
</g>
</g>
<defs>
<filter id="filter0_d_327_6428" x="0.950195" y="13.583" width="25.0498" height="23.3984" filterUnits="userSpaceOnUse" color-interpolation-filters="sRGB">
<feFlood flood-opacity="0" result="BackgroundImageFix"/>
<feColorMatrix in="SourceAlpha" type="matrix" values="0 0 0 0 0 0 0 0 0 0 0 0 0 0 0 0 0 0 127 0" result="hardAlpha"/>
<feOffset dy="4"/>
<feGaussianBlur stdDeviation="2"/>
<feColorMatrix type="matrix" values="0 0 0 0 0 0 0 0 0 0 0 0 0 0 0 0 0 0 0.25 0"/>
<feBlend mode="normal" in2="BackgroundImageFix" result="effect1_dropShadow_327_6428"/>
<feBlend mode="normal" in="SourceGraphic" in2="effect1_dropShadow_327_6428" result="shape"/>
</filter>
<filter id="filter1_d_327_6428" x="15.9463" y="0.844238" width="30.9678" height="37.0718" filterUnits="userSpaceOnUse" color-interpolation-filters="sRGB">
<feFlood flood-opacity="0" result="BackgroundImageFix"/>
<feColorMatrix in="SourceAlpha" type="matrix" values="0 0 0 0 0 0 0 0 0 0 0 0 0 0 0 0 0 0 127 0" result="hardAlpha"/>
<feOffset dy="4"/>
<feGaussianBlur stdDeviation="2"/>
<feColorMatrix type="matrix" values="0 0 0 0 0 0 0 0 0 0 0 0 0 0 0 0 0 0 0.25 0"/>
<feBlend mode="normal" in2="BackgroundImageFix" result="effect1_dropShadow_327_6428"/>
<feBlend mode="normal" in="SourceGraphic" in2="effect1_dropShadow_327_6428" result="shape"/>
</filter>
<filter id="filter2_d_327_6428" x="35.5645" y="11.3022" width="13.5225" height="16.5176" filterUnits="userSpaceOnUse" color-interpolation-filters="sRGB">
<feFlood flood-opacity="0" result="BackgroundImageFix"/>
<feColorMatrix in="SourceAlpha" type="matrix" values="0 0 0 0 0 0 0 0 0 0 0 0 0 0 0 0 0 0 127 0" result="hardAlpha"/>
<feOffset dy="4"/>
<feGaussianBlur stdDeviation="2"/>
<feColorMatrix type="matrix" values="0 0 0 0 0 0 0 0 0 0 0 0 0 0 0 0 0 0 0.25 0"/>
<feBlend mode="normal" in2="BackgroundImageFix" result="effect1_dropShadow_327_6428"/>
<feBlend mode="normal" in="SourceGraphic" in2="effect1_dropShadow_327_6428" result="shape"/>
</filter>
<filter id="filter3_d_327_6428" x="10.2305" y="28.3638" width="18.5674" height="20.2837" filterUnits="userSpaceOnUse" color-interpolation-filters="sRGB">
<feFlood flood-opacity="0" result="BackgroundImageFix"/>
<feColorMatrix in="SourceAlpha" type="matrix" values="0 0 0 0 0 0 0 0 0 0 0 0 0 0 0 0 0 0 127 0" result="hardAlpha"/>
<feOffset dy="4"/>
<feGaussianBlur stdDeviation="2"/>
<feColorMatrix type="matrix" values="0 0 0 0 0 0 0 0 0 0 0 0 0 0 0 0 0 0 0.25 0"/>
<feBlend mode="normal" in2="BackgroundImageFix" result="effect1_dropShadow_327_6428"/>
<feBlend mode="normal" in="SourceGraphic" in2="effect1_dropShadow_327_6428" result="shape"/>
</filter>
</defs>
</svg>
