<svg width="33" height="32" viewBox="0 0 33 32" fill="none" xmlns="http://www.w3.org/2000/svg">
<path d="M26.5 32H6.5C3.186 32 0.5 29.314 0.5 26V6C0.5 2.686 3.186 0 6.5 0H26.5C29.814 0 32.5 2.686 32.5 6V26C32.5 29.314 29.814 32 26.5 32Z" fill="#1FAB89" fill-opacity="0.08"/>
<path d="M23.1562 11.3323C22.3768 10.4099 21.4058 9.66849 20.3108 9.15954C19.2157 8.6506 18.023 8.38638 16.8154 8.38527C15.8713 8.38328 14.9339 8.54497 14.045 8.86317C12.3736 9.4531 10.9345 10.5619 9.93801 12.0277C8.94147 13.4935 8.43964 15.2395 8.50579 17.0107C8.57194 18.782 9.20261 20.4857 10.3057 21.873C11.4088 23.2604 12.9265 24.2588 14.6373 24.7224C16.3481 25.186 18.1622 25.0906 19.8149 24.45C21.4676 23.8095 22.8722 22.6573 23.8236 21.1619C24.775 19.6664 25.2234 17.9059 25.1034 16.1375C24.9833 14.3691 24.301 12.6854 23.1562 11.3323ZM16.8154 23.6225C15.4456 23.6225 14.1065 23.2163 12.9675 22.4553C11.8285 21.6942 10.9408 20.6125 10.4166 19.347C9.89238 18.0814 9.75522 16.6888 10.0225 15.3453C10.2897 14.0018 10.9493 12.7677 11.918 11.7991C12.8866 10.8304 14.1207 10.1708 15.4642 9.90356C16.8077 9.63632 18.2003 9.77348 19.4659 10.2977C20.7315 10.8219 21.8132 11.7096 22.5742 12.8486C23.3352 13.9876 23.7414 15.3267 23.7414 16.6965C23.7414 18.5334 23.0117 20.2951 21.7129 21.5939C20.414 22.8928 18.6523 23.6225 16.8154 23.6225Z" fill="#1FAB89"/>
<path d="M24.2298 10.2587L23.1562 11.3322C22.859 10.9796 22.5323 10.6529 22.1797 10.3557L23.2532 9.28213C23.3857 9.16866 23.5561 9.10937 23.7304 9.1161C23.9047 9.12283 24.0701 9.19509 24.1934 9.31844C24.3168 9.44179 24.3891 9.60714 24.3958 9.78146C24.4025 9.95577 24.3432 10.1262 24.2298 10.2587ZM18.8933 7H14.7376C14.554 7 14.3778 7.07297 14.2479 7.20286C14.118 7.33275 14.045 7.50891 14.045 7.6926V8.8631C15.837 8.22595 17.7939 8.22595 19.5859 8.8631V7.6926C19.5859 7.50891 19.5129 7.33275 19.383 7.20286C19.2531 7.07297 19.077 7 18.8933 7Z" fill="#1FAB89"/>
<path d="M22.5816 16.5408C22.5816 17.6367 22.2567 18.708 21.6478 19.6191C21.039 20.5303 20.1737 21.2405 19.1612 21.6599C18.1488 22.0792 17.0347 22.189 15.9599 21.9752C14.885 21.7614 13.8978 21.2337 13.1229 20.4588C12.348 19.6839 11.8203 18.6966 11.6065 17.6218C11.3927 16.547 11.5024 15.4329 11.9218 14.4204C12.3411 13.408 13.0513 12.5426 13.9625 11.9338C14.8737 11.325 15.945 11 17.0408 11C17.2245 11 17.4007 11.073 17.5306 11.2029C17.6605 11.3327 17.7334 11.5089 17.7334 11.6926V15.8482H21.889C22.0727 15.8482 22.2489 15.9212 22.3788 16.0511C22.5087 16.181 22.5816 16.3571 22.5816 16.5408Z" fill="#1FAB89"/>
</svg>
