<svg width="95" height="103" viewBox="0 0 95 103" fill="none" xmlns="http://www.w3.org/2000/svg">
<g id="OBJECTS">
<path id="Vector" d="M49.2871 102.323C73.2889 102.323 92.7461 100.47 92.7461 98.1851C92.7461 95.8999 73.2889 94.0474 49.2871 94.0474C25.2854 94.0474 5.82812 95.8999 5.82812 98.1851C5.82812 100.47 25.2854 102.323 49.2871 102.323Z" fill="#F7B628" stroke="#F7B628" stroke-miterlimit="10"/>
<g id="Group">
<path id="Vector_2" d="M31.225 85.1675C31.225 85.1675 23.2382 90.4355 25.957 92.3047C28.6758 94.1739 39.8913 95.3634 45.4992 93.3242C51.107 91.2851 31.225 85.1675 31.225 85.1675Z" fill="#B7C8E6"/>
<path id="Vector_3" d="M89.3658 73.3452H92.6166C92.6166 73.3452 90.9661 77.9742 83.0935 81.0938C83.0935 81.0938 75.9493 83.7952 71.2556 83.7952C70.1951 83.7952 69.2589 83.6542 68.5591 83.3151C64.766 81.4711 70.1833 76.0538 70.1833 76.0538C70.1833 76.0538 70.637 75.9295 71.3368 75.6502C73.3025 74.8644 77.2031 72.8507 78.2899 68.9477C78.8179 67.056 78.6818 64.7151 77.3368 61.8561C72.242 51.0191 66.6073 56.7636 66.6073 56.7636C66.6073 56.7636 64.331 48.6353 74.9506 48.6353L73.9761 45.4943C73.9761 45.4943 84.8131 44.7347 88.064 52.3209L89.7981 50.5867C89.7981 50.5867 94.1334 54.8121 92.5067 60.6642L95.0004 60.2319C95.0004 60.2319 94.5657 70.4192 89.3658 73.3452Z" fill="white"/>
<path id="Vector_4" d="M89.365 73.3456H92.6159C92.6159 73.3456 90.9654 77.9746 83.0927 81.0942C83.0927 81.0942 75.9485 83.7956 71.2549 83.7956L71.3361 75.6506L71.3766 71.4563C71.3766 71.4563 73.4832 70.6514 78.2892 68.9484C80.0592 68.3201 82.197 67.5702 84.7311 66.6959C94.135 63.445 89.7973 50.5874 89.7973 50.5874C89.7973 50.5874 94.1326 54.8128 92.506 60.6648L94.9997 60.2325C94.9997 60.2325 94.5649 70.4196 89.365 73.3456Z" fill="#B7C8E6"/>
<path id="Vector_5" d="M73.3271 56.6525C73.3271 56.6525 75.1181 50.5638 82.5201 54.2647C89.9221 57.9658 88.3703 66.8004 86.9374 68.4718L88.4895 68.233C88.4895 68.233 87.7731 75.9934 74.4017 77.4259L73.4464 70.8596C73.4464 70.8596 81.3108 63.717 73.3271 56.6525Z" fill="#1F2126"/>
<path id="Vector_6" d="M80.8748 74.3574C80.9164 74.3437 81.1241 74.3957 81.4275 74.4871C82.584 74.8356 85.1286 75.7533 85.1286 75.7533C85.1286 75.7533 80.3431 81.6686 72.1681 80.4724C63.9928 79.2759 80.825 74.5295 80.9164 74.3438" fill="#1F2126"/>
<path id="Vector_7" d="M21.6377 74.1109C21.6377 74.1109 32.6878 93.7493 49.1026 94.6528C65.5172 95.5563 49.7049 73.7201 48.6508 73.2685C47.5966 72.8169 21.6377 74.1109 21.6377 74.1109Z" fill="#272A30"/>
<path id="Vector_8" d="M51.2517 43.1143C51.4511 43.7125 56.0383 60.2662 67.0075 63.2579C77.9766 66.2496 71.395 92.3763 66.6087 96.7638C66.6087 96.7638 49.2573 98.3593 48.26 96.365C47.2627 94.3706 48.6588 88.5867 56.6365 90.9801C56.6365 90.9801 49.0579 84.3985 49.8555 72.4321C50.6532 60.4656 51.2517 43.1143 51.2517 43.1143Z" fill="white"/>
<path id="Vector_9" d="M18.0814 66.9858C18.0814 66.9858 22.7838 88.0758 21.3588 93.3484C21.3588 93.3484 14.5188 92.9209 14.6614 98.1935C14.6614 98.1935 24.3512 99.6186 28.1987 98.4784C32.0462 97.3385 32.9012 77.9585 31.0486 74.966C29.1963 71.9735 18.0814 66.9858 18.0814 66.9858Z" fill="white"/>
<path id="Vector_10" d="M33.4214 74.083C33.3306 74.4631 33.0947 92.9616 33.0333 97.8758C33.0242 98.5984 33.4992 99.2339 34.1933 99.4354C36.3721 100.068 41.8007 101.553 47.0974 100.109C47.0974 100.109 47.0132 96.1545 42.3898 94.0447C42.3898 94.0447 45.3914 83.2034 47.3863 76.3634C49.3815 69.5231 35.8438 63.9657 33.4214 74.083Z" fill="white"/>
<path id="Vector_11" d="M14.0977 58.6614C14.0977 58.6614 17.1877 72.8752 19.7832 75.9653L21.6372 74.1113C21.6372 74.1113 27.1992 79.9205 32.1432 80.1676C37.0871 80.4147 41.413 75.5943 41.413 75.5943L42.2782 78.1899C42.2782 78.1899 50.8065 74.8527 54.5146 62.4928C58.2224 50.1328 50.6398 45.0827 49.1163 45.6303C47.5929 46.1779 14.0977 58.6614 14.0977 58.6614Z" fill="#272A30"/>
<path id="Vector_12" d="M50.0873 78.6418C50.0873 78.6418 49.6096 72.7919 55.4598 74.9406C61.31 77.0896 63.3394 81.0293 63.3394 81.0293C63.3394 81.0293 65.1304 79.9548 65.2496 76.2537C65.2496 76.2537 72.0548 81.6262 71.2191 87.3568C71.2191 87.3568 78.9794 76.9701 73.01 67.4191C67.0406 57.868 59.3998 59.8975 53.6691 49.272C53.6691 49.272 45.3116 70.8814 50.0873 78.6418Z" fill="#272A30"/>
<path id="Vector_13" d="M51.9959 56.384L49.1225 53.3864C49.1225 53.3864 44.5985 67.4384 29.1086 73.343C25.404 71.6496 19.3346 67.7632 16.0502 59.6469C15.9977 59.518 15.9451 59.3891 15.895 59.2575L13.7714 60.6308C13.7714 60.6308 13.7642 60.6188 13.7548 60.5973C13.5686 60.2248 11.8822 56.759 11.3306 52.911C11.1298 51.5162 11.0797 50.0734 11.3019 48.707C12.4222 41.8327 17.7559 32.8252 26.025 27.7473C41.0373 18.5272 47.3908 29.4479 51.4942 36.2243C51.7306 36.6113 51.9289 36.9863 52.0914 37.3492C54.6379 43.0509 54.9938 48.8911 51.9959 56.384Z" fill="white"/>
<path id="Vector_14" d="M56.2884 90.8397L60.5806 91.9067C60.5441 91.8906 51.642 87.5119 50.1729 77.46C50.1729 77.46 48.0303 83.6837 56.2884 90.8397Z" fill="#B7C8E6"/>
<path id="Vector_15" d="M48.7171 92.3652C48.7171 92.3652 47.8391 94.8847 51.2365 96.2208C54.634 97.5569 66.609 96.7638 66.609 96.7638C66.609 96.7638 57.8406 98.0149 52.4201 97.7096C46.9996 97.4044 47.0159 95.2921 48.7171 92.3652Z" fill="#B7C8E6"/>
<path id="Vector_16" d="M34.533 79.9482C34.5904 80.1206 34.1307 97.7038 35.3374 98.4507C36.544 99.1977 42.4231 100.215 47.0972 100.108C47.0972 100.108 40.2961 102.034 33.5842 99.202C33.1138 99.0037 32.8155 98.5341 32.8254 98.0238C32.8967 94.3907 33.2103 80.0128 33.0597 80.1134C32.8873 80.2283 34.533 79.9482 34.533 79.9482Z" fill="#B7C8E6"/>
<path id="Vector_17" d="M30.5217 79.936C30.5217 79.936 29.9993 96.6203 27.7871 97.7264L14.6611 98.1936C14.6611 98.1936 25.0768 100.603 29.2805 98.003C29.2805 98.003 32.4617 94.9381 32.1433 80.1673L30.5217 79.936Z" fill="#B7C8E6"/>
<path id="Vector_18" d="M51.9962 56.3842L49.1227 53.3866C49.1227 53.3866 44.5987 67.4385 29.1088 73.3431C28.7124 73.4959 28.3063 73.6417 27.8955 73.7827C27.8955 73.7827 20.9065 71.8575 16.0507 59.6471C15.9982 59.5182 15.9456 59.3893 15.8955 59.2577L13.7719 60.631C13.7719 60.631 13.7647 60.6189 13.7553 60.5975C13.5691 60.225 11.8826 56.7591 11.3311 52.9111C12.1121 54.5329 13.0102 55.9781 13.944 56.6779L14.9186 54.6404C14.9186 54.6404 21.1265 67.8969 27.7714 70.2903C27.7714 70.2903 43.543 66.8698 48.0624 51.1842L50.1881 52.7798C50.1881 52.7798 52.5815 47.1952 48.86 39.399C46.9898 35.477 49.0152 35.3647 51.4947 36.2245C51.7311 36.6115 51.9294 36.9865 52.0919 37.3494C54.6381 43.0511 54.994 48.8913 51.9962 56.3842Z" fill="#B7C8E6"/>
<path id="Vector_19" d="M16.123 98.3415C16.123 98.3415 16.3184 95.0542 19.0523 94.7612C19.0523 94.7612 16.9368 95.5098 17.4248 98.2439L16.123 98.3415Z" fill="#B7C8E6"/>
<path id="Vector_20" d="M18.9541 98.3088C18.9541 98.3088 19.1495 95.0215 21.8833 94.7285C21.8833 94.7285 19.7678 95.4771 20.2559 98.2112L18.9541 98.3088Z" fill="#B7C8E6"/>
<path id="Vector_21" d="M48.8652 96.8664C48.8652 96.8664 49.0606 93.5791 51.7947 93.2861C51.7947 93.2861 49.679 94.0347 50.1673 96.7688L48.8652 96.8664Z" fill="#B7C8E6"/>
<path id="Vector_22" d="M51.6973 96.8337C51.6973 96.8337 51.8927 93.5464 54.6265 93.2534C54.6265 93.2534 52.5107 94.002 52.9991 96.7361L51.6973 96.8337Z" fill="#B7C8E6"/>
<path id="Vector_23" d="M45.7742 100.237C45.7742 100.237 45.5788 96.9497 42.8447 96.6567C42.8447 96.6567 44.9602 97.4053 44.4722 100.139L45.7742 100.237Z" fill="#B7C8E6"/>
<path id="Vector_24" d="M42.9429 100.205C42.9429 100.205 42.7475 96.9175 40.0137 96.6245C40.0137 96.6245 42.1295 97.3731 41.6411 100.107L42.9429 100.205Z" fill="#B7C8E6"/>
<path id="Vector_25" d="M53.8936 49.5537C53.8936 49.5537 55.5344 60.1155 64.6327 66.4379L64.2152 62.6196C64.2152 62.6196 69.1672 63.9919 71.3768 71.4561C73.8378 79.7691 71.2184 87.3571 71.2184 87.3571C71.2184 87.3571 79.5987 77.0219 73.1219 65.919C66.6451 54.8161 60.5011 60.51 53.8936 49.5537Z" fill="#3F454F"/>
<path id="Vector_26" d="M42.2783 78.1898C42.2783 78.1898 51.4386 70.148 51.6758 60.4316C51.6758 60.4316 56.3431 73.355 42.2783 78.1898Z" fill="#3F454F"/>
<path id="Vector_27" d="M14.0118 40.4603C14.0118 40.4603 11.1469 51.8036 31.0024 49.1705C39.2356 48.0786 42.8311 46.1596 42.8311 46.1596C42.8311 46.1596 48.7456 48.8478 51.4339 46.9124C54.1222 44.9768 47.5625 35.2987 47.5625 35.2987C47.5625 35.2987 18.9582 33.9007 14.0118 40.4603Z" fill="#B7C8E6"/>
<path id="Vector_28" d="M42.831 46.1596C42.831 46.1596 40.6938 51.0068 35.351 52.2108L36.4046 49.2759C36.4046 49.2759 31.1369 51.3829 28.2773 51.5335L30.8359 48.373C30.8359 48.373 38.8729 44.3226 42.831 46.1596Z" fill="#B7C8E6"/>
<path id="Vector_29" d="M14.0125 40.4604C14.0125 40.4604 10.0369 48.1779 17.8415 51.2414L17.039 48.8343C17.039 48.8343 22.4662 51.845 30.3989 49.1096C33.6972 47.9721 14.0125 40.4604 14.0125 40.4604Z" fill="#B7C8E6"/>
<path id="Vector_30" d="M25.7863 2.67057C25.7863 2.67057 20.1913 -1.92229 14.9029 2.83701C11.6448 5.76919 14.3902 16.1406 14.4993 16.6858C14.6084 17.231 25.7863 2.67057 25.7863 2.67057Z" fill="#2D3138"/>
<path id="Vector_31" d="M7.21529 35.9005C9.19947 41.217 18.2346 41.5359 26.0217 40.7327C32.4865 40.0656 38.0908 38.6244 38.0908 38.6244C38.0908 38.6244 40.8148 45.2408 49.1171 45.6303L47.3018 40.3119C47.3018 40.3119 52.1013 40.7016 60.1449 37.7174C60.1449 37.7174 54.1768 35.771 54.9541 26.6896C55.7332 17.6097 53.075 7.10237 41.7231 3.85794C41.7231 3.85794 41.2369 3.67166 40.3854 3.42186C39.2235 3.07879 37.379 2.61323 35.1654 2.33395C32.7743 2.02894 29.9523 1.94103 27.0957 2.45644C25.3822 2.76494 23.6564 3.2908 22.0032 4.11658C14.449 7.89357 12.508 18.2355 12.1062 21.1283C12.0389 21.6145 12.0687 21.041 12.0687 21.041C12.0687 21.041 3.58115 26.1707 7.21529 35.9005Z" fill="white"/>
<path id="Vector_32" d="M21.6411 23.9016C23.2841 27.2546 27.9818 33.1021 26.0217 40.7322C32.4865 40.0651 38.0908 38.6239 38.0908 38.6239C38.0908 38.6239 40.8148 45.2404 49.1171 45.6298L47.3017 40.3114C47.3017 40.3114 52.1012 40.7011 60.1449 37.7169C60.1449 37.7169 54.1768 35.7705 54.9541 26.6891C55.7332 17.6093 53.075 7.10191 41.7231 3.85748C41.7231 3.85748 41.2369 3.6712 40.3854 3.4214C39.2235 3.07833 37.379 2.61278 35.1654 2.3335C32.9164 2.66209 30.9745 4.51414 29.4178 6.63635C25.7818 11.5945 19.9791 20.509 21.6411 23.9016Z" fill="#3F454F"/>
<path id="Vector_33" d="M27.0951 2.45508C25.5545 6.25298 19.607 20.3288 15.8067 20.8257C14.5457 20.9905 13.2843 21.1077 12.1045 21.1291C12.1857 20.5488 12.3267 19.6697 12.5655 18.6019C13.1101 16.1583 14.1514 12.7308 16.0887 9.6877C17.5194 7.44006 19.4349 5.39771 22.0029 4.11522C23.6555 3.29104 25.3827 2.76545 27.0951 2.45508Z" fill="#3F454F"/>
<path id="Vector_34" d="M24.9316 19.1295C24.9316 22.2369 27.3412 24.7561 30.3138 24.7561C33.2862 24.7561 35.696 22.2369 35.696 19.1295C35.696 16.022 33.3532 11.7285 30.3808 11.7285C27.4082 11.7285 24.9316 16.022 24.9316 19.1295Z" fill="#2D3138"/>
<g id="Group_2">
<path id="Vector_35" d="M26.1976 19.0659C25.8618 21.104 26.8444 22.963 28.3922 23.2179C29.9401 23.4728 31.4667 22.0273 31.8026 19.9893C32.1384 17.9512 31.1558 16.0922 29.608 15.8373C28.0601 15.5821 26.5332 17.0279 26.1976 19.0659Z" fill="white"/>
<path id="Vector_36" d="M26.2316 19.8975C26.0115 21.2328 26.6553 22.4504 27.6693 22.6177C28.6832 22.7847 29.6835 21.8377 29.9035 20.5024C30.1236 19.1671 29.4798 17.9492 28.4658 17.7823C27.4519 17.6153 26.4516 18.5625 26.2316 19.8975Z" fill="#1F2126"/>
<path id="Vector_37" d="M28.3999 19.463C28.3642 19.6793 28.5108 19.8835 28.7271 19.9191C28.9434 19.9548 29.1477 19.8082 29.1833 19.5919C29.219 19.3756 29.0723 19.1714 28.8561 19.1357C28.64 19.1001 28.4355 19.2464 28.3999 19.463Z" fill="white"/>
<path id="Vector_38" d="M26.8099 21.5069C26.7879 21.6407 26.8785 21.7672 27.0123 21.7891C27.146 21.8111 27.2723 21.7205 27.2945 21.5868C27.3165 21.453 27.2259 21.3268 27.0922 21.3046C26.9584 21.2826 26.8322 21.3732 26.8099 21.5069Z" fill="white"/>
</g>
<path id="Vector_39" d="M27.0488 12.5705C27.0121 13.481 28.0057 14.2601 29.2681 14.311C30.5305 14.362 31.5835 13.6654 31.6203 12.7549C31.657 11.8444 30.6634 11.0653 29.401 11.0143C28.1386 10.9634 27.0856 11.6603 27.0488 12.5705Z" fill="#FFA826"/>
<path id="Vector_40" d="M13.2133 29.3267C13.67 27.4797 12.4589 25.5915 10.5085 25.1093C8.55798 24.6271 6.60664 25.7335 6.15002 27.5805C5.6934 29.4275 6.90442 31.3157 8.8549 31.7979C10.8054 32.2801 12.7567 31.1737 13.2133 29.3267Z" fill="#2D3138"/>
<g id="Group_3">
<g id="Group_4">
<path id="Vector_41" d="M12.7617 33.9292C12.7617 34.1753 12.7545 34.4189 12.7402 34.6601C12.733 34.856 12.7188 35.0495 12.6974 35.2428C12.6901 35.3406 12.6807 35.4387 12.6663 35.5341C12.5947 36.1503 12.4824 36.7451 12.3294 37.3135C12.253 37.6097 12.1645 37.8986 12.0643 38.1782C11.9233 38.5891 11.7609 38.9831 11.577 39.358C11.4457 39.6279 11.3047 39.8882 11.1544 40.1342C10.7936 40.7362 10.3782 41.2664 9.91956 41.7132C9.66628 41.964 9.39879 42.186 9.11924 42.3795C8.40978 42.8764 7.62876 43.1843 6.80486 43.2631C6.66388 43.2773 6.5229 43.2846 6.37977 43.2846C6.0501 43.2846 5.72526 43.2487 5.40765 43.1771C5.40524 43.1771 5.40524 43.1771 5.40524 43.1771C2.34548 42.4891 0 38.6102 0 33.9287C0 32.67 0.0573569 31.435 0.212543 30.2862C0.604394 27.3723 1.62905 24.9954 3.97453 24.1595C4.51191 23.966 5.11872 23.8561 5.80191 23.837C5.87589 23.8346 5.94986 23.8346 6.0241 23.8394C6.86972 23.8657 7.70569 24.1809 8.48671 24.7207C8.74696 24.8997 9.00024 25.1029 9.24629 25.3299C10.0297 26.0466 10.7319 26.9852 11.298 28.0624C11.4342 28.3203 11.5631 28.5832 11.6802 28.8555C12.06 29.7202 12.3538 30.6518 12.54 31.6191C12.5926 31.9008 12.6379 32.1852 12.6738 32.472C12.7306 32.9547 12.7617 33.4419 12.7617 33.9292Z" fill="#B59979"/>
</g>
<g id="Group_5">
<path id="Vector_42" d="M33.4222 37.696C33.4126 39.4111 33.341 41.1356 33.1596 42.5545C33.076 43.2018 32.9709 43.7847 32.8396 44.2744C32.5171 45.4736 31.6881 46.3095 30.6946 46.8946C29.0631 47.8525 26.9803 48.127 25.9294 48.2037C26.0033 48.194 26.0776 48.1846 26.1491 48.1702H26.154C27.537 47.9265 28.5233 47.0522 29.2161 45.8271C29.3689 45.5596 29.5051 45.2752 29.6294 44.9791C29.9972 44.1024 30.2553 43.1088 30.4273 42.0721C30.4775 41.7877 30.5182 41.4988 30.5563 41.2098C30.7139 39.9415 30.764 38.6422 30.757 37.4382C30.757 37.1445 30.7522 36.8531 30.7449 36.5736C30.7042 35.0807 30.5874 33.8051 30.4989 33.0338C30.444 32.5299 30.4011 32.2383 30.4011 32.2383L30.21 32.2241L27.604 32.0306C25.705 31.8035 24.7401 31.2112 24.1454 30.3466C24.0068 30.1458 23.8873 29.9284 23.7822 29.6969C23.6675 29.4436 23.5673 29.1761 23.474 28.892C23.1301 27.8362 22.8696 26.5752 22.2199 25.1777C22.1028 24.9244 21.9715 24.6666 21.8235 24.4039C21.7233 24.2225 21.6134 24.0362 21.4938 23.8497C20.7916 22.7438 19.4183 22.0869 17.7916 21.7285C17.7152 21.7119 17.6413 21.6974 17.5646 21.6832H17.5622C17.0438 21.5782 16.4992 21.5018 15.9476 21.4492H15.9452C14.4118 21.3107 12.8018 21.3536 11.4022 21.4852C10.7311 21.5449 10.1076 21.6261 9.56543 21.7143C9.61073 21.6929 9.67291 21.6642 9.74688 21.6259C9.75653 21.621 9.76591 21.6162 9.77315 21.6138C10.5016 21.2437 12.2931 20.219 12.2931 20.219C22.1604 17.8186 24.7613 23.766 26.2017 27.1171C26.4477 27.6856 26.6579 28.1801 26.8656 28.5454C27.7948 30.1863 30.1762 30.2436 31.7262 30.0836C32.5144 30 33.2094 30.5851 33.2526 31.3758C33.2909 32.0708 33.3338 32.9593 33.3673 33.9555C33.4056 35.1069 33.4319 36.3991 33.4222 37.696Z" fill="#B59979"/>
</g>
<g id="Group_6">
<path id="Vector_43" d="M30.96 37.4072C30.9527 37.1134 30.9409 36.8245 30.9265 36.545C30.8525 35.0545 30.7043 33.7814 30.5968 33.0076C30.5346 32.5632 30.4893 32.2839 30.4772 32.2217L30.4676 32.1571L30.4437 32.021L27.4797 31.8036C25.6954 31.5911 24.7973 31.0489 24.243 30.2367C24.1189 30.0577 24.0114 29.8618 23.9158 29.6541C23.7986 29.4032 23.7008 29.1333 23.6075 28.8468C23.5143 28.5624 23.4261 28.2641 23.3352 27.9486C23.0868 27.0912 22.8144 26.1499 22.3272 25.1349C22.2055 24.884 22.0718 24.6262 21.9187 24.3657C21.8327 24.2129 21.7397 24.0575 21.6392 23.9023C20.8413 22.6554 19.5826 21.8457 18.1996 21.3298C17.8198 21.1888 17.4304 21.0671 17.0412 20.969C15.4266 20.5487 13.7737 20.4482 12.5674 20.4482H12.5148L12.0586 20.6418C11.6287 20.8256 11.108 21.0454 10.5443 21.2842C10.5132 21.2987 10.4845 21.3105 10.4583 21.3201L10.3891 21.3488C10.1908 21.4324 9.98548 21.5209 9.77294 21.6139C9.7657 21.6163 9.75632 21.6211 9.74667 21.6259C8.91794 21.9843 8.01497 22.3855 7.19562 22.7508C5.99648 23.2858 4.44409 23.9811 3.98523 24.1362L3.97317 24.1601L3.82495 24.4729C3.81075 24.4753 3.79869 24.4753 3.78663 24.4777C3.79145 24.4943 3.79628 24.5185 3.79869 24.5493C3.80592 24.6854 3.81772 24.8862 3.8346 25.1416C3.86811 25.6479 3.91581 26.3743 3.978 27.2413C4.09512 28.9419 4.25513 31.1944 4.41755 33.4611C4.42238 33.5112 4.42479 33.5637 4.42935 33.6138C4.76143 38.2477 5.09807 42.8792 5.09807 42.8792L5.11013 43.0177L5.23181 43.0869C5.23905 43.0893 5.2964 43.1204 5.40388 43.1777C5.40388 43.1777 5.40388 43.1777 5.4063 43.1777C6.57193 43.7725 13.5537 47.126 24.8469 48.1531C25.0093 48.1673 25.1717 48.1817 25.3366 48.196L25.3891 48.2008H25.4274C25.5491 48.2008 25.8024 48.196 26.1487 48.1697H26.1535L26.1749 48.1673C27.3741 48.0239 28.3652 47.434 29.1248 46.4141C29.261 46.2327 29.3875 46.0392 29.5022 45.836C29.6598 45.5685 29.7983 45.282 29.9273 44.9834C30.295 44.1067 30.5459 43.1107 30.7083 42.0695C30.7536 41.7851 30.7919 41.4986 30.823 41.2072C30.9648 39.932 30.9935 38.6205 30.96 37.4072ZM26.1256 47.654H26.1208C25.7839 47.6803 25.5427 47.6827 25.4282 47.6827L25.3829 47.6803C25.2205 47.6661 25.0581 47.6516 24.8957 47.6374C15.6949 46.8014 9.39396 44.4128 6.80458 43.264C6.19563 42.9966 5.79413 42.7958 5.60544 42.698C5.4264 40.2139 5.18276 36.8698 4.95575 33.7194C4.64752 29.4319 4.37065 25.4933 4.31812 24.545C4.58319 24.4614 5.06564 24.2606 6.02355 23.8404C6.40576 23.6707 6.86193 23.4678 7.40897 23.2242C8.44086 22.7632 9.61132 22.24 10.5928 21.8245L10.6574 21.7983C10.6885 21.7865 10.7196 21.772 10.7507 21.7602C10.9753 21.6645 11.1951 21.5739 11.4028 21.4855C11.7156 21.3517 12.0048 21.2274 12.2626 21.1178L12.621 20.965C13.6242 20.9698 14.9378 21.0414 16.2589 21.3137C16.7102 21.407 17.1594 21.5214 17.599 21.6672C17.6636 21.6862 17.7279 21.708 17.7925 21.7294C19.1731 22.207 20.4341 22.9738 21.2058 24.1799C21.2894 24.3089 21.3658 24.4378 21.4398 24.5646C21.5925 24.8248 21.7263 25.0805 21.8482 25.3314C22.3283 26.3225 22.5957 27.2493 22.8394 28.0926C22.9326 28.4077 23.0208 28.7136 23.1165 29.0073C23.2098 29.2893 23.3076 29.5592 23.4223 29.8146C23.5512 30.1035 23.7019 30.3758 23.8857 30.6243C24.5092 31.4817 25.5172 32.0909 27.4304 32.3177L29.1931 32.449L30.0004 32.5088C30.0219 32.6498 30.053 32.8599 30.0889 33.1298C30.1915 33.9036 30.3325 35.1625 30.3993 36.6219V36.6243C30.4135 36.9038 30.4255 37.1904 30.4328 37.4817C30.4614 38.6808 30.4328 39.9706 30.2918 41.215C30.2607 41.5063 30.2226 41.7931 30.1771 42.0772C30.0098 43.1257 29.752 44.1217 29.3674 44.9722C29.2312 45.2732 29.0784 45.5573 28.9088 45.8178C28.8466 45.918 28.7799 46.0137 28.7104 46.1067C28.0412 47.0019 27.1717 47.5227 26.1256 47.654ZM3.7877 24.4777C3.63734 24.4849 3.74723 24.3609 3.7877 24.4777V24.4777Z" fill="#B59979"/>
</g>
<g id="Group_7">
<path id="Vector_44" d="M18.2268 21.3917L17.5985 21.6665L17.565 21.6834H17.5626L9.24583 25.3306L6.94297 26.3387L6.59668 25.5504L8.48625 24.7214L15.9456 21.4491H15.948L16.2584 21.3129L17.0418 20.9691L17.8802 20.6011L18.2005 21.3298L18.2268 21.3917Z" fill="#B59979"/>
</g>
<g id="Group_8">
<path id="Vector_45" d="M23.6418 24.5783C23.563 24.6118 23.0853 24.8195 22.3282 25.1347C22.2923 25.1489 22.2566 25.1634 22.2207 25.1776C22.1036 25.2253 21.9795 25.2779 21.8481 25.3304C19.5265 26.2787 15.3512 27.8956 11.6801 28.856C10.7629 29.0972 9.87901 29.2955 9.06234 29.4341L8.91895 28.5837C9.6595 28.4596 10.462 28.2803 11.2979 28.0629C14.8902 27.1361 19.0821 25.5191 21.4397 24.5636C21.5734 24.5086 21.7023 24.4561 21.8243 24.4036C21.8578 24.3915 21.8889 24.3797 21.92 24.3652C22.7632 24.0189 23.2767 23.7968 23.2982 23.7871L23.6418 24.5783Z" fill="#B59979"/>
</g>
<g id="Group_9">
<path id="Vector_46" d="M25.0024 29.2785C25 29.2809 25 29.2833 24.9976 29.2833C24.6392 29.4098 24.2785 29.5317 23.9156 29.6534C23.8703 29.6676 23.8247 29.6821 23.7818 29.6963C23.6623 29.7368 23.5406 29.7751 23.4211 29.8134C19.4752 31.0793 15.3024 31.9702 12.6725 32.472C11.0459 32.7802 10.0116 32.9378 9.9829 32.9426L9.85156 32.0898C9.88024 32.0873 10.917 31.9273 12.5388 31.6191C15.1351 31.1246 19.234 30.2482 23.1153 29.0061C23.2348 28.9678 23.3541 28.9298 23.4736 28.8914C23.5189 28.8772 23.5621 28.8627 23.6074 28.8461C23.9799 28.7244 24.3503 28.5977 24.7156 28.4688L25.0024 29.2785Z" fill="#B59979"/>
</g>
<g id="Group_10">
<path id="Vector_47" d="M31.5022 32.7113C31.3038 32.8046 30.9959 32.9048 30.5968 33.0074C30.5657 33.0171 30.5322 33.0241 30.499 33.0337C30.37 33.0648 30.2339 33.0983 30.0881 33.1291C26.4502 33.9554 17.7367 34.978 12.6657 35.5344C10.5518 35.7659 9.06857 35.9166 8.85361 35.938L8.76758 35.0806C8.94903 35.0616 9.13531 35.0423 9.32641 35.0233C10.3583 34.9182 11.5119 34.7941 12.7397 34.6601C14.6936 34.4451 16.8313 34.2015 18.938 33.9436C18.9404 33.9436 18.9404 33.9412 18.9428 33.9412C22.9629 33.4516 26.8729 32.9118 29.1923 32.4483C29.577 32.372 29.9184 32.298 30.2098 32.2237C30.3006 32.2023 30.3867 32.1809 30.4679 32.1567C30.7592 32.0779 30.9838 32.004 31.1318 31.9321L31.5022 32.7113Z" fill="#B59979"/>
</g>
<g id="Group_11">
<path id="Vector_48" d="M10.8236 38.1822C11.5757 38.1811 29.2738 38.145 32.0481 37.164L31.7606 36.3511C29.6509 37.0973 17.1417 37.3114 10.8223 37.3202L10.8236 38.1822Z" fill="#B59979"/>
</g>
<g id="Group_12">
<path id="Vector_49" d="M29.1698 42.0824C30.5536 42.0824 31.4024 42.0532 31.4354 42.0518L31.4038 41.1904C31.2732 41.195 18.306 41.638 10.2738 38.9604L10.001 39.7782C16.1312 41.8219 25.035 42.0824 29.1698 42.0824Z" fill="#B59979"/>
</g>
<g id="Group_13">
<path id="Vector_50" d="M30.4537 45.8488C30.8581 45.8488 31.076 45.8408 31.0902 45.8402L31.0541 44.9788C30.9573 44.9831 21.1881 45.3318 7.47492 40.9756L7.21387 41.7971C19.0841 45.5679 28.0527 45.8488 30.4537 45.8488Z" fill="#B59979"/>
</g>
<g id="Group_14">
<path id="Vector_51" d="M30.7061 46.8935C30.7061 46.8935 45.3273 39.4955 50.7307 30.142L49.6789 28.3892C49.6789 28.3892 39.6875 39.6076 31.0984 43.6392L30.7061 46.8935Z" fill="#B59979"/>
</g>
<g id="Group_15">
<path id="Vector_52" d="M41.3894 38.468C41.2332 38.416 32.3216 33.3608 32.3216 33.3608L31.2793 36.5399L38.5229 40.4485L41.8059 38.364L41.3894 38.468Z" fill="#B59979"/>
</g>
</g>
<path id="Vector_53" d="M60.1076 18.6376C59.1188 22.2994 57.1218 24.6307 55.4284 26.5939C53.5868 28.7317 52.1084 30.4323 52.6814 32.9405C52.6814 32.9405 47.3191 36.1029 43.8795 23.7253C40.4424 11.3477 42.5515 4.16757 42.5515 4.16757C42.5515 4.16757 43.4209 4.01238 44.7801 3.9025C50.3432 3.45114 64.1204 3.76393 60.1076 18.6376Z" fill="#1F2126"/>
<path id="Vector_54" d="M31.6415 32.8553C32.1781 32.8553 32.6131 32.4203 32.6131 31.8837C32.6131 31.3471 32.1781 30.9121 31.6415 30.9121C31.1049 30.9121 30.6699 31.3471 30.6699 31.8837C30.6699 32.4203 31.1049 32.8553 31.6415 32.8553Z" fill="#2D3138"/>
<path id="Vector_55" d="M12.2936 20.2191C12.2936 20.2191 10.5022 21.2438 9.77367 21.6139C9.76643 21.6163 9.75705 21.6211 9.7474 21.626C8.91867 21.9843 8.0157 22.3855 7.19635 22.7509C5.99721 23.2858 4.44482 23.9811 3.98596 24.1363L3.9739 24.1601C1.62842 24.9961 0.603765 27.3727 0.211914 30.2869C1.33922 31.5552 2.76994 32.6348 4.41828 33.4614C4.59491 33.5498 4.77422 33.6356 4.95567 33.7192C6.29552 34.3306 7.76697 34.7749 9.32687 35.0234C10.2585 35.1716 11.221 35.2504 12.2052 35.2504C12.37 35.2504 12.5349 35.248 12.6973 35.2432C14.9401 35.1834 17.0588 34.72 18.9385 33.9438C16.8318 34.2016 14.694 34.4453 12.7402 34.6602C12.7546 34.419 12.7616 34.1754 12.7616 33.9293C12.7616 33.4421 12.7305 32.9548 12.6732 32.4723C15.303 31.9706 19.4759 31.0797 23.4217 29.8138C23.5506 30.1027 23.7013 30.3751 23.8851 30.6235C23.9736 30.5327 24.0593 30.4397 24.1454 30.3464C24.1765 30.3105 24.21 30.2748 24.2432 30.2365C24.5131 29.9307 24.764 29.6107 24.998 29.2834C25.0004 29.2834 25.0004 29.281 25.0028 29.2786C25.4876 28.5978 25.8913 27.8741 26.2019 27.117C24.7618 23.7661 22.1607 17.8184 12.2936 20.2191ZM9.24593 25.3306L17.563 21.6833H17.5654C17.6418 21.6975 17.7158 21.712 17.7924 21.7286C19.173 22.2062 20.4341 22.973 21.2057 24.1792C21.2893 24.3081 21.3657 24.437 21.4397 24.5638C19.0821 25.5193 14.8902 27.1363 11.2979 28.0631C10.7316 26.9859 10.0291 26.047 9.24593 25.3306ZM7.40889 23.2239C8.44078 22.7629 9.61124 22.2397 10.5927 21.8243L10.6573 21.798C10.6884 21.7862 10.7195 21.7718 10.7506 21.76C10.9752 21.6643 11.195 21.5737 11.4027 21.4852C12.8023 21.3539 14.4124 21.3108 15.9457 21.4493L8.48635 24.7214C7.70533 24.1816 6.86936 23.8664 6.02375 23.8401C6.40568 23.6704 6.86186 23.4676 7.40889 23.2239ZM12.5397 31.6198C12.3534 30.6525 12.0596 29.7208 11.6799 28.8562C15.351 27.8958 19.5263 26.2789 21.8479 25.3306C22.3279 26.3217 22.5954 27.2486 22.839 28.0918C22.9323 28.407 23.0205 28.7128 23.1162 29.0065C19.2349 30.2486 15.136 31.1253 12.5397 31.6198Z" fill="#C9AA86"/>
<path id="Vector_56" d="M60.1083 18.6378C59.4897 20.9259 58.4792 22.6959 57.3924 24.1792C56.7427 25.0701 56.0643 25.8583 55.4289 26.5941C51.3158 24.9771 48.8173 16.4499 48.8173 16.4499L47.4343 19.2183C44.6658 14.336 44.6468 6.64023 44.7805 3.9029C45.1794 3.87181 45.6213 3.84313 46.0941 3.8241C52.2284 3.57082 63.8344 4.82946 60.1083 18.6378Z" fill="#272A30"/>
<path id="Vector_57" d="M19.4612 17.0708C18.3791 19.3326 15.7493 20.3264 13.5853 19.2897C13.2031 19.1083 12.8616 18.874 12.5654 18.6017C13.1101 16.1581 13.8233 12.6127 15.7603 9.56957C16.496 9.39509 17.548 9.53446 18.1738 9.83545C20.3354 10.8724 20.5432 14.811 19.4612 17.0708Z" fill="#2D3138"/>
<g id="Group_16">
<path id="Vector_58" d="M18.9247 16.6446C19.6905 14.9046 19.24 13.0226 17.9186 12.441C16.5972 11.8595 14.9052 12.7987 14.1395 14.5388C13.3737 16.2788 13.8241 18.1609 15.1456 18.7424C16.467 19.3239 18.159 18.3847 18.9247 16.6446Z" fill="white"/>
<path id="Vector_59" d="M17.9948 17.6183C18.4965 16.4783 18.2013 15.2453 17.3355 14.8643C16.4698 14.4833 15.3612 15.0986 14.8595 16.2386C14.3579 17.3786 14.653 18.6116 15.5188 18.9926C16.3845 19.3736 17.4931 18.7583 17.9948 17.6183Z" fill="#1F2126"/>
<path id="Vector_60" d="M15.5251 15.8394C15.4439 16.0241 15.5278 16.2399 15.7125 16.3211C15.8972 16.4023 16.1129 16.3187 16.1941 16.1337C16.2753 15.9491 16.1914 15.7333 16.0068 15.6521C15.8218 15.5709 15.6063 15.6548 15.5251 15.8394Z" fill="white"/>
<path id="Vector_61" d="M15.5556 18.3639C15.5071 18.4744 15.5572 18.6033 15.6677 18.6518C15.7781 18.7003 15.907 18.6502 15.9555 18.5398C16.004 18.4293 15.9539 18.3004 15.8435 18.2519C15.7331 18.2034 15.6041 18.2535 15.5556 18.3639Z" fill="white"/>
</g>
<path id="Vector_62" d="M18.3986 9.82248C18.0599 10.5646 18.4986 11.4923 19.3788 11.894C20.259 12.2958 21.2472 12.0197 21.586 11.2776C21.9248 10.5354 21.486 9.60779 20.6058 9.20602C19.7259 8.80425 18.7377 9.08032 18.3986 9.82248Z" fill="#FFA826"/>
<path id="Vector_63" d="M19.333 50.9673C19.333 50.9673 22.8085 53.6389 28.2008 53.2613C28.2008 53.2613 22.2915 57.729 19.333 50.9673Z" fill="#B7C8E6"/>
<path id="Vector_64" d="M23.9121 57.4349C23.9121 57.4349 29.3779 57.3017 32.844 53.3022C32.844 53.3022 31.3109 60.7678 23.9121 57.4349Z" fill="#B7C8E6"/>
<path id="Vector_65" d="M27.7715 70.2904C27.7715 70.2904 32.073 69.4667 35.761 64.9141C35.761 64.9141 37.4321 66.9886 33.9746 69.4088C30.5171 71.8293 27.7715 70.2904 27.7715 70.2904Z" fill="#B7C8E6"/>
<path id="Vector_66" d="M60.1074 18.6375C59.4888 20.9256 58.4784 22.6957 57.3915 24.1789C57.3556 24.2028 57.3366 24.2148 57.3366 24.2148C63.0072 8.21862 46.7003 3.57993 46.0029 3.89057C46.0195 3.87851 46.0506 3.85466 46.0938 3.82357C52.2275 3.57055 63.8335 4.82919 60.1074 18.6375Z" fill="#3F454F"/>
</g>
</g>
</svg>
