<svg width="65" height="46" viewBox="0 0 65 46" fill="none" xmlns="http://www.w3.org/2000/svg">
<g id="Group 48095872">
<path id="Vector" d="M30.7562 10.2149C30.7562 10.2149 30.6356 9.6466 30.5688 8.7718C30.3217 5.53906 32.5917 6.36298 33.2427 9.53912" fill="#85BD79"/>
<path id="Vector_2" d="M30.7868 10.738C30.7666 10.733 30.7459 10.731 30.7251 10.7302C30.6162 10.726 30.5111 10.6874 30.4252 10.6195C30.331 10.5451 30.2657 10.4402 30.2406 10.3229C30.1838 10.0495 28.8683 3.61657 32.9179 0.52133C32.9986 0.460373 33.0954 0.424454 33.1962 0.418034C33.2971 0.411614 33.3977 0.434977 33.4854 0.485219C33.5749 0.535738 33.6472 0.611829 33.6932 0.70374C33.7392 0.795651 33.7566 0.899193 33.7433 1.00109C33.7433 1.05784 33.1243 6.44355 33.7433 9.45109C33.7707 9.58791 33.7426 9.72999 33.6652 9.84609C33.5878 9.96218 33.4675 10.0428 33.3306 10.0701C33.1938 10.0975 33.0517 10.0694 32.9356 9.992C32.8195 9.9146 32.739 9.79426 32.7116 9.65744C32.2658 7.48921 30.8632 7.15828 31.1192 9.35702C31.1746 9.8334 31.2337 10.1247 31.2362 10.1372C31.2506 10.2036 31.2517 10.2722 31.2395 10.339C31.2273 10.4059 31.202 10.4696 31.1651 10.5267C31.1282 10.5837 31.0804 10.6329 31.0244 10.6714C30.9833 10.6997 30.9383 10.7219 30.8909 10.7372C30.8572 10.7481 30.8211 10.7466 30.7868 10.738Z" fill="#333736"/>
<path id="Vector_3" d="M64.4839 14.068C64.4839 14.068 55.8791 -0.335176 37.6585 5.56125C31.5248 7.55768 30.9521 11.7878 24.3593 12.3501C17.7664 12.9124 17.4001 9.32713 10.9053 9.843C7.88488 10.0454 4.97916 11.0108 2.45305 12.6315C1.16414 13.4585 0.515625 14.9502 0.515625 16.4816C0.515625 19.3681 2.85559 21.7081 5.74209 21.7081H64.4839" fill="#85BD79"/>
<path id="Vector_4" d="M64.4841 22.2242H0.515873C0.379055 22.2242 0.247841 22.1698 0.151096 22.0731C0.0543507 21.9763 0 21.8451 0 21.7083C0 21.5715 0.0543507 21.4403 0.151096 21.3435C0.247841 21.2468 0.379055 21.1924 0.515873 21.1924H64.4841C64.6209 21.1924 64.7522 21.2468 64.8489 21.3435C64.9456 21.4403 65 21.5715 65 21.7083C65 21.8451 64.9456 21.9763 64.8489 22.0731C64.7522 22.1698 64.6209 22.2242 64.4841 22.2242ZM0.515873 14.5841C0.413209 14.5837 0.313001 14.5527 0.228073 14.495C0.143145 14.4373 0.0773594 14.3556 0.0391351 14.2603C0.000910753 14.165 -0.00801377 14.0605 0.0135035 13.9601C0.0350207 13.8597 0.086001 13.7681 0.159921 13.6968C3.15966 11.1178 6.91668 9.58424 10.8643 9.32736C13.2411 9.10116 15.6332 9.55561 17.7615 10.6377C19.7786 11.6774 22.0575 12.0991 24.3131 11.85C27.7488 11.5559 29.9516 9.94125 32.2833 8.23887C34.2952 6.748 36.3742 5.20038 39.3405 4.48331C57.3496 -0.0254161 64.8659 13.6865 64.9381 13.8258C64.9916 13.945 64.9979 14.0801 64.9556 14.2038C64.9134 14.3275 64.8258 14.4305 64.7105 14.4921C64.5952 14.5536 64.4609 14.5692 64.3346 14.5355C64.2083 14.5018 64.0995 14.4215 64.0302 14.3107C63.7413 13.7948 56.8079 1.17657 39.5881 5.48411C36.823 6.17538 34.8214 7.6353 32.8817 9.05395C30.5397 10.7718 28.1151 12.5464 24.3905 12.8663C21.9624 13.1266 19.5109 12.6768 17.3333 11.5714C15.3621 10.5657 13.1442 10.1451 10.9417 10.3591C7.23718 10.6167 3.71061 12.0457 0.871825 14.4397C0.776194 14.5318 0.648695 14.5836 0.515873 14.5841Z" fill="#333736"/>
<path id="Vector_5" d="M64.4839 45.0827H12.2027C5.74812 45.0827 0.515625 39.8502 0.515625 33.3956C0.515625 26.941 5.74812 21.7085 12.2027 21.7085H64.4839" fill="#ACDAE7"/>
<path id="Vector_6" d="M64.4841 22.2241H0.515873C0.379055 22.2241 0.247841 22.1698 0.151096 22.073C0.0543507 21.9763 0 21.8451 0 21.7083C0 21.5714 0.0543507 21.4402 0.151096 21.3435C0.247841 21.2467 0.379055 21.1924 0.515873 21.1924H64.4841C64.6209 21.1924 64.7522 21.2467 64.8489 21.3435C64.9456 21.4402 65 21.5714 65 21.7083C65 21.8451 64.9456 21.9763 64.8489 22.073C64.7522 22.1698 64.6209 22.2241 64.4841 22.2241Z" fill="#333736"/>
<path id="Vector_7" d="M64.4841 22.2241H0.515873C0.379055 22.2241 0.247841 22.1698 0.151096 22.073C0.0543507 21.9763 0 21.8451 0 21.7083C0 21.5714 0.0543507 21.4402 0.151096 21.3435C0.247841 21.2467 0.379055 21.1924 0.515873 21.1924H64.4841C64.6209 21.1924 64.7522 21.2467 64.8489 21.3435C64.9456 21.4402 65 21.5714 65 21.7083C65 21.8451 64.9456 21.9763 64.8489 22.073C64.7522 22.1698 64.6209 22.2241 64.4841 22.2241Z" fill="#333736"/>
<path id="Vector_8" d="M47.1039 26.3511C48.2977 28.0399 50.2371 29.0439 52.3052 29.0439H53.4073C54.2524 29.0439 55.0928 29.17 55.9007 29.4179L56.4749 29.5941C57.2724 29.8389 58.0434 30.1628 58.7763 30.5611L60.6456 31.5769C60.7187 31.617 60.7826 31.672 60.8332 31.7384C60.8838 31.8047 60.92 31.8808 60.9394 31.962C60.9588 32.0431 60.9611 32.1274 60.946 32.2094C60.9309 32.2915 60.8989 32.3694 60.8519 32.4384C60.6122 32.8485 60.2673 33.1872 59.8528 33.4194C59.4383 33.6515 58.9693 33.7688 58.4944 33.759C56.1749 33.5166 53.9457 32.1959 51.6145 32.259L50.7813 32.2816C49.4739 32.317 48.1723 32.0954 46.9502 31.6294L40.7793 29.2761" fill="#CD9F61"/>
<path id="Vector_9" d="M58.6293 34.2546H58.4694C56.0349 34.0298 53.6843 32.7029 51.2407 32.7775L48.8174 32.8514C48.7488 32.8569 48.6799 32.8463 48.6162 32.8205L40.5944 29.7562C40.5265 29.7356 40.4635 29.7011 40.4096 29.6551C40.3556 29.609 40.3117 29.5523 40.2806 29.4885C40.2495 29.4247 40.2319 29.3552 40.229 29.2843C40.226 29.2134 40.2377 29.1426 40.2633 29.0764C40.2889 29.0102 40.3279 28.95 40.3779 28.8996C40.4278 28.8492 40.4876 28.8096 40.5535 28.7834C40.6195 28.7571 40.6901 28.7447 40.761 28.747C40.832 28.7493 40.9017 28.7662 40.9658 28.7967L42.9199 29.5427C46.8572 31.0458 51.0534 31.7531 55.2658 31.6237C55.3425 31.6207 55.4189 31.635 55.4894 31.6653C55.5599 31.6957 55.6227 31.7414 55.6733 31.7991C56.4251 32.5945 57.4336 33.0987 58.5209 33.2229C58.906 33.225 59.2847 33.1255 59.619 32.9344C59.9532 32.7433 60.2311 32.4673 60.4245 32.1344C60.4301 32.1222 60.433 32.1091 60.433 32.0957C60.433 32.0931 60.4328 32.0905 60.4326 32.0879C60.4308 32.0666 60.4233 32.0451 60.4091 32.0291C60.402 32.0211 60.3931 32.0148 60.3832 32.0106L58.5515 31.0138C57.828 30.6201 57.0658 30.3023 56.277 30.0653C55.1617 29.7304 54.0035 29.5602 52.8391 29.5602H49.0082C48.9255 29.5606 48.8439 29.5412 48.7703 29.5035C48.6967 29.4658 48.6332 29.4109 48.5852 29.3435L46.563 26.4649C46.4847 26.3533 46.4537 26.2152 46.4769 26.0809C46.5001 25.9465 46.5756 25.8268 46.6868 25.7479C46.7423 25.7083 46.805 25.6801 46.8714 25.6649C46.9378 25.6497 47.0066 25.6478 47.0737 25.6593C47.1409 25.6708 47.2051 25.6955 47.2626 25.7319C47.3202 25.7684 47.3699 25.8159 47.409 25.8717C48.5798 27.5372 50.4881 28.5284 52.5239 28.5284H54.5326C54.6326 28.5284 54.7337 28.5128 54.8324 28.5284L57.8245 29.4261C57.8898 29.4501 57.9531 29.4791 58.0138 29.5129L60.8733 31.1026C61.0072 31.1778 61.1246 31.2791 61.2185 31.4005C61.3124 31.5219 61.381 31.6609 61.4201 31.8094C61.4558 31.9609 61.4604 32.1181 61.4339 32.2714C61.4073 32.4248 61.35 32.5712 61.2654 32.7018C60.9921 33.1616 60.6073 33.5449 60.1465 33.8164C59.6857 34.0878 59.1638 34.2385 58.6293 34.2546Z" fill="#333736"/>
<path id="Vector_10" d="M26.0568 28.3529C25.662 30.3785 26.2739 32.4698 27.6982 33.9631L28.5002 34.804C29.0727 35.4044 29.5556 36.0843 29.9337 36.8227L30.1953 37.3336C30.5889 38.1023 30.9023 38.9097 31.1303 39.7428L31.6798 41.7501C31.7019 41.8306 31.7069 41.9147 31.6946 41.9972C31.6822 42.0797 31.6527 42.1587 31.608 42.2292C31.5633 42.2996 31.5044 42.3599 31.4351 42.4062C31.3657 42.4526 31.2874 42.4839 31.2052 42.4981C30.7439 42.6066 30.262 42.5907 29.8089 42.4521C29.3557 42.3134 28.9475 42.0569 28.6258 41.7089C27.197 39.8692 26.6024 37.3492 24.9369 35.7206L24.3395 35.1365C23.3993 34.2172 22.6515 33.12 22.1395 31.9088L19.5723 25.8354" fill="#CD9F61"/>
<path id="Vector_11" d="M30.5606 43.0497C30.1199 43.0604 29.6822 42.9735 29.2791 42.7951C28.8759 42.6167 28.5173 42.3513 28.2288 42.0179C26.7018 40.1151 26.0374 37.4998 24.2942 35.7928L22.5542 34.0889C22.4906 34.0262 22.4444 33.948 22.4201 33.862L20.8467 28.4401C20.8084 28.3081 20.8241 28.1663 20.8904 28.0458C20.9566 27.9254 21.068 27.8362 21.2001 27.7979C21.3321 27.7596 21.4739 27.7753 21.5944 27.8415C21.7148 27.9078 21.804 28.0192 21.8423 28.1512C22.8571 31.6217 24.7456 34.7735 27.3272 37.3052L27.9245 37.8909C27.9792 37.944 28.0214 38.0086 28.0482 38.0799C28.0749 38.1513 28.0855 38.2277 28.0792 38.3036C28.025 39.3978 28.3594 40.4759 29.0233 41.3473C29.2879 41.6276 29.6222 41.8326 29.992 41.9413C30.3618 42.0501 30.7538 42.0587 31.1281 41.9663C31.1412 41.9638 31.1537 41.9584 31.1644 41.9503C31.1751 41.9423 31.1839 41.9319 31.19 41.9199C31.1945 41.9102 31.1969 41.8997 31.1969 41.889C31.1969 41.8677 31.1871 41.8477 31.1815 41.8271L30.643 39.8601C30.4236 39.0585 30.1213 38.2819 29.7411 37.5429C29.2103 36.5113 28.5326 35.5624 27.729 34.7257L25.0562 31.9429C24.9985 31.8829 24.9561 31.8098 24.9327 31.7298C24.9094 31.6499 24.9057 31.5655 24.9221 31.4838L25.5515 28.2544C25.5775 28.1176 25.6567 27.9967 25.7719 27.9184C25.887 27.84 26.0285 27.8106 26.1654 27.8366C26.3022 27.8626 26.4231 27.9418 26.5014 28.057C26.5798 28.1721 26.6092 28.3136 26.5832 28.4505C26.2178 30.3099 26.7811 32.2308 28.0928 33.5985L29.7507 35.327C29.7872 35.3626 29.8169 35.4046 29.8384 35.4509L31.2467 38.2159C31.2636 38.2472 31.2774 38.28 31.288 38.314L32.1804 41.5691C32.2212 41.7179 32.2309 41.8735 32.2087 42.0262C32.1865 42.1789 32.133 42.3254 32.0515 42.4564C31.9678 42.5892 31.8578 42.7035 31.7282 42.7923C31.5987 42.881 31.4524 42.9422 31.2983 42.9723C31.0552 43.0202 30.8083 43.0461 30.5606 43.0497Z" fill="#333736"/>
<path id="Vector_12" d="M39.7181 17.9684C39.3036 17.8343 38.8492 17.9673 38.5726 18.3039C38.3524 18.5718 38.015 18.7089 37.6682 18.7119C36.5803 18.7213 35.51 19.0127 34.5636 19.562C32.9696 20.3977 30.1684 18.3858 26.7017 18.7314C23.235 19.077 22.6727 20.3203 21.2902 19.7632C19.9077 19.206 17.1219 20.0469 15.4608 20.5318C13.7997 21.0167 11.0192 21.156 9.49218 20.5318C8.20765 20.0159 6.29377 20.6608 5.71083 20.8774L5.62829 20.9084C5.58148 20.9281 5.56956 20.989 5.60547 21.0249L5.65924 21.0786L5.70567 21.1199C6.32472 21.7441 8.53781 23.8024 10.6013 23.8592C12.9279 23.9263 14.9965 22.8274 16.9362 22.4509L17.1942 22.4044C17.9896 22.236 18.8138 22.2776 19.5861 22.5231C19.6133 22.5318 19.6043 22.5676 19.576 22.5631L19.5362 22.5567C19.5115 22.5528 19.5098 22.5588 19.5348 22.5592C19.5357 22.5592 19.5365 22.5592 19.5375 22.5594C19.5572 22.5626 19.802 22.6046 19.7426 22.7036C19.6807 22.8068 20.635 25.1386 20.9033 26.1445C21.4466 28.3177 30.4949 32.3039 32.7325 32.4109C33.5355 32.4493 34.4451 32.4447 35.4754 32.3854C35.6272 32.3766 35.7831 32.3549 35.9328 32.3286C36.3208 32.2605 37.1373 32.1417 37.7714 32.2159C38.0679 32.2506 38.3637 32.3143 38.6622 32.3143C39.5593 32.3143 40.5499 31.7461 41.3991 32.0355C42.4762 32.4027 43.887 33.4248 44.8501 32.629C46.3049 31.427 46.9807 27.6251 47.0632 25.9536C47.121 24.8221 47.2866 23.2727 47.3923 22.3875C47.4066 22.2681 47.4078 22.1479 47.414 22.0278C47.414 21.1644 47.0402 20.3376 46.2187 20.0718L39.7181 17.9684Z" fill="#E8BF87"/>
<path id="Vector_13" d="M5.65405 20.8614C5.6186 20.8429 5.57242 20.8687 5.59805 20.8994C5.60473 20.9074 5.61379 20.919 5.61676 20.929C5.6285 20.9686 5.64159 21.0077 5.65599 21.0464C5.67685 21.1024 5.71129 21.1519 5.75401 21.1937C6.45035 21.8744 8.58791 23.8095 10.5853 23.8645C13.0151 23.9367 15.1663 22.7553 17.1782 22.4097C18.5514 22.1098 19.0066 21.5789 17.6142 21.3875C17.5054 21.3725 17.4143 21.3657 17.3484 21.3676C16.3858 21.4051 15.439 21.6238 14.5575 22.0125C10.4305 23.8593 8.36704 22.3736 5.69482 20.8827L5.65405 20.8614Z" fill="#CD9F61"/>
<path id="Vector_14" d="M35.6576 32.908C30.5298 32.908 27.4036 32.1651 26.4286 30.6846C26.2907 30.4855 26.1932 30.2619 26.1411 30.0267C26.1169 29.9176 26.0244 29.8334 25.9128 29.8334C22.1072 29.8334 20.4056 26.9112 19.6794 24.8052C19.2954 23.6915 18.4262 22.6245 17.2874 22.9258C16.5282 23.0757 15.7801 23.2774 15.0485 23.5294C13.6237 24.0712 12.1155 24.3609 10.5913 24.3858C7.97587 24.3135 5.27785 21.435 5.16436 21.2905C5.1075 21.23 5.06609 21.1567 5.04364 21.0768C5.02118 20.9968 5.01835 20.9127 5.03539 20.8314C5.05244 20.7509 5.0885 20.6757 5.14055 20.612C5.1926 20.5482 5.25913 20.4979 5.3346 20.4651C5.44293 20.4187 7.98103 19.3457 9.69372 20.0421C11.0763 20.6096 13.7227 20.4909 15.3219 20.0421L15.4354 20.006C17.2358 19.4901 19.9596 18.6854 21.4814 19.2889C21.9973 19.4901 22.2862 19.3921 23.0909 19.0826C24.2309 18.6233 25.4318 18.3331 26.6556 18.2211C28.2841 18.1271 29.916 18.3352 31.4687 18.835C32.6604 19.1548 33.6921 19.4282 34.3112 19.1084C34.8469 18.7793 35.4466 18.5683 36.0703 18.4893C37.043 18.4057 37.9624 18.0093 38.6909 17.3596C38.7603 17.2986 38.8447 17.2573 38.9355 17.24C39.0262 17.2228 39.1199 17.2302 39.2068 17.2616L47.8477 20.3568C47.96 20.3973 48.0548 20.4754 48.116 20.5779C48.2369 20.7807 48.1671 21.0362 48.134 21.2699C48.0032 22.1915 47.6515 24.6996 47.5846 26.0211C47.4917 27.8318 46.3207 30.6846 44.7267 32.0259C44.4413 32.2947 44.0825 32.4726 43.6957 32.5369C43.309 32.6012 42.9118 32.549 42.5548 32.387C42.1679 32.2528 42.1679 32.2528 41.9771 32.583C41.9316 32.6617 41.8662 32.727 41.7873 32.7723C41.7085 32.8176 41.6191 32.8413 41.5282 32.8409H38.7838C37.6695 32.8856 36.6275 32.908 35.6576 32.908ZM26.6611 28.8008C26.6776 28.788 26.698 28.7808 26.7188 28.7823C26.7939 28.7875 26.867 28.8092 26.9331 28.8458C27.0085 28.8877 27.0722 28.9478 27.1184 29.0207C27.1646 29.0936 27.1918 29.1769 27.1975 29.263C27.2087 29.4339 27.1155 29.5993 27.1362 29.7693C27.1395 29.7971 27.1445 29.8247 27.1511 29.852C27.1781 29.9633 27.231 30.0665 27.3056 30.1532C27.7699 30.7929 29.8128 32.2167 38.758 31.8143H40.3496C40.9261 31.8143 41.452 31.4401 42.0122 31.304C42.3138 31.2307 42.6318 31.271 42.9056 31.4171C43.0936 31.5229 43.3117 31.5625 43.5249 31.5298C43.7381 31.4971 43.9342 31.3938 44.0818 31.2366C45.4076 30.1274 46.4909 27.5378 46.5632 25.9643C46.7019 23.1689 45.2157 20.5056 42.5791 19.5664L42.2329 19.443C40.3173 18.7607 38.1805 19.3764 36.1529 19.5314C35.6721 19.6104 35.2124 19.7859 34.8013 20.0473C33.8263 20.5632 32.614 20.233 31.1902 19.8564C29.7538 19.3859 28.2421 19.1882 26.733 19.2735C25.5992 19.3764 24.4867 19.6458 23.4314 20.0731C22.6215 20.3826 21.9767 20.6302 21.079 20.2743C19.8874 19.7997 17.1584 20.5993 15.6985 21.0223L15.585 21.0584C13.8207 21.5743 10.9112 21.7084 9.27587 21.0584C8.11272 20.5839 7.66656 22.2963 8.78518 22.8679C9.37442 23.169 9.99744 23.3825 10.5965 23.4005C12.0079 23.3638 13.403 23.09 14.7235 22.5905C15.4985 22.322 16.2915 22.1082 17.0965 21.9509C19.2374 21.5794 19.9132 22.1675 20.0679 22.3532C20.1317 22.4313 20.1711 22.5264 20.1814 22.6266C20.2123 22.9048 20.9888 29.3792 26.6129 28.8199C26.6302 28.8182 26.6474 28.8115 26.6611 28.8008Z" fill="#333736"/>
<path id="Vector_15" d="M54.2236 15.2052C54.2236 15.2043 54.2242 15.2035 54.225 15.2032C54.2666 15.1879 54.306 15.1672 54.3423 15.1418L54.2268 15.2071C54.2254 15.2079 54.2236 15.2069 54.2236 15.2052ZM54.3474 15.1379C54.3474 15.1371 54.3479 15.1365 54.3485 15.1361C54.3865 15.1158 54.4224 15.0918 54.4558 15.0645L54.3506 15.1395C54.3493 15.1405 54.3474 15.1395 54.3474 15.1379Z" fill="#E8BF87"/>
<path id="Vector_16" d="M55.8688 13.5476V13.7076C55.8688 13.7592 55.8688 13.8159 55.8378 13.8623C55.8069 13.9088 55.7914 14.048 55.7656 14.1151C55.7398 14.1822 55.7243 14.2389 55.714 14.275C55.6938 14.3256 55.6598 14.3695 55.616 14.4019L55.323 14.6179C55.0352 14.83 54.8451 15.1434 54.6758 15.4583C54.5618 15.6703 54.4155 15.8645 54.2413 16.0336C53.9341 16.3317 53.5515 16.5405 53.1347 16.6377C52.5908 16.8262 52.0585 17.0467 51.5406 17.298C51.0814 17.4881 50.5699 17.5101 50.0962 17.3599L49.8743 17.2929L49.7351 17.2465C49.649 17.2157 49.5582 17.2 49.4668 17.2C49.295 17.1976 49.1275 17.2541 48.9922 17.3599C48.4695 17.7598 48.0444 18.2731 47.7489 18.8611C47.7128 18.9385 47.6819 19.0107 47.6509 19.0933C47.5877 19.2767 47.5479 19.4674 47.5323 19.6607C47.5297 19.702 47.5297 19.7433 47.5323 19.7846C47.5323 19.929 45.768 20.3675 45.7989 20.5171C46.1555 22.27 43.8373 22.639 45.1668 23.3476C45.2415 23.3874 45.3105 23.4404 45.3632 23.5067C45.4416 23.6052 45.4816 23.7268 45.4601 23.8508C45.4467 23.9279 45.4285 24.021 45.4071 24.1235C45.2437 24.9079 44.4111 25.3447 43.6581 25.0709L37.7551 22.9243C36.4239 22.4402 35.9505 20.7983 37.0568 19.9137C37.2441 19.7639 37.4299 19.5807 37.6685 19.5564C38.3372 19.4882 39.7433 19.8671 40.0779 19.5576C41.1028 18.6249 39.6627 16.8111 39.6652 15.4254C39.7426 13.754 41.2696 7.50677 43.5601 7.9659C45.8505 8.42503 45.0458 7.34169 46.8307 7.50161C47.004 7.51963 47.1763 7.54718 47.3466 7.58415C47.5211 7.62657 47.6933 7.67823 47.8624 7.73892L48.3783 7.93495C48.5485 8.00717 48.7188 8.08971 48.8942 8.16709C49.4311 8.43812 49.9483 8.74669 50.4418 9.0905C50.4694 9.10636 50.4941 9.12682 50.5148 9.15096C50.5214 9.15861 50.5285 9.16578 50.535 9.17349C50.5476 9.18849 50.5576 9.2057 50.57 9.22089C50.6022 9.26058 50.6239 9.30802 50.6327 9.35876C50.6382 9.42707 50.6444 9.49664 50.6367 9.56475C50.6357 9.5735 50.6343 9.58222 50.6327 9.5909C50.609 9.66069 50.5968 9.73387 50.5966 9.80757C50.5887 9.86577 50.5887 9.92476 50.5966 9.98296C50.6112 10.0401 50.632 10.0954 50.6585 10.148C50.6914 10.2068 50.7275 10.2636 50.7668 10.3183C50.7895 10.3517 50.8154 10.3828 50.8442 10.4111L50.8851 10.4579C50.9059 10.4817 50.9285 10.504 50.9525 10.5246L51.0402 10.602C51.0781 10.6387 51.1196 10.6715 51.164 10.7C51.4393 10.8972 51.7416 11.0536 52.0616 11.1643L52.5775 11.3294C52.7581 11.3758 52.9386 11.4274 53.1192 11.4687L53.666 11.6028C53.8466 11.6492 54.0271 11.6905 54.1819 11.7472L54.4398 11.8195C54.6152 11.8762 54.7751 11.9381 54.9557 12.0052L55.1775 12.1084C55.2409 12.1408 55.3014 12.1787 55.3581 12.2219L55.3993 12.2528C55.4207 12.2668 55.44 12.2834 55.457 12.3023C55.4669 12.3134 55.4804 12.321 55.4909 12.3315C55.5015 12.342 55.5085 12.356 55.5192 12.3663C55.5652 12.4104 55.6047 12.4607 55.6366 12.5159C55.6641 12.5523 55.6867 12.5922 55.7037 12.6346C55.7159 12.6585 55.7271 12.6829 55.7374 12.7077C55.7581 12.7576 55.7608 12.8052 55.7703 12.8584C55.7795 12.9106 55.8091 12.9649 55.8207 13.0166C55.8596 13.1907 55.8758 13.3692 55.8688 13.5476Z" fill="#E8BF87"/>
<path id="Vector_17" d="M55.8691 13.5472V13.7072C55.8691 13.7587 55.8691 13.8155 55.8382 13.8619C55.8072 13.9083 55.7918 14.0476 55.766 14.1147C55.7402 14.1818 55.7247 14.2385 55.7144 14.2746C55.6941 14.3252 55.6602 14.3691 55.6163 14.4014L55.0127 14.8464C54.9254 14.9108 54.8642 15.0398 54.9637 15.083C55.0967 15.1408 55.025 15.284 54.9319 15.3953C54.9197 15.4099 54.9098 15.4207 54.9045 15.425C54.3657 15.856 54.0731 16.3424 53.4159 16.5527C53.3891 16.5613 53.3619 16.5701 53.3346 16.579C51.553 17.1583 49.1703 16.7785 50.9346 16.1485C51.3065 16.0157 51.6649 15.911 51.8866 15.8687C52.5919 15.7323 53.088 15.5311 53.4362 15.322C54.0415 14.9584 53.6423 14.1228 53.6868 13.4182C53.7125 13.0124 53.432 12.743 53.0513 12.6003L51.2005 11.9068C50.9519 11.8209 50.7353 11.6614 50.5795 11.4495C50.4238 11.2375 50.3363 10.9832 50.3287 10.7202C50.3209 10.5797 50.3436 10.4392 50.3952 10.3083C50.4252 10.2324 50.4645 10.1607 50.512 10.0949C50.5583 10.0309 50.6542 10.0564 50.6898 10.127C50.7227 10.1857 50.7588 10.2426 50.7981 10.2972C50.8208 10.3307 50.8467 10.3618 50.8755 10.3901L50.9164 10.4368C50.9372 10.4607 50.9598 10.483 50.9838 10.5036L51.0715 10.581C51.1095 10.6176 51.1509 10.6505 51.1953 10.679C51.4706 10.8762 51.7729 11.0326 52.093 11.1433L52.6088 11.3083C52.7894 11.3548 52.9699 11.4064 53.1505 11.4476L53.6973 11.5818C53.8779 11.6282 54.0584 11.6695 54.2132 11.7262L54.4711 11.7984C54.6465 11.8552 54.8064 11.9171 54.987 11.9841L55.2088 12.0873C55.2723 12.1197 55.3327 12.1577 55.3894 12.2008L55.4306 12.2318C55.452 12.2457 55.4713 12.2624 55.4883 12.2813C55.4982 12.2923 55.5117 12.2999 55.5222 12.3104C55.5328 12.321 55.5398 12.3349 55.5505 12.3453C55.5965 12.3893 55.636 12.4397 55.668 12.4949C55.6955 12.5313 55.718 12.5712 55.735 12.6135C55.7481 12.6392 55.7601 12.6655 55.771 12.6921C55.7899 12.7385 55.793 12.7822 55.8006 12.8317C55.8093 12.8878 55.8397 12.9462 55.8493 13.0023C55.8799 13.1821 55.8867 13.3654 55.8691 13.5472Z" fill="#CD9F61"/>
<path id="Vector_18" d="M47.5787 20.7541C47.4602 20.7573 47.3442 20.7195 47.2502 20.6472C47.1563 20.5748 47.0901 20.4723 47.0629 20.3569C47.0227 20.1705 47.0037 19.9801 47.0061 19.7895C47.0008 19.7346 47.0008 19.6793 47.0061 19.6244C47.0221 19.3846 47.0725 19.1483 47.1557 18.9228C47.179 18.8472 47.2075 18.7732 47.241 18.7015C47.2459 18.6909 47.2486 18.6794 47.2486 18.6678C47.2486 18.6557 47.2514 18.6437 47.2568 18.6329C47.5871 17.9793 48.0582 17.407 48.6363 16.9573C48.811 16.8242 49.0159 16.7361 49.2327 16.701C49.4496 16.666 49.6717 16.6849 49.8795 16.7561L49.993 16.7974L50.1839 16.8541C50.3142 16.8989 50.4489 16.9262 50.5846 16.936C51.0098 16.967 51.4067 16.7567 51.8028 16.5987C52.1089 16.4767 52.4998 16.3284 52.9308 16.1675C53.5388 15.9406 54.0729 15.5505 54.4706 15.0377L55.1799 14.123C55.1917 14.1077 55.1982 14.0889 55.1982 14.0695C55.1982 14.0653 55.1985 14.0612 55.199 14.0571C55.2012 14.0384 55.2015 14.0195 55.1999 14.0008C55.199 13.9908 55.1982 13.9809 55.1982 13.9709C55.1982 13.9467 55.2025 13.9227 55.21 13.8997C55.2266 13.8485 55.2399 13.7963 55.2498 13.7434L55.2756 13.6196C55.2804 13.5443 55.2824 13.4686 55.2877 13.3932C55.2943 13.3002 55.2924 13.2067 55.2821 13.114C55.2783 13.0796 55.2756 13.0451 55.2756 13.0106V12.9312C55.2756 12.8885 55.2689 12.8449 55.2446 12.8097C55.2291 12.7847 55.21 12.7621 55.1879 12.7426C55.1605 12.7119 55.1287 12.6853 55.0935 12.664L55.0021 12.6085L54.801 12.5157C54.672 12.4641 54.5224 12.4073 54.3625 12.3557C54.2914 12.3314 54.219 12.3107 54.1458 12.2938L53.6299 12.1494L53.0831 12.0204L52.5156 11.8708C52.3351 11.8192 52.1494 11.7625 51.9688 11.6954C51.6019 11.5738 51.2545 11.4001 50.9371 11.1795C50.8862 11.1434 50.838 11.1038 50.7926 11.0609C50.7541 11.031 50.7179 10.9982 50.6843 10.9629L50.6327 10.9164C50.5547 10.8503 50.4876 10.7702 50.4326 10.684C50.4305 10.6807 50.4284 10.6773 50.4264 10.674C50.3702 10.6019 50.3218 10.5241 50.2819 10.4418C50.2386 10.3561 50.2041 10.2662 50.1787 10.1736C50.0805 9.80811 49.9721 9.40303 49.6492 9.20557C49.3471 9.0208 49.0366 8.84977 48.7188 8.69303C48.5692 8.61565 48.4041 8.54343 48.2442 8.47121C48.0843 8.39899 47.9244 8.34224 47.7644 8.29065C47.6072 8.23543 47.447 8.18893 47.2847 8.15137C47.1334 8.11598 46.9801 8.09014 46.8256 8.07399C46.6484 8.03366 46.4648 8.03167 46.2868 8.06815C46.1089 8.10463 45.9408 8.17873 45.7938 8.28549C45.3192 8.59502 44.8498 8.80137 43.493 8.53311C43.3633 8.51384 43.2309 8.52426 43.1058 8.56358C42.9807 8.60289 42.8662 8.67009 42.7708 8.7601C41.316 9.81248 40.2379 13.9704 40.1863 15.451C40.1824 16.2199 40.1064 16.9867 39.9593 17.7414C39.9201 17.8693 39.8327 17.977 39.7157 18.0417C39.5986 18.1064 39.461 18.1232 39.3319 18.0884C39.2027 18.0536 39.0921 17.97 39.0234 17.8552C38.9547 17.7404 38.9333 17.6035 38.9637 17.4732C39.0862 16.7921 39.1501 16.1017 39.1545 15.4097C39.2061 14.0994 40.2379 9.36367 42.1053 7.88311C42.3173 7.70481 42.5655 7.57464 42.8327 7.50161C43.0999 7.42858 43.3797 7.41441 43.6529 7.4601C44.6847 7.67161 44.922 7.52716 45.2006 7.35692C45.5276 7.13329 45.9037 6.99942 46.2918 6.96347C46.6879 6.92677 47.0873 6.99722 47.4756 7.08351C47.6699 7.12588 47.8611 7.18102 48.0482 7.24859C48.241 7.3109 48.4304 7.38322 48.6156 7.46526C48.7859 7.53748 48.9664 7.62002 49.1315 7.70256C49.6966 7.98393 50.2414 8.30456 50.7617 8.66208C50.8407 8.71575 50.9104 8.78197 50.968 8.85811C51.0574 8.96545 51.1194 9.09292 51.1486 9.22954C51.1587 9.30141 51.1587 9.37434 51.1486 9.44621C51.147 9.52861 51.1362 9.61054 51.1164 9.69047C51.1107 9.71333 51.1073 9.73672 51.1073 9.76027C51.1073 9.78124 51.1098 9.80212 51.1151 9.82241C51.1232 9.85328 51.1349 9.89687 51.1383 9.90018C51.1426 9.9045 51.1614 9.9451 51.1796 9.97635C51.1861 9.98763 51.1947 9.99749 51.2029 10.0077C51.2209 10.0301 51.2379 10.0537 51.2575 10.0748C51.2595 10.0769 51.2614 10.079 51.2634 10.0812C51.2806 10.1005 51.2989 10.119 51.3204 10.1334C51.3296 10.1395 51.3384 10.1464 51.3466 10.1539L51.3962 10.1994L51.4736 10.2613C51.7119 10.4331 51.9744 10.5687 52.2525 10.6637C52.4125 10.7204 52.5724 10.772 52.7375 10.8133C52.9025 10.8545 53.0883 10.9113 53.2533 10.9526L53.8002 11.0867L54.3521 11.2311L54.6204 11.3137C54.8216 11.3807 54.997 11.4426 55.1672 11.5149L55.2601 11.5561L55.42 11.6335C55.5053 11.6773 55.5872 11.7276 55.6648 11.7838C55.6734 11.79 55.6836 11.7934 55.6942 11.7934C55.7038 11.7934 55.7132 11.7962 55.7211 11.8016C55.7737 11.8375 55.8216 11.8798 55.8637 11.9276C55.8739 11.9379 55.8841 11.9484 55.8941 11.9591C56.0248 12.0985 56.1471 12.2506 56.2299 12.4228C56.2575 12.478 56.281 12.5373 56.3041 12.597C56.3097 12.6115 56.3138 12.6266 56.3144 12.6421C56.3156 12.671 56.3173 12.7001 56.325 12.7279C56.3401 12.7818 56.3514 12.8367 56.3589 12.8922C56.3885 13.0736 56.396 13.2576 56.3813 13.4403C56.3715 13.5634 56.3675 13.6873 56.3589 13.8105L56.3279 13.9704C56.297 14.0994 56.2712 14.2026 56.2402 14.2903C56.2093 14.378 56.2093 14.3934 56.1938 14.4347C56.1752 14.4895 56.1528 14.5429 56.1267 14.5946C56.115 14.6214 56.1012 14.6473 56.0855 14.672L54.6823 16.5498C54.6213 16.6328 54.5369 16.6957 54.4398 16.7303L54.3573 16.7613C53.7898 16.9625 52.0668 17.5918 51.7779 17.7466C51.2089 18.007 50.5632 18.0456 49.9672 17.8549L49.7144 17.7776L49.6067 17.7444C49.5892 17.739 49.571 17.7363 49.5527 17.7363C49.5368 17.7363 49.521 17.7339 49.5053 17.7312C49.4749 17.726 49.4437 17.7263 49.4132 17.7319C49.3748 17.7391 49.3385 17.7547 49.3069 17.7776C48.8675 18.1159 48.5043 18.5427 48.2406 19.0302C48.2293 19.0511 48.2236 19.0745 48.2236 19.0982C48.2236 19.1601 48.172 19.2168 48.1513 19.2787C48.1003 19.4199 48.069 19.5675 48.0585 19.7172C48.0566 19.7464 48.0566 19.7757 48.0585 19.8049C48.0537 19.9176 48.0641 20.0304 48.0894 20.1403C48.1047 20.2063 48.1068 20.2747 48.0957 20.3416C48.0845 20.4085 48.0603 20.4725 48.0243 20.53C47.9884 20.5875 47.9415 20.6373 47.8863 20.6767C47.8648 20.692 47.8422 20.7056 47.8188 20.7173C47.7454 20.7543 47.6609 20.7576 47.5787 20.7541Z" fill="#333736"/>
<path id="Vector_19" d="M56.3078 12.9639C56.2034 12.1774 54.7469 12.2374 54.5866 13.0144C54.5765 13.0634 54.5705 13.1153 54.5693 13.1702C54.5693 13.6861 55.1626 14.0988 55.4721 14.2639C55.5246 14.291 55.5847 14.2996 55.6428 14.2884C55.7008 14.2771 55.7533 14.2467 55.792 14.202C56.0086 13.944 56.4162 13.3972 56.3078 12.9639Z" fill="#333736"/>
<path id="Vector_20" d="M55.5954 14.8114C55.4691 14.8112 55.345 14.7793 55.2343 14.7186C54.4605 14.311 54.0426 13.759 54.0529 13.171C54.077 12.8285 54.2142 12.5039 54.443 12.248C54.6718 11.9921 54.9792 11.8195 55.3168 11.7575C55.3832 11.7443 55.4516 11.7443 55.518 11.7575C55.8253 11.7916 56.1153 11.9169 56.3507 12.1174C56.8165 12.514 56.9133 13.2183 56.69 13.7879C56.5771 14.076 56.4044 14.3369 56.1835 14.5535C56.1101 14.6366 56.0194 14.7028 55.9179 14.7473C55.8163 14.7918 55.7063 14.8137 55.5954 14.8114ZM55.7423 12.9381C55.579 12.8006 55.3192 12.8062 55.1765 12.965C55.1239 13.0235 55.0867 13.095 55.0847 13.1813C55.0836 13.225 55.0899 13.265 55.103 13.3024C55.2164 13.6272 55.7289 13.5121 55.8064 13.1768C55.8244 13.099 55.8211 13.0125 55.7635 12.9571C55.7568 12.9507 55.7497 12.9443 55.7423 12.9381Z" fill="#333736"/>
<path id="Vector_21" d="M44.9294 7.78604C45.4925 7.77355 46.1359 7.77143 46.4429 8.24367C46.6 8.48541 46.6748 8.7715 46.6559 9.0592C46.6457 10.4531 46.9196 11.8345 47.4607 13.1191C47.9765 14.2747 47.8837 16.137 47.2337 16.2144C46.5837 16.2917 45.815 15.6417 44.9587 15.5179C44.1023 15.3941 42.663 14.9505 42.1523 14.3727C41.6416 13.7949 41.6777 13.2378 41.1206 12.9128C40.5634 12.5878 39.8773 11.1691 40.2436 10.3798C40.6099 9.59055 42.3071 7.83658 43.0087 7.72309C43.5605 7.63382 44.0167 7.80628 44.9294 7.78604Z" fill="#E8BF87"/>
<path id="Vector_22" d="M46.6027 9.06146C46.6079 9.0388 46.642 9.04116 46.6398 9.0643C46.6413 10.4569 46.9201 11.8353 47.46 13.1191C47.9759 14.2746 47.883 16.1318 47.233 16.2143C46.583 16.2968 45.8144 15.6417 44.9529 15.5179C44.0913 15.3941 42.6624 14.9504 42.1517 14.3726C41.641 13.7949 41.6771 13.2326 41.1199 12.9127C40.5628 12.5929 39.8973 11.1433 40.2687 10.3591C40.3525 10.1886 40.605 10.246 40.669 10.4249C40.789 10.7604 40.9925 11.0631 41.2637 11.3024C41.2879 11.3238 41.3147 11.3421 41.3414 11.3603C41.7115 11.6119 41.6957 12.0353 42.0743 12.4587C42.4663 12.8972 43.5652 13.2222 44.2203 13.3306C44.8755 13.4389 45.4533 13.9857 45.9537 13.9032C46.454 13.8206 46.5366 12.402 46.129 11.5147C45.7635 10.7189 46.4314 9.80681 46.6027 9.06146Z" fill="#CD9F61"/>
<path id="Vector_23" d="M47.079 16.7665C46.6329 16.729 46.2009 16.5915 45.8151 16.3642C45.5179 16.2024 45.2004 16.081 44.8711 16.003C44.0199 15.8534 42.4104 15.415 41.7759 14.6927C41.562 14.4347 41.3881 14.146 41.26 13.8364C41.131 13.563 41.0588 13.4237 40.8989 13.3205C40.1457 12.8665 39.3513 11.1848 39.8259 10.1273C40.2128 9.2967 41.9874 7.33122 42.9778 7.17646C44.0715 6.934 45.3509 6.76376 46.2485 7.36734C46.5077 7.55268 46.7251 7.7903 46.8869 8.06486C47.0486 8.33942 47.1509 8.64483 47.1874 8.96138C47.1927 8.99903 47.1927 9.03723 47.1874 9.07487C47.1823 10.3838 47.4347 11.6809 47.9302 12.8923C48.3997 13.9241 48.4461 15.3995 48.0437 16.1681C47.9776 16.3146 47.8769 16.4429 47.7501 16.5417C47.6234 16.6406 47.4745 16.7071 47.3163 16.7356C47.2387 16.7551 47.1591 16.7655 47.079 16.7665ZM44.639 7.99926C44.639 7.99786 44.6378 7.99673 44.6364 7.99677C44.1315 8.01057 43.6293 8.07624 43.1378 8.19273C42.6219 8.27527 41.0743 9.82289 40.7338 10.5709C40.4862 11.0868 41.064 12.2372 41.4044 12.4384C41.7546 12.6665 42.0223 13.001 42.1679 13.3927C42.2593 13.6137 42.3847 13.8191 42.5394 14.0015C42.8953 14.4038 44.087 14.8165 45.0465 14.9816C45.472 15.0713 45.8821 15.2225 46.264 15.4304C46.6962 15.6902 47.2174 15.3787 47.2479 14.8753C47.2797 14.349 47.1831 13.8184 46.9604 13.3308C46.4018 11.9872 46.1177 10.5454 46.1247 9.09035C46.1021 8.91912 46.0447 8.75434 45.956 8.60617C45.8672 8.45799 45.7491 8.32958 45.6088 8.22884C45.3133 8.06595 44.9787 7.98741 44.6416 8.00175C44.6401 8.00181 44.639 8.00068 44.639 7.99926Z" fill="#333736"/>
<path id="Vector_24" d="M47.7725 19.8803C47.8231 19.4216 47.512 18.9991 47.0626 18.8942C45.7528 18.5885 43.0556 17.8647 40.6565 16.6238C40.109 16.3407 39.4193 16.5892 39.2207 17.1727C39.1014 17.5232 39.2015 17.9048 39.514 18.1034C40.3501 18.6345 42.4008 19.6738 46.7171 20.6385C47.2237 20.7517 47.7155 20.3963 47.7725 19.8803Z" fill="#A67E73"/>
<path id="Vector_25" d="M47.7749 21.3268C47.7071 21.3399 47.6368 21.3473 47.5687 21.3367C41.7911 20.1599 39.5343 18.7786 38.8961 18.2824C38.7498 18.1687 38.5994 18.0368 38.5545 17.857C38.5317 17.7661 38.5342 17.6708 38.5616 17.5812L39.1445 15.8633C39.1701 15.7907 39.2117 15.7247 39.2662 15.6703C39.3206 15.6158 39.3866 15.5743 39.4592 15.5486C39.5319 15.5227 39.6095 15.5134 39.6863 15.5214C39.7631 15.5294 39.8371 15.5546 39.9028 15.5951C43.256 17.6585 47.9298 18.551 47.9763 18.5613C48.1011 18.5898 48.2109 18.6636 48.2843 18.7685C48.3577 18.8733 48.3895 19.0018 48.3735 19.1288L48.1826 20.8827C48.1752 20.954 48.153 21.0229 48.1174 21.085C48.0819 21.1472 48.0338 21.2013 47.9763 21.2439C47.9151 21.2849 47.8465 21.313 47.7749 21.3268ZM39.7389 17.2784C39.6774 17.457 39.7418 17.655 39.9037 17.7525C40.7501 18.2627 42.7565 19.2378 46.8276 20.1378C47.0362 20.1839 47.2389 20.0388 47.2632 19.8265C47.2843 19.6414 47.1614 19.4707 46.9797 19.4297C44.6736 18.9089 42.4406 18.1067 40.3308 17.041C40.1021 16.9255 39.8224 17.0362 39.7389 17.2784ZM48.2342 11.7621C48.1398 11.7609 48.0476 11.7338 47.9675 11.6837C47.8875 11.6337 47.8227 11.5627 47.7802 11.4784C47.7488 11.4166 47.7302 11.3492 47.7254 11.2801C47.7207 11.211 47.7299 11.1416 47.7525 11.0761C47.7751 11.0106 47.8107 10.9504 47.8571 10.899C47.9036 10.8475 47.9599 10.806 48.0227 10.7768C48.3514 10.65 48.7022 10.5903 49.0544 10.6014C49.1912 10.5932 49.3257 10.6397 49.4283 10.7306C49.5308 10.8215 49.593 10.9495 49.6013 11.0863C49.6095 11.2231 49.563 11.3576 49.472 11.4602C49.3811 11.5627 49.2531 11.6249 49.1163 11.6331C48.957 11.6417 48.7981 11.6576 48.6403 11.681C48.5037 11.7013 48.3722 11.7586 48.2342 11.7621Z" fill="#333736"/>
<path id="Vector_26" d="M19.7219 22.7095C19.7355 23.8347 19.7491 24.6773 19.8231 25.4196C20.0165 27.3591 19.058 29.4458 17.1392 29.7883C16.5055 29.9014 15.9264 30.2192 15.4906 30.6929L12.4223 34.0277C12.1713 34.2568 11.809 34.317 11.4973 34.1815L10.9779 33.9555C10.7743 33.8675 10.5489 33.8426 10.331 33.8839C10.113 33.9253 9.91248 34.0311 9.75527 34.1877L8.36242 35.5753C8.08385 35.8281 9.53861 37.123 9.81202 37.3603C10.3537 37.8761 12.0561 38.0567 13.2838 37.6853C13.5417 37.6067 13.7692 37.5128 13.9701 37.4089C15.3 36.7213 16.1713 35.2149 17.4413 34.4219C18.4187 33.8115 19.5696 33.5392 20.7169 33.6467L21.3743 33.7084C22.4927 33.8132 23.6341 33.6817 24.6292 33.1606C26.5342 32.163 28.2155 30.7751 29.5596 29.0805M46.5112 28.1313L47.6049 34.6055C47.7265 35.1548 47.6792 35.728 47.4693 36.25C47.2595 36.772 46.8967 37.2183 46.4287 37.5305L40.7902 41.3119C40.5387 41.4765 40.2447 41.5643 39.9442 41.5646H37.143C36.8006 41.566 36.4679 41.4514 36.1989 41.2396L32.8251 38.5726C32.709 38.4831 32.6185 38.3646 32.5627 38.2291C32.5068 38.0936 32.4876 37.9458 32.507 37.8005C32.5263 37.6552 32.5835 37.5175 32.6729 37.4013C32.7622 37.2851 32.8805 37.1945 33.016 37.1384L34.5636 36.4265C34.8458 36.2988 35.1632 36.271 35.4633 36.348C35.7635 36.4249 36.0284 36.6018 36.2144 36.8496L36.4733 37.1914C36.829 37.6611 37.3175 38.0134 37.8755 38.2026L38.1536 38.2969C38.9519 38.5675 39.8334 38.4035 40.4809 37.8639C41.928 36.658 41.5225 34.2468 39.9405 33.2244C38.2973 32.1624 36.6844 30.6848 36.3898 28.869" fill="#E8BF87"/>
<path id="Vector_27" d="M39.9444 42.0597H37.1433C36.6845 42.0603 36.2391 41.9058 35.8794 41.6212L32.5004 38.9541C32.3186 38.8111 32.1767 38.6235 32.0884 38.4097C32.0001 38.1958 31.9684 37.9628 31.9964 37.7331C32.0244 37.5034 32.1112 37.2848 32.2482 37.0984C32.3853 36.912 32.5681 36.764 32.779 36.6688L34.3266 35.9569C34.7182 35.7723 35.1618 35.7295 35.5815 35.8358C36.0012 35.9422 36.3709 36.191 36.6274 36.5399L36.8786 36.8717C37.1753 37.2638 37.5838 37.5568 38.0503 37.7123L38.2688 37.7852C38.9293 38.0053 39.6567 37.8698 40.1935 37.4264C41.3638 36.46 41.0894 34.5806 39.8089 33.7659C38.0236 32.6301 36.2122 30.9976 35.8794 28.9307C35.8683 28.8636 35.8707 28.795 35.8862 28.7288C35.9018 28.6627 35.9303 28.6002 35.9701 28.5451C36.0099 28.4899 36.0602 28.4432 36.1181 28.4076C36.176 28.372 36.2404 28.3481 36.3075 28.3375C36.3746 28.3264 36.4432 28.3288 36.5094 28.3443C36.5756 28.3599 36.6381 28.3884 36.6932 28.4282C36.7483 28.468 36.7951 28.5183 36.8307 28.5762C36.8663 28.6341 36.8901 28.6985 36.9008 28.7656C37.4786 32.3252 43.8806 34.6105 43.9425 34.6363C44.0295 34.6661 44.1069 34.7187 44.1668 34.7885C44.2267 34.8584 44.2668 34.943 44.2829 35.0335C44.2982 35.1231 44.2896 35.2151 44.2579 35.3002C44.2262 35.3854 44.1725 35.4607 44.1024 35.5184L39.769 39.0986C39.6992 39.1587 39.6145 39.1991 39.5238 39.2154C39.4331 39.2317 39.3396 39.2235 39.2532 39.1914L36.8337 38.3815C36.7518 38.3453 36.6807 38.2884 36.6274 38.2164L35.802 37.1847C35.6868 37.0285 35.5211 36.917 35.3331 36.869C35.145 36.8211 34.9462 36.8397 34.7702 36.9216L33.2226 37.6335C33.1734 37.6573 33.1308 37.6928 33.0984 37.7368C33.066 37.7809 33.0449 37.8322 33.0369 37.8863C33.0313 37.9405 33.0392 37.9952 33.0599 38.0456C33.0806 38.096 33.1135 38.1405 33.1556 38.1752L36.5087 40.7958C36.6874 40.9345 36.9067 41.0106 37.1329 41.0125H39.9444C40.1432 41.0142 40.3377 40.9547 40.5016 40.8422L46.1452 37.0867C46.5249 36.8334 46.8192 36.4713 46.9895 36.0478C47.1598 35.6243 47.1982 35.1593 47.0996 34.7137L46.0008 28.2188C45.989 28.1513 45.9908 28.0822 46.006 28.0154C46.0212 27.9486 46.0496 27.8856 46.0894 27.8299C46.1293 27.7741 46.1798 27.7269 46.2381 27.691C46.2964 27.655 46.3613 27.631 46.429 27.6204C46.5637 27.598 46.7018 27.63 46.813 27.7093C46.9243 27.7886 46.9995 27.9087 47.0222 28.0434L48.121 34.5331C48.2598 35.179 48.2001 35.8517 47.9496 36.463C47.6992 37.0743 47.2699 37.5956 46.7179 37.9585L41.0794 41.7192C40.7425 41.9412 40.3479 42.0596 39.9444 42.0597ZM12.2937 38.3609C11.1287 38.3108 10.0003 37.9395 9.03333 37.2879C9.00057 37.2664 8.97105 37.2403 8.94563 37.2105L8.57421 36.7978C8.29791 36.4907 8.15024 36.0892 8.16176 35.6763C8.17328 35.2634 8.34312 34.8707 8.63611 34.5795L9.37381 33.8418C9.60364 33.6104 9.89818 33.454 10.2186 33.3932C10.5391 33.3325 10.8704 33.3702 11.169 33.5014L11.6957 33.7297C11.8241 33.7854 11.9734 33.7606 12.077 33.6664L15.781 29.6323C15.8579 29.5507 15.9593 29.4964 16.0698 29.4775C18.1975 29.0869 19.3424 26.7946 19.2311 24.6342C19.2023 24.0746 19.196 23.4485 19.196 22.699C19.196 22.5622 19.2504 22.4309 19.3471 22.3342C19.4439 22.2375 19.5751 22.1831 19.7119 22.1831C19.8487 22.1831 19.9799 22.2375 20.0767 22.3342C20.1734 22.4309 20.2278 22.5622 20.2278 22.699C20.1968 25.5156 20.3052 26.4236 21.4194 28.8895C21.4521 28.9609 21.4681 29.0389 21.4661 29.1174C21.4641 29.196 21.4441 29.273 21.4078 29.3427C21.3715 29.4123 21.3197 29.4728 21.2565 29.5194C21.1932 29.566 21.1202 29.5976 21.0429 29.6117C18.0303 30.1606 15.2797 31.6788 13.2096 33.9352L12.7889 34.3938L12.3401 34.8065C12.2668 34.8735 12.1757 34.9179 12.0778 34.9343C11.9799 34.9508 11.8793 34.9387 11.7881 34.8994L10.7563 34.4454C10.648 34.3992 10.5282 34.3862 10.4125 34.4083C10.2967 34.4303 10.1901 34.4864 10.1063 34.5692L9.36349 35.3121C9.26039 35.4196 9.20283 35.5629 9.20283 35.7119C9.20283 35.8609 9.26039 36.0041 9.36349 36.1117C9.57922 36.3514 9.82259 36.566 10.1083 36.7156C10.7606 37.0571 11.9951 37.5566 13.1397 37.2105C14.6409 36.7565 14.9349 35.6629 14.9401 35.5958C14.955 35.5254 14.9836 35.4587 15.0243 35.3993C15.065 35.34 15.117 35.2893 15.1774 35.2502L18.6595 33.0577C18.7548 32.9977 18.8672 32.9705 18.9794 32.9803C21.5915 33.2233 24.317 32.8965 26.4674 31.3938C27.5128 30.6632 28.3618 29.8535 29.1369 28.7914C29.1749 28.7321 29.2247 28.6812 29.2832 28.6419C29.3416 28.6026 29.4075 28.5756 29.4767 28.5627C29.546 28.5498 29.6172 28.5513 29.6859 28.5669C29.7545 28.5826 29.8193 28.6122 29.8761 28.6538C29.9329 28.6955 29.9806 28.7483 30.0163 28.8091C30.0519 28.8699 30.0747 28.9373 30.0832 29.0072C30.0918 29.0772 30.0859 29.1481 30.066 29.2157C30.0461 29.2833 30.0126 29.3461 29.9675 29.4002C28.327 31.6494 26.4337 32.8307 23.2921 34.3474C23.2069 34.3875 23.1123 34.4036 23.0186 34.3938L20.9089 34.196C19.7076 34.0834 18.5026 34.3691 17.4797 35.009L17.332 35.1014C16.3871 35.6925 15.7507 36.6809 14.9203 37.4243C14.4909 37.8086 13.9731 38.0808 13.4131 38.2164C13.0494 38.321 12.672 38.3697 12.2937 38.3609Z" fill="#333736"/>
<path id="Vector_28" opacity="0.61" d="M64.4839 45.0824H11.2509C5.32199 45.0824 0.515625 40.2761 0.515625 34.3471C0.515625 28.4182 5.32199 23.6118 11.2509 23.6118H64.4839" fill="#ACDAE7"/>
<path id="Vector_29" d="M9.13574 13.5886C9.13574 13.5886 9.13574 13.1793 9.21063 12.5516C9.53573 9.82659 11.3543 11.0187 11.8234 13.7227" fill="#85BD79"/>
<path id="Vector_30" d="M11.824 14.2541C11.7011 14.2559 11.5816 14.2137 11.487 14.1352C11.3924 14.0567 11.329 13.9471 11.3081 13.8259C11.0019 12.0406 9.75477 11.5245 9.65633 13.3332C9.64778 13.4903 9.64698 13.5817 9.64698 13.5886C9.64698 13.7254 9.59263 13.8567 9.49588 13.9534C9.39914 14.0501 9.26793 14.1045 9.13111 14.1045C8.99429 14.1045 8.86307 14.0501 8.76633 13.9534C8.66958 13.8567 8.61523 13.7254 8.61523 13.5886C8.61523 13.3513 8.66166 7.75926 12.5875 6.03109C12.6801 5.99055 12.7825 5.97812 12.8821 5.99532C12.9817 6.01252 13.0741 6.0586 13.1477 6.12784C13.2213 6.19708 13.273 6.28643 13.2963 6.38479C13.3422 6.57859 13.2467 6.77778 13.1846 6.96703C12.8693 7.92888 11.8934 11.1258 12.3244 13.6505C12.3362 13.7173 12.3349 13.7857 12.3203 13.8519C12.3057 13.9181 12.2782 13.9808 12.2394 14.0363C12.2006 14.0919 12.1513 14.1393 12.0941 14.1758C12.037 14.2122 11.9732 14.2371 11.9065 14.2489L11.824 14.2541Z" fill="#333736"/>
<path id="Vector_31" d="M9.65154 14.3625C9.65154 14.3625 9.65154 13.9177 9.58279 13.222C9.2382 9.73513 7.55898 11.0644 6.96385 14.5173" fill="#85BD79"/>
<path id="Vector_32" d="M6.96392 15.0329C6.90899 15.0329 6.85345 15.0304 6.80143 15.0128C6.69963 14.9782 6.61044 14.9124 6.54723 14.8238C6.46793 14.7126 6.43597 14.5744 6.45837 14.4397C6.97424 11.4425 4.84368 5.7008 4.82305 5.63889C4.78768 5.54483 4.78055 5.44248 4.80255 5.34442C4.82454 5.24636 4.8747 5.15686 4.94686 5.08691C5.01953 5.01722 5.111 4.97032 5.21 4.95198C5.309 4.93365 5.4112 4.94469 5.504 4.98374C10.1159 6.94405 10.1469 14.0734 10.1469 14.3726C10.1469 14.5094 10.0925 14.6407 9.99576 14.7374C9.89902 14.8341 9.7678 14.8885 9.63099 14.8885C9.49417 14.8885 9.36295 14.8341 9.26621 14.7374C9.16946 14.6407 9.11511 14.5094 9.11511 14.3726C9.11511 14.3642 9.11421 14.2397 9.10339 14.0261C8.98274 11.6439 7.85703 12.2641 7.454 14.6151C7.43182 14.73 7.37123 14.834 7.28218 14.9099C7.19312 14.9858 7.08089 15.0292 6.96392 15.0329Z" fill="#333736"/>
<path id="Vector_33" d="M32.5 11.8191C32.5 11.8191 32.4064 11.4649 32.1984 10.9372C31.2786 8.60444 29.9476 10.0796 30.1683 12.5774" fill="#85BD79"/>
<path id="Vector_34" d="M30.1959 13.1026C30.1778 13.0965 30.1587 13.0937 30.1396 13.0927C30.0209 13.0866 29.9076 13.0395 29.8192 12.9591C29.7237 12.8722 29.6642 12.7526 29.6526 12.624C29.4462 10.3358 27.8985 7.77866 27.3747 6.99166C27.2708 6.83554 27.1172 6.65199 27.1172 6.46445C27.1172 6.3636 27.1467 6.26495 27.2022 6.18072C27.2556 6.09504 27.3329 6.02689 27.4246 5.98471C27.5163 5.94253 27.6183 5.92817 27.7181 5.94342C31.5975 6.53152 32.9439 11.4787 33.0161 11.6851C33.0517 11.8178 33.0331 11.9592 32.9644 12.0782C32.8957 12.1972 32.7826 12.284 32.6498 12.3196C32.5171 12.3552 32.3757 12.3366 32.2567 12.2679C32.1961 12.2329 32.1439 12.1864 32.1025 12.1316C32.0225 12.0259 32.0435 12.0661 32.012 11.9373C31.6466 10.4431 30.5643 11.0195 30.6998 12.5518C30.7062 12.6196 30.6991 12.6879 30.6789 12.753C30.6587 12.818 30.6259 12.8784 30.5822 12.9307C30.5386 12.983 30.485 13.0261 30.4247 13.0576C30.375 13.0834 30.3216 13.101 30.2665 13.1097C30.2428 13.1134 30.2187 13.1101 30.1959 13.1026Z" fill="#333736"/>
<path id="Vector_35" d="M32.0307 12.82C32.0307 12.82 32.0229 12.4144 32.0734 11.779C32.3262 8.59615 33.8798 9.77709 34.4811 12.9129" fill="#85BD79"/>
<path id="Vector_36" d="M34.5301 13.4328C34.4979 13.4469 34.4631 13.4554 34.4281 13.4524C34.3257 13.4437 34.2277 13.4045 34.1472 13.3392C34.0529 13.2628 33.9885 13.1555 33.9654 13.0363C33.5785 11.0261 32.5967 10.5323 32.5446 12.5788C32.5405 12.7395 32.5416 12.8326 32.5416 12.8403C32.5416 12.9771 32.4873 13.1083 32.3905 13.2051C32.2938 13.3018 32.1626 13.3561 32.0258 13.3561C31.8889 13.3561 31.7577 13.3018 31.661 13.2051C31.5642 13.1083 31.5099 12.9771 31.5099 12.8403C31.5099 12.5669 31.4273 6.04623 35.6369 4.16845C35.7289 4.12631 35.8312 4.11215 35.9312 4.12774C36.0312 4.14334 36.1244 4.18799 36.1992 4.25615C36.274 4.32434 36.3271 4.41304 36.3518 4.51119C36.4007 4.7047 36.3092 4.90294 36.2479 5.0929C35.8818 6.2291 34.5514 10.4853 35.0023 12.8248C35.0133 12.8926 35.0106 12.962 34.9944 13.0288C34.9782 13.0956 34.9488 13.1584 34.9079 13.2137C34.8671 13.269 34.8156 13.3155 34.7565 13.3506C34.708 13.3794 34.6552 13.4 34.6001 13.4117C34.5762 13.4168 34.5525 13.423 34.5301 13.4328Z" fill="#333736"/>
<path id="Vector_37" d="M57.8135 9.63177C57.8135 9.63177 57.887 9.18265 57.8673 8.50677C57.7927 5.94253 55.7447 7.24257 55.3115 9.77106" fill="#85BD79"/>
<path id="Vector_38" d="M55.3123 10.2867C55.2539 10.2867 55.1949 10.2841 55.1398 10.2648C55.04 10.2299 54.9527 10.1648 54.8904 10.0775C54.8111 9.96631 54.7792 9.82818 54.8016 9.69344C55.2813 6.91289 53.9298 3.24503 53.9143 3.20892C53.8795 3.11401 53.8734 3.01098 53.8967 2.91262C53.92 2.81426 53.9717 2.72492 54.0453 2.65567C54.1189 2.58643 54.2113 2.54035 54.3109 2.52315C54.4105 2.50595 54.513 2.51839 54.6056 2.55892C59.1143 4.53987 58.3353 9.66765 58.325 9.71924C58.3142 9.78698 58.2901 9.85193 58.2541 9.91037C58.2182 9.96881 58.1711 10.0196 58.1155 10.0598C58.06 10.1001 57.997 10.129 57.9303 10.1449C57.8635 10.1608 57.7943 10.1634 57.7266 10.1526C57.6588 10.1417 57.5939 10.1177 57.5354 10.0817C57.477 10.0458 57.4262 9.99868 57.386 9.94311C57.3457 9.88754 57.3168 9.82459 57.3009 9.75786C57.2974 9.74305 57.2945 9.72812 57.2923 9.71311C57.2768 9.60804 57.2975 9.50293 57.3068 9.39712C57.3093 9.36849 57.312 9.33636 57.3147 9.30095C57.4576 7.42222 56.1228 8.00878 55.7921 9.86368C55.7713 9.97788 55.7127 10.0818 55.6257 10.1585C55.5386 10.2353 55.4282 10.2804 55.3123 10.2867Z" fill="#333736"/>
<path id="Vector_39" d="M57.623 10.4826C57.623 10.4826 57.623 10.0678 57.6871 9.41913C58.0082 6.16783 59.5685 7.40856 60.1302 10.627" fill="#85BD79"/>
<path id="Vector_40" d="M60.1304 11.1434C60.0075 11.1452 59.888 11.103 59.7935 11.0245C59.6989 10.946 59.6354 10.8363 59.6146 10.7152C59.2566 8.61302 58.2421 8.07595 58.1473 10.2063C58.1397 10.3771 58.1392 10.4759 58.1392 10.4831C58.1392 10.6199 58.0848 10.7511 57.9881 10.8478C57.8913 10.9446 57.7601 10.9989 57.6233 10.9989C57.4865 10.9989 57.3553 10.9446 57.2585 10.8478C57.1618 10.7511 57.1074 10.6199 57.1074 10.4831C57.1074 10.1993 57.159 3.53426 61.4769 1.71323C61.5697 1.67418 61.6719 1.66314 61.7709 1.68148C61.8699 1.69981 61.9613 1.74671 62.034 1.8164C62.1071 1.88577 62.1582 1.975 62.1811 2.07309C62.2263 2.26637 62.1325 2.46279 62.0681 2.65057C61.6762 3.79492 60.2215 8.13825 60.6154 10.5553C60.6379 10.6893 60.6066 10.8267 60.5284 10.9378C60.4631 11.0304 60.3696 11.0985 60.2628 11.1324C60.2202 11.1459 60.175 11.1468 60.1304 11.1434Z" fill="#333736"/>
</g>
</svg>
