<svg width="71" height="62" viewBox="0 0 71 62" fill="none" xmlns="http://www.w3.org/2000/svg">
<rect width="71" height="62" rx="8" fill="#1FAB89"/>
<rect x="0.25" y="0.25" width="70.5" height="61.5" rx="7.75" stroke="black" stroke-opacity="0.12" stroke-width="0.5"/>
<path d="M56 26H53.439L56.64 30H50V32H56.638L53.439 36H56L60 30.999L56 26ZM16 32C15.7348 32 15.4804 31.8946 15.2929 31.7071C15.1054 31.5196 15 31.2652 15 31C15 22.729 21.729 16 30 16C38.271 16 45 22.729 45 30.999C45 31.2642 44.8946 31.5186 44.7071 31.7061C44.5196 31.8936 44.2652 31.999 44 31.999C43.7348 31.999 43.4804 31.8936 43.2929 31.7061C43.1054 31.5186 43 31.2642 43 30.999C43 23.831 37.167 18 30 18C22.832 18 17 23.831 17 31C17 31.2652 16.8946 31.5196 16.7071 31.7071C16.5196 31.8946 16.2652 32 16 32Z" fill="white"/>
<path d="M29.98 35.989C23.962 35.989 24.853 28.678 24.853 28.678C24.853 28.678 25.88 26.363 29.98 26.363C34.082 26.363 35.15 28.678 35.15 28.678C35.15 28.678 35.996 35.989 29.98 35.989ZM30 24C23.715 24 21.886 29.679 21.886 43.004V43.604C24.3026 45.1693 27.1207 46.0014 30 46C32.992 46 35.772 45.113 38.113 43.604V43.004C38.113 29.679 36.283 24 30 24Z" fill="white"/>
</svg>
