<svg width="58" height="58" viewBox="0 0 58 58" fill="none" xmlns="http://www.w3.org/2000/svg">
<g id="Group 48095867">
<path id="Vector" d="M14 30C14.2652 30 14.5196 29.8946 14.7071 29.7071C14.8946 29.5196 15 29.2652 15 29C15 28.7348 14.8946 28.4804 14.7071 28.2929C14.5196 28.1054 14.2652 28 14 28H2V25C2 24.7348 1.89464 24.4804 1.70711 24.2929C1.51957 24.1054 1.26522 24 1 24C0.734784 24 0.48043 24.1054 0.292893 24.2929C0.105357 24.4804 0 24.7348 0 25V33C0 33.2652 0.105357 33.5196 0.292893 33.7071C0.48043 33.8946 0.734784 34 1 34C1.26522 34 1.51957 33.8946 1.70711 33.7071C1.89464 33.5196 2 33.2652 2 33V30H14ZM51.5 20.58C51.6259 20.5323 51.7408 20.4597 51.8379 20.3665C51.935 20.2734 52.0123 20.1616 52.0652 20.0378C52.1181 19.9141 52.1455 19.7809 52.1457 19.6463C52.1459 19.5117 52.1189 19.3785 52.0663 19.2546C52.0138 19.1307 51.9368 19.0187 51.84 18.9252C51.7431 18.8318 51.6284 18.7588 51.5027 18.7108C51.377 18.6627 51.2428 18.6406 51.1084 18.6456C50.9739 18.6506 50.8418 18.6827 50.72 18.74L42.43 22.24C42.2181 22.3303 42.0438 22.4909 41.9367 22.6948C41.8296 22.8987 41.7961 23.1333 41.8419 23.3591C41.8878 23.5848 42.0101 23.7878 42.1883 23.9337C42.3666 24.0796 42.5897 24.1596 42.82 24.16C42.9543 24.1624 43.0875 24.1351 43.21 24.08L51.5 20.58ZM6.5 37.42C6.28809 37.5103 6.11385 37.6709 6.0067 37.8748C5.89955 38.0787 5.86608 38.3133 5.91193 38.5391C5.95778 38.7648 6.08014 38.9678 6.25835 39.1137C6.43655 39.2596 6.65967 39.3396 6.89 39.34C7.02381 39.3375 7.15601 39.3104 7.28 39.26L15.57 35.76C15.8039 35.65 15.9861 35.4536 16.0784 35.2121C16.1707 34.9707 16.1659 34.7028 16.065 34.4648C15.9641 34.2268 15.775 34.0371 15.5373 33.9355C15.2996 33.834 15.0317 33.8284 14.79 33.92L6.5 37.42ZM35.76 42.43C35.7123 42.3041 35.6397 42.1892 35.5465 42.0921C35.4534 41.995 35.3416 41.9177 35.2178 41.8648C35.0941 41.8119 34.9609 41.7845 34.8263 41.7843C34.6917 41.7841 34.5585 41.8111 34.4346 41.8637C34.3107 41.9162 34.1987 41.9932 34.1052 42.09C34.0118 42.1869 33.9388 42.3016 33.8908 42.4273C33.8427 42.553 33.8206 42.6872 33.8256 42.8216C33.8306 42.9561 33.8627 43.0882 33.92 43.21L37.42 51.5C37.4966 51.6807 37.6246 51.835 37.7882 51.9434C37.9518 52.0519 38.1437 52.1098 38.34 52.11C38.4738 52.1075 38.606 52.0804 38.73 52.03C38.9739 51.9264 39.1666 51.7303 39.266 51.4846C39.3654 51.239 39.3632 50.964 39.26 50.72L35.76 42.43ZM22.24 15.57C22.3166 15.7507 22.4446 15.905 22.6082 16.0134C22.7718 16.1219 22.9637 16.1798 23.16 16.18C23.2943 16.1824 23.4275 16.1551 23.55 16.1C23.7939 15.9964 23.9867 15.8003 24.086 15.5546C24.1854 15.309 24.1832 15.034 24.08 14.79L20.58 6.5C20.47 6.26608 20.2736 6.08386 20.0321 5.99156C19.7907 5.89927 19.5228 5.90407 19.2848 6.00497C19.0468 6.10586 18.8571 6.29501 18.7555 6.53273C18.654 6.77044 18.6484 7.03826 18.74 7.28L22.24 15.57ZM34.25 16C34.3721 16.0505 34.5029 16.0764 34.635 16.0761C34.7671 16.0757 34.8979 16.0492 35.0197 15.9981C35.1415 15.947 35.2519 15.8722 35.3447 15.7781C35.4374 15.684 35.5106 15.5725 35.56 15.45L39 7.14C39.1008 6.89335 39.0995 6.61676 38.9963 6.37109C38.8932 6.12542 38.6967 5.93078 38.45 5.83C38.2034 5.72922 37.9268 5.73054 37.6811 5.83369C37.4354 5.93683 37.2408 6.13335 37.14 6.38L33.7 14.72C33.6072 14.963 33.6127 15.2326 33.7154 15.4715C33.8181 15.7105 34.0099 15.9001 34.25 16ZM23.75 42C23.6279 41.9495 23.4971 41.9236 23.365 41.9239C23.2329 41.9243 23.1021 41.9508 22.9803 42.0019C22.8585 42.053 22.7481 42.1278 22.6553 42.2219C22.5626 42.316 22.4894 42.4275 22.44 42.55L19.05 50.89C18.9492 51.1367 18.9505 51.4132 19.0537 51.6589C19.1568 51.9046 19.3533 52.0992 19.6 52.2C19.8467 52.3008 20.1232 52.2995 20.3689 52.1963C20.6146 52.0932 20.8092 51.8967 20.91 51.65L24.3 43.31C24.3505 43.1879 24.3764 43.0571 24.3761 42.925C24.3757 42.7929 24.3492 42.6621 24.2981 42.5403C24.247 42.4185 24.1722 42.3081 24.0781 42.2153C23.984 42.1226 23.8725 42.0494 23.75 42ZM42 34.25C41.9495 34.3721 41.9236 34.5029 41.9239 34.635C41.9243 34.7671 41.9508 34.8979 42.0019 35.0197C42.053 35.1415 42.1278 35.2519 42.2219 35.3447C42.316 35.4374 42.4275 35.5106 42.55 35.56L50.86 39C50.9821 39.0499 51.1129 39.0753 51.2448 39.0746C51.3768 39.074 51.5073 39.0474 51.6289 38.9963C51.7506 38.9452 51.8609 38.8707 51.9538 38.777C52.0466 38.6832 52.1201 38.5721 52.17 38.45C52.2199 38.3279 52.2453 38.1971 52.2446 38.0652C52.244 37.9332 52.2174 37.8027 52.1663 37.6811C52.1152 37.5594 52.0407 37.4491 51.947 37.3562C51.8532 37.2634 51.7421 37.1899 51.62 37.14L43.28 33.7C43.037 33.6072 42.7674 33.6127 42.5285 33.7154C42.2895 33.8181 42.0999 34.0099 42 34.25ZM16 23.75C16.0505 23.6279 16.0764 23.4971 16.0761 23.365C16.0757 23.2329 16.0492 23.1021 15.9981 22.9803C15.947 22.8585 15.8722 22.7481 15.7781 22.6553C15.684 22.5626 15.5725 22.4894 15.45 22.44L7.11 19.05C6.98787 19.0001 6.85711 18.9747 6.72518 18.9754C6.59325 18.976 6.46274 19.0026 6.34109 19.0537C6.21945 19.1048 6.10905 19.1793 6.01621 19.273C5.92337 19.3668 5.8499 19.4779 5.8 19.6C5.7501 19.7221 5.72474 19.8529 5.72537 19.9848C5.72601 20.1168 5.75262 20.2473 5.80369 20.3689C5.85476 20.4906 5.92929 20.6009 6.02303 20.6938C6.11677 20.7866 6.22787 20.8601 6.35 20.91L14.69 24.3C14.8121 24.3505 14.9429 24.3764 15.075 24.3761C15.2071 24.3757 15.3379 24.3492 15.4597 24.2981C15.5815 24.247 15.6919 24.1722 15.7847 24.0781C15.8774 23.984 15.9506 23.8725 16 23.75ZM25 2H28V14C28 14.2652 28.1054 14.5196 28.2929 14.7071C28.4804 14.8946 28.7348 15 29 15C29.2652 15 29.5196 14.8946 29.7071 14.7071C29.8946 14.5196 30 14.2652 30 14V2H33C33.2652 2 33.5196 1.89464 33.7071 1.70711C33.8946 1.51957 34 1.26522 34 1C34 0.734784 33.8946 0.48043 33.7071 0.292893C33.5196 0.105357 33.2652 0 33 0H25C24.7348 0 24.4804 0.105357 24.2929 0.292893C24.1054 0.48043 24 0.734784 24 1C24 1.26522 24.1054 1.51957 24.2929 1.70711C24.4804 1.89464 24.7348 2 25 2ZM33 56H30V44C30 43.7348 29.8946 43.4804 29.7071 43.2929C29.5196 43.1054 29.2652 43 29 43C28.7348 43 28.4804 43.1054 28.2929 43.2929C28.1054 43.4804 28 43.7348 28 44V56H25C24.7348 56 24.4804 56.1054 24.2929 56.2929C24.1054 56.4804 24 56.7348 24 57C24 57.2652 24.1054 57.5196 24.2929 57.7071C24.4804 57.8946 24.7348 58 25 58H33C33.2652 58 33.5196 57.8946 33.7071 57.7071C33.8946 57.5196 34 57.2652 34 57C34 56.7348 33.8946 56.4804 33.7071 56.2929C33.5196 56.1054 33.2652 56 33 56ZM57 24C56.7348 24 56.4804 24.1054 56.2929 24.2929C56.1054 24.4804 56 24.7348 56 25V28H44C43.7348 28 43.4804 28.1054 43.2929 28.2929C43.1054 28.4804 43 28.7348 43 29C43 29.2652 43.1054 29.5196 43.2929 29.7071C43.4804 29.8946 43.7348 30 44 30H56V33C56 33.2652 56.1054 33.5196 56.2929 33.7071C56.4804 33.8946 56.7348 34 57 34C57.2652 34 57.5196 33.8946 57.7071 33.7071C57.8946 33.5196 58 33.2652 58 33V25C58 24.7348 57.8946 24.4804 57.7071 24.2929C57.5196 24.1054 57.2652 24 57 24ZM44 10H45.14C45.239 10.3507 45.3836 10.6869 45.57 11L38.89 17.67C38.7963 17.763 38.7219 17.8736 38.6711 17.9954C38.6203 18.1173 38.5942 18.248 38.5942 18.38C38.5942 18.512 38.6203 18.6427 38.6711 18.7646C38.7219 18.8864 38.7963 18.997 38.89 19.09C38.983 19.1837 39.0936 19.2581 39.2154 19.3089C39.3373 19.3597 39.468 19.3858 39.6 19.3858C39.732 19.3858 39.8627 19.3597 39.9846 19.3089C40.1064 19.2581 40.217 19.1837 40.31 19.09L47 12.43C47.3131 12.6164 47.6493 12.761 48 12.86V15C48 15.2652 48.1054 15.5196 48.2929 15.7071C48.4804 15.8946 48.7348 16 49 16C49.2652 16 49.5196 15.8946 49.7071 15.7071C49.8946 15.5196 50 15.2652 50 15V12.86C50.3507 12.761 50.6869 12.6164 51 12.43L51.81 13.24C51.9974 13.4263 52.2508 13.5308 52.515 13.5308C52.7792 13.5308 53.0326 13.4263 53.22 13.24C53.4063 13.0526 53.5108 12.7992 53.5108 12.535C53.5108 12.2708 53.4063 12.0174 53.22 11.83L52.43 11C52.6164 10.6869 52.761 10.3507 52.86 10H54C54.2652 10 54.5196 9.89464 54.7071 9.70711C54.8946 9.51957 55 9.26522 55 9C55 8.73478 54.8946 8.48043 54.7071 8.29289C54.5196 8.10536 54.2652 8 54 8H52.86C52.761 7.64931 52.6164 7.31311 52.43 7L53.24 6.19C53.4038 5.9987 53.4894 5.75262 53.4797 5.50095C53.47 5.24927 53.3657 5.01053 53.1876 4.83244C53.0095 4.65434 52.7707 4.55001 52.5191 4.54029C52.2674 4.53057 52.0213 4.61617 51.83 4.78L51 5.57C50.6869 5.38359 50.3507 5.23902 50 5.14V3C50 2.73478 49.8946 2.48043 49.7071 2.29289C49.5196 2.10536 49.2652 2 49 2C48.7348 2 48.4804 2.10536 48.2929 2.29289C48.1054 2.48043 48 2.73478 48 3V5.14C47.6493 5.23902 47.3131 5.38359 47 5.57L46.19 4.76C45.9987 4.59617 45.7526 4.51057 45.5009 4.52029C45.2493 4.53001 45.0105 4.63434 44.8324 4.81244C44.6543 4.99053 44.55 5.22927 44.5403 5.48095C44.5306 5.73262 44.6162 5.9787 44.78 6.17L45.59 6.98C45.4036 7.29311 45.259 7.62931 45.16 7.98H44C43.7348 7.98 43.4804 8.08536 43.2929 8.27289C43.1054 8.46043 43 8.71478 43 8.98C43 9.24522 43.1054 9.49957 43.2929 9.68711C43.4804 9.87464 43.7348 9.98 44 9.98V10ZM49 7C49.3285 7.00026 49.6519 7.08143 49.9415 7.23633C50.2312 7.39123 50.4783 7.6151 50.6609 7.88815C50.8435 8.1612 50.956 8.47503 50.9886 8.8019C51.0211 9.12877 50.9726 9.45862 50.8474 9.76231C50.7222 10.066 50.5241 10.3342 50.2707 10.5431C50.0172 10.7521 49.7162 10.8954 49.3942 10.9604C49.0722 11.0255 48.7392 11.0102 48.4245 10.9159C48.1098 10.8216 47.8232 10.6513 47.59 10.42C47.3086 10.1409 47.1164 9.78438 47.038 9.39582C46.9595 9.00726 46.9983 8.60416 47.1494 8.23768C47.3005 7.87121 47.5571 7.5579 47.8866 7.33753C48.2161 7.11717 48.6036 6.99968 49 7ZM54 48H52.86C52.761 47.6493 52.6164 47.3131 52.43 47L53.24 46.19C53.4038 45.9987 53.4894 45.7526 53.4797 45.5009C53.47 45.2493 53.3657 45.0105 53.1876 44.8324C53.0095 44.6543 52.7707 44.55 52.5191 44.5403C52.2674 44.5306 52.0213 44.6162 51.83 44.78L51.02 45.59C50.7069 45.4036 50.3707 45.259 50.02 45.16V43C50.02 42.7348 49.9146 42.4804 49.7271 42.2929C49.5396 42.1054 49.2852 42 49.02 42C48.7548 42 48.5004 42.1054 48.3129 42.2929C48.1254 42.4804 48.02 42.7348 48.02 43V45.14C47.6693 45.239 47.3331 45.3836 47.02 45.57L40.35 38.89C40.2568 38.7968 40.1461 38.7228 40.0243 38.6723C39.9024 38.6219 39.7719 38.5959 39.64 38.5959C39.5081 38.5959 39.3776 38.6219 39.2558 38.6723C39.1339 38.7228 39.0232 38.7968 38.93 38.89C38.8368 38.9832 38.7628 39.0939 38.7123 39.2158C38.6619 39.3376 38.6359 39.4681 38.6359 39.6C38.6359 39.7319 38.6619 39.8624 38.7123 39.9842C38.7628 40.1061 38.8368 40.2168 38.93 40.31L45.57 47C45.3836 47.3131 45.239 47.6493 45.14 48H44C43.7348 48 43.4804 48.1054 43.2929 48.2929C43.1054 48.4804 43 48.7348 43 49C43 49.2652 43.1054 49.5196 43.2929 49.7071C43.4804 49.8946 43.7348 50 44 50H45.14C45.239 50.3507 45.3836 50.6869 45.57 51L44.76 51.81C44.5737 51.9974 44.4692 52.2508 44.4692 52.515C44.4692 52.7792 44.5737 53.0326 44.76 53.22C44.9474 53.4063 45.2008 53.5108 45.465 53.5108C45.7292 53.5108 45.9826 53.4063 46.17 53.22L46.98 52.41C47.2931 52.5964 47.6293 52.741 47.98 52.84V55C47.98 55.2652 48.0854 55.5196 48.2729 55.7071C48.4604 55.8946 48.7148 56 48.98 56C49.2452 56 49.4996 55.8946 49.6871 55.7071C49.8746 55.5196 49.98 55.2652 49.98 55V52.86C50.3307 52.761 50.6669 52.6164 50.98 52.43L51.79 53.24C51.9774 53.4263 52.2308 53.5308 52.495 53.5308C52.7592 53.5308 53.0126 53.4263 53.2 53.24C53.3863 53.0526 53.4908 52.7992 53.4908 52.535C53.4908 52.2708 53.3863 52.0174 53.2 51.83L52.43 51C52.6164 50.6869 52.761 50.3507 52.86 50H54C54.2652 50 54.5196 49.8946 54.7071 49.7071C54.8946 49.5196 55 49.2652 55 49C55 48.7348 54.8946 48.4804 54.7071 48.2929C54.5196 48.1054 54.2652 48 54 48ZM49 51C48.6048 51.0003 48.2184 50.8835 47.8895 50.6644C47.5606 50.4453 47.304 50.1337 47.1521 49.7688C47.0002 49.404 46.9597 49.0024 47.0359 48.6146C47.1121 48.2268 47.3014 47.8703 47.58 47.59C47.812 47.3566 48.098 47.1841 48.4127 47.0877C48.7273 46.9913 49.0609 46.9741 49.3838 47.0375C49.7067 47.1009 50.009 47.243 50.2639 47.4512C50.5187 47.6595 50.7182 47.9274 50.8447 48.2312C50.9712 48.535 51.0208 48.8653 50.9891 49.1928C50.9574 49.5204 50.8453 49.835 50.6628 50.1089C50.4804 50.3828 50.2332 50.6074 49.9431 50.7628C49.653 50.9183 49.3291 50.9997 49 51ZM15 47H13.86C13.761 46.6493 13.6164 46.3131 13.43 46L19.11 40.33C19.2983 40.1417 19.4041 39.8863 19.4041 39.62C19.4041 39.3537 19.2983 39.0983 19.11 38.91C18.9217 38.7217 18.6663 38.6159 18.4 38.6159C18.1337 38.6159 17.8783 38.7217 17.69 38.91L12 44.57C11.6869 44.3836 11.3507 44.239 11 44.14V42C11 41.7348 10.8946 41.4804 10.7071 41.2929C10.5196 41.1054 10.2652 41 10 41C9.73478 41 9.48043 41.1054 9.29289 41.2929C9.10536 41.4804 9 41.7348 9 42V44.14C8.64931 44.239 8.31311 44.3836 8 44.57L7.19 43.76C6.9987 43.5962 6.75262 43.5106 6.50095 43.5203C6.24927 43.53 6.01053 43.6343 5.83244 43.8124C5.65434 43.9905 5.55001 44.2293 5.54029 44.4809C5.53057 44.7326 5.61617 44.9787 5.78 45.17L6.59 45.98C6.40359 46.2931 6.25902 46.6293 6.16 46.98H5C4.73478 46.98 4.48043 47.0854 4.29289 47.2729C4.10536 47.4604 4 47.7148 4 47.98C4 48.2452 4.10536 48.4996 4.29289 48.6871C4.48043 48.8746 4.73478 48.98 5 48.98H6.14C6.23902 49.3307 6.38359 49.6669 6.57 49.98L5.76 50.79C5.57375 50.9774 5.46921 51.2308 5.46921 51.495C5.46921 51.7592 5.57375 52.0126 5.76 52.2C5.94736 52.3863 6.20081 52.4908 6.465 52.4908C6.72919 52.4908 6.98264 52.3863 7.17 52.2L7.98 51.39C8.29311 51.5764 8.62931 51.721 8.98 51.82V54C8.98 54.2652 9.08536 54.5196 9.27289 54.7071C9.46043 54.8946 9.71478 55 9.98 55C10.2452 55 10.4996 54.8946 10.6871 54.7071C10.8746 54.5196 10.98 54.2652 10.98 54V51.86C11.3307 51.761 11.6669 51.6164 11.98 51.43L12.79 52.24C12.9774 52.4263 13.2308 52.5308 13.495 52.5308C13.7592 52.5308 14.0126 52.4263 14.2 52.24C14.3863 52.0526 14.4908 51.7992 14.4908 51.535C14.4908 51.2708 14.3863 51.0174 14.2 50.83L13.43 50C13.6164 49.6869 13.761 49.3507 13.86 49H15C15.2652 49 15.5196 48.8946 15.7071 48.7071C15.8946 48.5196 16 48.2652 16 48C16 47.7348 15.8946 47.4804 15.7071 47.2929C15.5196 47.1054 15.2652 47 15 47ZM10 50C9.67151 49.9997 9.34815 49.9186 9.05848 49.7637C8.7688 49.6088 8.52175 49.3849 8.33913 49.1119C8.15652 48.8388 8.04397 48.525 8.01143 48.1981C7.9789 47.8712 8.02737 47.5414 8.15258 47.2377C8.27778 46.934 8.47586 46.6658 8.72931 46.4569C8.98277 46.2479 9.28379 46.1046 9.60578 46.0396C9.92777 45.9745 10.2608 45.9898 10.5755 46.0841C10.8902 46.1784 11.1768 46.3487 11.41 46.58C11.6914 46.8591 11.8836 47.2156 11.962 47.6042C12.0405 47.9927 12.0017 48.3958 11.8506 48.7623C11.6995 49.1288 11.4429 49.4421 11.1134 49.6625C10.7839 49.8828 10.3964 50.0003 10 50ZM4 10H5.14C5.23902 10.3507 5.38359 10.6869 5.57 11L4.76 11.81C4.57375 11.9974 4.46921 12.2508 4.46921 12.515C4.46921 12.7792 4.57375 13.0326 4.76 13.22C4.94736 13.4062 5.20081 13.5108 5.465 13.5108C5.72919 13.5108 5.98264 13.4062 6.17 13.22L6.98 12.41C7.29311 12.5964 7.62931 12.741 7.98 12.84V15C7.98 15.2652 8.08536 15.5196 8.27289 15.7071C8.46043 15.8946 8.71478 16 8.98 16C9.24522 16 9.49957 15.8946 9.68711 15.7071C9.87464 15.5196 9.98 15.2652 9.98 15V12.86C10.3307 12.761 10.6669 12.6164 10.98 12.43L17.65 19.11C17.743 19.2037 17.8536 19.2781 17.9754 19.3289C18.0973 19.3797 18.228 19.4058 18.36 19.4058C18.492 19.4058 18.6227 19.3797 18.7446 19.3289C18.8664 19.2781 18.977 19.2037 19.07 19.11C19.1637 19.017 19.2381 18.9064 19.2889 18.7846C19.3397 18.6627 19.3658 18.532 19.3658 18.4C19.3658 18.268 19.3397 18.1373 19.2889 18.0154C19.2381 17.8936 19.1637 17.783 19.07 17.69L12.43 11C12.6164 10.6869 12.761 10.3507 12.86 10H14C14.2652 10 14.5196 9.89464 14.7071 9.70711C14.8946 9.51957 15 9.26522 15 9C15 8.73478 14.8946 8.48043 14.7071 8.29289C14.5196 8.10536 14.2652 8 14 8H12.86C12.761 7.64931 12.6164 7.31311 12.43 7L13.24 6.19C13.3447 6.10035 13.4297 5.99003 13.4897 5.86597C13.5497 5.7419 13.5835 5.60677 13.5888 5.46905C13.5941 5.33133 13.5709 5.194 13.5206 5.06568C13.4704 4.93735 13.3941 4.8208 13.2966 4.72335C13.1992 4.6259 13.0826 4.54964 12.9543 4.49936C12.826 4.44909 12.6887 4.42588 12.5509 4.4312C12.4132 4.43652 12.2781 4.47025 12.154 4.53027C12.03 4.5903 11.9196 4.67532 11.83 4.78L11 5.57C10.6869 5.38359 10.3507 5.23902 10 5.14V3C10 2.73478 9.89464 2.48043 9.70711 2.29289C9.51957 2.10536 9.26522 2 9 2C8.73478 2 8.48043 2.10536 8.29289 2.29289C8.10536 2.48043 8 2.73478 8 3V5.14C7.64931 5.23902 7.31311 5.38359 7 5.57L6.19 4.76C6.00302 4.57037 5.74837 4.46278 5.48207 4.46091C5.21577 4.45903 4.95963 4.56302 4.77 4.75C4.58037 4.93698 4.47278 5.19163 4.47091 5.45793C4.46903 5.72423 4.57302 5.98037 4.76 6.17L5.57 6.98C5.38359 7.29311 5.23902 7.62931 5.14 7.98H4C3.73478 7.98 3.48043 8.08536 3.29289 8.27289C3.10536 8.46043 3 8.71478 3 8.98C3 9.24522 3.10536 9.49957 3.29289 9.68711C3.48043 9.87464 3.73478 9.98 4 9.98V10ZM9 7C9.39519 6.99969 9.78162 7.11646 10.1105 7.33557C10.4394 7.55469 10.696 7.86633 10.8479 8.23115C10.9998 8.59598 11.0403 8.99763 10.9641 9.38541C10.8879 9.7732 10.6986 10.1297 10.42 10.41C10.188 10.6434 9.90198 10.8159 9.58732 10.9123C9.27267 11.0087 8.93909 11.0259 8.61617 10.9625C8.29325 10.8991 7.99097 10.757 7.73614 10.5488C7.4813 10.3405 7.28178 10.0726 7.15527 9.76885C7.02876 9.46505 6.97918 9.13473 7.0109 8.80717C7.04263 8.47962 7.1547 8.16496 7.33716 7.89109C7.51963 7.61722 7.76685 7.3926 8.05691 7.23716C8.34698 7.08172 8.67091 7.00026 9 7Z" fill="black"/>
<path id="Vector_2" d="M29 44C37.2843 44 44 37.2843 44 29C44 20.7157 37.2843 14 29 14C20.7157 14 14 20.7157 14 29C14 37.2843 20.7157 44 29 44Z" fill="#51AD42"/>
<path id="Vector_3" d="M23 38C23.7911 38 24.5645 37.7654 25.2223 37.3259C25.8801 36.8864 26.3928 36.2616 26.6955 35.5307C26.9983 34.7998 27.0775 33.9956 26.9231 33.2196C26.7688 32.4437 26.3878 31.731 25.8284 31.1716C25.269 30.6122 24.5563 30.2312 23.7804 30.0769C23.0044 29.9225 22.2002 30.0017 21.4693 30.3045C20.7384 30.6072 20.1136 31.1199 19.6741 31.7777C19.2346 32.4355 19 33.2089 19 34C19 35.0609 19.4214 36.0783 20.1716 36.8284C20.9217 37.5786 21.9391 38 23 38ZM23 32C23.3956 32 23.7822 32.1173 24.1111 32.3371C24.44 32.5568 24.6964 32.8692 24.8478 33.2346C24.9991 33.6001 25.0387 34.0022 24.9616 34.3902C24.8844 34.7781 24.6939 35.1345 24.4142 35.4142C24.1345 35.6939 23.7781 35.8844 23.3902 35.9616C23.0022 36.0387 22.6001 35.9991 22.2346 35.8478C21.8692 35.6964 21.5568 35.44 21.3371 35.1111C21.1173 34.7822 21 34.3956 21 34C21 33.4696 21.2107 32.9609 21.5858 32.5858C21.9609 32.2107 22.4696 32 23 32ZM39 24C39 23.0111 38.7068 22.0444 38.1573 21.2222C37.6079 20.3999 36.827 19.759 35.9134 19.3806C34.9998 19.0022 33.9945 18.9031 33.0245 19.0961C32.0546 19.289 31.1637 19.7652 30.4645 20.4645C29.7652 21.1637 29.289 22.0546 29.0961 23.0246C28.9031 23.9945 29.0022 24.9998 29.3806 25.9134C29.759 26.8271 30.3999 27.6079 31.2221 28.1574C32.0444 28.7068 33.0111 29 34 29C35.3261 29 36.5979 28.4732 37.5355 27.5355C38.4732 26.5979 39 25.3261 39 24ZM34 27C33.4067 27 32.8266 26.8241 32.3333 26.4944C31.8399 26.1648 31.4554 25.6962 31.2284 25.1481C31.0013 24.5999 30.9419 23.9967 31.0576 23.4147C31.1734 22.8328 31.4591 22.2982 31.8787 21.8787C32.2982 21.4591 32.8328 21.1734 33.4147 21.0576C33.9967 20.9419 34.5999 21.0013 35.148 21.2284C35.6962 21.4554 36.1648 21.8399 36.4944 22.3333C36.8241 22.8266 37 23.4067 37 24C37 24.7957 36.6839 25.5587 36.1213 26.1213C35.5587 26.6839 34.7956 27 34 27ZM31 36C31 36.5933 31.1759 37.1734 31.5056 37.6667C31.8352 38.1601 32.3038 38.5446 32.852 38.7716C33.4001 38.9987 34.0033 39.0581 34.5853 38.9424C35.1672 38.8266 35.7018 38.5409 36.1213 38.1213C36.5409 37.7018 36.8266 37.1672 36.9424 36.5853C37.0581 36.0033 36.9987 35.4001 36.7716 34.852C36.5446 34.3038 36.1601 33.8352 35.6667 33.5056C35.1734 33.176 34.5933 33 34 33C33.2044 33 32.4413 33.3161 31.8787 33.8787C31.3161 34.4413 31 35.2044 31 36ZM35 36C35 36.1978 34.9414 36.3911 34.8315 36.5556C34.7216 36.72 34.5654 36.8482 34.3827 36.9239C34.2 36.9996 33.9989 37.0194 33.8049 36.9808C33.6109 36.9422 33.4327 36.847 33.2929 36.7071C33.153 36.5673 33.0578 36.3891 33.0192 36.1951C32.9806 36.0011 33.0004 35.8 33.0761 35.6173C33.1518 35.4346 33.28 35.2784 33.4444 35.1685C33.6089 35.0586 33.8022 35 34 35C34.2652 35 34.5196 35.1054 34.7071 35.2929C34.8946 35.4804 35 35.7348 35 36ZM23 26C23.5933 26 24.1734 25.8241 24.6667 25.4944C25.1601 25.1648 25.5446 24.6962 25.7716 24.1481C25.9987 23.5999 26.0581 22.9967 25.9424 22.4147C25.8266 21.8328 25.5409 21.2982 25.1213 20.8787C24.7018 20.4591 24.1672 20.1734 23.5853 20.0576C23.0033 19.9419 22.4001 20.0013 21.8519 20.2284C21.3038 20.4554 20.8352 20.8399 20.5056 21.3333C20.1759 21.8266 20 22.4067 20 23C20 23.7957 20.3161 24.5587 20.8787 25.1213C21.4413 25.6839 22.2044 26 23 26ZM23 22C23.1978 22 23.3911 22.0587 23.5556 22.1685C23.72 22.2784 23.8482 22.4346 23.9239 22.6173C23.9996 22.8 24.0194 23.0011 23.9808 23.1951C23.9422 23.3891 23.847 23.5673 23.7071 23.7071C23.5673 23.847 23.3891 23.9422 23.1951 23.9808C23.0011 24.0194 22.8 23.9996 22.6173 23.9239C22.4346 23.8482 22.2784 23.72 22.1685 23.5556C22.0586 23.3911 22 23.1978 22 23C22 22.7348 22.1054 22.4804 22.2929 22.2929C22.4804 22.1054 22.7348 22 23 22Z" fill="black"/>
</g>
</svg>
