<svg width="47" height="48" viewBox="0 0 47 48" fill="none" xmlns="http://www.w3.org/2000/svg">
<g id="Group 48095911">
<path id="Vector" d="M16.9012 0.157227H44.7019C45.9622 0.157227 47.0001 1.19512 47.0001 2.45542V20.7668C47.0001 22.0271 45.9622 23.065 44.7019 23.065H16.9012C15.6409 23.065 14.603 22.0271 14.603 20.7668V2.45542C14.603 1.19512 15.6409 0.157227 16.9012 0.157227Z" fill="#D95239"/>
<path id="Vector_2" d="M16.9011 0.157227H30.7644V23.065H28.8369L22.5354 29.3665V23.065H16.827C15.5667 23.065 14.5288 22.0271 14.5288 20.7668V2.45542C14.6029 1.19512 15.6408 0.157227 16.9011 0.157227Z" fill="#E8664A"/>
<path id="Vector_3" d="M37.2145 9.12707H32.9888V4.90137H28.6149V9.12707H24.3892V13.5752H28.6149V17.8009H32.9888V13.5752H37.2145V9.12707Z" fill="white"/>
<path id="Vector_4" d="M37.7331 37.0023C42.4416 37.0023 46.2586 33.1852 46.2586 28.4767C46.2586 23.7682 42.4416 19.9512 37.7331 19.9512C33.0245 19.9512 29.2075 23.7682 29.2075 28.4767C29.2075 33.1852 33.0245 37.0023 37.7331 37.0023Z" fill="#FAD22C"/>
<path id="Vector_5" d="M37.7335 34.0373C40.8043 34.0373 43.2936 31.5479 43.2936 28.4771C43.2936 25.4064 40.8043 22.917 37.7335 22.917C34.6627 22.917 32.1733 25.4064 32.1733 28.4771C32.1733 31.5479 34.6627 34.0373 37.7335 34.0373Z" fill="#E0B624"/>
<path id="Vector_6" d="M37.7334 19.9512V36.9281C42.4039 36.9281 46.1848 33.0731 46.1848 28.4026C46.1848 23.7321 42.4039 20.0253 37.7334 19.9512Z" fill="#E0B624"/>
<path id="Vector_7" d="M37.8071 22.917V33.9631C40.8467 33.9631 43.2931 31.4425 43.2931 28.4771C43.219 25.4376 40.7725 22.9911 37.8071 22.917Z" fill="#FAD22C"/>
<path id="Vector_8" d="M35.4347 27.8094C35.4347 27.2904 34.6933 27.068 34.2485 27.7352L33.8037 27.5128C33.952 27.2904 34.1003 27.1422 34.2485 26.9939C34.8416 26.6232 35.9536 26.8456 35.9536 27.8094C35.9536 28.4766 35.1381 28.9955 34.6192 29.6628H36.1019V30.1817H33.8778V29.7369C35.1381 28.4025 35.4347 28.1801 35.4347 27.8094ZM37.8811 28.8473V28.2542H38.4001V28.8473H38.7708V29.3662H38.4001V30.1817H37.8811V29.3662H36.4726V28.9214L37.6587 26.9939H38.2518L37.0657 28.9214H37.8811V28.8473ZM39.8828 28.8473V30.1817H39.3638V26.7715H39.8828V28.1801C40.2535 27.4387 41.662 27.5128 41.662 28.699V30.1817H41.1431V28.8473C41.1431 28.0318 40.4017 28.0318 40.1052 28.3283C39.9569 28.4766 39.8828 28.6249 39.8828 28.8473Z" fill="white"/>
<g id="Group">
<path id="Vector_9" d="M2.88951 7.64506L4.81702 6.97784L7.26348 6.16235C8.22723 5.86581 9.26513 6.38476 9.6358 7.34852L11.8599 14.0948C12.0823 14.6879 11.934 15.4292 11.4892 15.8741L8.74618 19.136C10.4513 26.4754 13.6391 31.3683 19.7923 35.8905H19.8664L23.8697 34.7044C24.4628 34.482 25.2042 34.6302 25.649 35.0751L30.9867 39.8197C31.7281 40.4869 31.8022 41.6731 31.135 42.4886L29.504 44.3419L28.0954 45.8988C26.5386 47.678 23.8697 47.8263 22.0905 46.2695L21.9422 46.1212C8.82031 36.3353 4.00153 28.8477 0.294776 13.2052L0.220641 13.0569C-0.52071 10.8329 0.665452 8.38641 2.88951 7.64506Z" fill="#45BBDD"/>
<path id="Vector_10" d="M4.81689 7.05206L7.26335 6.23657C8.22711 5.94003 9.265 6.45898 9.63568 7.42274L11.8597 14.169C12.0821 14.7621 11.9339 15.5035 11.4891 15.9483L8.74606 19.2102L4.81689 7.05206ZM19.8663 35.9648L23.8696 34.7786C24.4627 34.5562 25.2041 34.7045 25.6489 35.1493L30.9866 39.8939C31.7279 40.5611 31.8021 41.7473 31.1349 42.5628L29.5039 44.4162L19.8663 35.9648Z" fill="#15A9CB"/>
</g>
</g>
</svg>
