<svg width="26" height="25" viewBox="0 0 26 25" fill="none" xmlns="http://www.w3.org/2000/svg">
<path id="Vector" d="M5.95833 10.9348H0.541667C0.398008 10.9348 0.260233 10.9898 0.158651 11.0876C0.0570683 11.1854 0 11.3181 0 11.4565L0 23.9783C0 24.1166 0.0570683 24.2493 0.158651 24.3472C0.260233 24.445 0.398008 24.5 0.541667 24.5H5.95833C6.10199 24.5 6.23977 24.445 6.34135 24.3472C6.44293 24.2493 6.5 24.1166 6.5 23.9783V11.4565C6.5 11.3181 6.44293 11.1854 6.34135 11.0876C6.23977 10.9898 6.10199 10.9348 5.95833 10.9348ZM26 11.4565C26 10.0186 24.7845 8.84783 23.2917 8.84783H16.4721C16.8025 7.87843 17.3333 6.10139 17.3333 4.67391C17.3333 2.41061 15.3368 0.5 14.0833 0.5C12.9578 0.5 12.1539 1.10939 12.1193 1.13548C12.0561 1.18469 12.0051 1.24685 11.9701 1.31743C11.9351 1.38801 11.9168 1.46524 11.9167 1.54348V5.08087L8.79667 11.5932L7.88342 12.0325C7.79343 12.0761 7.71774 12.1429 7.66477 12.2254C7.6118 12.3079 7.58361 12.403 7.58333 12.5V21.8913C7.58333 22.0301 7.64075 22.1626 7.7415 22.2607C8.55292 23.0412 10.3729 23.4565 11.375 23.4565H21.3958C21.8104 23.4559 22.218 23.3534 22.58 23.1589C22.9421 22.9644 23.2468 22.6843 23.4652 22.3449C23.6837 22.0055 23.8087 21.6181 23.8286 21.2192C23.8485 20.8203 23.7625 20.4232 23.5788 20.0652C24.1526 19.7876 24.5888 19.3023 24.7918 18.7156C24.9949 18.1288 24.9482 17.4885 24.6621 16.9348C25.0639 16.7405 25.4018 16.4424 25.6381 16.0739C25.8743 15.7054 25.9996 15.2809 26 14.8478C26 14.2217 25.7411 13.6363 25.2958 13.2043C25.7454 12.7327 26 12.115 26 11.4565Z" fill="#1FAB89"/>
</svg>
