<svg width="26" height="25" viewBox="0 0 26 25" fill="none" xmlns="http://www.w3.org/2000/svg">
<path id="Vector" d="M15.7734 9.34783L15.9988 8.68651C16.3286 7.71888 16.8333 6.01101 16.8333 4.67391C16.8333 3.68787 16.3959 2.75613 15.7997 2.06473C15.5032 1.72086 15.1771 1.44823 14.8658 1.2645C14.5488 1.07739 14.2774 1 14.0833 1C13.1653 1 12.4899 1.48322 12.4249 1.53129C12.421 1.53464 12.419 1.53775 12.4179 1.5398C12.4169 1.54196 12.4167 1.54341 12.4167 1.54423C12.4167 1.54427 12.4167 1.5443 12.4167 1.54433L12.4167 5.08087V5.19446L12.3676 5.2969L9.24759 11.8092L9.1717 11.9677L9.01341 12.0438L8.1014 12.4825C8.1013 12.4825 8.10121 12.4826 8.10111 12.4826C8.09245 12.4869 8.08772 12.4921 8.08554 12.4955L7.66477 12.2254L8.08554 12.4955C8.0836 12.4985 8.08336 12.5005 8.08333 12.5013V21.8913C8.08333 21.8914 8.08332 21.8922 8.08405 21.8939C8.08478 21.8956 8.0864 21.8985 8.08976 21.9019C8.40942 22.2085 8.97463 22.4786 9.62841 22.6718C10.2727 22.8621 10.9301 22.9565 11.375 22.9565H21.395C21.728 22.956 22.0545 22.8737 22.3434 22.7185C22.6322 22.5633 22.8731 22.341 23.0448 22.0742C23.2164 21.8076 23.3138 21.5048 23.3292 21.1943C23.3447 20.8839 23.2779 20.574 23.1339 20.2935L22.9001 19.838L23.361 19.6151C23.8188 19.3937 24.161 19.0095 24.3193 18.5521C24.4774 18.0952 24.4415 17.5969 24.2179 17.1643L23.9821 16.7082L24.4444 16.4846C24.7649 16.3297 25.0317 16.0933 25.2171 15.8041C25.4024 15.5151 25.4997 15.1839 25.5 14.8474L15.7734 9.34783ZM15.7734 9.34783H16.4721M15.7734 9.34783H16.4721M16.4721 9.34783H23.2917C24.5262 9.34783 25.5 10.3123 25.5 11.4565C25.5 11.9834 25.297 12.4784 24.9339 12.8594L24.592 13.2181M16.4721 9.34783L24.592 13.2181M24.592 13.2181L24.9477 13.5632M24.592 13.2181L24.9477 13.5632M24.9477 13.5632C25.2997 13.9048 25.4999 14.3622 25.5 14.8474L24.9477 13.5632ZM0.541667 11.4348H5.95833C5.97531 11.4348 5.98798 11.4415 5.99448 11.4477C5.99753 11.4507 5.99887 11.4531 5.99944 11.4544C5.99999 11.4557 6 11.4563 6 11.4565V23.9783C6 23.9785 5.99999 23.9791 5.99944 23.9804C5.99934 23.9806 5.99922 23.9809 5.99907 23.9812C5.99836 23.9826 5.99701 23.9846 5.99448 23.9871C5.98799 23.9933 5.97531 24 5.95833 24H0.541667C0.524693 24 0.512015 23.9933 0.505518 23.9871C0.502466 23.9841 0.501127 23.9817 0.500561 23.9804C0.500323 23.9798 0.500185 23.9794 0.500106 23.9791C0.500003 23.9786 0.5 23.9784 0.5 23.9783V11.4565C0.5 11.4563 0.500008 11.4557 0.500561 11.4544C0.501126 11.4531 0.502466 11.4507 0.505518 11.4477C0.512016 11.4415 0.524695 11.4348 0.541667 11.4348Z" stroke="#1FAB89"/>
</svg>
