<svg width="32" height="49" viewBox="0 0 32 49" fill="none" xmlns="http://www.w3.org/2000/svg">
<g id="Group 48095871">
<path id="Vector" d="M15.75 16.5C19.8921 16.5 23.25 13.1421 23.25 9C23.25 4.85786 19.8921 1.5 15.75 1.5C11.6079 1.5 8.25 4.85786 8.25 9C8.25 13.1421 11.6079 16.5 15.75 16.5Z" fill="#A0D468"/>
<path id="Vector_2" d="M20.2497 19.5C23.0343 19.5005 25.7047 20.6069 27.6737 22.5759C29.6428 24.545 30.7492 27.2154 30.7497 30V34.5C30.7497 35.0967 30.5126 35.669 30.0907 36.091C29.6687 36.5129 29.0964 36.75 28.4997 36.75C27.9029 36.75 27.3307 36.5129 26.9087 36.091C26.4867 35.669 26.2497 35.0967 26.2497 34.5V30C26.2494 27.6046 25.4305 25.2812 23.9286 23.4152C22.4267 21.5491 20.3322 20.2523 17.9922 19.74C18.734 19.58 19.4908 19.4995 20.2497 19.5Z" fill="#965353"/>
<path id="Vector_3" d="M15.75 48H5.25001C5.24699 45.7312 5.98137 43.5227 7.34251 41.7075C8.24987 42.3981 9.35978 42.7698 10.5 42.765C10.5034 44.155 11.0581 45.4868 12.0423 46.4683C13.0266 47.4497 14.36 48.0006 15.75 48ZM26.25 48H15.75C17.14 48.0006 18.4734 47.4497 19.4577 46.4683C20.4419 45.4868 20.9966 44.155 21 42.765C22.1402 42.7698 23.2501 42.3981 24.1575 41.7075C25.5186 43.5227 26.253 45.7312 26.25 48Z" fill="#F7C292"/>
<path id="Vector_4" d="M13.5 35.25H18C18 35.8467 17.7629 36.419 17.341 36.841C16.919 37.2629 16.3467 37.5 15.75 37.5C15.1533 37.5 14.581 37.2629 14.159 36.841C13.7371 36.419 13.5 35.8467 13.5 35.25Z" fill="#ED5565"/>
<path id="Vector_5" d="M10.5 42.7651C11.8923 42.7649 13.2275 42.2117 14.212 41.2272C15.1965 40.2427 15.7497 38.9074 15.75 37.5151C15.7503 38.9074 16.3035 40.2427 17.288 41.2272C18.2725 42.2117 19.6077 42.7649 21 42.7651C21 44.1575 20.4469 45.4929 19.4623 46.4774C18.4777 47.462 17.1424 48.0151 15.75 48.0151C14.3576 48.0151 13.0223 47.462 12.0377 46.4774C11.0531 45.4929 10.5 44.1575 10.5 42.7651Z" fill="#ED5565"/>
<path id="Vector_6" d="M15.75 37.5C16.0456 37.5004 16.3383 37.4425 16.6115 37.3295C16.8847 37.2166 17.1329 37.0509 17.3419 36.8419C17.5509 36.6329 17.7166 36.3847 17.8295 36.1115C17.9425 35.8383 18.0004 35.5456 18 35.25H13.5C13.4996 35.5456 13.5575 35.8383 13.6705 36.1115C13.7834 36.3847 13.9491 36.6329 14.1581 36.8419C14.3671 37.0509 14.6153 37.2166 14.8885 37.3295C15.1617 37.4425 15.4544 37.5004 15.75 37.5ZM21 42.765C19.6077 42.7647 18.2725 42.2115 17.288 41.227C16.3035 40.2425 15.7503 38.9073 15.75 37.515C15.7497 38.9073 15.1965 40.2425 14.212 41.227C13.2275 42.2115 11.8923 42.7647 10.5 42.765C9.35978 42.7698 8.24986 42.398 7.3425 41.7075C6.69199 41.2193 6.16419 40.5862 5.80098 39.8584C5.43776 39.1307 5.24911 38.3283 5.25 37.515V30C5.25 27.2152 6.35625 24.5445 8.32538 22.5754C10.2945 20.6062 12.9652 19.5 15.75 19.5C18.5348 19.5 21.2055 20.6062 23.1746 22.5754C25.1438 24.5445 26.25 27.2152 26.25 30V37.515C26.2509 38.3283 26.0622 39.1307 25.699 39.8584C25.3358 40.5862 24.808 41.2193 24.1575 41.7075C23.2501 42.398 22.1402 42.7698 21 42.765Z" fill="#FFD2A6"/>
<path id="Vector_7" d="M11.25 19.5C12.0089 19.4995 12.7657 19.58 13.5075 19.74C11.1675 20.2523 9.07297 21.5491 7.57109 23.4152C6.06922 25.2812 5.25025 27.6046 5.25 30V34.5C5.25 35.0967 5.01295 35.669 4.59099 36.091C4.16903 36.5129 3.59674 36.75 3 36.75C2.40326 36.75 1.83097 36.5129 1.40901 36.091C0.987053 35.669 0.75 35.0967 0.75 34.5V30C0.750505 27.2154 1.85691 24.545 3.82594 22.5759C5.79496 20.6069 8.46538 19.5005 11.25 19.5Z" fill="#965353"/>
<path id="Vector_8" d="M15.75 17.25C14.1183 17.25 12.5233 16.7661 11.1665 15.8596C9.80984 14.9531 8.75242 13.6646 8.128 12.1571C7.50357 10.6496 7.3402 8.99085 7.65853 7.39051C7.97685 5.79016 8.76259 4.32016 9.91637 3.16637C11.0702 2.01259 12.5402 1.22685 14.1405 0.908525C15.7408 0.590197 17.3996 0.753575 18.9071 1.378C20.4146 2.00242 21.7031 3.05984 22.6096 4.41655C23.5161 5.77325 24 7.36831 24 9C23.9975 11.1873 23.1275 13.2843 21.5809 14.8309C20.0343 16.3775 17.9373 17.2475 15.75 17.25ZM15.75 2.25C14.415 2.25 13.1099 2.64588 11.9999 3.38758C10.8899 4.12928 10.0247 5.18349 9.51382 6.41689C9.00292 7.65029 8.86925 9.00749 9.1297 10.3169C9.39015 11.6262 10.033 12.829 10.977 13.773C11.921 14.717 13.1238 15.3599 14.4331 15.6203C15.7425 15.8808 17.0997 15.7471 18.3331 15.2362C19.5665 14.7253 20.6207 13.8601 21.3624 12.7501C22.1041 11.6401 22.5 10.335 22.5 9C22.498 7.21039 21.7863 5.49464 20.5208 4.22919C19.2554 2.96374 17.5396 2.25196 15.75 2.25Z" fill="black"/>
<path id="Vector_9" d="M14.1562 12.6562C14.0577 12.6564 13.9602 12.637 13.8692 12.5993C13.7782 12.5616 13.6955 12.5063 13.626 12.4365L11.4697 10.2802C11.3312 10.1392 11.254 9.94912 11.2549 9.7514C11.2558 9.55369 11.3347 9.36433 11.4745 9.22453C11.6143 9.08472 11.8037 9.00579 12.0014 9.00489C12.1991 9.004 12.3892 9.08121 12.5302 9.21975L14.6865 11.376C14.7914 11.4809 14.8628 11.6145 14.8917 11.76C14.9206 11.9054 14.9058 12.0562 14.849 12.1932C14.7923 12.3303 14.6961 12.4474 14.5728 12.5298C14.4495 12.6122 14.3046 12.6562 14.1562 12.6562Z" fill="black"/>
<path id="Vector_10" d="M14.25 12.7498C14.1017 12.7498 13.9567 12.7058 13.8334 12.6234C13.7101 12.541 13.614 12.4239 13.5572 12.2868C13.5005 12.1498 13.4856 11.999 13.5146 11.8536C13.5435 11.7081 13.6149 11.5745 13.7197 11.4696L18.9697 6.21959C19.0392 6.14892 19.1219 6.09269 19.2131 6.05417C19.3044 6.01564 19.4024 5.99557 19.5014 5.99512C19.6005 5.99468 19.6986 6.01385 19.7902 6.05155C19.8818 6.08925 19.965 6.14472 20.0351 6.21476C20.1051 6.2848 20.1606 6.36803 20.1983 6.45962C20.236 6.55122 20.2552 6.64938 20.2547 6.74843C20.2543 6.84748 20.2342 6.94546 20.1957 7.03671C20.1571 7.12797 20.1009 7.21068 20.0302 7.28009L14.7802 12.5301C14.7107 12.5998 14.6281 12.6552 14.5371 12.6929C14.4461 12.7306 14.3485 12.7499 14.25 12.7498ZM26.25 30.7498C26.1515 30.7499 26.0539 30.7305 25.9629 30.6929C25.8719 30.6552 25.7892 30.5999 25.7195 30.5303C25.6499 30.4606 25.5946 30.3779 25.557 30.2869C25.5193 30.1959 25.4999 30.0983 25.5 29.9998C25.5 27.414 24.4728 24.934 22.6443 23.1055C20.8158 21.2771 18.3359 20.2498 15.75 20.2498C13.1641 20.2498 10.6842 21.2771 8.85571 23.1055C7.02723 24.934 6 27.414 6 29.9998C6 30.1987 5.92098 30.3895 5.78033 30.5302C5.63968 30.6708 5.44891 30.7498 5.25 30.7498C5.05109 30.7498 4.86032 30.6708 4.71967 30.5302C4.57902 30.3895 4.5 30.1987 4.5 29.9998C4.5 27.0161 5.68526 24.1547 7.79505 22.0449C9.90483 19.9351 12.7663 18.7498 15.75 18.7498C18.7337 18.7498 21.5952 19.9351 23.7049 22.0449C25.8147 24.1547 27 27.0161 27 29.9998C27.0001 30.0983 26.9807 30.1959 26.943 30.2869C26.9053 30.3779 26.8501 30.4606 26.7805 30.5303C26.7108 30.5999 26.6281 30.6552 26.5371 30.6929C26.4461 30.7305 26.3485 30.7499 26.25 30.7498Z" fill="black"/>
<path id="Vector_11" d="M30.75 30.75C30.6515 30.7501 30.554 30.7307 30.463 30.693C30.3719 30.6554 30.2892 30.6001 30.2196 30.5305C30.1499 30.4608 30.0947 30.3781 30.057 30.2871C30.0193 30.1961 30 30.0985 30 30C29.9971 27.4151 28.9689 24.9368 27.141 23.109C25.3132 21.2812 22.835 20.253 20.25 20.25C19.5448 20.25 18.8415 20.3257 18.1524 20.4756C17.9581 20.5181 17.7549 20.4818 17.5875 20.3745C17.4201 20.2672 17.3021 20.0978 17.2596 19.9036C17.217 19.7093 17.2534 19.5061 17.3607 19.3387C17.4679 19.1713 17.6373 19.0533 17.8316 19.0107C19.475 18.6508 21.1782 18.6637 22.816 19.0485C24.4538 19.4333 25.9845 20.1802 27.2957 21.2344C28.6068 22.2885 29.6651 23.6231 30.3927 25.14C31.1202 26.6569 31.4986 28.3176 31.5 30C31.5001 30.0985 31.4807 30.1961 31.4431 30.2871C31.4054 30.3781 31.3502 30.4608 31.2805 30.5305C31.2108 30.6001 31.1281 30.6554 31.0371 30.693C30.9461 30.7307 30.8485 30.7501 30.75 30.75ZM26.25 48.7492C26.1515 48.7493 26.054 48.7299 25.963 48.6923C25.8719 48.6546 25.7892 48.5994 25.7196 48.5297C25.6499 48.4601 25.5947 48.3773 25.557 48.2863C25.5193 48.1953 25.5 48.0978 25.5 47.9992C25.5065 45.8926 24.8244 43.8415 23.5577 42.1582C23.4986 42.0794 23.4556 41.9898 23.4312 41.8944C23.4068 41.799 23.4014 41.6998 23.4154 41.6023C23.4435 41.4055 23.5487 41.2279 23.7078 41.1086C23.8669 40.9894 24.0669 40.9382 24.2637 40.9663C24.4605 40.9945 24.6381 41.0997 24.7574 41.2588C26.2196 43.2011 27.0071 45.568 27 47.9992C27.0001 48.0978 26.9807 48.1953 26.9431 48.2863C26.9054 48.3773 26.8502 48.4601 26.7805 48.5297C26.7108 48.5994 26.6281 48.6546 26.5371 48.6923C26.4461 48.7299 26.3485 48.7493 26.25 48.7492ZM5.25004 48.7492C5.15154 48.7493 5.05398 48.7299 4.96296 48.6923C4.87194 48.6546 4.78924 48.5994 4.71959 48.5297C4.64993 48.4601 4.59469 48.3773 4.55702 48.2863C4.51935 48.1953 4.49999 48.0978 4.50004 47.9992C4.49317 45.5681 5.28067 43.2012 6.74272 41.2588C6.80177 41.18 6.87577 41.1136 6.96047 41.0635C7.04518 41.0133 7.13894 40.9803 7.2364 40.9663C7.33386 40.9524 7.43311 40.9578 7.52849 40.9822C7.62387 41.0066 7.7135 41.0496 7.79228 41.1086C7.87105 41.1677 7.93742 41.2417 7.9876 41.3264C8.03778 41.4111 8.07078 41.5049 8.08472 41.6023C8.09867 41.6998 8.09327 41.799 8.06886 41.8944C8.04444 41.9898 8.00148 42.0794 7.94242 42.1582C6.67589 43.8416 5.99385 45.8926 6.00004 47.9992C6.0001 48.0978 5.98074 48.1953 5.94307 48.2863C5.9054 48.3773 5.85016 48.4601 5.7805 48.5297C5.71085 48.5994 5.62815 48.6546 5.53713 48.6923C5.44611 48.7299 5.34855 48.7493 5.25004 48.7492Z" fill="black"/>
<path id="Vector_12" d="M10.5 43.5132C8.90926 43.5114 7.38419 42.8786 6.25937 41.7538C5.13455 40.629 4.50182 39.1039 4.5 37.5132C4.5 37.3143 4.57902 37.1235 4.71967 36.9829C4.86032 36.8422 5.05109 36.7632 5.25 36.7632C5.44891 36.7632 5.63968 36.8422 5.78033 36.9829C5.92098 37.1235 6 37.3143 6 37.5132C6 38.1041 6.1164 38.6893 6.34254 39.2353C6.56869 39.7812 6.90015 40.2773 7.31802 40.6952C7.73588 41.113 8.23196 41.4445 8.77792 41.6706C9.32389 41.8968 9.90905 42.0132 10.5 42.0132C11.0909 42.0132 11.6761 41.8968 12.2221 41.6706C12.768 41.4445 13.2641 41.113 13.682 40.6952C14.0998 40.2773 14.4313 39.7812 14.6575 39.2353C14.8836 38.6893 15 38.1041 15 37.5132C15 37.3143 15.079 37.1235 15.2197 36.9829C15.3603 36.8422 15.5511 36.7632 15.75 36.7632C15.9489 36.7632 16.1397 36.8422 16.2803 36.9829C16.421 37.1235 16.5 37.3143 16.5 37.5132C16.4982 39.1039 15.8655 40.629 14.7406 41.7538C13.6158 42.8786 12.0907 43.5114 10.5 43.5132Z" fill="black"/>
<path id="Vector_13" d="M21 43.5132C19.4093 43.5114 17.8842 42.8786 16.7594 41.7538C15.6345 40.629 15.0018 39.1039 15 37.5132C15 37.3143 15.079 37.1235 15.2197 36.9829C15.3603 36.8422 15.5511 36.7632 15.75 36.7632C15.9489 36.7632 16.1397 36.8422 16.2803 36.9829C16.421 37.1235 16.5 37.3143 16.5 37.5132C16.5 38.7067 16.9741 39.8513 17.818 40.6952C18.6619 41.5391 19.8065 42.0132 21 42.0132C22.1935 42.0132 23.3381 41.5391 24.182 40.6952C25.0259 39.8513 25.5 38.7067 25.5 37.5132C25.5 37.3143 25.579 37.1235 25.7197 36.9829C25.8603 36.8422 26.0511 36.7632 26.25 36.7632C26.4489 36.7632 26.6397 36.8422 26.7803 36.9829C26.921 37.1235 27 37.3143 27 37.5132C26.9982 39.1039 26.3655 40.629 25.2406 41.7538C24.1158 42.8786 22.5907 43.5114 21 43.5132Z" fill="black"/>
<path id="Vector_14" d="M15.75 48.75C14.1593 48.7482 12.6342 48.1154 11.5094 46.9906C10.3845 45.8658 9.75182 44.3407 9.75 42.75C9.75 42.5511 9.82902 42.3603 9.96967 42.2196C10.1103 42.079 10.3011 42 10.5 42C10.6989 42 10.8897 42.079 11.0303 42.2196C11.171 42.3603 11.25 42.5511 11.25 42.75C11.25 43.9435 11.7241 45.088 12.568 45.932C13.4119 46.7759 14.5565 47.25 15.75 47.25C16.9435 47.25 18.0881 46.7759 18.932 45.932C19.7759 45.088 20.25 43.9435 20.25 42.75C20.25 42.5511 20.329 42.3603 20.4697 42.2196C20.6103 42.079 20.8011 42 21 42C21.1989 42 21.3897 42.079 21.5303 42.2196C21.671 42.3603 21.75 42.5511 21.75 42.75C21.7482 44.3407 21.1155 45.8658 19.9906 46.9906C18.8658 48.1154 17.3407 48.7482 15.75 48.75ZM15.75 38.2492C14.9548 38.2483 14.1925 37.932 13.6302 37.3698C13.0679 36.8075 12.7516 36.0452 12.7507 35.25C12.7507 35.0511 12.8298 34.8603 12.9704 34.7196C13.1111 34.579 13.3018 34.5 13.5007 34.5C13.6997 34.5 13.8904 34.579 14.0311 34.7196C14.1717 34.8603 14.2507 35.0511 14.2507 35.25C14.2507 35.6476 14.4087 36.0289 14.6899 36.3101C14.971 36.5913 15.3524 36.7492 15.75 36.7492C16.1476 36.7492 16.529 36.5913 16.8101 36.3101C17.0913 36.0289 17.2492 35.6476 17.2492 35.25C17.2492 35.0511 17.3283 34.8603 17.4689 34.7196C17.6096 34.579 17.8003 34.5 17.9992 34.5C18.1982 34.5 18.3889 34.579 18.5296 34.7196C18.6702 34.8603 18.7492 35.0511 18.7492 35.25C18.7483 36.0452 18.4321 36.8075 17.8698 37.3698C17.3075 37.932 16.5452 38.2483 15.75 38.2492ZM12.7375 31.4875C12.639 31.4876 12.5415 31.4682 12.4505 31.4306C12.3594 31.3929 12.2767 31.3376 12.2071 31.268C12.1374 31.1983 12.0822 31.1156 12.0445 31.0246C12.0069 30.9336 11.9875 30.836 11.9875 30.7375C11.9875 30.3399 11.8296 29.9586 11.5484 29.6774C11.2673 29.3962 10.8859 29.2383 10.4883 29.2383C10.0907 29.2383 9.70933 29.3962 9.42817 29.6774C9.14701 29.9586 8.98905 30.3399 8.98905 30.7375C8.98905 30.9364 8.91003 31.1272 8.76938 31.2679C8.62873 31.4085 8.43796 31.4875 8.23905 31.4875C8.04014 31.4875 7.84937 31.4085 7.70872 31.2679C7.56807 31.1272 7.48905 30.9364 7.48905 30.7375C7.48905 29.9421 7.80504 29.1792 8.36751 28.6167C8.92998 28.0543 9.69285 27.7383 10.4883 27.7383C11.2837 27.7383 12.0466 28.0543 12.6091 28.6167C13.1716 29.1792 13.4875 29.9421 13.4875 30.7375C13.4876 30.836 13.4682 30.9336 13.4306 31.0246C13.3929 31.1156 13.3377 31.1983 13.268 31.268C13.1983 31.3376 13.1156 31.3929 13.0246 31.4306C12.9336 31.4682 12.8361 31.4876 12.7375 31.4875ZM23.2492 31.4875C23.1507 31.4876 23.0532 31.4682 22.9622 31.4306C22.8711 31.3929 22.7884 31.3376 22.7188 31.268C22.6491 31.1983 22.5939 31.1156 22.5562 31.0246C22.5186 30.9336 22.4992 30.836 22.4992 30.7375C22.4992 30.3399 22.3413 29.9586 22.0601 29.6774C21.779 29.3962 21.3976 29.2383 21 29.2383C20.6024 29.2383 20.221 29.3962 19.9399 29.6774C19.6587 29.9586 19.5007 30.3399 19.5007 30.7375C19.5007 30.9364 19.4217 31.1272 19.2811 31.2679C19.1404 31.4085 18.9497 31.4875 18.7507 31.4875C18.5518 31.4875 18.3611 31.4085 18.2204 31.2679C18.0798 31.1272 18.0007 30.9364 18.0007 30.7375C18.0007 29.9421 18.3167 29.1792 18.8792 28.6167C19.4417 28.0543 20.2045 27.7383 21 27.7383C21.7954 27.7383 22.5583 28.0543 23.1208 28.6167C23.6833 29.1792 23.9992 29.9421 23.9992 30.7375C23.9993 30.836 23.9799 30.9336 23.9423 31.0246C23.9046 31.1156 23.8494 31.1983 23.7797 31.268C23.71 31.3376 23.6273 31.3929 23.5363 31.4306C23.4453 31.4682 23.3478 31.4876 23.2492 31.4875ZM5.25 38.2632C5.15149 38.2632 5.05394 38.2439 4.96292 38.2062C4.8719 38.1685 4.7892 38.1133 4.71954 38.0436C4.64989 37.974 4.59465 37.8913 4.55698 37.8002C4.5193 37.7092 4.49994 37.6117 4.5 37.5132V30C4.5 29.8011 4.57902 29.6103 4.71967 29.4696C4.86032 29.329 5.05109 29.25 5.25 29.25C5.44891 29.25 5.63968 29.329 5.78033 29.4696C5.92098 29.6103 6 29.8011 6 30V37.5132C6.00006 37.6117 5.9807 37.7092 5.94302 37.8002C5.90535 37.8913 5.85011 37.974 5.78045 38.0436C5.7108 38.1133 5.6281 38.1685 5.53708 38.2062C5.44606 38.2439 5.34851 38.2632 5.25 38.2632ZM26.25 38.2632C26.1515 38.2632 26.0539 38.2439 25.9629 38.2062C25.8719 38.1685 25.7892 38.1133 25.7195 38.0436C25.6499 37.974 25.5946 37.8913 25.557 37.8002C25.5193 37.7092 25.4999 37.6117 25.5 37.5132V30C25.5 29.8011 25.579 29.6103 25.7197 29.4696C25.8603 29.329 26.0511 29.25 26.25 29.25C26.4489 29.25 26.6397 29.329 26.7803 29.4696C26.921 29.6103 27 29.8011 27 30V37.5132C27.0001 37.6117 26.9807 37.7092 26.943 37.8002C26.9053 37.8913 26.8501 37.974 26.7805 38.0436C26.7108 38.1133 26.6281 38.1685 26.5371 38.2062C26.4461 38.2439 26.3485 38.2632 26.25 38.2632Z" fill="black"/>
<path id="Vector_15" d="M17.9995 36H13.501C13.3021 36 13.1113 35.921 12.9706 35.7803C12.83 35.6397 12.751 35.4489 12.751 35.25C12.751 35.0511 12.83 34.8603 12.9706 34.7197C13.1113 34.579 13.3021 34.5 13.501 34.5H17.9995C18.1984 34.5 18.3892 34.579 18.5298 34.7197C18.6705 34.8603 18.7495 35.0511 18.7495 35.25C18.7495 35.4489 18.6705 35.6397 18.5298 35.7803C18.3892 35.921 18.1984 36 17.9995 36ZM15.7502 44.25C15.6517 44.2501 15.5542 44.2307 15.4631 44.193C15.3721 44.1553 15.2894 44.1001 15.2198 44.0305C15.1501 43.9608 15.0949 43.8781 15.0572 43.7871C15.0195 43.6961 15.0002 43.5985 15.0002 43.5V37.5132C15.0002 37.3143 15.0792 37.1235 15.2199 36.9829C15.3605 36.8422 15.5513 36.7632 15.7502 36.7632C15.9491 36.7632 16.1399 36.8422 16.2806 36.9829C16.4212 37.1235 16.5002 37.3143 16.5002 37.5132V43.5C16.5003 43.5985 16.4809 43.6961 16.4432 43.7871C16.4056 43.8781 16.3503 43.9608 16.2807 44.0305C16.211 44.1001 16.1283 44.1553 16.0373 44.193C15.9463 44.2307 15.8487 44.2501 15.7502 44.25ZM28.5002 37.5C27.7048 37.4992 26.9422 37.1829 26.3798 36.6204C25.8173 36.058 25.501 35.2954 25.5002 34.5C25.5002 34.3011 25.5792 34.1103 25.7199 33.9697C25.8605 33.829 26.0513 33.75 26.2502 33.75C26.4491 33.75 26.6399 33.829 26.7806 33.9697C26.9212 34.1103 27.0002 34.3011 27.0002 34.5C27.0002 34.8978 27.1583 35.2794 27.4396 35.5607C27.7209 35.842 28.1024 36 28.5002 36C28.8981 36 29.2796 35.842 29.5609 35.5607C29.8422 35.2794 30.0002 34.8978 30.0002 34.5C30.0002 34.3011 30.0792 34.1103 30.2199 33.9697C30.3605 33.829 30.5513 33.75 30.7502 33.75C30.9491 33.75 31.1399 33.829 31.2806 33.9697C31.4212 34.1103 31.5002 34.3011 31.5002 34.5C31.4994 35.2954 31.1831 36.058 30.6207 36.6204C30.0582 37.1829 29.2956 37.4992 28.5002 37.5Z" fill="black"/>
<path id="Vector_16" d="M30.75 35.25C30.6515 35.2501 30.5539 35.2307 30.4629 35.193C30.3719 35.1554 30.2892 35.1001 30.2195 35.0305C30.1499 34.9608 30.0946 34.8781 30.057 34.7871C30.0193 34.6961 29.9999 34.5985 30 34.5V30C30 29.8011 30.079 29.6103 30.2197 29.4697C30.3603 29.329 30.5511 29.25 30.75 29.25C30.9489 29.25 31.1397 29.329 31.2803 29.4697C31.421 29.6103 31.5 29.8011 31.5 30V34.5C31.5001 34.5985 31.4807 34.6961 31.443 34.7871C31.4054 34.8781 31.3501 34.9608 31.2805 35.0305C31.2108 35.1001 31.1281 35.1554 31.0371 35.193C30.9461 35.2307 30.8485 35.2501 30.75 35.25Z" fill="black"/>
<path id="Vector_17" d="M30.75 30.75C30.6515 30.7501 30.554 30.7307 30.4629 30.693C30.3719 30.6554 30.2892 30.6001 30.2196 30.5305C30.1499 30.4608 30.0947 30.3781 30.057 30.2871C30.0193 30.1961 30 30.0985 30 30C29.997 27.4151 28.9688 24.9368 27.141 23.109C25.3132 21.2812 22.835 20.253 20.25 20.25C19.5448 20.25 18.8415 20.3257 18.1524 20.4756C17.9581 20.5181 17.7549 20.4818 17.5875 20.3745C17.4201 20.2672 17.3021 20.0978 17.2595 19.9036C17.217 19.7093 17.2534 19.5061 17.3606 19.3387C17.4679 19.1713 17.6373 19.0533 17.8316 19.0107C19.475 18.6508 21.1782 18.6637 22.816 19.0485C24.4537 19.4333 25.9845 20.1802 27.2956 21.2344C28.6068 22.2885 29.6651 23.6231 30.3926 25.14C31.1202 26.6569 31.4986 28.3176 31.5 30C31.5001 30.0985 31.4807 30.1961 31.443 30.2871C31.4054 30.3781 31.3501 30.4608 31.2805 30.5305C31.2108 30.6001 31.1281 30.6554 31.0371 30.693C30.9461 30.7307 30.8485 30.7501 30.75 30.75ZM28.5 37.5C27.7046 37.4992 26.942 37.1829 26.3796 36.6204C25.8171 36.058 25.5008 35.2954 25.5 34.5C25.5 34.3011 25.579 34.1103 25.7197 33.9697C25.8603 33.829 26.0511 33.75 26.25 33.75C26.4489 33.75 26.6397 33.829 26.7804 33.9697C26.921 34.1103 27 34.3011 27 34.5C27 34.8978 27.1581 35.2794 27.4394 35.5607C27.7207 35.842 28.1022 36 28.5 36C28.8978 36 29.2794 35.842 29.5607 35.5607C29.842 35.2794 30 34.8978 30 34.5C30 34.3011 30.079 34.1103 30.2197 33.9697C30.3603 33.829 30.5511 33.75 30.75 33.75C30.9489 33.75 31.1397 33.829 31.2804 33.9697C31.421 34.1103 31.5 34.3011 31.5 34.5C31.4992 35.2954 31.1829 36.058 30.6205 36.6204C30.058 37.1829 29.2954 37.4992 28.5 37.5Z" fill="black"/>
<path id="Vector_18" d="M30.75 35.25C30.6515 35.2501 30.5539 35.2307 30.4629 35.193C30.3719 35.1554 30.2892 35.1001 30.2195 35.0305C30.1499 34.9608 30.0946 34.8781 30.057 34.7871C30.0193 34.6961 29.9999 34.5985 30 34.5V30C30 29.8011 30.079 29.6103 30.2197 29.4697C30.3603 29.329 30.5511 29.25 30.75 29.25C30.9489 29.25 31.1397 29.329 31.2803 29.4697C31.421 29.6103 31.5 29.8011 31.5 30V34.5C31.5001 34.5985 31.4807 34.6961 31.443 34.7871C31.4053 34.8781 31.3501 34.9608 31.2805 35.0305C31.2108 35.1001 31.1281 35.1554 31.0371 35.193C30.9461 35.2307 30.8485 35.2501 30.75 35.25ZM0.75 30.75C0.651493 30.7501 0.55394 30.7307 0.462921 30.693C0.371901 30.6554 0.2892 30.6001 0.219545 30.5305C0.14989 30.4608 0.0946471 30.3781 0.056976 30.2871C0.0193048 30.1961 -5.60752e-05 30.0985 1.21988e-07 30C0.00139932 28.3176 0.379795 26.6569 1.10737 25.14C1.83495 23.6231 2.89322 22.2885 4.20438 21.2344C5.51555 20.1802 7.04628 19.4333 8.68406 19.0485C10.3218 18.6637 12.025 18.6508 13.6685 19.0107C13.8627 19.0533 14.0321 19.1713 14.1394 19.3387C14.2466 19.5061 14.283 19.7093 14.2405 19.9036C14.1979 20.0978 14.08 20.2672 13.9125 20.3745C13.7451 20.4818 13.5419 20.5181 13.3477 20.4756C12.6585 20.3257 11.9553 20.25 11.25 20.25C8.66506 20.253 6.18684 21.2812 4.35901 23.109C2.53118 24.9368 1.50299 27.4151 1.5 30C1.50006 30.0985 1.4807 30.1961 1.44302 30.2871C1.40535 30.3781 1.35011 30.4608 1.28045 30.5305C1.2108 30.6001 1.1281 30.6554 1.03708 30.693C0.94606 30.7307 0.848507 30.7501 0.75 30.75ZM3 37.5C2.20459 37.4992 1.44199 37.1829 0.879557 36.6204C0.31712 36.058 0.000794337 35.2954 1.21988e-07 34.5C1.21988e-07 34.3011 0.0790179 34.1103 0.21967 33.9697C0.360322 33.829 0.551088 33.75 0.75 33.75C0.948912 33.75 1.13968 33.829 1.28033 33.9697C1.42098 34.1103 1.5 34.3011 1.5 34.5C1.5 34.8978 1.65804 35.2794 1.93934 35.5607C2.22064 35.842 2.60217 36 3 36C3.39782 36 3.77935 35.842 4.06066 35.5607C4.34196 35.2794 4.5 34.8978 4.5 34.5C4.5 34.3011 4.57902 34.1103 4.71967 33.9697C4.86032 33.829 5.05109 33.75 5.25 33.75C5.44891 33.75 5.63968 33.829 5.78033 33.9697C5.92098 34.1103 6 34.3011 6 34.5C5.9992 35.2954 5.68288 36.058 5.12044 36.6204C4.558 37.1829 3.79541 37.4992 3 37.5Z" fill="black"/>
<path id="Vector_19" d="M0.75 35.25C0.651493 35.2501 0.55394 35.2307 0.462921 35.193C0.371901 35.1554 0.2892 35.1001 0.219545 35.0305C0.14989 34.9608 0.0946471 34.8781 0.056976 34.7871C0.0193048 34.6961 -5.60752e-05 34.5985 1.21988e-07 34.5V30C1.21988e-07 29.8011 0.0790179 29.6103 0.21967 29.4697C0.360322 29.329 0.551088 29.25 0.75 29.25C0.948912 29.25 1.13968 29.329 1.28033 29.4697C1.42098 29.6103 1.5 29.8011 1.5 30V34.5C1.50006 34.5985 1.4807 34.6961 1.44302 34.7871C1.40535 34.8781 1.35011 34.9608 1.28046 35.0305C1.2108 35.1001 1.1281 35.1554 1.03708 35.193C0.94606 35.2307 0.848507 35.2501 0.75 35.25Z" fill="black"/>
</g>
</svg>
