<svg width="63" height="63" viewBox="0 0 63 63" fill="none" xmlns="http://www.w3.org/2000/svg">
<path d="M0.75 57C1.16421 57 1.5 56.6642 1.5 56.25C1.5 55.8358 1.16421 55.5 0.75 55.5C0.335786 55.5 0 55.8358 0 56.25C0 56.6642 0.335786 57 0.75 57Z" fill="#2D4356"/>
<path d="M4.125 55.5H3C2.80109 55.5 2.61032 55.579 2.46967 55.7197C2.32902 55.8603 2.25 56.0511 2.25 56.25C2.25 56.4489 2.32902 56.6397 2.46967 56.7803C2.61032 56.921 2.80109 57 3 57H4.125C4.32391 57 4.51468 56.921 4.65533 56.7803C4.79598 56.6397 4.875 56.4489 4.875 56.25C4.875 56.0511 4.79598 55.8603 4.65533 55.7197C4.51468 55.579 4.32391 55.5 4.125 55.5ZM60 55.5H58.875C58.6761 55.5 58.4853 55.579 58.3447 55.7197C58.204 55.8603 58.125 56.0511 58.125 56.25C58.125 56.4489 58.204 56.6397 58.3447 56.7803C58.4853 56.921 58.6761 57 58.875 57H60C60.1989 57 60.3897 56.921 60.5303 56.7803C60.671 56.6397 60.75 56.4489 60.75 56.25C60.75 56.0511 60.671 55.8603 60.5303 55.7197C60.3897 55.579 60.1989 55.5 60 55.5Z" fill="#2D4356"/>
<path d="M62.25 57C62.6642 57 63 56.6642 63 56.25C63 55.8358 62.6642 55.5 62.25 55.5C61.8358 55.5 61.5 55.8358 61.5 56.25C61.5 56.6642 61.8358 57 62.25 57Z" fill="#2D4356"/>
<path d="M44.3077 58.5H41.1922C41.0033 58.5146 40.8269 58.6 40.6982 58.739C40.5695 58.8781 40.498 59.0606 40.498 59.25C40.498 59.4394 40.5695 59.6219 40.6982 59.761C40.8269 59.9 41.0033 59.9854 41.1922 60H44.3077C44.4965 59.9854 44.6729 59.9 44.8016 59.761C44.9303 59.6219 45.0018 59.4394 45.0018 59.25C45.0018 59.0606 44.9303 58.8781 44.8016 58.739C44.6729 58.6 44.4965 58.5146 44.3077 58.5ZM21.8077 58.5H18.6922C18.5033 58.5146 18.3269 58.6 18.1982 58.739C18.0695 58.8781 17.998 59.0606 17.998 59.25C17.998 59.4394 18.0695 59.6219 18.1982 59.761C18.3269 59.9 18.5033 59.9854 18.6922 60H21.8077C21.9965 59.9854 22.1729 59.9 22.3016 59.761C22.4303 59.6219 22.5018 59.4394 22.5018 59.25C22.5018 59.0606 22.4303 58.8781 22.3016 58.739C22.1729 58.6 21.9965 58.5146 21.8077 58.5ZM38.9999 58.5H23.9999C23.801 58.5 23.6102 58.579 23.4696 58.7197C23.3289 58.8603 23.2499 59.0511 23.2499 59.25C23.2499 59.4489 23.3289 59.6397 23.4696 59.7803C23.6102 59.921 23.801 60 23.9999 60H29.9774V60.75H26.9999C26.801 60.75 26.6102 60.829 26.4696 60.9697C26.3289 61.1103 26.2499 61.3011 26.2499 61.5C26.2499 61.6989 26.3289 61.8897 26.4696 62.0303C26.6102 62.171 26.801 62.25 26.9999 62.25H36.3749C36.5738 62.25 36.7646 62.171 36.9052 62.0303C37.0459 61.8897 37.1249 61.6989 37.1249 61.5C37.1249 61.3011 37.0459 61.1103 36.9052 60.9697C36.7646 60.829 36.5738 60.75 36.3749 60.75H33.0224V60H38.9999C39.1988 60 39.3896 59.921 39.5302 59.7803C39.6709 59.6397 39.7499 59.4489 39.7499 59.25C39.7499 59.0511 39.6709 58.8603 39.5302 58.7197C39.3896 58.579 39.1988 58.5 38.9999 58.5Z" fill="#0BB0CE"/>
<path d="M26.0625 15.75C26.2614 15.75 26.4522 15.671 26.5928 15.5303C26.7335 15.3897 26.8125 15.1989 26.8125 15V12.75C26.8125 12.5511 26.7335 12.3603 26.5928 12.2197C26.4522 12.079 26.2614 12 26.0625 12C25.8636 12 25.6728 12.079 25.5322 12.2197C25.3915 12.3603 25.3125 12.5511 25.3125 12.75V15C25.3125 15.1989 25.3915 15.3897 25.5322 15.5303C25.6728 15.671 25.8636 15.75 26.0625 15.75ZM25.3125 40.5V42.75C25.3125 42.9489 25.3915 43.1397 25.5322 43.2803C25.6728 43.421 25.8636 43.5 26.0625 43.5C26.2614 43.5 26.4522 43.421 26.5928 43.2803C26.7335 43.1397 26.8125 42.9489 26.8125 42.75V40.5C26.8125 40.3011 26.7335 40.1103 26.5928 39.9697C26.4522 39.829 26.2614 39.75 26.0625 39.75C25.8636 39.75 25.6728 39.829 25.5322 39.9697C25.3915 40.1103 25.3125 40.3011 25.3125 40.5ZM41.0625 28.5C41.2614 28.5 41.4522 28.421 41.5928 28.2803C41.7335 28.1397 41.8125 27.9489 41.8125 27.75C41.8125 27.5511 41.7335 27.3603 41.5928 27.2197C41.4522 27.079 41.2614 27 41.0625 27H38.8125C38.6136 27 38.4228 27.079 38.2822 27.2197C38.1415 27.3603 38.0625 27.5511 38.0625 27.75C38.0625 27.9489 38.1415 28.1397 38.2822 28.2803C38.4228 28.421 38.6136 28.5 38.8125 28.5H41.0625ZM13.3125 27H11.0625C10.8636 27 10.6728 27.079 10.5322 27.2197C10.3915 27.3603 10.3125 27.5511 10.3125 27.75C10.3125 27.9489 10.3915 28.1397 10.5322 28.2803C10.6728 28.421 10.8636 28.5 11.0625 28.5H13.3125C13.5114 28.5 13.7022 28.421 13.8428 28.2803C13.9835 28.1397 14.0625 27.9489 14.0625 27.75C14.0625 27.5511 13.9835 27.3603 13.8428 27.2197C13.7022 27.079 13.5114 27 13.3125 27Z" fill="#2D4356"/>
<path d="M37.1991 16.6131C37.0585 16.4725 36.8678 16.3936 36.6689 16.3936C36.47 16.3936 36.2793 16.4725 36.1386 16.6131L34.5479 18.2039C34.4782 18.2735 34.423 18.3562 34.3853 18.4472C34.3476 18.5382 34.3281 18.6357 34.3281 18.7342C34.3281 18.9331 34.4071 19.1239 34.5477 19.2646C34.6883 19.4053 34.8791 19.4843 35.078 19.4844C35.2769 19.4844 35.4677 19.4054 35.6084 19.2648L37.1991 17.6736C37.3397 17.533 37.4187 17.3423 37.4187 17.1434C37.4187 16.9445 37.3397 16.7538 37.1991 16.6131ZM14.9256 38.8866C15.0663 39.0272 15.257 39.1062 15.4559 39.1062C15.6548 39.1062 15.8455 39.0272 15.9861 38.8866L17.5769 37.2959C17.7176 37.1553 17.7966 36.9645 17.7967 36.7656C17.7967 36.5667 17.7177 36.3759 17.5771 36.2352C17.4365 36.0945 17.2457 36.0155 17.0468 36.0154C16.8479 36.0154 16.6571 36.0944 16.5164 36.235L14.9256 37.8261C14.785 37.9668 14.7061 38.1575 14.7061 38.3564C14.7061 38.5553 14.785 38.746 14.9256 38.8866ZM16.5164 19.2648C16.5861 19.3344 16.6687 19.3896 16.7597 19.4273C16.8508 19.465 16.9483 19.4844 17.0468 19.4844C17.1453 19.4843 17.2428 19.4649 17.3338 19.4272C17.4248 19.3895 17.5074 19.3342 17.5771 19.2646C17.6467 19.1949 17.7019 19.1122 17.7396 19.0212C17.7773 18.9302 17.7967 18.8327 17.7967 18.7342C17.7966 18.6357 17.7772 18.5382 17.7395 18.4472C17.7018 18.3562 17.6466 18.2735 17.5769 18.2039L15.9861 16.6131C15.8447 16.4765 15.6552 16.4009 15.4586 16.4026C15.2619 16.4043 15.0738 16.4832 14.9348 16.6223C14.7957 16.7613 14.7168 16.9494 14.7151 17.1461C14.7134 17.3427 14.789 17.5322 14.9256 17.6736L16.5164 19.2648Z" fill="#0BB0CE"/>
<path d="M26.2499 46.4999C27.002 46.4982 27.7533 46.4515 28.4999 46.36V44.8488C25.0223 45.3059 21.4879 44.692 18.3682 43.0888C15.2485 41.4857 12.6917 38.9695 11.0388 35.8759C9.38595 32.7822 8.71551 29.2582 9.11694 25.7737C9.51837 22.2893 10.9726 19.01 13.2857 16.3733C15.5987 13.7365 18.6607 11.8677 22.0632 11.0159C25.4658 10.1642 29.0471 10.37 32.3296 11.606C35.6122 12.842 38.4398 15.0493 40.4356 17.9337C42.4313 20.8181 43.5003 24.2424 43.4999 27.7499C43.5041 30.6324 42.7827 33.4695 41.4021 35.9999H43.0821C44.8736 32.3427 45.4255 28.2017 44.6543 24.203C43.8832 20.2043 41.831 16.5654 38.808 13.8367C35.785 11.108 31.9557 9.43787 27.8992 9.07887C23.8427 8.71986 19.7795 9.69152 16.3243 11.8469C12.8691 14.0023 10.2097 17.2241 8.74825 21.0253C7.28683 24.8264 7.10287 29 8.22422 32.9149C9.34556 36.8299 11.7112 40.2732 14.9634 42.7242C18.2156 45.1752 22.1775 46.5006 26.2499 46.4999Z" fill="#2D4356"/>
<path d="M36 45H33.75C33.5511 45 33.3603 45.079 33.2197 45.2197C33.079 45.3603 33 45.5511 33 45.75C33 45.9489 33.079 46.1397 33.2197 46.2803C33.3603 46.421 33.5511 46.5 33.75 46.5H36C36.1989 46.5 36.3897 46.421 36.5303 46.2803C36.671 46.1397 36.75 45.9489 36.75 45.75C36.75 45.5511 36.671 45.3603 36.5303 45.2197C36.3897 45.079 36.1989 45 36 45Z" fill="#0BB0CE"/>
<path d="M36 48.75H33.75C33.5511 48.75 33.3603 48.829 33.2197 48.9697C33.079 49.1103 33 49.3011 33 49.5C33 49.6989 33.079 49.8897 33.2197 50.0303C33.3603 50.171 33.5511 50.25 33.75 50.25H36C36.1989 50.25 36.3897 50.171 36.5303 50.0303C36.671 49.8897 36.75 49.6989 36.75 49.5C36.75 49.3011 36.671 49.1103 36.5303 48.9697C36.3897 48.829 36.1989 48.75 36 48.75Z" fill="#2D4356"/>
<path d="M36 52.5H33.75C33.5511 52.5 33.3603 52.579 33.2197 52.7197C33.079 52.8603 33 53.0511 33 53.25C33 53.4489 33.079 53.6397 33.2197 53.7803C33.3603 53.921 33.5511 54 33.75 54H36C36.1989 54 36.3897 53.921 36.5303 53.7803C36.671 53.6397 36.75 53.4489 36.75 53.25C36.75 53.0511 36.671 52.8603 36.5303 52.7197C36.3897 52.579 36.1989 52.5 36 52.5Z" fill="#0BB0CE"/>
<path d="M41.25 45H39C38.8011 45 38.6103 45.079 38.4697 45.2197C38.329 45.3603 38.25 45.5511 38.25 45.75C38.25 45.9489 38.329 46.1397 38.4697 46.2803C38.6103 46.421 38.8011 46.5 39 46.5H41.25C41.4489 46.5 41.6397 46.421 41.7803 46.2803C41.921 46.1397 42 45.9489 42 45.75C42 45.5511 41.921 45.3603 41.7803 45.2197C41.6397 45.079 41.4489 45 41.25 45Z" fill="#2D4356"/>
<path d="M41.25 48.75H39C38.8011 48.75 38.6103 48.829 38.4697 48.9697C38.329 49.1103 38.25 49.3011 38.25 49.5C38.25 49.6989 38.329 49.8897 38.4697 50.0303C38.6103 50.171 38.8011 50.25 39 50.25H41.25C41.4489 50.25 41.6397 50.171 41.7803 50.0303C41.921 49.8897 42 49.6989 42 49.5C42 49.3011 41.921 49.1103 41.7803 48.9697C41.6397 48.829 41.4489 48.75 41.25 48.75Z" fill="#0BB0CE"/>
<path d="M41.25 52.5H39C38.8011 52.5 38.6103 52.579 38.4697 52.7197C38.329 52.8603 38.25 53.0511 38.25 53.25C38.25 53.4489 38.329 53.6397 38.4697 53.7803C38.6103 53.921 38.8011 54 39 54H41.25C41.4489 54 41.6397 53.921 41.7803 53.7803C41.921 53.6397 42 53.4489 42 53.25C42 53.0511 41.921 52.8603 41.7803 52.7197C41.6397 52.579 41.4489 52.5 41.25 52.5Z" fill="#2D4356"/>
<path d="M46.5 45H44.25C44.0511 45 43.8603 45.079 43.7197 45.2197C43.579 45.3603 43.5 45.5511 43.5 45.75C43.5 45.9489 43.579 46.1397 43.7197 46.2803C43.8603 46.421 44.0511 46.5 44.25 46.5H46.5C46.6989 46.5 46.8897 46.421 47.0303 46.2803C47.171 46.1397 47.25 45.9489 47.25 45.75C47.25 45.5511 47.171 45.3603 47.0303 45.2197C46.8897 45.079 46.6989 45 46.5 45Z" fill="#0BB0CE"/>
<path d="M46.5 48.75H44.25C44.0511 48.75 43.8603 48.829 43.7197 48.9697C43.579 49.1103 43.5 49.3011 43.5 49.5C43.5 49.6989 43.579 49.8897 43.7197 50.0303C43.8603 50.171 44.0511 50.25 44.25 50.25H46.5C46.6989 50.25 46.8897 50.171 47.0303 50.0303C47.171 49.8897 47.25 49.6989 47.25 49.5C47.25 49.3011 47.171 49.1103 47.0303 48.9697C46.8897 48.829 46.6989 48.75 46.5 48.75Z" fill="#2D4356"/>
<path d="M46.5 52.5H44.25C44.0511 52.5 43.8603 52.579 43.7197 52.7197C43.579 52.8603 43.5 53.0511 43.5 53.25C43.5 53.4489 43.579 53.6397 43.7197 53.7803C43.8603 53.921 44.0511 54 44.25 54H46.5C46.6989 54 46.8897 53.921 47.0303 53.7803C47.171 53.6397 47.25 53.4489 47.25 53.25C47.25 53.0511 47.171 52.8603 47.0303 52.7197C46.8897 52.579 46.6989 52.5 46.5 52.5Z" fill="#0BB0CE"/>
<path d="M51.75 45H49.5C49.3011 45 49.1103 45.079 48.9697 45.2197C48.829 45.3603 48.75 45.5511 48.75 45.75C48.75 45.9489 48.829 46.1397 48.9697 46.2803C49.1103 46.421 49.3011 46.5 49.5 46.5H51.75C51.9489 46.5 52.1397 46.421 52.2803 46.2803C52.421 46.1397 52.5 45.9489 52.5 45.75C52.5 45.5511 52.421 45.3603 52.2803 45.2197C52.1397 45.079 51.9489 45 51.75 45Z" fill="#2D4356"/>
<path d="M51.75 48.75H49.5C49.3011 48.75 49.1103 48.829 48.9697 48.9697C48.829 49.1103 48.75 49.3011 48.75 49.5C48.75 49.6989 48.829 49.8897 48.9697 50.0303C49.1103 50.171 49.3011 50.25 49.5 50.25H51.75C51.9489 50.25 52.1397 50.171 52.2803 50.0303C52.421 49.8897 52.5 49.6989 52.5 49.5C52.5 49.3011 52.421 49.1103 52.2803 48.9697C52.1397 48.829 51.9489 48.75 51.75 48.75Z" fill="#0BB0CE"/>
<path d="M51.75 52.5H49.5C49.3011 52.5 49.1103 52.579 48.9697 52.7197C48.829 52.8603 48.75 53.0511 48.75 53.25C48.75 53.4489 48.829 53.6397 48.9697 53.7803C49.1103 53.921 49.3011 54 49.5 54H51.75C51.9489 54 52.1397 53.921 52.2803 53.7803C52.421 53.6397 52.5 53.4489 52.5 53.25C52.5 53.0511 52.421 52.8603 52.2803 52.7197C52.1397 52.579 51.9489 52.5 51.75 52.5ZM34.875 36.75V39.75C34.875 39.9489 34.954 40.1397 35.0947 40.2803C35.2353 40.421 35.4261 40.5 35.625 40.5C35.8239 40.5 36.0147 40.421 36.1553 40.2803C36.296 40.1397 36.375 39.9489 36.375 39.75V36.75C36.375 36.5511 36.296 36.3603 36.1553 36.2197C36.0147 36.079 35.8239 36 35.625 36C35.4261 36 35.2353 36.079 35.0947 36.2197C34.954 36.3603 34.875 36.5511 34.875 36.75ZM37.875 37.5H47.25V39H37.875V37.5ZM49.5 40.5C49.6989 40.5 49.8897 40.421 50.0303 40.2803C50.171 40.1397 50.25 39.9489 50.25 39.75V36.75C50.25 36.5511 50.171 36.3603 50.0303 36.2197C49.8897 36.079 49.6989 36 49.5 36C49.3011 36 49.1103 36.079 48.9697 36.2197C48.829 36.3603 48.75 36.5511 48.75 36.75V39.75C48.75 39.9489 48.829 40.1397 48.9697 40.2803C49.1103 40.421 49.3011 40.5 49.5 40.5ZM28.6875 27.75C28.6866 27.1851 28.5038 26.6354 28.1661 26.1825C27.8284 25.7296 27.3537 25.3976 26.8125 25.2356V19.3125C26.8125 19.1136 26.7335 18.9228 26.5928 18.7822C26.4522 18.6415 26.2614 18.5625 26.0625 18.5625C25.8636 18.5625 25.6728 18.6415 25.5322 18.7822C25.3915 18.9228 25.3125 19.1136 25.3125 19.3125V25.2356C24.8955 25.361 24.5161 25.5878 24.2082 25.8957C23.9003 26.2036 23.6735 26.583 23.5481 27H17.3438C17.1448 27 16.9541 27.079 16.8134 27.2197C16.6728 27.3603 16.5938 27.5511 16.5938 27.75C16.5938 27.9489 16.6728 28.1397 16.8134 28.2803C16.9541 28.421 17.1448 28.5 17.3438 28.5H23.5481C23.7281 29.1043 24.1196 29.6236 24.651 29.9629C25.1824 30.3023 25.8183 30.4389 26.4422 30.3479C27.0661 30.2568 27.6364 29.9442 28.0487 29.4671C28.461 28.9901 28.6878 28.3805 28.6875 27.75ZM26.0625 28.875C25.84 28.875 25.6225 28.809 25.4375 28.6854C25.2525 28.5618 25.1083 28.3861 25.0231 28.1805C24.938 27.975 24.9157 27.7488 24.9591 27.5305C25.0025 27.3123 25.1097 27.1118 25.267 26.9545C25.4243 26.7972 25.6248 26.69 25.843 26.6466C26.0613 26.6032 26.2875 26.6255 26.493 26.7106C26.6986 26.7958 26.8743 26.94 26.9979 27.125C27.1215 27.31 27.1875 27.5275 27.1875 27.75C27.1872 28.0483 27.0686 28.3343 26.8577 28.5452C26.6468 28.7561 26.3608 28.8747 26.0625 28.875Z" fill="#2D4356"/>
<path d="M56.5202 55.5H55.3686C55.4549 55.2593 55.4993 55.0057 55.4999 54.75V39.75C55.4992 39.1535 55.2619 38.5816 54.8401 38.1598C54.4183 37.738 53.8464 37.5007 53.2499 37.5H51.7499V39H53.2499C53.4487 39.0002 53.6394 39.0793 53.78 39.2199C53.9206 39.3605 53.9997 39.5511 53.9999 39.75V42H31.4999V39.75C31.5001 39.5511 31.5792 39.3605 31.7198 39.2199C31.8604 39.0793 32.051 39.0002 32.2499 39H33.3749V37.5H32.2499C31.6533 37.5007 31.0815 37.738 30.6596 38.1598C30.2378 38.5816 30.0006 39.1535 29.9999 39.75V54.75C30.0004 55.0057 30.0448 55.2593 30.1311 55.5H6.4795C6.3728 55.4861 6.26436 55.495 6.16141 55.5264C6.05846 55.5577 5.96338 55.6106 5.88251 55.6816C5.80164 55.7526 5.73686 55.84 5.69247 55.938C5.64809 56.036 5.62513 56.1424 5.62513 56.25C5.62513 56.3576 5.64809 56.464 5.69247 56.562C5.73686 56.66 5.80164 56.7474 5.88251 56.8184C5.96338 56.8894 6.05846 56.9423 6.16141 56.9736C6.26436 57.005 6.3728 57.0139 6.4795 57H56.5199C56.6266 57.0139 56.735 57.005 56.838 56.9736C56.9409 56.9423 57.036 56.8894 57.1169 56.8184C57.1977 56.7474 57.2625 56.66 57.3069 56.562C57.3513 56.464 57.3742 56.3576 57.3742 56.25C57.3742 56.1424 57.3513 56.036 57.3069 55.938C57.2625 55.84 57.1977 55.7526 57.1169 55.6816C57.036 55.6106 56.9409 55.5577 56.838 55.5264C56.735 55.495 56.6269 55.4861 56.5202 55.5ZM32.2499 55.5C32.051 55.4998 31.8604 55.4207 31.7198 55.2801C31.5792 55.1395 31.5001 54.9489 31.4999 54.75V43.5H53.9999V54.75C53.9997 54.9489 53.9206 55.1395 53.78 55.2801C53.6394 55.4207 53.4487 55.4998 53.2499 55.5H32.2499ZM25.6142 3C25.8368 3 26.0543 2.93402 26.2393 2.8104C26.4243 2.68679 26.5685 2.51109 26.6536 2.30552C26.7388 2.09995 26.761 1.87375 26.7176 1.65552C26.6742 1.4373 26.5671 1.23684 26.4097 1.07951C26.2524 0.922171 26.052 0.815025 25.8337 0.771617C25.6155 0.728209 25.3893 0.750487 25.1837 0.835636C24.9782 0.920785 24.8025 1.06498 24.6788 1.24998C24.5552 1.43499 24.4892 1.6525 24.4892 1.875C24.4895 2.17328 24.6082 2.45925 24.8191 2.67017C25.03 2.88108 25.316 2.9997 25.6142 3ZM25.6142 1.3125C25.7255 1.3125 25.8343 1.34549 25.9268 1.4073C26.0193 1.46911 26.0914 1.55696 26.1339 1.65974C26.1765 1.76252 26.1876 1.87562 26.1659 1.98474C26.1442 2.09385 26.0907 2.19408 26.012 2.27275C25.9333 2.35142 25.8331 2.40499 25.724 2.42669C25.6149 2.4484 25.5018 2.43726 25.399 2.39468C25.2962 2.35211 25.2084 2.28001 25.1465 2.18751C25.0847 2.09501 25.0517 1.98625 25.0517 1.875C25.0518 1.72585 25.1111 1.58283 25.2166 1.47736C25.3221 1.3719 25.4651 1.3126 25.6142 1.3125ZM58.6142 29.625C58.4659 29.625 58.3209 29.669 58.1976 29.7514C58.0742 29.8338 57.9781 29.9509 57.9213 30.088C57.8646 30.225 57.8497 30.3758 57.8787 30.5213C57.9076 30.6668 57.979 30.8004 58.0839 30.9053C58.1888 31.0102 58.3224 31.0816 58.4679 31.1106C58.6134 31.1395 58.7642 31.1247 58.9013 31.0679C59.0383 31.0111 59.1554 30.915 59.2379 30.7917C59.3203 30.6683 59.3642 30.5233 59.3642 30.375C59.364 30.1761 59.285 29.9855 59.1444 29.8449C59.0037 29.7043 58.8131 29.6252 58.6142 29.625ZM58.6142 30.75C58.5401 30.75 58.4676 30.728 58.4059 30.6868C58.3442 30.6456 58.2962 30.587 58.2678 30.5185C58.2394 30.45 58.232 30.3746 58.2465 30.3018C58.2609 30.2291 58.2966 30.1623 58.3491 30.1098C58.4015 30.0574 58.4683 30.0217 58.5411 30.0072C58.6138 29.9927 58.6892 30.0002 58.7578 30.0285C58.8263 30.0569 58.8848 30.105 58.9261 30.1667C58.9673 30.2283 58.9892 30.3008 58.9892 30.375C58.9891 30.4744 58.9496 30.5698 58.8793 30.6401C58.809 30.7104 58.7137 30.7499 58.6142 30.75ZM2.42725 2.625C2.27891 2.625 2.13391 2.66899 2.01057 2.7514C1.88723 2.83381 1.7911 2.95094 1.73434 3.08799C1.67757 3.22503 1.66272 3.37583 1.69166 3.52132C1.7206 3.6668 1.79203 3.80044 1.89692 3.90533C2.00181 4.01022 2.13544 4.08165 2.28093 4.11059C2.42641 4.13953 2.57721 4.12468 2.71426 4.06791C2.8513 4.01114 2.96844 3.91501 3.05085 3.79168C3.13326 3.66834 3.17725 3.52334 3.17725 3.375C3.17705 3.17615 3.09797 2.9855 2.95736 2.84489C2.81675 2.70428 2.6261 2.6252 2.42725 2.625ZM2.42725 3.75C2.35308 3.75 2.28058 3.72801 2.21891 3.6868C2.15724 3.6456 2.10917 3.58703 2.08079 3.51851C2.05241 3.44998 2.04498 3.37458 2.05945 3.30184C2.07392 3.2291 2.10964 3.16228 2.16208 3.10984C2.21453 3.05739 2.28134 3.02168 2.35409 3.00721C2.42683 2.99274 2.50223 3.00016 2.57075 3.02855C2.63928 3.05693 2.69784 3.10499 2.73905 3.16666C2.78025 3.22833 2.80225 3.30083 2.80225 3.375C2.80215 3.47443 2.76261 3.56975 2.6923 3.64006C2.622 3.71036 2.52667 3.7499 2.42725 3.75ZM51.3749 2.25C51.2265 2.25 51.0815 2.29399 50.9582 2.3764C50.8349 2.45881 50.7387 2.57594 50.682 2.71299C50.6252 2.85003 50.6103 3.00083 50.6393 3.14632C50.6682 3.2918 50.7397 3.42544 50.8445 3.53033C50.9494 3.63522 51.0831 3.70665 51.2286 3.73559C51.374 3.76453 51.5248 3.74968 51.6619 3.69291C51.7989 3.63614 51.9161 3.54001 51.9985 3.41668C52.0809 3.29334 52.1249 3.14834 52.1249 3C52.1247 2.80115 52.0456 2.6105 51.905 2.46989C51.7644 2.32928 51.5737 2.2502 51.3749 2.25ZM51.3749 3.375C51.3007 3.375 51.2282 3.35301 51.1665 3.3118C51.1049 3.2706 51.0568 3.21203 51.0284 3.14351C51 3.07498 50.9926 2.99958 51.0071 2.92684C51.0215 2.8541 51.0573 2.78728 51.1097 2.73484C51.1622 2.68239 51.229 2.64668 51.3017 2.63221C51.3745 2.61774 51.4499 2.62516 51.5184 2.65355C51.5869 2.68193 51.6455 2.72999 51.6867 2.79166C51.7279 2.85333 51.7499 2.92583 51.7499 3C51.7498 3.09943 51.7102 3.19475 51.6399 3.26506C51.5696 3.33536 51.4743 3.3749 51.3749 3.375ZM3.92725 21.75C3.92725 21.6017 3.88326 21.4567 3.80085 21.3333C3.71844 21.21 3.6013 21.1139 3.46426 21.0571C3.32721 21.0003 3.17641 20.9855 3.03093 21.0144C2.88544 21.0434 2.75181 21.1148 2.64692 21.2197C2.54203 21.3246 2.4706 21.4582 2.44166 21.6037C2.41272 21.7492 2.42757 21.9 2.48434 22.037C2.5411 22.1741 2.63723 22.2912 2.76057 22.3736C2.88391 22.456 3.02891 22.5 3.17725 22.5C3.3761 22.4998 3.56675 22.4207 3.70736 22.2801C3.84797 22.1395 3.92705 21.9489 3.92725 21.75ZM2.80225 21.75C2.80225 21.6758 2.82424 21.6033 2.86545 21.5417C2.90665 21.48 2.96522 21.4319 3.03374 21.4035C3.10226 21.3752 3.17766 21.3677 3.25041 21.3822C3.32315 21.3967 3.38997 21.4324 3.44241 21.4848C3.49486 21.5373 3.53057 21.6041 3.54504 21.6768C3.55951 21.7496 3.55208 21.825 3.5237 21.8935C3.49532 21.962 3.44725 22.0206 3.38559 22.0618C3.32392 22.103 3.25141 22.125 3.17725 22.125C3.07782 22.1249 2.9825 22.0854 2.91219 22.0151C2.84189 21.9447 2.80235 21.8494 2.80225 21.75Z" fill="#2D4356"/>
<path d="M12.343 8.94532L12.9006 8.2122L12.5485 8.0127L12.1907 8.83394H12.1787L11.8154 8.01832L11.4569 8.22382L12.0089 8.9397V8.95132L11.146 8.83995V9.23894L12.0145 9.12757V9.1392L11.4569 9.85469L11.7914 10.0662L12.1731 9.23894H12.1844L12.5365 10.0602L12.9062 9.84907L12.343 9.14482V9.13319L13.2287 9.23894V8.83995L12.343 8.95732V8.94532ZM49.4001 26.6824L49.0791 27.0946L49.2719 27.2164L49.4916 26.7398H49.4984L49.7009 27.2131L49.9139 27.0912L49.5895 26.6858V26.6791L50.0995 26.7398V26.5103L49.5895 26.5778V26.5711L49.9105 26.1488L49.708 26.0337L49.5017 26.5066H49.495L49.2857 26.0371L49.0791 26.1552L49.3971 26.5677V26.5744L48.9002 26.5103V26.7398L49.4001 26.6757V26.6824ZM41.5214 9.2352V8.8437L40.6525 8.95882V8.94719L41.1996 8.22795L40.8542 8.0322L40.5032 8.83769H40.4912L40.135 8.03782L39.7832 8.23957L40.3247 8.94157V8.9532L39.4784 8.8437V9.2352L40.3304 9.12569V9.13732L39.7832 9.83932L40.1114 10.0467L40.486 9.2352H40.4969L40.8422 10.0407L41.2052 9.83369L40.6525 9.14295V9.13132L41.5214 9.2352ZM60.8815 15.0312L61.3532 14.4106L61.0555 14.2418L60.7529 14.9367H60.7427L60.4349 14.2467L60.1319 14.4203L60.5987 15.0263V15.0361L59.8686 14.9416V15.2791L60.6036 15.1849V15.1951L60.1319 15.8003L60.4146 15.9792L60.7379 15.2791H60.7476L61.0454 15.9743L61.3581 15.7954L60.8815 15.1999V15.1898L61.6311 15.2791V14.9416L60.8815 15.0409V15.0312Z" fill="#0BB0CE"/>
</svg>
