<svg width="102" height="101" viewBox="0 0 102 101" fill="none" xmlns="http://www.w3.org/2000/svg">
<rect x="1.4068" y="0.75" width="99.5" height="99.5" rx="5.25" fill="#1FAB89" fill-opacity="0.08" stroke="#1FAB89" stroke-width="1.5"/>
<path d="M53.7816 25.8871C54.2969 24.3852 58.6056 24.1949 61.8619 25.1123C62.1893 25.2041 69.7045 27.4569 71.6028 34.6335C73.5793 42.0988 68.1403 49.8405 65.7356 49.4713C63.075 49.059 65.6224 38.9376 58.43 31.206C56.0072 28.5953 53.3353 27.184 53.7816 25.8871ZM43.0961 25.8871C42.5807 24.3852 38.2721 24.1949 35.0157 25.1123C34.6883 25.2041 27.1731 27.4569 25.2748 34.6335C23.2983 42.0988 28.7373 49.8405 31.142 49.4713C33.8026 49.059 31.2552 38.9376 38.4476 31.206C40.8704 28.5953 43.5423 27.184 43.0961 25.8871ZM60.1584 66.6073C61.0895 66.2788 61.6717 68.4603 63.9132 69.2543C67.5377 70.5387 71.7138 66.8519 72.0627 66.5359C73.3401 65.3695 74.3312 63.9241 74.9589 62.3122C75.0183 62.16 75.1267 62.0319 75.2669 61.948C75.4072 61.8642 75.5714 61.8294 75.7336 61.8491C75.8958 61.8688 76.0468 61.942 76.1629 62.057C76.279 62.172 76.3535 62.3224 76.3747 62.4844C76.676 64.744 76.5865 67.9268 74.6089 70.695C71.2052 75.4692 63.7025 76.8839 61.2073 74.4498C60.4846 73.7453 60.163 72.6998 59.9081 71.8673C59.2761 69.8127 59.2059 66.9425 60.1584 66.6073Z" fill="#F5DEA3"/>
<path d="M64.4093 65.7682C64.4087 69.3172 62.9986 72.7207 60.489 75.2302C57.9795 77.7398 54.576 79.1499 51.0269 79.1505H45.8507C43.4184 79.1505 41.0321 78.4876 38.9483 77.2331C36.8644 75.9785 35.162 74.1798 34.0238 72.0302C32.8856 69.8806 32.3549 67.4615 32.4885 65.0328C32.6222 62.6042 33.4152 60.2579 34.7824 58.2462L38.4216 52.891L44.3612 44.1514H52.5164L59.8696 54.9683L62.0953 58.2428C63.6036 60.4625 64.4098 63.0844 64.4093 65.7682Z" fill="#F5DEA3"/>
<path d="M48.4388 63.5459C46.0978 63.5459 43.8526 64.4759 42.1973 66.1312C40.5419 67.7866 39.612 70.0317 39.612 72.3727V77.609C41.5345 78.6245 43.6764 79.1537 45.8507 79.1505H51.0269C53.2011 79.1537 55.3431 78.6245 57.2656 77.609V72.3727C57.2656 70.0317 56.3356 67.7866 54.6803 66.1312C53.0249 64.4759 50.7798 63.5459 48.4388 63.5459Z" fill="#FEF1DA"/>
<path d="M59.8696 54.9683C57.2248 57.2834 53.8348 58.672 50.1378 58.672C45.435 58.672 41.2283 56.4249 38.4216 52.8955L44.3612 44.1514H52.5164L59.8696 54.9683Z" fill="#F5DEA3"/>
<path d="M48.4388 55.2741C56.89 55.2741 63.741 48.0174 63.741 39.0658C63.741 30.1141 56.89 22.8574 48.4388 22.8574C39.9876 22.8574 33.1366 30.1141 33.1366 39.0658C33.1366 48.0174 39.9876 55.2741 48.4388 55.2741Z" fill="#F5DEA3"/>
<path d="M52.5243 46.6999L49.1841 50.0401C49.0567 50.1674 48.8839 50.2388 48.7039 50.2388C48.5238 50.2388 48.351 50.1674 48.2236 50.0401L44.8834 46.6999C44.7885 46.6048 44.7238 46.4838 44.6977 46.3521C44.6715 46.2203 44.685 46.0838 44.7363 45.9596C44.7877 45.8355 44.8747 45.7294 44.9864 45.6548C45.098 45.5801 45.2293 45.5402 45.3636 45.54H52.0463C52.1805 45.5406 52.3114 45.5808 52.4227 45.6557C52.534 45.7306 52.6207 45.8367 52.6718 45.9607C52.7229 46.0847 52.7362 46.2211 52.7099 46.3526C52.6837 46.4841 52.6191 46.605 52.5243 46.6999Z" fill="#444444"/>
<path d="M53.8257 36.7517C54.051 36.7517 54.2671 36.6622 54.4264 36.5029C54.5857 36.3436 54.6752 36.1275 54.6752 35.9022V33.7433C54.6752 33.518 54.5857 33.302 54.4264 33.1427C54.2671 32.9834 54.051 32.8939 53.8257 32.8939C53.6004 32.8939 53.3843 32.9834 53.225 33.1427C53.0657 33.302 52.9762 33.518 52.9762 33.7433V35.9022C52.9762 36.1275 53.0657 36.3436 53.225 36.5029C53.3843 36.6622 53.6004 36.7517 53.8257 36.7517ZM77.2162 62.3724C77.1699 62.0243 77.0093 61.7015 76.7596 61.4546C76.51 61.2076 76.1855 61.0505 75.8369 61.0079C75.4884 60.9652 75.1355 61.0395 74.8338 61.219C74.532 61.3985 74.2983 61.6731 74.1694 61.9998C73.5908 63.4911 72.6747 64.8282 71.4929 65.9063C71.34 66.0445 67.9817 69.0438 64.9677 68.6383C65.351 66.7728 65.3565 64.8494 64.9837 62.9818C64.611 61.1141 63.8676 59.3402 62.7975 57.7648L58.9068 52.0403C60.8411 50.2897 62.3497 48.1201 63.3174 45.6974C63.6821 48.2414 64.0174 50.0525 65.6065 50.2994C65.7092 50.3149 65.813 50.3224 65.9168 50.3221C67.0824 50.3221 68.2161 49.348 68.9897 48.4883C70.3489 46.9807 71.5156 44.8083 72.1929 42.5282C73.0175 39.7544 73.099 36.9465 72.4194 34.4082C70.3807 26.7061 62.4249 24.3819 62.0873 24.2868C60.0078 23.7012 57.568 23.5404 55.758 23.8575C53.509 22.6385 50.9913 22 48.4331 22C45.875 22 43.3573 22.6385 41.1082 23.8575C39.296 23.5404 36.8585 23.7012 34.7789 24.2868C34.4391 24.3819 26.4867 26.7027 24.4468 34.4082C23.7797 36.959 23.8601 39.7623 24.6847 42.5362C25.3643 44.8162 26.5298 46.9887 27.8878 48.4962C28.6614 49.3559 29.7952 50.3311 30.9607 50.33C31.0646 50.3304 31.1684 50.3228 31.2711 50.3073C32.8568 50.0604 33.1966 48.2493 33.5602 45.7053C34.5279 48.1281 36.0365 50.2976 37.9708 52.0482L34.0801 57.7727C32.9584 59.423 32.1963 61.2908 31.8434 63.2548C31.4905 65.2187 31.5545 67.235 32.0315 69.1726C32.5084 71.1102 33.3875 72.9258 34.6117 74.5015C35.8359 76.0773 37.3779 77.378 39.1374 78.3191C39.1865 78.351 39.2385 78.3783 39.2926 78.4007C41.3175 79.4552 43.5676 80.004 45.8507 80H51.0269C53.3104 80.0026 55.5605 79.4523 57.585 78.3961C57.6393 78.3742 57.6913 78.3469 57.7402 78.3146C59.0648 77.6013 60.2688 76.684 61.3081 75.5962C62.2244 76.1682 63.4431 76.4683 64.8646 76.4683C65.181 76.4683 65.5068 76.4536 65.8421 76.4242C69.5504 76.0934 73.2633 74.0377 75.2998 71.1868C77.4541 68.1739 77.5311 64.7306 77.2162 62.3724ZM61.632 25.9303C61.7056 25.9507 68.9886 28.0733 70.7827 34.8511C72.151 40.0183 69.7045 45.1583 67.7246 47.3602C66.8184 48.3614 66.1185 48.6673 65.8647 48.6276C65.4355 48.5619 65.1364 46.4518 64.9382 45.0563C64.7966 44.0562 64.6358 42.9269 64.3934 41.7127C64.5233 40.8364 64.5884 39.9516 64.5882 39.0657C64.5882 33.4862 62.0386 28.5241 58.1049 25.4092C59.2973 25.4396 60.4817 25.6146 61.632 25.9303ZM32.483 41.7241C32.4751 41.7535 32.4672 41.7818 32.4615 41.8124C32.235 42.9904 32.0741 44.0879 31.9371 45.0563C31.7389 46.4518 31.4399 48.5619 31.0106 48.6276C30.7591 48.6684 30.0524 48.3626 29.1508 47.3602C27.1731 45.1628 24.7266 40.0183 26.0926 34.8511C27.8867 28.0733 35.1697 25.9507 35.2433 25.9303C36.3935 25.6134 37.5778 25.4373 38.7704 25.4058C34.8367 28.5207 32.2871 33.4828 32.2871 39.0623C32.2866 39.9532 32.3521 40.8429 32.483 41.7241ZM33.9861 39.0657C33.9861 30.5968 40.4694 23.7069 48.4388 23.7069C56.4082 23.7069 62.8915 30.5968 62.8915 39.0657C62.8915 47.5346 56.4082 54.4234 48.4388 54.4234C40.4694 54.4234 33.9861 47.5346 33.9861 39.0657ZM56.4127 77.0811C54.7313 77.8855 52.8908 78.3023 51.0269 78.301H45.8507C43.9856 78.3028 42.1439 77.886 40.4615 77.0811V72.3727C40.4615 70.2569 41.3019 68.2279 42.798 66.7318C44.294 65.2358 46.3231 64.3953 48.4388 64.3953C50.5545 64.3953 52.5836 65.2358 54.0796 66.7318C55.5756 68.2279 56.4161 70.2569 56.4161 72.3727L56.4127 77.0811ZM58.1117 76.098V72.3727C58.1117 69.8063 57.0922 67.3451 55.2776 65.5305C53.4629 63.7158 51.0017 62.6964 48.4354 62.6964C45.8691 62.6964 43.4079 63.7158 41.5932 65.5305C39.7786 67.3451 38.7591 69.8063 38.7591 72.3727V76.098C36.0257 74.2243 34.146 71.344 33.5316 68.0875C32.9172 64.831 33.6183 61.4637 35.4812 58.723L39.2914 53.1175C41.9405 55.0695 45.1448 56.1225 48.4354 56.1225C51.726 56.1225 54.9303 55.0695 57.5794 53.1175L61.3896 58.723C63.2525 61.4637 63.9535 64.831 63.3392 68.0875C62.7248 71.344 60.8451 74.2243 58.1117 76.098ZM73.9236 70.2013C71.7829 73.1961 68.1538 74.5145 65.6971 74.732C64.3674 74.8452 63.2257 74.6855 62.4305 74.2789C63.3359 73.0683 64.0422 71.7208 64.5225 70.2874C66.0562 70.5581 67.7665 70.2093 69.6195 69.2409C70.7015 68.6712 71.7118 67.9746 72.629 67.1658C73.8959 66.0119 74.9002 64.5993 75.5739 63.0237C75.7902 65.0489 75.6226 67.8103 73.9236 70.2013ZM44.2831 47.2979L47.6222 50.6381C47.909 50.9245 48.2979 51.0854 48.7033 51.0854C49.1087 51.0854 49.4975 50.9245 49.7844 50.6381L53.1246 47.2979C53.3372 47.084 53.4817 46.812 53.54 46.5162C53.5983 46.2203 53.5678 45.9138 53.4523 45.6353C53.3368 45.3568 53.1414 45.1186 52.8908 44.9509C52.6402 44.7832 52.3456 44.6934 52.044 44.6928H45.3614C45.0598 44.6934 44.7652 44.7832 44.5146 44.9509C44.264 45.1186 44.0687 45.3568 43.9531 45.6353C43.8376 45.9138 43.8071 46.2203 43.8654 46.5162C43.9237 46.812 44.0682 47.084 44.2808 47.2979H44.2831ZM51.6329 46.3917L48.7038 49.3163L45.7737 46.3872L51.6329 46.3917ZM43.0519 36.7562C43.2772 36.7562 43.4932 36.6667 43.6526 36.5074C43.8119 36.3481 43.9014 36.132 43.9014 35.9067V33.7433C43.9014 33.518 43.8119 33.302 43.6526 33.1427C43.4932 32.9834 43.2772 32.8939 43.0519 32.8939C42.8266 32.8939 42.6105 32.9834 42.4512 33.1427C42.2919 33.302 42.2024 33.518 42.2024 33.7433V35.9022C42.2024 36.1275 42.2919 36.3436 42.4512 36.5029C42.6105 36.6622 42.8266 36.7517 43.0519 36.7517V36.7562Z" fill="black"/>
</svg>
