<svg width="12" height="13" viewBox="0 0 12 13" fill="none" xmlns="http://www.w3.org/2000/svg">
<path id="21. Verified" d="M11.5025 7.4487C11.3083 7.17119 11.2038 6.83726 11.2038 6.49458C11.2038 6.1519 11.3083 5.81797 11.5025 5.54046L11.9004 4.97124C11.949 4.90173 11.981 4.82125 11.9938 4.73643C12.0065 4.65161 11.9996 4.56486 11.9737 4.48334C11.9474 4.40267 11.9035 4.32937 11.8454 4.26918C11.7873 4.20899 11.7165 4.16354 11.6386 4.13638L10.9946 3.91954C10.6792 3.81417 10.4042 3.60774 10.2094 3.33004C10.0146 3.05234 9.91009 2.71773 9.91089 2.37451V1.66976C9.91083 1.5842 9.89121 1.49986 9.85364 1.42366C9.81606 1.34745 9.7616 1.28153 9.6947 1.2313C9.62781 1.18107 9.55038 1.14795 9.46875 1.13464C9.38712 1.12134 9.30361 1.12823 9.22505 1.15475L8.57585 1.3716C8.26068 1.4772 7.92133 1.47692 7.60632 1.37079C7.29132 1.26466 7.01678 1.05812 6.82197 0.780695L6.42407 0.211475C6.37327 0.145504 6.30876 0.0922345 6.23534 0.0556232C6.16193 0.0190119 6.08149 0 6 0C5.91851 0 5.83807 0.0190119 5.76465 0.0556232C5.69124 0.0922345 5.62673 0.145504 5.57593 0.211475L5.17803 0.780695C4.98322 1.05812 4.70868 1.26466 4.39368 1.37079C4.07867 1.47692 3.73932 1.4772 3.42415 1.3716L2.77495 1.15475C2.69639 1.12823 2.61288 1.12134 2.53125 1.13464C2.44962 1.14795 2.37219 1.18107 2.3053 1.2313C2.2384 1.28153 2.18394 1.34745 2.14636 1.42366C2.10879 1.49986 2.08917 1.5842 2.08911 1.66976V2.37451C2.08991 2.71773 1.98537 3.05234 1.79058 3.33004C1.59579 3.60774 1.32082 3.81417 1.00537 3.91954L0.361404 4.13638C0.283495 4.16354 0.21271 4.20899 0.154583 4.26918C0.0964551 4.32937 0.0525614 4.40267 0.0263338 4.48334C0.00037196 4.56486 -0.0065212 4.65161 0.00622165 4.73643C0.0189645 4.82125 0.0509791 4.90173 0.0996304 4.97124L0.497526 5.54046C0.69168 5.81797 0.796217 6.1519 0.796217 6.49458C0.796217 6.83726 0.69168 7.17119 0.497526 7.4487L0.0996304 8.01792C0.0509791 8.08743 0.0189645 8.16791 0.00622165 8.25273C-0.0065212 8.33756 0.00037196 8.4243 0.0263338 8.50583C0.0525614 8.5865 0.0964551 8.65979 0.154583 8.71998C0.21271 8.78017 0.283495 8.82562 0.361404 8.85278L1.00537 9.06962C1.32082 9.17499 1.59579 9.38142 1.79058 9.65912C1.98537 9.93682 2.08991 10.2714 2.08911 10.6147V11.3194C2.08917 11.405 2.10879 11.4893 2.14636 11.5655C2.18394 11.6417 2.2384 11.7076 2.3053 11.7579C2.37219 11.8081 2.44962 11.8412 2.53125 11.8545C2.61288 11.8678 2.69639 11.8609 2.77495 11.8344L3.41892 11.6176C3.73476 11.5102 4.07539 11.5096 4.3916 11.6158C4.70781 11.722 4.98322 11.9296 5.17803 12.2085L5.57593 12.7777C5.62481 12.8466 5.68867 12.9026 5.76234 12.9413C5.83601 12.9799 5.91742 13 6 13C6.08257 13 6.16399 12.9799 6.23766 12.9413C6.31133 12.9026 6.37519 12.8466 6.42407 12.7777L6.82197 12.2085C7.01711 11.9299 7.29253 11.7227 7.60863 11.6165C7.92473 11.5103 8.2652 11.5107 8.58108 11.6176L9.22505 11.8344C9.30361 11.8609 9.38712 11.8678 9.46875 11.8545C9.55038 11.8412 9.62781 11.8081 9.6947 11.7579C9.7616 11.7076 9.81606 11.6417 9.85364 11.5655C9.89121 11.4893 9.91083 11.405 9.91089 11.3194V10.6147C9.91009 10.2714 10.0146 9.93682 10.2094 9.65912C10.4042 9.38142 10.6792 9.17499 10.9946 9.06962L11.6386 8.85278C11.7165 8.82562 11.7873 8.78017 11.8454 8.71998C11.9035 8.65979 11.9474 8.5865 11.9737 8.50583C11.9996 8.4243 12.0065 8.33756 11.9938 8.25273C11.981 8.16791 11.949 8.08743 11.9004 8.01792L11.5025 7.4487ZM8.4659 5.79363L5.84817 8.5042C5.74999 8.60583 5.61685 8.66292 5.47802 8.66292C5.3392 8.66292 5.20606 8.60583 5.10788 8.5042L3.53724 6.87786C3.48723 6.82785 3.44735 6.76803 3.41991 6.70189C3.39247 6.63575 3.37803 6.56461 3.37742 6.49263C3.37682 6.42065 3.39007 6.34926 3.41639 6.28264C3.44272 6.21602 3.48159 6.15549 3.53075 6.10459C3.5799 6.05369 3.63836 6.01343 3.7027 5.98618C3.76704 5.95892 3.83598 5.9452 3.9055 5.94583C3.97502 5.94645 4.04372 5.96141 4.10759 5.98982C4.17147 6.01823 4.22924 6.05953 4.27753 6.11131L5.47645 7.35437L7.72404 5.02708C7.82278 4.92833 7.95503 4.87369 8.0923 4.87492C8.22957 4.87616 8.36089 4.93317 8.45796 5.03368C8.55503 5.13419 8.61009 5.27016 8.61128 5.4123C8.61247 5.55444 8.5597 5.69138 8.46433 5.79363H8.4659Z" fill="#1FAB89"/>
</svg>
