<svg width="86" height="69" viewBox="0 0 86 69" fill="none" xmlns="http://www.w3.org/2000/svg">
<g id="Group 48095869">
<path id="Vector" d="M85.5769 66.8872H0V68.9999H85.5769V66.8872Z" fill="#7A8490"/>
<path id="Vector_2" d="M77.2446 21.4995H8.3285V66.8887H77.2446V21.4995Z" fill="#DADFE8"/>
<path id="Vector_3" d="M77.248 8.67725H8.32916V19.2567H77.248V8.67725Z" fill="#CED4DD"/>
<path id="Vector_4" d="M77.248 0H8.32916V3.95258H77.248V0Z" fill="#DADFE8"/>
<path id="Vector_5" opacity="0.08" d="M64.7089 8.67627L62.7299 19.2597H60.7041L62.6831 8.67627H64.7089Z" fill="#2C2C34"/>
<path id="Vector_6" d="M62.685 8.67725L60.7041 19.2567H24.8728L22.8918 8.67725H62.685Z" fill="#DADFE8"/>
<path id="Vector_7" opacity="0.08" d="M20.868 8.67627L22.847 19.2597H24.8728L22.8938 8.67627H20.868Z" fill="#2C2C34"/>
<path id="Vector_8" opacity="0.08" d="M77.248 21.4956H8.32916V23.3689H77.248V21.4956Z" fill="#2C2C34"/>
<path id="Vector_9" d="M78.577 19.1816H7.00063V21.4956H78.577V19.1816Z" fill="#4DD0E2"/>
<path id="Vector_10" d="M78.577 6.19678H7.00063V8.67784H78.577V6.19678Z" fill="#26C7DB"/>
<path id="Vector_11" opacity="0.08" d="M78.577 6.19678H7.00063V7.11004H78.577V6.19678Z" fill="#2C2C34"/>
<path id="Vector_12" d="M79.4475 6.19666L81.1189 3.31445H4.45811L6.12954 6.19666H79.4475Z" fill="#4DD0E2"/>
<path id="Vector_13" d="M29.6587 14.4904L30.5946 12.151H31.483L30.0057 15.8256H29.3118L27.8344 12.151H28.723L29.6587 14.4904ZM34.569 12.151V12.8817H32.7394V13.6388H34.385V14.3381H32.7394V15.1002H34.6268V15.8256H31.9194V12.151H34.569ZM36.9135 12.8607V15.8256H36.0934V12.8607H35.0524V12.151H37.9545V12.8607H36.9135ZM41.6291 15.1002C42.0322 15.1002 42.3618 14.9409 42.6176 14.6219L43.1432 15.1634C42.7261 15.6331 42.2347 15.8678 41.6687 15.8678C41.1027 15.8678 40.6363 15.6892 40.2703 15.3315C39.9039 14.974 39.7208 14.5229 39.7208 13.9778C39.7208 13.433 39.9075 12.9782 40.2808 12.6137C40.6541 12.2492 41.1104 12.0669 41.6503 12.0669C42.2531 12.0669 42.7578 12.2964 43.1644 12.7555L42.6544 13.3339C42.395 13.0113 42.0726 12.85 41.6871 12.85C41.3786 12.85 41.1149 12.951 40.8958 13.1525C40.6768 13.354 40.5672 13.6257 40.5672 13.9673C40.5672 14.309 40.6706 14.5832 40.8774 14.7901C41.0843 14.9969 41.3348 15.1002 41.6291 15.1002ZM43.7901 15.8256V12.151H44.6101V15.0949H46.1768V15.8256H43.7901ZM46.7762 12.151H47.5962V15.8256H46.7762V12.151ZM51.071 12.151H51.8912V15.8256H51.071L49.3203 13.523V15.8256H48.5004V12.151H49.2679L51.071 14.5167V12.151ZM52.7956 12.151H53.6156V15.8256H52.7956V12.151ZM56.2072 15.1002C56.6102 15.1002 56.9399 14.9409 57.1957 14.6219L57.7213 15.1634C57.3042 15.6331 56.8128 15.8678 56.2468 15.8678C55.6808 15.8678 55.2144 15.6892 54.8484 15.3315C54.482 14.974 54.2988 14.5229 54.2988 13.9778C54.2988 13.433 54.4856 12.9782 54.8589 12.6137C55.2322 12.2492 55.6885 12.0669 56.2284 12.0669C56.8312 12.0669 57.3358 12.2964 57.7425 12.7555L57.2325 13.3339C56.973 13.0113 56.6507 12.85 56.2652 12.85C55.9567 12.85 55.6929 12.951 55.4739 13.1525C55.2548 13.354 55.1453 13.6257 55.1453 13.9673C55.1453 14.309 55.2486 14.5832 55.4555 14.7901C55.6624 14.9969 55.9129 15.1002 56.2072 15.1002Z" fill="#FF3333"/>
<path id="Vector_14" opacity="0.08" d="M77.248 8.67725H8.32916V10.1782H77.248V8.67725Z" fill="#2C2C34"/>
<path id="Vector_15" opacity="0.08" d="M77.248 17.6821H8.32916V19.1831H77.248V17.6821Z" fill="#2C2C34"/>
<path id="Vector_16" d="M46.1759 31.5571H12.46V58.9932H46.1759V31.5571Z" fill="white"/>
<path id="Vector_17" d="M44.839 32.8936H13.7974V57.6554H44.839V32.8936Z" fill="#4DD0E2"/>
<path id="Vector_18" d="M36.4625 45.2749C36.4625 49.2164 33.2696 52.4193 29.3182 52.4193C25.377 52.4193 22.1741 49.2164 22.1741 45.2749C22.1741 41.3237 25.377 38.1309 29.3182 38.1309C33.2696 38.1309 36.4625 41.3237 36.4625 45.2749Z" fill="white"/>
<g id="Group">
<path id="Vector_19" d="M30.1851 41.1782H28.4509V49.3715H30.1851V41.1782Z" fill="#4DD0E2"/>
<path id="Vector_20" d="M26.2035 42.4751L25.3364 43.9771L32.432 48.0737L33.2991 46.5718L26.2035 42.4751Z" fill="#4DD0E2"/>
<path id="Vector_21" d="M32.4326 42.4751L25.3369 46.5718L26.2041 48.0737L33.2997 43.977L32.4326 42.4751Z" fill="#4DD0E2"/>
</g>
<path id="Vector_22" d="M71.9748 35.7192H51.891V66.8879H71.9748V35.7192Z" fill="#44433F"/>
<path id="Vector_23" d="M70.972 36.7227H52.8939V66.8885H70.972V36.7227Z" fill="white"/>
<path id="Vector_24" d="M68.2976 39.397H55.5681V55.4085H68.2976V39.397Z" fill="#4DD0E2"/>
<path id="Vector_25" d="M68.2976 58.1108H55.5681V64.2135H68.2976V58.1108Z" fill="#4DD0E2"/>
<path id="Vector_26" opacity="0.08" d="M77.2446 21.4995V66.8887H52.3872L8.3285 22.83V21.4995H77.2446Z" fill="#2C2C34"/>
</g>
</svg>
