<svg width="77" height="72" viewBox="0 0 77 72" fill="none" xmlns="http://www.w3.org/2000/svg">
<g filter="url(#filter0_d_260_7103)">
<rect x="12" y="10" width="53" height="48" rx="8" fill="#1FAB89"/>
<rect x="12.05" y="10.05" width="52.9" height="47.9" rx="7.95" stroke="#9A9A9A" stroke-width="0.1"/>
</g>
<path d="M38.5 37.4211C40.7461 37.4211 42.5579 35.5805 42.5579 33.3158L42.5714 25.1053C42.5714 22.8337 40.7529 21 38.5 21C36.2539 21 34.4286 22.8337 34.4286 25.1053V33.3158C34.4286 35.5805 36.2539 37.4211 38.5 37.4211ZM45.6929 33.3158C45.6929 37.4211 42.2525 40.2947 38.5 40.2947C34.7543 40.2947 31.3071 37.4211 31.3071 33.3158H29C29 37.9889 32.6914 41.8479 37.1429 42.5116V47H39.8571V42.5116C44.3086 41.8479 48 37.9889 48 33.3158H45.6929Z" fill="white"/>
<defs>
<filter id="filter0_d_260_7103" x="0" y="0" width="77" height="72" filterUnits="userSpaceOnUse" color-interpolation-filters="sRGB">
<feFlood flood-opacity="0" result="BackgroundImageFix"/>
<feColorMatrix in="SourceAlpha" type="matrix" values="0 0 0 0 0 0 0 0 0 0 0 0 0 0 0 0 0 0 127 0" result="hardAlpha"/>
<feOffset dy="2"/>
<feGaussianBlur stdDeviation="6"/>
<feComposite in2="hardAlpha" operator="out"/>
<feColorMatrix type="matrix" values="0 0 0 0 0 0 0 0 0 0 0 0 0 0 0 0 0 0 0.07 0"/>
<feBlend mode="normal" in2="BackgroundImageFix" result="effect1_dropShadow_260_7103"/>
<feBlend mode="normal" in="SourceGraphic" in2="effect1_dropShadow_260_7103" result="shape"/>
</filter>
</defs>
</svg>
