<svg width="67" height="74" viewBox="0 0 67 74" fill="none" xmlns="http://www.w3.org/2000/svg">
<g id="Group">
<path id="Vector" opacity="0.2" d="M65.6525 71.6144C65.3774 70.8517 64.7758 70.2606 64.1922 69.6973C62.7641 68.3183 61.3356 66.9394 59.9075 65.5601C58.2325 63.9429 56.5394 62.3118 54.5488 61.1047C52.5577 59.8977 50.215 59.1343 47.9045 59.4214C47.2316 59.5051 46.5691 59.6793 45.892 59.7281C45.3212 59.7694 44.7867 59.5975 44.2331 59.6279C42.9713 59.6973 41.5211 60.4179 40.4469 61.0297C39.8427 61.3738 39.2298 61.8407 38.8909 62.4236L33.0877 60.7388C33.0644 60.5429 33.0506 60.5436 32.9898 60.3515C32.7041 59.4458 32.0507 58.7038 31.3515 58.0609C26.5253 53.6228 19.3503 52.9296 13.7446 49.5288C11.9138 48.4182 10.2215 47.0123 8.20415 46.2395C6.18419 45.4656 4.38304 45.8608 2.79357 47.3895C2.0358 48.1184 1.55502 49.2331 1.86691 50.2374C2.20619 51.33 3.32276 51.9537 4.33762 52.4818C9.84991 55.3492 15.1693 58.5875 20.2477 62.168C21.806 63.2666 23.3651 64.4102 25.1464 65.0906C26.9276 65.7711 28.9982 65.9396 30.7026 65.0842C32.0586 64.4038 33.0641 62.9614 33.1312 61.4842L38.657 63.0327C38.6364 63.1382 38.6233 63.2459 38.6225 63.3574C38.618 64.1133 39.1311 64.7952 39.7654 65.207C40.3993 65.6187 41.1465 65.812 41.8746 66.015C44.8588 66.846 47.805 67.9633 50.3238 69.7663C52.3535 71.2192 54.2196 73.1637 56.6839 73.5615C58.5624 73.8648 60.5159 73.2005 62.3719 73.6178C63.2786 73.822 64.28 74.2656 65.0742 73.7826C65.767 73.3626 65.9276 72.377 65.6525 71.6144Z" fill="#CF3837"/>
<g id="Group_2">
<path id="Vector_2" d="M59.6618 63.9111L34.0745 29.2802L33.9781 29.1717C34.043 30.6422 34.0051 32.2674 33.5585 32.5901C33.2349 32.8228 32.9854 32.7403 32.8649 32.6705C32.5098 32.4644 32.4351 31.8984 32.4843 31.4379C32.5474 30.8389 32.6757 29.1841 32.6757 29.1841C32.6494 28.5101 32.708 28.0086 33.0758 27.8623C33.4988 27.6952 33.8846 28.137 34.4224 28.748L34.5516 28.894L60.1565 63.5456L59.6618 63.9111ZM33.3216 28.4913C33.2984 28.5937 33.2743 28.7994 33.2886 29.1969C33.2875 29.2314 33.1591 30.8989 33.0949 31.5028C33.0615 31.817 33.1152 32.0395 33.1603 32.1184C33.1685 32.112 33.182 32.1041 33.1982 32.0921C33.3798 31.8583 33.4233 30.1705 33.3404 28.7488L33.5821 28.7349C33.4849 28.6332 33.3926 28.5446 33.3216 28.4913Z" fill="#261B0D"/>
<g id="Group_3">
<path id="Vector_3" d="M45.4585 56.6628C45.63 57.1481 45.8361 57.7159 46.0842 58.3862C46.1701 58.6186 46.1806 58.7158 46.0447 58.8253C45.4912 59.2708 44.685 58.9004 44.7454 60.0643C44.7747 60.6306 45.1699 61.7847 45.4195 62.0827C45.7287 62.452 46.5278 62.9043 46.9361 62.9141C47.3918 62.9249 47.6995 62.6055 47.418 62.2227C47.0934 61.7814 46.3833 61.5963 46.3833 61.5963C46.098 61.343 45.9596 60.4129 46.3262 60.4223C46.5702 60.4283 48.0407 60.9369 48.389 60.7391C48.5718 60.6351 48.5173 60.6881 49.1295 57.0081C49.1524 56.8703 49.1614 56.7679 49.1197 56.6455L45.4585 56.6628Z" fill="#915413"/>
<path id="Vector_4" d="M64.1033 64.376C64.3841 64.6271 64.5777 65.5425 64.5777 66.2053C63.972 66.0912 63.4052 65.7793 62.9845 65.3285C62.5886 64.9044 62.3288 64.3734 62.0905 63.8445C62.0008 63.6456 61.9719 63.4812 62.2162 63.4632C63.111 63.3979 62.9635 63.3566 64.1033 64.376Z" fill="#915413"/>
<path id="Vector_5" d="M55.2648 65.9629C55.0696 67.5111 55.4659 67.5843 55.6251 67.9712C55.726 68.2175 55.6532 68.4047 55.3612 68.4986C54.7667 68.6904 54.4729 68.4805 54.1872 67.9968C53.6716 67.123 53.7864 67.1748 54.1467 63.4464C54.1523 63.3867 55.0388 63.5143 55.1207 63.5357C55.7148 63.6892 55.5219 63.9234 55.2648 65.9629Z" fill="#915413"/>
<path id="Vector_6" d="M62.1053 64.4233C61.0765 65.1514 60.1758 65.5259 59.1838 66.3051C59.0941 66.2345 59.0044 66.1644 58.9166 66.0942C58.5946 65.839 58.2834 65.5912 57.9652 65.3608C57.4904 65.0144 56.998 64.7047 56.4207 64.4619C55.6926 64.156 54.859 64.1665 54.0517 64.1313C53.3728 64.1031 52.7133 64.0397 52.1504 63.7285C52.0501 63.6741 51.9533 63.6088 51.8602 63.5368C50.529 62.5028 51.2376 61.152 45.9175 58.9095C45.717 58.825 45.5095 58.7387 45.2914 58.6527C45.2546 58.637 45.2194 58.6227 45.1822 58.6088L44.6301 58.2148C44.7585 58.3078 44.8868 58.3994 45.0152 58.4929C43.7417 57.8316 43.0189 56.2575 43.3477 54.859C43.425 54.537 43.5481 54.2154 43.5113 53.8866C43.3796 52.8349 41.0421 50.6063 42.1147 49.8677C42.5966 50.0628 42.8815 50.5466 43.1998 50.9565C43.7012 51.6035 44.1249 52.7524 44.9533 53.0038C47.9134 53.9042 51.5468 54.4357 54.2011 55.5804C57.4585 56.9856 60.3499 61.1996 60.6892 61.87C60.8547 62.2006 60.9831 62.5613 61.1201 62.9148C61.3471 63.5015 61.6005 64.0678 62.1053 64.4233Z" fill="#C9843A"/>
<path id="Vector_7" d="M59.5332 65.4413C59.2836 65.6117 59.0723 65.8354 58.9158 66.0936C58.5938 65.8384 58.2827 65.5907 57.9644 65.3603C57.4896 65.0138 56.9972 64.7042 56.42 64.4614C55.6919 64.1555 54.8583 64.166 54.051 64.1307C54.0194 64.0725 54.0262 63.999 54.0333 63.9318C54.0596 63.698 54.0438 62.6865 54.2709 62.6073C54.4766 62.5371 55.2434 63.1331 55.4423 63.2405C56.2424 63.6751 57.0903 64.1408 57.9573 64.4295C58.5446 64.6693 59.1797 64.9155 59.5332 65.4413Z" fill="#915413"/>
<path id="Vector_8" d="M62.105 64.4232C61.0762 65.1513 60.1755 65.5259 59.1835 66.3051C58.7631 65.9763 58.3691 65.6543 57.9648 65.3608C58.1195 64.9791 58.4678 64.5692 58.6963 64.3159C59.0394 63.9323 59.4526 63.6122 59.9082 63.3731C60.0137 63.3168 60.7403 62.9895 61.1201 62.9141C61.3468 63.5014 61.6002 64.0678 62.105 64.4232Z" fill="#261B0D"/>
<g id="Group_4">
<path id="Vector_9" d="M65.8593 70.8658C65.4074 71.3285 65.1875 71.4408 64.4346 71.3004C62.4225 70.9258 62.018 70.6582 61.4167 70.129C61.3184 70.0412 61.2144 69.9444 61.1071 69.8389C60.3208 69.0684 59.3994 67.9218 59.2267 67.5997C59.0616 67.292 58.6746 66.2719 58.803 65.4664C58.8311 65.2889 58.8841 65.1219 58.97 64.9759C59.1389 64.6892 59.4099 64.4764 59.6733 64.2741C59.9935 64.026 61.1825 63.1414 62.0795 63.3155C62.2994 63.3594 62.4894 63.493 62.6669 63.6304C65.6127 65.9029 64.3359 66.3458 64.9252 67.6827C65.374 68.7039 67.2345 69.4587 65.8593 70.8658Z" fill="#C9843A"/>
<path id="Vector_10" d="M61.1071 69.839C60.3208 69.0685 59.3994 67.9219 59.2267 67.5999C59.0616 67.2921 58.6746 66.272 58.803 65.4666C58.8154 65.4489 58.8278 65.4298 58.8398 65.4121C59.3603 64.6296 59.6047 64.2952 60.3118 65.1464C60.931 65.8922 60.7126 66.4443 60.4945 66.937C60.0588 67.9271 60.8766 68.8452 61.1071 69.839Z" fill="#915413"/>
<path id="Vector_11" d="M58.7934 65.1265C57.8615 66.1744 57.8045 66.1541 57.7407 66.713C57.4044 69.6566 57.7722 69.6003 58.837 70.6816C59.0513 70.8993 59.3155 71.1346 59.6173 71.0888C59.94 71.0396 60.1247 70.6906 60.1877 70.3705C60.4227 69.1736 59.6462 67.7778 60.3217 66.6841C60.6043 66.2266 61.0131 65.9819 60.5023 65.1584C59.9186 64.2171 59.418 64.4243 58.7934 65.1265Z" fill="#C9843A"/>
</g>
<path id="Vector_12" d="M65.347 70.2949C65.3038 70.3403 65.2577 70.3948 65.2655 70.4567C65.2723 70.5107 65.3185 70.5501 65.3609 70.5839C65.4318 70.6406 65.5031 70.6969 65.574 70.7536C65.621 70.7907 65.681 70.8301 65.7362 70.8072C65.7591 70.7979 65.7767 70.7787 65.7929 70.7596C65.9298 70.5989 66.0293 70.4068 66.0807 70.2018C66.1014 70.1196 66.1123 70.0254 66.0635 69.956C65.8702 69.6828 65.4701 70.1651 65.347 70.2949Z" fill="#261B0D"/>
<path id="Vector_13" d="M52.3107 60.8018L52.1509 63.7285C52.0507 63.6741 51.9538 63.6088 51.8607 63.5367C50.5295 62.5027 51.2381 61.1519 45.918 58.9094C45.8421 59.0449 45.7701 59.1752 45.7014 59.2998L45.209 58.804L45.2916 58.6527L45.8583 57.8882C45.8583 57.8882 47.453 58.8445 48.7054 59.46C49.9575 60.0755 52.3107 60.8018 52.3107 60.8018Z" fill="#915413"/>
<path id="Vector_14" d="M43.9032 62.3127C43.4795 62.5079 42.2075 61.9963 41.9666 61.9873C41.6025 61.9768 41.3845 62.9001 41.571 63.1534C41.571 63.1534 42.2075 63.34 42.3625 63.7795C42.4961 64.1612 42.0653 64.476 41.6149 64.4637C41.2103 64.4513 40.5877 63.9994 40.4206 63.632C40.287 63.3347 40.3381 62.1881 40.5261 61.6251C40.9149 60.4695 41.5762 60.8426 42.3006 60.4027C42.4781 60.2939 42.5048 60.1989 42.51 59.9666C42.5964 54.553 42.8407 55.7912 43.4052 54.3473C43.4648 54.1927 43.4949 54.0377 43.5106 53.8865C43.5388 53.6402 43.5317 53.3959 43.5741 53.1426L45.7693 56.0637C47.9131 58.5584 44.2177 62.1686 43.9032 62.3127Z" fill="#C9843A"/>
<g id="Group_5">
<path id="Vector_15" d="M57.0359 71.442C56.518 70.974 56.2808 71.1797 55.7467 70.2128C55.3169 69.4352 54.8872 68.6571 54.4571 67.8795C54.0457 67.1349 54.1291 67.3068 54.6012 63.5926C54.6143 63.4879 54.9664 60.6929 54.9476 60.5889C54.8951 60.2947 53.0264 59.7734 51.9684 59.3395C51.2853 59.0595 50.8694 60.2519 51.265 61.5711C51.7267 63.9015 52.0202 66.5531 52.3606 67.4512C52.5366 67.9151 52.6304 68 54.9199 71.2048C55.353 71.8109 55.642 72.1806 56.3389 72.4445C56.6291 72.5541 57.0006 72.6055 57.2112 72.378C57.4514 72.1179 57.2982 71.6792 57.0359 71.442Z" fill="#C9843A"/>
</g>
</g>
<path id="Vector_16" d="M30.5615 24.3065L31.1478 25.2568C31.0926 25.9023 31.3947 26.4409 31.9029 26.9183L32.5316 27.7234L32.6802 28.3228C32.9084 28.6568 33.1009 28.593 33.28 28.3772L33.2165 28.7657L33.0131 29.6645L32.6006 30.2121C32.4588 30.4974 32.5635 30.5495 32.7605 30.515C32.7489 30.7567 32.887 30.8123 33.0975 30.7789L33.4312 30.247C33.5348 30.4865 33.7483 30.5934 33.8752 30.3195L34.3211 29.0978C34.4138 28.4601 34.4202 27.8397 34.2802 27.2486C33.8388 26.3715 33.2762 25.5972 32.5593 24.9547L31.4296 23.4771L30.5615 24.3065Z" fill="#FFA27D"/>
<path id="Vector_17" d="M30.5615 24.3059L31.1478 25.2562C31.0926 25.9017 31.3947 26.4403 31.9029 26.9177L32.5316 27.7228L32.6802 28.3222C32.9084 28.6562 33.1009 28.5924 33.28 28.3766C33.28 28.3766 34.4205 27.8388 34.2806 27.2476C33.8392 26.3705 33.2766 25.5962 32.5597 24.9537L31.43 23.4761L30.5615 24.3059Z" fill="#FFA27D"/>
<path id="Vector_18" d="M34.5512 28.8942C34.0791 28.248 33.5221 27.8831 33.1764 27.5855C33.1374 27.5517 33.3191 28.3497 33.28 28.3774C33.5806 28.7186 34.0408 29.2425 34.0742 29.2808L59.6615 63.9118L60.1561 63.5462L34.5512 28.8942Z" fill="#261B0D"/>
<path id="Vector_19" d="M6.84437 44.7856C6.8106 44.8119 6.77794 44.8397 6.74229 44.8645C5.7278 45.3685 5.02934 46.0069 5.30445 47.0589L7.19605 47.9293L8.52017 49.9722L10.563 50.8801C11.1042 50.3445 11.5437 49.8018 10.8655 49.1776C9.88707 48.3358 9.34249 47.4478 9.27531 46.5087C8.18238 46.3154 7.18216 45.8354 6.84437 44.7856Z" fill="#FFA27D"/>
<path id="Vector_20" d="M22.4287 26.0327L14.085 26.1078C15.3052 29.0375 13.5442 30.4202 12.6303 35.9978C7.6727 38.2103 8.55094 42.6679 6.57227 44.7918C6.92356 46.8182 8.79865 47.7948 10.2196 47.1845C10.1359 46.0184 11.7614 41.3686 18.8373 37.2269C21.1609 34.155 22.5105 29.8812 22.4287 26.0327Z" fill="#205687"/>
<path id="Vector_21" opacity="0.5" d="M22.4287 26.0327L14.085 26.1078C15.3052 29.0375 13.5442 30.4202 12.6303 35.9978C7.6727 38.2103 8.55094 42.6679 6.57227 44.7918C6.92356 46.8182 8.79865 47.7948 10.2196 47.1845C10.1359 46.0184 11.7614 41.3686 18.8373 37.2269C21.1609 34.155 22.5105 29.8812 22.4287 26.0327Z" fill="#205687"/>
<path id="Vector_22" d="M6.43696 45.0264C5.17176 45.2516 4.74578 46.0754 4.62305 47.1154C4.83097 48.2883 6.11418 48.3704 6.91211 49.0449C8.74704 50.5961 8.65246 51.4473 9.71198 51.7881C11.0016 52.2024 12.9176 51.7408 13.0793 51.1639C13.2118 50.691 12.8601 50.154 11.604 49.5369L9.96082 48.2248C10.1702 48.5228 10.4964 48.8456 10.8661 49.1774C11.2733 49.8289 10.8792 50.1352 10.1094 50.369C9.38058 50.351 8.74291 49.7396 8.00954 48.7799L6.38254 46.8125C5.98733 46.2022 5.94679 45.6044 6.43696 45.0264Z" fill="#D13B3B"/>
<path id="Vector_23" d="M27.083 58.46C26.3147 58.618 25.486 58.5846 24.669 58.4082C24.6873 58.4574 24.7084 58.5035 24.7268 58.5531C24.3214 59.1236 24.3462 59.9459 24.4381 60.8436C24.4381 60.8436 26.3245 63.1533 26.3628 63.2686C26.4014 63.3842 28.9802 63.8845 28.9802 63.8845L29.7887 62.2871C28.5396 61.3451 27.712 60.1208 27.083 58.46Z" fill="#FFA27D"/>
<path id="Vector_24" d="M24.726 58.5537C23.8218 59.14 23.8597 60.3245 24.0523 61.2098C24.4756 61.9218 25.0848 62.3583 25.7844 63.4039L26.4438 64.0911C27.7597 64.9656 30.1148 65.0786 30.9424 64.6166C31.4813 63.866 30.8376 63.1262 29.2208 61.8141C29.8367 62.8185 29.1329 63.3079 27.5345 63.1731C26.7748 63.0583 26.2651 62.2491 25.4376 61.152C24.6794 59.9994 24.1709 59.3231 24.726 58.5537Z" fill="#D13B3B"/>
<path id="Vector_25" d="M27.2906 58.5668C27.2531 58.4677 27.0087 57.8642 26.9727 57.7621C25.2564 52.7348 24.1375 47.0675 23.0533 43.732C22.264 38.8773 21.1684 34.5866 19.4675 31.4111C21.3579 30.2018 22.3931 27.9642 22.6153 26.0324L12.5875 25.8237C11.9506 27.9158 11.8902 29.9759 12.5875 31.9947C14.6724 39.4999 17.6254 39.8036 19.2517 45.0569C18.4267 50.1518 20.5548 53.3469 22.4313 58.3334C23.164 58.926 26.2926 59.4128 27.2906 58.5668Z" fill="#205687"/>
<path id="Vector_26" d="M21.6358 8.70801C22.8837 9.02027 24.3459 12.7731 26.3471 15.8169C28.0612 17.6304 30.074 21.0743 32.2614 24.5153C31.6188 24.5535 31.3366 25.1499 30.8483 25.3027C28.6178 22.4675 25.8307 20.3124 25.1379 18.839L21.4688 13.9403L21.6358 8.70801Z" fill="#D13B3B"/>
<path id="Vector_27" d="M22.432 20.4514L22.8873 25.3793C21.9332 31.19 13.7978 29.5356 12.0883 26.0331C12.4636 24.3438 13.7993 23.6397 13.1305 21.9602C12.2084 19.6471 11.588 17.7908 11.588 17.7908C11.3812 17.197 11.1976 16.6584 11.0576 16.1645C10.5423 14.3667 10.5874 13.1376 12.0883 11.8431C14.9718 9.72181 17.9353 8.36579 21.0527 8.50766C22.3284 8.1391 22.8858 10.719 22.5322 12.6189C22.2136 14.3266 24.562 16.1052 24.6404 17.3036C24.8273 20.1665 22.432 20.4514 22.432 20.4514Z" fill="#D13B3B"/>
<path id="Vector_28" d="M4.97909 28.9932L4.31215 30.0148L2.10228 31.599L1.14335 32.8289L0.337166 34.3159C0.163394 34.5801 0.281618 34.8511 0.45539 34.7258L0.10109 35.3514C-0.156002 35.8029 0.122108 35.9561 0.434748 35.6014L1.9773 33.7252L0.622032 35.8101C0.371695 36.206 0.677579 36.3937 0.976332 36.0184L2.74821 33.9335L1.72659 35.7474C1.46237 36.2278 1.69882 36.4492 2.08089 36.0184L4.36733 33.2526L4.15677 34.5599L4.13013 35.2602C4.13088 35.7196 4.55461 35.6915 4.64694 35.1919L4.81583 34.5689L5.37468 33.5582L5.59687 31.0495L5.89562 29.3887L4.97909 28.9932Z" fill="#FFA27D"/>
<path id="Vector_29" d="M15.1738 6.34912L15.274 10.1346L16.4807 12.0776C17.416 13.5639 21.2896 18.6318 21.2896 18.6318C21.2896 18.6318 21.3823 14.1036 20.0849 11.2005L19.8908 10.156L19.4082 8.16116L15.1738 6.34912Z" fill="#FFA27D"/>
<path id="Vector_30" d="M22.8873 25.379C21.9332 31.1897 13.7978 29.5353 12.0882 26.0328C12.4636 24.3435 13.7993 23.6394 13.1305 21.9598C12.2083 19.6468 11.5879 17.7905 11.5879 17.7905C11.3811 17.1967 11.1976 16.6581 11.0576 16.1642C11.2077 15.292 11.398 14.5364 11.5879 14.7331C15.0904 18.3688 15.382 22.8017 18.9164 22.3682C20.8793 22.1265 21.2411 19.8513 21.2411 19.8513C21.7482 20.2916 21.955 20.5006 22.432 20.4503L22.8873 25.379Z" fill="#A31A1A"/>
<path id="Vector_31" d="M11.5877 12.6206C10.5578 12.8998 9.10348 16.6162 7.59884 20.7372C6.27209 22.4892 5.5466 26.8256 4.18457 30.1055C4.73328 30.241 5.30452 30.5041 5.89639 31.0495C7.09178 27.5192 9.2112 25.101 9.48893 22.2103C10.6828 20.4914 12.0569 18.7905 12.9636 17.4851C14.2423 15.7616 13.2387 12.6206 11.5877 12.6206Z" fill="#D13B3B"/>
<path id="Vector_32" d="M15.6751 9.4917L15.0228 10.2667C14.6418 10.8001 14.1344 11.6025 14.3836 12.7566L15.6893 12.629L14.739 14.2477C17.1407 14.8235 19.6433 16.6201 21.4463 19.0038C19.6763 14.5975 16.6006 13.6532 15.6751 9.4917Z" fill="white"/>
<path id="Vector_33" d="M18.835 9.34673C20.0626 10.7722 21.1728 14.9536 21.2895 18.6317C21.7707 15.8536 22.173 13.0977 21.9831 11.4087L20.8241 11.098L21.699 10.7339C21.2239 9.97426 20.6504 9.32384 19.8577 8.91699L18.835 9.34673Z" fill="white"/>
<path id="Vector_34" opacity="0.5" d="M16.054 7.68604C16.0397 7.7292 16.6143 11.7076 18.7746 11.5923C20.128 11.5203 19.8721 8.53312 19.8721 8.53312L16.054 7.68604Z" fill="#FFB294"/>
<path id="Vector_35" d="M19.8535 9.9931C18.8683 10.4345 17.4353 9.38809 16.7845 8.84163C16.5631 8.65585 16.3908 8.41864 16.2786 8.15217L15.7483 6.89261L14.9166 6.95754C14.9166 6.95754 13.469 6.17988 13.696 3.32784C13.8094 1.90239 15.6218 0.472419 17.1313 0.464913C19.5078 0.453278 20.3786 1.91139 21.0095 2.88496C21.6404 3.85816 21.2797 5.8556 21.2797 5.8556C21.2797 5.8556 21.1765 9.40085 19.8535 9.9931Z" fill="#FFA27D"/>
<path id="Vector_36" d="M16.4649 8.48952C16.4649 8.48952 19.7816 7.09484 20.4155 3.49367C20.4155 3.49367 21.1211 5.51025 22.0144 6.0143C22.0144 6.0143 21.7261 5.19311 21.8117 4.53481C21.8868 3.95644 22.4321 1.18884 19.2922 0.267062C16.1523 -0.654718 13.048 0.843173 13.185 4.24243C13.3363 7.9956 15.1247 10.0692 16.0108 10.8229C16.0108 10.8229 15.7312 9.06601 16.4649 8.48952Z" fill="black"/>
</g>
</g>
</svg>
