<svg width="27" height="27" viewBox="0 0 27 27" fill="none" xmlns="http://www.w3.org/2000/svg">
<path id="Vector" fill-rule="evenodd" clip-rule="evenodd" d="M13.5 0C6.05 0 0 6.05 0 13.5C0 20.95 6.05 27 13.5 27C14.03 27 14.551 26.962 15.066 26.902L15.082 26.918L15.1 26.898C21.796 26.105 27 20.408 27 13.5C27 6.593 21.796 0.9 15.102 0.105C15.085 0.091 15.07 0.0750001 15.052 0.0610001V0.0550001L15.022 0.092C14.521 0.035 14.014 0 13.5 0ZM13 1.025V6H8.66C9.577 4.057 10.834 2.372 12.336 1.059C12.555 1.039 12.778 1.034 13 1.025ZM14 1.025C14.223 1.035 14.447 1.038 14.666 1.059C16.171 2.372 17.431 4.054 18.35 6H14V1.025ZM10.576 1.357C9.31172 2.72297 8.2873 4.29273 7.546 6H3.515C5.25713 3.67785 7.75351 2.03592 10.576 1.357ZM16.422 1.357C19.2453 2.03541 21.7434 3.67741 23.486 6H19.46C18.7167 4.29216 17.6889 2.72235 16.422 1.357ZM2.836 7H7.146C6.44326 8.92469 6.06086 10.9516 6.014 13H1.025C1.10535 10.8781 1.72953 8.81232 2.836 7ZM8.238 7H13V13H7.014C7.06888 10.9439 7.48313 8.91329 8.238 7ZM14 7H18.77C19.525 8.91325 19.9392 10.9439 19.994 13H14V7ZM19.86 7H24.164C25.2705 8.81232 25.8937 10.8781 25.974 13H20.994C20.9462 10.9514 20.5628 8.92451 19.859 7H19.86ZM1.024 14H6.013C6.05979 16.0484 6.44219 18.0753 7.145 20H2.834C1.72809 18.1875 1.10527 16.1217 1.025 14H1.024ZM7.013 14H13V20H8.238C7.48315 18.0867 7.0689 16.0561 7.014 14H7.013ZM13.999 14H19.968C19.862 15.883 19.348 17.953 18.45 20H14L13.999 14ZM20.969 14H25.974C25.8937 16.1217 25.2709 18.1875 24.165 20H19.536C20.379 17.97 20.871 15.916 20.969 14ZM3.515 21H7.548C8.28932 22.7073 9.31373 24.277 10.578 25.643C7.75428 24.965 5.25565 23.323 3.513 21H3.515ZM8.661 21H13.001V25.975C12.78 25.965 12.557 25.961 12.339 25.941C10.835 24.628 9.579 22.945 8.661 21ZM14.001 21H17.964C17.0719 22.7929 15.9406 24.4564 14.601 25.945C14.403 25.963 14.201 25.967 14.001 25.975V21ZM19.089 21H23.487C21.6797 23.4155 19.0581 25.0942 16.108 25.725C17.2872 24.2754 18.2874 22.6889 19.087 21H19.089Z" fill="white"/>
</svg>
