<svg width="44" height="48" viewBox="0 0 44 48" fill="none" xmlns="http://www.w3.org/2000/svg">
<g id="14. Weight">
<path id="Vector" d="M29.0833 39.7461H14.5417C14.3488 39.7461 14.1639 39.6695 14.0275 39.5331C13.8912 39.3967 13.8146 39.2118 13.8146 39.019V19.3877C13.8146 19.1949 13.8912 19.01 14.0275 18.8736C14.1639 18.7372 14.3488 18.6606 14.5417 18.6606H29.0833C29.2762 18.6606 29.4611 18.7372 29.5975 18.8736C29.7338 19.01 29.8104 19.1949 29.8104 19.3877V39.019C29.8104 39.2118 29.7338 39.3967 29.5975 39.5331C29.4611 39.6695 29.2762 39.7461 29.0833 39.7461ZM15.2687 38.2919H28.3562V20.1148H15.2687V38.2919Z" fill="black"/>
<path id="Vector_2" d="M23.9937 12.8438H19.6312V39.0187H23.9937V12.8438Z" fill="#CD4F5F"/>
<path id="Vector_3" d="M23.9937 22.2959H19.6312V39.0188H23.9937V22.2959Z" fill="#B24654"/>
<path id="Vector_4" d="M23.9938 39.7459H19.6313C19.4384 39.7459 19.2535 39.6693 19.1171 39.5329C18.9808 39.3966 18.9042 39.2116 18.9042 39.0188V12.8438C18.9042 12.6509 18.9808 12.466 19.1171 12.3297C19.2535 12.1933 19.4384 12.1167 19.6313 12.1167H23.9938C24.1866 12.1167 24.3715 12.1933 24.5079 12.3297C24.6442 12.466 24.7208 12.6509 24.7208 12.8438V39.0188C24.7208 39.2116 24.6442 39.3966 24.5079 39.5329C24.3715 39.6693 24.1866 39.7459 23.9938 39.7459ZM20.3583 38.2917H23.2667V13.5709H20.3583V38.2917Z" fill="black"/>
<path id="Vector_5" d="M42.8979 39.019H0.727112V43.3815H42.8979V39.019Z" fill="#CD4F5F"/>
<path id="Vector_6" d="M42.8979 41.2002H0.727112V43.3814H42.8979V41.2002Z" fill="#B24654"/>
<path id="Vector_7" d="M42.8979 44.1082H37.0812C36.8884 44.1082 36.7035 44.0316 36.5671 43.8952C36.4308 43.7589 36.3542 43.5739 36.3542 43.3811C36.3542 43.1883 36.4308 43.0033 36.5671 42.867C36.7035 42.7306 36.8884 42.654 37.0812 42.654H42.1708V39.7457H1.45417V42.654H34.1729C34.3657 42.654 34.5507 42.7306 34.687 42.867C34.8234 43.0033 34.9 43.1883 34.9 43.3811C34.9 43.5739 34.8234 43.7589 34.687 43.8952C34.5507 44.0316 34.3657 44.1082 34.1729 44.1082H0.727083C0.534249 44.1082 0.349312 44.0316 0.212958 43.8952C0.0766032 43.7589 0 43.5739 0 43.3811V39.0186C0 38.8258 0.0766032 38.6408 0.212958 38.5045C0.349312 38.3681 0.534249 38.2915 0.727083 38.2915H42.8979C43.0908 38.2915 43.2757 38.3681 43.412 38.5045C43.5484 38.6408 43.625 38.8258 43.625 39.0186V43.3811C43.625 43.5739 43.5484 43.7589 43.412 43.8952C43.2757 44.0316 43.0908 44.1082 42.8979 44.1082Z" fill="black"/>
<path id="Vector_8" d="M2.90833 43.3813V46.2897H5.08958L6.54374 43.3813H2.90833Z" fill="#596060"/>
<path id="Vector_9" d="M5.08961 47.0168H2.90836C2.71552 47.0168 2.53059 46.9402 2.39423 46.8038C2.25788 46.6675 2.18127 46.4825 2.18127 46.2897V43.3814C2.18127 43.1885 2.25788 43.0036 2.39423 42.8673C2.53059 42.7309 2.71552 42.6543 2.90836 42.6543H6.54377C6.66777 42.6542 6.78974 42.6858 6.89807 42.7462C7.0064 42.8065 7.0975 42.8935 7.16271 42.999C7.22792 43.1045 7.26508 43.2249 7.27065 43.3487C7.27621 43.4726 7.25 43.5959 7.19451 43.7067L5.74035 46.6151C5.6799 46.7359 5.587 46.8375 5.47206 46.9084C5.35712 46.9794 5.22468 47.0169 5.08961 47.0168ZM3.63544 45.5626H4.64063L5.36772 44.1085H3.63544V45.5626Z" fill="black"/>
<path id="Vector_10" d="M40.7167 43.3813V46.2897H38.5354L37.0812 43.3813H40.7167Z" fill="#596060"/>
<path id="Vector_11" d="M40.7167 47.0168H38.5354C38.4003 47.0169 38.2679 46.9794 38.153 46.9084C38.038 46.8375 37.9451 46.7359 37.8847 46.6151L36.4305 43.7067C36.375 43.5959 36.3488 43.4726 36.3544 43.3487C36.3599 43.2249 36.3971 43.1045 36.4623 42.999C36.5275 42.8935 36.6186 42.8065 36.7269 42.7462C36.8353 42.6858 36.9572 42.6542 37.0812 42.6543H40.7167C40.9095 42.6543 41.0944 42.7309 41.2308 42.8673C41.3671 43.0036 41.4437 43.1885 41.4437 43.3814V46.2897C41.4437 46.4825 41.3671 46.6675 41.2308 46.8038C41.0944 46.9402 40.9095 47.0168 40.7167 47.0168ZM38.9844 45.5626H39.9896V44.1085H38.2573L38.9844 45.5626Z" fill="black"/>
<path id="Vector_12" d="M36.3541 24.4771H7.27081V39.0187H36.3541V24.4771Z" fill="#E0C3AA"/>
<path id="Vector_13" d="M36.3541 36.8374H7.27081V39.0187H36.3541V36.8374Z" fill="#D0A37F"/>
<path id="Vector_14" d="M36.3542 39.7458H7.27085C7.07801 39.7458 6.89307 39.6692 6.75672 39.5329C6.62037 39.3965 6.54376 39.2116 6.54376 39.0187V24.4771C6.54376 24.2842 6.62037 24.0993 6.75672 23.963C6.89307 23.8266 7.07801 23.75 7.27085 23.75H36.3542C36.547 23.75 36.732 23.8266 36.8683 23.963C37.0047 24.0993 37.0813 24.2842 37.0813 24.4771V39.0187C37.0813 39.2116 37.0047 39.3965 36.8683 39.5329C36.732 39.6692 36.547 39.7458 36.3542 39.7458ZM7.99793 38.2917H35.6271V25.2042H7.99793V38.2917Z" fill="black"/>
<path id="Vector_15" d="M21.8125 17.2063C26.2296 17.2063 29.8104 13.6255 29.8104 9.20836C29.8104 4.79124 26.2296 1.21045 21.8125 1.21045C17.3954 1.21045 13.8146 4.79124 13.8146 9.20836C13.8146 13.6255 17.3954 17.2063 21.8125 17.2063Z" fill="#A8EDFD"/>
<path id="Vector_16" d="M27.232 12.9073C26.1576 13.8974 24.8326 14.5742 23.4008 14.8644C21.969 15.1546 20.485 15.0471 19.11 14.5535C17.7349 14.0599 16.5214 13.1991 15.601 12.0645C14.6806 10.9299 14.0885 9.56494 13.8891 8.11768C13.7335 9.24935 13.8222 10.4012 14.1491 11.4958C14.476 12.5903 15.0336 13.6021 15.7843 14.4631C16.535 15.3241 17.4615 16.0143 18.5013 16.4872C19.5411 16.9602 20.6702 17.2049 21.8125 17.2049C22.9548 17.2049 24.0839 16.9602 25.1237 16.4872C26.1635 16.0143 27.09 15.3241 27.8407 14.4631C28.5914 13.6021 29.149 12.5903 29.4759 11.4958C29.8028 10.4012 29.8915 9.24935 29.7359 8.11768C29.484 9.95695 28.5985 11.6508 27.232 12.9073Z" fill="#8BD4DE"/>
<path id="Vector_17" d="M21.8125 17.9334C19.499 17.932 17.2806 17.0123 15.6446 15.3763C14.0087 13.7404 13.089 11.522 13.0875 9.2084C13.0875 9.01557 13.1641 8.83063 13.3005 8.69428C13.4368 8.55792 13.6218 8.48132 13.8146 8.48132C14.0074 8.48132 14.1924 8.55792 14.3287 8.69428C14.4651 8.83063 14.5417 9.01557 14.5417 9.2084C14.5436 11.0179 15.2208 12.7615 16.4407 14.0979C17.6607 15.4344 19.3355 16.2673 21.1373 16.4337C22.9392 16.6001 24.7382 16.0879 26.1823 14.9975C27.6263 13.9071 28.6114 12.317 28.9446 10.5385C29.2778 8.7599 28.9352 6.92102 27.9838 5.38183C27.0324 3.84265 25.5407 2.71399 23.8008 2.21685C22.061 1.71971 20.1982 1.88988 18.5772 2.69404C16.9562 3.4982 15.6938 4.87845 15.037 6.56455C15.0037 6.65544 14.9527 6.73877 14.8867 6.80966C14.8208 6.88055 14.7414 6.93757 14.6532 6.97736C14.565 7.01716 14.4697 7.03894 14.3729 7.04143C14.2762 7.04391 14.1799 7.02705 14.0897 6.99184C13.9996 6.95662 13.9173 6.90376 13.8479 6.83634C13.7784 6.76893 13.7231 6.68833 13.6852 6.59926C13.6473 6.5102 13.6276 6.41446 13.6272 6.31767C13.6268 6.22088 13.6457 6.12498 13.6828 6.03559C14.2601 4.55677 15.2299 3.26347 16.4878 2.29502C17.7457 1.32656 19.244 0.719653 20.8213 0.539663C22.3985 0.359673 23.995 0.613425 25.4387 1.27358C26.8825 1.93374 28.1187 2.97529 29.0144 4.28603C29.91 5.59678 30.431 7.12703 30.5214 8.71197C30.6117 10.2969 30.2679 11.8765 29.527 13.2805C28.7861 14.6845 27.6761 15.8597 26.3167 16.6796C24.9574 17.4995 23.4 17.933 21.8125 17.9334Z" fill="black"/>
<path id="Vector_18" d="M21.8125 15.0253C21.6196 15.0253 21.4347 14.9487 21.2983 14.8123C21.162 14.676 21.0854 14.491 21.0854 14.2982V7.02738C21.0854 6.83454 21.162 6.64961 21.2983 6.51325C21.4347 6.3769 21.6196 6.30029 21.8125 6.30029C22.0053 6.30029 22.1902 6.3769 22.3266 6.51325C22.463 6.64961 22.5396 6.83454 22.5396 7.02738V14.2982C22.5396 14.491 22.463 14.676 22.3266 14.8123C22.1902 14.9487 22.0053 15.0253 21.8125 15.0253Z" fill="black"/>
<path id="Vector_19" d="M27.232 15.0884C25.7558 16.4503 23.821 17.2065 21.8125 17.2065C19.804 17.2065 17.8692 16.4503 16.393 15.0884C16.8184 13.9972 17.5633 13.0597 18.5303 12.3988C19.4973 11.7379 20.6412 11.3843 21.8125 11.3843C22.9838 11.3843 24.1277 11.7379 25.0947 12.3988C26.0617 13.0597 26.8066 13.9972 27.232 15.0884Z" fill="#5F79A5"/>
<path id="Vector_20" d="M17.251 13.5962C16.8924 14.0482 16.6032 14.5512 16.393 15.0885C17.8692 16.4504 19.804 17.2066 21.8125 17.2066C23.821 17.2066 25.7558 16.4504 27.232 15.0885C27.0218 14.5512 26.7326 14.0482 26.374 13.5962C25.0347 14.5262 23.4431 15.0246 21.8125 15.0246C20.1819 15.0246 18.5903 14.5262 17.251 13.5962Z" fill="#586F99"/>
<path id="Vector_21" d="M15.8995 15.6234C15.7924 15.5239 15.7178 15.3945 15.6854 15.252C15.6529 15.1095 15.6642 14.9605 15.7177 14.8245C16.1964 13.597 17.0344 12.5426 18.1222 11.7993C19.21 11.0559 20.4968 10.6582 21.8143 10.6582C23.1318 10.6582 24.4186 11.0559 25.5064 11.7993C26.5942 12.5426 27.4322 13.597 27.9109 14.8245C27.9644 14.9605 27.9757 15.1095 27.9432 15.252C27.9108 15.3945 27.8362 15.5239 27.7291 15.6234C26.1178 17.1093 24.0062 17.9343 21.8143 17.9343C19.6224 17.9343 17.5108 17.1093 15.8995 15.6234ZM17.2773 14.8909C18.5654 15.9188 20.1645 16.4786 21.8125 16.4786C23.4605 16.4786 25.0596 15.9188 26.3477 14.8909C24.4691 11.1955 19.1559 11.1936 17.2773 14.8909Z" fill="black"/>
<path id="Vector_22" d="M24.7208 24.4771H18.9042V30.2937H24.7208V24.4771Z" fill="#F6EDC8"/>
<path id="Vector_23" d="M24.7208 28.1128H18.9042V30.294H24.7208V28.1128Z" fill="#F4DCB5"/>
<path id="Vector_24" d="M24.7209 31.0209H18.9042C18.7114 31.0209 18.5264 30.9443 18.3901 30.8079C18.2537 30.6716 18.1771 30.4866 18.1771 30.2938V24.4771C18.1771 24.2843 18.2537 24.0994 18.3901 23.963C18.5264 23.8267 18.7114 23.7501 18.9042 23.7501H24.7209C24.9137 23.7501 25.0986 23.8267 25.235 23.963C25.3713 24.0994 25.4479 24.2843 25.4479 24.4771V30.2938C25.4479 30.4866 25.3713 30.6716 25.235 30.8079C25.0986 30.9443 24.9137 31.0209 24.7209 31.0209ZM19.6313 29.5667H23.9938V25.2042H19.6313V29.5667ZM33.4459 36.8376H31.9917C31.7989 36.8376 31.6139 36.761 31.4776 36.6246C31.3412 36.4883 31.2646 36.3033 31.2646 36.1105C31.2646 35.9176 31.3412 35.7327 31.4776 35.5964C31.6139 35.46 31.7989 35.3834 31.9917 35.3834H33.4459C33.6387 35.3834 33.8236 35.46 33.96 35.5964C34.0963 35.7327 34.1729 35.9176 34.1729 36.1105C34.1729 36.3033 34.0963 36.4883 33.96 36.6246C33.8236 36.761 33.6387 36.8376 33.4459 36.8376ZM33.4459 33.9292H31.9917C31.7989 33.9292 31.6139 33.8526 31.4776 33.7163C31.3412 33.5799 31.2646 33.395 31.2646 33.2021C31.2646 33.0093 31.3412 32.8244 31.4776 32.688C31.6139 32.5517 31.7989 32.4751 31.9917 32.4751H33.4459C33.6387 32.4751 33.8236 32.5517 33.96 32.688C34.0963 32.8244 34.1729 33.0093 34.1729 33.2021C34.1729 33.395 34.0963 33.5799 33.96 33.7163C33.8236 33.8526 33.6387 33.9292 33.4459 33.9292ZM21.8125 3.39173C21.6197 3.39173 21.4348 3.31513 21.2984 3.17877C21.162 3.04242 21.0854 2.85748 21.0854 2.66465V1.21048C21.0854 1.01765 21.162 0.832711 21.2984 0.696356C21.4348 0.560002 21.6197 0.483398 21.8125 0.483398C22.0054 0.483398 22.1903 0.560002 22.3266 0.696356C22.463 0.832711 22.5396 1.01765 22.5396 1.21048V2.66465C22.5396 2.85748 22.463 3.04242 22.3266 3.17877C22.1903 3.31513 22.0054 3.39173 21.8125 3.39173ZM26.4395 5.3085C26.2956 5.30862 26.1549 5.26604 26.0353 5.18615C25.9156 5.10627 25.8223 4.99267 25.7672 4.85974C25.7121 4.72681 25.6977 4.58053 25.7258 4.43942C25.7539 4.2983 25.8233 4.1687 25.9251 4.06701L26.9539 3.0391C27.0208 2.96874 27.101 2.91247 27.1899 2.87362C27.2789 2.83477 27.3747 2.81411 27.4717 2.81287C27.5688 2.81162 27.6651 2.82982 27.755 2.86639C27.8449 2.90295 27.9265 2.95714 27.9952 3.02576C28.0638 3.09439 28.118 3.17606 28.1545 3.26595C28.1911 3.35585 28.2093 3.45216 28.2081 3.5492C28.2068 3.64624 28.1862 3.74205 28.1473 3.83098C28.1084 3.91991 28.0522 4.00017 27.9818 4.06701L26.9539 5.09583C26.8863 5.16333 26.8061 5.21686 26.7179 5.25335C26.6296 5.28984 26.535 5.30858 26.4395 5.3085ZM29.8104 9.93548H28.3563C28.1634 9.93548 27.9785 9.85888 27.8421 9.72252C27.7058 9.58617 27.6292 9.40123 27.6292 9.2084C27.6292 9.01556 27.7058 8.83063 27.8421 8.69427C27.9785 8.55792 28.1634 8.48131 28.3563 8.48131H29.8104C30.0033 8.48131 30.1882 8.55792 30.3246 8.69427C30.4609 8.83063 30.5375 9.01556 30.5375 9.2084C30.5375 9.40123 30.4609 9.58617 30.3246 9.72252C30.1882 9.85888 30.0033 9.93548 29.8104 9.93548ZM17.1855 5.3085C17.09 5.30858 16.9954 5.28984 16.9072 5.25335C16.8189 5.21686 16.7387 5.16333 16.6711 5.09583L15.6432 4.06701C15.5126 3.92955 15.4409 3.7465 15.4433 3.55691C15.4457 3.36731 15.5221 3.18617 15.6562 3.05209C15.7903 2.91802 15.9714 2.84162 16.161 2.83919C16.3506 2.83676 16.5337 2.9085 16.6711 3.0391L17.7 4.06701C17.8018 4.1687 17.8711 4.2983 17.8992 4.43942C17.9273 4.58053 17.9129 4.72681 17.8578 4.85974C17.8027 4.99267 17.7095 5.10627 17.5898 5.18615C17.4701 5.26604 17.3294 5.30862 17.1855 5.3085ZM15.2688 9.93548H13.8146C13.6218 9.93548 13.4368 9.85888 13.3005 9.72252C13.1641 9.58617 13.0875 9.40123 13.0875 9.2084C13.0875 9.01556 13.1641 8.83063 13.3005 8.69427C13.4368 8.55792 13.6218 8.48131 13.8146 8.48131H15.2688C15.4616 8.48131 15.6465 8.55792 15.7829 8.69427C15.9193 8.83063 15.9959 9.01556 15.9959 9.2084C15.9959 9.40123 15.9193 9.58617 15.7829 9.72252C15.6465 9.85888 15.4616 9.93548 15.2688 9.93548Z" fill="black"/>
</g>
</svg>
