<svg width="55" height="55" viewBox="0 0 55 55" fill="none" xmlns="http://www.w3.org/2000/svg">
<g id="Group 48095861">
<g id="Filled outline">
<path id="Vector" d="M46.8954 29.6154L44.9963 25.79L46.2255 23.4841L34.696 17.3381L33.4668 19.644L29.2322 20.1998C28.8189 20.2534 28.4244 20.4051 28.0817 20.6422C27.7389 20.8793 27.4579 21.195 27.262 21.5628L17.1395 40.5519C16.8135 41.1634 16.7438 41.8794 16.9457 42.5424C17.1476 43.2054 17.6046 43.761 18.2162 44.087L33.2045 52.0768C33.8161 52.4028 34.5321 52.4725 35.1951 52.2706C35.858 52.0686 36.4136 51.6116 36.7396 51.0001L46.8621 32.011C47.0583 31.6433 47.1637 31.234 47.1695 30.8173C47.1753 30.4005 47.0813 29.9885 46.8954 29.6154Z" fill="#C78700"/>
<path id="Vector_2" d="M27.262 21.563L17.4468 39.9756L37.0469 50.4238L46.8621 32.0112C47.0839 31.5916 47.1871 31.1194 47.1608 30.6455L28.2294 20.5537C27.8212 20.796 27.4868 21.145 27.262 21.563Z" fill="#FFC834"/>
<path id="Vector_3" d="M49.875 18.0266L37.1926 11.266C36.5559 10.9265 35.7645 11.1676 35.4251 11.8043L33.5813 15.2632C33.2418 15.8999 33.4829 16.6913 34.1196 17.0307L46.802 23.7913C47.4388 24.1307 48.2302 23.8897 48.5696 23.253L50.4134 19.7941C50.7528 19.1574 50.5118 18.366 49.875 18.0266Z" fill="#212529"/>
<path id="Vector_4" d="M35.756 32.7086C36.4723 31.2158 36.7198 29.5412 36.4659 27.905C34.9661 28.6063 33.7137 29.7453 32.8736 31.1721C32.1574 32.6649 31.9099 34.3395 32.1637 35.9757C33.6636 35.2744 34.9159 34.1354 35.756 32.7086ZM37.8884 38.7904C39.1291 38.4792 40.2535 37.8165 41.1267 36.8819C39.9669 36.2658 38.6383 36.0434 37.3411 36.2482C36.0504 36.5997 34.8733 37.281 33.9257 38.2252C35.1648 38.7908 36.5406 38.9871 37.8884 38.7904ZM32.8968 42.9328C33.4683 43.734 34.288 44.3244 35.2289 44.6127C35.378 43.6361 35.1963 42.6376 34.7126 41.7761C34.1436 40.9725 33.323 40.3814 32.3805 40.0962C32.2335 41.0728 32.4151 42.0706 32.8968 42.9328ZM26.6357 32.792C26.2025 31.5885 26.1259 30.2855 26.4151 29.0396C27.5731 29.659 28.4984 30.6381 29.0514 31.8292C29.4791 33.0968 29.5695 34.4538 29.3139 35.7668C28.1536 35.0534 27.2237 34.0205 26.6357 32.792ZM26.0079 39.2606C25.0242 39.2327 24.0771 38.8813 23.3132 38.2608C24.0312 37.5929 24.9506 37.1821 25.9272 37.0929C26.9116 37.1173 27.8598 37.4691 28.6219 38.0926C27.9028 38.7589 26.984 39.1694 26.0079 39.2606Z" fill="#004A31"/>
<path id="Vector_5" d="M19.5191 44.7815C20.3117 44.5252 21.0113 44.041 21.5305 43.3895C22.0496 42.7379 22.3653 41.9479 22.4381 41.118C22.5109 40.2881 22.3376 39.4551 21.9398 38.7231C21.542 37.9911 20.9374 37.3925 20.2015 37.0021L19.2906 36.5166L17.1395 40.5519C16.8135 41.1635 16.7438 41.8795 16.9458 42.5425C17.1477 43.2054 17.6047 43.761 18.2162 44.087L19.5191 44.7815Z" fill="#A66D00"/>
<path id="Vector_6" d="M20.2015 37.0021L19.2906 36.5166L17.4468 39.9754L22.0586 42.4338C22.4835 41.4601 22.5285 40.3626 22.1847 39.3574C21.841 38.3521 21.1335 37.5119 20.2015 37.0021Z" fill="#E9A300"/>
<path id="Vector_7" d="M16.8211 43.343C18.2538 44.1067 20.0344 43.5644 20.7981 42.1317C21.5618 40.699 21.0195 38.9185 19.5868 38.1547L12.0062 34.1137C10.5735 33.35 8.79295 33.8923 8.02922 35.325C7.26549 36.7577 7.8078 38.5383 9.2405 39.302L16.8211 43.343Z" fill="#D7E6EF"/>
<path id="Vector_8" d="M13.028 41.3207L9.2348 39.2987C8.5468 38.9319 8.03266 38.3069 7.8055 37.561C7.57834 36.8152 7.65677 36.0097 8.02352 35.3217C8.39028 34.6337 9.01532 34.1195 9.76115 33.8924C10.507 33.6652 11.3125 33.7436 12.0005 34.1104L15.7937 36.1324L13.028 41.3207Z" fill="#004A31"/>
<path id="Vector_9" d="M4.77144 31.3459C3.21833 31.8189 2.34276 33.4614 2.8158 35.0145C3.28883 36.5676 4.93135 37.4432 6.48445 36.9702L14.7022 34.4673C16.2553 33.9942 17.1309 32.3517 16.6578 30.7986C16.1848 29.2455 14.5423 28.3699 12.9892 28.843L4.77144 31.3459Z" fill="#D7E6EF"/>
<path id="Vector_10" d="M8.88473 30.0956L13.0116 28.8531C13.7476 28.6571 14.531 28.7543 15.1967 29.1244C15.8625 29.4945 16.3586 30.1086 16.5805 30.8373C16.8024 31.5659 16.7329 32.3523 16.3865 33.0306C16.0401 33.709 15.4439 34.2265 14.7235 34.474L10.614 35.7256L8.88473 30.0956Z" fill="#FFC834"/>
<path id="Vector_11" d="M19.8222 4.96737C20.459 5.30681 21.2504 5.06578 21.5898 4.42902C21.9292 3.79227 21.6882 3.00091 21.0514 2.66148C20.4147 2.32204 19.6233 2.56307 19.2839 3.19982C18.9445 3.83658 19.1855 4.62794 19.8222 4.96737Z" fill="#004A31"/>
<path id="Vector_12" d="M34.6962 17.3379L46.2256 23.4839L44.9964 25.7898L33.467 19.6438L34.6962 17.3379Z" fill="#A66D00"/>
<g id="Group">
<path id="Vector_13" d="M31.8565 36.5523C31.9433 36.598 32.0393 36.6236 32.1374 36.6272C32.2355 36.6308 32.3331 36.6122 32.423 36.5729C34.0594 35.8152 35.424 34.5737 36.3326 33.016C37.1194 31.3934 37.3894 29.5684 37.1062 27.7874C37.0881 27.6913 37.0486 27.6005 36.9907 27.5217C36.9328 27.4428 36.8579 27.378 36.7716 27.332C36.6852 27.286 36.5897 27.26 36.492 27.2558C36.3942 27.2517 36.2968 27.2695 36.2069 27.308C34.5705 28.0657 33.2059 29.3072 32.2973 30.8649C31.5105 32.4876 31.2405 34.3125 31.5237 36.0935C31.5411 36.1901 31.5801 36.2815 31.6378 36.3609C31.6954 36.4403 31.7702 36.5057 31.8565 36.5523ZM35.9037 28.9601C35.9544 30.1497 35.7054 31.3331 35.1796 32.4014C34.5858 33.4335 33.7421 34.2998 32.7262 34.9208C32.6755 33.7312 32.9244 32.5479 33.4502 31.4795C34.0441 30.4475 34.8877 29.5811 35.9037 28.9601ZM33.2656 38.325C33.2822 38.4234 33.321 38.5167 33.3792 38.5978C33.4373 38.6788 33.5133 38.7455 33.6012 38.7926C34.9812 39.4368 36.5205 39.6599 38.0266 39.4342C39.4072 39.0925 40.6594 38.3589 41.6326 37.3219C41.6969 37.2489 41.7441 37.1624 41.7707 37.0688C41.7974 36.9752 41.8027 36.8768 41.7865 36.7809C41.7702 36.685 41.7327 36.5939 41.6768 36.5143C41.6208 36.4347 41.5477 36.3686 41.4629 36.3209C40.1634 35.6237 38.6703 35.3742 37.2147 35.6108C35.7871 35.9788 34.4829 36.7193 33.4354 37.7566C33.3642 37.8313 33.3118 37.9217 33.2823 38.0204C33.2528 38.1192 33.2471 38.2236 33.2656 38.325ZM37.4943 36.8777C38.3158 36.7358 39.16 36.8061 39.9468 37.082C39.3054 37.5909 38.5595 37.9517 37.7624 38.1385C36.9077 38.2803 36.0318 38.2215 35.2039 37.9665C35.8844 37.4564 36.6616 37.0899 37.4881 36.8893L37.4943 36.8777ZM35.2745 41.4168C34.614 40.4781 33.6591 39.7867 32.5611 39.4522C32.4736 39.4275 32.3819 39.4214 32.2919 39.4341C32.2019 39.4469 32.1156 39.4783 32.0384 39.5264C31.9612 39.5744 31.8949 39.638 31.8438 39.7132C31.7926 39.7883 31.7576 39.8733 31.7412 39.9627C31.5584 41.0965 31.7594 42.2589 32.3125 43.2654C32.9708 44.2063 33.9266 44.8983 35.0259 45.23C35.1132 45.2538 35.2045 45.2591 35.294 45.2457C35.3836 45.2323 35.4693 45.2005 35.5458 45.1522C35.6224 45.1039 35.6881 45.0403 35.7387 44.9653C35.7894 44.8902 35.8239 44.8055 35.8401 44.7165C36.0291 43.5843 35.8298 42.4215 35.2745 41.4168ZM33.4237 42.5697C33.1536 42.1078 33.0044 41.5852 32.9899 41.0503C33.4633 41.3013 33.8666 41.6664 34.1633 42.1126C34.4317 42.5738 34.5789 43.0954 34.5913 43.6289C34.1197 43.3789 33.7183 43.0147 33.4237 42.5697ZM26.0245 33.0362C26.6735 34.4067 27.7104 35.5566 29.0067 36.3434C29.0962 36.3958 29.1968 36.4262 29.3004 36.432C29.4039 36.4378 29.5073 36.4189 29.6021 36.3768C29.6968 36.3348 29.7802 36.2707 29.8453 36.1901C29.9104 36.1094 29.9554 36.0143 29.9765 35.9128C30.2552 34.4664 30.1449 32.972 29.6571 31.5821C29.0413 30.2422 28.0021 29.142 26.6995 28.4509C26.6124 28.4015 26.5152 28.3727 26.4154 28.3668C26.3155 28.3609 26.2155 28.378 26.1233 28.4168C26.0311 28.4556 25.949 28.5151 25.8834 28.5907C25.8178 28.6663 25.7705 28.7559 25.745 28.8527C25.4315 30.2449 25.5285 31.6981 26.0245 33.0362ZM28.4375 32.0647C28.7309 32.8688 28.8567 33.7244 28.8073 34.5789C28.1341 34.0336 27.5969 33.3392 27.2383 32.5506C26.948 31.785 26.8316 30.9644 26.8977 30.1482C27.5657 30.6456 28.0957 31.3052 28.4375 32.0647ZM29.0792 37.5961C28.1895 36.871 27.0831 36.4637 25.9356 36.4386C24.801 36.533 23.7309 37.0052 22.8963 37.7796C22.8314 37.8426 22.7803 37.9185 22.7463 38.0024C22.7122 38.0862 22.696 38.1762 22.6986 38.2667C22.7011 38.3572 22.7225 38.4461 22.7613 38.5279C22.8 38.6097 22.8554 38.6825 22.9238 38.7418C23.812 39.4695 24.9193 39.8773 26.0674 39.8993C27.2113 39.7974 28.2884 39.3164 29.1278 38.5326C29.1874 38.4685 29.2334 38.3932 29.2633 38.311C29.2931 38.2288 29.3062 38.1414 29.3016 38.0541C29.2971 37.9668 29.2751 37.8812 29.2369 37.8026C29.1987 37.7239 29.1451 37.6537 29.0792 37.5961ZM25.9872 38.6055C25.4534 38.609 24.9273 38.4787 24.4569 38.2265C24.9067 37.9395 25.4219 37.771 25.9543 37.7367C26.4899 37.7361 27.0174 37.8673 27.4904 38.1187C27.0382 38.4048 26.5212 38.5722 25.9872 38.6055ZM30.0127 40.0111C29.8598 39.9296 29.6808 39.9122 29.5151 39.9627C29.3494 40.0131 29.2105 40.1274 29.129 40.2803L27.8998 42.5862C27.8183 42.7391 27.8008 42.9181 27.8513 43.0838C27.9018 43.2496 28.016 43.3884 28.1689 43.47C28.3218 43.5515 28.5008 43.5689 28.6666 43.5184C28.8323 43.4679 28.9712 43.3537 29.0527 43.2008L30.2819 40.8949C30.3634 40.742 30.3808 40.563 30.3304 40.3972C30.2799 40.2315 30.1656 40.0926 30.0127 40.0111Z" fill="#1E120B"/>
<path id="Vector_14" d="M30.6273 38.8577C30.9457 39.0274 31.3413 38.9069 31.5111 38.5885C31.6808 38.2702 31.5603 37.8745 31.2419 37.7048C30.9235 37.535 30.5278 37.6556 30.3581 37.9739C30.1884 38.2923 30.3089 38.688 30.6273 38.8577Z" fill="#1E120B"/>
<path id="Vector_15" d="M36.7712 16.2226C36.9241 16.3041 37.1031 16.3215 37.2688 16.271C37.4345 16.2205 37.5734 16.1063 37.6549 15.9534L38.2695 14.8004C38.351 14.6476 38.3685 14.4686 38.318 14.3028C38.2675 14.1371 38.1533 13.9982 38.0004 13.9167C37.8475 13.8352 37.6685 13.8177 37.5027 13.8682C37.337 13.9187 37.1981 14.033 37.1166 14.1858L36.502 15.3388C36.4205 15.4917 36.4031 15.6707 36.4535 15.8364C36.504 16.0022 36.6183 16.1411 36.7712 16.2226ZM39.0771 17.4518C39.2299 17.5333 39.409 17.5507 39.5747 17.5002C39.7404 17.4497 39.8793 17.3355 39.9608 17.1826L40.5754 16.0296C40.6569 15.8768 40.6744 15.6978 40.6239 15.532C40.5734 15.3663 40.4591 15.2274 40.3063 15.1459C40.1534 15.0644 39.9744 15.0469 39.8086 15.0974C39.6429 15.1479 39.504 15.2622 39.4225 15.415L38.8079 16.568C38.7264 16.7209 38.709 16.8999 38.7594 17.0656C38.8099 17.2314 38.9242 17.3703 39.0771 17.4518ZM41.383 18.681C41.5358 18.7625 41.7148 18.7799 41.8806 18.7294C42.0463 18.6789 42.1852 18.5647 42.2667 18.4118L42.8813 17.2589C42.9628 17.106 42.9803 16.927 42.9298 16.7612C42.8793 16.5955 42.765 16.4566 42.6122 16.3751C42.4593 16.2936 42.2803 16.2761 42.1145 16.3266C41.9488 16.3771 41.8099 16.4914 41.7284 16.6442L41.1138 17.7972C41.0323 17.9501 41.0149 18.1291 41.0653 18.2948C41.1158 18.4606 41.2301 18.5995 41.383 18.681ZM43.6888 19.9102C43.8417 19.9917 44.0207 20.0091 44.1865 19.9586C44.3522 19.9081 44.4911 19.7939 44.5726 19.641L45.1872 18.4881C45.2687 18.3352 45.2862 18.1562 45.2357 17.9904C45.1852 17.8247 45.0709 17.6858 44.918 17.6043C44.7652 17.5228 44.5862 17.5053 44.4204 17.5558C44.2547 17.6063 44.1158 17.7206 44.0343 17.8735L43.4197 19.0264C43.3382 19.1793 43.3207 19.3583 43.3712 19.524C43.4217 19.6898 43.536 19.8287 43.6888 19.9102ZM45.9947 21.1394C46.1476 21.2209 46.3266 21.2383 46.4924 21.1878C46.6581 21.1373 46.797 21.0231 46.8785 20.8702L47.4931 19.7173C47.5746 19.5644 47.592 19.3854 47.5416 19.2196C47.4911 19.0539 47.3768 18.915 47.2239 18.8335C47.0711 18.752 46.892 18.7345 46.7263 18.785C46.5606 18.8355 46.4217 18.9498 46.3402 19.1027L45.7256 20.2556C45.6441 20.4085 45.6266 20.5875 45.6771 20.7532C45.7276 20.919 45.8419 21.0579 45.9947 21.1394Z" fill="#1E120B"/>
<path id="Vector_16" d="M47.4815 29.3355L45.7296 25.8032L46.4948 24.3678C46.9535 24.6123 47.4905 24.6646 47.9877 24.5132C48.4849 24.3617 48.9016 24.019 49.1461 23.5603L50.9899 20.1015C51.2344 19.6428 51.2867 19.1058 51.1353 18.6086C50.9838 18.1113 50.6411 17.6946 50.1824 17.4501L37.5 10.6895C37.0413 10.445 36.5043 10.3928 36.0071 10.5442C35.5099 10.6956 35.0932 11.0384 34.8487 11.4971L33.0049 14.9559C32.7604 15.4146 32.7081 15.9516 32.8595 16.4488C33.0109 16.946 33.3537 17.3627 33.8124 17.6072L33.0472 19.0426L29.1381 19.5572C28.6238 19.6252 28.1331 19.8147 27.7067 20.11C27.2802 20.4053 26.9302 20.798 26.6856 21.2554L18.407 36.7857L15.0865 35.0156C15.9889 34.7113 16.7334 34.061 17.1563 33.2077C17.5793 32.3544 17.6459 31.3681 17.3416 30.4657C17.0373 29.5633 16.387 28.8188 15.5337 28.3958C14.6804 27.9729 13.6941 27.9063 12.7917 28.2106L4.60721 30.7323C3.69832 31.0143 2.93739 31.6435 2.48974 32.4833C2.04209 33.3231 1.94387 34.3055 2.21641 35.2173C2.36994 35.7043 2.62392 36.1538 2.96193 36.5366C3.29994 36.9193 3.71448 37.227 4.17877 37.4396C4.64307 37.6522 5.14679 37.7651 5.65742 37.7709C6.16805 37.7768 6.67423 37.6755 7.14327 37.4735C7.24413 37.9871 7.45739 38.4719 7.76774 38.8933C8.07808 39.3148 8.47784 39.6623 8.93833 39.911L32.8851 52.6762C33.6495 53.0837 34.5445 53.1709 35.3732 52.9185C36.2019 52.6661 36.8964 52.0948 37.3039 51.3304L47.4387 32.3183C47.6822 31.8602 47.813 31.3507 47.8205 30.8321C47.8279 30.3134 47.7117 29.8004 47.4815 29.3355ZM44.5047 26.2681L46.0039 29.2882L30.001 20.7575L33.3441 20.3188L44.5047 26.2681ZM34.1578 15.5705L36.0016 12.1117C36.0831 11.9588 36.222 11.8445 36.3877 11.794C36.5535 11.7436 36.7325 11.761 36.8854 11.8425L49.5678 18.6031C49.7207 18.6846 49.8349 18.8235 49.8854 18.9892C49.9359 19.155 49.9185 19.334 49.837 19.4869L47.9932 22.9457C47.9117 23.0986 47.7728 23.2128 47.607 23.2633C47.4413 23.3138 47.2623 23.2964 47.1094 23.2149L34.427 16.4543C34.2741 16.3728 34.1598 16.2339 34.1094 16.0681C34.0589 15.9024 34.0763 15.7234 34.1578 15.5705ZM45.3419 23.7532L44.7273 24.9062L34.3507 19.3748L34.9653 18.2218L45.3419 23.7532ZM27.8386 21.87C27.9552 21.663 28.1086 21.4788 28.2911 21.3266L46.4846 31.025C46.46 31.2614 46.3926 31.4914 46.2857 31.7037L36.7779 49.5398L21.7088 41.5069C21.8743 40.7439 21.7867 39.9477 21.4593 39.2389C21.1319 38.5301 20.5825 37.9472 19.8943 37.5785L19.5599 37.4003L27.8386 21.87ZM13.1885 29.4659C13.7725 29.2913 14.4019 29.3558 14.9383 29.6452C15.4747 29.9346 15.8742 30.4252 16.0488 31.0092C16.2235 31.5931 16.159 32.2225 15.8696 32.7589C15.5802 33.2953 15.0895 33.6948 14.5056 33.8694L10.9993 34.9615L9.68228 30.558L13.1885 29.4659ZM3.43948 34.8255C3.35061 34.5353 3.31988 34.2305 3.34905 33.9285C3.37821 33.6265 3.4667 33.3331 3.60944 33.0654C3.75218 32.7976 3.94637 32.5606 4.18087 32.3681C4.41536 32.1755 4.68556 32.0311 4.97598 31.9431L8.51107 30.8664L9.82812 35.2699L6.32185 36.362C6.03175 36.4527 5.72653 36.4848 5.42392 36.4564C5.12131 36.4281 4.82736 36.3398 4.55915 36.1969C4.29095 36.0539 4.05384 35.859 3.86162 35.6236C3.6694 35.3882 3.5259 35.1169 3.43948 34.8255ZM8.37517 37.079L13.342 35.5662L14.91 36.4021L12.7589 40.4374L9.54216 38.7227C9.23404 38.5573 8.96835 38.3228 8.7659 38.0377C8.56345 37.7526 8.42972 37.4244 8.37517 37.079ZM13.9118 41.052L16.0629 37.0167L19.2797 38.7314C19.8148 39.0167 20.2147 39.5028 20.3913 40.0829C20.568 40.663 20.507 41.2895 20.2218 41.8246C19.9365 42.3598 19.4504 42.7596 18.8703 42.9363C18.2902 43.113 17.6637 43.052 17.1286 42.7668L13.9118 41.052ZM33.5119 51.5002L19.5728 44.0697C20.2397 43.793 20.808 43.3221 21.2038 42.7183L36.1633 50.6927C35.9188 51.1514 35.5021 51.4941 35.0048 51.6456C34.5076 51.797 33.9706 51.7447 33.5119 51.5002ZM19.5149 5.54398C19.857 5.72631 20.2454 5.80312 20.6311 5.7647C21.0168 5.72627 21.3824 5.57433 21.6818 5.3281C21.9811 5.08187 22.2008 4.75239 22.3129 4.38135C22.425 4.0103 22.4245 3.61434 22.3116 3.24355C22.1986 2.87276 21.9783 2.54378 21.6784 2.29822C21.3785 2.05266 21.0125 1.90154 20.6267 1.86398C20.2409 1.82642 19.8527 1.9041 19.511 2.08721C19.1694 2.27031 18.8897 2.55061 18.7074 2.89265C18.4629 3.35133 18.4106 3.88834 18.562 4.38556C18.7135 4.88278 19.0562 5.29947 19.5149 5.54398ZM20.7441 3.23808C20.8581 3.29886 20.9516 3.39208 21.0126 3.50596C21.0736 3.61984 21.0995 3.74926 21.087 3.87786C21.0745 4.00645 21.0241 4.12845 20.9423 4.22841C20.8604 4.32838 20.7507 4.40183 20.6271 4.43948C20.5035 4.47712 20.3716 4.47727 20.2479 4.4399C20.1242 4.40254 20.0144 4.32933 19.9323 4.22955C19.8502 4.12976 19.7996 4.00788 19.7868 3.87932C19.774 3.75075 19.7996 3.62127 19.8603 3.50725C19.9418 3.35436 20.0807 3.24011 20.2465 3.18963C20.4122 3.13915 20.5912 3.15658 20.7441 3.23808ZM24.6269 11.2302C24.474 11.1487 24.295 11.1312 24.1293 11.1817C23.9635 11.2322 23.8246 11.3465 23.7431 11.4993L23.4358 12.0758L22.8594 11.7685C22.7065 11.687 22.5275 11.6696 22.3617 11.7201C22.196 11.7706 22.0571 11.8848 21.9756 12.0377C21.8941 12.1906 21.8767 12.3696 21.9272 12.5353C21.9776 12.7011 22.0919 12.84 22.2448 12.9215L22.8212 13.2288L22.5139 13.8052C22.4324 13.9581 22.415 14.1371 22.4655 14.3029C22.516 14.4686 22.6302 14.6075 22.7831 14.689C22.936 14.7705 23.115 14.7879 23.2808 14.7375C23.4465 14.687 23.5854 14.5727 23.6669 14.4198L23.9742 13.8434L24.5507 14.1507C24.7036 14.2322 24.8826 14.2496 25.0483 14.1991C25.214 14.1486 25.3529 14.0344 25.4344 13.8815C25.5159 13.7286 25.5334 13.5496 25.4829 13.3839C25.4324 13.2181 25.3182 13.0792 25.1653 12.9977L24.5888 12.6904L24.8961 12.1139C24.9776 11.9611 24.995 11.7821 24.9445 11.6163C24.8941 11.4506 24.7798 11.3117 24.6269 11.2302Z" fill="#1E120B"/>
<path id="Vector_17" d="M20.2104 23.6807C20.0575 23.5992 19.8785 23.5818 19.7127 23.6322C19.547 23.6827 19.4081 23.797 19.3266 23.9499L19.0193 24.5263L18.4428 24.219C18.2899 24.1375 18.1109 24.1201 17.9452 24.1706C17.7795 24.2211 17.6406 24.3353 17.5591 24.4882C17.4776 24.6411 17.4601 24.8201 17.5106 24.9858C17.5611 25.1516 17.6753 25.2905 17.8282 25.372L18.4047 25.6793L18.0974 26.2558C18.0159 26.4086 17.9985 26.5877 18.049 26.7534C18.0994 26.9191 18.2137 27.058 18.3666 27.1395C18.5195 27.221 18.6985 27.2385 18.8642 27.188C19.03 27.1375 19.1689 27.0232 19.2504 26.8704L19.5577 26.2939L20.1341 26.6012C20.287 26.6827 20.466 26.7001 20.6318 26.6496C20.7975 26.5992 20.9364 26.4849 21.0179 26.332C21.0994 26.1791 21.1168 26.0001 21.0663 25.8344C21.0159 25.6686 20.9016 25.5297 20.7487 25.4482L20.1723 25.1409L20.4796 24.5645C20.5611 24.4116 20.5785 24.2326 20.528 24.0668C20.4775 23.9011 20.3633 23.7622 20.2104 23.6807Z" fill="#1E120B"/>
</g>
</g>
</g>
</svg>
